<svg width="298" height="222" viewBox="0 0 298 222" fill="none" xmlns="http://www.w3.org/2000/svg">
<g filter="url(#filter0_d_777_744)">
<path d="M45.7194 211.507C62.7155 214.308 80.789 215.978 99.6436 216.813C100.559 216.84 101.26 216.84 102.175 216.813C115.455 216.57 126.094 210.591 125.932 203.453C125.905 201.675 125.205 200.059 123.966 198.551C121.623 195.669 120.357 192.356 120.357 188.746C120.357 177.595 133.07 168.545 148.773 168.545C164.477 168.545 177.163 177.568 177.163 188.746C177.163 192.329 175.897 195.669 173.554 198.551C172.315 200.086 171.614 201.675 171.587 203.453C171.453 210.591 182.092 216.57 195.371 216.813C196.314 216.813 197.23 216.813 198.145 216.786C216.892 215.978 234.858 214.173 251.827 211.507C249.026 194.51 247.329 176.437 246.494 157.582C246.467 156.667 246.467 155.966 246.494 155.05C246.737 141.771 252.716 131.132 259.854 131.267C261.632 131.294 263.248 131.994 264.756 133.233C267.638 135.576 270.951 136.842 274.561 136.842C285.712 136.842 294.735 124.129 294.735 108.426C294.735 92.7225 285.685 80.0091 274.561 80.0091C270.978 80.0091 267.665 81.2481 264.756 83.6184C263.248 84.8574 261.632 85.5577 259.854 85.5846C252.716 85.7193 246.737 75.0799 246.494 61.8009C246.494 60.8582 246.494 59.9424 246.521 59.0266C247.329 40.2797 249.161 22.287 251.8 5.31784C234.831 2.65126 216.865 0.846588 198.145 0.0385284C197.23 0.0115967 196.314 -0.0153198 195.371 0.0116119C182.092 0.254028 171.453 6.23366 171.587 13.3715C171.614 15.1492 172.315 16.7653 173.554 18.2737C175.897 21.1557 177.163 24.4688 177.163 28.0781C177.163 39.2292 164.45 48.2794 148.773 48.2794C133.097 48.2794 120.357 39.2292 120.357 28.0781C120.357 24.4957 121.623 21.1557 123.966 18.2737C125.205 16.7384 125.905 15.1492 125.932 13.3715C126.067 6.23366 115.428 0.254028 102.175 0.0116119C101.233 0.0116119 100.532 0.0116119 99.6436 0.0116119C80.789 0.819672 62.7155 2.51659 45.7463 5.31784C48.4129 22.287 50.4061 40.2797 51.2142 59.0266C51.2411 59.9424 51.268 60.8582 51.2411 61.8009C50.9987 75.0799 45.0191 85.7193 37.8813 85.5846C36.1036 85.5577 34.4874 84.8574 32.9791 83.6184C30.097 81.2481 26.784 80.0091 23.1747 80.0091C12.0235 80.0091 3.00024 92.7225 3.00024 108.426C3.00024 124.129 12.0235 136.842 23.1747 136.842C26.757 136.842 30.097 135.576 32.9791 133.233C34.5144 131.994 36.1036 131.294 37.8813 131.267C45.0191 131.132 50.9987 141.771 51.2411 155.05C51.2411 155.993 51.2411 156.694 51.2411 157.582C50.4061 176.437 48.5476 194.51 45.7463 211.507H45.7194Z" fill="url(#paint0_linear_777_744)"/>
<path d="M46.4205 210.808C63.3089 213.582 81.2477 215.252 99.9677 216.087C100.857 216.114 101.557 216.114 102.5 216.087C115.671 215.845 125.448 210.027 125.341 203.32C125.341 201.542 124.533 199.98 123.267 198.445C120.842 195.563 119.684 191.765 119.684 188.209C119.684 177.139 133.044 167.873 148.801 167.873C164.558 167.873 177.918 177.139 177.918 188.209C177.918 191.765 176.841 195.482 174.416 198.364C173.124 199.872 172.343 201.704 172.289 203.482C172.181 210.215 182.308 215.818 195.641 216.06C196.584 216.06 197.5 216.06 198.416 216.033C217.243 215.225 234.293 213.421 251.155 210.781C248.381 193.893 246.684 175.927 245.875 157.207C245.849 156.291 245.849 155.618 245.875 154.675C246.118 141.504 252.286 130.406 259.343 130.514C261.336 130.541 263.168 131.215 264.703 132.4C267.639 134.662 270.71 135.982 274.292 135.982C285.147 135.982 293.955 123.969 293.955 108.373C293.955 92.778 285.174 80.7649 274.292 80.7649C270.71 80.7649 267.585 82.1117 264.676 84.3742C263.141 85.5863 261.417 86.2058 259.343 86.2328C252.259 86.3405 246.118 75.2701 245.875 62.0719C245.875 61.1292 245.876 60.2134 245.902 59.3245C246.71 40.7123 248.515 22.8274 251.155 5.96597C234.293 3.32632 217.27 1.52164 198.443 0.713593C197.527 0.686646 196.611 0.659729 195.668 0.686661C182.335 0.929077 172.208 6.66628 172.316 13.2654C172.342 15.0431 173.097 16.6592 174.336 18.1945C176.76 21.2382 177.918 24.7937 177.918 28.3491C177.918 39.6888 164.585 48.9006 148.801 48.9006C133.017 48.9006 119.684 39.5811 119.684 28.2683C119.684 24.7128 120.842 21.1843 123.267 18.1676C124.506 16.6323 125.26 15.0162 125.287 13.2385C125.394 6.63934 115.698 0.902161 102.5 0.659744C101.584 0.659744 100.883 0.659744 99.9677 0.659744C81.2477 1.4678 63.3089 3.16469 46.4205 5.93901C49.0602 22.8004 51.0534 40.6584 51.8615 59.2976C51.8884 60.2134 51.9153 61.1022 51.8884 62.045C51.646 75.2163 45.5317 86.1519 38.4747 86.1789C36.6431 86.1789 34.7576 85.6671 33.1146 84.3473C30.2325 82.0578 27.0541 80.7649 23.4718 80.7649C12.6708 80.7649 3.80908 92.778 3.80908 108.373C3.80908 123.969 12.6708 135.982 23.4718 135.982C27.0541 135.982 30.2325 134.662 33.1415 132.373C34.8384 131.026 36.5623 130.514 38.5016 130.541C45.5586 130.649 51.6729 141.477 51.9153 154.675C51.9153 155.591 51.9153 156.291 51.9153 157.207C51.1073 175.954 49.2218 193.893 46.4744 210.781L46.4205 210.808Z" fill="url(#paint1_linear_777_744)"/>
<path d="M47.094 210.136C63.8477 212.884 81.6788 214.554 100.291 215.362C101.18 215.389 101.88 215.389 102.796 215.362C115.886 215.119 124.775 209.463 124.694 203.187C124.694 201.409 123.805 199.901 122.486 198.366C119.981 195.51 118.903 191.201 118.903 187.672C118.903 176.656 132.909 167.175 148.747 167.175C164.585 167.175 178.565 176.683 178.565 187.672C178.565 191.201 177.676 195.322 175.171 198.177C173.851 199.685 172.935 201.759 172.908 203.537C172.827 209.867 182.416 215.119 195.83 215.362C196.773 215.362 197.716 215.362 198.631 215.335C217.567 214.527 233.674 212.749 250.428 210.136C247.68 193.356 245.983 175.525 245.175 156.912C245.148 156.023 245.148 155.323 245.175 154.407C245.418 141.317 251.747 129.762 258.778 129.842C260.986 129.842 263.033 130.516 264.596 131.647C267.558 133.829 270.387 135.203 273.969 135.203C284.555 135.203 293.093 123.89 293.093 108.402C293.093 92.9143 284.555 81.6016 273.969 81.6016C270.387 81.6016 267.478 83.0291 264.515 85.2109C262.952 86.3691 261.094 86.9347 258.751 86.9617C251.72 87.0425 245.391 75.5142 245.148 62.4237C245.148 61.5079 245.148 60.5921 245.175 59.7033C245.983 41.1988 247.761 23.4486 250.401 6.72182C233.674 4.1091 217.567 2.30444 198.631 1.49638C197.716 1.46945 196.773 1.44249 195.83 1.46942C182.416 1.71184 172.827 7.17969 172.908 13.267C172.908 15.0448 173.77 16.6339 175.009 18.2231C177.514 21.4284 178.565 25.1993 178.565 28.7278C178.565 40.2561 164.612 49.6564 148.747 49.6564C132.883 49.6564 118.903 40.0406 118.903 28.5932C118.903 25.0647 119.981 21.3207 122.486 18.1962C123.751 16.6339 124.56 15.0178 124.586 13.2401C124.667 7.20665 115.886 1.68492 102.796 1.4425C101.88 1.4425 101.18 1.4425 100.291 1.4425C81.6788 2.25056 63.8746 3.92055 47.094 6.66794C49.7067 23.4216 51.673 41.1719 52.4811 59.6494C52.508 60.5383 52.5349 61.4541 52.508 62.3698C52.2656 75.4603 46.0166 86.6385 39.0135 86.827C37.128 86.8809 35.0001 86.5038 33.1955 85.1301C30.2865 82.8945 27.2698 81.5477 23.7143 81.5477C13.2904 81.5477 4.59033 92.8605 4.59033 108.348C4.59033 123.836 13.2904 135.149 23.7143 135.149C27.2967 135.149 30.3404 133.802 33.2494 131.566C35.1348 130.112 36.9395 129.789 39.0404 129.869C46.0166 130.22 52.2925 141.236 52.5349 154.327C52.5349 155.242 52.5349 155.943 52.5349 156.832C51.7269 175.444 49.8683 193.275 47.1209 210.028L47.094 210.136Z" fill="url(#paint2_linear_777_744)"/>
<path d="M47.7976 209.433C64.4435 212.18 82.1669 213.823 100.644 214.631C101.533 214.658 102.234 214.658 103.122 214.631C116.132 214.389 124.132 208.894 124.078 203.049C124.078 201.271 123.108 199.79 121.762 198.282C119.203 195.426 118.206 190.632 118.206 187.13C118.206 176.195 132.859 166.471 148.778 166.471C164.696 166.471 179.295 176.222 179.295 187.13C179.295 190.659 178.568 195.13 176.009 198.012C174.662 199.521 173.612 201.81 173.612 203.588C173.558 209.513 182.635 214.389 196.103 214.631C197.045 214.631 197.988 214.631 198.904 214.604C217.947 213.796 233.112 212.045 249.757 209.433C247.01 192.787 245.34 175.063 244.532 156.586C244.505 155.697 244.505 154.997 244.532 154.081C244.774 141.071 251.266 129.085 258.269 129.139C260.693 129.139 262.956 129.758 264.545 130.863C267.535 132.964 270.147 134.364 273.703 134.364C284.019 134.364 292.315 123.752 292.315 108.372C292.315 92.992 284.019 82.3795 273.703 82.3795C270.147 82.3795 267.427 83.8879 264.437 85.9619C262.848 87.0662 260.882 87.578 258.269 87.6049C251.293 87.6588 244.801 75.6996 244.559 62.6899C244.559 61.7741 244.559 60.8583 244.586 59.9694C245.394 41.5996 247.172 23.9571 249.784 7.3381C233.165 4.72539 218.001 2.94768 198.958 2.16655C198.042 2.13962 197.099 2.11266 196.156 2.13959C182.689 2.382 173.612 7.58054 173.666 13.1561C173.666 14.9338 174.581 16.523 175.82 18.1391C178.379 21.506 179.349 25.4924 179.349 29.0209C179.349 40.7377 164.777 50.3266 148.831 50.3266C132.886 50.3266 118.26 40.4414 118.26 28.8324C118.26 25.3038 119.257 21.3983 121.815 18.1391C123.081 16.5499 123.943 14.9338 123.97 13.1561C124.024 7.66133 116.186 2.382 103.176 2.13959C102.26 2.13959 101.56 2.13959 100.698 2.13959C82.2207 2.94765 64.5243 4.59071 47.8784 7.3381C50.4911 23.9571 52.4304 41.5996 53.2385 59.9694C53.2654 60.8583 53.2923 61.7741 53.2654 62.6899C53.023 75.6996 46.6393 87.147 39.717 87.4972C37.7777 87.6049 35.3804 87.3625 33.4411 85.9349C30.5321 83.7801 27.677 82.3795 24.0946 82.3795C14.0209 82.3795 5.48242 92.992 5.48242 108.372C5.48242 123.752 13.9939 134.364 24.0946 134.364C27.6501 134.364 30.586 132.964 33.495 130.782C35.569 129.22 37.4814 129.058 39.717 129.247C46.6393 129.812 53.023 141.044 53.2654 154.054C53.2654 154.97 53.2654 155.67 53.2654 156.559C52.4573 175.036 50.6257 192.733 47.8784 209.406L47.7976 209.433Z" fill="url(#paint3_linear_777_744)"/>
<path d="M48.4689 208.756C65.0071 211.477 82.5958 213.12 100.939 213.928C101.827 213.955 102.501 213.955 103.417 213.928C116.346 213.686 123.456 208.352 123.429 202.938C123.429 201.161 122.406 199.733 121.005 198.225C118.366 195.37 117.477 190.117 117.477 186.616C117.477 175.761 132.749 165.795 148.775 165.795C164.802 165.795 179.993 175.761 179.993 186.616C179.993 190.117 179.455 194.993 176.815 197.848C175.414 199.356 174.283 201.861 174.256 203.639C174.229 209.161 182.795 213.686 196.343 213.928C197.286 213.928 198.228 213.928 199.171 213.901C218.295 213.12 232.571 211.342 249.082 208.756C246.362 192.218 244.692 174.603 243.884 156.26C243.857 155.371 243.857 154.698 243.884 153.782C244.126 140.853 250.806 128.436 257.728 128.463C260.368 128.463 262.846 129.055 264.462 130.133C267.506 132.153 269.849 133.607 273.404 133.607C283.424 133.607 291.478 123.695 291.478 108.423C291.478 93.1507 283.424 83.2386 273.404 83.2386C269.849 83.2386 267.344 84.8278 264.3 86.821C262.684 87.8715 260.583 88.3294 257.701 88.3563C250.752 88.3832 244.126 75.9661 243.884 63.0642C243.884 62.1484 243.884 61.2595 243.911 60.3707C244.692 42.1355 246.469 24.6277 249.055 8.08948C232.544 5.50371 218.295 3.72597 199.171 2.94485C198.255 2.91792 197.313 2.89099 196.343 2.91794C182.795 3.16035 174.229 8.11642 174.256 13.1533C174.256 14.931 175.226 16.5202 176.465 18.1633C179.104 21.6918 179.966 25.8936 179.966 29.3952C179.966 41.3006 164.775 51.078 148.749 51.078C132.722 51.078 117.45 40.8965 117.45 29.1528C117.45 25.6512 118.366 21.5302 120.978 18.1633C122.244 16.5471 123.187 14.931 123.187 13.1533C123.214 8.19724 116.319 3.16035 103.39 2.91794C102.474 2.91794 101.801 2.91794 100.912 2.91794C82.5688 3.72598 64.9802 5.36903 48.442 8.08948C51.0277 24.6007 52.9671 42.1086 53.7751 60.3707C53.8021 61.2595 53.829 62.1484 53.8021 63.0642C53.5597 75.9931 47.0683 87.7098 40.1998 88.2216C38.2066 88.3832 35.54 88.3024 33.466 86.7941C30.557 84.6931 27.8366 83.2655 24.2811 83.2655C14.5575 83.2655 6.20764 93.1777 6.20764 108.45C6.20764 123.722 14.5575 133.634 24.2811 133.634C27.8366 133.634 30.6648 132.207 33.5468 130.052C35.8094 128.382 37.8026 128.382 40.1998 128.651C47.0413 129.405 53.5597 140.88 53.8021 153.809C53.8021 154.725 53.8021 155.398 53.8021 156.287C52.994 174.657 51.1893 192.218 48.4689 208.783V208.756Z" fill="url(#paint4_linear_777_744)"/>
<path d="M49.1668 208.085C65.5972 210.778 83.0512 212.421 101.286 213.202C102.175 213.229 102.849 213.229 103.737 213.202C116.559 212.96 122.807 207.788 122.807 202.805C122.807 201.055 121.703 199.654 120.276 198.146C117.582 195.291 116.747 189.553 116.747 186.079C116.747 175.305 132.666 165.096 148.773 165.096C164.88 165.096 180.691 175.305 180.691 186.079C180.691 189.553 180.341 194.806 177.621 197.661C176.193 199.169 174.927 201.917 174.927 203.667C174.927 208.785 182.954 212.96 196.583 213.176C197.553 213.176 198.495 213.176 199.411 213.149C218.643 212.367 231.976 210.617 248.379 208.031C245.686 191.6 244.016 174.12 243.235 155.911C243.208 155.022 243.208 154.349 243.235 153.46C243.477 140.639 250.319 127.764 257.214 127.764C260.069 127.764 262.79 128.33 264.406 129.353C267.476 131.266 269.577 132.801 273.133 132.801C282.883 132.801 290.668 123.589 290.668 108.425C290.668 93.2601 282.883 84.0483 273.133 84.0483C269.604 84.0483 267.288 85.7183 264.19 87.6307C262.547 88.6542 260.339 89.0313 257.16 89.0313C250.265 89.0313 243.45 76.1833 243.208 63.3621C243.208 62.4463 243.208 61.5574 243.235 60.6955C244.016 42.5681 245.767 25.1949 248.352 8.79143C231.949 6.20566 218.643 4.48183 199.411 3.67377C198.495 3.64684 197.526 3.61992 196.583 3.64685C182.981 3.88927 174.927 8.57597 174.927 13.1011C174.927 14.8788 175.951 16.468 177.19 18.1379C179.883 21.8281 180.691 26.2724 180.691 29.7201C180.691 41.814 164.88 51.78 148.773 51.78C132.666 51.78 116.747 41.3291 116.747 29.4238C116.747 25.9491 117.555 21.6395 120.276 18.1379C121.542 16.4949 122.538 14.8788 122.538 13.1011C122.538 8.68372 116.559 3.88927 103.737 3.64685C102.849 3.64685 102.148 3.64685 101.286 3.64685C83.0512 4.42796 65.5972 6.07098 49.1668 8.79143C51.7256 25.1949 53.6649 42.5951 54.446 60.6955C54.473 61.5844 54.4999 62.4733 54.473 63.3621C54.2306 76.1833 47.6045 88.1963 40.7899 88.8697C38.7429 89.0583 35.8069 89.1391 33.5982 87.5768C30.6892 85.5298 28.1035 84.0483 24.5749 84.0483C15.2015 84.0483 7.04016 93.2601 7.04016 108.425C7.04016 123.589 15.2284 132.801 24.5749 132.801C28.1304 132.801 30.8239 131.32 33.706 129.219C36.1571 127.441 38.258 127.602 40.8169 127.98C47.5776 128.922 54.2575 140.639 54.4999 153.487C54.4999 154.403 54.4999 155.076 54.4999 155.938C53.7188 174.173 51.8872 191.627 49.1937 208.058L49.1668 208.085Z" fill="url(#paint5_linear_777_744)"/>
</g>
<defs>
<filter id="filter0_d_777_744" x="0.671824" y="0" width="296.392" height="221.49" filterUnits="userSpaceOnUse" color-interpolation-filters="sRGB">
<feFlood flood-opacity="0" result="BackgroundImageFix"/>
<feColorMatrix in="SourceAlpha" type="matrix" values="0 0 0 0 0 0 0 0 0 0 0 0 0 0 0 0 0 0 127 0" result="hardAlpha"/>
<feOffset dy="2.32842"/>
<feGaussianBlur stdDeviation="1.16421"/>
<feComposite in2="hardAlpha" operator="out"/>
<feColorMatrix type="matrix" values="0 0 0 0 0 0 0 0 0 0 0 0 0 0 0 0 0 0 0.25 0"/>
<feBlend mode="normal" in2="BackgroundImageFix" result="effect1_dropShadow_777_744"/>
<feBlend mode="normal" in="SourceGraphic" in2="effect1_dropShadow_777_744" result="shape"/>
</filter>
<linearGradient id="paint0_linear_777_744" x1="148.868" y1="216.833" x2="148.868" y2="0.000457764" gradientUnits="userSpaceOnUse">
<stop stop-color="#F77F5A"/>
<stop offset="1" stop-color="#FFC291"/>
</linearGradient>
<linearGradient id="paint1_linear_777_744" x1="148.882" y1="216.107" x2="148.882" y2="0.659744" gradientUnits="userSpaceOnUse">
<stop stop-color="#F77F5A"/>
<stop offset="1" stop-color="#FFC291"/>
</linearGradient>
<linearGradient id="paint2_linear_777_744" x1="148.842" y1="215.382" x2="148.842" y2="1.4425" gradientUnits="userSpaceOnUse">
<stop stop-color="#F77F5A"/>
<stop offset="1" stop-color="#FFC291"/>
</linearGradient>
<linearGradient id="paint3_linear_777_744" x1="148.899" y1="214.651" x2="148.899" y2="2.12843" gradientUnits="userSpaceOnUse">
<stop stop-color="#F77F5A"/>
<stop offset="1" stop-color="#FFC291"/>
</linearGradient>
<linearGradient id="paint4_linear_777_744" x1="148.843" y1="213.948" x2="148.843" y2="2.90677" gradientUnits="userSpaceOnUse">
<stop stop-color="#F77F5A"/>
<stop offset="1" stop-color="#FFC291"/>
</linearGradient>
<linearGradient id="paint5_linear_777_744" x1="148.854" y1="213.223" x2="148.854" y2="3.63568" gradientUnits="userSpaceOnUse">
<stop stop-color="#F77F5A"/>
<stop offset="1" stop-color="#FFC291"/>
</linearGradient>
</defs>
</svg>
