<svg width="223" height="254" viewBox="0 0 223 254" fill="none" xmlns="http://www.w3.org/2000/svg">
<g filter="url(#filter0_d_777_786)">
<path d="M214.479 248.973C217.281 231.977 218.951 214.092 219.786 195.237C219.813 194.322 219.813 193.621 219.786 192.705C219.543 179.426 213.564 168.787 206.426 168.922C204.648 168.949 203.032 169.649 201.524 170.888C198.642 173.258 195.328 174.497 191.746 174.497C180.595 174.497 171.572 161.784 171.572 146.081C171.572 130.378 180.595 117.664 191.746 117.664C195.328 117.664 198.668 118.93 201.524 121.273C203.059 122.512 204.648 123.213 206.426 123.24C213.564 123.374 219.543 112.735 219.786 99.4559C219.786 98.5132 219.786 97.5974 219.759 96.6816C218.951 77.9347 217.146 59.969 214.479 42.9998C197.51 45.6664 179.545 47.4711 160.798 48.306C159.882 48.333 158.966 48.3599 158.023 48.333C144.744 48.0906 134.105 42.111 134.24 34.9731C134.266 33.1954 134.967 31.5793 136.206 30.0709C138.549 27.1889 139.815 23.8758 139.815 20.2665C139.815 9.11536 127.102 0.0651398 111.399 0.0651398C95.6953 0.0651398 82.9819 9.11536 82.9819 20.2665C82.9819 23.8489 84.2478 27.1889 86.5912 30.0709C87.8302 31.6062 88.5305 33.1954 88.5575 34.9731C88.6922 42.111 78.0528 48.0906 64.7737 48.333C63.831 48.333 63.1307 48.333 62.2419 48.333C43.3872 47.5249 25.3137 45.8011 8.31764 42.9998C5.65105 59.969 3.84638 77.9617 3.03832 96.7086C3.01139 97.6244 2.98447 98.5401 3.0114 99.4829C3.25382 112.762 9.23341 123.401 16.3712 123.267C18.1489 123.24 19.7651 122.539 21.2734 121.3C24.1555 118.957 27.4685 117.691 31.0778 117.691C42.229 117.691 51.2523 130.404 51.2523 146.108C51.2523 161.811 42.229 174.524 31.0778 174.524C27.4955 174.524 24.1555 173.258 21.2734 170.915C19.7651 169.676 18.1489 168.976 16.3712 168.949C9.23341 168.814 3.25382 179.453 3.0114 192.732C3.0114 193.675 3.0114 194.375 3.0114 195.264C3.81946 214.119 5.51638 232.004 8.31764 249H214.399L214.479 248.973Z" fill="url(#paint0_linear_777_786)"/>
<path d="M213.777 248.326C216.551 231.437 218.222 213.633 219.057 194.913C219.083 194.024 219.083 193.324 219.057 192.381C218.814 179.21 213.077 169.486 206.478 169.594C204.7 169.621 203.084 170.375 201.549 171.614C198.559 174.038 195.03 175.197 191.448 175.197C180.162 175.197 170.843 161.837 170.843 146.053C170.843 130.269 180.054 116.936 191.394 116.936C194.949 116.936 198.505 118.094 201.549 120.518C203.111 121.757 204.7 122.511 206.478 122.538C213.077 122.646 218.814 112.518 219.057 99.1855C219.057 98.2428 219.056 97.327 219.03 96.4112C218.221 77.5566 216.417 60.5336 213.777 43.6722C196.916 46.3118 179.058 48.1165 160.446 48.9245C159.557 48.9515 158.614 48.9784 157.698 48.9515C144.527 48.709 133.43 42.5678 133.537 35.4839C133.537 33.4099 134.184 31.686 135.396 30.1507C137.658 27.2417 139.005 24.1172 139.005 20.5349C139.005 9.65306 126.992 0.872192 111.397 0.872192C95.8012 0.872192 83.7881 9.65306 83.7881 20.5349C83.7881 24.1172 85.1079 27.1879 87.3704 30.1238C88.5556 31.6591 89.229 33.4907 89.2559 35.4839C89.3636 42.5678 78.2664 48.736 65.0951 48.9784C64.1523 48.9784 63.4789 48.9784 62.5631 48.9784C43.8432 48.1703 25.8774 46.4734 9.01602 43.6991C6.37637 60.5605 4.57172 77.6105 3.76367 96.4382C3.73673 97.354 3.70981 98.2698 3.73675 99.2125C3.97916 112.545 9.60861 122.673 16.3155 122.565C18.0932 122.538 19.9248 121.73 21.4331 120.437C24.3152 118.013 28.0323 116.936 31.5877 116.936C42.6581 116.936 51.9238 130.269 51.9238 146.053C51.9238 161.837 42.6581 175.197 31.5877 175.197C28.0323 175.197 24.2075 174.038 21.3523 171.614C19.844 170.321 18.2817 169.567 16.504 169.54C9.79713 169.432 3.97916 179.21 3.73675 192.381C3.73675 193.324 3.73675 193.997 3.73675 194.913C4.5448 213.66 6.24169 231.464 9.01602 248.353H213.723L213.777 248.326Z" fill="url(#paint1_linear_777_786)"/>
<path d="M213.104 247.681C215.851 230.9 217.521 213.204 218.329 194.591C218.356 193.703 218.356 193.002 218.329 192.086C218.087 178.996 212.565 170.215 206.532 170.296C204.754 170.296 203.138 171.131 201.576 172.397C198.451 174.902 194.734 175.979 191.179 175.979C179.731 175.979 170.142 161.973 170.142 146.108C170.142 130.243 179.543 116.291 191.071 116.291C194.599 116.291 198.37 117.368 201.576 119.846C203.165 121.085 204.754 121.92 206.532 121.947C212.619 122.028 218.087 112.439 218.329 99.0255C218.329 98.0827 218.329 97.14 218.302 96.2242C217.494 77.2888 215.717 61.1815 213.104 44.4279C196.35 47.0406 178.627 48.8452 160.122 49.6533C159.234 49.6802 158.318 49.7072 157.402 49.6803C144.311 49.4378 132.783 43.1081 132.864 36.078C132.864 33.7346 133.457 31.8761 134.615 30.3139C136.797 27.351 138.224 24.442 138.224 20.8596C138.224 10.2741 126.911 1.73564 111.424 1.73564C95.9358 1.73564 84.6231 10.2741 84.6231 20.8596C84.6231 24.442 85.9968 27.2702 88.1786 30.233C89.3368 31.7953 89.9832 33.8423 89.9832 36.051C90.064 43.0811 78.5357 49.4109 65.4452 49.6533C64.5294 49.6533 63.8291 49.6533 62.9403 49.6533C44.355 48.8452 26.5239 47.1483 9.7433 44.401C7.13059 61.1546 5.32591 77.2618 4.54479 96.1973C4.51786 97.1131 4.49094 98.0558 4.51787 98.9985C4.76029 112.412 10.0126 122.028 16.3424 121.92C18.1201 121.92 20.1672 120.978 21.7025 119.658C24.5577 117.153 28.6787 116.264 32.2072 116.264C43.1968 116.264 52.7049 130.216 52.7049 146.081C52.7049 161.946 43.1968 175.952 32.2072 175.952C28.6787 175.952 24.3691 174.875 21.514 172.37C20.0056 171.05 18.4703 170.188 16.6926 170.161C10.4167 170.08 4.76029 178.969 4.51787 192.06C4.51787 192.975 4.51787 193.676 4.51787 194.565C5.32593 213.177 6.99592 230.9 9.7433 247.681H213.077H213.104Z" fill="url(#paint2_linear_777_786)"/>
<path d="M212.409 247.006C215.156 230.36 216.799 212.718 217.607 194.24C217.634 193.351 217.634 192.678 217.607 191.735C217.365 178.726 212.086 170.887 206.591 170.941C204.813 170.941 203.197 171.83 201.608 173.096C198.376 175.655 194.443 176.652 190.915 176.652C179.332 176.652 169.447 161.999 169.447 146.053C169.447 130.108 179.036 115.536 190.753 115.536C194.255 115.536 198.241 116.505 201.608 119.064C203.224 120.303 204.813 121.192 206.591 121.219C212.139 121.273 217.365 112.196 217.607 98.7012C217.607 97.7585 217.607 96.8158 217.58 95.8999C216.772 76.8568 215.022 61.6923 212.409 45.0464C195.79 47.6591 178.174 49.4368 159.804 50.2448C158.916 50.2718 158 50.2987 157.084 50.2718C144.074 50.0294 132.115 43.538 132.169 36.5618C132.169 33.9491 132.708 31.9558 133.812 30.3667C135.913 27.3769 137.394 24.6564 137.394 21.101C137.394 10.7848 126.782 2.48877 111.402 2.48877C96.0219 2.48877 85.4095 10.7848 85.4095 21.101C85.4095 24.6564 86.837 27.2422 88.911 30.259C90.0154 31.8481 90.6349 34.1107 90.6349 36.5348C90.6887 43.511 78.7026 50.0294 65.7199 50.2718C64.8041 50.2718 64.1037 50.2718 63.2149 50.2718C44.7373 49.4637 27.0409 47.7937 10.3681 45.0464C7.75536 61.6654 5.97765 76.8568 5.19653 95.8999C5.16959 96.8158 5.14267 97.7585 5.16961 98.7012C5.41202 112.196 10.2873 121.273 16.213 121.219C17.9907 121.219 20.2802 120.169 21.7886 118.822C24.6437 116.263 29.1419 115.536 32.6704 115.536C43.6061 115.536 53.3297 130.135 53.3297 146.053C53.3297 161.972 43.5791 176.652 32.6704 176.652C29.1419 176.652 24.3744 175.655 21.5192 173.096C20.0109 171.749 18.5294 170.807 16.7517 170.78C10.9068 170.726 5.41202 178.726 5.16961 191.735C5.16961 192.651 5.16961 193.324 5.16961 194.24C5.97766 212.718 7.62069 230.36 10.3681 247.033H212.328L212.409 247.006Z" fill="url(#paint3_linear_777_786)"/>
<path d="M211.699 246.358C214.42 229.82 216.063 212.258 216.871 193.916C216.898 193.027 216.898 192.353 216.871 191.438C216.628 178.509 211.591 171.613 206.635 171.64C204.858 171.64 203.242 172.583 201.625 173.849C198.259 176.489 194.137 177.404 190.636 177.404C178.892 177.404 168.738 162.105 168.738 146.079C168.738 130.052 178.488 114.861 190.393 114.861C193.895 114.861 198.097 115.75 201.625 118.389C203.268 119.628 204.858 120.598 206.635 120.598C211.672 120.625 216.628 112.06 216.871 98.5112C216.871 97.5685 216.871 96.6258 216.844 95.683C216.063 76.5321 214.285 62.3104 211.699 45.7722C195.188 48.3579 177.68 50.1357 159.445 50.9168C158.556 50.9437 157.667 50.9707 156.751 50.9437C143.85 50.7013 131.432 44.0483 131.459 37.099C131.459 34.19 131.917 32.0891 132.995 30.4999C134.988 27.4563 136.577 24.9513 136.577 21.3958C136.577 11.349 126.665 3.32236 111.393 3.32236C96.1204 3.32236 86.2082 11.376 86.2082 21.3958C86.2082 24.9513 87.6897 27.2946 89.6829 30.3383C90.7334 31.9544 91.3259 34.4325 91.3528 37.0721C91.3798 44.0214 78.9626 50.7013 66.0338 50.9437C65.118 50.9437 64.4446 50.9437 63.5557 50.9437C45.2129 50.1357 27.6242 48.4657 11.086 45.7453C8.50025 62.2565 6.74946 76.5322 5.9414 95.6561C5.91447 96.5719 5.88755 97.5146 5.91448 98.4843C6.1569 112.033 10.682 120.598 16.2037 120.571C17.9814 120.571 20.4864 119.413 21.9948 118.012C24.8499 115.373 29.7252 114.834 33.2267 114.834C44.0816 114.834 54.0476 130.052 54.0476 146.052C54.0476 162.051 44.0816 177.377 33.2267 177.377C29.7252 177.377 24.4728 176.462 21.6177 173.822C20.1093 172.421 18.6818 171.398 16.904 171.398C11.4901 171.371 6.1569 178.509 5.91448 191.411C5.91448 192.326 5.91448 193 5.91448 193.889C6.72254 212.258 8.36558 229.793 11.086 246.358H211.672H211.699Z" fill="url(#paint4_linear_777_786)"/>
<path d="M211.006 245.716C213.699 229.285 215.342 211.831 216.123 193.596C216.15 192.707 216.15 192.034 216.123 191.145C215.881 178.324 211.087 172.344 206.669 172.344C204.891 172.344 203.275 173.341 201.632 174.607C198.158 177.3 193.821 178.135 190.346 178.135C178.441 178.135 167.99 162.19 167.99 146.109C167.99 130.029 177.929 114.191 190.023 114.191C193.498 114.191 197.915 114.972 201.605 117.693C203.275 118.932 204.864 119.955 206.642 119.955C211.167 119.955 215.854 111.929 216.096 98.2995C216.096 97.3298 216.096 96.3871 216.07 95.4713C215.288 76.2395 213.538 62.9336 210.952 46.5301C194.548 49.1158 177.175 50.8666 159.048 51.6478C158.186 51.6747 157.27 51.7016 156.381 51.6747C143.56 51.4323 130.712 44.6177 130.712 37.7223C130.712 34.5439 131.116 32.3352 132.113 30.6922C134.025 27.6216 135.695 25.3051 135.695 21.7497C135.695 11.9992 126.483 4.18799 111.319 4.18799C96.1542 4.18799 86.9423 11.9992 86.9423 21.7497C86.9423 25.3051 88.4776 27.4061 90.39 30.4767C91.4135 32.1198 91.9792 34.8133 91.9792 37.6684C91.9792 44.5638 79.1042 51.4053 66.2831 51.6478C65.3673 51.6478 64.6939 51.6478 63.832 51.6478C45.6238 50.8666 28.1428 49.1967 11.7124 46.5031C9.15354 62.9067 7.40275 76.2395 6.62163 95.4713C6.5947 96.414 6.56778 97.3567 6.59471 98.2995C6.83713 111.929 10.9851 119.955 16.1028 119.955C17.8536 119.955 20.601 118.689 22.1094 117.262C24.9645 114.568 30.2438 114.191 33.6915 114.191C44.4656 114.191 54.674 130.029 54.674 146.109C54.674 162.19 44.4656 178.135 33.6915 178.135C30.2169 178.135 24.4797 177.327 21.6245 174.607C20.1162 173.179 18.7155 172.075 16.9647 172.075C11.9817 172.075 6.81017 178.324 6.56775 191.172C6.56775 192.088 6.56775 192.761 6.56775 193.623C7.34887 211.858 8.99194 229.339 11.6855 245.77H210.898L211.006 245.716Z" fill="url(#paint5_linear_777_786)"/>
</g>
<defs>
<filter id="filter0_d_777_786" x="0.671824" y="0.0654297" width="221.462" height="253.591" filterUnits="userSpaceOnUse" color-interpolation-filters="sRGB">
<feFlood flood-opacity="0" result="BackgroundImageFix"/>
<feColorMatrix in="SourceAlpha" type="matrix" values="0 0 0 0 0 0 0 0 0 0 0 0 0 0 0 0 0 0 127 0" result="hardAlpha"/>
<feOffset dy="2.32842"/>
<feGaussianBlur stdDeviation="1.16421"/>
<feComposite in2="hardAlpha" operator="out"/>
<feColorMatrix type="matrix" values="0 0 0 0 0 0 0 0 0 0 0 0 0 0 0 0 0 0 0.25 0"/>
<feBlend mode="normal" in2="BackgroundImageFix" result="effect1_dropShadow_777_786"/>
<feBlend mode="normal" in="SourceGraphic" in2="effect1_dropShadow_777_786" result="shape"/>
</filter>
<linearGradient id="paint0_linear_777_786" x1="111.362" y1="309.814" x2="111.389" y2="0.0651563" gradientUnits="userSpaceOnUse">
<stop stop-color="#FB8A4A"/>
<stop offset="0.5" stop-color="#FFC290"/>
<stop offset="1" stop-color="#FFE1CA"/>
</linearGradient>
<linearGradient id="paint1_linear_777_786" x1="111.361" y1="308.812" x2="111.387" y2="0.872194" gradientUnits="userSpaceOnUse">
<stop stop-color="#FB8A4A"/>
<stop offset="0.5" stop-color="#FFC290"/>
<stop offset="1" stop-color="#FFE1CA"/>
</linearGradient>
<linearGradient id="paint2_linear_777_786" x1="111.388" y1="307.765" x2="111.414" y2="1.73564" gradientUnits="userSpaceOnUse">
<stop stop-color="#FB8A4A"/>
<stop offset="0.5" stop-color="#FFC290"/>
<stop offset="1" stop-color="#FFE1CA"/>
</linearGradient>
<linearGradient id="paint3_linear_777_786" x1="111.353" y1="306.775" x2="111.379" y2="2.48877" gradientUnits="userSpaceOnUse">
<stop stop-color="#FB8A4A"/>
<stop offset="0.5" stop-color="#FFC290"/>
<stop offset="1" stop-color="#FFE1CA"/>
</linearGradient>
<linearGradient id="paint4_linear_777_786" x1="111.358" y1="305.732" x2="111.384" y2="3.32236" gradientUnits="userSpaceOnUse">
<stop stop-color="#FB8A4A"/>
<stop offset="0.5" stop-color="#FFC290"/>
<stop offset="1" stop-color="#FFE1CA"/>
</linearGradient>
<linearGradient id="paint5_linear_777_786" x1="111.316" y1="304.788" x2="111.342" y2="4.18799" gradientUnits="userSpaceOnUse">
<stop stop-color="#FB8A4A"/>
<stop offset="0.5" stop-color="#FFC290"/>
<stop offset="1" stop-color="#FFE1CA"/>
</linearGradient>
</defs>
</svg>
