<svg width="218" height="298" viewBox="0 0 218 298" fill="none" xmlns="http://www.w3.org/2000/svg">
<g filter="url(#filter0_d_777_793)">
<path d="M214.769 43.854C197.799 46.5206 179.834 48.3253 161.087 49.1603C160.171 49.1872 159.255 49.2141 158.312 49.1872C145.033 48.9448 134.394 42.9652 134.529 35.8274C134.556 34.0497 135.256 32.4335 136.495 30.9251C138.838 28.0431 140.104 24.7301 140.104 21.1208C140.104 9.96957 127.391 0.919373 111.688 0.919373C95.9845 0.919373 83.2981 9.96957 83.2981 21.1208C83.2981 24.7031 84.5641 28.0431 86.9075 30.9251C88.1465 32.4604 88.8467 34.0497 88.8737 35.8274C89.0084 42.9652 78.3689 48.9448 65.0899 49.1872C64.1471 49.1872 63.4468 49.1872 62.558 49.1872C43.7034 48.3791 25.63 46.6553 8.63387 43.854C5.96729 60.8232 4.16257 78.8159 3.35452 97.5628C3.32758 98.4786 3.30062 99.3944 3.32756 100.337C3.56997 113.616 9.54964 124.256 16.6875 124.121C18.4652 124.094 20.0813 123.394 21.5897 122.155C24.4717 119.784 27.7848 118.545 31.3672 118.545C42.5183 118.545 51.5416 131.259 51.5416 146.962C51.5416 162.665 42.5183 175.378 31.3672 175.378C27.7848 175.378 24.4717 174.113 21.5897 171.769C20.0813 170.53 18.4652 169.83 16.6875 169.803C9.54964 169.668 3.56997 180.308 3.32756 193.587C3.32756 194.529 3.32756 195.23 3.32756 196.119C4.13561 214.973 5.83261 233.047 8.63387 250.07C25.63 247.268 43.6764 245.41 62.531 244.575C63.4468 244.548 64.1471 244.548 65.0629 244.575C78.342 244.817 88.9814 250.797 88.8467 257.935C88.8198 259.713 88.1195 261.329 86.8805 262.837C84.5371 265.719 83.2711 269.032 83.2711 272.641C83.2711 283.793 95.9846 292.843 111.661 292.843C127.337 292.843 140.077 283.793 140.077 272.641C140.077 269.059 138.811 265.719 136.468 262.837C135.229 261.302 134.529 259.713 134.502 257.935C134.367 250.797 145.007 244.817 158.286 244.575C159.228 244.575 160.144 244.575 161.06 244.602C179.807 245.41 197.799 247.403 214.742 250.07V43.9348L214.769 43.854Z" fill="url(#paint0_linear_777_793)"/>
<path d="M214.068 44.5271C197.206 47.1667 179.348 48.9713 160.736 49.7794C159.82 49.8063 158.905 49.8333 157.989 49.8063C144.817 49.5639 133.72 43.4227 133.828 36.3387C133.828 34.2647 134.474 32.5409 135.687 31.0056C137.949 28.0696 139.296 24.9721 139.296 21.3897C139.296 10.5079 127.283 1.72708 111.687 1.72708C96.0917 1.72708 84.1056 10.5079 84.1056 21.3897C84.1056 24.9721 85.4255 28.0427 87.688 30.9787C88.9001 32.514 89.5466 34.3456 89.5735 36.3387C89.6813 43.4227 78.5839 49.5639 65.4126 49.8333C64.4699 49.8333 63.7965 49.8333 62.8807 49.8333C44.1607 49.0252 26.195 47.3014 9.33355 44.5271C6.69391 61.3885 4.88938 78.4384 4.08133 97.293C4.05439 98.2088 4.02743 99.1246 4.05436 100.067C4.29678 113.4 9.89925 123.528 16.633 123.42C18.4108 123.393 20.2424 122.585 21.7508 121.292C24.6329 118.868 28.3498 117.791 31.9052 117.791C42.9756 117.791 52.2414 131.124 52.2414 146.908C52.2414 162.692 42.9756 176.051 31.9052 176.051C28.3498 176.051 24.525 174.893 21.6699 172.469C20.1615 171.176 18.5993 170.422 16.8216 170.395C10.1147 170.287 4.29678 180.065 4.05436 193.236C4.05436 194.152 4.05436 194.852 4.05436 195.768C4.86242 214.515 6.53243 232.454 9.30676 249.342C26.1951 246.568 44.1339 244.709 62.8539 243.874C63.7697 243.847 64.4429 243.847 65.3856 243.874C78.5569 244.117 89.3849 250.231 89.4926 257.288C89.5196 259.227 89.0348 260.924 87.6611 262.648C85.3716 265.53 84.0518 268.735 84.0518 272.318C84.0518 283.119 96.0649 291.98 111.633 291.98C127.202 291.98 139.242 283.119 139.242 272.318C139.242 268.735 137.949 265.557 135.66 262.675C134.34 261.005 133.801 259.147 133.828 257.315C133.855 250.258 144.764 244.144 157.935 243.901C158.851 243.901 159.766 243.901 160.682 243.928C179.294 244.736 197.153 246.729 214.014 249.369V44.6079L214.068 44.5271Z" fill="url(#paint1_linear_777_793)"/>
<path d="M213.401 45.226C196.674 47.8387 178.924 49.6434 160.419 50.4514C159.53 50.4784 158.614 50.5053 157.699 50.4784C144.608 50.2359 133.08 43.9062 133.161 36.8761C133.161 34.5328 133.753 32.6743 134.912 31.112C137.093 28.1491 138.521 25.2401 138.521 21.6577C138.521 11.0722 127.208 2.53381 111.72 2.53381C96.2326 2.53381 84.9198 11.0722 84.9198 21.6577C84.9198 25.2401 86.2935 28.0683 88.4753 31.0312C89.6335 32.5934 90.28 34.6405 90.28 36.8492C90.3608 43.8793 78.8325 50.209 65.742 50.4514C64.8262 50.4514 64.1259 50.4514 63.237 50.4514C44.6517 49.6434 26.8207 47.9465 10.04 45.1991C7.42734 61.9528 5.6227 78.06 4.84158 96.9954C4.81464 97.9112 4.78768 98.854 4.81462 99.7967C5.05703 113.21 10.3094 122.826 16.6392 122.719C18.4169 122.719 20.464 121.776 21.9993 120.456C24.8813 117.951 28.9755 117.062 32.5041 117.062C43.4936 117.062 53.0017 131.015 53.0017 146.879C53.0017 162.744 43.4936 176.75 32.5041 176.75C28.9755 176.75 24.6658 175.673 21.8107 173.168C20.3023 171.848 18.7671 170.986 16.9894 170.959C10.7135 170.879 5.05703 179.767 4.81462 192.858C4.81462 193.773 4.81462 194.474 4.81462 195.363C5.62267 213.975 7.29266 231.806 10.04 248.587C26.8207 245.839 44.6248 243.981 63.237 243.173C64.1259 243.146 64.8262 243.146 65.742 243.173C78.8325 243.415 89.849 249.664 90.1991 256.667C90.3069 258.768 89.9837 260.573 88.5292 262.458C86.2936 265.34 84.9467 268.411 84.9467 271.993C84.9467 282.444 96.2596 291.117 111.747 291.117C127.235 291.117 138.548 282.417 138.548 271.993C138.548 268.411 137.201 265.394 134.965 262.512C133.592 260.707 133.215 258.58 133.268 256.694C133.484 249.691 144.635 243.442 157.726 243.2C158.641 243.2 159.557 243.2 160.446 243.226C178.924 244.035 196.674 246.001 213.401 248.613V45.226Z" fill="url(#paint2_linear_777_793)"/>
<path d="M212.698 45.9307C196.079 48.5434 178.464 50.3211 160.094 51.1291C159.205 51.1561 158.289 51.183 157.373 51.1561C144.364 50.9137 132.405 44.4223 132.458 37.4461C132.458 34.8334 132.997 32.8401 134.101 31.251C136.202 28.2342 137.684 25.5407 137.684 21.9583C137.684 11.6422 127.071 3.34613 111.691 3.34613C96.3114 3.34613 85.699 11.6422 85.699 21.9583C85.699 25.5138 87.1266 28.0996 89.2006 31.1163C90.3049 32.7055 90.9245 34.968 90.9514 37.3922C91.0053 44.3684 79.0191 50.8867 66.0364 51.1291C65.1206 51.1291 64.4472 51.1291 63.5314 51.1291C45.0539 50.3211 27.3573 48.6511 10.6845 45.9037C8.07176 62.5227 6.29409 77.7411 5.51297 96.7573C5.48603 97.6731 5.45907 98.6158 5.486 99.5586C5.72842 113.026 10.6038 122.13 16.5295 122.076C18.3072 122.076 20.5968 121.026 22.1051 119.679C24.9603 117.12 29.4584 116.393 32.9869 116.393C43.9226 116.393 53.6461 130.965 53.6461 146.911C53.6461 162.856 43.8956 177.509 32.9869 177.509C29.4584 177.509 24.6908 176.512 21.8357 173.954C20.3273 172.607 18.846 171.664 17.0683 171.637C11.2233 171.583 5.72842 179.583 5.486 192.593C5.486 193.508 5.486 194.182 5.486 195.071C6.29406 213.548 7.93709 231.272 10.6845 247.918C27.3304 245.17 45.0269 243.339 63.5045 242.53C64.3933 242.504 65.0936 242.504 66.0094 242.53C79.0191 242.773 90.251 249.157 90.8166 256.079C91.0052 258.341 90.8437 260.227 89.2815 262.301C87.0997 265.183 85.699 268.119 85.699 271.701C85.699 281.775 96.3114 290.313 111.691 290.313C127.071 290.313 137.684 281.802 137.684 271.701C137.684 268.146 136.31 265.264 134.128 262.355C132.701 260.415 132.458 258.018 132.566 256.079C132.916 249.157 144.364 242.773 157.373 242.53C158.289 242.53 159.205 242.53 160.094 242.557C178.464 243.365 196.079 245.305 212.698 247.918V45.9037V45.9307Z" fill="url(#paint3_linear_777_793)"/>
<path d="M211.996 46.6016C195.485 49.1874 177.977 50.9651 159.742 51.7462C158.853 51.7731 157.964 51.8001 157.048 51.7732C144.146 51.5307 131.729 44.8778 131.756 37.9285C131.756 35.0195 132.214 32.9454 133.291 31.3293C135.285 28.2857 136.874 25.7807 136.874 22.2253C136.874 12.1785 126.962 4.15176 111.689 4.15176C96.4172 4.15176 86.5051 12.2054 86.5051 22.2253C86.5051 25.7807 87.9865 28.1241 89.9797 31.1677C91.0301 32.7838 91.6227 35.2619 91.6496 37.9015C91.6766 44.8508 79.2596 51.5307 66.3307 51.7732C65.4149 51.7732 64.7415 51.7732 63.8527 51.7732C45.5098 50.9651 27.921 49.2951 11.3829 46.5746C8.79708 63.0859 7.04636 77.3615 6.23831 96.4855C6.21137 97.4013 6.18441 98.344 6.21135 99.3137C6.45376 112.862 10.9789 121.427 16.5006 121.401C18.2783 121.401 20.7832 120.242 22.2916 118.842C25.1467 116.202 30.0221 115.663 33.5236 115.663C44.3785 115.663 54.3445 130.882 54.3445 146.881C54.3445 162.881 44.3785 178.18 33.5236 178.18C30.0221 178.18 24.7697 177.264 21.9146 174.624C20.4062 173.224 18.9787 172.2 17.2009 172.2C11.8139 172.173 6.45376 179.311 6.21135 192.213C6.21135 193.129 6.21135 193.802 6.21135 194.691C7.0194 213.061 8.6624 230.65 11.3829 247.188C27.921 244.467 45.5098 242.636 63.8527 241.855C64.7415 241.828 65.4149 241.828 66.3307 241.855C79.2326 242.097 90.7338 248.642 91.488 255.484C91.7574 257.881 91.7844 259.874 90.0875 262.164C87.9596 265.046 86.5051 267.874 86.5051 271.429C86.5051 281.153 96.4172 289.503 111.689 289.503C126.962 289.503 136.874 281.153 136.874 271.429C136.874 267.874 135.446 265.154 133.345 262.245C131.837 260.171 131.756 257.504 131.918 255.511C132.43 248.642 144.146 242.124 157.048 241.882C157.964 241.882 158.853 241.882 159.742 241.908C177.977 242.69 195.485 244.656 211.996 247.242V46.6016Z" fill="url(#paint4_linear_777_793)"/>
<path d="M211.318 47.3056C194.915 49.8914 177.541 51.6422 159.414 52.4233C158.525 52.4502 157.636 52.4772 156.748 52.4503C143.926 52.2079 131.078 45.3932 131.078 38.4978C131.078 35.3195 131.482 33.1108 132.479 31.4677C134.391 28.3702 136.061 26.0807 136.061 22.5253C136.061 12.7747 126.849 4.96356 111.685 4.96356C96.5203 4.96356 87.3085 12.7478 87.3085 22.5253C87.3085 26.0807 88.8439 28.1816 90.7563 31.2523C91.7799 32.8953 92.3454 35.5888 92.3454 38.444C92.3454 45.3394 79.4705 52.1809 66.6493 52.4233C65.7335 52.4233 65.0602 52.4233 64.1983 52.4233C45.9901 51.6422 28.5091 49.9722 12.0786 47.2787C9.51979 63.6823 7.76896 77.0151 6.98784 96.2468C6.96091 97.1626 6.93411 98.1323 6.96104 99.075C7.20346 112.704 11.3514 120.731 16.4691 120.731C18.2199 120.731 20.9672 119.465 22.4756 118.037C25.3307 115.344 30.6101 114.967 34.0578 114.967C44.8319 114.967 55.0403 130.805 55.0403 146.885C55.0403 162.965 44.8319 178.911 34.0578 178.911C30.5832 178.911 24.8459 178.103 21.9908 175.382C20.4824 173.955 19.0818 172.85 17.331 172.85C12.3749 172.85 7.1765 179.099 6.93408 191.948C6.93408 192.836 6.93408 193.537 6.93408 194.399C7.74214 212.634 9.35815 230.115 12.0517 246.545C28.4821 243.852 45.9362 242.02 64.1444 241.239C65.0332 241.212 65.7065 241.212 66.5954 241.239C79.4165 241.481 91.1603 248.134 92.0761 254.922C92.4263 257.481 92.6148 259.555 90.8371 262.033C88.7361 264.915 87.2548 267.608 87.2548 271.164C87.2548 280.537 96.4666 288.726 111.631 288.726C126.796 288.726 136.007 280.537 136.007 271.164C136.007 267.608 134.553 265.05 132.479 262.114C130.917 259.905 130.971 256.969 131.186 254.922C131.859 248.107 143.845 241.481 156.667 241.239C157.555 241.239 158.471 241.239 159.333 241.266C177.434 242.047 194.834 243.986 211.21 246.545V47.2787L211.318 47.3056Z" fill="url(#paint5_linear_777_793)"/>
</g>
<defs>
<filter id="filter0_d_777_793" x="0.987986" y="0.918945" width="216.109" height="296.581" filterUnits="userSpaceOnUse" color-interpolation-filters="sRGB">
<feFlood flood-opacity="0" result="BackgroundImageFix"/>
<feColorMatrix in="SourceAlpha" type="matrix" values="0 0 0 0 0 0 0 0 0 0 0 0 0 0 0 0 0 0 127 0" result="hardAlpha"/>
<feOffset dy="2.32842"/>
<feGaussianBlur stdDeviation="1.16421"/>
<feComposite in2="hardAlpha" operator="out"/>
<feColorMatrix type="matrix" values="0 0 0 0 0 0 0 0 0 0 0 0 0 0 0 0 0 0 0.25 0"/>
<feBlend mode="normal" in2="BackgroundImageFix" result="effect1_dropShadow_777_793"/>
<feBlend mode="normal" in="SourceGraphic" in2="effect1_dropShadow_777_793" result="shape"/>
</filter>
<linearGradient id="paint0_linear_777_793" x1="109.003" y1="364.159" x2="109.041" y2="0.919375" gradientUnits="userSpaceOnUse">
<stop stop-color="#FB8A4A"/>
<stop offset="0.5" stop-color="#FFC290"/>
<stop offset="1" stop-color="#FFE1CA"/>
</linearGradient>
<linearGradient id="paint1_linear_777_793" x1="109.016" y1="362.889" x2="109.054" y2="1.72708" gradientUnits="userSpaceOnUse">
<stop stop-color="#FB8A4A"/>
<stop offset="0.5" stop-color="#FFC290"/>
<stop offset="1" stop-color="#FFE1CA"/>
</linearGradient>
<linearGradient id="paint2_linear_777_793" x1="109.063" y1="361.618" x2="109.1" y2="2.53382" gradientUnits="userSpaceOnUse">
<stop stop-color="#FB8A4A"/>
<stop offset="0.5" stop-color="#FFC290"/>
<stop offset="1" stop-color="#FFE1CA"/>
</linearGradient>
<linearGradient id="paint3_linear_777_793" x1="109.048" y1="360.419" x2="109.085" y2="3.34613" gradientUnits="userSpaceOnUse">
<stop stop-color="#FB8A4A"/>
<stop offset="0.5" stop-color="#FFC290"/>
<stop offset="1" stop-color="#FFE1CA"/>
</linearGradient>
<linearGradient id="paint4_linear_777_793" x1="109.06" y1="359.214" x2="109.097" y2="4.15177" gradientUnits="userSpaceOnUse">
<stop stop-color="#FB8A4A"/>
<stop offset="0.5" stop-color="#FFC290"/>
<stop offset="1" stop-color="#FFE1CA"/>
</linearGradient>
<linearGradient id="paint5_linear_777_793" x1="109.088" y1="358.048" x2="109.125" y2="4.96356" gradientUnits="userSpaceOnUse">
<stop stop-color="#FB8A4A"/>
<stop offset="0.5" stop-color="#FFC290"/>
<stop offset="1" stop-color="#FFE1CA"/>
</linearGradient>
</defs>
</svg>
