<svg width="255" height="217" viewBox="0 0 255 217" fill="none" xmlns="http://www.w3.org/2000/svg">
<g filter="url(#filter0_d_777_758)">
<path d="M251.985 212H45.8767C48.5433 195.031 50.5366 177.2 51.3447 158.453C51.3716 157.537 51.3986 156.621 51.3716 155.679C51.1292 142.4 45.1496 131.76 38.0387 131.895C36.261 131.922 34.6448 132.622 33.1365 133.861C30.2544 136.204 26.9414 137.47 23.359 137.47C12.2078 137.47 3.18457 124.757 3.18457 109.054C3.18457 93.3775 12.2348 80.6372 23.3859 80.6372C26.9683 80.6372 30.2814 81.9031 33.1634 84.2465C34.6718 85.4855 36.2879 86.1858 38.0656 86.2127C45.2035 86.3474 51.183 75.708 51.4254 62.429C51.4254 61.4863 51.4254 60.7859 51.4254 59.8701C50.6173 41.0155 48.7319 22.942 45.9576 5.94594C62.9537 3.14467 81.0273 1.4747 99.8819 0.666641C100.798 0.612778 101.498 0.639709 102.414 0.666641C115.693 0.909058 126.332 6.88867 126.17 14.0265C126.144 15.8042 125.443 17.4203 124.204 18.9287C121.834 21.8107 120.595 25.1238 120.595 28.7331C120.595 39.8842 133.308 48.9345 148.985 48.9345C164.661 48.9345 177.401 39.9112 177.401 28.76C177.401 25.1776 176.162 21.8377 173.792 18.9556C172.553 17.4203 171.853 15.8311 171.826 14.0534C171.691 6.9156 182.33 0.936005 195.609 0.693588C196.552 0.693588 197.468 0.693573 198.384 0.720505C217.131 1.52856 235.42 3.36015 252.039 6.02673V212H251.985Z" fill="url(#paint0_linear_777_758)"/>
<path d="M251.289 211.352H46.5544C49.1941 194.49 51.1873 176.74 51.9954 158.128C52.0223 157.239 52.0493 156.296 52.0223 155.38C51.7799 142.209 45.6657 131.3 38.6087 131.246C36.7771 131.246 34.8915 131.758 33.2484 133.078C30.3664 135.367 27.1881 136.66 23.6058 136.66C12.8048 136.66 3.94312 124.647 3.94312 109.052C3.94312 93.4563 12.8048 81.4432 23.6058 81.4432C27.1881 81.4432 30.3664 82.763 33.2484 85.0525C34.9453 86.3993 36.6693 86.9111 38.6087 86.8841C45.6657 86.7764 51.7799 75.9484 52.0223 62.7502C52.0223 61.8075 52.0223 61.1341 52.0223 60.2183C51.2143 41.4714 49.3557 23.5326 46.5814 6.64424C63.4697 3.86992 81.4086 2.19992 100.129 1.39186C101.017 1.338 101.718 1.36493 102.66 1.39186C115.832 1.63428 125.609 7.4523 125.501 14.1591C125.501 15.9369 124.693 17.4991 123.427 19.0344C121.003 21.9165 119.845 25.7143 119.845 29.2698C119.845 40.3401 133.205 49.6328 148.962 49.6328C164.719 49.6328 178.079 40.3671 178.079 29.2967C178.079 25.7413 177.002 22.0242 174.577 19.1422C173.284 17.6338 172.503 15.8022 172.45 14.0245C172.342 7.29068 182.469 1.68816 195.802 1.44574C196.745 1.44574 197.661 1.44574 198.577 1.47267C217.404 2.28072 234.724 4.08539 251.289 6.72504V211.352Z" fill="url(#paint1_linear_777_758)"/>
<path d="M250.59 210.706H47.256C49.8687 193.952 51.8619 176.31 52.67 157.805C52.6969 156.917 52.7239 156.001 52.697 155.085C52.4545 141.994 46.2056 130.816 39.2294 130.628C37.3439 130.574 35.2161 130.951 33.4115 132.325C30.5025 134.56 27.4857 135.907 23.9302 135.907C13.5063 135.907 4.80615 124.594 4.80615 109.107C4.80615 93.6189 13.5063 82.3061 23.9302 82.3061C27.5126 82.3061 30.5562 83.6529 33.4383 85.9154C35.3237 87.3699 37.1284 87.6931 39.2294 87.6123C46.2056 87.2622 52.4815 76.2457 52.7239 63.1552C52.7239 62.2394 52.7239 61.5391 52.7239 60.6502C51.9159 42.038 50.0573 24.2069 47.3099 7.45326C64.0905 4.70589 81.8947 3.03592 100.507 2.22786C101.396 2.20093 102.096 2.20093 103.012 2.22786C116.102 2.47028 124.991 8.12665 124.91 14.4025C124.91 16.1803 124.021 17.6886 122.701 19.2239C120.196 22.106 119.119 26.3887 119.119 29.9172C119.119 40.9337 133.125 50.4418 148.963 50.4418C164.801 50.4418 178.78 40.9337 178.78 29.9442C178.78 26.4156 177.892 22.2946 175.387 19.4394C174.067 17.9311 173.151 15.857 173.124 14.0793C173.043 7.74956 182.632 2.49719 196.046 2.25478C196.989 2.25478 197.931 2.25479 198.847 2.28172C217.783 3.08977 234.105 4.86751 250.617 7.50714V210.706H250.59Z" fill="url(#paint2_linear_777_758)"/>
<path d="M249.883 210.058H47.923C50.5357 193.412 52.475 175.85 53.2831 157.48C53.31 156.591 53.337 155.676 53.31 154.76C53.0676 141.75 46.711 130.303 39.7617 129.952C37.8224 129.845 35.4251 130.087 33.4858 131.515C30.5768 133.669 27.7217 135.07 24.1394 135.07C14.0656 135.07 5.52708 124.458 5.55402 109.078C5.55402 93.6977 14.0924 83.0852 24.1661 83.0852C27.7216 83.0852 30.6577 84.4859 33.5667 86.6676C35.6407 88.2299 37.5531 88.3915 39.7887 88.2029C46.711 87.6373 53.0946 76.4053 53.337 63.3956C53.337 62.4798 53.337 61.7795 53.337 60.8907C52.5289 42.4131 50.6974 24.7167 47.9769 8.04384C64.6229 5.32339 82.3462 3.65341 100.824 2.84535C101.713 2.81842 102.413 2.81842 103.302 2.84535C116.311 3.08777 124.311 8.58255 124.257 14.4275C124.257 16.2052 123.288 17.6866 121.941 19.195C119.382 22.0501 118.385 26.8446 118.385 30.3462C118.385 41.2818 133.038 51.0324 148.957 51.0324C164.902 51.0324 179.474 41.2818 179.474 30.3731C179.474 26.8446 178.747 22.3734 176.188 19.4913C174.842 17.9829 173.791 15.6934 173.791 13.9157C173.737 7.98997 182.814 3.11472 196.282 2.8723C197.225 2.8723 198.167 2.8723 199.083 2.89923C218.126 3.70729 233.425 5.48502 249.91 8.07079V210.058H249.883Z" fill="url(#paint3_linear_777_758)"/>
<path d="M249.186 209.387H48.6262C51.212 192.822 53.1512 175.368 53.9593 157.106C53.9862 156.217 54.0132 155.328 53.9862 154.412C53.7438 141.483 47.2525 129.766 40.384 129.255C38.3908 129.093 35.7242 129.174 33.6502 130.682C30.7412 132.783 28.0208 134.211 24.4654 134.211C14.7418 134.211 6.39185 124.299 6.39185 109.026C6.39185 93.754 14.7418 83.8419 24.4654 83.8419C28.0208 83.8419 30.8221 85.2964 33.7311 87.4243C35.9937 89.0943 37.9868 89.0673 40.384 88.8249C47.2256 88.0707 53.7708 76.5963 54.0132 63.6674C54.0132 62.7517 54.0132 62.0783 54.0132 61.1894C53.2052 42.8196 51.4006 25.2579 48.6801 8.69276C65.2183 5.97231 82.8069 4.32927 101.15 3.54816C102.039 3.52122 102.712 3.52122 103.628 3.54816C116.53 3.79057 123.668 9.12375 123.641 14.5377C123.641 16.3154 122.617 17.743 121.216 19.2514C118.577 22.1065 117.661 27.3588 117.661 30.8604C117.661 41.7153 132.933 51.7082 148.96 51.7082C164.986 51.7082 180.178 41.7422 180.178 30.8874C180.178 27.3858 179.639 22.5105 176.999 19.6554C175.599 18.147 174.467 15.6421 174.44 13.8643C174.44 8.34262 182.979 3.81752 196.527 3.5751C197.47 3.5751 198.413 3.57509 199.355 3.60202C218.479 4.38313 232.809 6.16087 249.239 8.74664L249.186 209.387Z" fill="url(#paint4_linear_777_758)"/>
<path d="M248.51 208.743L49.324 208.689C51.9098 192.286 53.8221 174.912 54.6302 156.785C54.6571 155.896 54.6841 155.007 54.6572 154.118C54.4147 141.297 47.7888 129.284 40.9742 128.611C38.9271 128.422 35.9911 128.342 33.7824 129.904C30.8734 131.951 28.2877 133.432 24.7592 133.432C15.3857 133.432 7.22437 124.22 7.22437 109.056C7.22437 93.8914 15.4127 84.6796 24.7861 84.6796C28.3416 84.6796 31.035 86.161 33.917 88.262C36.3681 90.0397 38.4691 89.8512 41.028 89.501C47.8156 88.5583 54.4687 76.8415 54.7111 64.0203C54.7111 63.1045 54.7111 62.4312 54.7111 61.5692C53.93 43.3341 52.0983 25.8801 49.4048 9.44968C65.8352 6.75616 83.2893 5.11311 101.524 4.332C102.413 4.30505 103.087 4.30505 103.975 4.332C116.797 4.57442 123.046 9.74597 123.046 14.729C123.046 16.4798 121.941 17.8804 120.514 19.3887C117.82 22.2439 116.985 27.9811 116.985 31.4557C116.985 42.2298 132.904 52.4382 149.011 52.4651C165.118 52.4651 180.929 42.2567 180.929 31.4827C180.929 28.008 180.552 22.7287 177.859 19.8736C176.431 18.3652 175.165 15.6178 175.165 13.8671C175.165 8.74936 183.192 4.57442 196.821 4.35893C197.791 4.35893 198.733 4.35892 199.649 4.38585C218.881 5.16698 232.214 6.91777 248.59 9.50354L248.537 208.797L248.51 208.743Z" fill="url(#paint5_linear_777_758)"/>
</g>
<defs>
<filter id="filter0_d_777_758" x="0.85615" y="0.635742" width="253.511" height="216.021" filterUnits="userSpaceOnUse" color-interpolation-filters="sRGB">
<feFlood flood-opacity="0" result="BackgroundImageFix"/>
<feColorMatrix in="SourceAlpha" type="matrix" values="0 0 0 0 0 0 0 0 0 0 0 0 0 0 0 0 0 0 127 0" result="hardAlpha"/>
<feOffset dy="2.32842"/>
<feGaussianBlur stdDeviation="1.16421"/>
<feComposite in2="hardAlpha" operator="out"/>
<feColorMatrix type="matrix" values="0 0 0 0 0 0 0 0 0 0 0 0 0 0 0 0 0 0 0.25 0"/>
<feBlend mode="normal" in2="BackgroundImageFix" result="effect1_dropShadow_777_758"/>
<feBlend mode="normal" in="SourceGraphic" in2="effect1_dropShadow_777_758" result="shape"/>
</filter>
<linearGradient id="paint0_linear_777_758" x1="127.612" y1="212" x2="127.612" y2="0.635544" gradientUnits="userSpaceOnUse">
<stop stop-color="#F77F5A"/>
<stop offset="1" stop-color="#FFC291"/>
</linearGradient>
<linearGradient id="paint1_linear_777_758" x1="127.616" y1="211.352" x2="127.616" y2="1.36078" gradientUnits="userSpaceOnUse">
<stop stop-color="#F77F5A"/>
<stop offset="1" stop-color="#FFC291"/>
</linearGradient>
<linearGradient id="paint2_linear_777_758" x1="127.711" y1="210.706" x2="127.711" y2="2.20766" gradientUnits="userSpaceOnUse">
<stop stop-color="#F77F5A"/>
<stop offset="1" stop-color="#FFC291"/>
</linearGradient>
<linearGradient id="paint3_linear_777_758" x1="127.732" y1="210.058" x2="127.732" y2="2.82515" gradientUnits="userSpaceOnUse">
<stop stop-color="#F77F5A"/>
<stop offset="1" stop-color="#FFC291"/>
</linearGradient>
<linearGradient id="paint4_linear_777_758" x1="127.816" y1="209.387" x2="127.816" y2="3.52795" gradientUnits="userSpaceOnUse">
<stop stop-color="#F77F5A"/>
<stop offset="1" stop-color="#FFC291"/>
</linearGradient>
<linearGradient id="paint5_linear_777_758" x1="127.907" y1="208.797" x2="127.907" y2="4.3118" gradientUnits="userSpaceOnUse">
<stop stop-color="#F77F5A"/>
<stop offset="1" stop-color="#FFC291"/>
</linearGradient>
</defs>
</svg>
