<svg width="298" height="222" viewBox="0 0 298 222" fill="none" xmlns="http://www.w3.org/2000/svg">
<g filter="url(#filter0_d_777_765)">
<path d="M45.7193 211.507C62.7154 214.308 80.7888 215.978 99.6434 216.813C100.559 216.84 101.259 216.84 102.175 216.813C115.454 216.57 126.094 210.591 125.932 203.453C125.905 201.675 125.205 200.059 123.966 198.551C121.623 195.669 120.357 192.356 120.357 188.746C120.357 177.595 133.07 168.545 148.773 168.545C164.476 168.545 177.163 177.568 177.163 188.746C177.163 192.329 175.897 195.669 173.553 198.551C172.314 200.086 171.614 201.675 171.587 203.453C171.453 210.591 182.092 216.57 195.371 216.813C196.314 216.813 197.23 216.813 198.145 216.786C216.892 215.978 234.858 214.173 251.827 211.507C249.026 194.51 247.329 176.437 246.494 157.582C246.467 156.667 246.467 155.966 246.494 155.05C246.736 141.771 252.716 131.132 259.854 131.267C261.632 131.294 263.248 131.994 264.756 133.233C267.638 135.576 270.951 136.842 274.56 136.842C285.712 136.842 294.735 124.129 294.735 108.426C294.735 92.7225 285.685 80.0091 274.56 80.0091C270.978 80.0091 267.665 81.2481 264.756 83.6184C263.248 84.8574 261.632 85.5577 259.854 85.5846C252.716 85.7193 246.736 75.0799 246.494 61.8009C246.494 60.8582 246.494 59.9424 246.521 59.0266C247.329 40.2797 249.16 22.287 251.8 5.31784C234.831 2.65126 216.865 0.846588 198.145 0.0385284C197.23 0.0115967 196.314 -0.0153198 195.371 0.0116119C182.092 0.254028 171.453 6.23361 171.587 13.3714C171.614 15.1492 172.314 16.7653 173.553 18.2737C175.897 21.1557 177.163 24.4688 177.163 28.0781C177.163 39.2292 164.449 48.2794 148.773 48.2794C133.097 48.2794 120.357 39.2292 120.357 28.0781C120.357 24.4957 121.623 21.1557 123.966 18.2737C125.205 16.7384 125.905 15.1492 125.932 13.3714C126.067 6.23361 115.427 0.254028 102.175 0.0116119C101.233 0.0116119 100.532 0.0116119 99.6434 0.0116119C80.7888 0.819672 62.7152 2.51659 45.7461 5.31784C48.4127 22.287 50.406 40.2797 51.214 59.0266C51.2409 59.9424 51.2679 60.8582 51.241 61.8009C50.9986 75.0799 45.0189 85.7193 37.8811 85.5846C36.1034 85.5577 34.4872 84.8574 32.9789 83.6184C30.0968 81.2481 26.7839 80.0091 23.1746 80.0091C12.0234 80.0091 3 92.7225 3 108.426C3 124.129 12.0234 136.842 23.1746 136.842C26.757 136.842 30.0968 135.576 32.9789 133.233C34.5142 131.994 36.1034 131.294 37.8811 131.267C45.0189 131.132 50.9986 141.771 51.241 155.05C51.241 155.993 51.241 156.694 51.241 157.582C50.4329 176.437 48.5474 194.51 45.7461 211.507H45.7193Z" fill="url(#paint0_linear_777_765)"/>
<path d="M46.391 210.834C63.2794 213.609 81.2182 215.279 99.9381 216.114C100.827 216.141 101.527 216.141 102.47 216.114C115.641 215.871 125.419 210.053 125.311 203.346C125.311 201.569 124.503 200.006 123.237 198.471C120.813 195.589 119.655 191.791 119.655 188.236C119.655 177.165 133.014 167.9 148.771 167.9C164.529 167.9 177.888 177.165 177.888 188.236C177.888 191.791 176.811 195.508 174.387 198.39C173.094 199.899 172.313 201.73 172.259 203.508C172.151 210.242 182.279 215.844 195.612 216.087C196.554 216.087 197.47 216.087 198.386 216.06C217.214 215.252 234.264 213.447 251.125 210.807C248.351 193.919 246.654 175.953 245.846 157.233C245.819 156.318 245.819 155.644 245.846 154.701C246.088 141.53 252.256 130.433 259.314 130.541C261.307 130.567 263.138 131.241 264.674 132.426C267.609 134.689 270.68 136.008 274.262 136.008C285.117 136.008 293.925 123.995 293.925 108.4C293.925 92.8044 285.144 80.7913 274.262 80.7913C270.68 80.7913 267.556 82.138 264.647 84.4006C263.111 85.6127 261.388 86.2322 259.314 86.2591C252.23 86.3669 246.088 75.2965 245.846 62.0983C245.846 61.1556 245.846 60.2398 245.873 59.3509C246.681 40.7387 248.485 22.8538 251.125 5.99234C234.264 3.35269 217.241 1.54805 198.413 0.73999C197.497 0.713058 196.581 0.686096 195.639 0.713028C182.306 0.955444 172.178 6.69264 172.286 13.2917C172.313 15.0695 173.067 16.6856 174.306 18.2209C176.73 21.2646 177.888 24.82 177.888 28.3755C177.888 39.7152 164.555 48.927 148.771 48.927C132.987 48.927 119.655 39.6074 119.655 28.2947C119.655 24.7392 120.813 21.2107 123.237 18.194C124.476 16.6587 125.23 15.0426 125.257 13.2648C125.365 6.66571 115.668 0.928528 102.47 0.686111C101.554 0.686111 100.854 0.686111 99.9381 0.686111C81.2182 1.49417 63.2794 3.19106 46.391 5.96538C49.0307 22.8268 51.0237 40.6848 51.8318 59.324C51.8587 60.2398 51.8857 61.1286 51.8588 62.0714C51.6163 75.2426 45.5021 86.1783 38.4451 86.2053C36.6135 86.2053 34.7281 85.6666 33.085 84.3737C30.203 82.0842 27.0246 80.7913 23.4422 80.7913C12.6412 80.7913 3.77954 92.8044 3.77954 108.4C3.77954 123.995 12.6412 136.008 23.4422 136.008C27.0246 136.008 30.2028 134.689 33.1118 132.399C34.8087 131.052 36.5327 130.541 38.4721 130.567C45.5291 130.675 51.6433 141.503 51.8857 154.701C51.8857 155.617 51.8857 156.318 51.8857 157.233C51.0777 175.98 49.1922 193.919 46.4448 210.807L46.391 210.834Z" fill="url(#paint1_linear_777_765)"/>
<path d="M47.0935 210.135C63.8471 212.883 81.6782 214.553 100.29 215.361C101.179 215.388 101.88 215.388 102.796 215.361C115.886 215.118 124.774 209.462 124.694 203.186C124.694 201.408 123.805 199.9 122.485 198.365C119.98 195.509 118.903 191.2 118.903 187.671C118.903 176.655 132.909 167.174 148.747 167.174C164.585 167.174 178.564 176.682 178.564 187.671C178.564 191.2 177.675 195.321 175.17 198.176C173.85 199.684 172.935 201.758 172.908 203.536C172.827 209.866 182.416 215.118 195.83 215.361C196.772 215.361 197.715 215.361 198.631 215.334C217.566 214.526 233.674 212.748 250.427 210.135C247.68 193.355 245.983 175.524 245.175 156.911C245.148 156.022 245.148 155.322 245.175 154.406C245.417 141.316 251.747 129.761 258.777 129.841C260.986 129.841 263.033 130.515 264.595 131.646C267.558 133.828 270.386 135.202 273.969 135.202C284.554 135.202 293.092 123.889 293.092 108.401C293.092 92.9134 284.554 81.6006 273.969 81.6006C270.386 81.6006 267.477 83.0282 264.514 85.2099C262.952 86.3681 261.093 86.9338 258.75 86.9607C251.72 87.0415 245.39 75.5132 245.148 62.4228C245.148 61.507 245.148 60.5912 245.175 59.7023C245.983 41.1979 247.761 23.4475 250.4 6.72079C233.673 4.10809 217.566 2.30347 198.631 1.49541C197.715 1.46848 196.772 1.44151 195.83 1.46844C182.416 1.71086 172.827 7.17871 172.908 13.2661C172.908 15.0438 173.77 16.6329 175.009 18.2221C177.514 21.4274 178.564 25.1984 178.564 28.7269C178.564 40.2551 164.612 49.6555 148.747 49.6555C132.882 49.6555 118.903 40.0396 118.903 28.5922C118.903 25.0637 119.98 21.3197 122.485 18.1952C123.751 16.633 124.559 15.0169 124.586 13.2392C124.667 7.20567 115.886 1.68394 102.796 1.44153C101.88 1.44153 101.179 1.44153 100.29 1.44153C81.6782 2.24959 63.8741 3.91957 47.0935 6.66696C49.7062 23.4206 51.6724 41.1709 52.4805 59.6484C52.5074 60.5373 52.5344 61.4531 52.5075 62.3689C52.265 75.4594 46.016 86.6375 39.0129 86.826C37.1274 86.8799 34.9996 86.5028 33.195 85.1291C30.286 82.8935 27.2692 81.5467 23.7137 81.5467C13.2898 81.5467 4.58984 92.8595 4.58984 108.347C4.58984 123.835 13.2898 135.148 23.7137 135.148C27.2961 135.148 30.3399 133.801 33.2489 131.565C35.1344 130.111 36.9389 129.788 39.0399 129.868C46.0161 130.219 52.292 141.235 52.5344 154.326C52.5344 155.241 52.5344 155.942 52.5344 156.831C51.7264 175.443 49.8678 193.274 47.1204 210.027L47.0935 210.135Z" fill="url(#paint2_linear_777_765)"/>
<path d="M47.7679 209.457C64.4139 212.204 82.1374 213.848 100.615 214.656C101.504 214.683 102.177 214.683 103.093 214.656C116.103 214.413 124.102 208.918 124.048 203.073C124.048 201.296 123.079 199.814 121.732 198.306C119.173 195.451 118.177 190.656 118.177 187.155C118.177 176.219 132.829 166.495 148.748 166.495C164.667 166.495 179.265 176.246 179.265 187.155C179.265 190.683 178.538 195.155 175.979 198.037C174.633 199.545 173.582 201.834 173.582 203.612C173.528 209.538 182.605 214.413 196.073 214.656C197.016 214.656 197.959 214.656 198.874 214.629C217.918 213.821 233.082 212.07 249.728 209.457C246.981 192.811 245.311 175.088 244.503 156.61C244.476 155.721 244.476 155.021 244.503 154.105C244.745 141.096 251.236 129.109 258.239 129.163C260.664 129.163 262.926 129.783 264.515 130.887C267.505 132.988 270.118 134.389 273.673 134.389C283.99 134.389 292.286 123.776 292.286 108.396C292.286 93.0163 283.99 82.4039 273.673 82.4039C270.118 82.4039 267.397 83.9123 264.408 85.9863C262.819 87.0906 260.852 87.6024 258.239 87.6293C251.263 87.6832 244.772 75.724 244.53 62.7143C244.53 61.7985 244.529 60.8827 244.556 59.9939C245.364 41.6241 247.142 23.9815 249.755 7.3625C233.136 4.74979 217.971 2.97208 198.928 2.19095C198.012 2.16402 197.07 2.1371 196.127 2.16403C182.659 2.40645 173.582 7.60492 173.636 13.1805C173.636 14.9582 174.552 16.5474 175.791 18.1635C178.35 21.5304 179.319 25.5168 179.319 29.0453C179.319 40.7621 164.747 50.3511 148.802 50.3511C132.856 50.3511 118.23 40.4658 118.23 28.8568C118.23 25.3282 119.227 21.4226 121.786 18.1635C123.052 16.5743 123.914 14.9582 123.941 13.1805C123.995 7.68573 116.156 2.40645 103.147 2.16403C102.231 2.16403 101.531 2.16403 100.669 2.16403C82.1911 2.97209 64.4948 4.61511 47.8488 7.3625C50.4615 23.9815 52.4008 41.6241 53.2089 59.9939C53.2358 60.8827 53.2628 61.7985 53.2359 62.7143C52.9934 75.724 46.6097 87.1714 39.6874 87.5216C37.7481 87.6293 35.3509 87.3869 33.4116 85.9593C30.5026 83.8045 27.6474 82.4039 24.065 82.4039C13.9913 82.4039 5.45288 93.0163 5.45288 108.396C5.45288 123.776 13.9643 134.389 24.065 134.389C27.6205 134.389 30.5564 132.988 33.4654 130.806C35.5394 129.244 37.4518 129.083 39.6874 129.271C46.6097 129.837 52.9934 141.069 53.2359 154.078C53.2359 154.994 53.2359 155.694 53.2359 156.583C52.4278 175.061 50.5962 192.757 47.8488 209.43L47.7679 209.457Z" fill="url(#paint3_linear_777_765)"/>
<path d="M48.4628 208.758C65.001 211.479 82.5898 213.122 100.933 213.93C101.822 213.957 102.495 213.957 103.411 213.93C116.34 213.688 123.45 208.354 123.423 202.94C123.423 201.163 122.4 199.735 120.999 198.227C118.36 195.372 117.471 190.119 117.471 186.618C117.471 175.763 132.743 165.797 148.769 165.797C164.796 165.797 179.987 175.763 179.987 186.618C179.987 190.119 179.449 194.995 176.809 197.85C175.408 199.358 174.277 201.863 174.25 203.641C174.223 209.162 182.789 213.688 196.337 213.93C197.28 213.93 198.222 213.93 199.165 213.903C218.289 213.122 232.565 211.344 249.076 208.758C246.356 192.22 244.686 174.605 243.877 156.262C243.851 155.373 243.851 154.7 243.877 153.784C244.12 140.855 250.8 128.438 257.722 128.465C260.362 128.465 262.84 129.057 264.456 130.135C267.5 132.155 269.843 133.609 273.398 133.609C283.418 133.609 291.472 123.697 291.472 108.425C291.472 93.1527 283.418 83.2405 273.398 83.2405C269.843 83.2405 267.338 84.8297 264.294 86.8229C262.678 87.8734 260.577 88.3313 257.695 88.3582C250.746 88.3852 244.12 75.9681 243.877 63.0661C243.877 62.1503 243.878 61.2615 243.904 60.3726C244.686 42.1375 246.463 24.6296 249.049 8.09143C232.538 5.50566 218.289 3.72792 199.165 2.94681C198.249 2.91988 197.307 2.89294 196.337 2.91989C182.789 3.16231 174.223 8.11835 174.25 13.1552C174.25 14.9329 175.22 16.5221 176.459 18.1652C179.098 21.6937 179.987 25.8956 179.987 29.3972C179.987 41.3025 164.796 51.0799 148.769 51.0799C132.743 51.0799 117.471 40.8985 117.471 29.1547C117.471 25.6531 118.387 21.5321 120.999 18.1652C122.265 16.5491 123.208 14.9329 123.208 13.1552C123.235 8.19914 116.34 3.18924 103.411 2.91989C102.495 2.91989 101.822 2.91989 100.933 2.91989C82.5898 3.72794 65.001 5.37099 48.4628 8.09143C51.0486 24.6027 52.9881 42.1106 53.7961 60.3726C53.8231 61.2615 53.8499 62.1503 53.8229 63.0661C53.5805 75.995 47.0892 87.7118 40.2207 88.2236C38.2275 88.3852 35.5609 88.3044 33.4869 86.796C30.5779 84.695 27.8575 83.2675 24.3021 83.2675C14.5785 83.2675 6.22852 93.1796 6.22852 108.452C6.22852 123.724 14.5785 133.636 24.3021 133.636C27.8575 133.636 30.6857 132.209 33.5678 130.054C35.8303 128.384 37.8235 128.384 40.2207 128.653C47.0622 129.407 53.5805 140.882 53.8229 153.811C53.8229 154.726 53.8229 155.4 53.8229 156.289C53.0149 174.659 51.2103 192.22 48.4898 208.785L48.4628 208.758Z" fill="url(#paint4_linear_777_765)"/>
<path d="M49.1615 208.087C65.592 210.78 83.0461 212.423 101.281 213.204C102.17 213.231 102.843 213.231 103.732 213.204C116.553 212.962 122.802 207.79 122.802 202.807C122.802 201.057 121.698 199.656 120.27 198.148C117.577 195.293 116.742 189.555 116.742 186.081C116.742 175.307 132.66 165.098 148.768 165.098C164.875 165.098 180.686 175.307 180.686 186.081C180.686 189.555 180.336 194.808 177.615 197.663C176.188 199.171 174.922 201.919 174.922 203.669C174.922 208.787 182.948 212.962 196.578 213.177C197.547 213.177 198.49 213.177 199.406 213.151C218.638 212.369 231.971 210.619 248.374 208.033C245.681 191.602 244.011 174.121 243.229 155.913C243.202 155.024 243.202 154.351 243.229 153.462C243.472 140.641 250.313 127.766 257.209 127.766C260.064 127.766 262.784 128.332 264.401 129.355C267.471 131.268 269.572 132.803 273.128 132.803C282.878 132.803 290.662 123.591 290.662 108.427C290.662 93.2621 282.878 84.0503 273.128 84.0503C269.599 84.0503 267.283 85.7203 264.185 87.6327C262.542 88.6562 260.333 89.0333 257.155 89.0333C250.26 89.0333 243.445 76.1852 243.202 63.3641C243.202 62.4483 243.202 61.5594 243.229 60.6975C244.011 42.5701 245.761 25.1969 248.347 8.79343C231.944 6.20766 218.638 4.48381 199.406 3.67577C198.49 3.62189 197.52 3.62186 196.578 3.6488C182.975 3.89122 174.922 8.57796 174.922 13.1031C174.922 14.8808 175.945 16.47 177.184 18.1399C179.878 21.83 180.686 26.2744 180.686 29.7221C180.686 41.8159 164.875 51.782 148.768 51.782C132.66 51.782 116.742 41.3311 116.742 29.4258C116.742 25.9511 117.55 21.6415 120.27 18.1399C121.536 16.4969 122.533 14.8808 122.533 13.1031C122.533 8.6857 116.553 3.89122 103.732 3.6488C102.843 3.6488 102.143 3.6488 101.281 3.6488C83.0461 4.42992 65.592 6.07298 49.1615 8.76651C51.7203 25.17 53.6597 42.5702 54.4409 60.6706C54.4678 61.5594 54.4948 62.4483 54.4678 63.3371C54.2254 76.1583 47.5993 88.1714 40.7847 88.8447C38.7376 89.0333 35.8017 89.1141 33.5931 87.5519C30.6841 85.5048 28.0982 84.0233 24.5697 84.0233C15.1962 84.0233 7.00806 93.2352 7.00806 108.4C7.00806 123.564 15.1962 132.776 24.5697 132.776C28.1251 132.776 30.8187 131.295 33.7007 129.194C36.1518 127.416 38.2528 127.578 40.8117 127.955C47.5724 128.897 54.2522 140.614 54.4946 153.462C54.4946 154.378 54.4946 155.051 54.4946 155.913C53.7135 174.148 51.882 191.602 49.1885 208.033L49.1615 208.087Z" fill="url(#paint5_linear_777_765)"/>
</g>
<defs>
<filter id="filter0_d_777_765" x="0.67158" y="0" width="296.392" height="221.49" filterUnits="userSpaceOnUse" color-interpolation-filters="sRGB">
<feFlood flood-opacity="0" result="BackgroundImageFix"/>
<feColorMatrix in="SourceAlpha" type="matrix" values="0 0 0 0 0 0 0 0 0 0 0 0 0 0 0 0 0 0 127 0" result="hardAlpha"/>
<feOffset dy="2.32842"/>
<feGaussianBlur stdDeviation="1.16421"/>
<feComposite in2="hardAlpha" operator="out"/>
<feColorMatrix type="matrix" values="0 0 0 0 0 0 0 0 0 0 0 0 0 0 0 0 0 0 0.25 0"/>
<feBlend mode="normal" in2="BackgroundImageFix" result="effect1_dropShadow_777_765"/>
<feBlend mode="normal" in="SourceGraphic" in2="effect1_dropShadow_777_765" result="shape"/>
</filter>
<linearGradient id="paint0_linear_777_765" x1="148.867" y1="216.833" x2="148.867" y2="0.000457764" gradientUnits="userSpaceOnUse">
<stop stop-color="#F77F5A"/>
<stop offset="1" stop-color="#FFC291"/>
</linearGradient>
<linearGradient id="paint1_linear_777_765" x1="148.852" y1="216.134" x2="148.852" y2="0.686111" gradientUnits="userSpaceOnUse">
<stop stop-color="#F77F5A"/>
<stop offset="1" stop-color="#FFC291"/>
</linearGradient>
<linearGradient id="paint2_linear_777_765" x1="148.841" y1="215.381" x2="148.841" y2="1.44153" gradientUnits="userSpaceOnUse">
<stop stop-color="#F77F5A"/>
<stop offset="1" stop-color="#FFC291"/>
</linearGradient>
<linearGradient id="paint3_linear_777_765" x1="148.869" y1="214.676" x2="148.869" y2="2.15288" gradientUnits="userSpaceOnUse">
<stop stop-color="#F77F5A"/>
<stop offset="1" stop-color="#FFC291"/>
</linearGradient>
<linearGradient id="paint4_linear_777_765" x1="148.85" y1="213.95" x2="148.85" y2="2.90872" gradientUnits="userSpaceOnUse">
<stop stop-color="#F77F5A"/>
<stop offset="1" stop-color="#FFC291"/>
</linearGradient>
<linearGradient id="paint5_linear_777_765" x1="148.835" y1="213.225" x2="148.835" y2="3.6311" gradientUnits="userSpaceOnUse">
<stop stop-color="#F77F5A"/>
<stop offset="1" stop-color="#FFC291"/>
</linearGradient>
</defs>
</svg>
