<svg width="295" height="218" viewBox="0 0 295 218" fill="none" xmlns="http://www.w3.org/2000/svg">
<g filter="url(#filter0_d_777_801)">
<path d="M248.798 208.053C232.077 210.794 214.287 212.466 195.757 213.261C194.852 213.288 194.167 213.288 193.262 213.261C180.215 213.014 173.855 207.751 173.855 202.68C173.855 200.898 174.979 199.473 176.432 197.938C179.173 195.032 180.023 189.193 180.023 185.657C180.023 174.693 163.823 164.304 147.431 164.304C131.039 164.304 114.948 174.693 114.948 185.657C114.948 189.193 115.304 194.539 118.073 197.444C119.526 198.979 120.814 201.775 120.814 203.557C120.814 208.765 112.618 213.014 98.7754 213.233C97.7886 213.233 96.8292 213.233 95.8972 213.206C76.3255 212.411 62.7568 210.629 46.0633 208.025C48.8044 191.304 50.504 173.542 51.2989 154.984C51.3263 154.08 51.3263 153.394 51.2989 152.49C51.0522 139.442 44.0897 126.339 37.0724 126.339C34.1668 126.339 31.3982 126.915 29.7535 127.956C26.6286 129.903 24.4631 131.465 20.8722 131.465C10.9493 131.465 3 122.09 3 106.658C3 91.2252 10.9493 81.8505 20.8722 81.8505C24.4905 81.8505 26.8205 83.55 29.9728 85.4962C31.6175 86.5379 33.8927 86.9216 37.1272 86.9216C44.1445 86.9216 51.0796 73.8464 51.3263 60.7986C51.3263 59.8666 51.3263 58.962 51.2989 58.0848C50.504 39.6369 48.7222 21.9566 46.0907 5.26309C62.7842 2.65901 76.3255 0.877259 95.9246 0.0549175C96.8566 0.0274975 97.8434 0.000107943 98.8028 0.0275127C112.673 0.274217 120.842 5.04378 120.842 9.6489C120.842 11.4581 119.8 13.0479 118.539 14.7748C115.798 18.5302 114.976 23.0257 114.976 26.5617C114.976 38.8694 131.093 48.9843 147.458 48.9843C163.823 48.9843 180.05 38.3486 180.05 26.2328C180.05 22.6967 179.228 18.3109 176.459 14.7474C175.171 13.0753 174.157 11.4307 174.157 9.62151C174.157 5.12604 180.242 0.246783 193.29 7.85631e-05C194.222 7.85742e-05 194.907 7.85824e-05 195.784 7.85929e-05C214.342 0.795001 232.104 2.46712 248.825 5.20827C246.221 21.9018 244.248 39.5822 243.453 58.03C243.425 58.9346 243.398 59.8391 243.425 60.7437C243.672 73.7916 250.415 86.017 257.35 86.6749C259.434 86.8668 262.421 86.949 264.669 85.3592C267.63 83.2759 270.261 81.7683 273.852 81.7683C283.391 81.7683 291.724 91.143 291.724 106.576C291.724 122.008 283.391 131.383 273.852 131.383C270.234 131.383 267.493 129.875 264.559 127.737C262.065 125.928 259.927 126.12 257.323 126.476C250.415 127.436 243.645 139.36 243.398 152.407C243.398 153.339 243.398 154.025 243.398 154.902C244.193 173.459 246.057 191.222 248.798 207.943L248.798 208.053Z" fill="url(#paint0_linear_777_801)"/>
</g>
<defs>
<filter id="filter0_d_777_801" x="0.67158" y="0" width="293.381" height="217.938" filterUnits="userSpaceOnUse" color-interpolation-filters="sRGB">
<feFlood flood-opacity="0" result="BackgroundImageFix"/>
<feColorMatrix in="SourceAlpha" type="matrix" values="0 0 0 0 0 0 0 0 0 0 0 0 0 0 0 0 0 0 127 0" result="hardAlpha"/>
<feOffset dy="2.32842"/>
<feGaussianBlur stdDeviation="1.16421"/>
<feComposite in2="hardAlpha" operator="out"/>
<feColorMatrix type="matrix" values="0 0 0 0 0 0 0 0 0 0 0 0 0 0 0 0 0 0 0.25 0"/>
<feBlend mode="normal" in2="BackgroundImageFix" result="effect1_dropShadow_777_801"/>
<feBlend mode="normal" in="SourceGraphic" in2="effect1_dropShadow_777_801" result="shape"/>
</filter>
<linearGradient id="paint0_linear_777_801" x1="3" y1="106.641" x2="291.724" y2="106.641" gradientUnits="userSpaceOnUse">
<stop stop-color="#6F56B4"/>
<stop offset="1" stop-color="#493187"/>
</linearGradient>
</defs>
</svg>
