<svg width="298" height="217" viewBox="0 0 298 217" fill="none" xmlns="http://www.w3.org/2000/svg">
<g filter="url(#filter0_d_777_802)">
<path d="M251.854 212C249.187 195.031 247.383 177.227 246.575 158.48C246.548 157.564 246.521 156.648 246.548 155.705C246.79 142.426 252.77 131.787 259.908 131.922C261.685 131.949 263.301 132.649 264.81 133.888C267.692 136.231 271.005 137.497 274.614 137.497C285.765 137.497 294.789 124.784 294.789 109.081C294.789 93.3775 285.738 80.6641 274.614 80.6641C271.032 80.6641 267.719 81.9301 264.81 84.2734C263.275 85.5125 261.685 86.2128 259.908 86.2397C252.77 86.3744 246.79 75.735 246.548 62.4559C246.548 61.5132 246.548 60.8129 246.548 59.8971C247.383 41.0425 249.08 22.969 251.881 5.97289C234.912 3.3063 216.946 1.50166 198.199 0.693604C197.283 0.666672 196.368 0.639725 195.425 0.666656C182.146 0.909073 171.506 6.88869 171.641 14.0265C171.668 15.8042 172.368 17.4203 173.607 18.9287C175.951 21.8108 177.217 25.1238 177.217 28.7331C177.217 39.8843 164.503 48.9345 148.8 48.9345C133.097 48.9345 120.383 39.8843 120.383 28.7331C120.383 25.1507 121.649 21.8108 123.993 18.9287C125.232 17.3934 125.932 15.8042 125.959 14.0265C126.094 6.88869 115.454 0.909073 102.175 0.666656C101.232 0.666656 100.532 0.666656 99.6433 0.666656C80.7887 1.47472 62.7152 3.17163 45.7191 5.97289C48.5204 22.969 50.3789 41.0425 51.2139 59.8971C51.2409 60.8129 51.2409 61.5132 51.2139 62.4559C50.9715 75.735 44.9919 86.3744 37.8541 86.2397C36.0764 86.2128 34.4603 85.5125 32.9519 84.2734C30.0698 81.9301 26.7568 80.6641 23.1744 80.6641C12.0233 80.6641 3 93.3775 3 109.081C3 124.784 12.0233 137.497 23.1744 137.497C26.7568 137.497 30.0968 136.231 32.9519 133.888C34.4872 132.649 36.0764 131.949 37.8541 131.922C44.9919 131.787 50.9715 142.426 51.2139 155.705C51.2139 156.648 51.2139 157.564 51.187 158.48C50.3789 177.227 48.3857 195.031 45.7191 212H251.773H251.854Z" fill="url(#paint0_linear_777_802)"/>
<path d="M251.178 211.352C248.538 194.491 246.733 176.767 245.925 158.155C245.898 157.266 245.872 156.323 245.898 155.408C246.141 142.209 252.282 131.139 259.366 131.247C261.44 131.247 263.164 131.893 264.699 133.105C267.635 135.368 270.733 136.715 274.315 136.715C285.17 136.715 293.978 124.702 293.978 109.106C293.978 93.5106 285.197 81.4975 274.315 81.4975C270.733 81.4975 267.662 82.8173 264.726 85.0799C263.191 86.292 261.359 86.9384 259.366 86.9653C252.282 87.0731 246.141 75.9758 245.898 62.8045C245.898 61.8618 245.898 61.1884 245.898 60.2726C246.707 41.5526 248.403 23.5869 251.178 6.69852C234.316 4.05887 217.293 2.25423 198.439 1.44617C197.523 1.41924 196.607 1.39229 195.664 1.41924C182.331 1.66165 172.204 7.29109 172.312 13.998C172.339 15.7757 173.147 17.6073 174.439 19.1426C176.864 22.0246 177.941 25.7417 177.941 29.2971C177.941 40.3675 164.608 49.6601 148.824 49.6601C133.04 49.6601 119.707 40.3944 119.707 29.2971C119.707 25.7417 120.865 21.9169 123.29 19.0618C124.582 17.5534 125.337 15.9911 125.364 14.1865C125.471 7.47964 115.721 1.66165 102.523 1.41924C101.607 1.41924 100.906 1.41924 99.9906 1.41924C81.2707 2.22728 63.3049 3.92419 46.4435 6.69852C49.2178 23.5869 51.0764 41.5257 51.8845 60.2726C51.9114 61.1884 51.9114 61.8618 51.8845 62.8045C51.642 75.9758 45.5277 86.8037 38.4707 86.9384C36.5314 86.9653 34.8345 86.4536 33.1106 85.1068C30.2286 82.8173 27.0233 81.4975 23.4409 81.4975C12.6399 81.4975 3.7782 93.5106 3.7782 109.106C3.7782 124.702 12.6399 136.715 23.4409 136.715C27.0233 136.715 30.2016 135.422 33.0837 133.132C34.7537 131.812 36.6122 131.274 38.4437 131.301C45.5008 131.328 51.6151 142.236 51.8575 155.435C51.8575 156.35 51.8575 157.293 51.8305 158.182C51.0225 176.794 49.0562 194.517 46.3897 211.379H251.07L251.178 211.352Z" fill="url(#paint1_linear_777_802)"/>
<path d="M250.479 210.681C247.866 193.927 246.061 176.311 245.253 157.807C245.226 156.918 245.199 156.002 245.226 155.086C245.469 141.996 251.771 130.468 258.828 130.549C261.172 130.549 263.03 131.141 264.593 132.299C267.555 134.481 270.464 135.909 274.047 135.909C284.632 135.909 293.171 124.596 293.171 109.108C293.171 93.6204 284.632 82.3076 274.047 82.3076C270.464 82.3076 267.636 83.6813 264.673 85.8631C263.111 87.0213 261.064 87.6677 258.855 87.6677C251.825 87.7486 245.496 76.2203 245.253 63.1298C245.253 62.214 245.253 61.5137 245.253 60.6248C246.061 42.0126 247.758 24.1815 250.505 7.40094C233.779 4.76129 217.645 2.98357 198.709 2.17551C197.793 2.14857 196.851 2.12163 195.908 2.14856C182.494 2.39098 172.905 7.64336 172.986 13.9731C172.986 15.7508 173.929 17.7979 175.249 19.3332C177.754 22.2153 178.642 26.3094 178.642 29.8379C178.642 40.8544 164.69 50.3625 148.825 50.3625C132.96 50.3625 118.981 40.8544 118.981 29.8379C118.981 26.3094 120.058 21.9998 122.563 19.1447C123.883 17.6363 124.745 16.101 124.772 14.3233C124.853 8.04738 115.964 2.39098 102.874 2.14856C101.958 2.14856 101.258 2.14856 100.369 2.14856C81.7567 2.95662 63.9256 4.6266 47.1719 7.37399C49.9193 24.1546 51.7778 41.9588 52.5858 60.571C52.6127 61.4598 52.6127 62.1601 52.5858 63.0759C52.3434 76.1664 46.0945 87.2099 39.0913 87.5331C36.9904 87.6408 35.1858 87.3176 33.3003 85.8362C30.4182 83.6005 27.3476 82.2538 23.7652 82.2538C13.3413 82.2538 4.64124 93.5666 4.64124 109.054C4.64124 124.542 13.3413 135.855 23.7652 135.855C27.3476 135.855 30.3643 134.508 33.2464 132.272C35.051 130.899 37.1789 130.522 39.0644 130.575C46.0675 130.791 52.3165 141.942 52.5589 155.033C52.5589 155.948 52.5589 156.864 52.532 157.753C51.7239 176.258 49.7576 193.9 47.1449 210.627H250.452L250.479 210.681Z" fill="url(#paint2_linear_777_802)"/>
<path d="M249.802 210.033C247.189 193.387 245.412 175.852 244.604 157.483C244.577 156.594 244.55 155.678 244.577 154.762C244.819 141.753 251.311 129.793 258.287 129.847C260.9 129.847 262.866 130.386 264.455 131.49C267.472 133.591 270.165 135.073 273.721 135.073C284.037 135.073 292.306 124.46 292.306 109.08C292.306 93.7002 284.01 83.0877 273.721 83.0877C270.165 83.0877 267.579 84.5153 264.563 86.5893C262.974 87.6937 260.711 88.3132 258.287 88.3401C251.311 88.394 244.792 76.4078 244.55 63.3981C244.55 62.4823 244.55 61.782 244.55 60.8932C245.358 42.4156 247.028 24.6923 249.775 8.04637C233.156 5.43365 217.965 3.65594 198.922 2.87482C198.006 2.84789 197.063 2.82095 196.12 2.84789C182.653 3.0903 173.576 7.96556 173.63 13.8913C173.63 15.669 174.68 17.9585 176.027 19.4669C178.586 22.322 179.313 26.8202 179.313 30.3487C179.313 41.2844 164.741 51.0349 148.795 51.0349C132.85 51.0349 118.224 41.2844 118.224 30.3487C118.224 26.8202 119.22 22.0527 121.779 19.1975C123.126 17.6892 124.069 16.2077 124.096 14.43C124.15 8.58508 116.15 3.0903 103.14 2.84789C102.224 2.84789 101.551 2.84789 100.662 2.84789C82.1846 3.65594 64.4882 5.29898 47.8154 8.04637C50.5628 24.7192 52.3943 42.4156 53.2024 60.8932C53.2293 61.782 53.2293 62.4823 53.2024 63.3981C52.96 76.4078 46.5764 87.6398 39.654 88.2054C37.3915 88.394 35.506 88.2324 33.432 86.6701C30.5499 84.4884 27.614 83.0877 24.0316 83.0877C13.9579 83.0877 5.41943 93.7002 5.41943 109.08C5.41943 124.46 13.931 135.073 24.0316 135.073C27.5871 135.073 30.4692 133.672 33.3782 131.517C35.3175 130.063 37.7147 129.847 39.654 129.955C46.5764 130.305 52.96 141.753 53.2024 154.762C53.2024 155.678 53.2024 156.594 53.1754 157.483C52.3674 175.852 50.4281 193.414 47.8154 210.033H249.748H249.802Z" fill="url(#paint3_linear_777_802)"/>
<path d="M249.108 209.383C246.522 192.872 244.744 175.391 243.963 157.156C243.936 156.267 243.909 155.378 243.936 154.462C244.179 141.534 250.832 129.143 257.754 129.17C260.636 129.17 262.737 129.628 264.353 130.706C267.397 132.699 269.902 134.288 273.457 134.288C283.477 134.288 291.531 124.376 291.531 109.104C291.531 93.8313 283.477 83.9192 273.457 83.9192C269.902 83.9192 267.558 85.4006 264.515 87.3938C262.899 88.4443 260.421 89.0369 257.781 89.0638C250.832 89.0907 244.152 76.6467 243.936 63.7447C243.936 62.8289 243.936 62.1556 243.936 61.2667C244.744 42.9239 246.414 25.3083 249.135 8.77007C232.623 6.1843 218.375 4.43349 199.224 3.62544C198.308 3.5985 197.365 3.57156 196.396 3.5985C182.847 3.84091 174.282 8.36603 174.309 13.8877C174.309 15.6655 175.467 18.1704 176.868 19.6788C179.507 22.5339 180.046 27.4092 180.046 30.9108C180.046 41.7656 164.855 51.7317 148.828 51.7317C132.802 51.7317 117.529 41.7387 117.529 30.9108C117.529 27.4092 118.445 22.1568 121.058 19.3017C122.459 17.7933 123.482 16.3388 123.482 14.5881C123.509 9.17409 116.371 3.84091 103.469 3.5985C102.553 3.5985 101.88 3.5985 100.991 3.5985C82.6483 4.40656 65.0597 6.04961 48.5215 8.77007C51.242 25.3083 53.0735 42.8969 53.8547 61.2667C53.8816 62.1556 53.8816 62.8289 53.8547 63.7447C53.6122 76.6736 47.094 88.148 40.2524 88.9022C37.8552 89.1715 35.862 89.1985 33.5994 87.5016C30.7174 85.3737 27.8892 83.9192 24.3337 83.9192C14.6101 83.9192 6.26025 93.8313 6.26025 109.104C6.26025 124.376 14.6101 134.288 24.3337 134.288C27.8892 134.288 30.6096 132.86 33.5186 130.759C35.5926 129.251 38.2592 129.17 40.2524 129.332C47.1209 129.844 53.6122 141.56 53.8547 154.489C53.8547 155.405 53.8547 156.294 53.8278 157.183C53.0467 175.418 51.1073 192.899 48.4946 209.41H249.054L249.108 209.383Z" fill="url(#paint4_linear_777_802)"/>
<path d="M248.436 208.712C245.85 192.308 244.099 174.908 243.318 156.808C243.291 155.919 243.264 155.03 243.291 154.141C243.533 141.32 250.348 128.472 257.243 128.472C260.422 128.472 262.63 128.876 264.273 129.873C267.371 131.785 269.66 133.455 273.216 133.455C282.966 133.455 290.751 124.243 290.751 109.079C290.751 93.9142 282.966 84.7024 273.216 84.7024C269.66 84.7024 267.559 86.2377 264.489 88.1501C262.846 89.1736 260.152 89.7393 257.297 89.7393C250.402 89.7393 243.56 76.8642 243.318 64.0431C243.318 63.1273 243.318 62.4539 243.318 61.592C244.099 43.3569 245.769 25.9029 248.462 9.44551C232.059 6.88666 218.726 5.13588 199.521 4.35475C198.605 4.32782 197.636 4.30089 196.693 4.32782C183.091 4.57024 175.037 8.71825 175.037 13.8629C175.037 15.6137 176.303 18.361 177.731 19.8694C180.424 22.7245 180.801 28.0038 180.801 31.4515C180.801 42.2256 164.99 52.434 148.883 52.434C132.776 52.434 116.857 42.2256 116.857 31.4515C116.857 27.9769 117.665 22.2397 120.386 19.3846C121.813 17.8762 122.918 16.4756 122.918 14.7248C122.918 9.74179 116.669 4.57024 103.848 4.32782C102.959 4.32782 102.258 4.32782 101.396 4.32782C83.1613 5.13588 65.7073 6.75198 49.2768 9.44551C51.9703 25.876 53.8019 43.33 54.5831 61.5651C54.61 62.4539 54.61 63.1273 54.5831 64.0162C54.3406 76.8373 47.6876 88.581 40.8999 89.5238C38.3411 89.8739 36.2671 90.0625 33.7891 88.2848C30.907 86.1838 28.2135 84.7024 24.658 84.7024C15.2846 84.7024 7.12329 93.9142 7.12329 109.079C7.12329 124.243 15.3115 133.455 24.658 133.455C28.2135 133.455 30.7723 131.974 33.6813 129.927C35.89 128.364 38.826 128.418 40.8731 128.634C47.6877 129.307 54.3137 141.293 54.5561 154.141C54.5561 155.03 54.5561 155.946 54.5291 156.808C53.748 174.935 51.8087 192.308 49.2499 208.712H248.436Z" fill="url(#paint5_linear_777_802)"/>
</g>
<defs>
<filter id="filter0_d_777_802" x="0.67158" y="0.655273" width="296.445" height="216.002" filterUnits="userSpaceOnUse" color-interpolation-filters="sRGB">
<feFlood flood-opacity="0" result="BackgroundImageFix"/>
<feColorMatrix in="SourceAlpha" type="matrix" values="0 0 0 0 0 0 0 0 0 0 0 0 0 0 0 0 0 0 127 0" result="hardAlpha"/>
<feOffset dy="2.32842"/>
<feGaussianBlur stdDeviation="1.16421"/>
<feComposite in2="hardAlpha" operator="out"/>
<feColorMatrix type="matrix" values="0 0 0 0 0 0 0 0 0 0 0 0 0 0 0 0 0 0 0.25 0"/>
<feBlend mode="normal" in2="BackgroundImageFix" result="effect1_dropShadow_777_802"/>
<feBlend mode="normal" in="SourceGraphic" in2="effect1_dropShadow_777_802" result="shape"/>
</filter>
<linearGradient id="paint0_linear_777_802" x1="148.894" y1="212" x2="148.894" y2="0.655502" gradientUnits="userSpaceOnUse">
<stop stop-color="#6F56B4"/>
<stop offset="1" stop-color="#493187"/>
</linearGradient>
<linearGradient id="paint1_linear_777_802" x1="148.878" y1="211.379" x2="148.878" y2="1.40807" gradientUnits="userSpaceOnUse">
<stop stop-color="#6F56B4"/>
<stop offset="1" stop-color="#493187"/>
</linearGradient>
<linearGradient id="paint2_linear_777_802" x1="148.906" y1="210.681" x2="148.906" y2="2.13741" gradientUnits="userSpaceOnUse">
<stop stop-color="#6F56B4"/>
<stop offset="1" stop-color="#493187"/>
</linearGradient>
<linearGradient id="paint3_linear_777_802" x1="148.863" y1="210.033" x2="148.863" y2="2.83672" gradientUnits="userSpaceOnUse">
<stop stop-color="#6F56B4"/>
<stop offset="1" stop-color="#493187"/>
</linearGradient>
<linearGradient id="paint4_linear_777_802" x1="148.895" y1="209.41" x2="148.895" y2="3.58734" gradientUnits="userSpaceOnUse">
<stop stop-color="#6F56B4"/>
<stop offset="1" stop-color="#493187"/>
</linearGradient>
<linearGradient id="paint5_linear_777_802" x1="148.937" y1="208.712" x2="148.937" y2="4.31667" gradientUnits="userSpaceOnUse">
<stop stop-color="#6F56B4"/>
<stop offset="1" stop-color="#493187"/>
</linearGradient>
</defs>
</svg>
