<svg width="298" height="217" viewBox="0 0 298 217" fill="none" xmlns="http://www.w3.org/2000/svg">
<g filter="url(#filter0_d_777_751)">
<path d="M252.063 212C249.397 195.031 247.592 177.227 246.784 158.453C246.73 157.537 246.73 156.621 246.757 155.679C247 142.4 252.979 131.76 260.117 131.895C261.895 131.922 263.511 132.622 265.019 133.861C267.901 136.204 271.214 137.47 274.824 137.47C285.975 137.47 294.998 124.757 294.998 109.054C294.998 93.3506 285.948 80.6371 274.824 80.6371C271.241 80.6371 267.928 81.9031 265.019 84.2465C263.484 85.4855 261.895 86.1858 260.117 86.2127C252.979 86.3474 247 75.708 246.757 62.429C246.757 61.4863 246.757 60.7859 246.757 59.8701C247.565 41.0155 249.289 22.942 252.09 5.94592C235.121 3.27933 217.155 1.47469 198.409 0.666626C197.493 0.639694 196.577 0.612747 195.634 0.639679C182.355 0.882095 171.716 6.86171 171.85 13.9995C171.877 15.7773 172.578 17.3934 173.817 18.9017C176.16 21.7838 177.426 25.0968 177.426 28.7061C177.426 39.8573 164.713 48.9075 149.009 48.9075C133.306 48.9075 120.62 39.8573 120.62 28.7061C120.62 25.1237 121.886 21.7838 124.229 18.9017C125.468 17.3664 126.168 15.7773 126.195 13.9995C126.33 6.86171 115.691 0.882095 102.412 0.639679C101.469 0.639679 100.769 0.639679 99.8797 0.639679C81.0251 1.44774 62.9516 3.14465 45.9555 5.94592C48.7567 22.942 50.6154 41.0155 51.4503 59.8701C51.4773 60.7859 51.4773 61.4863 51.4503 62.429C51.2079 75.708 45.2283 86.3474 38.0904 86.2127C36.3127 86.1858 34.6966 85.4855 33.1882 84.2465C30.3062 81.9031 26.9931 80.6371 23.4107 80.6371C12.2596 80.6371 3.23633 93.3506 3.23633 109.054C3.23633 124.757 12.2865 137.47 23.4107 137.47C26.9931 137.47 30.3062 136.204 33.1882 133.861C34.7235 132.622 36.3127 131.922 38.0904 131.895C45.2283 131.76 51.2079 142.4 51.4503 155.679C51.4503 156.621 51.4503 157.537 51.4234 158.453C50.6153 177.2 48.622 195.031 45.9555 212H252.009H252.063Z" fill="url(#paint0_linear_777_751)"/>
<path d="M251.362 211.352C248.722 194.491 246.917 176.767 246.109 158.128C246.082 157.239 246.055 156.296 246.082 155.381C246.325 142.182 252.466 131.112 259.55 131.22C261.624 131.22 263.348 131.866 264.883 133.078C267.819 135.341 270.917 136.688 274.499 136.688C285.354 136.688 294.162 124.675 294.162 109.079C294.162 93.4837 285.381 81.4706 274.499 81.4706C270.917 81.4706 267.846 82.7904 264.91 85.053C263.375 86.265 261.543 86.9115 259.55 86.9384C252.466 87.0462 246.325 75.9489 246.082 62.7776C246.082 61.8348 246.082 61.1615 246.082 60.2457C246.89 41.5257 248.587 23.56 251.362 6.67162C234.5 4.03197 217.477 2.22733 198.622 1.41927C197.707 1.39233 196.791 1.36539 195.848 1.39232C182.515 1.63474 172.388 7.26421 172.495 13.9711C172.522 15.7488 173.33 17.5804 174.623 19.1157C177.047 21.9977 178.125 25.7148 178.125 29.2702C178.125 40.3406 164.792 49.6332 149.008 49.6332C133.224 49.6332 119.891 40.3675 119.891 29.2702C119.891 25.7148 121.049 21.89 123.473 19.0349C124.766 17.5265 125.52 15.9643 125.547 14.1596C125.655 7.45276 115.905 1.63474 102.706 1.39232C101.791 1.39232 101.09 1.39232 100.174 1.39232C81.4545 2.20038 63.4887 3.89729 46.6273 6.67162C49.4016 23.56 51.2603 41.4988 52.0952 60.2457C52.1222 61.1615 52.1222 61.8348 52.0952 62.7776C51.8528 75.9489 45.7384 86.7768 38.6814 86.9115C36.7421 86.9384 35.0452 86.4267 33.3213 85.0799C30.4393 82.7904 27.2341 81.4706 23.6787 81.4706C12.8777 81.4706 4.01587 93.4837 4.01587 109.079C4.01587 124.675 12.8777 136.688 23.6787 136.688C27.2611 136.688 30.4393 135.395 33.3213 133.105C34.9913 131.785 36.8498 131.247 38.6814 131.274C45.7384 131.301 51.8528 142.209 52.0952 155.408C52.0952 156.323 52.0952 157.266 52.0683 158.155C51.2602 176.767 49.267 194.517 46.6273 211.379H251.308L251.362 211.352Z" fill="url(#paint1_linear_777_751)"/>
<path d="M250.663 210.682C248.051 193.928 246.246 176.285 245.438 157.781C245.411 156.892 245.384 155.976 245.411 155.061C245.653 141.97 251.956 130.442 258.986 130.523C261.33 130.523 263.188 131.115 264.751 132.273C267.713 134.455 270.622 135.883 274.205 135.883C284.79 135.883 293.329 124.57 293.329 109.082C293.329 93.5945 284.79 82.2817 274.205 82.2817C270.622 82.2817 267.794 83.6554 264.831 85.8371C263.269 86.9953 261.222 87.6418 259.013 87.6418C251.983 87.7226 245.653 76.1944 245.411 63.1039C245.411 62.1881 245.411 61.4877 245.411 60.5989C246.219 41.9867 247.916 24.1556 250.663 7.37497C233.937 4.73532 217.803 2.9576 198.867 2.17648C197.951 2.14955 197.009 2.1226 196.066 2.14954C182.652 2.39195 173.063 7.64433 173.144 13.9741C173.144 15.7518 174.087 17.7989 175.406 19.3342C177.911 22.2163 178.8 26.3104 178.8 29.8389C178.8 40.8285 164.848 50.3635 148.983 50.3635C133.118 50.3635 119.139 40.8554 119.139 29.8389C119.139 26.3104 120.216 22.0008 122.721 19.1456C124.041 17.6373 124.903 16.102 124.93 14.3242C125.011 8.04836 116.122 2.39195 103.032 2.14954C102.116 2.14954 101.416 2.14954 100.527 2.14954C81.9145 2.9576 64.0835 4.62758 47.3298 7.37497C50.0772 24.1556 51.9357 41.9597 52.7438 60.5719C52.7707 61.4608 52.7707 62.1611 52.7438 63.0769C52.5014 76.1674 46.2524 87.2108 39.2492 87.534C37.1483 87.6418 35.3436 87.3186 33.4581 85.8641C30.576 83.6284 27.5055 82.2817 23.9501 82.2817C13.5262 82.2817 4.82617 93.5945 4.82617 109.082C4.82617 124.57 13.5262 135.883 23.9501 135.883C27.5325 135.883 30.5492 134.536 33.4313 132.3C35.236 130.927 37.3638 130.55 39.2492 130.603C46.2524 130.819 52.5014 141.97 52.7438 155.061C52.7438 155.976 52.7438 156.892 52.7168 157.781C51.9088 176.285 49.9425 193.928 47.3298 210.655H250.636L250.663 210.682Z" fill="url(#paint2_linear_777_751)"/>
<path d="M249.989 210.033C247.377 193.387 245.599 175.852 244.818 157.483C244.791 156.594 244.764 155.678 244.791 154.762C245.033 141.753 251.525 129.793 258.501 129.847C261.114 129.847 263.08 130.386 264.669 131.49C267.686 133.591 270.379 135.073 273.935 135.073C284.251 135.073 292.547 124.46 292.547 109.08C292.547 93.7002 284.251 83.0877 273.935 83.0877C270.379 83.0877 267.793 84.5153 264.777 86.5893C263.188 87.6937 260.925 88.3132 258.501 88.3401C251.525 88.394 245.006 76.4078 244.764 63.3981C244.764 62.4823 244.764 61.782 244.764 60.8932C245.572 42.4156 247.242 24.6923 249.989 8.04637C233.37 5.43365 218.179 3.65594 199.136 2.87482C198.22 2.84789 197.277 2.82095 196.335 2.84789C182.867 3.0903 173.79 7.96556 173.844 13.8913C173.844 15.669 174.894 17.9585 176.241 19.4669C178.8 22.322 179.527 26.8202 179.527 30.3487C179.527 41.2844 164.955 51.0349 149.009 51.0349C133.064 51.0349 118.438 41.2844 118.438 30.3487C118.438 26.8202 119.435 22.0527 121.994 19.1975C123.34 17.6892 124.283 16.2077 124.31 14.43C124.364 8.58508 116.364 3.0903 103.354 2.84789C102.438 2.84789 101.765 2.84789 100.876 2.84789C82.3987 3.65594 64.7024 5.29898 48.0295 8.04637C50.7769 24.7192 52.6085 42.4156 53.4165 60.8932C53.4435 61.782 53.4435 62.4823 53.4165 63.3981C53.1741 76.4078 46.7904 87.6398 39.868 88.2054C37.6055 88.394 35.72 88.2324 33.646 86.6701C30.764 84.4884 27.8281 83.0877 24.2457 83.0877C14.1719 83.0877 5.63354 93.7002 5.63354 109.08C5.63354 124.46 14.145 135.073 24.2457 135.073C27.8011 135.073 30.6833 133.672 33.5923 131.517C35.5316 130.063 37.9287 129.847 39.868 129.955C46.7904 130.305 53.1741 141.753 53.4165 154.762C53.4165 155.678 53.4165 156.594 53.3896 157.483C52.5815 175.852 50.6422 193.414 48.0295 210.033H249.962H249.989Z" fill="url(#paint3_linear_777_751)"/>
<path d="M249.285 209.36C246.7 192.849 244.922 175.368 244.141 157.132C244.114 156.244 244.087 155.355 244.114 154.439C244.356 141.51 251.009 129.12 257.932 129.147C260.814 129.147 262.915 129.605 264.531 130.682C267.574 132.675 270.079 134.265 273.635 134.265C283.655 134.265 291.708 124.352 291.708 109.08C291.708 93.8079 283.655 83.8958 273.635 83.8958C270.079 83.8958 267.736 85.3772 264.692 87.3704C263.076 88.4209 260.598 89.0135 257.959 89.0404C251.009 89.0673 244.356 76.6233 244.114 63.7214C244.114 62.8056 244.114 62.1322 244.114 61.2433C244.922 42.9005 246.592 25.2849 249.285 8.74667C232.774 6.1609 218.525 4.41011 199.402 3.60205C198.486 3.57512 197.543 3.5482 196.573 3.57513C183.025 3.81755 174.46 8.34265 174.486 13.8644C174.486 15.6421 175.645 18.147 177.045 19.6554C179.685 22.5105 180.224 27.3858 180.224 30.8874C180.224 41.7423 165.032 51.7083 149.006 51.7083C132.979 51.7083 117.707 41.7153 117.707 30.8874C117.707 27.3858 118.623 22.1335 121.263 19.2783C122.663 17.7699 123.687 16.3424 123.687 14.5647C123.714 9.1507 116.576 3.81755 103.674 3.57513C102.758 3.57513 102.085 3.57513 101.196 3.57513C82.853 4.38319 65.2643 6.02623 48.7261 8.74667C51.4466 25.2849 53.2781 42.8735 54.0592 61.2433C54.0862 62.1322 54.0862 62.8056 54.0592 63.7214C53.8168 76.6502 47.2986 88.1246 40.457 88.8788C38.0598 89.1481 36.0665 89.1751 33.8039 87.4782C30.9219 85.3503 28.0937 83.8958 24.5382 83.8958C14.8146 83.8958 6.46484 93.8079 6.46484 109.08C6.46484 124.352 14.8146 134.265 24.5382 134.265C28.0937 134.265 30.8142 132.837 33.7232 130.736C35.7972 129.228 38.4638 129.147 40.457 129.308C47.3255 129.82 53.8438 141.537 54.0592 154.466C54.0592 155.382 54.0592 156.271 54.0323 157.159C53.2512 175.395 51.3119 192.875 48.6992 209.387H249.259L249.285 209.36Z" fill="url(#paint4_linear_777_751)"/>
<path d="M248.619 208.711C246.06 192.308 244.283 174.908 243.501 156.807C243.475 155.918 243.448 155.03 243.474 154.141C243.717 141.32 250.531 128.471 257.427 128.471C260.605 128.471 262.814 128.875 264.457 129.872C267.554 131.785 269.844 133.454 273.399 133.454C283.15 133.454 290.934 124.243 290.934 109.078C290.934 93.9136 283.15 84.7018 273.399 84.7018C269.844 84.7018 267.743 86.2371 264.672 88.1495C263.056 89.173 260.336 89.7387 257.481 89.7387C250.585 89.7387 243.744 76.8637 243.501 64.0425C243.501 63.1267 243.501 62.4534 243.501 61.5914C244.283 43.3563 245.952 25.9023 248.646 9.44495C232.242 6.88611 218.91 5.13533 199.705 4.3542C198.789 4.32727 197.819 4.30032 196.877 4.32726C183.274 4.56967 175.221 8.7177 175.221 13.8623C175.221 15.6131 176.487 18.3605 177.914 19.8689C180.608 22.724 180.985 28.0033 180.985 31.451C180.985 42.2251 165.174 52.4335 149.067 52.4335C132.959 52.4335 117.041 42.2251 117.041 31.451C117.041 27.9763 117.849 22.2391 120.569 19.384C121.997 17.8756 123.101 16.475 123.101 14.7242C123.101 9.74123 116.852 4.56967 104.031 4.32726C103.142 4.32726 102.442 4.32726 101.58 4.32726C83.3449 5.13531 65.8908 6.75142 49.4603 9.47186C52.1539 25.9023 53.9855 43.3563 54.7666 61.5914C54.7936 62.4803 54.7936 63.1537 54.7666 64.0425C54.5242 76.8637 47.8712 88.6074 41.0835 89.5501C38.5247 89.9003 36.4506 90.0889 33.9726 88.3111C31.0905 86.2102 28.3972 84.7287 24.8417 84.7287C15.4683 84.7287 7.30688 93.9406 7.30688 109.105C7.30688 124.27 15.4952 133.481 24.8417 133.481C28.3972 133.481 30.9559 132 33.8649 129.953C36.0736 128.391 39.0095 128.445 41.0566 128.66C47.8712 129.333 54.4973 141.32 54.7397 154.168C54.7397 155.056 54.7397 155.972 54.7127 156.834C53.9316 174.962 51.9924 192.335 49.4335 208.738H248.619V208.711Z" fill="url(#paint5_linear_777_751)"/>
</g>
<defs>
<filter id="filter0_d_777_751" x="0.907908" y="0.628906" width="296.419" height="216.028" filterUnits="userSpaceOnUse" color-interpolation-filters="sRGB">
<feFlood flood-opacity="0" result="BackgroundImageFix"/>
<feColorMatrix in="SourceAlpha" type="matrix" values="0 0 0 0 0 0 0 0 0 0 0 0 0 0 0 0 0 0 127 0" result="hardAlpha"/>
<feOffset dy="2.32842"/>
<feGaussianBlur stdDeviation="1.16421"/>
<feComposite in2="hardAlpha" operator="out"/>
<feColorMatrix type="matrix" values="0 0 0 0 0 0 0 0 0 0 0 0 0 0 0 0 0 0 0.25 0"/>
<feBlend mode="normal" in2="BackgroundImageFix" result="effect1_dropShadow_777_751"/>
<feBlend mode="normal" in="SourceGraphic" in2="effect1_dropShadow_777_751" result="shape"/>
</filter>
<linearGradient id="paint0_linear_777_751" x1="149.062" y1="263.638" x2="149.077" y2="0.628525" gradientUnits="userSpaceOnUse">
<stop stop-color="#FB8A4A"/>
<stop offset="0.5" stop-color="#FFC290"/>
<stop offset="1" stop-color="#FFE1CA"/>
</linearGradient>
<linearGradient id="paint1_linear_777_751" x1="149.034" y1="262.681" x2="149.048" y2="1.38116" gradientUnits="userSpaceOnUse">
<stop stop-color="#FB8A4A"/>
<stop offset="0.5" stop-color="#FFC290"/>
<stop offset="1" stop-color="#FFE1CA"/>
</linearGradient>
<linearGradient id="paint2_linear_777_751" x1="149.023" y1="261.628" x2="149.037" y2="2.13838" gradientUnits="userSpaceOnUse">
<stop stop-color="#FB8A4A"/>
<stop offset="0.5" stop-color="#FFC290"/>
<stop offset="1" stop-color="#FFE1CA"/>
</linearGradient>
<linearGradient id="paint3_linear_777_751" x1="149.036" y1="260.651" x2="149.05" y2="2.83672" gradientUnits="userSpaceOnUse">
<stop stop-color="#FB8A4A"/>
<stop offset="0.5" stop-color="#FFC290"/>
<stop offset="1" stop-color="#FFE1CA"/>
</linearGradient>
<linearGradient id="paint4_linear_777_751" x1="149.033" y1="259.669" x2="149.047" y2="3.56398" gradientUnits="userSpaceOnUse">
<stop stop-color="#FB8A4A"/>
<stop offset="0.5" stop-color="#FFC290"/>
<stop offset="1" stop-color="#FFE1CA"/>
</linearGradient>
<linearGradient id="paint5_linear_777_751" x1="149.067" y1="258.678" x2="149.081" y2="4.3161" gradientUnits="userSpaceOnUse">
<stop stop-color="#FB8A4A"/>
<stop offset="0.5" stop-color="#FFC290"/>
<stop offset="1" stop-color="#FFE1CA"/>
</linearGradient>
</defs>
</svg>
