<svg width="222" height="254" viewBox="0 0 222 254" fill="none" xmlns="http://www.w3.org/2000/svg">
<g filter="url(#filter0_d_777_809)">
<path d="M214.02 248.973C216.821 231.977 218.491 214.092 219.326 195.21C219.353 194.295 219.353 193.594 219.326 192.679C219.084 179.4 213.104 168.76 205.966 168.895C204.189 168.922 202.572 169.622 201.064 170.861C198.182 173.231 194.869 174.47 191.26 174.47C180.109 174.47 171.085 161.757 171.085 146.054C171.085 130.351 180.109 117.637 191.26 117.637C194.842 117.637 198.182 118.903 201.064 121.246C202.599 122.486 204.189 123.186 205.966 123.213C213.077 123.347 219.084 112.708 219.326 99.429C219.326 98.4863 219.326 97.5705 219.299 96.6547C218.491 77.9078 216.686 59.942 214.02 42.9729C197.051 45.6395 179.085 47.4441 160.338 48.2791C159.422 48.306 158.507 48.333 157.564 48.306C144.285 48.0636 133.645 42.084 133.78 34.9462C133.807 33.1685 134.507 31.5524 135.746 30.044C138.09 27.1619 139.356 23.8489 139.356 20.2396C139.356 9.08844 126.642 0.0382233 110.939 0.0382233C95.2358 0.0382233 82.5225 9.08844 82.5225 20.2396C82.5225 23.822 83.7884 27.1619 86.1318 30.044C87.3708 31.5793 88.071 33.1685 88.098 34.9462C88.2327 42.084 77.5933 48.0636 64.3143 48.306C63.3715 48.306 62.6712 48.306 61.7823 48.306C42.9277 47.498 24.8543 45.7741 7.85817 42.9729C5.19159 59.942 3.38687 77.9347 2.57882 96.6816C2.55188 97.5974 2.525 98.5132 2.55194 99.4559C2.79436 112.735 8.77394 123.374 15.9118 123.24C17.6895 123.213 19.3056 122.512 20.814 121.273C23.696 118.93 27.0091 117.664 30.5915 117.664C41.7426 117.664 50.7659 130.378 50.7659 146.081C50.7659 161.784 41.7157 174.497 30.5915 174.497C27.0091 174.497 23.696 173.231 20.814 170.888C19.3056 169.649 17.6895 168.949 15.9118 168.922C8.77394 168.787 2.79436 179.426 2.55194 192.705C2.55194 193.648 2.55194 194.349 2.55194 195.237C3.36 214.092 5.05691 232.004 7.85817 249H213.939L214.02 248.973Z" fill="url(#paint0_linear_777_809)"/>
<path d="M213.319 248.326C216.094 231.438 217.764 213.634 218.598 194.887C218.625 193.998 218.625 193.298 218.598 192.355C218.356 179.184 212.619 169.46 206.02 169.568C204.242 169.595 202.626 170.349 201.091 171.588C198.101 174.012 194.572 175.17 190.99 175.17C179.704 175.17 170.385 161.81 170.385 146.026C170.385 130.242 179.596 116.909 190.936 116.909C194.492 116.909 198.047 118.068 201.091 120.492C202.653 121.731 204.242 122.485 206.02 122.512C212.619 122.62 218.356 112.492 218.598 99.1592C218.598 98.2165 218.598 97.3007 218.572 96.3849C217.763 77.5303 215.959 60.5072 213.319 43.6458C196.458 46.2854 178.6 48.0901 159.988 48.8982C159.099 48.9251 158.156 48.952 157.24 48.9251C144.069 48.6827 132.972 42.5415 133.079 35.4575C133.106 33.3835 133.726 31.6597 134.938 30.1244C137.2 27.2154 138.547 24.0909 138.547 20.5085C138.547 9.62669 126.534 0.845825 110.939 0.845825C95.3431 0.845825 83.3301 9.62669 83.3301 20.5085C83.3301 24.0909 84.6499 27.1615 86.9125 30.0974C88.1246 31.6327 88.771 33.4643 88.7979 35.4575C88.9056 42.5415 77.8083 48.7096 64.637 48.952C63.6943 48.952 63.0209 48.952 62.1051 48.952C43.3852 48.144 25.4194 46.4471 8.558 43.6727C5.91835 60.5342 4.11375 77.5841 3.30569 96.4118C3.27876 97.3276 3.25179 98.2434 3.27873 99.1861C3.52115 112.519 9.1237 122.647 15.8575 122.539C17.6352 122.539 19.4668 121.704 20.9752 120.411C23.8572 117.987 27.5742 116.909 31.1297 116.909C42.2 116.909 51.4658 130.242 51.4658 146.026C51.4658 161.81 42.2 175.17 31.1297 175.17C27.5742 175.17 23.7495 174.012 20.8944 171.588C19.386 170.295 17.8237 169.541 16.046 169.514C9.33912 169.406 3.52115 179.184 3.27873 192.355C3.27873 193.271 3.27873 193.971 3.27873 194.887C4.08678 213.634 5.78368 231.438 8.558 248.326H213.265H213.319Z" fill="url(#paint1_linear_777_809)"/>
<path d="M212.616 247.681C215.363 230.9 217.033 213.177 217.841 194.565C217.868 193.676 217.868 192.975 217.841 192.06C217.599 178.969 212.077 170.188 206.044 170.269C204.266 170.269 202.65 171.104 201.087 172.37C197.963 174.875 194.246 175.952 190.691 175.952C179.243 175.952 169.654 161.946 169.654 146.081C169.654 130.216 179.054 116.264 190.583 116.264C194.111 116.264 197.882 117.341 201.087 119.819C202.677 121.058 204.266 121.893 206.044 121.92C212.131 122.001 217.599 112.412 217.841 98.9985C217.841 98.0558 217.841 97.1131 217.814 96.1973C217.006 77.2618 215.228 61.1546 212.589 44.4009C195.835 47.0137 178.112 48.8183 159.607 49.6263C158.718 49.6533 157.803 49.6802 156.887 49.6533C143.796 49.4109 132.268 43.0811 132.349 36.051C132.349 33.7077 132.941 31.8491 134.1 30.2869C136.281 27.324 137.709 24.415 137.709 20.8327C137.709 10.2471 126.396 1.70868 110.908 1.70868C95.4208 1.70868 84.108 10.2471 84.108 20.8327C84.108 24.415 85.4818 27.2432 87.6635 30.2061C88.8217 31.7683 89.4681 33.8154 89.4681 36.0241C89.5489 43.0542 78.0207 49.3839 64.9302 49.6263C64.0144 49.6263 63.314 49.6263 62.4252 49.6263C43.8399 48.8183 26.0088 47.1214 9.22822 44.374C6.6155 61.1277 4.81087 77.2349 4.02975 96.1703C4.00281 97.0861 3.97593 98.0289 4.00287 98.9716C4.24528 112.385 9.4976 122.001 15.8274 121.893C17.6051 121.893 19.6521 120.951 21.1874 119.631C24.0695 117.126 28.1637 116.237 31.6922 116.237C42.6818 116.237 52.1898 130.189 52.1898 146.054C52.1898 161.919 42.6818 175.925 31.6922 175.925C28.1637 175.925 23.8541 174.848 20.999 172.343C19.4906 171.023 17.9553 170.161 16.1775 170.134C9.90164 170.053 4.24528 178.942 4.00287 192.033C4.00287 192.948 4.00287 193.649 4.00287 194.538C4.81092 213.15 6.48083 230.873 9.22822 247.654H212.562L212.616 247.681Z" fill="url(#paint2_linear_777_809)"/>
<path d="M211.947 247.006C214.694 230.36 216.337 212.718 217.145 194.24C217.172 193.351 217.172 192.651 217.145 191.735C216.903 178.726 211.624 170.887 206.129 170.941C204.351 170.941 202.735 171.83 201.146 173.096C197.914 175.655 193.981 176.652 190.453 176.652C178.871 176.652 168.985 161.999 168.985 146.053C168.985 130.108 178.574 115.536 190.291 115.536C193.82 115.536 197.806 116.505 201.173 119.064C202.789 120.303 204.378 121.192 206.156 121.219C211.705 121.273 216.93 112.196 217.172 98.7012C217.172 97.7585 217.172 96.8158 217.145 95.8999C216.337 76.8568 214.587 61.6923 211.974 45.0464C195.355 47.6591 177.739 49.4368 159.37 50.2448C158.481 50.2718 157.565 50.2987 156.649 50.2718C143.639 50.0294 131.68 43.538 131.734 36.5618C131.734 33.9491 132.273 31.9558 133.377 30.3667C135.478 27.3769 136.959 24.6564 136.959 21.101C136.959 10.7848 126.347 2.48877 110.967 2.48877C95.587 2.48877 84.9746 10.7848 84.9746 21.101C84.9746 24.6564 86.4021 27.2422 88.4761 30.259C89.5805 31.8481 90.2 34.1107 90.2269 36.5348C90.2808 43.511 78.2946 50.0294 65.3119 50.2718C64.3961 50.2718 63.6958 50.2718 62.8069 50.2718C44.3294 49.4637 26.633 47.7937 9.96012 45.0464C7.34741 61.6654 5.59659 76.8568 4.78854 95.8999C4.7616 96.8158 4.73472 97.7585 4.76166 98.7012C5.00407 112.196 9.87927 121.273 15.805 121.219C17.5827 121.219 19.8722 120.169 21.3806 118.822C24.2357 116.263 28.7339 115.536 32.2624 115.536C43.1712 115.536 52.9217 130.135 52.9217 146.053C52.9217 161.972 43.1712 176.652 32.2624 176.652C28.7609 176.652 23.9664 175.655 21.1112 173.096C19.6029 171.749 18.1215 170.807 16.3437 170.78C10.4988 170.726 5.00407 178.726 4.76166 191.735C4.76166 192.651 4.76166 193.324 4.76166 194.24C5.56971 212.718 7.21274 230.36 9.96012 247.033H211.92L211.947 247.006Z" fill="url(#paint3_linear_777_809)"/>
<path d="M211.24 246.359C213.96 229.821 215.603 212.259 216.411 193.917C216.438 193.028 216.438 192.354 216.411 191.439C216.169 178.51 211.132 171.614 206.176 171.641C204.398 171.641 202.782 172.584 201.166 173.85C197.799 176.49 193.678 177.405 190.176 177.405C178.433 177.405 168.278 162.106 168.278 146.08C168.278 130.053 178.029 114.862 189.934 114.862C193.436 114.862 197.637 115.751 201.166 118.39C202.809 119.629 204.398 120.599 206.176 120.599C211.213 120.626 216.169 112.061 216.411 98.5122C216.411 97.5695 216.411 96.6268 216.384 95.684C215.603 76.5331 213.825 62.3113 211.24 45.7731C194.728 48.3589 177.221 50.1367 158.985 50.9178C158.097 50.9447 157.208 50.9716 156.292 50.9447C143.39 50.7023 130.973 44.0493 131 37.1C131 34.191 131.458 32.117 132.535 30.5009C134.528 27.4572 136.118 24.9523 136.118 21.3968C136.118 11.35 126.205 3.32333 110.933 3.32333C95.6609 3.32333 85.7487 11.3769 85.7487 21.3968C85.7487 24.9523 87.2302 27.2956 89.2234 30.3393C90.2739 31.9554 90.8664 34.4335 90.8934 37.0731C90.9203 44.0224 78.5032 50.7023 65.5743 50.9447C64.6585 50.9447 63.9851 50.9447 63.0963 50.9447C44.7534 50.1367 27.1648 48.4667 10.6266 45.7462C8.04081 62.2575 6.29002 76.5331 5.48196 95.6571C5.45503 96.5729 5.42806 97.5156 5.455 98.4853C5.69742 112.034 10.2225 120.599 15.7443 120.572C17.522 120.572 20.0269 119.414 21.5353 118.013C24.3904 115.374 29.2657 114.835 32.7673 114.835C43.6222 114.835 53.5881 130.053 53.5881 146.053C53.5881 162.052 43.6222 177.378 32.7673 177.378C29.2657 177.378 24.0134 176.463 21.1582 173.823C19.6499 172.422 18.2223 171.399 16.4446 171.399C11.0306 171.372 5.69742 178.51 5.455 191.412C5.455 192.327 5.455 193.001 5.455 193.89C6.26305 212.259 7.90614 229.794 10.6266 246.359H211.213H211.24Z" fill="url(#paint4_linear_777_809)"/>
<path d="M210.542 245.716C213.236 229.285 214.879 211.831 215.66 193.596C215.687 192.707 215.687 192.034 215.66 191.145C215.418 178.324 210.623 172.344 206.206 172.344C204.428 172.344 202.812 173.341 201.169 174.607C197.694 177.3 193.358 178.135 189.883 178.135C178.005 178.135 167.554 162.19 167.554 146.109C167.554 130.029 177.493 114.191 189.587 114.191C193.061 114.191 197.479 114.972 201.169 117.693C202.839 118.932 204.428 119.955 206.206 119.955C210.731 119.955 215.418 111.929 215.66 98.2995C215.66 97.3298 215.66 96.3871 215.633 95.4713C214.852 76.2395 213.101 62.9336 210.515 46.5301C194.112 49.1158 176.739 50.8666 158.611 51.6478C157.749 51.6747 156.834 51.7016 155.945 51.6747C143.124 51.4323 130.275 44.6177 130.275 37.7223C130.275 34.5439 130.68 32.3352 131.676 30.6922C133.589 27.6216 135.258 25.3051 135.258 21.7497C135.258 11.9992 126.047 4.18799 110.909 4.18799C95.7715 4.18799 86.5327 11.9992 86.5327 21.7497C86.5327 25.3051 88.068 27.4061 89.9804 30.4767C91.004 32.1198 91.5696 34.8133 91.5696 37.6684C91.5696 44.5638 78.6946 51.4053 65.8734 51.6478C64.9576 51.6478 64.2843 51.6478 63.4224 51.6478C45.2142 50.8666 27.7333 49.1967 11.3028 46.5031C8.74399 62.9067 6.99316 76.2395 6.21204 95.4713C6.18511 96.414 6.15823 97.3567 6.18516 98.2995C6.42758 111.929 10.5756 119.955 15.6933 119.955C17.4441 119.955 20.1914 118.689 21.6998 117.262C24.5549 114.568 29.8342 114.191 33.2819 114.191C44.056 114.191 54.2644 130.029 54.2644 146.109C54.2644 162.19 44.056 178.135 33.2819 178.135C29.8073 178.135 24.0701 177.327 21.215 174.607C19.7066 173.179 18.3059 172.075 16.5551 172.075C11.5721 172.075 6.40062 178.324 6.1582 191.172C6.1582 192.088 6.1582 192.761 6.1582 193.623C6.93932 211.858 8.58235 229.339 11.2759 245.77H210.488L210.542 245.716Z" fill="url(#paint5_linear_777_809)"/>
</g>
<defs>
<filter id="filter0_d_777_809" x="0.212351" y="0.0380859" width="221.462" height="253.619" filterUnits="userSpaceOnUse" color-interpolation-filters="sRGB">
<feFlood flood-opacity="0" result="BackgroundImageFix"/>
<feColorMatrix in="SourceAlpha" type="matrix" values="0 0 0 0 0 0 0 0 0 0 0 0 0 0 0 0 0 0 127 0" result="hardAlpha"/>
<feOffset dy="2.32842"/>
<feGaussianBlur stdDeviation="1.16421"/>
<feComposite in2="hardAlpha" operator="out"/>
<feColorMatrix type="matrix" values="0 0 0 0 0 0 0 0 0 0 0 0 0 0 0 0 0 0 0.25 0"/>
<feBlend mode="normal" in2="BackgroundImageFix" result="effect1_dropShadow_777_809"/>
<feBlend mode="normal" in="SourceGraphic" in2="effect1_dropShadow_777_809" result="shape"/>
</filter>
<linearGradient id="paint0_linear_777_809" x1="110.944" y1="249" x2="110.944" y2="0.0382233" gradientUnits="userSpaceOnUse">
<stop stop-color="#F77F5A"/>
<stop offset="1" stop-color="#FFC291"/>
</linearGradient>
<linearGradient id="paint1_linear_777_809" x1="110.943" y1="248.326" x2="110.943" y2="0.84581" gradientUnits="userSpaceOnUse">
<stop stop-color="#F77F5A"/>
<stop offset="1" stop-color="#FFC291"/>
</linearGradient>
<linearGradient id="paint2_linear_777_809" x1="110.927" y1="247.681" x2="110.927" y2="1.70868" gradientUnits="userSpaceOnUse">
<stop stop-color="#F77F5A"/>
<stop offset="1" stop-color="#FFC291"/>
</linearGradient>
<linearGradient id="paint3_linear_777_809" x1="110.961" y1="247.033" x2="110.961" y2="2.48877" gradientUnits="userSpaceOnUse">
<stop stop-color="#F77F5A"/>
<stop offset="1" stop-color="#FFC291"/>
</linearGradient>
<linearGradient id="paint4_linear_777_809" x1="110.938" y1="246.359" x2="110.938" y2="3.32333" gradientUnits="userSpaceOnUse">
<stop stop-color="#F77F5A"/>
<stop offset="1" stop-color="#FFC291"/>
</linearGradient>
<linearGradient id="paint5_linear_777_809" x1="110.919" y1="245.77" x2="110.919" y2="4.18799" gradientUnits="userSpaceOnUse">
<stop stop-color="#F77F5A"/>
<stop offset="1" stop-color="#FFC291"/>
</linearGradient>
</defs>
</svg>
