<svg width="255" height="217" viewBox="0 0 255 217" fill="none" xmlns="http://www.w3.org/2000/svg">
<g filter="url(#filter0_d_777_737)">
<path d="M3.10786 212H209.162C206.495 195.031 204.502 177.227 203.694 158.48C203.667 157.564 203.64 156.648 203.667 155.705C203.91 142.426 209.889 131.787 217.027 131.922C218.805 131.949 220.421 132.649 221.929 133.888C224.811 136.258 228.124 137.497 231.734 137.497C242.885 137.497 251.908 124.784 251.908 109.081C251.908 93.3775 242.885 80.6641 231.734 80.6641C228.151 80.6641 224.811 81.9301 221.929 84.2734C220.421 85.5124 218.805 86.2128 217.027 86.2397C209.889 86.3744 203.91 75.735 203.667 62.4559C203.667 61.5132 203.667 60.8129 203.667 59.8971C204.475 41.0425 206.361 22.969 209.162 5.97287C192.166 3.17162 174.092 1.50163 155.238 0.666641C154.322 0.612778 153.622 0.639709 152.706 0.666641C139.427 0.909058 128.787 6.88867 128.922 14.0265C128.949 15.8042 129.649 17.4203 130.888 18.9287C133.232 21.8107 134.498 25.1238 134.498 28.7331C134.498 39.8842 121.784 48.9345 106.081 48.9345C90.3778 48.9345 77.6644 39.8842 77.6644 28.7331C77.6644 25.1507 78.9304 21.8107 81.2737 18.9287C82.5128 17.3934 83.2131 15.8042 83.24 14.0265C83.3747 6.88867 72.7353 0.909058 59.4562 0.666641C58.5135 0.666641 57.5977 0.666641 56.6819 0.693588C37.935 1.50163 19.9423 3.30629 3.00012 5.97287V212H3.10786Z" fill="url(#paint0_linear_777_737)"/>
<path d="M3.80786 211.354H208.488C205.849 194.492 203.855 176.796 203.047 158.157C203.02 157.268 202.993 156.325 203.02 155.409C203.263 142.238 209.377 131.329 216.434 131.275C218.266 131.275 220.151 131.787 221.794 133.107C224.676 135.396 227.855 136.689 231.437 136.689C242.238 136.689 251.1 124.676 251.1 109.081C251.1 93.4852 242.238 81.4721 231.437 81.4721C227.855 81.4721 224.676 82.7919 221.767 85.0814C220.07 86.4282 218.346 86.94 216.407 86.913C209.35 86.8053 203.236 75.9773 202.993 62.7791C202.993 61.8364 202.993 61.163 202.993 60.2472C203.801 41.5003 205.687 23.5615 208.461 6.67311C191.573 3.89879 173.634 2.22881 154.914 1.39381C154.025 1.33995 153.325 1.36688 152.382 1.39381C139.211 1.63623 129.433 7.45425 129.541 14.1611C129.541 15.9388 130.349 17.5011 131.615 19.0364C134.039 21.9184 135.198 25.7163 135.198 29.2717C135.198 40.3421 121.838 49.6347 106.081 49.6347C90.3236 49.6347 76.9638 40.369 76.9638 29.2717C76.9638 25.7163 78.0412 21.9992 80.4653 19.1172C81.7582 17.6088 82.5394 15.7772 82.5932 13.9995C82.701 7.26569 72.5733 1.66318 59.2404 1.42076C58.2977 1.42076 57.3819 1.42076 56.4661 1.44769C37.6384 2.25575 20.5615 4.06041 3.72705 6.70006V211.354H3.80786Z" fill="url(#paint1_linear_777_737)"/>
<path d="M4.50626 210.706H207.813C205.2 193.952 203.234 176.337 202.426 157.832C202.399 156.943 202.372 156.028 202.399 155.112C202.641 142.021 208.89 130.843 215.893 130.655C217.779 130.601 219.934 130.978 221.711 132.352C224.62 134.587 227.637 135.934 231.193 135.934C241.617 135.934 250.317 124.621 250.317 109.134C250.317 93.6458 241.617 82.333 231.193 82.333C227.61 82.333 224.567 83.6798 221.658 85.9424C219.772 87.3969 217.967 87.7201 215.867 87.6123C208.89 87.2622 202.614 76.2457 202.372 63.1552C202.372 62.2394 202.372 61.5391 202.372 60.6502C203.18 42.038 205.039 24.2069 207.786 7.45326C191.005 4.70589 173.201 3.03592 154.589 2.22786C153.7 2.20093 153 2.20093 152.084 2.22786C138.994 2.47028 130.105 8.12665 130.186 14.4025C130.186 16.1803 131.075 17.6886 132.394 19.2239C134.899 22.106 135.977 26.3887 135.977 29.9172C135.977 40.9337 121.971 50.4418 106.133 50.4418C90.2948 50.4418 76.3154 40.9337 76.3154 29.9172C76.3154 26.3887 77.2043 22.2676 79.7093 19.4125C81.0291 17.9041 81.9449 15.8301 81.9718 14.0524C82.0526 7.72263 72.4637 2.47028 59.05 2.22786C58.1073 2.22786 57.1645 2.22784 56.2487 2.25478C37.3133 3.06284 21.1791 4.84056 4.45239 7.45326V210.706H4.50626Z" fill="url(#paint2_linear_777_737)"/>
<path d="M5.17887 210.033H207.112C204.499 193.387 202.56 175.852 201.752 157.483C201.725 156.594 201.698 155.678 201.725 154.762C201.967 141.753 208.351 130.305 215.273 129.955C217.213 129.847 219.61 130.09 221.549 131.517C224.458 133.672 227.313 135.073 230.896 135.073C240.969 135.073 249.508 124.46 249.508 109.08C249.508 93.7002 240.996 83.0877 230.896 83.0877C227.34 83.0877 224.404 84.4884 221.495 86.6701C219.421 88.2323 217.509 88.394 215.273 88.2054C208.351 87.6398 201.967 76.4078 201.725 63.3981C201.725 62.4823 201.725 61.782 201.725 60.8931C202.533 42.4156 204.364 24.7192 207.112 8.04634C190.466 5.29895 172.743 3.6559 154.265 2.84784C153.376 2.82091 152.676 2.82091 151.76 2.84784C138.75 3.09026 130.751 8.58505 130.805 14.43C130.805 16.2077 131.774 17.6891 133.121 19.1975C135.68 22.0526 136.676 26.8471 136.676 30.3487C136.676 41.2843 122.024 51.0349 106.105 51.0349C90.1863 51.0349 75.5874 41.2843 75.5874 30.3487C75.5874 26.8201 76.3147 22.3489 78.8735 19.4668C80.2203 17.9585 81.2707 15.669 81.2707 13.8913C81.3246 7.96553 72.2474 3.06332 58.7799 2.84784C57.8371 2.84784 56.8944 2.84785 55.9786 2.87479C36.9354 3.68285 21.744 5.43362 5.125 8.04634V210.033H5.17887Z" fill="url(#paint3_linear_777_737)"/>
<path d="M5.88134 209.387H206.441C203.855 192.875 201.916 175.395 201.107 157.159C201.081 156.271 201.054 155.382 201.081 154.466C201.323 141.537 207.814 129.82 214.683 129.308C216.676 129.147 219.343 129.228 221.417 130.736C224.326 132.837 227.046 134.265 230.601 134.265C240.325 134.265 248.675 124.352 248.675 109.08C248.675 93.8079 240.325 83.8958 230.601 83.8958C227.046 83.8958 224.245 85.3503 221.336 87.4781C219.073 89.1481 217.08 89.1212 214.683 88.8788C207.841 88.1246 201.296 76.6502 201.081 63.7213C201.081 62.8055 201.081 62.1321 201.081 61.2433C201.889 42.8735 203.72 25.3118 206.414 8.74663C189.875 6.02617 172.287 4.38313 153.944 3.57507C153.055 3.54814 152.382 3.54814 151.466 3.57507C138.564 3.81749 131.426 9.15065 131.453 14.5646C131.453 16.3423 132.477 17.7699 133.877 19.2783C136.517 22.1334 137.406 27.3858 137.406 30.8873C137.406 41.7422 122.134 51.7082 106.107 51.7082C90.0807 51.7082 74.8893 41.7422 74.8893 30.8873C74.8893 27.3858 75.428 22.5105 78.0676 19.6554C79.4682 18.147 80.5995 15.642 80.6264 13.8643C80.6534 8.34261 72.088 3.81749 58.5396 3.57507C57.5969 3.57507 56.6541 3.57506 55.7114 3.60201C36.5874 4.38312 22.3118 6.16086 5.80054 8.74663V209.387H5.88134Z" fill="url(#paint4_linear_777_737)"/>
<path d="M6.55013 208.738H205.736C203.177 192.335 201.238 174.935 200.456 156.834C200.429 155.945 200.403 155.056 200.429 154.168C200.672 141.346 207.298 129.333 214.113 128.66C216.16 128.471 219.096 128.391 221.304 129.953C224.213 132 226.799 133.481 230.328 133.481C239.701 133.481 247.862 124.27 247.862 109.105C247.862 93.9406 239.674 84.7288 230.328 84.7288C226.772 84.7288 224.079 86.2102 221.196 88.3111C218.745 90.0889 216.644 89.9003 214.086 89.5502C207.325 88.6074 200.645 76.8906 200.403 64.0426C200.403 63.1268 200.403 62.4534 200.403 61.5915C201.184 43.3564 203.015 25.9024 205.709 9.47191C189.278 6.77838 171.824 5.13536 153.589 4.35423C152.7 4.3273 152.027 4.3273 151.138 4.35423C138.317 4.59665 132.068 9.76819 132.068 14.7512C132.068 16.502 133.172 17.9026 134.6 19.411C137.293 22.2661 138.128 28.0033 138.128 31.478C138.128 42.252 122.21 52.4604 106.103 52.4604C89.9953 52.4604 74.1843 42.252 74.1843 31.478C74.1843 28.0033 74.5614 22.724 77.2549 19.8958C78.6825 18.3875 79.9485 15.6401 79.9485 13.8893C79.9485 8.77159 71.9218 4.59665 58.2926 4.35423C57.3229 4.35423 56.3802 4.35422 55.4644 4.38116C36.2327 5.16228 22.8998 6.91307 6.52319 9.47191V208.738H6.55013Z" fill="url(#paint5_linear_777_737)"/>
</g>
<defs>
<filter id="filter0_d_777_737" x="0.671702" y="0.635742" width="253.565" height="216.021" filterUnits="userSpaceOnUse" color-interpolation-filters="sRGB">
<feFlood flood-opacity="0" result="BackgroundImageFix"/>
<feColorMatrix in="SourceAlpha" type="matrix" values="0 0 0 0 0 0 0 0 0 0 0 0 0 0 0 0 0 0 127 0" result="hardAlpha"/>
<feOffset dy="2.32842"/>
<feGaussianBlur stdDeviation="1.16421"/>
<feComposite in2="hardAlpha" operator="out"/>
<feColorMatrix type="matrix" values="0 0 0 0 0 0 0 0 0 0 0 0 0 0 0 0 0 0 0.25 0"/>
<feBlend mode="normal" in2="BackgroundImageFix" result="effect1_dropShadow_777_737"/>
<feBlend mode="normal" in="SourceGraphic" in2="effect1_dropShadow_777_737" result="shape"/>
</filter>
<linearGradient id="paint0_linear_777_737" x1="127.454" y1="212" x2="127.454" y2="0.635544" gradientUnits="userSpaceOnUse">
<stop stop-color="#F77F5A"/>
<stop offset="1" stop-color="#FFC291"/>
</linearGradient>
<linearGradient id="paint1_linear_777_737" x1="127.413" y1="211.354" x2="127.413" y2="1.36273" gradientUnits="userSpaceOnUse">
<stop stop-color="#F77F5A"/>
<stop offset="1" stop-color="#FFC291"/>
</linearGradient>
<linearGradient id="paint2_linear_777_737" x1="127.385" y1="210.706" x2="127.385" y2="2.20766" gradientUnits="userSpaceOnUse">
<stop stop-color="#F77F5A"/>
<stop offset="1" stop-color="#FFC291"/>
</linearGradient>
<linearGradient id="paint3_linear_777_737" x1="127.316" y1="210.033" x2="127.316" y2="2.82765" gradientUnits="userSpaceOnUse">
<stop stop-color="#F77F5A"/>
<stop offset="1" stop-color="#FFC291"/>
</linearGradient>
<linearGradient id="paint4_linear_777_737" x1="127.238" y1="209.387" x2="127.238" y2="3.55489" gradientUnits="userSpaceOnUse">
<stop stop-color="#F77F5A"/>
<stop offset="1" stop-color="#FFC291"/>
</linearGradient>
<linearGradient id="paint5_linear_777_737" x1="127.193" y1="208.738" x2="127.193" y2="4.33403" gradientUnits="userSpaceOnUse">
<stop stop-color="#F77F5A"/>
<stop offset="1" stop-color="#FFC291"/>
</linearGradient>
</defs>
</svg>
