<svg width="295" height="218" viewBox="0 0 295 218" fill="none" xmlns="http://www.w3.org/2000/svg">
<g filter="url(#filter0_d_777_800)">
<path d="M248.798 5.22871C232.077 2.48757 214.287 0.815489 195.757 0.0205585C194.852 -0.00685285 194.167 -0.00685285 193.262 0.0205585C180.215 0.267261 173.855 5.53023 173.855 10.6013C173.855 12.3831 174.979 13.8085 176.432 15.3435C179.173 18.2491 180.023 24.0878 180.023 27.6238C180.023 38.5884 163.823 48.9773 147.431 48.9773C131.039 48.9773 114.948 38.5884 114.948 27.6238C114.948 24.0878 115.304 18.7425 118.073 15.8369C119.526 14.3019 120.814 11.5059 120.814 9.72417C120.814 4.51601 112.618 0.267246 98.7754 0.0479549C97.7886 0.0479549 96.8292 0.0479607 95.8972 0.0753721C76.3255 0.870302 62.7568 2.65204 46.0633 5.25612C48.8044 21.9771 50.504 39.7396 51.2989 58.2972C51.3263 59.2017 51.3263 59.887 51.2989 60.7916C51.0522 73.8394 44.0897 86.9421 37.0724 86.9421C34.1668 86.9421 31.3982 86.3664 29.7535 85.3248C26.6286 83.3786 24.4631 81.8161 20.8722 81.8161C10.9493 81.8161 3 91.1908 3 106.623C3 122.056 10.9493 131.431 20.8722 131.431C24.4905 131.431 26.8205 129.731 29.9728 127.785C31.6175 126.743 33.8927 126.36 37.1272 126.36C44.1445 126.36 51.0796 139.435 51.3263 152.483C51.3263 153.415 51.3263 154.319 51.2989 155.196C50.504 173.644 48.7222 191.325 46.0907 208.018C62.7842 210.622 76.3255 212.404 95.9246 213.226C96.8566 213.254 97.8434 213.281 98.8028 213.254C112.673 213.007 120.842 208.237 120.842 203.632C120.842 201.823 119.8 200.233 118.539 198.506C115.798 194.751 114.976 190.256 114.976 186.72C114.976 174.412 131.093 164.297 147.458 164.297C163.823 164.297 180.05 174.933 180.05 187.048C180.05 190.585 179.228 194.97 176.459 198.534C175.171 200.206 174.157 201.851 174.157 203.66C174.157 208.155 180.242 213.034 193.29 213.281C194.222 213.281 194.907 213.281 195.784 213.281C214.342 212.486 232.104 210.814 248.825 208.073C246.221 191.379 244.248 173.699 243.453 155.251C243.425 154.347 243.398 153.442 243.425 152.538C243.672 139.49 250.415 127.264 257.35 126.606C259.434 126.414 262.421 126.332 264.669 127.922C267.63 130.005 270.261 131.513 273.852 131.513C283.391 131.513 291.724 122.138 291.724 106.706C291.724 91.2731 283.391 81.8984 273.852 81.8984C270.234 81.8984 267.493 83.406 264.559 85.5441C262.065 87.3532 259.927 87.1614 257.323 86.805C250.415 85.8456 243.645 73.9217 243.398 60.8738C243.398 59.9418 243.398 59.2565 243.398 58.3794C244.193 39.8219 246.057 22.0593 248.798 5.33835V5.22871Z" fill="url(#paint0_linear_777_800)"/>
</g>
<defs>
<filter id="filter0_d_777_800" x="0.67158" y="0" width="293.381" height="217.938" filterUnits="userSpaceOnUse" color-interpolation-filters="sRGB">
<feFlood flood-opacity="0" result="BackgroundImageFix"/>
<feColorMatrix in="SourceAlpha" type="matrix" values="0 0 0 0 0 0 0 0 0 0 0 0 0 0 0 0 0 0 127 0" result="hardAlpha"/>
<feOffset dy="2.32842"/>
<feGaussianBlur stdDeviation="1.16421"/>
<feComposite in2="hardAlpha" operator="out"/>
<feColorMatrix type="matrix" values="0 0 0 0 0 0 0 0 0 0 0 0 0 0 0 0 0 0 0.25 0"/>
<feBlend mode="normal" in2="BackgroundImageFix" result="effect1_dropShadow_777_800"/>
<feBlend mode="normal" in="SourceGraphic" in2="effect1_dropShadow_777_800" result="shape"/>
</filter>
<linearGradient id="paint0_linear_777_800" x1="-67.5349" y1="106.601" x2="291.724" y2="106.637" gradientUnits="userSpaceOnUse">
<stop stop-color="#FB8A4A"/>
<stop offset="0.5" stop-color="#FFC290"/>
<stop offset="1" stop-color="#FFE1CA"/>
</linearGradient>
</defs>
</svg>
