<svg width="223" height="254" viewBox="0 0 223 254" fill="none" xmlns="http://www.w3.org/2000/svg">
<g filter="url(#filter0_d_777_772)">
<path d="M215.126 248.973C217.927 231.977 219.786 214.065 220.621 195.21C220.647 194.295 220.674 193.594 220.621 192.679C220.378 179.4 214.398 168.76 207.288 168.895C205.51 168.922 203.894 169.622 202.385 170.861C199.503 173.204 195.786 174.47 192.204 174.47C181.053 174.47 172.433 161.757 172.433 146.054C172.433 130.351 181.484 117.637 192.635 117.637C196.217 117.637 199.557 118.903 202.412 121.246C203.948 122.486 205.537 123.186 207.315 123.213C214.452 123.347 220.432 112.708 220.674 99.429C220.674 98.4863 220.674 97.5705 220.647 96.6547C219.839 77.9078 217.819 60.777 215.18 43.8079C198.21 46.4745 179.571 48.2522 160.851 49.0872C159.936 49.1141 159.02 49.141 158.077 49.1141C144.798 48.8717 134.832 42.8651 134.967 35.7273C134.994 33.9496 135.694 32.3335 136.933 30.8251C139.276 27.9431 140.542 24.63 140.542 21.0207C140.542 9.86957 127.075 0.0382233 111.398 0.0382233C95.7221 0.0382233 82.9817 9.08844 82.9817 20.2396C82.9817 23.822 84.2477 27.1619 86.5911 30.044C87.8301 31.5793 88.5303 33.1685 88.5573 34.9462C88.692 42.084 78.0527 48.0636 64.7736 48.306C63.8309 48.306 63.1306 48.306 62.2417 48.306C43.3871 47.498 25.3136 45.7741 8.31747 42.9729C5.65088 59.942 3.84617 77.9347 3.03811 96.6816C3.01118 97.5974 2.98422 98.5132 3.01115 99.4559C3.25357 112.735 9.23323 123.374 16.3711 123.24C18.1488 123.213 19.7649 122.512 21.2733 121.273C24.1553 118.93 27.4684 117.664 31.0508 117.664C42.2019 117.664 51.2252 130.378 51.2252 146.081C51.2252 161.784 42.2019 174.497 31.0508 174.497C27.4684 174.497 24.1284 173.231 21.2733 170.888C19.738 169.649 18.1488 168.949 16.3711 168.922C9.23323 168.787 3.25357 179.426 3.01115 192.705C3.01115 193.648 3.01115 194.349 3.01115 195.237C3.81921 214.092 5.51621 232.004 8.31747 249H215.126V248.973Z" fill="url(#paint0_linear_777_772)"/>
<path d="M214.288 248.326C217.062 231.437 218.894 213.633 219.702 194.886C219.729 193.997 219.729 193.297 219.702 192.354C219.459 179.183 213.722 169.459 207.123 169.567C205.345 169.594 203.729 170.348 202.194 171.587C199.204 174.011 195.352 175.17 191.77 175.17C180.484 175.17 171.488 161.81 171.488 146.026C171.488 130.242 180.7 116.909 192.039 116.909C195.595 116.909 199.15 118.067 202.194 120.491C203.756 121.73 205.345 122.484 207.123 122.511C213.722 122.619 219.459 112.492 219.702 99.1586C219.702 98.2159 219.702 97.3001 219.675 96.3843C218.867 77.5297 216.9 61.18 214.261 44.3186C197.399 46.9583 179.029 48.736 160.417 49.571C159.528 49.5979 158.586 49.6249 157.67 49.5979C144.499 49.3555 133.94 43.1873 134.048 36.1034C134.075 34.0294 134.721 32.3055 135.906 30.7702C138.169 27.8612 139.516 24.7367 139.516 21.1544C139.516 10.2726 126.91 0.872192 111.315 0.872192C95.7191 0.872192 83.706 9.65306 83.706 20.5349C83.706 24.1172 85.0259 27.1879 87.2884 30.1238C88.5005 31.6591 89.147 33.4907 89.1739 35.4839C89.2816 42.5678 78.1843 48.736 65.013 48.9784C64.0702 48.9784 63.3969 48.9784 62.4811 48.9784C43.7611 48.1703 25.7953 46.4734 8.93393 43.6991C6.29428 60.5605 4.48959 77.6105 3.68154 96.4382C3.6546 97.354 3.62781 98.2698 3.65474 99.2125C3.89716 112.545 9.49963 122.673 16.2334 122.565C18.0111 122.538 19.8426 121.73 21.351 120.437C24.2331 118.013 27.9502 116.936 31.5056 116.936C42.576 116.936 51.8416 130.269 51.8416 146.053C51.8416 161.837 42.576 175.197 31.5056 175.197C27.9502 175.197 24.1254 174.038 21.2703 171.614C19.7619 170.321 18.1997 169.567 16.422 169.54C9.71513 169.432 3.89716 179.21 3.65474 192.381C3.65474 193.324 3.65474 193.997 3.65474 194.913C4.4628 213.66 6.15961 231.464 8.93393 248.353H214.234L214.288 248.326Z" fill="url(#paint1_linear_777_772)"/>
<path d="M213.459 247.652C216.207 230.872 217.985 213.148 218.793 194.536C218.82 193.647 218.82 192.947 218.793 192.031C218.55 178.941 213.055 170.16 206.995 170.241C205.217 170.241 203.601 171.076 202.039 172.315C198.914 174.82 194.955 175.897 191.399 175.897C179.952 175.897 170.606 161.891 170.606 146.026C170.606 130.161 180.006 116.209 191.534 116.209C195.063 116.209 198.834 117.286 202.039 119.764C203.628 121.003 205.217 121.838 206.995 121.865C213.082 121.946 218.55 112.357 218.793 98.9433C218.793 98.0005 218.793 97.0578 218.766 96.142C217.958 77.2066 216.072 61.5842 213.433 44.8574C196.679 47.4701 178.551 49.2478 160.074 50.0559C159.185 50.0828 158.269 50.1098 157.354 50.0828C144.263 49.8404 133.139 43.5107 133.22 36.4806C133.22 34.1372 133.812 32.2787 134.97 30.7164C137.152 27.7536 138.58 24.8446 138.58 21.2622C138.58 10.6767 126.809 1.6534 111.348 1.6534C95.8875 1.6534 84.5477 10.1918 84.5477 20.7774C84.5477 24.3597 85.9214 27.1879 88.1032 30.1508C89.2614 31.713 89.9078 33.7601 89.9078 35.9688C89.9886 42.9989 78.4604 49.3287 65.3699 49.5711C64.4541 49.5711 63.7538 49.5711 62.8649 49.5711C44.2797 48.763 26.4486 47.0661 9.66798 44.3187C7.05527 61.0724 5.25063 77.1796 4.46951 96.1151C4.44257 97.0309 4.41561 97.9736 4.44255 98.9163C4.68496 112.33 9.93736 121.946 16.2671 121.838C18.0448 121.838 20.0919 120.895 21.6272 119.576C24.4823 117.071 28.6033 116.182 32.1318 116.182C43.1214 116.182 52.6296 130.134 52.6296 145.999C52.6296 161.864 43.1214 175.87 32.1318 175.87C28.6033 175.87 24.2938 174.793 21.4386 172.288C19.9303 170.968 18.395 170.106 16.6173 170.079C10.3414 169.998 4.68496 178.887 4.44255 191.977C4.44255 192.893 4.44255 193.593 4.44255 194.482C5.2506 213.095 6.92059 230.818 9.66798 247.598H213.433L213.459 247.652Z" fill="url(#paint2_linear_777_772)"/>
<path d="M212.622 247.006C215.37 230.36 217.093 212.717 217.902 194.213C217.928 193.324 217.928 192.624 217.902 191.708C217.659 178.698 212.38 170.86 206.885 170.914C205.107 170.914 203.491 171.803 201.902 173.069C198.67 175.628 194.576 176.624 191.047 176.624C179.465 176.624 169.741 161.972 169.741 146.026C169.741 130.08 179.33 115.508 191.047 115.508C194.576 115.508 198.535 116.478 201.902 119.037C203.518 120.276 205.107 121.165 206.885 121.192C212.434 121.246 217.659 112.168 217.902 98.6739C217.902 97.7312 217.901 96.7884 217.875 95.8726C217.066 76.8295 215.235 61.9882 212.622 45.3692C196.003 47.9819 178.118 49.7596 159.748 50.5408C158.86 50.5677 157.944 50.5946 157.028 50.5677C144.018 50.3253 132.328 43.8339 132.382 36.8307C132.382 34.218 132.921 32.2249 134.025 30.6357C136.126 27.6459 137.608 24.9254 137.608 21.37C137.608 11.0538 126.699 2.46149 111.319 2.46149C95.939 2.46149 85.3265 10.7575 85.3265 21.0737C85.3265 24.6291 86.7542 27.2149 88.8282 30.2316C89.9326 31.8208 90.552 34.0834 90.5789 36.5075C90.6328 43.4837 78.6466 50.0021 65.6639 50.2445C64.7481 50.2445 64.0478 50.2445 63.1589 50.2445C44.6814 49.4364 26.985 47.7664 10.3122 45.019C7.69945 61.638 5.94871 76.8295 5.14065 95.8726C5.11372 96.7884 5.08676 97.7312 5.11369 98.6739C5.35611 112.168 10.2313 121.246 16.157 121.192C17.9348 121.192 20.2243 120.141 21.7326 118.794C24.5878 116.236 29.086 115.508 32.6146 115.508C43.5502 115.508 53.2738 130.107 53.2738 146.026C53.2738 161.945 43.5233 176.624 32.6146 176.624C29.113 176.624 24.3185 175.628 21.4634 173.069C19.955 171.722 18.4735 170.779 16.6958 170.752C10.8508 170.699 5.35611 178.698 5.11369 191.708C5.11369 192.624 5.11369 193.297 5.11369 194.213C5.92175 212.69 7.56477 230.333 10.3122 247.006H212.568H212.622Z" fill="url(#paint3_linear_777_772)"/>
<path d="M211.782 246.36C214.503 229.822 216.173 212.26 216.981 193.917C217.008 193.028 217.008 192.355 216.981 191.439C216.738 178.51 211.702 171.615 206.746 171.642C204.968 171.642 203.352 172.584 201.736 173.85C198.369 176.49 194.167 177.406 190.665 177.406C178.922 177.406 168.848 162.107 168.848 146.08C168.848 130.054 178.598 114.862 190.504 114.862C194.005 114.862 198.207 115.751 201.736 118.391C203.379 119.63 204.968 120.599 206.746 120.599C211.782 120.626 216.738 112.061 216.981 98.5126C216.981 97.5699 216.981 96.6272 216.954 95.6844C216.173 76.5335 214.368 62.4734 211.782 45.9621C195.271 48.5479 177.629 50.3256 159.393 51.1067C158.505 51.1337 157.616 51.1606 156.7 51.1337C143.771 50.8913 131.516 44.2383 131.543 37.289C131.543 34.38 132 32.306 133.078 30.6899C135.071 27.6462 136.66 25.1412 136.66 21.5858C136.66 11.539 126.613 3.35068 111.341 3.35068C96.0689 3.35068 86.1569 11.4043 86.1569 21.4242C86.1569 24.9796 87.6382 27.323 89.6315 30.3666C90.6819 31.9828 91.2745 34.4608 91.3014 37.1004C91.3284 44.0497 78.9112 50.7296 65.9823 50.9721C65.0665 50.9721 64.3932 50.9721 63.5043 50.9721C45.1614 50.164 27.5728 48.494 11.0346 45.7736C8.44885 62.2848 6.69797 76.5605 5.88992 95.6844C5.86298 96.6002 5.83602 97.543 5.86296 98.5126C6.10537 112.061 10.6305 120.626 16.1522 120.599C17.9299 120.599 20.435 119.441 21.9433 118.041C24.7985 115.401 29.6737 114.862 33.1753 114.862C44.0301 114.862 53.9963 130.081 53.9963 146.08C53.9963 162.08 44.0301 177.406 33.1753 177.406C29.6737 177.406 24.4213 176.49 21.5662 173.85C20.0578 172.45 18.6303 171.426 16.8526 171.426C11.4386 171.399 6.10537 178.537 5.86296 191.439C5.86296 192.355 5.86296 193.028 5.86296 193.917C6.67101 212.287 8.31418 229.822 11.0346 246.387H211.755L211.782 246.36Z" fill="url(#paint4_linear_777_772)"/>
<path d="M210.918 245.684C213.612 229.254 215.255 211.8 216.036 193.565C216.063 192.676 216.063 192.003 216.036 191.114C215.793 178.293 210.999 172.313 206.581 172.313C204.831 172.313 203.188 173.31 201.545 174.576C198.07 177.269 193.733 178.104 190.259 178.104C178.353 178.104 167.903 162.158 167.903 146.078C167.903 129.998 177.842 114.16 189.936 114.16C193.41 114.16 197.828 114.941 201.518 117.662C203.188 118.901 204.777 119.924 206.555 119.924C211.08 119.924 215.766 111.897 216.009 98.2682C216.009 97.2986 216.009 96.3558 215.982 95.44C215.201 76.2083 213.45 62.9023 210.891 46.4988C194.488 49.0846 177.114 50.8354 158.987 51.6165C158.125 51.6434 157.209 51.6704 156.321 51.6434C143.499 51.401 130.651 44.5864 130.651 37.691C130.651 34.5127 131.055 32.304 132.052 30.6609C133.964 27.5903 135.634 25.2739 135.634 21.7185C135.634 11.9679 126.422 4.15674 111.285 4.15674C96.1473 4.15674 86.9085 11.9679 86.9085 21.7185C86.9085 25.2739 88.4439 27.3749 90.3563 30.4455C91.3799 32.0885 91.9454 34.782 91.9454 37.6372C91.9454 44.5326 79.0705 51.3741 66.2493 51.6165C65.3335 51.6165 64.6601 51.6165 63.7981 51.6165C45.59 50.8354 28.1091 49.1654 11.6786 46.4719C9.1198 62.8754 7.36898 76.2083 6.58786 95.44C6.56092 96.3828 6.53396 97.3255 6.5609 98.2682C6.80331 111.897 10.9514 119.924 16.0691 119.924C17.8199 119.924 20.5672 118.658 22.0756 117.231C24.9307 114.537 30.21 114.16 33.6577 114.16C44.4317 114.16 54.6403 129.998 54.6403 146.078C54.6403 162.158 44.4317 178.104 33.6577 178.104C30.183 178.104 24.4459 177.269 21.5908 174.576C20.0824 173.148 18.6818 172.044 16.931 172.044C11.948 172.044 6.77635 178.293 6.53394 191.141C6.53394 192.056 6.53394 192.73 6.53394 193.592C7.31506 211.827 8.95817 229.308 11.6517 245.738H210.864L210.918 245.684Z" fill="url(#paint5_linear_777_772)"/>
</g>
<defs>
<filter id="filter0_d_777_772" x="0.67158" y="0.0380859" width="222.331" height="253.619" filterUnits="userSpaceOnUse" color-interpolation-filters="sRGB">
<feFlood flood-opacity="0" result="BackgroundImageFix"/>
<feColorMatrix in="SourceAlpha" type="matrix" values="0 0 0 0 0 0 0 0 0 0 0 0 0 0 0 0 0 0 127 0" result="hardAlpha"/>
<feOffset dy="2.32842"/>
<feGaussianBlur stdDeviation="1.16421"/>
<feComposite in2="hardAlpha" operator="out"/>
<feColorMatrix type="matrix" values="0 0 0 0 0 0 0 0 0 0 0 0 0 0 0 0 0 0 0.25 0"/>
<feBlend mode="normal" in2="BackgroundImageFix" result="effect1_dropShadow_777_772"/>
<feBlend mode="normal" in="SourceGraphic" in2="effect1_dropShadow_777_772" result="shape"/>
</filter>
<linearGradient id="paint0_linear_777_772" x1="111.837" y1="249" x2="111.837" y2="0.0382233" gradientUnits="userSpaceOnUse">
<stop stop-color="#6F56B4"/>
<stop offset="1" stop-color="#493187"/>
</linearGradient>
<linearGradient id="paint1_linear_777_772" x1="111.683" y1="248.353" x2="111.683" y2="0.872192" gradientUnits="userSpaceOnUse">
<stop stop-color="#6F56B4"/>
<stop offset="1" stop-color="#493187"/>
</linearGradient>
<linearGradient id="paint2_linear_777_772" x1="111.622" y1="247.652" x2="111.622" y2="1.6534" gradientUnits="userSpaceOnUse">
<stop stop-color="#6F56B4"/>
<stop offset="1" stop-color="#493187"/>
</linearGradient>
<linearGradient id="paint3_linear_777_772" x1="111.512" y1="247.006" x2="111.512" y2="2.46149" gradientUnits="userSpaceOnUse">
<stop stop-color="#6F56B4"/>
<stop offset="1" stop-color="#493187"/>
</linearGradient>
<linearGradient id="paint4_linear_777_772" x1="111.426" y1="246.387" x2="111.426" y2="3.35068" gradientUnits="userSpaceOnUse">
<stop stop-color="#6F56B4"/>
<stop offset="1" stop-color="#493187"/>
</linearGradient>
<linearGradient id="paint5_linear_777_772" x1="111.295" y1="245.738" x2="111.295" y2="4.15674" gradientUnits="userSpaceOnUse">
<stop stop-color="#6F56B4"/>
<stop offset="1" stop-color="#493187"/>
</linearGradient>
</defs>
</svg>
