<svg width="114" height="153" viewBox="0 0 114 153" fill="none" xmlns="http://www.w3.org/2000/svg">
<g filter="url(#filter0_d_1414_1310)">
<path d="M4.11333 128.087C2.69056 119.408 1.82269 110.174 1.41008 100.557C1.39586 100.087 1.39586 99.7313 1.41008 99.2618C1.53813 92.4895 4.26983 89.1887 6.90194 89.1887C7.82674 89.1887 8.56658 89.772 9.36333 90.5261C10.8715 91.9488 13.9019 92.3899 15.7373 92.3899C21.4284 92.3899 26.8206 83.9813 26.8206 75.4732C26.8206 66.9651 21.4284 58.6135 15.7373 58.6135C13.9019 58.6135 11.1276 58.7984 9.61943 60.2354C8.82268 60.9895 7.37145 61.6582 6.44666 61.6582C3.74341 61.6582 1.53813 57.4041 1.4243 50.2192C1.4243 49.707 1.42431 49.209 1.43854 48.7253C1.85114 38.5668 2.77593 31.5241 4.12756 22.8594C12.8064 24.2822 22.0259 25.1643 31.658 25.5769C32.1275 25.5911 32.4832 25.5911 32.9527 25.5769C39.7251 25.4489 46.5259 21.835 46.5259 18.1928C46.5259 16.6846 46.2271 15.2477 45.6865 14.394C44.6763 12.772 43.8653 11.6481 43.8653 9.78424C43.8653 4.63383 48.7312 0.507813 56.7414 0.507813C64.7515 0.507813 69.6174 4.63383 69.6174 9.78424C69.6174 11.6623 68.7352 12.8716 67.7251 14.5078C67.1844 15.3615 66.9852 16.5424 66.9852 18.2212C66.9852 21.8635 73.7718 25.4631 80.5442 25.5911C81.0279 25.5911 81.4974 25.5911 81.9527 25.5769C91.5279 25.1643 100.705 24.2395 109.369 22.8737C110.721 31.5383 111.646 38.5667 112.073 48.7395C112.087 49.2232 112.101 49.7354 112.087 50.2334C111.959 57.4326 109.483 61.6724 107.093 61.6724C106.154 61.6724 105.329 61.1318 104.432 60.4773C102.483 59.0545 100.15 58.6277 98.3145 58.6277C91.9263 58.6277 86.6763 66.9936 86.6763 75.4875C86.6763 83.9814 92.1966 92.4041 98.4852 92.4041C100.321 92.4041 102.597 91.9773 104.447 90.5403C105.314 89.8716 106.168 89.3452 107.107 89.3452C109.44 89.3452 111.973 92.5037 112.101 99.2761C112.101 99.7598 112.101 100.115 112.101 100.571C111.688 110.203 110.821 119.422 109.398 128.101C100.733 126.75 91.5564 125.725 81.9812 125.313C81.5116 125.298 81.0421 125.284 80.5726 125.298C73.8003 125.426 67.4547 128.926 67.1133 132.526C67.0137 133.607 66.971 135.158 67.7962 136.325C68.8775 137.861 69.66 139.227 69.66 141.091C69.66 146.042 64.7942 150.367 56.784 150.367C48.7739 150.367 43.908 146.042 43.908 141.091C43.908 139.213 44.6905 137.79 45.8003 136.268C46.7393 134.973 46.6397 133.863 46.4548 132.512C45.9568 128.926 39.7678 125.412 32.9954 125.284C32.5117 125.284 32.156 125.284 31.7007 125.284C22.0686 125.697 12.8491 126.664 4.17024 128.087H4.11333Z" fill="url(#paint0_linear_1414_1310)"/>
</g>
<defs>
<filter id="filter0_d_1414_1310" x="0.190868" y="0.507812" width="113.119" height="152.277" filterUnits="userSpaceOnUse" color-interpolation-filters="sRGB">
<feFlood flood-opacity="0" result="BackgroundImageFix"/>
<feColorMatrix in="SourceAlpha" type="matrix" values="0 0 0 0 0 0 0 0 0 0 0 0 0 0 0 0 0 0 127 0" result="hardAlpha"/>
<feOffset dy="1.20855"/>
<feGaussianBlur stdDeviation="0.604273"/>
<feComposite in2="hardAlpha" operator="out"/>
<feColorMatrix type="matrix" values="0 0 0 0 0 0 0 0 0 0 0 0 0 0 0 0 0 0 0.25 0"/>
<feBlend mode="normal" in2="BackgroundImageFix" result="effect1_dropShadow_1414_1310"/>
<feBlend mode="normal" in="SourceGraphic" in2="effect1_dropShadow_1414_1310" result="shape"/>
</filter>
<linearGradient id="paint0_linear_1414_1310" x1="1.39941" y1="75.4376" x2="112.101" y2="75.4376" gradientUnits="userSpaceOnUse">
<stop stop-color="#435ECF"/>
<stop offset="0.355" stop-color="#E24BB3"/>
<stop offset="1" stop-color="#FF9433"/>
</linearGradient>
</defs>
</svg>
