<svg width="155" height="115" viewBox="0 0 155 115" fill="none" xmlns="http://www.w3.org/2000/svg">
<path d="M131.379 112.556C129.916 103.705 128.894 94.4182 128.384 84.6256C128.351 84.1479 128.347 83.6702 128.356 83.1785C128.416 76.2521 131.455 70.7025 135.147 70.7727C136.066 70.7868 136.905 71.1521 137.692 71.7983C139.194 73.0207 140.913 73.681 142.78 73.681C148.546 73.681 153.149 67.0496 153.071 58.8587C152.994 50.6678 148.251 44.0364 142.498 44.0364C140.646 44.0364 138.939 44.6967 137.446 45.919C136.658 46.5653 135.84 46.9306 134.921 46.9446C131.23 47.0149 128.086 41.4653 127.895 34.5389C127.89 34.0471 127.886 33.6818 127.882 33.2042C128.206 23.3695 129.008 13.9422 130.373 5.07691C121.585 3.68601 112.285 2.74469 102.587 2.3232C102.113 2.30915 101.64 2.2951 101.152 2.30915C94.2867 2.43559 88.8144 5.5546 88.9194 9.27773C88.9421 10.205 89.3123 11.048 89.9605 11.8348C91.1865 13.3381 91.8575 15.0662 91.8754 16.9488C91.9306 22.7653 85.4011 27.486 77.2807 27.486C69.1603 27.486 62.5552 22.7653 62.5 16.9488C62.4823 15.0802 63.1203 13.3381 64.3179 11.8348C64.951 11.0339 65.3053 10.205 65.3104 9.27773C65.3448 5.5546 59.8133 2.43559 52.9453 2.30915C52.4578 2.30915 52.0957 2.30915 51.636 2.30915C41.89 2.73063 32.5523 3.61576 23.7772 5.07691C25.3099 13.9422 26.3604 23.3695 26.8855 33.2042C26.904 33.6818 26.9074 34.0471 26.8982 34.5389C26.8385 41.4653 23.799 47.0149 20.1072 46.9446C19.1878 46.9306 18.3486 46.5653 17.5625 45.919C16.0605 44.6967 14.341 44.0364 12.4885 44.0364C6.72209 44.0364 2.11893 50.6678 2.19663 58.8587C2.27434 67.0496 7.01725 73.681 12.7698 73.681C14.6223 73.681 16.3292 73.0207 17.808 71.7983C18.5958 71.1521 19.4141 70.7868 20.3333 70.7727C24.0237 70.7025 27.1685 76.2521 27.3596 83.1785C27.3643 83.6702 27.3688 84.1479 27.3594 84.6256C27.0343 94.4041 26.0918 103.705 24.7968 112.556L131.351 112.556H131.379Z" stroke="url(#paint0_linear_1624_1876)" stroke-width="3"/>
<defs>
<linearGradient id="paint0_linear_1624_1876" x1="153.058" y1="57.4297" x2="2.19666" y2="58.8609" gradientUnits="userSpaceOnUse">
<stop stop-color="#FD874E"/>
<stop offset="1" stop-color="#964F30"/>
</linearGradient>
</defs>
</svg>
