<svg width="160" height="112" viewBox="0 0 160 112" fill="none" xmlns="http://www.w3.org/2000/svg">
<path d="M131.556 33.0379L131.556 33.0522C131.708 36.7262 132.682 40.1092 134.21 42.6156C135.71 45.0744 137.954 46.9838 140.681 46.9368M131.556 33.0379L26.4121 33.0236C26.4333 39.9545 23.2912 45.5076 19.3922 45.4373L19.4037 46.9368C19.4028 46.9368 19.4019 46.9367 19.401 46.9367C18.0379 46.9163 16.8365 46.3956 15.7949 45.5924C14.4426 44.5602 12.9424 44.0268 11.3454 44.0268C8.88486 44.0268 6.57012 45.364 4.8413 47.7635C3.11232 50.1632 2.04057 53.55 2.12496 57.359C2.20933 61.1669 3.43426 64.5537 5.27159 66.9539C7.10927 69.3546 9.48363 70.6911 11.9362 70.6911C13.5345 70.6911 15.0122 70.1569 16.3196 69.1229L16.3238 69.1196C17.3329 68.3277 18.4936 67.8016 19.8633 67.7812C22.5911 67.7334 24.8357 69.6431 26.3356 72.1023C27.8643 74.6088 28.838 77.9918 28.9895 81.6657L28.9901 81.68L28.9904 81.6943L28.9906 81.7041C29.0014 82.1891 29.0124 82.6869 29.0081 83.1885L29.008 83.1992L29.0078 83.2099C28.7965 92.4223 28.0062 101.209 26.8691 109.591H135.89C134.392 101.205 133.304 92.434 132.684 83.2219C132.64 82.6907 132.63 82.1709 132.633 81.6577C132.623 77.9868 133.447 74.6069 134.864 72.1023C136.255 69.643 138.415 67.7332 141.145 67.7812C142.508 67.8016 143.709 68.3223 144.751 69.1255C146.102 70.1569 147.602 70.6911 149.215 70.6911C151.676 70.6911 153.99 69.3539 155.719 66.9544C157.448 64.5547 158.52 61.1679 158.436 57.359C158.351 53.551 157.126 50.1642 155.289 47.764C153.451 45.3634 151.077 44.0268 148.624 44.0268C147.027 44.0268 145.547 44.5606 144.221 45.5991C143.212 46.3909 142.051 46.9167 140.681 46.9368M131.556 33.0379L131.555 33.0236L131.555 33.0207L131.555 33.0178L131.555 33.0149L131.555 33.0121L131.555 33.0092L131.555 33.0063L131.555 33.0035L131.555 33.0006L131.555 32.9977L131.555 32.9949L131.555 32.992L131.555 32.9892L131.555 32.9863L131.555 32.9835L131.554 32.9807L131.554 32.9778L131.554 32.975L131.554 32.9721L131.554 32.9693L131.554 32.9665L131.554 32.9637L131.554 32.9608L131.554 32.958L131.554 32.9552L131.554 32.9524L131.554 32.9496L131.554 32.9468L131.554 32.9439L131.554 32.9411L131.554 32.9383L131.553 32.9355L131.553 32.9327L131.553 32.9299L131.553 32.9272L131.553 32.9244L131.553 32.9216L131.553 32.9188L131.553 32.916L131.553 32.9132L131.553 32.9105L131.553 32.9077L131.553 32.9049L131.553 32.9021L131.553 32.8994L131.553 32.8966L131.553 32.8938L131.552 32.8911L131.552 32.8883L131.552 32.8856L131.552 32.8828L131.552 32.8801L131.552 32.8773L131.552 32.8746L131.552 32.8718L131.552 32.8691L131.552 32.8663L131.552 32.8636L131.552 32.8609L131.552 32.8581L131.552 32.8554L131.552 32.8527L131.552 32.85L131.552 32.8472L131.551 32.8445L131.551 32.8418L131.551 32.8391L131.551 32.8364L131.551 32.8337L131.551 32.8309L131.551 32.8282L131.551 32.8255L131.551 32.8228L131.551 32.8201L131.551 32.8174L131.551 32.8147L131.551 32.812L131.551 32.8093L131.551 32.8067L131.551 32.804L131.55 32.8013L131.55 32.7986L131.55 32.7959L131.55 32.7932L131.55 32.7906L131.55 32.7879L131.55 32.7852L131.55 32.7825L131.55 32.7799L131.55 32.7772L131.55 32.7745L131.55 32.7719L131.55 32.7692L131.55 32.7665L131.55 32.7639L131.55 32.7612L131.55 32.7586L131.549 32.7559L131.549 32.7533L131.549 32.7506L131.549 32.748L131.549 32.7453L131.549 32.7427L131.549 32.74L131.549 32.7374L131.549 32.7348L131.549 32.7321L131.549 32.7295L131.549 32.7268L131.549 32.7242L131.549 32.7216L131.549 32.719L131.549 32.7163L131.549 32.7137L131.549 32.7111L131.548 32.7085L131.548 32.7058L131.548 32.7032L131.548 32.7006L131.548 32.698L131.548 32.6954L131.548 32.6928L131.548 32.6902L131.548 32.6876L131.548 32.6849L131.548 32.6823L131.548 32.6797L131.548 32.6771L131.548 32.6745L131.548 32.6719L131.548 32.6693L131.548 32.6667L131.547 32.6641L131.547 32.6615L131.547 32.659L131.547 32.6564L131.547 32.6538L131.547 32.6512L131.547 32.6486L131.547 32.646L131.547 32.6434L131.547 32.6409L131.547 32.6383L131.547 32.6357L131.547 32.6331L131.547 32.6305L131.547 32.628L131.547 32.6254L131.547 32.6228L131.546 32.6203L131.546 32.6177L131.546 32.6151L131.546 32.6126L131.546 32.61L131.546 32.6074L131.546 32.6049L131.546 32.6023L131.546 32.5997L131.546 32.5972L131.546 32.5946L131.546 32.5921L131.546 32.5895L131.546 32.5869L131.546 32.5844L131.546 32.5818L131.546 32.5793L131.546 32.5767L131.545 32.5742L131.545 32.5716L131.545 32.5691L131.545 32.5665L131.545 32.564L131.545 32.5615L131.545 32.5589L131.545 32.5564L131.545 32.5538L131.545 32.5513L131.545 32.5488L131.545 32.5462L131.545 32.5437L131.545 32.5411L131.545 32.5386L131.545 32.5361L131.545 32.5335L131.545 32.531L131.544 32.5285L131.544 32.526L131.544 32.5234L131.544 32.5209L131.544 32.5184L131.544 32.5158L131.544 32.5133L131.544 32.5108L131.544 32.5083L131.544 32.5057L131.544 32.5032L131.544 32.5007L131.544 32.4982L131.544 32.4957L131.544 32.4931L131.544 32.4906L131.544 32.4881L131.544 32.4856L131.543 32.4831L131.543 32.4806L131.543 32.4781L131.543 32.4755L131.543 32.473L131.543 32.4705L131.543 32.468L131.543 32.4655L131.543 32.463L131.543 32.4605L131.543 32.458L131.543 32.4555L131.543 32.4529L131.543 32.4504L131.543 32.4479L131.543 32.4454L131.543 32.4429L131.543 32.4404L131.542 32.4379L131.542 32.4354L131.542 32.4329L131.542 32.4304L131.542 32.4279L131.542 32.4254L131.542 32.4229L131.542 32.4204L131.542 32.4179L131.542 32.4154L131.542 32.4129L131.542 32.4104L131.542 32.4079L131.542 32.4054L131.542 32.4029L131.542 32.4004L131.542 32.3979L131.542 32.3954L131.541 32.3929L131.541 32.3904L131.541 32.3879L131.541 32.3854L131.541 32.3829L131.541 32.3804L131.541 32.3779L131.541 32.3754L131.541 32.373L131.541 32.3705L131.541 32.368L131.541 32.3655L131.541 32.363L131.541 32.3605L131.541 32.358L131.541 32.3555L131.541 32.353L131.541 32.3505L131.54 32.348L131.54 32.3455L131.54 32.343L131.54 32.3406L131.54 32.3381L131.54 32.3356L131.54 32.3331L131.54 32.3306L131.54 32.3281L131.54 32.3256L131.54 32.3231L131.54 32.3206L131.54 32.3181L131.54 32.3156L131.54 32.3132L131.54 32.3107L131.54 32.3082L131.54 32.3057L131.539 32.3032L131.539 32.3007L131.539 32.2982L131.539 32.2957L131.539 32.2932L131.539 32.2907L131.539 32.2883L131.539 32.2858L131.539 32.2833L131.539 32.2808L131.539 32.2783L131.539 32.2758L131.539 32.2733L131.539 32.2708L131.539 32.2683L131.539 32.2658L131.539 32.2633L131.539 32.2608L131.538 32.2583L131.538 32.2558L131.538 32.2534L131.538 32.2509L131.538 32.2484L131.538 32.2459L131.538 32.2434L131.538 32.2409L131.538 32.2384L131.538 32.2359L131.538 32.2334L131.538 32.2309L131.538 32.2284L131.538 32.2259L131.538 32.2234L131.538 32.2209L131.538 32.2184L131.538 32.2159L131.537 32.2134L131.537 32.2109L131.537 32.2084L131.537 32.2059L131.537 32.2034L131.537 32.2009L131.537 32.1984L131.537 32.1959L131.537 32.1934L131.537 32.1909L131.537 32.1884L131.537 32.1859L131.537 32.1834L131.537 32.1809L131.537 32.1784L131.537 32.1759L131.537 32.1734L131.537 32.1709L131.536 32.1684L131.536 32.1658L131.536 32.1633L131.536 32.1608L131.536 32.1583L131.536 32.1558L131.536 32.1533L131.536 32.1508L131.536 32.1483L131.536 32.1458L131.536 32.1432L131.536 32.1407L131.536 32.1382L131.536 32.1357L131.536 32.1332L131.536 32.1307L131.536 32.1281L131.536 32.1256L131.535 32.1231L131.535 32.1206L131.535 32.118L131.535 32.1155L131.535 32.113L131.535 32.1105L131.535 32.1079L131.535 32.1054L131.535 32.1029L131.535 32.1004L131.535 32.0978L131.535 32.0953L131.535 32.0928L131.535 32.0902L131.535 32.0877L131.535 32.0852L131.535 32.0826L131.535 32.0801L131.534 32.0776L131.534 32.075L131.534 32.0725L131.534 32.0699L131.534 32.0674L131.534 32.0649L131.534 32.0623L131.534 32.0598L131.534 32.0572L131.534 32.0547L131.534 32.0521L131.534 32.0496L131.534 32.047L131.534 32.0445L131.534 32.0419L131.534 32.0394L131.534 32.0368L131.534 32.0343L131.533 32.0317L131.533 32.0292L131.533 32.0266L131.533 32.024L131.533 32.0215L131.533 32.0189L131.533 32.0163L131.533 32.0138L131.533 32.0112L131.533 32.0086L131.533 32.0061L131.533 32.0035L131.533 32.0009L131.533 31.9984L131.533 31.9958L131.533 31.9932L131.533 31.9906L131.532 31.9881L131.532 31.9855L131.532 31.9829L131.532 31.9803L131.532 31.9777L131.532 31.9751L131.532 31.9725L131.532 31.97L131.532 31.9674L131.532 31.9648L131.532 31.9622L131.532 31.9596L131.532 31.957L131.532 31.9544L131.532 31.9518L131.532 31.9492L131.532 31.9466L131.532 31.944L131.531 31.9414L131.531 31.9388L131.531 31.9362L131.531 31.9336L131.531 31.9309L131.531 31.9283L131.531 31.9257L131.531 31.9231L131.531 31.9205L131.531 31.9179L131.531 31.9152L131.531 31.9126L131.531 31.91L131.531 31.9074L131.531 31.9047L131.531 31.9021L131.531 31.8995L131.53 31.8969L131.53 31.8942L131.53 31.8916L131.53 31.8889L131.53 31.8863L131.53 31.8837L131.53 31.881L131.53 31.8784L131.53 31.8757L131.53 31.8731L131.53 31.8704L131.53 31.8678L131.53 31.8651L131.53 31.8625L131.53 31.8598L131.53 31.8571L131.53 31.8545L131.529 31.8518L131.529 31.8491L131.529 31.8465L131.529 31.8438L131.529 31.8411L131.529 31.8385L131.529 31.8358L131.529 31.8331L131.529 31.8304L131.529 31.8277L131.529 31.8251L131.529 31.8224L131.529 31.8197L131.529 31.817L131.529 31.8143L131.529 31.8116L131.529 31.8089L131.528 31.8062L131.528 31.8035L131.528 31.8008L131.528 31.7981L131.528 31.7954L131.528 31.7927L131.528 31.79L131.528 31.7873L131.528 31.7845L131.528 31.7818L131.528 31.7791L131.528 31.7764L131.528 31.7737L131.528 31.7709L131.528 31.7682L131.528 31.7655L131.527 31.7627L131.527 31.76L131.527 31.7573L131.527 31.7545L131.527 31.7518L131.527 31.749L131.527 31.7463L131.527 31.7435L131.527 31.7408L131.527 31.738L131.527 31.7353L131.527 31.7325L131.527 31.7297L131.527 31.727L131.527 31.7242L131.527 31.7214L131.527 31.7187L131.526 31.7159L131.526 31.7131L131.526 31.7103L131.526 31.7076L131.526 31.7048L131.526 31.702L131.526 31.6992L131.526 31.6964L131.526 31.6936L131.526 31.6908L131.526 31.688L131.525 31.6544L131.526 31.6209C131.738 22.2855 132.405 13.302 133.609 4.80362C124.82 3.5421 115.557 2.68297 105.923 2.28604C105.42 2.27193 104.964 2.25962 104.5 2.27229L104.493 2.27248L104.486 2.27261C101.05 2.3326 98.0462 3.10428 95.9728 4.23122C93.8234 5.39936 93.0508 6.70646 93.0931 7.71667L93.0934 7.7225C93.1122 8.21683 93.3185 8.73539 93.8406 9.32766L93.8456 9.33342C95.3685 11.0783 96.2581 13.1443 96.3086 15.4222C96.3873 18.976 94.3347 22.0236 91.302 24.1169C88.2613 26.2156 84.1072 27.4658 79.5591 27.4658C75.011 27.4658 70.8048 26.2156 67.6745 24.1164C64.552 22.0224 62.3694 18.9747 62.2907 15.4222C62.2406 13.1606 63.0368 11.081 64.4823 9.33533C64.9897 8.71742 65.1678 8.21004 65.1648 7.7225L65.1647 7.71667C65.1623 6.70646 64.3318 5.39936 62.1307 4.23122C60.0099 3.10569 56.9773 2.33453 53.5439 2.27284H53.5421H53.5391H53.5361H53.5331H53.5301H53.5272H53.5242H53.5212H53.5182H53.5152H53.5123H53.5093H53.5063H53.5034H53.5004H53.4974H53.4945H53.4915H53.4886H53.4856H53.4827H53.4797H53.4768H53.4739H53.4709H53.468H53.4651H53.4621H53.4592H53.4563H53.4534H53.4505H53.4476H53.4446H53.4417H53.4388H53.4359H53.433H53.4301H53.4272H53.4243H53.4215H53.4186H53.4157H53.4128H53.4099H53.4071H53.4042H53.4013H53.3984H53.3956H53.3927H53.3898H53.387H53.3841H53.3813H53.3784H53.3756H53.3727H53.3699H53.367H53.3642H53.3614H53.3585H53.3557H53.3529H53.35H53.3472H53.3444H53.3416H53.3387H53.3359H53.3331H53.3303H53.3275H53.3247H53.3219H53.3191H53.3163H53.3135H53.3107H53.3079H53.3051H53.3023H53.2995H53.2967H53.2939H53.2911H53.2884H53.2856H53.2828H53.28H53.2773H53.2745H53.2717H53.2689H53.2662H53.2634H53.2607H53.2579H53.2551H53.2524H53.2496H53.2469H53.2441H53.2414H53.2386H53.2359H53.2332H53.2304H53.2277H53.2249H53.2222H53.2195H53.2167H53.214H53.2113H53.2086H53.2058H53.2031H53.2004H53.1977H53.195H53.1922H53.1895H53.1868H53.1841H53.1814H53.1787H53.176H53.1733H53.1706H53.1679H53.1652H53.1625H53.1598H53.1571H53.1544H53.1517H53.149H53.1463H53.1436H53.141H53.1383H53.1356H53.1329H53.1302H53.1276H53.1249H53.1222H53.1195H53.1169H53.1142H53.1115H53.1088H53.1062H53.1035H53.1009H53.0982H53.0955H53.0929H53.0902H53.0875H53.0849H53.0822H53.0796H53.0769H53.0743H53.0716H53.069H53.0663H53.0637H53.061H53.0584H53.0558H53.0531H53.0505H53.0478H53.0452H53.0426H53.0399H53.0373H53.0347H53.032H53.0294H53.0268H53.0241H53.0215H53.0189H53.0162H53.0136H53.011H53.0084H53.0057H53.0031H53.0005H52.9979H52.9953H52.9926H52.99H52.9874H52.9848H52.9822H52.9796H52.977H52.9743H52.9717H52.9691H52.9665H52.9639H52.9613H52.9587H52.9561H52.9535H52.9509H52.9483H52.9457H52.9431H52.9405H52.9378H52.9352H52.9326H52.93H52.9274H52.9248H52.9223H52.9197H52.9171H52.9145H52.9119H52.9093H52.9067H52.9041H52.9015H52.8989H52.8963H52.8937H52.8911H52.8885H52.8859H52.8833H52.8808H52.8782H52.8756H52.873H52.8704H52.8678H52.8652H52.8626H52.8601H52.8575H52.8549H52.8523H52.8497H52.8471H52.8445H52.842H52.8394H52.8368H52.8342H52.8316H52.8291H52.8265H52.8239H52.8213H52.8187H52.8161H52.8136H52.811H52.8084H52.8058H52.8032H52.8007H52.7981H52.7955H52.7929H52.7903H52.7878H52.7852H52.7826H52.78H52.7774H52.7749H52.7723H52.7697H52.7671H52.7645H52.762H52.7594H52.7568H52.7542H52.7516H52.7491H52.7465H52.7439H52.7413H52.7387H52.7362H52.7336H52.731H52.7284H52.7258H52.7232H52.7207H52.7181H52.7155H52.7129H52.7103H52.7078H52.7052H52.7026H52.7H52.6974H52.6948H52.6922H52.6897H52.6871H52.6845H52.6819H52.6793H52.6767H52.6741H52.6716H52.669H52.6664H52.6638H52.6612H52.6586H52.656H52.6534H52.6508H52.6482H52.6457H52.6431H52.6405H52.6379H52.6353H52.6327H52.6301H52.6275H52.6249H52.6223H52.6197H52.6171H52.6145H52.6119H52.6093H52.6067H52.6041H52.6015H52.5989H52.5963H52.5937H52.5911H52.5885H52.5859H52.5833H52.5806H52.578H52.5754H52.5728H52.5702H52.5676H52.565H52.5624H52.5598H52.5571H52.5545H52.5519H52.5493H52.5467H52.544H52.5414H52.5388H52.5362H52.5336H52.5309H52.5283H52.5257H52.5231H52.5204H52.5178H52.5152H52.5125H52.5099H52.5073H52.5046H52.502H52.4994H52.4967H52.4941H52.4914H52.4888H52.4862H52.4835H52.4809H52.4782H52.4756H52.4729H52.4703H52.4676H52.465H52.4623H52.4597H52.457H52.4543H52.4517H52.449H52.4464H52.4437H52.441H52.4384H52.4357H52.433H52.4304H52.4277H52.425H52.4223H52.4197H52.417H52.4143H52.4116H52.409H52.4063H52.4036H52.4009H52.3982H52.3955H52.3928H52.3902H52.3875H52.3848H52.3821H52.3794H52.3767H52.374H52.3713H52.3686H52.3659H52.3632H52.3604H52.3577H52.355H52.3523H52.3496H52.3469H52.3442H52.3414H52.3387H52.336H52.3333H52.3305H52.3278H52.3251H52.3223H52.3196H52.3169H52.3141H52.3114H52.3087H52.3059H52.3032H52.3004H52.2977H52.2949H52.2922H52.2894H52.2867H52.2839H52.2811H52.2784H52.2756H52.2728H52.2701H52.2673H52.2645H52.2617H52.259H52.2562H52.2534H52.2506H52.2478H52.2451H52.2423H52.2395H52.2367H52.2339H52.2311H52.2283H52.2255H52.2227H52.2199H52.2171H52.2143H52.2114H52.2086H52.2058H52.2054C42.5292 2.67051 33.2551 3.48023 24.5183 4.79382C26.1061 13.2885 27.2394 22.2738 27.8794 31.6186L27.8801 31.6303L27.8808 31.6419C27.9076 32.1484 27.9164 32.5428 27.9125 33.0602L131.556 33.0379ZM140.681 46.9368C140.683 46.9367 140.684 46.9367 140.686 46.9367L140.625 45.4373L140.68 46.9368C140.681 46.9368 140.681 46.9368 140.681 46.9368Z" stroke="url(#paint0_linear_28_384)" stroke-width="3"/>
<defs>
<linearGradient id="paint0_linear_28_384" x1="159.904" y1="55.9291" x2="0.671443" y2="59.457" gradientUnits="userSpaceOnUse">
<stop stop-color="#FD874E"/>
<stop offset="1" stop-color="#964F30"/>
</linearGradient>
</defs>
</svg>
