<svg width="131" height="117" viewBox="0 0 131 117" fill="none" xmlns="http://www.w3.org/2000/svg">
<path d="M103.867 87.1243L103.867 87.1145L103.867 87.1048L103.866 87.0885C103.852 86.5998 103.836 86.0661 103.851 85.511C103.914 81.6926 104.76 78.1787 106.149 75.5746C107.496 73.0487 109.604 70.9739 112.317 71.0259C113.678 71.0481 114.845 71.6208 115.826 72.4666L115.826 72.4672C117.079 73.5492 118.462 74.0776 119.952 74.0776C122.207 74.0776 124.419 72.727 126.134 70.1842C127.842 67.6498 128.945 64.0625 128.941 60.023C128.937 55.9836 127.827 52.3963 126.113 49.8619C124.393 47.3191 122.178 45.9685 119.923 45.9685C118.454 45.9685 117.054 46.5074 115.797 47.5821C114.819 48.4263 113.654 48.9978 112.296 49.0202C109.582 49.0725 107.469 46.9976 106.117 44.4715C104.722 41.8657 103.868 38.3491 103.798 34.5279L103.798 34.5149L103.798 34.5018L103.798 34.4988L103.798 34.4958L103.798 34.4928L103.798 34.4898L103.798 34.4868L103.798 34.4838L103.798 34.4807L103.798 34.4778L103.798 34.4748L103.798 34.4718L103.798 34.4688L103.798 34.4658L103.798 34.4628L103.798 34.4598L103.798 34.4568L103.798 34.4538L103.798 34.4509L103.798 34.4479L103.798 34.4449L103.798 34.442L103.798 34.439L103.798 34.436L103.798 34.4331L103.798 34.4301L103.798 34.4272L103.798 34.4242L103.798 34.4213L103.798 34.4183L103.798 34.4154L103.798 34.4125L103.798 34.4095L103.798 34.4066L103.798 34.4037L103.798 34.4007L103.798 34.3978L103.798 34.3949L103.798 34.392L103.798 34.389L103.798 34.3861L103.798 34.3832L103.798 34.3803L103.798 34.3774L103.798 34.3745L103.798 34.3716L103.798 34.3687L103.798 34.3658L103.798 34.3629L103.798 34.36L103.798 34.3571L103.798 34.3542L103.798 34.3513L103.798 34.3485L103.798 34.3456L103.798 34.3427L103.798 34.3398L103.798 34.337L103.798 34.3341L103.798 34.3312L103.798 34.3284L103.798 34.3255L103.798 34.3226L103.798 34.3198L103.798 34.3169L103.798 34.3141L103.798 34.3112L103.798 34.3084L103.798 34.3055L103.798 34.3027L103.798 34.2998L103.798 34.297L103.798 34.2942L103.798 34.2913L103.798 34.2885L103.798 34.2857L103.798 34.2828L103.798 34.28L103.798 34.2772L103.798 34.2744L103.798 34.2715L103.798 34.2687L103.798 34.2659L103.798 34.2631L103.798 34.2603L103.798 34.2575L103.798 34.2547L103.798 34.2519L103.798 34.2491L103.798 34.2463L103.798 34.2435L103.798 34.2407L103.798 34.2379L103.798 34.2351L103.798 34.2323L103.798 34.2295L103.798 34.2267L103.798 34.2239L103.798 34.2211L103.798 34.2184L103.798 34.2156L103.798 34.2128L103.798 34.21L103.798 34.2073L103.798 34.2045L103.798 34.2017L103.798 34.1989L103.798 34.1962L103.798 34.1934L103.798 34.1907L103.798 34.1879L103.798 34.1851L103.798 34.1824L103.798 34.1796L103.798 34.1769L103.798 34.1741L103.798 34.1714L103.798 34.1686L103.798 34.1659L103.798 34.1631L103.798 34.1604L103.798 34.1577L103.798 34.1549L103.798 34.1522L103.798 34.1494L103.798 34.1467L103.798 34.144L103.798 34.1412L103.798 34.1385L103.798 34.1358L103.798 34.1331L103.798 34.1303L103.798 34.1276L103.798 34.1249L103.798 34.1222L103.798 34.1195L103.798 34.1167L103.798 34.114L103.798 34.1113L103.798 34.1086L103.798 34.1059L103.798 34.1032L103.798 34.1005L103.798 34.0978L103.798 34.0951L103.798 34.0924L103.798 34.0897L103.798 34.087L103.798 34.0843L103.798 34.0816L103.798 34.0789L103.798 34.0762L103.798 34.0735L103.798 34.0708L103.798 34.0681L103.798 34.0654L103.798 34.0627L103.798 34.06L103.798 34.0573L103.798 34.0547L103.798 34.052L103.798 34.0493L103.798 34.0466L103.798 34.0439L103.798 34.0413L103.798 34.0386L103.797 34.0359L103.797 34.0332L103.797 34.0306L103.797 34.0279L103.797 34.0252L103.797 34.0225L103.797 34.0199L103.797 34.0172L103.797 34.0145L103.797 34.0119L103.797 34.0092L103.797 34.0065L103.797 34.0039L103.797 34.0012L103.797 33.9986L103.797 33.9959L103.797 33.9932L103.797 33.9906L103.797 33.9879L103.797 33.9853L103.797 33.9826L103.797 33.98L103.797 33.9773L103.797 33.9747L103.797 33.972L103.797 33.9694L103.797 33.9667L103.797 33.9641L103.797 33.9614L103.797 33.9588L103.797 33.9561L103.797 33.9535L103.797 33.9508L103.797 33.9482L103.797 33.9456L103.797 33.9429L103.797 33.9403L103.797 33.9376L103.797 33.935L103.797 33.9324L103.797 33.9297L103.797 33.9271L103.797 33.9245L103.797 33.9218L103.797 33.9192L103.797 33.9166L103.797 33.9139L103.797 33.9113L103.797 33.9087L103.797 33.906L103.797 33.9034L103.797 33.9008L103.797 33.8981L103.797 33.8955L103.797 33.8929L103.797 33.8903L103.797 33.8876L103.797 33.885L103.797 33.8824L103.797 33.8798L103.797 33.8771L103.797 33.8745L103.797 33.8719L103.797 33.8693L103.797 33.8666L103.797 33.864L103.797 33.8614L103.797 33.8588L103.797 33.8562L103.797 33.8535L103.797 33.8509L103.797 33.8483L103.797 33.8457L103.797 33.8431L103.797 33.8405L103.797 33.8378L103.797 33.8352L103.797 33.8326L103.797 33.83L103.797 33.8274L103.797 33.8248L103.797 33.8221L103.797 33.8195L103.797 33.8169L103.797 33.8143L103.797 33.8117L103.797 33.8091L103.797 33.8064L103.797 33.8038L103.797 33.8012L103.797 33.7986L103.797 33.796L103.797 33.7934L103.797 33.7908L103.797 33.7882L103.797 33.7855L103.797 33.7829L103.797 33.7803L103.797 33.7777L103.797 33.7751L103.797 33.7725L103.797 33.7699L103.797 33.7673L103.797 33.7646L103.797 33.762L103.797 33.7594L103.797 33.7568L103.797 33.7542L103.797 33.7516L103.797 33.749L103.797 33.7464L103.797 33.7437L103.797 33.7411L103.797 33.7385L103.797 33.7359L103.797 33.7333L103.797 33.7307L103.797 33.7281L103.797 33.7255L103.797 33.7228L103.797 33.7202L103.797 33.7176L103.797 33.715L103.797 33.7124L103.797 33.7098L103.797 33.7072L103.797 33.7046L103.797 33.7019L103.797 33.6993L103.797 33.6967L103.797 33.6941L103.797 33.6915L103.797 33.6889L103.797 33.6862L103.797 33.6836L103.797 33.681L103.797 33.6784L103.797 33.6758L103.797 33.6732L103.797 33.6705L103.797 33.6679L103.797 33.6653L103.797 33.6627L103.797 33.6601L103.797 33.6574L103.797 33.6548L103.797 33.6522L103.797 33.6496L103.797 33.647L103.797 33.6443L103.797 33.6417L103.797 33.6391L103.797 33.6365L103.797 33.6338L103.797 33.6312L103.797 33.6286L103.797 33.626L103.797 33.6234L103.797 33.6207L103.797 33.6181L103.797 33.6155L103.797 33.6128L103.797 33.6102L103.797 33.6076L103.797 33.6049L103.797 33.6023L103.797 33.5997L103.797 33.5971L103.797 33.5944L103.797 33.5918L103.797 33.5891L103.797 33.5865L103.797 33.5839L103.797 33.5812L103.797 33.5786L103.797 33.576L103.797 33.5733L103.797 33.5707L103.797 33.568L103.797 33.5654L103.797 33.5628L103.797 33.5601L103.797 33.5575L103.797 33.5548L103.797 33.5522L103.797 33.5495L103.797 33.5469L103.797 33.5442L103.797 33.5416L103.797 33.5389L103.797 33.5363L103.797 33.5336L103.797 33.531L103.797 33.5283L103.797 33.5257L103.797 33.523L103.797 33.5204L103.797 33.5177L103.797 33.5151L103.797 33.5124L103.797 33.5097L103.797 33.5071L103.797 33.5044L103.797 33.5017L103.797 33.4991L103.797 33.4964L103.797 33.4937L103.797 33.4911L103.797 33.4884L103.797 33.4857L103.797 33.4831L103.797 33.4804L103.797 33.4777L103.797 33.475L103.797 33.4724L103.797 33.4697L103.797 33.467L103.797 33.4643L103.797 33.4616L103.797 33.459L103.797 33.4563L103.797 33.4536L103.797 33.4509L103.797 33.4482L103.797 33.4455L103.797 33.4428L103.797 33.4401L103.797 33.4375L103.797 33.4348L103.797 33.4321L103.797 33.4294L103.797 33.4267L103.797 33.424L103.797 33.4213L103.797 33.4186L103.797 33.4159L103.797 33.4132L103.797 33.4104L103.797 33.4077L103.797 33.405L103.797 33.4023L103.797 33.3996L103.797 33.3969L103.797 33.3942L103.797 33.3914L103.797 33.3887L103.797 33.386L103.797 33.3833L103.797 33.3806L103.797 33.3778L103.797 33.3751L103.797 33.3724L103.797 33.3697L103.797 33.3669L103.797 33.3642L103.797 33.3614L103.797 33.3587L103.797 33.356L103.797 33.3532L103.797 33.3505L103.797 33.3477L103.797 33.345L103.797 33.3423L103.797 33.3395L103.797 33.3368L103.797 33.334L103.797 33.3313L103.797 33.3285L103.797 33.3257L103.797 33.323L103.797 33.3202L103.797 33.3175L103.797 33.3147L103.797 33.3119L103.797 33.3091L103.797 33.3064L103.797 33.3036L103.797 33.3008L103.797 33.298L103.797 33.2953L103.797 33.2925L103.797 33.2897L103.797 33.2869L103.797 33.2841L103.797 33.2813L103.797 33.2786L103.797 33.2758L103.797 33.273L103.797 33.2702L103.797 33.2674L103.797 33.2646L103.797 33.2618L103.797 33.259L103.797 33.2562L103.797 33.2534L103.797 33.2505L103.797 33.2477L103.797 33.2449L103.797 33.2421L103.797 33.2393L103.797 33.2365L103.797 33.2336L103.797 33.2308L103.797 33.228L103.797 33.2251L103.797 33.2223L103.797 33.2195L103.797 33.2166L103.797 33.2138L103.797 33.211L103.797 33.2081L103.797 33.2053L103.797 33.2024L103.797 33.1996L103.797 33.1967L103.797 33.1939L103.797 33.191L103.797 33.1881L103.797 33.1853L103.797 33.1824L103.797 33.1796L103.797 33.1767L103.797 33.1738L103.797 33.1709L103.797 33.1681L103.797 33.1652L103.797 33.1623L103.797 33.1594L103.797 33.1565L103.797 33.1536L103.797 33.1507L103.797 33.1479L103.797 33.145L103.797 33.1421L103.797 33.1392L103.797 33.1363L103.797 33.1333L103.797 33.1304L103.797 33.1275L103.797 33.1246L103.797 33.1217L103.797 33.1188L103.797 33.1159L103.797 33.1129L103.797 33.11L103.797 33.1071L103.797 33.1041L103.797 33.1012L103.797 33.0706L103.798 33.0401C104.189 23.2037 105.087 13.75 106.421 4.81747C98.0694 3.44374 89.2139 2.60827 79.9798 2.17837L79.9684 2.17783L79.957 2.17713C79.5847 2.15411 79.303 2.1629 78.8601 2.17671L78.7777 2.17928L78.7689 2.17954L78.7601 2.17971C75.5131 2.24204 72.6636 3.04356 70.6856 4.21256C68.6628 5.40803 67.8315 6.7899 67.8538 7.96591L67.8539 7.9712C67.8628 8.55223 68.0734 9.12869 68.5616 9.75262L68.5662 9.75849C69.9773 11.5807 70.7629 13.7129 70.7653 16.0428C70.769 19.6748 68.7995 22.8483 65.8411 25.062C62.8829 27.2755 58.8628 28.6005 54.4828 28.6005C50.1028 28.6005 46.08 27.2755 43.1173 25.062C40.1543 22.8483 38.1783 19.6748 38.1746 16.0428C38.1722 13.73 38.9518 11.5838 40.3588 9.76106C40.8571 9.1105 41.0617 8.54555 41.0694 7.9712L41.0695 7.96591C41.0894 6.7899 40.2552 5.40803 38.2299 4.21256C36.2525 3.0453 33.4069 2.24442 30.1657 2.17999C29.6805 2.17999 29.2347 2.18024 28.7929 2.19368C19.5555 2.61268 10.6765 3.52303 2.28843 4.86048L2.40129 114.858H106.505C105.228 106.044 104.275 96.8152 103.867 87.1243Z" stroke="url(#paint0_linear_28_383)" stroke-width="3"/>
<defs>
<linearGradient id="paint0_linear_28_383" x1="130.44" y1="58.5107" x2="0.843613" y2="58.6437" gradientUnits="userSpaceOnUse">
<stop stop-color="#FD874E"/>
<stop offset="1" stop-color="#964F30"/>
</linearGradient>
</defs>
</svg>
