<svg width="118" height="152" viewBox="0 0 118 152" fill="none" xmlns="http://www.w3.org/2000/svg">
<path d="M2.43219 51.9235L2.43236 51.9325L2.43243 51.9414C2.45624 55.1514 3.13918 57.384 4.01235 58.7633C4.88471 60.1413 5.87066 60.5834 6.61267 60.5834C6.95553 60.5834 7.35069 60.3964 8.21393 59.6267L8.21573 59.6251C9.30055 58.661 10.7944 58.1197 12.1291 57.809C13.4989 57.4901 14.8983 57.3698 15.9634 57.3698C19.6728 57.3698 22.9576 59.9421 25.2171 63.3119C27.5091 66.7303 28.9703 71.2689 28.9134 75.8516C28.8564 80.4349 27.2822 84.9602 24.9039 88.3653C22.5585 91.7234 19.2098 94.2763 15.5047 94.2763C14.5006 94.2763 13.1766 94.2293 11.8705 93.9758C10.5909 93.7275 9.15495 93.2495 8.07683 92.261C7.81103 92.019 7.37358 91.7428 6.87704 91.5277C6.36238 91.3047 5.95186 91.2199 5.75211 91.2199C5.17894 91.2199 4.2773 91.6522 3.40578 93.4096C2.55961 95.1159 1.93736 97.7473 1.83528 101.216C1.82894 101.726 1.82334 102.196 1.8315 102.648C2.11991 112.183 2.91701 118.955 4.10642 126.962C12.9005 125.655 22.1858 124.836 31.846 124.442L31.8549 124.442L31.8638 124.441C32.3849 124.426 32.7872 124.426 33.3067 124.441C37.0937 124.511 40.8802 125.503 43.7539 126.99C45.1911 127.734 46.46 128.633 47.3856 129.658C48.3048 130.677 48.9819 131.934 48.9642 133.353C48.9438 135 48.5911 136.783 47.7747 137.992C47.7037 138.098 47.635 138.201 47.5686 138.3C46.5547 139.817 46.0712 140.54 46.0556 141.794C46.0302 143.834 47.0025 145.733 48.9839 147.172C50.9872 148.626 54.0374 149.607 58.0273 149.607C62.0173 149.607 65.0919 148.626 67.1312 147.172C69.1484 145.733 70.1679 143.834 70.1932 141.794C70.2086 140.558 69.711 139.78 68.7533 138.282C68.6701 138.152 68.5834 138.016 68.4933 137.875C67.6878 136.634 67.503 135.073 67.5248 133.325C67.5424 131.906 68.2491 130.65 69.1928 129.632C70.1427 128.607 71.4324 127.71 72.8864 126.968C75.7957 125.484 79.6063 124.495 83.3969 124.427L83.4104 124.426H83.4239H83.4363C83.9377 124.426 84.451 124.426 84.9527 124.441L84.9611 124.442L84.9695 124.442C94.5692 124.836 103.788 125.694 112.525 126.955C113.914 118.947 114.881 112.185 115.421 102.633C115.442 102.145 115.46 101.678 115.453 101.234L115.453 101.225L115.452 101.217C115.431 97.7604 114.807 95.1237 113.97 93.408C113.084 91.5908 112.193 91.2056 111.814 91.2056C111.357 91.2056 110.848 91.4518 109.855 92.1367L109.855 92.1369C107.446 93.7975 104.646 94.2621 102.525 94.2621C98.5011 94.2621 95.0636 91.7621 92.7147 88.3596C90.3527 84.9383 88.9331 80.4052 88.9898 75.8373C89.0468 71.2526 90.6606 66.7025 93.1645 63.2742C95.6495 59.8716 99.1907 57.3555 103.164 57.3555C105.282 57.3555 108.032 57.819 110.31 59.5195C111.198 60.1767 111.748 60.4262 112.212 60.4262C112.746 60.4262 113.614 60.076 114.451 58.7159C115.282 57.3675 115.974 55.1609 116.08 51.9419L116.08 51.9399L116.08 51.937L116.08 51.9342L116.08 51.9314L116.08 51.9286L116.08 51.9258L116.08 51.9229L116.08 51.9201L116.08 51.9173L116.08 51.9145L116.08 51.9117L116.08 51.9089L116.08 51.9061L116.08 51.9033L116.08 51.9006L116.08 51.8978L116.08 51.895L116.08 51.8922L116.08 51.8894L116.08 51.8866L116.08 51.8839L116.08 51.8811L116.08 51.8783L116.08 51.8756L116.081 51.8728L116.081 51.87L116.081 51.8673L116.081 51.8645L116.081 51.8618L116.081 51.859L116.081 51.8563L116.081 51.8535L116.081 51.8508L116.081 51.8481L116.081 51.8453L116.081 51.8426L116.081 51.8399L116.081 51.8371L116.081 51.8344L116.081 51.8317L116.081 51.8289L116.081 51.8262L116.081 51.8235L116.081 51.8208L116.081 51.8181L116.081 51.8154L116.081 51.8127L116.081 51.81L116.081 51.8073L116.081 51.8046L116.081 51.8019L116.081 51.7992L116.081 51.7965L116.081 51.7938L116.082 51.7911L116.082 51.7884L116.082 51.7857L116.082 51.783L116.082 51.7804L116.082 51.7777L116.082 51.775L116.082 51.7723L116.082 51.7697L116.082 51.767L116.082 51.7643L116.082 51.7617L116.082 51.759L116.082 51.7564L116.082 51.7537L116.082 51.751L116.082 51.7484L116.082 51.7457L116.082 51.7431L116.082 51.7404L116.082 51.7378L116.082 51.7352L116.082 51.7325L116.082 51.7299L116.082 51.7272L116.082 51.7246L116.082 51.722L116.082 51.7194L116.082 51.7167L116.082 51.7141L116.083 51.7115L116.083 51.7089L116.083 51.7062L116.083 51.7036L116.083 51.701L116.083 51.6984L116.083 51.6958L116.083 51.6932L116.083 51.6906L116.083 51.688L116.083 51.6854L116.083 51.6828L116.083 51.6802L116.083 51.6776L116.083 51.675L116.083 51.6724L116.083 51.6698L116.083 51.6672L116.083 51.6646L116.083 51.662L116.083 51.6594L116.083 51.6568L116.083 51.6543L116.083 51.6517L116.083 51.6491L116.083 51.6465L116.083 51.644L116.083 51.6414L116.083 51.6388L116.083 51.6363L116.083 51.6337L116.084 51.6311L116.084 51.6286L116.084 51.626L116.084 51.6234L116.084 51.6209L116.084 51.6183L116.084 51.6158L116.084 51.6132L116.084 51.6107L116.084 51.6081L116.084 51.6056L116.084 51.603L116.084 51.6005L116.084 51.5979L116.084 51.5954L116.084 51.5928L116.084 51.5903L116.084 51.5878L116.084 51.5852L116.084 51.5827L116.084 51.5802L116.084 51.5776L116.084 51.5751L116.084 51.5726L116.084 51.5701L116.084 51.5675L116.084 51.565L116.084 51.5625L116.084 51.56L116.084 51.5574L116.084 51.5549L116.084 51.5524L116.085 51.5499L116.085 51.5474L116.085 51.5449L116.085 51.5424L116.085 51.5398L116.085 51.5373L116.085 51.5348L116.085 51.5323L116.085 51.5298L116.085 51.5273L116.085 51.5248L116.085 51.5223L116.085 51.5198L116.085 51.5173L116.085 51.5148L116.085 51.5123L116.085 51.5098L116.085 51.5073L116.085 51.5048L116.085 51.5023L116.085 51.4999L116.085 51.4974L116.085 51.4949L116.085 51.4924L116.085 51.4899L116.085 51.4874L116.085 51.4849L116.085 51.4825L116.085 51.48L116.085 51.4775L116.085 51.475L116.085 51.4725L116.086 51.4701L116.086 51.4676L116.086 51.4651L116.086 51.4626L116.086 51.4602L116.086 51.4577L116.086 51.4552L116.086 51.4528L116.086 51.4503L116.086 51.4478L116.086 51.4454L116.086 51.4429L116.086 51.4404L116.086 51.438L116.086 51.4355L116.086 51.433L116.086 51.4306L116.086 51.4281L116.086 51.4257L116.086 51.4232L116.086 51.4207L116.086 51.4183L116.086 51.4158L116.086 51.4134L116.086 51.4109L116.086 51.4085L116.086 51.406L116.086 51.4036L116.086 51.4011L116.086 51.3987L116.086 51.3962L116.086 51.3938L116.087 51.3913L116.087 51.3889L116.087 51.3864L116.087 51.384L116.087 51.3815L116.087 51.3791L116.087 51.3767L116.087 51.3742L116.087 51.3718L116.087 51.3693L116.087 51.3669L116.087 51.3644L116.087 51.362L116.087 51.3596L116.087 51.3571L116.087 51.3547L116.087 51.3522L116.087 51.3498L116.087 51.3474L116.087 51.3449L116.087 51.3425L116.087 51.3401L116.087 51.3376L116.087 51.3352L116.087 51.3328L116.087 51.3303L116.087 51.3279L116.087 51.3255L116.087 51.323L116.087 51.3206L116.087 51.3182L116.087 51.3158L116.087 51.3133L116.088 51.3109L116.088 51.3085L116.088 51.306L116.088 51.3036L116.088 51.3012L116.088 51.2987L116.088 51.2963L116.088 51.2939L116.088 51.2915L116.088 51.289L116.088 51.2866L116.088 51.2842L116.088 51.2818L116.088 51.2793L116.088 51.2769L116.088 51.2745L116.088 51.2721L116.088 51.2696L116.088 51.2672L116.088 51.2648L116.088 51.2624L116.088 51.2599L116.088 51.2575L116.088 51.2551L116.088 51.2527L116.088 51.2503L116.088 51.2478L116.088 51.2454L116.088 51.243L116.088 51.2406L116.088 51.2382L116.088 51.2357L116.088 51.2333L116.088 51.2309L116.089 51.2285L116.089 51.226L116.089 51.2236L116.089 51.2212L116.089 51.2188L116.089 51.2164L116.089 51.2139L116.089 51.2115L116.089 51.2091L116.089 51.2067L116.089 51.2042L116.089 51.2018L116.089 51.1994L116.089 51.197L116.089 51.1946L116.089 51.1921L116.089 51.1897L116.089 51.1873L116.089 51.1849L116.089 51.1824L116.089 51.18L116.089 51.1776L116.089 51.1752L116.089 51.1728L116.089 51.1703L116.089 51.1679L116.089 51.1655L116.089 51.1631L116.089 51.1606L116.089 51.1582L116.089 51.1558L116.089 51.1534L116.089 51.1509L116.09 51.1485L116.09 51.1461L116.09 51.1437L116.09 51.1412L116.09 51.1388L116.09 51.1364L116.09 51.1339L116.09 51.1315L116.09 51.1291L116.09 51.1267L116.09 51.1242L116.09 51.1218L116.09 51.1194L116.09 51.1169L116.09 51.1145L116.09 51.1121L116.09 51.1096L116.09 51.1072L116.09 51.1048L116.09 51.1024L116.09 51.0999L116.09 51.0975L116.09 51.095L116.09 51.0926L116.09 51.0902L116.09 51.0877L116.09 51.0853L116.09 51.0829L116.09 51.0804L116.09 51.078L116.09 51.0756L116.09 51.0731L116.09 51.0707L116.091 51.0682L116.091 51.0658L116.091 51.0633L116.091 51.0609L116.091 51.0585L116.091 51.056L116.091 51.0536L116.091 51.0511L116.091 51.0487L116.091 51.0462L116.091 51.0438L116.091 51.0413L116.091 51.0389L116.091 51.0364L116.091 51.034L116.091 51.0315L116.091 51.0291L116.091 51.0266L116.091 51.0242L116.091 51.0217L116.091 51.0193L116.091 51.0168L116.091 51.0143L116.091 51.0119L116.091 51.0094L116.091 51.007L116.091 51.0045L116.091 51.002L116.091 50.9996L116.091 50.9971L116.091 50.9947L116.091 50.9922L116.091 50.9897L116.092 50.9873L116.092 50.9848L116.092 50.9823L116.092 50.9798L116.092 50.9774L116.092 50.9749L116.092 50.9724L116.092 50.97L116.092 50.9675L116.092 50.965L116.092 50.9625L116.092 50.9601L116.092 50.9576L116.092 50.9551L116.092 50.9526L116.092 50.9501L116.092 50.9476L116.092 50.9452L116.092 50.9427L116.092 50.9402L116.092 50.9377L116.092 50.9352L116.092 50.9327L116.092 50.9302L116.092 50.9277L116.092 50.9252L116.092 50.9227L116.092 50.9202L116.092 50.9177L116.092 50.9152L116.092 50.9127L116.092 50.9102L116.093 50.9077L116.093 50.9052L116.093 50.9027L116.093 50.9002L116.093 50.8977L116.093 50.8952L116.093 50.8927L116.093 50.8902L116.093 50.8877L116.093 50.8852L116.093 50.8826L116.093 50.8801L116.093 50.8776L116.093 50.8751L116.093 50.8726L116.093 50.87L116.093 50.8675L116.093 50.865L116.093 50.8625L116.093 50.8599L116.093 50.8574L116.093 50.8549L116.093 50.8523L116.093 50.8498L116.093 50.8472L116.093 50.8447L116.093 50.8422L116.093 50.8396L116.093 50.8371L116.093 50.8345L116.093 50.832L116.093 50.8294L116.094 50.8269L116.094 50.8243L116.094 50.8218L116.094 50.8192L116.094 50.8167L116.094 50.8141L116.094 50.8116L116.094 50.809L116.094 50.8064L116.094 50.8039L116.094 50.8013L116.094 50.7987L116.094 50.7962L116.094 50.7936L116.094 50.791L116.094 50.7884L116.094 50.7859L116.094 50.7833L116.094 50.7807L116.094 50.7781L116.094 50.7755L116.094 50.7729L116.094 50.7704L116.094 50.7678L116.094 50.7652L116.094 50.7626L116.094 50.76L116.094 50.7574L116.094 50.7548L116.094 50.7522L116.094 50.7496L116.095 50.747L116.095 50.7444L116.095 50.7418L116.095 50.7392L116.095 50.7365L116.095 50.7339L116.095 50.7313L116.095 50.7287L116.095 50.7261L116.095 50.7235L116.095 50.7208L116.095 50.7182L116.095 50.7156L116.095 50.7129L116.095 50.7103L116.095 50.7077L116.095 50.705L116.095 50.7024L116.095 50.6998L116.095 50.6971L116.095 50.6945L116.095 50.6918L116.095 50.6908C115.799 41.6172 115.073 32.9245 113.833 24.717C105.073 25.9747 95.8284 26.9237 86.2066 27.3184L86.1975 27.3188L86.1884 27.3191L86.1701 27.3196C85.6896 27.3335 85.161 27.3487 84.6256 27.3336C80.8414 27.2641 77.1731 26.3015 74.3706 24.8461C72.968 24.1177 71.7348 23.2412 70.8116 22.2457C69.8945 21.2568 69.2081 20.0656 69.0914 18.7272L69.091 18.7229C68.9996 17.6374 68.8971 15.5443 70.159 13.8719C71.2812 12.3777 71.8596 11.3414 71.8765 9.98045C71.923 6.24021 67.9868 2.16811 59.9048 2.16811C51.8228 2.16811 47.7854 6.24021 47.7389 9.98045C47.7217 11.3628 48.2839 12.4609 49.3754 13.9108L49.3776 13.9137C50.019 14.7702 50.3354 15.6243 50.4302 16.5078C50.5193 17.3381 50.4022 18.1368 50.2977 18.8061L50.2972 18.8092C50.0911 20.1118 49.3675 21.2788 48.4237 22.2597C47.4734 23.2473 46.2293 24.1223 44.8184 24.8524C41.998 26.3118 38.3421 27.2797 34.5503 27.348L34.5368 27.3482H34.5232H34.5203H34.5173H34.5143H34.5113H34.5083H34.5054H34.5024H34.4994H34.4965H34.4935H34.4906H34.4876H34.4847H34.4817H34.4788H34.4758H34.4729H34.47H34.467H34.4641H34.4612H34.4583H34.4553H34.4524H34.4495H34.4466H34.4437H34.4408H34.4379H34.435H34.4321H34.4292H34.4263H34.4234H34.4205H34.4176H34.4147H34.4119H34.409H34.4061H34.4033H34.4004H34.3975H34.3947H34.3918H34.3889H34.3861H34.3832H34.3804H34.3775H34.3747H34.3718H34.369H34.3662H34.3633H34.3605H34.3577H34.3548H34.352H34.3492H34.3464H34.3436H34.3407H34.3379H34.3351H34.3323H34.3295H34.3267H34.3239H34.3211H34.3183H34.3155H34.3127H34.3099H34.3072H34.3044H34.3016H34.2988H34.296H34.2933H34.2905H34.2877H34.2849H34.2822H34.2794H34.2766H34.2739H34.2711H34.2684H34.2656H34.2629H34.2601H34.2574H34.2546H34.2519H34.2491H34.2464H34.2437H34.2409H34.2382H34.2355H34.2327H34.23H34.2273H34.2246H34.2219H34.2191H34.2164H34.2137H34.211H34.2083H34.2056H34.2029H34.2002H34.1974H34.1947H34.192H34.1893H34.1867H34.184H34.1813H34.1786H34.1759H34.1732H34.1705H34.1678H34.1651H34.1625H34.1598H34.1571H34.1544H34.1518H34.1491H34.1464H34.1438H34.1411H34.1384H34.1358H34.1331H34.1304H34.1278H34.1251H34.1225H34.1198H34.1172H34.1145H34.1119H34.1092H34.1066H34.1039H34.1013H34.0986H34.096H34.0933H34.0907H34.0881H34.0854H34.0828H34.0802H34.0775H34.0749H34.0723H34.0697H34.067H34.0644H34.0618H34.0592H34.0565H34.0539H34.0513H34.0487H34.0461H34.0435H34.0409H34.0382H34.0356H34.033H34.0304H34.0278H34.0252H34.0226H34.02H34.0174H34.0148H34.0122H34.0096H34.007H34.0044H34.0018H33.9992H33.9966H33.994H33.9914H33.9888H33.9863H33.9837H33.9811H33.9785H33.9759H33.9733H33.9707H33.9682H33.9656H33.963H33.9604H33.9578H33.9553H33.9527H33.9501H33.9475H33.945H33.9424H33.9398H33.9372H33.9347H33.9321H33.9295H33.927H33.9244H33.9218H33.9193H33.9167H33.9141H33.9116H33.909H33.9064H33.9039H33.9013H33.8988H33.8962H33.8936H33.8911H33.8885H33.886H33.8834H33.8808H33.8783H33.8757H33.8732H33.8706H33.8681H33.8655H33.863H33.8604H33.8579H33.8553H33.8527H33.8502H33.8476H33.8451H33.8425H33.84H33.8374H33.8349H33.8324H33.8298H33.8273H33.8247H33.8222H33.8196H33.8171H33.8145H33.812H33.8094H33.8069H33.8043H33.8018H33.7993H33.7967H33.7942H33.7916H33.7891H33.7865H33.784H33.7814H33.7789H33.7764H33.7738H33.7713H33.7687H33.7662H33.7636H33.7611H33.7586H33.756H33.7535H33.7509H33.7484H33.7459H33.7433H33.7408H33.7382H33.7357H33.7331H33.7306H33.7281H33.7255H33.723H33.7204H33.7179H33.7153H33.7128H33.7103H33.7077H33.7052H33.7026H33.7001H33.6975H33.695H33.6924H33.6899H33.6874H33.6848H33.6823H33.6797H33.6772H33.6746H33.6721H33.6695H33.667H33.6644H33.6619H33.6593H33.6568H33.6542H33.6517H33.6491H33.6466H33.644H33.6415H33.6389H33.6364H33.6338H33.6313H33.6287H33.6262H33.6236H33.6211H33.6185H33.616H33.6134H33.6108H33.6083H33.6057H33.6032H33.6006H33.598H33.5955H33.5929H33.5904H33.5878H33.5852H33.5827H33.5801H33.5775H33.575H33.5724H33.5698H33.5673H33.5647H33.5621H33.5595H33.557H33.5544H33.5518H33.5493H33.5467H33.5441H33.5415H33.539H33.5364H33.5338H33.5312H33.5286H33.526H33.5235H33.5209H33.5183H33.5157H33.5131H33.5105H33.5079H33.5054H33.5028H33.5002H33.4976H33.495H33.4924H33.4898H33.4872H33.4846H33.482H33.4794H33.4768H33.4742H33.4716H33.469H33.4664H33.4638H33.4612H33.4585H33.4559H33.4533H33.4507H33.4481H33.4455H33.4429H33.4402H33.4376H33.435H33.4324H33.4298H33.4271H33.4245H33.4219H33.4192H33.4166H33.414H33.4113H33.4087H33.4061H33.4034H33.4008H33.3982H33.3955H33.3929H33.3902H33.3876H33.3849H33.3823H33.3796H33.377H33.3743H33.3717H33.369H33.3664H33.3637H33.361H33.3584H33.3557H33.353H33.3504H33.3477H33.345H33.3424H33.3397H33.337H33.3343H33.3316H33.329H33.3263H33.3236H33.3209H33.3182H33.3155H33.3128H33.3101H33.3074H33.3047H33.302H33.2993H33.2966H33.2939H33.2912H33.2885H33.2858H33.2831H33.2804H33.2777H33.2749H33.2722H33.2695H33.2668H33.264H33.2613H33.2586H33.2559H33.2531H33.2504H33.2476H33.2449H33.2422H33.2394H33.2367H33.2339H33.2312H33.2284H33.2257H33.2229H33.2201H33.2174H33.2146H33.2118H33.2091H33.2063H33.2035H33.2008H33.198H33.1952H33.1924H33.1896H33.1869H33.1841H33.1813H33.1785H33.1757H33.1729H33.1701H33.1673H33.1645H33.1617H33.1589H33.1283L33.0977 27.347C23.4148 26.9517 14.1293 26.0516 5.35573 24.7322C3.91012 32.9478 2.96816 41.6603 2.44672 50.7289C2.42765 51.1635 2.42373 51.4872 2.43219 51.9235ZM48.8192 18.5933H48.819H48.8192Z" stroke="url(#paint0_linear_28_381)" stroke-width="3"/>
<defs>
<linearGradient id="paint0_linear_28_381" x1="117.282" y1="75.8873" x2="0.641873" y2="74.4376" gradientUnits="userSpaceOnUse">
<stop stop-color="#FD874E"/>
<stop offset="1" stop-color="#964F30"/>
</linearGradient>
</defs>
</svg>
