<svg width="114" height="137" viewBox="0 0 114 137" fill="none" xmlns="http://www.w3.org/2000/svg">
<path d="M111.889 105.579L111.889 105.587C111.897 106.056 111.893 106.409 111.875 106.877C111.351 116.694 110.438 126.001 109.006 134.853H4.17088C2.9382 126.009 2.22367 116.701 1.93316 106.914L1.93317 106.913L1.9332 106.91L1.93323 106.907L1.93326 106.905L1.9333 106.902L1.93333 106.899L1.93336 106.896L1.93339 106.893L1.93342 106.891L1.93345 106.888L1.93348 106.885L1.93352 106.882L1.93355 106.879L1.93358 106.877L1.93361 106.874L1.93364 106.871L1.93367 106.868L1.9337 106.865L1.93374 106.863L1.93377 106.86L1.9338 106.857L1.93383 106.854L1.93386 106.852L1.93389 106.849L1.93392 106.846L1.93395 106.843L1.93399 106.84L1.93402 106.838L1.93405 106.835L1.93408 106.832L1.93411 106.829L1.93414 106.827L1.93417 106.824L1.9342 106.821L1.93423 106.818L1.93426 106.816L1.9343 106.813L1.93433 106.81L1.93436 106.807L1.93439 106.805L1.93442 106.802L1.93445 106.799L1.93448 106.796L1.93451 106.794L1.93454 106.791L1.93457 106.788L1.9346 106.785L1.93463 106.783L1.93466 106.78L1.93469 106.777L1.93473 106.775L1.93476 106.772L1.93479 106.769L1.93482 106.766L1.93485 106.764L1.93488 106.761L1.93491 106.758L1.93494 106.756L1.93497 106.753L1.935 106.75L1.93503 106.747L1.93506 106.745L1.93509 106.742L1.93512 106.739L1.93515 106.737L1.93518 106.734L1.93521 106.731L1.93524 106.728L1.93527 106.726L1.9353 106.723L1.93533 106.72L1.93536 106.718L1.93539 106.715L1.93542 106.712L1.93545 106.71L1.93548 106.707L1.93551 106.704L1.93555 106.702L1.93558 106.699L1.93561 106.696L1.93564 106.694L1.93567 106.691L1.9357 106.688L1.93573 106.685L1.93576 106.683L1.93579 106.68L1.93582 106.677L1.93585 106.675L1.93588 106.672L1.93591 106.669L1.93594 106.667L1.93597 106.664L1.936 106.661L1.93603 106.659L1.93605 106.656L1.93608 106.654L1.93611 106.651L1.93614 106.648L1.93617 106.646L1.9362 106.643L1.93623 106.64L1.93626 106.638L1.93629 106.635L1.93632 106.632L1.93635 106.63L1.93638 106.627L1.93641 106.624L1.93644 106.622L1.93647 106.619L1.9365 106.616L1.93653 106.614L1.93656 106.611L1.93659 106.608L1.93662 106.606L1.93665 106.603L1.93668 106.601L1.93671 106.598L1.93674 106.595L1.93677 106.593L1.9368 106.59L1.93683 106.587L1.93686 106.585L1.93689 106.582L1.93692 106.58L1.93695 106.577L1.93697 106.574L1.937 106.572L1.93703 106.569L1.93706 106.566L1.93709 106.564L1.93712 106.561L1.93715 106.559L1.93718 106.556L1.93721 106.553L1.93724 106.551L1.93727 106.548L1.9373 106.545L1.93733 106.543L1.93736 106.54L1.93739 106.538L1.93742 106.535L1.93745 106.532L1.93747 106.53L1.9375 106.527L1.93753 106.525L1.93756 106.522L1.93759 106.519L1.93762 106.517L1.93765 106.514L1.93768 106.512L1.93771 106.509L1.93774 106.506L1.93777 106.504L1.9378 106.501L1.93783 106.498L1.93786 106.496L1.93788 106.493L1.93791 106.491L1.93794 106.488L1.93797 106.485L1.938 106.483L1.93803 106.48L1.93806 106.478L1.93809 106.475L1.93812 106.472L1.93815 106.47L1.93818 106.467L1.93821 106.465L1.93823 106.462L1.93826 106.46L1.93829 106.457L1.93832 106.454L1.93835 106.452L1.93838 106.449L1.93841 106.447L1.93844 106.444L1.93847 106.441L1.9385 106.439L1.93853 106.436L1.93855 106.434L1.93858 106.431L1.93861 106.428L1.93864 106.426L1.93867 106.423L1.9387 106.421L1.93873 106.418L1.93876 106.415L1.93879 106.413L1.93882 106.41L1.93885 106.408L1.93887 106.405L1.9389 106.403L1.93893 106.4L1.93896 106.397L1.93899 106.395L1.93902 106.392L1.93905 106.39L1.93908 106.387L1.93911 106.384L1.93914 106.382L1.93917 106.379L1.93919 106.377L1.93922 106.374L1.93925 106.371L1.93928 106.369L1.93931 106.366L1.93934 106.364L1.93937 106.361L1.9394 106.359L1.93943 106.356L1.93946 106.353L1.93948 106.351L1.93951 106.348L1.93954 106.346L1.93957 106.343L1.9396 106.34L1.93963 106.338L1.93966 106.335L1.93969 106.333L1.93972 106.33L1.93975 106.328L1.93977 106.325L1.9398 106.322L1.93983 106.32L1.93986 106.317L1.93989 106.315L1.93992 106.312L1.93995 106.309L1.93998 106.307L1.94001 106.304L1.94004 106.302L1.94007 106.299L1.94009 106.297L1.94012 106.294L1.94015 106.291L1.94018 106.289L1.94021 106.286L1.94024 106.284L1.94027 106.281L1.9403 106.278L1.94033 106.276L1.94036 106.273L1.94039 106.271L1.94041 106.268L1.94044 106.265L1.94047 106.263L1.9405 106.26L1.94053 106.258L1.94056 106.255L1.94059 106.253L1.94062 106.25L1.94065 106.247L1.94068 106.245L1.94071 106.242L1.94073 106.24L1.94076 106.237L1.94079 106.234L1.94082 106.232L1.94085 106.229L1.94088 106.227L1.94091 106.224L1.94094 106.221L1.94097 106.219L1.941 106.216L1.94103 106.214L1.94106 106.211L1.94108 106.208L1.94111 106.206L1.94114 106.203L1.94117 106.201L1.9412 106.198L1.94123 106.195L1.94126 106.193L1.94129 106.19L1.94132 106.188L1.94135 106.185L1.94138 106.182L1.94141 106.18L1.94144 106.177L1.94146 106.175L1.94149 106.172L1.94152 106.169L1.94155 106.167L1.94158 106.164L1.94161 106.162L1.94164 106.159L1.94167 106.156L1.9417 106.154L1.94173 106.151L1.94176 106.148L1.94179 106.146L1.94182 106.143L1.94185 106.141L1.94188 106.138L1.9419 106.135L1.94193 106.133L1.94196 106.13L1.94199 106.128L1.94202 106.125L1.94205 106.122L1.94208 106.12L1.94211 106.117L1.94214 106.114L1.94217 106.112L1.9422 106.109L1.94223 106.107L1.94226 106.104L1.94229 106.101L1.94232 106.099L1.94235 106.096L1.94238 106.093L1.94241 106.091L1.94244 106.088L1.94247 106.085L1.9425 106.083L1.94252 106.08L1.94255 106.078L1.94258 106.075L1.94261 106.072L1.94264 106.07L1.94267 106.067L1.9427 106.064L1.94273 106.062L1.94276 106.059L1.94279 106.056L1.94282 106.054L1.94285 106.051L1.94288 106.048L1.94291 106.046L1.94294 106.043L1.94297 106.04L1.943 106.038L1.94303 106.035L1.94306 106.032L1.94309 106.03L1.94312 106.027L1.94315 106.024L1.94318 106.022L1.94321 106.019L1.94324 106.016L1.94327 106.014L1.9433 106.011L1.94333 106.008L1.94336 106.006L1.94339 106.003L1.94342 106L1.94345 105.998L1.94348 105.995L1.94351 105.992L1.94354 105.99L1.94357 105.987L1.9436 105.984L1.94363 105.982L1.94366 105.979L1.94369 105.976L1.94372 105.974L1.94375 105.971L1.94378 105.968L1.94381 105.966L1.94384 105.963L1.94387 105.96L1.9439 105.957L1.94393 105.955L1.94396 105.952L1.94399 105.949L1.94402 105.947L1.94405 105.944L1.94409 105.941L1.94412 105.939L1.94415 105.936L1.94418 105.933L1.94421 105.93L1.94424 105.928L1.94427 105.925L1.9443 105.922L1.94433 105.919L1.94436 105.917L1.94439 105.914L1.94442 105.911L1.94445 105.909L1.94448 105.906L1.94451 105.903L1.94454 105.9L1.94457 105.898L1.94461 105.895L1.94464 105.892L1.94467 105.889L1.9447 105.887L1.94473 105.884L1.94476 105.881L1.94479 105.878L1.94482 105.876L1.94485 105.873L1.94488 105.87L1.94491 105.867L1.94495 105.865L1.94498 105.862L1.94501 105.859L1.94504 105.856L1.94507 105.854L1.9451 105.851L1.94513 105.848L1.94516 105.845L1.94519 105.843L1.94522 105.84L1.94526 105.837L1.94529 105.834L1.94532 105.831L1.94535 105.829L1.94538 105.826L1.94541 105.823L1.94544 105.82L1.94548 105.817L1.94551 105.815L1.94554 105.812L1.94557 105.809L1.9456 105.806L1.94563 105.803L1.94566 105.801L1.9457 105.798L1.94573 105.795L1.94576 105.792L1.94579 105.789L1.94582 105.787L1.94585 105.784L1.94588 105.781L1.94592 105.778L1.94595 105.775L1.94598 105.773L1.94601 105.77L1.94604 105.767L1.94608 105.764L1.94611 105.761L1.94614 105.758L1.94617 105.756L1.9462 105.753L1.94624 105.75L1.94627 105.747L1.9463 105.744L1.94633 105.741L1.94636 105.738L1.9464 105.736L1.94643 105.733L1.94646 105.73L1.94649 105.727L1.94652 105.724L1.94656 105.721L1.94659 105.718L1.94662 105.715L1.94665 105.713L1.94669 105.71L1.94672 105.707L1.94675 105.704L1.94678 105.701L1.94681 105.698L1.94685 105.695L1.94688 105.692L1.94691 105.69L1.94695 105.687L1.94698 105.684L1.94701 105.681L1.94704 105.678L1.94708 105.675L1.94711 105.672L1.94714 105.669L1.94717 105.666L1.94721 105.663L1.94724 105.66L1.94727 105.657L1.94731 105.655L1.94734 105.652L1.94737 105.649L1.9474 105.646L1.94744 105.643L1.94747 105.64L1.9475 105.637L1.94754 105.634L1.94757 105.631L1.9476 105.628L1.94764 105.625L1.94767 105.622L1.9477 105.619L1.94774 105.616L1.94777 105.613L1.9478 105.61L1.94784 105.607L1.94787 105.604L1.9479 105.601L1.94794 105.598L1.94797 105.595L1.948 105.592L1.94804 105.589L1.94807 105.586L1.9481 105.583L1.94814 105.58L1.94817 105.577L1.94821 105.574L1.94823 105.573C2.04844 102.133 2.85244 99.111 4.00004 97.0105C5.19182 94.829 6.50519 94.0291 7.50849 94.049L7.51434 94.0491C8.00509 94.0569 8.51922 94.251 9.10461 94.7608L9.11029 94.7657C10.8344 96.2517 12.8883 97.0992 15.1521 97.0992C18.6977 97.0992 21.761 94.9717 23.8819 91.889C26.0089 88.7973 27.3034 84.6096 27.3546 80.0551C27.4057 75.5015 26.2093 71.3139 24.1533 68.2217C22.1028 65.1378 19.087 63.011 15.535 63.011C13.2712 63.011 11.1982 63.8585 9.44076 65.3445L9.43495 65.3494C8.83811 65.8592 8.31963 66.0533 7.8287 66.0611L7.82285 66.0612C6.81911 66.0811 5.5237 65.2812 4.38092 63.0998C3.27915 60.9966 2.54257 57.9695 2.52137 54.5248L2.52132 54.5174L2.52121 54.5101C2.51378 54.0454 2.53118 53.588 2.55091 53.085C3.05548 43.441 4.01736 34.1673 5.37534 25.388C13.8419 26.7824 22.7982 27.6505 32.1107 28.0697L32.1444 28.0712H32.1781H32.1808H32.1835H32.1862H32.1889H32.1916H32.1943H32.197H32.1997H32.2024H32.2051H32.2078H32.2105H32.2132H32.2159H32.2186H32.2212H32.2239H32.2266H32.2293H32.2319H32.2346H32.2373H32.2399H32.2426H32.2453H32.2479H32.2506H32.2532H32.2559H32.2585H32.2612H32.2638H32.2665H32.2691H32.2718H32.2744H32.277H32.2797H32.2823H32.2849H32.2876H32.2902H32.2928H32.2955H32.2981H32.3007H32.3033H32.3059H32.3086H32.3112H32.3138H32.3164H32.319H32.3216H32.3242H32.3268H32.3294H32.332H32.3346H32.3372H32.3398H32.3424H32.345H32.3476H32.3502H32.3528H32.3554H32.3579H32.3605H32.3631H32.3657H32.3683H32.3708H32.3734H32.376H32.3786H32.3811H32.3837H32.3863H32.3888H32.3914H32.394H32.3965H32.3991H32.4016H32.4042H32.4068H32.4093H32.4119H32.4144H32.417H32.4195H32.4221H32.4246H32.4272H32.4297H32.4323H32.4348H32.4373H32.4399H32.4424H32.445H32.4475H32.45H32.4526H32.4551H32.4576H32.4601H32.4627H32.4652H32.4677H32.4703H32.4728H32.4753H32.4778H32.4803H32.4829H32.4854H32.4879H32.4904H32.4929H32.4954H32.498H32.5005H32.503H32.5055H32.508H32.5105H32.513H32.5155H32.518H32.5205H32.523H32.5255H32.528H32.5305H32.533H32.5355H32.538H32.5405H32.543H32.5455H32.548H32.5505H32.553H32.5555H32.558H32.5605H32.563H32.5655H32.568H32.5704H32.5729H32.5754H32.5779H32.5804H32.5829H32.5854H32.5878H32.5903H32.5928H32.5953H32.5978H32.6003H32.6027H32.6052H32.6077H32.6102H32.6126H32.6151H32.6176H32.6201H32.6225H32.625H32.6275H32.63H32.6324H32.6349H32.6374H32.6399H32.6423H32.6448H32.6473H32.6497H32.6522H32.6547H32.6571H32.6596H32.6621H32.6645H32.667H32.6695H32.672H32.6744H32.6769H32.6793H32.6818H32.6843H32.6867H32.6892H32.6917H32.6941H32.6966H32.6991H32.7015H32.704H32.7065H32.7089H32.7114H32.7138H32.7163H32.7188H32.7212H32.7237H32.7262H32.7286H32.7311H32.7335H32.736H32.7385H32.7409H32.7434H32.7459H32.7483H32.7508H32.7532H32.7557H32.7582H32.7606H32.7631H32.7655H32.768H32.7705H32.7729H32.7754H32.7779H32.7803H32.7828H32.7852H32.7877H32.7902H32.7926H32.7951H32.7976H32.8H32.8025H32.805H32.8074H32.8099H32.8123H32.8148H32.8173H32.8197H32.8222H32.8247H32.8271H32.8296H32.8321H32.8345H32.837H32.8395H32.8419H32.8444H32.8469H32.8494H32.8518H32.8543H32.8568H32.8592H32.8617H32.8642H32.8667H32.8691H32.8716H32.8741H32.8766H32.879H32.8815H32.884H32.8865H32.8889H32.8914H32.8939H32.8964H32.8989H32.9013H32.9038H32.9063H32.9088H32.9113H32.9137H32.9162H32.9187H32.9212H32.9237H32.9262H32.9287H32.9312H32.9336H32.9361H32.9386H32.9411H32.9436H32.9461H32.9486H32.9511H32.9536H32.9561H32.9586H32.9611H32.9636H32.9661H32.9686H32.9711H32.9736H32.9761H32.9786H32.9811H32.9836H32.9861H32.9886H32.9911H32.9936H32.9962H32.9987H33.0012H33.0037H33.0062H33.0087H33.0112H33.0138H33.0163H33.0188H33.0213H33.0238H33.0264H33.0289H33.0314H33.0339H33.0365H33.039H33.0415H33.0441H33.0466H33.0491H33.0517H33.0542H33.0568H33.0593H33.0618H33.0644H33.0669H33.0695H33.072H33.0746H33.0771H33.0797H33.0822H33.0848H33.0873H33.0899H33.0924H33.095H33.0975H33.1001H33.1027H33.1052H33.1078H33.1104H33.1129H33.1155H33.1181H33.1206H33.1232H33.1258H33.1284H33.1309H33.1335H33.1361H33.1387H33.1413H33.1439H33.1464H33.149H33.1516H33.1542H33.1568H33.1594H33.162H33.1646H33.1672H33.1698H33.1724H33.175H33.1776H33.1802H33.1828H33.1855H33.1881H33.1907H33.1933H33.1959H33.1985H33.2012H33.2038H33.2064H33.2091H33.2117H33.2143H33.217H33.2196H33.2222H33.2249H33.2275H33.2301H33.2328H33.2354H33.2381H33.2407H33.2434H33.2461H33.2487H33.2514H33.254H33.2567H33.2594H33.262H33.2647H33.2674H33.27H33.2727H33.2754H33.2781H33.2808H33.2834H33.2861H33.2888H33.2915H33.2942H33.2969H33.2996H33.3023H33.305H33.3077H33.3104H33.3131H33.3158H33.3185H33.3212H33.324H33.3267H33.3294H33.3321H33.3349H33.3376H33.3403H33.343H33.3458H33.3485H33.3513H33.354H33.3567H33.3595H33.3622H33.365H33.3677H33.3705H33.3733H33.376H33.3788H33.3816H33.3843H33.3871H33.3899H33.3926H33.3954H33.3982H33.401H33.4038H33.4066H33.4094H33.4122H33.415H33.4178H33.4206H33.4234H33.4262H33.429H33.4318H33.4346H33.4374H33.4402H33.4431H33.4459H33.4487H33.4516H33.4544H33.4572H33.4601H33.4629H33.4658H33.4686H33.4715H33.4743H33.4772H33.48H33.4829H33.4857H33.4886H33.4915H33.4944H33.4972H33.5116L33.526 28.071C37.1955 28.0006 40.5839 27.1 43.1033 25.6237C45.5763 24.1746 47.5045 21.9689 47.4877 19.2397C47.4828 17.8694 46.9718 16.6961 46.1929 15.6678L46.1896 15.6635C45.174 14.3327 44.6551 12.8248 44.6731 11.2187C44.7008 8.7496 46.0645 6.39611 48.4794 4.60789C50.8945 2.81957 54.2864 1.66825 58.0856 1.66825C61.8847 1.66825 65.2508 2.81957 67.6257 4.60789C70.0005 6.39611 71.3113 8.74961 71.2835 11.2187C71.2653 12.8368 70.7145 14.329 69.6698 15.6601C68.8566 16.6856 68.3243 17.8763 68.2887 19.2391C68.2887 19.24 68.2887 19.2408 68.2886 19.2417L69.7882 19.2634C69.6742 23.1678 75.1807 26.4387 82.0976 26.5713L111.889 105.579ZM111.889 105.579L111.889 105.571C111.868 102.126 111.131 99.0989 110.029 96.9957C108.887 94.8143 107.591 94.0144 106.588 94.0343L106.582 94.0344C106.091 94.0422 105.573 94.2361 104.976 94.7454L111.889 105.579ZM83.5543 28.0564C83.091 28.0707 82.5782 28.0865 82.0445 28.0708L104.009 93.6102C102.492 94.9068 100.759 95.5846 98.8782 95.5846C93.0684 95.5846 88.4453 88.6302 88.5418 80.0404C88.6383 71.4506 93.4176 64.4962 99.2274 64.4962C101.094 64.4962 102.826 65.1887 104.313 66.4705L105.296 65.3262C105.297 65.3267 105.297 65.3272 105.298 65.3277C105.909 65.85 106.412 66.0387 106.896 66.0464L106.902 66.0465C107.897 66.0663 109.211 65.2677 110.406 63.0843C111.555 60.9833 112.362 57.9613 112.462 54.523C112.468 54.0122 112.473 53.5395 112.465 53.0704C112.177 43.4226 111.423 34.1585 110.262 25.3773C101.792 26.7126 92.8715 27.6214 83.5965 28.0549L83.5846 28.0554L83.5727 28.0558L83.5543 28.0564Z" stroke="url(#paint0_linear_28_382)" stroke-width="3"/>
<defs>
<linearGradient id="paint0_linear_28_382" x1="113.818" y1="68.2607" x2="0.875744" y2="66.9921" gradientUnits="userSpaceOnUse">
<stop stop-color="#FD874E"/>
<stop offset="1" stop-color="#964F30"/>
</linearGradient>
</defs>
</svg>
