<svg width="117" height="133" viewBox="0 0 117 133" fill="none" xmlns="http://www.w3.org/2000/svg">
<path d="M111.374 131.313C112.932 122.514 113.906 113.254 114.451 103.479C114.47 103.005 114.474 102.642 114.466 102.168C114.417 95.2936 111.363 89.7854 107.644 89.8551C106.717 89.8691 105.871 90.2316 105.078 90.8731C103.563 92.1002 101.829 92.7417 99.9489 92.7417C94.1391 92.7417 89.5119 86.1598 89.6032 78.03C89.6945 69.9003 94.4696 63.3184 100.279 63.3184C102.146 63.3184 103.879 63.9738 105.367 65.187C106.159 65.8284 106.983 66.191 107.909 66.2049C111.613 66.2746 114.804 60.7665 115.008 53.8918C115.013 53.4037 115.019 52.9296 115.01 52.4554C114.698 42.7499 113.862 33.4488 112.572 24.6637C103.715 26.0442 94.3445 26.9785 84.5724 27.4108C84.0951 27.4247 83.6178 27.4387 83.1268 27.4247C76.2097 27.2992 70.7014 24.2035 70.813 20.5081C70.8374 19.5878 71.2116 18.7511 71.8659 17.9702C73.1036 16.4781 73.7825 14.7629 73.8035 12.8943C73.8683 7.12123 67.2972 2.43581 59.1157 2.43581C50.9342 2.43581 44.2579 7.12123 44.193 12.8943C44.1722 14.749 44.8123 16.4781 46.0165 17.9702C46.6531 18.7651 47.0087 19.5878 47.0124 20.5081C47.0411 24.2035 41.4631 27.2992 34.5433 27.4247C34.0521 27.4247 33.6872 27.4247 33.2241 27.4247C23.4055 27.0064 13.9991 26.1139 5.16033 24.6637C3.67235 33.4488 2.62746 42.7639 2.09745 52.4694C2.07809 52.9435 2.05876 53.4176 2.06731 53.9057C2.11639 60.7804 5.16992 66.2886 8.88955 66.2189C9.81591 66.2049 10.662 65.8424 11.4551 65.2009C12.9703 63.9877 14.7037 63.3323 16.5702 63.3323C22.38 63.3323 27.0072 69.9142 26.9159 78.044C26.8246 86.1737 22.0355 92.7556 16.2397 92.7556C14.3733 92.7556 12.6545 92.1002 11.1666 90.887C10.3879 90.2456 9.54995 89.883 8.62391 89.8691C4.90585 89.7993 1.72858 95.3075 1.52507 102.182C1.51958 102.67 1.51551 103.033 1.51034 103.493C1.8217 113.254 2.60165 122.528 3.96229 131.327L111.332 131.327L111.374 131.313Z" stroke="url(#paint0_linear_1624_1877)" stroke-width="3"/>
<defs>
<linearGradient id="paint0_linear_1624_1877" x1="114.873" y1="66.8812" x2="1.93" y2="65.6127" gradientUnits="userSpaceOnUse">
<stop stop-color="#FD874E"/>
<stop offset="1" stop-color="#964F30"/>
</linearGradient>
</defs>
</svg>
