<svg
  xmlns="http://www.w3.org/2000/svg"
  width="41"
  height="41"
  viewBox="0 0 41 41"
  fill="none"
>
  <path
    d="M22.5371 4.1875C24.4027 4.19248 25.3496 4.20243 26.1672 4.22564L26.4889 4.23725C26.8604 4.25052 27.2269 4.2671 27.6696 4.287C29.4341 4.36992 30.6381 4.64852 31.6944 5.05813C32.7889 5.47934 33.711 6.04981 34.633 6.97018C35.4762 7.79918 36.1287 8.80196 36.545 9.90875C36.9547 10.9651 37.2333 12.1691 37.3162 13.9352C37.3361 14.3763 37.3527 14.7428 37.3659 15.1159L37.3759 15.4376C37.4007 16.2535 37.4107 17.2004 37.414 19.0661L37.4157 20.3032V22.4756C37.4197 23.6852 37.407 24.8948 37.3775 26.104L37.3676 26.4258C37.3543 26.7989 37.3377 27.1654 37.3178 27.6065C37.2349 29.3726 36.953 30.5749 36.545 31.6329C36.1299 32.7403 35.4773 33.7433 34.633 34.5715C33.8038 35.4144 32.801 36.0669 31.6944 36.4835C30.6381 36.8932 29.4341 37.1718 27.6696 37.2547C27.2762 37.2732 26.8826 37.2898 26.4889 37.3044L26.1672 37.3144C25.3496 37.3376 24.4027 37.3492 22.5371 37.3525L21.3 37.3542H19.1292C17.9191 37.3583 16.7089 37.3456 15.4991 37.316L15.1774 37.3061C14.7837 37.2912 14.3902 37.274 13.9967 37.2547C12.2322 37.1718 11.0283 36.8932 9.97025 36.4835C8.8636 36.0679 7.86121 35.4153 7.03335 34.5715C6.18933 33.7428 5.53624 32.74 5.11963 31.6329C4.71002 30.5766 4.43142 29.3726 4.3485 27.6065C4.33003 27.213 4.31344 26.8194 4.29875 26.4258L4.29046 26.104C4.2599 24.8948 4.24608 23.6852 4.249 22.4756V19.0661C4.24438 17.8565 4.25654 16.6469 4.28549 15.4376L4.2971 15.1159C4.31036 14.7428 4.32695 14.3763 4.34685 13.9352C4.42976 12.1691 4.70836 10.9668 5.11797 9.90875C5.5344 8.80082 6.18879 7.79773 7.035 6.97018C7.86266 6.12688 8.86438 5.47435 9.97025 5.05813C11.0283 4.64852 12.2306 4.36992 13.9967 4.287C14.4378 4.2671 14.806 4.25052 15.1774 4.23725L15.4991 4.2273C16.7084 4.19784 17.918 4.18512 19.1276 4.18916L22.5371 4.1875ZM20.8323 12.4792C18.6332 12.4792 16.5242 13.3528 14.9692 14.9077C13.4143 16.4627 12.5407 18.5717 12.5407 20.7708C12.5407 22.9699 13.4143 25.0789 14.9692 26.6339C16.5242 28.1889 18.6332 29.0625 20.8323 29.0625C23.0314 29.0625 25.1404 28.1889 26.6954 26.6339C28.2504 25.0789 29.124 22.9699 29.124 20.7708C29.124 18.5717 28.2504 16.4627 26.6954 14.9077C25.1404 13.3528 23.0314 12.4792 20.8323 12.4792ZM20.8323 15.7958C21.4857 15.7957 22.1326 15.9243 22.7363 16.1742C23.3399 16.4241 23.8884 16.7905 24.3504 17.2524C24.8125 17.7143 25.179 18.2627 25.4291 18.8662C25.6793 19.4698 25.8081 20.1167 25.8082 20.77C25.8083 21.4233 25.6797 22.0703 25.4298 22.6739C25.1799 23.2776 24.8135 23.8261 24.3516 24.2881C23.8897 24.7502 23.3413 25.1167 22.7378 25.3668C22.1342 25.6169 21.4873 25.7457 20.834 25.7458C19.5145 25.7458 18.2491 25.2217 17.3161 24.2887C16.3831 23.3557 15.859 22.0903 15.859 20.7708C15.859 19.4514 16.3831 18.186 17.3161 17.253C18.2491 16.32 19.5145 15.7958 20.834 15.7958M29.5402 9.99167C28.9905 9.99167 28.4632 10.2101 28.0745 10.5988C27.6857 10.9876 27.4673 11.5148 27.4673 12.0646C27.4673 12.6144 27.6857 13.1416 28.0745 13.5304C28.4632 13.9191 28.9905 14.1375 29.5402 14.1375C30.09 14.1375 30.6173 13.9191 31.006 13.5304C31.3948 13.1416 31.6132 12.6144 31.6132 12.0646C31.6132 11.5148 31.3948 10.9876 31.006 10.5988C30.6173 10.2101 30.09 9.99167 29.5402 9.99167Z"
    fill="url(#paint0_linear_1729_2011)"
  />
  <defs>
    <linearGradient
      id="paint0_linear_1729_2011"
      x1="20.8322"
      y1="-3.91526"
      x2="20.8322"
      y2="37.3549"
      gradientUnits="userSpaceOnUse"
    >
      <stop stop-color="#483187" />
      <stop offset="0.5" stop-color="#6F56B4" />
      <stop offset="1" stop-color="#A38EDB" />
    </linearGradient>
  </defs>
</svg>