<svg
  xmlns="http://www.w3.org/2000/svg"
  width="34"
  height="32"
  viewBox="0 0 34 32"
  fill="none"
>
  <path
    fill-rule="evenodd"
    clip-rule="evenodd"
    d="M17.0317 0.0927633C25.8935 0.179911 33.5549 6.29686 33.4757 14.351C33.4356 18.4253 31.1856 21.924 28.0683 24.7292C24.9444 27.5427 20.7893 29.8153 16.5091 31.4797C16.0796 31.6479 15.6021 31.6464 15.1736 31.4756C14.745 31.3048 14.3975 30.9774 14.2014 30.5598C14.0325 30.195 13.9932 29.8065 13.9855 29.4134L13.9876 28.5262C13.985 28.4287 13.9793 28.3313 13.9705 28.2341C13.9198 27.6548 13.7709 27.2869 13.1634 27.1731C6.0782 25.8662 0.24146 21.0558 0.310604 14.0248C0.38981 5.9707 8.17005 0.00561558 17.0317 0.0927633ZM20.2504 10.0749C19.8106 10.0706 19.3871 10.2411 19.0731 10.5491C18.759 10.857 18.5802 11.277 18.5758 11.7168L18.572 12.1115L17.3724 10.6436C17.1568 10.3798 16.8652 10.1889 16.5372 10.0967C16.2093 10.0045 15.8608 10.0155 15.5394 10.1283C15.2179 10.2411 14.939 10.4502 14.7405 10.7272C14.5421 11.0041 14.4337 11.3354 14.4302 11.6761L14.3813 16.6508C14.377 17.0906 14.5475 17.5141 14.8555 17.8282C15.1634 18.1422 15.5834 18.3211 16.0232 18.3254C16.463 18.3297 16.8865 18.1592 17.2006 17.8512C17.5146 17.5433 17.6935 17.1232 17.6978 16.6834L17.7017 16.2888L18.9012 17.7567C19.1168 18.0205 19.4084 18.2114 19.7364 18.3036C20.0644 18.3958 20.4128 18.3848 20.7343 18.272C21.0558 18.1591 21.3347 17.9501 21.5331 17.6731C21.7316 17.3962 21.8399 17.0649 21.8434 16.7242L21.8924 11.7495C21.8967 11.3097 21.7261 10.8862 21.4182 10.5721C21.1103 10.2581 20.6902 10.0792 20.2504 10.0749ZM6.98439 9.94444C6.54459 9.94011 6.12109 10.1107 5.80705 10.4186C5.49301 10.7265 5.31415 11.1466 5.30982 11.5864L5.2609 16.5611C5.25658 17.0009 5.42714 17.4244 5.73506 17.7385C6.04299 18.0525 6.46305 18.2314 6.90285 18.2357L8.5611 18.252C9.0009 18.2563 9.4244 18.0858 9.73844 17.7778C10.0525 17.4699 10.2313 17.0499 10.2357 16.6101C10.24 16.1703 10.0694 15.7468 9.7615 15.4327C9.45358 15.1187 9.03351 14.9398 8.59372 14.9355L8.62633 11.619C8.63066 11.1792 8.4601 10.7557 8.15217 10.4417C7.84425 10.1276 7.42418 9.94876 6.98439 9.94444ZM11.9591 9.99336C11.553 9.98942 11.1595 10.1347 10.8533 10.4016C10.5472 10.6685 10.3496 11.0385 10.2981 11.4414L10.2846 11.6353L10.2357 16.6101C10.232 17.0327 10.3898 17.4408 10.6769 17.751C10.9641 18.0612 11.3588 18.2501 11.7805 18.279C12.2022 18.3079 12.619 18.1747 12.9457 17.9066C13.2725 17.6385 13.4846 17.2558 13.5387 16.8366L13.5522 16.6427L13.6011 11.6679C13.6054 11.2281 13.4349 10.8046 13.1269 10.4906C12.819 10.1765 12.3989 9.99768 11.9591 9.99336ZM26.8834 10.1401L24.396 10.1157C23.9899 10.1117 23.5964 10.257 23.2902 10.5239C22.9841 10.7908 22.7865 11.1608 22.735 11.5637L22.7215 11.7576L22.6726 16.7324C22.6686 17.1385 22.8139 17.532 23.0808 17.8382C23.3477 18.1444 23.7177 18.3419 24.1206 18.3934L24.3145 18.4069L26.8019 18.4314C27.2245 18.4351 27.6327 18.2772 27.9428 17.9901C28.253 17.703 28.4419 17.3083 28.4708 16.8866C28.4997 16.4649 28.3665 16.0481 28.0984 15.7213C27.8304 15.3945 27.4476 15.1824 27.0284 15.1284L26.8345 15.1149L26.6123 15.1127C26.7426 14.8933 26.8203 14.6467 26.8392 14.3922C26.8581 14.1377 26.8177 13.8823 26.7212 13.6461L26.6286 13.4544L26.8508 13.4566C27.2735 13.4603 27.6816 13.3025 27.9918 13.0154C28.302 12.7282 28.4908 12.3335 28.5197 11.9118C28.5486 11.4901 28.4155 11.0733 28.1474 10.7465C27.8793 10.4198 27.4965 10.2077 27.0773 10.1536L26.8834 10.1401Z"
    fill="url(#paint0_linear_1853_1981)"
  />
  <defs>
    <linearGradient
      id="paint0_linear_1853_1981"
      x1="17.0317"
      y1="0.0927633"
      x2="16.7218"
      y2="31.6135"
      gradientUnits="userSpaceOnUse"
    >
      <stop stop-color="#6F56B4" />
      <stop offset="1" stop-color="#493187" />
    </linearGradient>
  </defs>
</svg>