<svg
  xmlns="http://www.w3.org/2000/svg"
  width="37"
  height="36"
  viewBox="0 0 37 36"
  fill="none"
>
  <g clip-path="url(#clip0_1853_1966)">
    <path
      d="M30.5102 30.6868L25.3408 30.5921L25.4891 22.4943C25.5245 20.5623 25.5299 18.0764 22.8754 18.0278C20.1808 17.9785 19.7305 20.0722 19.6907 22.245L19.5397 30.4859L14.3722 30.3912L14.6772 13.7366L19.6406 13.8275L19.599 16.0963L19.6671 16.0976C20.3839 14.8013 22.0968 13.4535 24.6169 13.4997C29.8543 13.5956 30.7598 17.0584 30.6776 21.5453L30.5102 30.6868ZM8.87942 11.3504C7.21448 11.3199 5.90229 9.9499 5.93262 8.29369C5.96295 6.63748 7.32617 5.31643 8.98936 5.34689C9.78548 5.36147 10.5432 5.69171 11.0958 6.26496C11.6485 6.83821 11.9507 7.60752 11.9362 8.40364C11.9216 9.19976 11.5913 9.95748 11.0181 10.5101C10.4448 11.0627 9.67553 11.365 8.87942 11.3504ZM11.1225 30.3335L5.93925 30.2385L6.24428 13.5822L11.4276 13.6771L11.1225 30.3335ZM33.6413 0.990421L3.89235 0.445612C2.46825 0.419532 1.29579 1.5241 1.27038 2.91155L0.723208 32.7896C0.697799 34.1771 1.82903 35.3239 3.25312 35.3499L32.9951 35.8946C34.4174 35.9207 35.6021 34.8181 35.6275 33.4289L36.1747 3.55077C36.2001 2.16507 35.0567 1.01634 33.6343 0.990293L33.6413 0.990421Z"
      fill="url(#paint0_linear_1853_1966)"
    />
  </g>
  <defs>
    <linearGradient
      id="paint0_linear_1853_1966"
      x1="18.7686"
      y1="0.718048"
      x2="18.1293"
      y2="35.6224"
      gradientUnits="userSpaceOnUse"
    >
      <stop stop-color="#6F56B4" />
      <stop offset="1" stop-color="#493187" />
    </linearGradient>
    <clipPath id="clip0_1853_1966">
      <rect
        width="34.9102"
        height="34.9102"
        fill="white"
        transform="translate(1.31641 0.398438) rotate(1.04917)"
      />
    </clipPath>
  </defs>
</svg>