<svg
  xmlns="http://www.w3.org/2000/svg"
  width="34"
  height="32"
  viewBox="0 0 34 32"
  fill="none"
>
  <path
    d="M25.4199 0.559086L8.00777 0.673053C5.91869 0.686726 3.92059 1.52973 2.45305 3.0166C0.985515 4.50348 0.168742 6.51244 0.182416 8.60152L0.280102 23.5262C0.286872 24.5606 0.497319 25.5836 0.899426 26.5366C1.30153 27.4897 1.88743 28.3543 2.62365 29.0809C4.11053 30.5485 6.11949 31.3652 8.20857 31.3516L25.6207 31.2376C27.7084 31.2195 29.7039 30.3752 31.1705 28.8892C32.6371 27.4033 33.4553 25.3969 33.4461 23.3091L33.3484 8.38444C33.3303 6.29673 32.4859 4.30119 31 2.8346C29.5141 1.368 27.5077 0.549802 25.4199 0.559086ZM19.4574 14.3957C18.6446 14.8664 17.7232 15.1171 16.7839 15.1233C15.8447 15.1294 14.92 14.8908 14.1011 14.4308L2.69912 7.98804C2.83738 6.66923 3.45696 5.44768 4.43937 4.55703C5.42178 3.66639 6.69805 3.16918 8.02405 3.1605L25.4362 3.04653C26.7612 3.04149 28.0419 3.52323 29.0351 4.40025C30.0283 5.27728 30.6649 6.48852 30.8238 7.80395L19.4574 14.3957Z"
    fill="url(#paint0_linear_1729_2055)"
  />
  <defs>
    <linearGradient
      id="paint0_linear_1729_2055"
      x1="16.7138"
      y1="0.616069"
      x2="16.9146"
      y2="31.2946"
      gradientUnits="userSpaceOnUse"
    >
      <stop stop-color="#6F56B4" />
      <stop offset="1" stop-color="#493187" />
    </linearGradient>
  </defs>
</svg>