<svg
  xmlns="http://www.w3.org/2000/svg"
  width="31"
  height="36"
  viewBox="0 0 31 36"
  fill="none"
>
  <path
    d="M15.6355 0.76798C17.4993 0.683519 19.3648 0.648783 21.2287 0.564322C21.4237 2.77309 22.2668 5.01093 23.9329 6.5256C25.5757 8.0908 27.8612 8.73949 30.0819 8.91739L30.2687 14.76C28.2027 14.7514 26.1256 14.3947 24.2075 13.56C23.3751 13.2133 22.6141 12.7648 21.8524 12.2914C21.9875 16.518 22.1234 20.7694 22.2328 24.972C22.1985 27.0138 21.5916 29.0491 20.4763 30.7523C18.7006 33.5964 15.5017 35.5155 12.1717 35.6717C10.137 35.8612 8.05513 35.3553 6.28139 34.3667C3.34253 32.7434 1.20211 29.6262 0.79569 26.2544C0.722921 25.535 0.699876 24.814 0.726556 24.0914C0.886973 21.3237 2.17017 18.6446 4.20139 16.7878C6.49656 14.6239 9.79632 13.5229 12.9232 14.0203C13.0164 16.1576 13.0109 18.323 13.0793 20.4612C11.647 20.0341 9.98601 20.2365 8.77071 21.1464C7.86987 21.7725 7.2272 22.689 6.88764 23.7452C6.61313 24.5006 6.71315 25.2938 6.76344 26.0886C7.1878 28.4642 9.51384 30.3809 11.8935 30.0809C13.4847 30.03 14.9951 29.0111 15.7719 27.6175C16.0303 27.1363 16.3127 26.6295 16.3193 26.0569C16.3858 23.4665 16.2286 20.8832 16.17 18.2718C15.9833 12.4292 15.7965 6.58655 15.6355 0.76798Z"
    fill="url(#paint0_linear_1853_1958)"
  />
  <defs>
    <linearGradient
      id="paint0_linear_1853_1958"
      x1="14.8826"
      y1="0.767155"
      x2="15.9948"
      y2="35.5663"
      gradientUnits="userSpaceOnUse"
    >
      <stop stop-color="#6F56B4" />
      <stop offset="1" stop-color="#493187" />
    </linearGradient>
  </defs>
</svg>