<svg width="48" height="48" viewBox="0 0 48 48" fill="none" xmlns="http://www.w3.org/2000/svg">
<path d="M24 16H8C6.93913 16 5.92172 16.4214 5.17157 17.1716C4.42143 17.9217 4 18.9391 4 20V28C4 29.0609 4.42143 30.0783 5.17157 30.8284C5.92172 31.5786 6.93913 32 8 32H10V40C10 40.5304 10.2107 41.0391 10.5858 41.4142C10.9609 41.7893 11.4696 42 12 42H16C16.5304 42 17.0391 41.7893 17.4142 41.4142C17.7893 41.0391 18 40.5304 18 40V32H24L34 40V8L24 16ZM43 24C43 27.42 41.08 30.52 38 32V16C41.06 17.5 43 20.6 43 24Z" fill="white"/>
</svg>
