<svg width="48" height="48" viewBox="0 0 48 48" fill="none" xmlns="http://www.w3.org/2000/svg">
<path d="M36.8082 5.99665C35.2942 4.48865 32.6542 4.49465 31.1522 6.00665L27.5842 9.58865L23.1722 14.0006H14.0002C13.5898 14.0004 13.1894 14.1265 12.8533 14.362C12.5173 14.5975 12.262 14.9309 12.1222 15.3166L4.12216 37.3167C3.85616 38.0466 4.03816 38.8647 4.58616 39.4146L8.58616 43.4146C8.85506 43.6842 9.19553 43.8712 9.56731 43.9534C9.9391 44.0356 10.3266 44.0097 10.6842 43.8786L32.6842 35.8786C33.07 35.7389 33.4033 35.4835 33.6388 35.1475C33.8743 34.8115 34.0004 34.411 34.0002 34.0006V24.8286L38.4142 20.4146L38.4162 20.4126L42.0002 16.8186C42.7562 16.0626 43.1722 15.0566 43.1702 13.9886C43.1702 12.9186 42.7522 11.9126 41.9942 11.1586L36.8082 5.99665ZM30.5862 22.5866C30.4001 22.7721 30.2525 22.9924 30.1519 23.2351C30.0514 23.4778 29.9998 23.738 30.0002 24.0006V32.6006L11.5022 39.3266L20.8442 29.9846C20.8962 29.9866 20.9482 30.0006 21.0002 30.0006C21.5935 30.0006 22.1735 29.8247 22.6669 29.4951C23.1602 29.1654 23.5447 28.6969 23.7718 28.1487C23.9989 27.6005 24.0583 26.9973 23.9425 26.4154C23.8268 25.8334 23.541 25.2989 23.1215 24.8793C22.7019 24.4598 22.1674 24.174 21.5854 24.0583C21.0035 23.9425 20.4003 24.0019 19.8521 24.229C19.3039 24.4561 18.8354 24.8406 18.5057 25.3339C18.1761 25.8273 18.0002 26.4073 18.0002 27.0006C18.0002 27.0526 18.0142 27.1046 18.0162 27.1566L8.67416 36.4986L15.4002 18.0006H24.0002C24.5322 18.0006 25.0402 17.7906 25.4142 17.4146L29.0002 13.8286L34.1722 19.0006L30.5862 22.5866ZM36.9982 16.1706L31.8262 10.9986L33.9842 8.83065L39.1702 13.9926L36.9982 16.1706Z" fill="white"/>
</svg>
