<svg width="454" height="212" viewBox="0 0 454 212" fill="none" xmlns="http://www.w3.org/2000/svg">
<g filter="url(#filter0_d_2306_8858)">
<mask id="path-1-inside-1_2306_8858" fill="white">
<path fill-rule="evenodd" clip-rule="evenodd" d="M36.0627 37.1509C31.2141 39.3727 26.3654 41.5946 21.7102 44.2494C23.699 48.685 25.6878 53.1208 27.6766 57.5567C35.2077 74.3545 42.7394 91.1535 50.2747 107.947C54.9275 105.294 59.7745 103.073 64.6218 100.852C79.4116 94.0764 94.2042 87.2992 103.49 68.2397C103.199 67.5961 102.911 66.9522 102.623 66.3083C102.335 65.664 102.047 65.0197 101.755 64.3758L106.447 60.4392L123.529 98.539H121.301C118.195 98.539 115.679 101.056 115.679 104.161V203.112C115.679 206.218 118.195 208.735 121.301 208.735H331.571C334.677 208.735 337.194 206.218 337.194 203.112V104.161C337.194 101.056 334.677 98.5397 331.571 98.5397H330.471L347.554 60.4392L352.245 64.3758C351.954 65.0195 351.666 65.6637 351.378 66.3077C351.09 66.9518 350.802 67.5959 350.51 68.2397C359.796 87.2992 374.589 94.0764 389.379 100.852C394.226 103.073 399.073 105.294 403.726 107.947C411.263 91.15 418.796 74.3474 426.329 57.546L432.29 44.2494C427.635 41.5946 422.786 39.3727 417.938 37.1509C403.146 30.3725 388.355 23.595 379.071 4.53032C378.719 5.32615 378.362 6.11987 378.005 6.91284L377.983 6.9603C377.851 7.25344 377.719 7.54648 377.588 7.8395L372.896 3.90293L373.639 2.24947L370.959 0L326.781 98.5397H309.99V89.4692C309.99 86.3635 307.473 83.847 304.367 83.847H294.998C293.289 76.6595 290.512 69.8567 286.705 63.5313L293.424 56.7021C295.576 54.5147 295.576 51.005 293.424 48.8168L277.677 32.8069C276.621 31.732 275.176 31.127 273.669 31.127C272.161 31.127 270.717 31.7327 269.66 32.8062L263.042 39.5349C256.862 35.7103 250.215 32.9134 243.19 31.1817V21.546C243.19 18.4403 240.674 15.9238 237.568 15.9238H215.305C212.199 15.9238 209.683 18.4403 209.683 21.546V31.1825C202.66 32.9134 196.01 35.7103 189.827 39.5364L183.215 32.8129C182.158 31.738 180.714 31.133 179.207 31.133C177.7 31.133 176.255 31.738 175.198 32.8122L159.451 48.8175C157.298 51.005 157.298 54.5155 159.45 56.7029L166.168 63.5313C162.362 69.8559 159.585 76.6581 157.875 83.8463H148.505C145.399 83.8463 142.883 86.3628 142.883 89.4685V98.539H127.219L83.0417 0L80.3609 2.24947L81.1042 3.90293L76.4128 7.8395C76.2739 7.53031 76.1346 7.2211 75.9953 6.91176C75.6383 6.11915 75.281 5.32579 74.9289 4.53032C65.6448 23.595 50.8547 30.3725 36.0627 37.1509ZM42.886 37.9849C49.2278 34.9862 55.4451 31.7139 61.0975 27.1805C62.756 30.8753 64.4125 34.5718 66.0693 38.269C67.1317 40.6398 68.1942 43.0109 69.2575 45.3821C63.5998 49.92 57.3798 53.1945 51.0407 56.191C49.9265 53.702 48.811 51.2132 47.6954 48.7244C46.0912 45.1452 44.4868 41.5658 42.886 37.9849ZM82.2151 6.3865L105.333 57.9579L100.642 61.8945C97.481 54.8422 94.319 47.7901 91.157 40.738C86.6114 30.6003 82.0658 20.4624 77.5237 10.3231L82.2151 6.3865ZM89.0785 44.3352C89.6901 45.7012 90.3017 47.0674 90.9136 48.4335C87.1128 55.043 82.5728 60.0093 77.6018 63.9938C75.8972 60.1983 74.1956 56.4021 72.494 52.6055C71.5381 50.4729 70.5822 48.3401 69.6256 46.2073C74.602 42.2183 79.1393 37.2542 82.94 30.6447C84.9911 35.2054 87.0346 39.7697 89.0785 44.3352ZM86.6889 84.2639C81.0334 88.8045 74.8183 92.0795 68.477 95.0733C66.8936 91.547 65.3135 88.0211 63.7329 84.4941C62.5942 81.9531 61.4553 79.4115 60.3147 76.869C66.6619 73.8658 72.8818 70.5913 78.5316 66.0601C81.2481 72.1286 83.9674 78.1949 86.6889 84.2639ZM53.9609 77.3151C50.1631 79.0549 46.3662 80.7941 42.6583 82.749L41.7799 80.7878C39.4163 75.5101 37.0535 70.2344 34.6847 64.9602C38.4171 62.9947 42.2487 61.239 46.0806 59.4832C47.8599 58.6679 49.6392 57.8526 51.4087 57.0162C53.8613 62.4693 56.3051 67.9259 58.7499 73.3848L59.3849 74.8027C57.583 75.6559 55.7719 76.4856 53.9609 77.3151ZM25.2947 58.7456C24.9377 57.953 24.5803 57.1596 24.2283 56.3641C15.5759 61.6615 7.74402 68.7479 2.00006 80.5221C5.70307 88.78 9.40486 97.039 13.1066 105.298C18.9236 118.276 24.7405 131.254 30.5615 144.227C39.8386 125.175 54.6298 118.398 69.4202 111.621C74.2687 109.399 79.1171 107.178 83.7712 104.524C82.9425 102.683 82.1178 100.841 81.2917 98.9962C80.9844 98.31 80.6769 97.6232 80.3689 96.9359C75.7439 99.5755 70.9266 101.785 66.1071 103.995C64.2956 104.825 62.4839 105.656 60.6819 106.51C60.9801 107.171 61.2762 107.831 61.5724 108.491C61.9142 109.253 62.256 110.015 62.6012 110.779C56.2586 113.788 50.0364 117.059 44.3862 121.596C43.0292 118.56 41.6697 115.526 40.3102 112.491C38.9507 109.457 37.5912 106.423 36.2342 103.387C38.4514 101.609 40.766 100.017 43.1351 98.5668C42.5786 97.325 42.022 96.083 41.4653 94.841C38.9318 89.188 36.3977 83.5336 33.8668 77.8794C31.4978 79.3299 29.1858 80.9192 26.966 82.6999C25.6077 79.6656 24.2468 76.6323 22.886 73.5991C21.5251 70.5658 20.1642 67.5326 18.806 64.4983C21.0285 62.7153 23.3378 61.1283 25.7122 59.6733C25.5733 59.3641 25.434 59.0549 25.2947 58.7456ZM35.3018 101.323C30.3254 105.312 25.7908 110.274 21.99 116.884C20.8992 114.451 19.8097 112.019 18.7202 109.587C17.1534 106.089 15.5867 102.591 14.0165 99.0948C17.8119 92.4897 22.3546 87.5212 27.3256 83.5367C29.7782 88.9901 32.2221 94.4468 34.667 99.906L35.3018 101.323ZM392.903 27.1805C398.555 31.7139 404.773 34.9862 411.114 37.9849C409.513 41.5679 407.907 45.1496 406.302 48.731C405.187 51.2176 404.073 53.7042 402.96 56.191C396.621 53.1946 390.401 49.92 384.743 45.3821C385.807 43.0085 386.871 40.635 387.934 38.2618C389.59 34.567 391.245 30.8729 392.903 27.1805ZM348.667 57.9579L371.785 6.3865L376.477 10.3231C371.933 20.4662 367.386 30.6079 362.838 40.7493C359.678 47.7977 356.518 54.8459 353.359 61.8945L348.667 57.9579ZM363.087 48.4335C363.698 47.0685 364.309 45.7035 364.92 44.3387C366.965 39.7721 369.009 35.2065 371.06 30.6447C374.861 37.2542 379.398 42.2183 384.375 46.2073C383.419 48.3382 382.464 50.469 381.509 52.5997L381.447 52.7377C379.765 56.4902 378.083 60.2424 376.399 63.9938C371.428 60.0094 366.888 55.043 363.087 48.4335ZM385.523 95.0733C379.182 92.0795 372.967 88.8045 367.311 84.2639C370.033 78.1949 372.752 72.1286 375.469 66.0601C381.119 70.5913 387.339 73.8658 393.686 76.869C392.544 79.4145 391.403 81.959 390.263 84.5029C388.684 88.0269 387.105 91.5499 385.523 95.0733ZM411.342 82.749C407.634 80.7941 403.837 79.0549 400.04 77.3152C398.229 76.4856 396.417 75.6559 394.615 74.8027L395.257 73.3707L395.267 73.3484C397.706 67.9017 400.145 62.4572 402.592 57.0162C404.361 57.8525 406.14 58.6678 407.919 59.4831L407.92 59.4832C411.752 61.239 415.583 62.9948 419.316 64.9602C416.943 70.2439 414.576 75.529 412.208 80.8162L411.342 82.749ZM429.772 56.3641C429.42 57.16 429.062 57.9538 428.705 58.7468C428.622 58.9304 428.54 59.1139 428.457 59.2974C428.401 59.4227 428.344 59.548 428.288 59.6733C430.663 61.1283 432.972 62.7153 435.194 64.4983C433.838 67.5292 432.478 70.559 431.119 73.5889L431.114 73.5991C429.754 76.6323 428.393 79.6656 427.034 82.6999C424.815 80.9192 422.503 79.3299 420.134 77.8794C417.62 83.4952 415.103 89.1113 412.587 94.726L412.567 94.7702L410.865 98.5668C413.234 100.017 415.549 101.609 417.766 103.387C416.424 106.389 415.08 109.389 413.736 112.39L413.691 112.49C412.331 115.525 410.971 118.56 409.614 121.596C403.964 117.059 397.742 113.788 391.399 110.779C391.744 110.016 392.085 109.255 392.426 108.495C392.723 107.833 393.02 107.172 393.318 106.51C391.516 105.656 389.705 104.825 387.893 103.995C383.074 101.785 378.256 99.5755 373.631 96.9359C373.322 97.6269 373.013 98.3173 372.704 99.0072L372.688 99.0433C371.868 100.873 371.051 102.699 370.229 104.524C374.883 107.178 379.732 109.399 384.58 111.621C399.371 118.398 414.162 125.175 423.439 144.227C429.253 131.269 435.063 118.307 440.873 105.344L440.877 105.334C444.585 97.0634 448.292 88.7922 452 80.5221C446.256 68.7479 438.424 61.6615 429.772 56.3641ZM432.01 116.884C428.21 110.274 423.675 105.312 418.699 101.323L419.342 99.8874L419.355 99.857C421.793 94.4142 424.23 88.9737 426.675 83.5367C431.646 87.5212 436.188 92.4897 439.984 99.0948C438.413 102.592 436.847 106.09 435.28 109.588C434.19 112.02 433.101 114.452 432.01 116.884ZM154.127 95.0914H162.464C165.204 95.0914 167.546 93.1147 168.007 90.4123C169.511 81.5719 172.859 73.3582 177.955 66.0006C179.493 63.7809 179.235 60.7816 177.342 58.8566L171.345 52.7613L179.205 44.7725L185.067 50.7328C187.009 52.7059 190.097 52.9735 192.349 51.3618C199.564 46.1938 207.616 42.801 216.279 41.2778C218.967 40.8047 220.927 38.4696 220.927 35.7402V27.1682H231.946V35.7395C231.946 38.4689 233.906 40.8032 236.593 41.277C245.259 42.8025 253.31 46.1953 260.52 51.3595C262.771 52.9727 265.86 52.7044 267.801 50.7321L273.669 44.7673L281.529 52.7591L275.53 58.8566C273.637 60.7816 273.379 63.7817 274.917 66.0013C280.016 73.3597 283.363 81.5726 284.864 90.4115C285.323 93.1139 287.665 95.0922 290.407 95.0922H298.745V98.5405H256.316C255.176 82.835 242.217 70.4076 226.437 70.4076C210.657 70.4076 197.696 82.835 196.556 98.5405H154.127V95.0914ZM207.842 98.5397C208.936 89.0434 216.855 81.6513 226.44 81.6513C236.019 81.6513 243.936 89.0434 245.03 98.5397H207.842ZM325.949 197.49H126.923V109.783H325.949V197.49ZM146.039 134.522H158.408C161.513 134.522 164.03 132.005 164.03 128.899C164.03 125.794 161.513 123.277 158.408 123.277H146.039C142.933 123.277 140.417 125.794 140.417 128.899C140.417 132.004 142.933 134.522 146.039 134.522ZM195.514 134.522H183.145C180.039 134.522 177.523 132.004 177.523 128.899C177.523 125.794 180.039 123.277 183.145 123.277H195.514C198.62 123.277 201.136 125.794 201.136 128.899C201.136 132.005 198.62 134.522 195.514 134.522ZM220.252 134.522H232.621C235.727 134.522 238.243 132.005 238.243 128.899C238.243 125.794 235.727 123.277 232.621 123.277H220.252C217.146 123.277 214.63 125.794 214.63 128.899C214.63 132.004 217.146 134.522 220.252 134.522ZM269.727 134.522H257.358C254.253 134.522 251.736 132.004 251.736 128.899C251.736 125.794 254.253 123.277 257.358 123.277H269.727C272.833 123.277 275.349 125.794 275.349 128.899C275.349 132.005 272.833 134.522 269.727 134.522ZM294.465 134.522H306.834C309.939 134.522 312.456 132.005 312.456 128.899C312.456 125.794 309.939 123.277 306.834 123.277H294.465C291.359 123.277 288.843 125.794 288.843 128.899C288.843 132.004 291.359 134.522 294.465 134.522ZM158.408 183.997H146.039C142.933 183.997 140.417 181.48 140.417 178.375C140.417 175.269 142.933 172.753 146.039 172.753H158.408C161.513 172.753 164.03 175.269 164.03 178.375C164.03 181.481 161.513 183.997 158.408 183.997ZM269.727 172.753H182.958C179.852 172.753 177.336 175.269 177.336 178.375C177.336 181.481 179.852 183.997 182.958 183.997H269.727C272.833 183.997 275.349 181.481 275.349 178.375C275.349 175.269 272.833 172.753 269.727 172.753ZM294.465 172.753H306.834C309.939 172.753 312.456 175.269 312.456 178.375C312.456 181.481 309.939 183.997 306.834 183.997H294.465C291.359 183.997 288.843 181.481 288.843 178.375C288.843 175.269 291.359 172.753 294.465 172.753ZM158.97 153.637C158.97 156.743 161.486 159.259 164.592 159.259H176.961C180.066 159.259 182.583 156.743 182.583 153.637C182.583 150.531 180.066 148.015 176.961 148.015H164.592C161.486 148.015 158.97 150.531 158.97 153.637ZM201.699 159.259C198.593 159.259 196.076 156.743 196.076 153.637C196.076 150.531 198.593 148.015 201.699 148.015H214.067C217.173 148.015 219.69 150.531 219.69 153.637C219.69 156.743 217.173 159.259 214.067 159.259H201.699ZM233.183 153.637C233.183 156.743 235.699 159.259 238.805 159.259H251.174C254.28 159.259 256.796 156.743 256.796 153.637C256.796 150.531 254.28 148.015 251.174 148.015H238.805C235.699 148.015 233.183 150.531 233.183 153.637ZM275.911 159.259C272.806 159.259 270.289 156.743 270.289 153.637C270.289 150.531 272.806 148.015 275.911 148.015H288.28C291.386 148.015 293.902 150.531 293.902 153.637C293.902 156.743 291.386 159.259 288.28 159.259H275.911Z"/>
</mask>
<path fill-rule="evenodd" clip-rule="evenodd" d="M36.0627 37.1509C31.2141 39.3727 26.3654 41.5946 21.7102 44.2494C23.699 48.685 25.6878 53.1208 27.6766 57.5567C35.2077 74.3545 42.7394 91.1535 50.2747 107.947C54.9275 105.294 59.7745 103.073 64.6218 100.852C79.4116 94.0764 94.2042 87.2992 103.49 68.2397C103.199 67.5961 102.911 66.9522 102.623 66.3083C102.335 65.664 102.047 65.0197 101.755 64.3758L106.447 60.4392L123.529 98.539H121.301C118.195 98.539 115.679 101.056 115.679 104.161V203.112C115.679 206.218 118.195 208.735 121.301 208.735H331.571C334.677 208.735 337.194 206.218 337.194 203.112V104.161C337.194 101.056 334.677 98.5397 331.571 98.5397H330.471L347.554 60.4392L352.245 64.3758C351.954 65.0195 351.666 65.6637 351.378 66.3077C351.09 66.9518 350.802 67.5959 350.51 68.2397C359.796 87.2992 374.589 94.0764 389.379 100.852C394.226 103.073 399.073 105.294 403.726 107.947C411.263 91.15 418.796 74.3474 426.329 57.546L432.29 44.2494C427.635 41.5946 422.786 39.3727 417.938 37.1509C403.146 30.3725 388.355 23.595 379.071 4.53032C378.719 5.32615 378.362 6.11987 378.005 6.91284L377.983 6.9603C377.851 7.25344 377.719 7.54648 377.588 7.8395L372.896 3.90293L373.639 2.24947L370.959 0L326.781 98.5397H309.99V89.4692C309.99 86.3635 307.473 83.847 304.367 83.847H294.998C293.289 76.6595 290.512 69.8567 286.705 63.5313L293.424 56.7021C295.576 54.5147 295.576 51.005 293.424 48.8168L277.677 32.8069C276.621 31.732 275.176 31.127 273.669 31.127C272.161 31.127 270.717 31.7327 269.66 32.8062L263.042 39.5349C256.862 35.7103 250.215 32.9134 243.19 31.1817V21.546C243.19 18.4403 240.674 15.9238 237.568 15.9238H215.305C212.199 15.9238 209.683 18.4403 209.683 21.546V31.1825C202.66 32.9134 196.01 35.7103 189.827 39.5364L183.215 32.8129C182.158 31.738 180.714 31.133 179.207 31.133C177.7 31.133 176.255 31.738 175.198 32.8122L159.451 48.8175C157.298 51.005 157.298 54.5155 159.45 56.7029L166.168 63.5313C162.362 69.8559 159.585 76.6581 157.875 83.8463H148.505C145.399 83.8463 142.883 86.3628 142.883 89.4685V98.539H127.219L83.0417 0L80.3609 2.24947L81.1042 3.90293L76.4128 7.8395C76.2739 7.53031 76.1346 7.2211 75.9953 6.91176C75.6383 6.11915 75.281 5.32579 74.9289 4.53032C65.6448 23.595 50.8547 30.3725 36.0627 37.1509ZM42.886 37.9849C49.2278 34.9862 55.4451 31.7139 61.0975 27.1805C62.756 30.8753 64.4125 34.5718 66.0693 38.269C67.1317 40.6398 68.1942 43.0109 69.2575 45.3821C63.5998 49.92 57.3798 53.1945 51.0407 56.191C49.9265 53.702 48.811 51.2132 47.6954 48.7244C46.0912 45.1452 44.4868 41.5658 42.886 37.9849ZM82.2151 6.3865L105.333 57.9579L100.642 61.8945C97.481 54.8422 94.319 47.7901 91.157 40.738C86.6114 30.6003 82.0658 20.4624 77.5237 10.3231L82.2151 6.3865ZM89.0785 44.3352C89.6901 45.7012 90.3017 47.0674 90.9136 48.4335C87.1128 55.043 82.5728 60.0093 77.6018 63.9938C75.8972 60.1983 74.1956 56.4021 72.494 52.6055C71.5381 50.4729 70.5822 48.3401 69.6256 46.2073C74.602 42.2183 79.1393 37.2542 82.94 30.6447C84.9911 35.2054 87.0346 39.7697 89.0785 44.3352ZM86.6889 84.2639C81.0334 88.8045 74.8183 92.0795 68.477 95.0733C66.8936 91.547 65.3135 88.0211 63.7329 84.4941C62.5942 81.9531 61.4553 79.4115 60.3147 76.869C66.6619 73.8658 72.8818 70.5913 78.5316 66.0601C81.2481 72.1286 83.9674 78.1949 86.6889 84.2639ZM53.9609 77.3151C50.1631 79.0549 46.3662 80.7941 42.6583 82.749L41.7799 80.7878C39.4163 75.5101 37.0535 70.2344 34.6847 64.9602C38.4171 62.9947 42.2487 61.239 46.0806 59.4832C47.8599 58.6679 49.6392 57.8526 51.4087 57.0162C53.8613 62.4693 56.3051 67.9259 58.7499 73.3848L59.3849 74.8027C57.583 75.6559 55.7719 76.4856 53.9609 77.3151ZM25.2947 58.7456C24.9377 57.953 24.5803 57.1596 24.2283 56.3641C15.5759 61.6615 7.74402 68.7479 2.00006 80.5221C5.70307 88.78 9.40486 97.039 13.1066 105.298C18.9236 118.276 24.7405 131.254 30.5615 144.227C39.8386 125.175 54.6298 118.398 69.4202 111.621C74.2687 109.399 79.1171 107.178 83.7712 104.524C82.9425 102.683 82.1178 100.841 81.2917 98.9962C80.9844 98.31 80.6769 97.6232 80.3689 96.9359C75.7439 99.5755 70.9266 101.785 66.1071 103.995C64.2956 104.825 62.4839 105.656 60.6819 106.51C60.9801 107.171 61.2762 107.831 61.5724 108.491C61.9142 109.253 62.256 110.015 62.6012 110.779C56.2586 113.788 50.0364 117.059 44.3862 121.596C43.0292 118.56 41.6697 115.526 40.3102 112.491C38.9507 109.457 37.5912 106.423 36.2342 103.387C38.4514 101.609 40.766 100.017 43.1351 98.5668C42.5786 97.325 42.022 96.083 41.4653 94.841C38.9318 89.188 36.3977 83.5336 33.8668 77.8794C31.4978 79.3299 29.1858 80.9192 26.966 82.6999C25.6077 79.6656 24.2468 76.6323 22.886 73.5991C21.5251 70.5658 20.1642 67.5326 18.806 64.4983C21.0285 62.7153 23.3378 61.1283 25.7122 59.6733C25.5733 59.3641 25.434 59.0549 25.2947 58.7456ZM35.3018 101.323C30.3254 105.312 25.7908 110.274 21.99 116.884C20.8992 114.451 19.8097 112.019 18.7202 109.587C17.1534 106.089 15.5867 102.591 14.0165 99.0948C17.8119 92.4897 22.3546 87.5212 27.3256 83.5367C29.7782 88.9901 32.2221 94.4468 34.667 99.906L35.3018 101.323ZM392.903 27.1805C398.555 31.7139 404.773 34.9862 411.114 37.9849C409.513 41.5679 407.907 45.1496 406.302 48.731C405.187 51.2176 404.073 53.7042 402.96 56.191C396.621 53.1946 390.401 49.92 384.743 45.3821C385.807 43.0085 386.871 40.635 387.934 38.2618C389.59 34.567 391.245 30.8729 392.903 27.1805ZM348.667 57.9579L371.785 6.3865L376.477 10.3231C371.933 20.4662 367.386 30.6079 362.838 40.7493C359.678 47.7977 356.518 54.8459 353.359 61.8945L348.667 57.9579ZM363.087 48.4335C363.698 47.0685 364.309 45.7035 364.92 44.3387C366.965 39.7721 369.009 35.2065 371.06 30.6447C374.861 37.2542 379.398 42.2183 384.375 46.2073C383.419 48.3382 382.464 50.469 381.509 52.5997L381.447 52.7377C379.765 56.4902 378.083 60.2424 376.399 63.9938C371.428 60.0094 366.888 55.043 363.087 48.4335ZM385.523 95.0733C379.182 92.0795 372.967 88.8045 367.311 84.2639C370.033 78.1949 372.752 72.1286 375.469 66.0601C381.119 70.5913 387.339 73.8658 393.686 76.869C392.544 79.4145 391.403 81.959 390.263 84.5029C388.684 88.0269 387.105 91.5499 385.523 95.0733ZM411.342 82.749C407.634 80.7941 403.837 79.0549 400.04 77.3152C398.229 76.4856 396.417 75.6559 394.615 74.8027L395.257 73.3707L395.267 73.3484C397.706 67.9017 400.145 62.4572 402.592 57.0162C404.361 57.8525 406.14 58.6678 407.919 59.4831L407.92 59.4832C411.752 61.239 415.583 62.9948 419.316 64.9602C416.943 70.2439 414.576 75.529 412.208 80.8162L411.342 82.749ZM429.772 56.3641C429.42 57.16 429.062 57.9538 428.705 58.7468C428.622 58.9304 428.54 59.1139 428.457 59.2974C428.401 59.4227 428.344 59.548 428.288 59.6733C430.663 61.1283 432.972 62.7153 435.194 64.4983C433.838 67.5292 432.478 70.559 431.119 73.5889L431.114 73.5991C429.754 76.6323 428.393 79.6656 427.034 82.6999C424.815 80.9192 422.503 79.3299 420.134 77.8794C417.62 83.4952 415.103 89.1113 412.587 94.726L412.567 94.7702L410.865 98.5668C413.234 100.017 415.549 101.609 417.766 103.387C416.424 106.389 415.08 109.389 413.736 112.39L413.691 112.49C412.331 115.525 410.971 118.56 409.614 121.596C403.964 117.059 397.742 113.788 391.399 110.779C391.744 110.016 392.085 109.255 392.426 108.495C392.723 107.833 393.02 107.172 393.318 106.51C391.516 105.656 389.705 104.825 387.893 103.995C383.074 101.785 378.256 99.5755 373.631 96.9359C373.322 97.6269 373.013 98.3173 372.704 99.0072L372.688 99.0433C371.868 100.873 371.051 102.699 370.229 104.524C374.883 107.178 379.732 109.399 384.58 111.621C399.371 118.398 414.162 125.175 423.439 144.227C429.253 131.269 435.063 118.307 440.873 105.344L440.877 105.334C444.585 97.0634 448.292 88.7922 452 80.5221C446.256 68.7479 438.424 61.6615 429.772 56.3641ZM432.01 116.884C428.21 110.274 423.675 105.312 418.699 101.323L419.342 99.8874L419.355 99.857C421.793 94.4142 424.23 88.9737 426.675 83.5367C431.646 87.5212 436.188 92.4897 439.984 99.0948C438.413 102.592 436.847 106.09 435.28 109.588C434.19 112.02 433.101 114.452 432.01 116.884ZM154.127 95.0914H162.464C165.204 95.0914 167.546 93.1147 168.007 90.4123C169.511 81.5719 172.859 73.3582 177.955 66.0006C179.493 63.7809 179.235 60.7816 177.342 58.8566L171.345 52.7613L179.205 44.7725L185.067 50.7328C187.009 52.7059 190.097 52.9735 192.349 51.3618C199.564 46.1938 207.616 42.801 216.279 41.2778C218.967 40.8047 220.927 38.4696 220.927 35.7402V27.1682H231.946V35.7395C231.946 38.4689 233.906 40.8032 236.593 41.277C245.259 42.8025 253.31 46.1953 260.52 51.3595C262.771 52.9727 265.86 52.7044 267.801 50.7321L273.669 44.7673L281.529 52.7591L275.53 58.8566C273.637 60.7816 273.379 63.7817 274.917 66.0013C280.016 73.3597 283.363 81.5726 284.864 90.4115C285.323 93.1139 287.665 95.0922 290.407 95.0922H298.745V98.5405H256.316C255.176 82.835 242.217 70.4076 226.437 70.4076C210.657 70.4076 197.696 82.835 196.556 98.5405H154.127V95.0914ZM207.842 98.5397C208.936 89.0434 216.855 81.6513 226.44 81.6513C236.019 81.6513 243.936 89.0434 245.03 98.5397H207.842ZM325.949 197.49H126.923V109.783H325.949V197.49ZM146.039 134.522H158.408C161.513 134.522 164.03 132.005 164.03 128.899C164.03 125.794 161.513 123.277 158.408 123.277H146.039C142.933 123.277 140.417 125.794 140.417 128.899C140.417 132.004 142.933 134.522 146.039 134.522ZM195.514 134.522H183.145C180.039 134.522 177.523 132.004 177.523 128.899C177.523 125.794 180.039 123.277 183.145 123.277H195.514C198.62 123.277 201.136 125.794 201.136 128.899C201.136 132.005 198.62 134.522 195.514 134.522ZM220.252 134.522H232.621C235.727 134.522 238.243 132.005 238.243 128.899C238.243 125.794 235.727 123.277 232.621 123.277H220.252C217.146 123.277 214.63 125.794 214.63 128.899C214.63 132.004 217.146 134.522 220.252 134.522ZM269.727 134.522H257.358C254.253 134.522 251.736 132.004 251.736 128.899C251.736 125.794 254.253 123.277 257.358 123.277H269.727C272.833 123.277 275.349 125.794 275.349 128.899C275.349 132.005 272.833 134.522 269.727 134.522ZM294.465 134.522H306.834C309.939 134.522 312.456 132.005 312.456 128.899C312.456 125.794 309.939 123.277 306.834 123.277H294.465C291.359 123.277 288.843 125.794 288.843 128.899C288.843 132.004 291.359 134.522 294.465 134.522ZM158.408 183.997H146.039C142.933 183.997 140.417 181.48 140.417 178.375C140.417 175.269 142.933 172.753 146.039 172.753H158.408C161.513 172.753 164.03 175.269 164.03 178.375C164.03 181.481 161.513 183.997 158.408 183.997ZM269.727 172.753H182.958C179.852 172.753 177.336 175.269 177.336 178.375C177.336 181.481 179.852 183.997 182.958 183.997H269.727C272.833 183.997 275.349 181.481 275.349 178.375C275.349 175.269 272.833 172.753 269.727 172.753ZM294.465 172.753H306.834C309.939 172.753 312.456 175.269 312.456 178.375C312.456 181.481 309.939 183.997 306.834 183.997H294.465C291.359 183.997 288.843 181.481 288.843 178.375C288.843 175.269 291.359 172.753 294.465 172.753ZM158.97 153.637C158.97 156.743 161.486 159.259 164.592 159.259H176.961C180.066 159.259 182.583 156.743 182.583 153.637C182.583 150.531 180.066 148.015 176.961 148.015H164.592C161.486 148.015 158.97 150.531 158.97 153.637ZM201.699 159.259C198.593 159.259 196.076 156.743 196.076 153.637C196.076 150.531 198.593 148.015 201.699 148.015H214.067C217.173 148.015 219.69 150.531 219.69 153.637C219.69 156.743 217.173 159.259 214.067 159.259H201.699ZM233.183 153.637C233.183 156.743 235.699 159.259 238.805 159.259H251.174C254.28 159.259 256.796 156.743 256.796 153.637C256.796 150.531 254.28 148.015 251.174 148.015H238.805C235.699 148.015 233.183 150.531 233.183 153.637ZM275.911 159.259C272.806 159.259 270.289 156.743 270.289 153.637C270.289 150.531 272.806 148.015 275.911 148.015H288.28C291.386 148.015 293.902 150.531 293.902 153.637C293.902 156.743 291.386 159.259 288.28 159.259H275.911Z" fill="url(#paint0_linear_2306_8858)"/>
<path d="M21.7102 44.2494L20.2241 41.6434L17.8588 42.9923L18.9728 45.4768L21.7102 44.2494ZM36.0627 37.1509L34.813 34.4236L36.0627 37.1509ZM27.6766 57.5567L24.9391 58.784V58.784L27.6766 57.5567ZM50.2747 107.947L47.5377 109.175L48.8904 112.189L51.7607 110.553L50.2747 107.947ZM64.6218 100.852L65.8714 103.58H65.8714L64.6218 100.852ZM103.49 68.2397L106.187 69.5536L106.804 68.287L106.223 67.0033L103.49 68.2397ZM102.623 66.3083L105.361 65.0835V65.0835L102.623 66.3083ZM101.755 64.3758L99.8269 62.0777L98.0844 63.5398L99.0219 65.6122L101.755 64.3758ZM106.447 60.4392L109.184 59.2119L107.56 55.589L104.518 58.1411L106.447 60.4392ZM123.529 98.539V101.539H128.162L126.266 97.3117L123.529 98.539ZM330.471 98.5397L327.734 97.3124L325.838 101.54H330.471V98.5397ZM347.554 60.4392L349.482 58.1411L346.441 55.589L344.816 59.2119L347.554 60.4392ZM352.245 64.3758L354.978 65.6122L355.916 63.5398L354.173 62.0777L352.245 64.3758ZM351.378 66.3077L354.116 67.5326L354.116 67.5325L351.378 66.3077ZM350.51 68.2397L347.777 67.0033L347.196 68.287L347.814 69.5536L350.51 68.2397ZM389.379 100.852L388.129 103.58L389.379 100.852ZM403.726 107.947L402.24 110.553L405.11 112.189L406.463 109.175L403.726 107.947ZM426.329 57.546L423.591 56.3187V56.3187L426.329 57.546ZM432.29 44.2494L435.028 45.4767L436.142 42.9922L433.776 41.6434L432.29 44.2494ZM417.938 37.1509L419.187 34.4236V34.4236L417.938 37.1509ZM379.071 4.53032L381.769 3.21685L378.941 -2.58905L376.328 3.31631L379.071 4.53032ZM378.005 6.91284L375.269 5.68077L375.268 5.68288L378.005 6.91284ZM377.983 6.9603L380.719 8.19245L380.72 8.19026L377.983 6.9603ZM377.588 7.8395L375.659 10.1376L378.698 12.6879L380.324 9.06878L377.588 7.8395ZM372.896 3.90293L370.16 2.6729L369.23 4.74251L370.968 6.20107L372.896 3.90293ZM373.639 2.24947L376.376 3.4795L377.306 1.4099L375.568 -0.0486626L373.639 2.24947ZM370.959 0L372.887 -2.29813L369.845 -4.85034L368.221 -1.22727L370.959 0ZM326.781 98.5397V101.54H328.724L329.519 99.767L326.781 98.5397ZM309.99 98.5397H306.99V101.54H309.99V98.5397ZM294.998 83.847L292.079 84.5407L292.627 86.847H294.998V83.847ZM286.705 63.5313L284.566 61.4273L282.935 63.0854L284.134 65.0784L286.705 63.5313ZM293.424 56.7021L291.285 54.5981L291.285 54.5982L293.424 56.7021ZM293.424 48.8168L295.562 46.7131V46.7131L293.424 48.8168ZM277.677 32.8069L275.537 34.9095L275.538 34.9106L277.677 32.8069ZM269.66 32.8062L267.523 30.7014L267.522 30.7025L269.66 32.8062ZM263.042 39.5349L261.463 42.0859L263.501 43.3467L265.181 41.6386L263.042 39.5349ZM243.19 31.1817H240.19V33.532L242.472 34.0946L243.19 31.1817ZM209.683 31.1825L210.401 34.0953L212.683 33.5329V31.1825H209.683ZM189.827 39.5364L187.689 41.64L189.369 43.3483L191.406 42.0874L189.827 39.5364ZM183.215 32.8129L181.076 34.9163L181.076 34.9165L183.215 32.8129ZM175.198 32.8122L177.337 34.9162L177.338 34.9155L175.198 32.8122ZM159.451 48.8175L161.589 50.9219L161.59 50.9216L159.451 48.8175ZM159.45 56.7029L161.589 54.5989L161.589 54.5989L159.45 56.7029ZM166.168 63.5313L168.739 65.0783L169.938 63.0854L168.307 61.4273L166.168 63.5313ZM157.875 83.8463V86.8463H160.245L160.794 84.5405L157.875 83.8463ZM142.883 98.539V101.539H145.883V98.539H142.883ZM127.219 98.539L124.481 99.7663L125.276 101.539H127.219V98.539ZM83.0417 0L85.7792 -1.22727L84.1549 -4.85033L81.1133 -2.29814L83.0417 0ZM80.3609 2.24947L78.4325 -0.048668L76.6943 1.40988L77.6247 3.47949L80.3609 2.24947ZM81.1042 3.90293L83.0326 6.20107L84.7708 4.74251L83.8405 2.67291L81.1042 3.90293ZM76.4128 7.8395L73.6762 9.06883L75.302 12.6878L78.3412 10.1376L76.4128 7.8395ZM75.9953 6.91176L78.7307 5.67972L78.7306 5.67971L75.9953 6.91176ZM74.9289 4.53032L77.6723 3.31627L75.059 -2.58892L72.2317 3.21685L74.9289 4.53032ZM61.0975 27.1805L63.8344 25.952L62.2462 22.4135L59.2205 24.8402L61.0975 27.1805ZM42.886 37.9849L41.6036 35.2728L38.9487 36.5282L40.1472 39.2093L42.886 37.9849ZM66.0693 38.269L68.807 37.0422V37.0422L66.0693 38.269ZM69.2575 45.3821L71.1346 47.7223L72.944 46.271L71.9949 44.1546L69.2575 45.3821ZM51.0407 56.191L48.3025 57.4167L49.5538 60.2121L52.3227 58.9033L51.0407 56.191ZM47.6954 48.7244L50.433 47.4973L47.6954 48.7244ZM105.333 57.9579L107.261 60.2561L108.998 58.7991L108.071 56.7308L105.333 57.9579ZM82.2151 6.3865L84.9526 5.15934L83.3284 1.53607L80.2867 4.08836L82.2151 6.3865ZM100.642 61.8945L97.904 63.1214L99.5281 66.7451L102.57 64.1926L100.642 61.8945ZM91.157 40.738L88.4195 41.9654V41.9654L91.157 40.738ZM77.5237 10.3231L75.5953 8.02493L73.8595 9.48151L74.7859 11.5495L77.5237 10.3231ZM90.9136 48.4335L93.5142 49.929L94.2767 48.6031L93.6515 47.2073L90.9136 48.4335ZM89.0785 44.3352L86.3404 45.561L89.0785 44.3352ZM77.6018 63.9938L74.8651 65.2229L76.4533 68.7591L79.4781 66.3347L77.6018 63.9938ZM72.494 52.6055L75.2316 51.3785V51.3785L72.494 52.6055ZM69.6256 46.2073L67.7492 43.8665L65.9387 45.3177L66.8883 47.4349L69.6256 46.2073ZM82.94 30.6447L85.6761 29.4142L83.2671 24.0579L80.3394 29.1492L82.94 30.6447ZM68.477 95.0733L65.7402 96.3022L66.9927 99.0915L69.7577 97.7861L68.477 95.0733ZM86.6889 84.2639L88.5671 86.6033L90.3749 85.1518L89.4263 83.0364L86.6889 84.2639ZM63.7329 84.4941L66.4706 83.2673L63.7329 84.4941ZM60.3147 76.869L59.0316 74.1572L56.3742 75.4146L57.5775 78.0969L60.3147 76.869ZM78.5316 66.0601L81.2697 64.8343L79.6834 61.2906L76.6546 63.7198L78.5316 66.0601ZM42.6583 82.749L39.9203 83.9752L41.2278 86.8946L44.0574 85.4028L42.6583 82.749ZM53.9609 77.3151L52.7115 74.5877L53.9609 77.3151ZM41.7799 80.7878L39.042 82.014L39.042 82.014L41.7799 80.7878ZM34.6847 64.9602L33.2869 62.3058L30.7936 63.6188L31.9481 66.1893L34.6847 64.9602ZM46.0806 59.4832L47.3303 62.2105V62.2105L46.0806 59.4832ZM51.4087 57.0162L54.1448 55.7857L52.8908 52.9974L50.1268 54.3039L51.4087 57.0162ZM58.7499 73.3848L56.012 74.6111L56.012 74.6111L58.7499 73.3848ZM59.3849 74.8027L60.6688 77.5141L63.3235 76.2571L62.1229 73.5765L59.3849 74.8027ZM24.2283 56.3641L26.9717 55.1501L25.5847 52.0161L22.6618 53.8056L24.2283 56.3641ZM25.2947 58.7456L22.5593 59.9776L22.5593 59.9776L25.2947 58.7456ZM2.00006 80.5221L-0.696209 79.2067L-1.31177 80.4685L-0.737329 81.7496L2.00006 80.5221ZM13.1066 105.298L15.8442 104.071L13.1066 105.298ZM30.5615 144.227L27.8244 145.455L30.4504 151.307L33.2587 145.54L30.5615 144.227ZM69.4202 111.621L70.6699 114.348H70.6699L69.4202 111.621ZM83.7712 104.524L85.2573 107.13L87.6263 105.779L86.5068 103.293L83.7712 104.524ZM81.2917 98.9962L84.0297 97.7703L84.0297 97.7703L81.2917 98.9962ZM80.3689 96.9359L83.1066 95.7092L81.7542 92.6911L78.8819 94.3304L80.3689 96.9359ZM66.1071 103.995L67.3576 106.722V106.722L66.1071 103.995ZM60.6819 106.51L59.3973 103.799L56.7369 105.06L57.9471 107.743L60.6819 106.51ZM61.5724 108.491L58.8353 109.719L58.8353 109.719L61.5724 108.491ZM62.6012 110.779L63.8869 113.49L66.5473 112.228L65.3353 109.544L62.6012 110.779ZM44.3862 121.596L41.6474 122.82L43.2336 126.368L46.2643 123.935L44.3862 121.596ZM40.3102 112.491L37.5724 113.718L40.3102 112.491ZM36.2342 103.387L34.3571 101.047L32.5499 102.497L33.4954 104.612L36.2342 103.387ZM43.1351 98.5668L44.7016 101.125L46.9517 99.7477L45.8727 97.34L43.1351 98.5668ZM41.4653 94.841L38.7277 96.068V96.068L41.4653 94.841ZM33.8668 77.8794L36.6051 76.6538L35.2108 73.5389L32.3004 75.3209L33.8668 77.8794ZM26.966 82.6999L24.2278 83.9256L25.8143 87.4697L28.8432 85.04L26.966 82.6999ZM22.886 73.5991L20.1488 74.8271H20.1488L22.886 73.5991ZM18.806 64.4983L16.9287 62.1582L15.1208 63.6085L16.0678 65.724L18.806 64.4983ZM25.7122 59.6733L27.2796 62.2313L29.5305 60.852L28.4488 58.444L25.7122 59.6733ZM21.99 116.884L19.2527 118.111L21.6592 123.477L24.5907 118.379L21.99 116.884ZM35.3018 101.323L37.1781 103.664L38.9876 102.214L38.0397 100.097L35.3018 101.323ZM18.7202 109.587L21.4581 108.36H21.4581L18.7202 109.587ZM14.0165 99.0948L11.4153 97.6001L10.6526 98.9274L11.2798 100.324L14.0165 99.0948ZM27.3256 83.5367L30.0616 82.3062L28.4724 78.7727L25.4493 81.1959L27.3256 83.5367ZM34.667 99.906L31.929 101.132L31.9291 101.132L34.667 99.906ZM411.114 37.9849L413.853 39.2093L415.052 36.5282L412.397 35.2728L411.114 37.9849ZM392.903 27.1805L394.78 24.8402L391.754 22.4135L390.166 25.952L392.903 27.1805ZM406.302 48.731L409.04 49.958V49.958L406.302 48.731ZM402.96 56.191L401.678 58.9033L404.447 60.2121L405.698 57.4167L402.96 56.191ZM384.743 45.3821L382.005 44.1546L381.056 46.271L382.866 47.7223L384.743 45.3821ZM387.934 38.2618L385.197 37.035V37.035L387.934 38.2618ZM371.785 6.3865L373.714 4.08836L370.672 1.53607L369.048 5.15934L371.785 6.3865ZM348.667 57.9579L345.93 56.7308L345.003 58.7991L346.739 60.2561L348.667 57.9579ZM376.477 10.3231L379.215 11.5495L380.141 9.48151L378.405 8.02493L376.477 10.3231ZM362.838 40.7493L360.101 39.5219L362.838 40.7493ZM353.359 61.8945L351.43 64.1926L354.472 66.7451L356.096 63.1214L353.359 61.8945ZM364.92 44.3387L367.658 45.5645V45.5645L364.92 44.3387ZM363.087 48.4335L360.349 47.2072L359.724 48.6031L360.486 49.929L363.087 48.4335ZM371.06 30.6447L373.661 29.1492L370.733 24.0579L368.324 29.4142L371.06 30.6447ZM384.375 46.2073L387.112 47.4349L388.062 45.3177L386.251 43.8665L384.375 46.2073ZM381.509 52.5997L384.246 53.8273L384.247 53.8267L381.509 52.5997ZM381.447 52.7377L378.71 51.5101L378.71 51.5107L381.447 52.7377ZM376.399 63.9938L374.522 66.3347L377.547 68.7591L379.135 65.2229L376.399 63.9938ZM367.311 84.2639L364.574 83.0364L363.625 85.1518L365.433 86.6033L367.311 84.2639ZM385.523 95.0733L384.243 97.7861L387.008 99.0915L388.26 96.3022L385.523 95.0733ZM375.469 66.0601L377.346 63.7198L374.317 61.2906L372.731 64.8343L375.469 66.0601ZM393.686 76.869L396.423 78.0969L397.626 75.4146L394.969 74.1572L393.686 76.869ZM390.263 84.5029L393.001 85.7297L390.263 84.5029ZM400.04 77.3152L401.289 74.5877V74.5877L400.04 77.3152ZM411.342 82.749L409.943 85.4028L412.773 86.8946L414.08 83.9753L411.342 82.749ZM394.615 74.8027L391.877 73.5765L390.677 76.2571L393.332 77.5141L394.615 74.8027ZM395.257 73.3707L392.519 72.1439L392.519 72.1445L395.257 73.3707ZM395.267 73.3484L398.004 74.5752L398.005 74.5747L395.267 73.3484ZM402.592 57.0162L403.874 54.3039L401.11 52.9974L399.856 55.7857L402.592 57.0162ZM407.919 59.4831L409.169 56.7559L409.169 56.7558L407.919 59.4831ZM407.92 59.4832L406.67 62.2104L406.67 62.2105L407.92 59.4832ZM419.316 64.9602L422.052 66.1893L423.207 63.6188L420.713 62.3058L419.316 64.9602ZM412.208 80.8162L414.946 82.0424V82.0424L412.208 80.8162ZM428.705 58.7468L431.44 59.9789L431.44 59.9789L428.705 58.7468ZM429.772 56.3641L431.339 53.8056L428.416 52.0161L427.029 55.1501L429.772 56.3641ZM428.457 59.2974L431.193 60.5287L431.193 60.5285L428.457 59.2974ZM428.288 59.6733L425.552 58.4441L424.47 60.8521L426.721 62.2313L428.288 59.6733ZM435.194 64.4983L437.933 65.724L438.88 63.6085L437.072 62.1582L435.194 64.4983ZM431.119 73.5889L433.855 74.8187L433.856 74.8169L431.119 73.5889ZM431.114 73.5991L428.378 72.3693L428.377 72.3711L431.114 73.5991ZM427.034 82.6999L425.157 85.04L428.186 87.4697L429.773 83.9256L427.034 82.6999ZM420.134 77.8794L421.7 75.3209L418.79 73.5389L417.395 76.6538L420.134 77.8794ZM412.587 94.726L409.849 93.4991L409.848 93.5013L412.587 94.726ZM412.567 94.7702L415.304 95.9971L415.305 95.9949L412.567 94.7702ZM410.865 98.5668L408.128 97.3399L407.049 99.7477L409.299 101.125L410.865 98.5668ZM417.766 103.387L420.505 104.612L421.45 102.497L419.643 101.047L417.766 103.387ZM413.736 112.39L416.473 113.617L416.473 113.617L413.736 112.39ZM413.691 112.49L410.953 111.263L410.953 111.264L413.691 112.49ZM409.614 121.596L407.736 123.935L410.767 126.368L412.353 122.82L409.614 121.596ZM391.399 110.779L388.665 109.544L387.453 112.228L390.113 113.49L391.399 110.779ZM392.426 108.495L389.689 107.267L389.689 107.267L392.426 108.495ZM393.318 106.51L396.053 107.743L397.263 105.06L394.603 103.799L393.318 106.51ZM387.893 103.995L386.643 106.722L386.643 106.722L387.893 103.995ZM373.631 96.9359L375.118 94.3304L372.246 92.6911L370.894 95.7091L373.631 96.9359ZM372.704 99.0072L375.441 100.235L375.442 100.233L372.704 99.0072ZM372.688 99.0433L369.95 97.8159L369.949 97.8174L372.688 99.0433ZM370.229 104.524L367.494 103.292L366.374 105.779L368.743 107.13L370.229 104.524ZM384.58 111.621L383.33 114.348L384.58 111.621ZM423.439 144.227L420.742 145.54L423.55 151.307L426.176 145.455L423.439 144.227ZM440.873 105.344L443.611 106.571L443.613 106.565L440.873 105.344ZM440.877 105.334L438.14 104.107L438.137 104.114L440.877 105.334ZM452 80.5221L454.738 81.7496L455.312 80.4685L454.697 79.2067L452 80.5221ZM418.699 101.323L415.961 100.097L415.013 102.214L416.822 103.664L418.699 101.323ZM432.01 116.884L429.41 118.379L432.341 123.477L434.748 118.111L432.01 116.884ZM419.342 99.8874L416.605 98.659L416.604 98.6611L419.342 99.8874ZM419.355 99.857L422.092 101.085L422.093 101.083L419.355 99.857ZM426.675 83.5367L428.551 81.1959L425.528 78.7727L423.939 82.3062L426.675 83.5367ZM439.984 99.0948L442.721 100.324L443.348 98.9274L442.585 97.6001L439.984 99.0948ZM435.28 109.588L432.542 108.362V108.362L435.28 109.588ZM154.127 95.0914V92.0914H151.127V95.0914H154.127ZM168.007 90.4123L170.964 90.916L170.964 90.9156L168.007 90.4123ZM177.955 66.0006L175.489 64.2918L175.489 64.2924L177.955 66.0006ZM177.342 58.8566L179.48 56.7528L179.48 56.7527L177.342 58.8566ZM171.345 52.7613L169.207 50.6574L167.137 52.7612L169.207 54.8652L171.345 52.7613ZM179.205 44.7725L181.344 42.669L179.206 40.4944L177.067 42.6685L179.205 44.7725ZM185.067 50.7328L182.928 52.8363L182.929 52.8375L185.067 50.7328ZM192.349 51.3618L194.095 53.8016L194.096 53.8007L192.349 51.3618ZM216.279 41.2778L216.798 44.2324L216.799 44.2324L216.279 41.2778ZM220.927 27.1682V24.1682H217.927V27.1682H220.927ZM231.946 27.1682H234.946V24.1682H231.946V27.1682ZM236.593 41.277L236.072 44.2315L236.073 44.2316L236.593 41.277ZM260.52 51.3595L262.267 48.921L262.266 48.9206L260.52 51.3595ZM267.801 50.7321L269.939 52.8367L269.94 52.8359L267.801 50.7321ZM273.669 44.7673L275.808 42.6637L273.669 40.4891L271.53 42.6635L273.669 44.7673ZM281.529 52.7591L283.667 54.863L285.737 52.7594L283.668 50.6555L281.529 52.7591ZM275.53 58.8566L273.391 56.7527L273.391 56.7528L275.53 58.8566ZM274.917 66.0013L277.383 64.2926L277.383 64.2925L274.917 66.0013ZM284.864 90.4115L281.906 90.9137L281.906 90.9144L284.864 90.4115ZM298.745 95.0922H301.745V92.0922H298.745V95.0922ZM298.745 98.5405V101.541H301.745V98.5405H298.745ZM256.316 98.5405L253.324 98.7577L253.526 101.541H256.316V98.5405ZM196.556 98.5405V101.541H199.346L199.548 98.7577L196.556 98.5405ZM154.127 98.5405H151.127V101.541H154.127V98.5405ZM207.842 98.5397L204.862 98.1965L204.477 101.54H207.842V98.5397ZM245.03 98.5397V101.54H248.395L248.01 98.1965L245.03 98.5397ZM126.923 197.49H123.923V200.49H126.923V197.49ZM325.949 197.49V200.49H328.949V197.49H325.949ZM126.923 109.783V106.783H123.923V109.783H126.923ZM325.949 109.783H328.949V106.783H325.949V109.783ZM23.1964 46.8554C27.7169 44.2774 32.4441 42.1091 37.3125 39.8782L34.813 34.4236C29.9842 36.6363 25.0138 38.9118 20.2241 41.6434L23.1964 46.8554ZM30.414 56.3294C28.4252 51.8935 26.4365 47.4576 24.4477 43.022L18.9728 45.4768C20.9616 49.9123 22.9503 54.3481 24.9391 58.784L30.414 56.3294ZM53.0118 106.719C45.4767 89.9259 37.9452 73.1273 30.414 56.3294L24.9391 58.784C32.4702 75.5818 40.0021 92.3812 47.5377 109.175L53.0118 106.719ZM63.3723 98.125C58.5448 100.337 53.5762 102.611 48.7888 105.341L51.7607 110.553C56.2788 107.977 61.0042 105.81 65.8714 103.58L63.3723 98.125ZM100.793 66.9258C92.0207 84.9314 78.1767 91.3424 63.3723 98.125L65.8714 103.58C80.6465 96.8105 96.3877 89.6671 106.187 69.5536L100.793 66.9258ZM99.8842 67.5331C100.172 68.176 100.462 68.8258 100.757 69.4761L106.223 67.0033C105.935 66.3665 105.65 65.7284 105.361 65.0835L99.8842 67.5331ZM99.0219 65.6122C99.3101 66.2494 99.5956 66.8878 99.8842 67.5331L105.361 65.0835C105.074 64.4402 104.783 63.7901 104.489 63.1394L99.0219 65.6122ZM104.518 58.1411L99.8269 62.0777L103.684 66.6739L108.375 62.7374L104.518 58.1411ZM126.266 97.3117L109.184 59.2119L103.709 61.6666L120.791 99.7664L126.266 97.3117ZM121.301 101.539H123.529V95.539H121.301V101.539ZM118.679 104.161C118.679 102.712 119.852 101.539 121.301 101.539V95.539C116.538 95.539 112.679 99.3987 112.679 104.161H118.679ZM118.679 203.112V104.161H112.679V203.112H118.679ZM121.301 205.735C119.852 205.735 118.679 204.561 118.679 203.112H112.679C112.679 207.875 116.538 211.735 121.301 211.735V205.735ZM331.571 205.735H121.301V211.735H331.571V205.735ZM334.194 203.112C334.194 204.561 333.02 205.735 331.571 205.735V211.735C336.334 211.735 340.194 207.875 340.194 203.112H334.194ZM334.194 104.161V203.112H340.194V104.161H334.194ZM331.571 101.54C333.021 101.54 334.194 102.713 334.194 104.161H340.194C340.194 99.3992 336.334 95.5397 331.571 95.5397V101.54ZM330.471 101.54H331.571V95.5397H330.471V101.54ZM344.816 59.2119L327.734 97.3124L333.209 99.7671L350.291 61.6666L344.816 59.2119ZM354.173 62.0777L349.482 58.1411L345.625 62.7374L350.317 66.6739L354.173 62.0777ZM354.116 67.5325C354.405 66.8874 354.69 66.2492 354.978 65.6122L349.512 63.1394C349.217 63.7899 348.927 64.4399 348.639 65.083L354.116 67.5325ZM353.244 69.4761C353.538 68.8256 353.829 68.1756 354.116 67.5326L348.639 65.0829C348.351 65.728 348.065 66.3663 347.777 67.0033L353.244 69.4761ZM390.628 98.125C375.824 91.3423 361.98 84.9314 353.207 66.9258L347.814 69.5536C357.613 89.6671 373.354 96.8105 388.129 103.58L390.628 98.125ZM405.212 105.341C400.424 102.611 395.456 100.337 390.628 98.125L388.129 103.58C392.996 105.81 397.722 107.977 402.24 110.553L405.212 105.341ZM423.591 56.3187C416.058 73.1202 408.525 89.9223 400.989 106.719L406.463 109.175C414 92.3777 421.533 75.5747 429.066 58.7734L423.591 56.3187ZM429.553 43.0221L423.591 56.3187L429.066 58.7734L435.028 45.4767L429.553 43.0221ZM416.688 39.8782C421.556 42.1091 426.283 44.2774 430.804 46.8554L433.776 41.6434C428.987 38.9118 424.016 36.6363 419.187 34.4236L416.688 39.8782ZM376.374 5.84379C386.172 25.9626 401.91 33.1065 416.688 39.8782L419.187 34.4236C404.381 27.6386 390.539 21.2275 381.769 3.21685L376.374 5.84379ZM380.74 8.14492C381.096 7.35344 381.458 6.55071 381.815 5.74433L376.328 3.31631C375.981 4.10159 375.627 4.8863 375.269 5.68077L380.74 8.14492ZM380.72 8.19026L380.741 8.1428L375.268 5.68288L375.247 5.73034L380.72 8.19026ZM380.324 9.06878C380.455 8.77747 380.586 8.48594 380.719 8.19245L375.248 5.72815C375.116 6.02094 374.983 6.3155 374.851 6.61022L380.324 9.06878ZM370.968 6.20107L375.659 10.1376L379.516 5.54136L374.825 1.6048L370.968 6.20107ZM370.903 1.01943L370.16 2.6729L375.632 5.13296L376.376 3.4795L370.903 1.01943ZM369.03 2.29813L371.711 4.5476L375.568 -0.0486626L372.887 -2.29813L369.03 2.29813ZM329.519 99.767L373.696 1.22727L368.221 -1.22727L324.044 97.3125L329.519 99.767ZM309.99 101.54H326.781V95.5397H309.99V101.54ZM306.99 89.4692V98.5397H312.99V89.4692H306.99ZM304.367 86.847C305.816 86.847 306.99 88.0203 306.99 89.4692H312.99C312.99 84.7067 309.13 80.847 304.367 80.847V86.847ZM294.998 86.847H304.367V80.847H294.998V86.847ZM284.134 65.0784C287.782 71.1389 290.442 77.6539 292.079 84.5407L297.917 83.1533C296.137 75.6652 293.242 68.5744 289.275 61.9842L284.134 65.0784ZM291.285 54.5982L284.566 61.4273L288.843 65.6353L295.562 58.8061L291.285 54.5982ZM291.285 50.9205C292.289 51.9414 292.288 53.5784 291.285 54.5981L295.562 58.8062C298.863 55.451 298.863 50.0685 295.562 46.7131L291.285 50.9205ZM275.538 34.9106L291.285 50.9205L295.562 46.7131L279.816 30.7033L275.538 34.9106ZM273.669 34.127C274.373 34.127 275.046 34.4095 275.537 34.9095L279.817 30.7044C278.196 29.0544 275.98 28.127 273.669 28.127V34.127ZM271.798 34.911C272.292 34.4094 272.966 34.127 273.669 34.127V28.127C271.356 28.127 269.143 29.0561 267.523 30.7014L271.798 34.911ZM265.181 41.6386L271.799 34.9099L267.522 30.7025L260.903 37.4311L265.181 41.6386ZM242.472 34.0946C249.192 35.7509 255.548 38.4253 261.463 42.0859L264.621 36.9839C258.176 32.9952 251.239 30.0759 243.908 28.2689L242.472 34.0946ZM240.19 21.546V31.1817H246.19V21.546H240.19ZM237.568 18.9238C239.017 18.9238 240.19 20.0971 240.19 21.546H246.19C246.19 16.7834 242.331 12.9238 237.568 12.9238V18.9238ZM215.305 18.9238H237.568V12.9238H215.305V18.9238ZM212.683 21.546C212.683 20.0971 213.856 18.9238 215.305 18.9238V12.9238C210.542 12.9238 206.683 16.7834 206.683 21.546H212.683ZM212.683 31.1825V21.546H206.683V31.1825H212.683ZM191.406 42.0874C197.324 38.4254 203.683 35.751 210.401 34.0953L208.965 28.2696C201.636 30.0758 194.697 32.9951 188.249 36.9853L191.406 42.0874ZM181.076 34.9165L187.689 41.64L191.966 37.4328L185.354 30.7093L181.076 34.9165ZM179.207 34.133C179.91 34.133 180.583 34.4151 181.076 34.9163L185.354 30.7096C183.733 29.0608 181.518 28.133 179.207 28.133V34.133ZM177.338 34.9155C177.829 34.4158 178.503 34.133 179.207 34.133V28.133C176.897 28.133 174.68 29.0601 173.059 30.7089L177.338 34.9155ZM161.59 50.9216L177.337 34.9162L173.06 30.7082L157.313 46.7135L161.59 50.9216ZM161.589 54.5989C160.585 53.579 160.585 51.9418 161.589 50.9219L157.313 46.7131C154.011 50.0681 154.011 55.4519 157.312 58.8069L161.589 54.5989ZM168.307 61.4273L161.589 54.5989L157.312 58.8069L164.03 65.6353L168.307 61.4273ZM160.794 84.5405C162.432 77.6524 165.092 71.138 168.739 65.0783L163.598 61.9843C159.632 68.5738 156.738 75.6637 154.957 83.152L160.794 84.5405ZM148.505 86.8463H157.875V80.8462H148.505V86.8463ZM145.883 89.4685C145.883 88.0196 147.056 86.8463 148.505 86.8463V80.8462C143.742 80.8462 139.883 84.7059 139.883 89.4685H145.883ZM145.883 98.539V89.4685H139.883V98.539H145.883ZM127.219 101.539H142.883V95.539H127.219V101.539ZM80.3042 1.22727L124.481 99.7663L129.956 97.3117L85.7792 -1.22727L80.3042 1.22727ZM82.2893 4.5476L84.9701 2.29814L81.1133 -2.29814L78.4325 -0.048668L82.2893 4.5476ZM83.8405 2.67291L83.0972 1.01944L77.6247 3.47949L78.368 5.13295L83.8405 2.67291ZM78.3412 10.1376L83.0326 6.20107L79.1758 1.6048L74.4844 5.54136L78.3412 10.1376ZM73.26 8.14381C73.3994 8.45335 73.5381 8.76122 73.6762 9.06883L79.1494 6.61017C79.0098 6.2994 78.8699 5.98884 78.7307 5.67972L73.26 8.14381ZM72.1855 5.74438C72.5422 6.55036 72.9036 7.3527 73.26 8.14382L78.7306 5.67971C78.373 4.8856 78.0197 4.10122 77.6723 3.31627L72.1855 5.74438ZM37.3125 39.8782C52.09 33.1065 67.8287 25.9626 77.6261 5.84379L72.2317 3.21685C63.461 21.2275 49.6194 27.6386 34.813 34.4236L37.3125 39.8782ZM59.2205 24.8402C53.847 29.15 47.8848 32.3028 41.6036 35.2728L44.1684 40.697C50.5708 37.6697 57.0432 34.2779 62.9745 29.5208L59.2205 24.8402ZM68.807 37.0422C67.1502 33.3451 65.4934 29.6478 63.8344 25.952L58.3606 28.409C60.0186 32.1028 61.6747 35.7985 63.3316 39.4958L68.807 37.0422ZM71.9949 44.1546C70.9318 41.7838 69.8694 39.4131 68.807 37.0422L63.3316 39.4958C64.394 41.8666 65.4567 44.238 66.5201 46.6096L71.9949 44.1546ZM52.3227 58.9033C58.7231 55.8778 65.198 52.4839 71.1346 47.7223L67.3805 43.0418C62.0015 47.3562 56.0364 50.5113 49.7586 53.4787L52.3227 58.9033ZM44.9578 49.9514C46.0734 52.4404 47.1886 54.9285 48.3025 57.4167L53.7789 54.9653C52.6643 52.4755 51.5485 49.9861 50.433 47.4973L44.9578 49.9514ZM40.1472 39.2093C41.7487 42.7917 43.3537 46.3724 44.9578 49.9514L50.433 47.4973C48.8287 43.9179 47.2249 40.3398 45.6248 36.7606L40.1472 39.2093ZM108.071 56.7308L84.9526 5.15934L79.4776 7.61366L102.596 59.1851L108.071 56.7308ZM102.57 64.1926L107.261 60.2561L103.405 55.6598L98.7133 59.5963L102.57 64.1926ZM88.4195 41.9654C91.5816 49.0176 94.7435 56.0694 97.904 63.1214L103.379 60.6675C100.218 53.6149 97.0564 46.5627 93.8944 39.5106L88.4195 41.9654ZM74.7859 11.5495C79.3282 21.6894 83.874 31.8278 88.4195 41.9654L93.8944 39.5106C89.3488 29.3728 84.8034 19.2354 80.2616 9.09661L74.7859 11.5495ZM80.2867 4.08836L75.5953 8.02493L79.4521 12.6212L84.1435 8.68464L80.2867 4.08836ZM93.6515 47.2073C93.0397 45.8413 92.4282 44.4754 91.8166 43.1093L86.3404 45.561C86.9519 46.927 87.5636 48.2934 88.1756 49.6598L93.6515 47.2073ZM79.4781 66.3347C84.7175 62.1351 89.5123 56.8884 93.5142 49.929L88.3129 46.938C84.7133 53.1977 80.4281 57.8836 75.7255 61.653L79.4781 66.3347ZM69.7564 53.8325C71.458 57.629 73.16 61.4262 74.8651 65.2229L80.3385 62.7647C78.6344 58.9704 76.9333 55.1753 75.2316 51.3785L69.7564 53.8325ZM66.8883 47.4349C67.8447 49.5674 68.8005 51.6998 69.7564 53.8325L75.2316 51.3785C74.2757 49.2459 73.3196 47.1128 72.3629 44.9796L66.8883 47.4349ZM80.3394 29.1492C76.7398 35.4089 72.4573 40.0926 67.7492 43.8665L71.5019 48.5481C76.7466 44.344 81.5387 39.0996 85.5407 32.1402L80.3394 29.1492ZM91.8166 43.1093C89.7729 38.5443 87.7284 33.9776 85.6761 29.4142L80.204 31.8752C82.2539 36.4331 84.2963 40.9952 86.3404 45.561L91.8166 43.1093ZM69.7577 97.7861C76.1623 94.7625 82.6325 91.3679 88.5671 86.6033L84.8107 81.9246C79.4343 86.2411 73.4743 89.3965 67.1962 92.3604L69.7577 97.7861ZM60.9953 85.7209C62.5757 89.2477 64.1563 92.7747 65.7402 96.3022L71.2137 93.8444C69.6309 90.3193 68.0512 86.7944 66.4706 83.2673L60.9953 85.7209ZM57.5775 78.0969C58.7178 80.6388 59.8565 83.1798 60.9953 85.7209L66.4706 83.2673C65.332 80.7263 64.1928 78.1843 63.0519 75.6411L57.5775 78.0969ZM76.6546 63.7198C71.2837 68.0274 65.3187 71.1824 59.0316 74.1572L61.5978 79.5808C68.005 76.5491 74.48 73.1552 80.4085 68.4004L76.6546 63.7198ZM89.4263 83.0364C86.7049 76.9676 83.9859 70.902 81.2697 64.8343L75.7934 67.2858C78.5104 73.3552 81.2299 79.4222 83.9515 85.4914L89.4263 83.0364ZM44.0574 85.4028C47.6793 83.4932 51.4 81.788 55.2103 80.0426L52.7115 74.5877C48.9261 76.3217 45.0532 78.0949 41.2592 80.0953L44.0574 85.4028ZM39.042 82.014L39.9203 83.9752L45.3962 81.5228L44.5179 79.5616L39.042 82.014ZM31.9481 66.1893C34.3161 71.4619 36.6782 76.7361 39.042 82.014L44.5179 79.5616C42.1543 74.2841 39.7909 69.007 37.4214 63.7311L31.9481 66.1893ZM44.8309 56.7559C41.0115 58.506 37.1044 60.2954 33.2869 62.3058L36.0826 67.6147C39.7297 65.6941 43.4859 63.9721 47.3303 62.2105L44.8309 56.7559ZM50.1268 54.3039C48.376 55.1314 46.6129 55.9393 44.8309 56.7559L47.3303 62.2105C49.1069 61.3964 50.9024 60.5737 52.6907 59.7285L50.1268 54.3039ZM61.4879 72.1586C59.0432 66.7 56.5984 61.2413 54.1448 55.7857L48.6727 58.2467C51.1241 63.6973 53.5669 69.1518 56.012 74.6111L61.4879 72.1586ZM62.1229 73.5765L61.4879 72.1586L56.012 74.6111L56.647 76.029L62.1229 73.5765ZM55.2103 80.0426C57.0184 79.2144 58.8469 78.3768 60.6688 77.5141L58.1011 72.0913C56.3192 72.935 54.5253 73.7568 52.7115 74.5877L55.2103 80.0426ZM21.4849 57.5782C21.8416 58.3842 22.203 59.1865 22.5593 59.9776L28.03 57.5135C27.6723 56.7194 27.319 55.935 26.9717 55.1501L21.4849 57.5782ZM4.69633 81.8374C10.1404 70.678 17.5237 63.9866 25.7948 58.9227L22.6618 53.8056C13.6281 59.3364 5.34769 66.8177 -0.696209 79.2067L4.69633 81.8374ZM15.8442 104.071C12.1425 95.812 8.44058 87.5528 4.73745 79.2946L-0.737329 81.7496C2.96556 90.0073 6.66725 98.266 10.369 106.525L15.8442 104.071ZM33.2985 142.998C27.4778 130.026 21.6613 117.049 15.8442 104.071L10.369 106.525C16.186 119.503 22.0031 132.481 27.8244 145.455L33.2985 142.998ZM68.1706 108.893C53.3952 115.663 37.6549 122.807 27.8642 142.913L33.2587 145.54C42.0224 127.543 55.8644 121.132 70.6699 114.348L68.1706 108.893ZM82.2852 101.918C77.7657 104.495 73.0389 106.663 68.1706 108.893L70.6699 114.348C75.4985 112.136 80.4685 109.861 85.2573 107.13L82.2852 101.918ZM78.5536 100.222C79.3796 102.067 80.2055 103.911 81.0356 105.756L86.5068 103.293C85.6795 101.455 84.8561 99.6159 84.0297 97.7703L78.5536 100.222ZM77.6312 98.1627C77.939 98.8495 78.2463 99.5359 78.5536 100.222L84.0297 97.7703C83.7225 97.0841 83.4148 96.3969 83.1066 95.7092L77.6312 98.1627ZM67.3576 106.722C72.1572 104.521 77.0962 102.258 81.8559 99.5415L78.8819 94.3304C74.3916 96.8931 69.6959 99.0485 64.8566 101.268L67.3576 106.722ZM61.9666 109.221C63.7487 108.377 65.5433 107.554 67.3576 106.722L64.8566 101.268C63.048 102.097 61.2191 102.936 59.3973 103.799L61.9666 109.221ZM64.3095 107.263C64.0135 106.603 63.7162 105.941 63.4167 105.277L57.9471 107.743C58.2439 108.401 58.5389 109.059 58.8353 109.719L64.3095 107.263ZM65.3353 109.544C64.9919 108.784 64.6515 108.025 64.3095 107.263L58.8353 109.719C59.1768 110.481 59.5202 111.246 59.8672 112.014L65.3353 109.544ZM46.2643 123.935C51.6349 119.623 57.6011 116.471 63.8869 113.49L61.3155 108.069C54.9161 111.104 48.4378 114.496 42.5081 119.256L46.2643 123.935ZM37.5724 113.718C38.932 116.753 40.291 119.786 41.6474 122.82L47.125 120.371C45.7674 117.335 44.4074 114.299 43.048 111.265L37.5724 113.718ZM33.4954 104.612C34.853 107.648 36.213 110.684 37.5724 113.718L43.048 111.265C41.6884 108.23 40.3294 105.197 38.973 102.163L33.4954 104.612ZM41.5686 96.0083C39.1086 97.5144 36.6876 99.1777 34.3571 101.047L38.1113 105.727C40.2152 104.04 42.4235 102.52 44.7016 101.125L41.5686 96.0083ZM38.7277 96.068C39.2843 97.31 39.8409 98.5519 40.3974 99.7937L45.8727 97.34C45.3162 96.0981 44.7596 94.8561 44.203 93.6141L38.7277 96.068ZM31.1286 79.1051C33.6598 84.76 36.1942 90.4151 38.7277 96.068L44.203 93.6141C41.6694 87.961 39.1356 82.3072 36.6051 76.6538L31.1286 79.1051ZM28.8432 85.04C30.9496 83.3503 33.1551 81.8328 35.4333 80.438L32.3004 75.3209C29.8405 76.8269 27.4221 78.488 25.0888 80.3597L28.8432 85.04ZM20.1488 74.8271C21.5098 77.8605 22.8701 80.8927 24.2278 83.9256L29.7042 81.4741C28.3453 78.4385 26.9839 75.4041 25.6231 72.3711L20.1488 74.8271ZM16.0678 65.724C17.4267 68.7596 18.788 71.794 20.1488 74.8271L25.6231 72.3711C24.2622 69.3376 22.9018 66.3055 21.5441 63.2725L16.0678 65.724ZM24.1447 57.1154C21.6805 58.6254 19.2649 60.284 16.9287 62.1582L20.6832 66.8384C22.7921 65.1466 24.9951 63.6312 27.2796 62.2313L24.1447 57.1154ZM22.5593 59.9776C22.6988 60.2872 22.8374 60.595 22.9756 60.9026L28.4488 58.444C28.3091 58.1332 28.1692 57.8226 28.03 57.5135L22.5593 59.9776ZM24.5907 118.379C28.1903 112.119 32.4702 107.438 37.1781 103.664L33.4254 98.9825C28.1806 103.187 23.3912 108.429 19.3893 115.388L24.5907 118.379ZM15.9823 110.813C17.0717 113.245 18.1616 115.678 19.2527 118.111L24.7273 115.656C23.6369 113.225 22.5476 110.793 21.4581 108.36L15.9823 110.813ZM11.2798 100.324C12.8494 103.819 14.4154 107.315 15.9823 110.813L21.4581 108.36C19.8914 104.863 18.3241 101.364 16.7531 97.8657L11.2798 100.324ZM25.4493 81.1959C20.2102 85.3952 15.4123 90.6443 11.4153 97.6001L16.6176 100.589C20.2115 94.3352 24.4989 89.6471 29.2018 85.8776L25.4493 81.1959ZM37.405 98.6797C34.9602 93.221 32.5153 87.762 30.0616 82.3062L24.5895 84.7672C27.041 90.2181 29.4839 95.6727 31.929 101.132L37.405 98.6797ZM38.0397 100.097L37.405 98.6797L31.9291 101.132L32.5638 102.55L38.0397 100.097ZM412.397 35.2728C406.116 32.3028 400.153 29.15 394.78 24.8402L391.026 29.5208C396.957 34.2779 403.43 37.6697 409.832 40.697L412.397 35.2728ZM409.04 49.958C410.645 46.3768 412.251 42.7939 413.853 39.2093L408.376 36.7606C406.774 40.342 405.17 43.9223 403.564 47.5039L409.04 49.958ZM405.698 57.4167C406.811 54.9306 407.925 52.4448 409.04 49.958L403.564 47.5039C402.45 49.9905 401.335 52.4777 400.221 54.9653L405.698 57.4167ZM382.866 47.7223C388.802 52.4839 395.277 55.8778 401.678 58.9033L404.242 53.4787C397.964 50.5113 391.999 47.3562 386.62 43.0418L382.866 47.7223ZM385.197 37.035C384.133 39.4082 383.07 41.7814 382.005 44.1546L387.48 46.6096C388.545 44.2356 389.609 41.8618 390.672 39.4886L385.197 37.035ZM390.166 25.952C388.508 29.6454 386.852 33.3403 385.197 37.035L390.672 39.4886C392.328 35.7937 393.983 32.1004 395.64 28.409L390.166 25.952ZM369.048 5.15934L345.93 56.7308L351.405 59.1851L374.523 7.61366L369.048 5.15934ZM378.405 8.02493L373.714 4.08836L369.857 8.68464L374.548 12.6212L378.405 8.02493ZM365.576 41.9767C370.123 31.8353 374.671 21.6932 379.215 11.5495L373.739 9.0966C369.195 19.2392 364.648 29.3804 360.101 39.5219L365.576 41.9767ZM356.096 63.1214C359.255 56.0731 362.415 49.0251 365.576 41.9767L360.101 39.5219C356.941 46.5702 353.78 53.6187 350.621 60.6675L356.096 63.1214ZM346.739 60.2561L351.43 64.1926L355.287 59.5963L350.596 55.6598L346.739 60.2561ZM362.182 43.1128C361.571 44.4778 360.96 45.8425 360.349 47.2072L365.825 49.6598C366.436 48.2945 367.047 46.9293 367.658 45.5645L362.182 43.1128ZM368.324 29.4142C366.271 33.9787 364.226 38.5466 362.182 43.1128L367.658 45.5645C369.703 40.9975 371.746 36.4343 373.796 31.8752L368.324 29.4142ZM386.251 43.8665C381.543 40.0926 377.261 35.4089 373.661 29.1492L368.46 32.1402C372.462 39.0996 377.254 44.344 382.498 48.5481L386.251 43.8665ZM384.247 53.8267C385.202 51.696 386.157 49.5655 387.112 47.4349L381.637 44.9796C380.682 47.1109 379.726 49.242 378.771 51.3727L384.247 53.8267ZM384.184 53.9653L384.246 53.8273L378.772 51.3721L378.71 51.5101L384.184 53.9653ZM379.135 65.2229C380.821 61.4703 382.503 57.7171 384.185 53.9647L378.71 51.5107C377.027 55.2634 375.346 59.0145 373.662 62.7647L379.135 65.2229ZM360.486 49.929C364.488 56.8884 369.283 62.1351 374.522 66.3347L378.275 61.653C373.572 57.8836 369.287 53.1977 365.687 46.938L360.486 49.929ZM365.433 86.6033C371.368 91.3679 377.838 94.7625 384.243 97.7861L386.804 92.3604C380.526 89.3964 374.566 86.2411 369.19 81.9246L365.433 86.6033ZM372.731 64.8343C370.014 70.902 367.295 76.9676 364.574 83.0364L370.049 85.4914C372.77 79.4222 375.49 73.3552 378.207 67.2858L372.731 64.8343ZM394.969 74.1572C388.682 71.1824 382.717 68.0274 377.346 63.7198L373.592 68.4004C379.52 73.1552 385.995 76.5492 392.403 79.5808L394.969 74.1572ZM393.001 85.7297C394.141 83.1857 395.281 80.6418 396.423 78.0969L390.948 75.6411C389.806 78.1872 388.666 80.7322 387.526 83.2761L393.001 85.7297ZM388.26 96.3022C389.843 92.7776 391.422 89.2536 393.001 85.7297L387.526 83.2761C385.946 86.8003 384.368 90.3223 382.787 93.8444L388.26 96.3022ZM398.79 80.0426C402.6 81.788 406.321 83.4932 409.943 85.4028L412.741 80.0953C408.947 78.0949 405.074 76.3217 401.289 74.5877L398.79 80.0426ZM393.332 77.5141C395.154 78.3768 396.982 79.2144 398.79 80.0426L401.289 74.5877C399.475 73.7568 397.681 72.935 395.899 72.0913L393.332 77.5141ZM392.519 72.1445L391.877 73.5765L397.353 76.029L397.995 74.597L392.519 72.1445ZM392.529 72.1217L392.519 72.1439L397.994 74.5975L398.004 74.5752L392.529 72.1217ZM399.856 55.7857C397.407 61.2292 394.968 66.6758 392.529 72.1222L398.005 74.5747C400.444 69.1275 402.882 63.6852 405.328 58.2467L399.856 55.7857ZM409.169 56.7558C407.387 55.9393 405.624 55.1314 403.874 54.3039L401.31 59.7285C403.098 60.5737 404.893 61.3964 406.67 62.2104L409.169 56.7558ZM409.17 56.756L409.169 56.7559L406.67 62.2103L406.67 62.2104L409.17 56.756ZM420.713 62.3058C416.896 60.2954 412.989 58.506 409.169 56.7559L406.67 62.2105C410.514 63.9721 414.271 65.6941 417.918 67.6147L420.713 62.3058ZM414.946 82.0424C417.314 76.755 419.68 71.4713 422.052 66.1893L416.579 63.7311C414.205 69.0165 411.838 74.303 409.47 79.5899L414.946 82.0424ZM414.08 83.9753L414.946 82.0424L409.47 79.5899L408.604 81.5228L414.08 83.9753ZM431.44 59.9789C431.797 59.1873 432.159 58.3846 432.515 57.5782L427.029 55.1501C426.681 55.9354 426.328 56.7202 425.97 57.5146L431.44 59.9789ZM431.193 60.5285C431.275 60.3455 431.358 60.1625 431.44 59.9789L425.97 57.5146C425.887 57.6982 425.804 57.8823 425.721 58.0664L431.193 60.5285ZM431.025 60.9025C431.081 60.7779 431.137 60.6533 431.193 60.5287L425.721 58.0662C425.665 58.1921 425.608 58.3181 425.552 58.4441L431.025 60.9025ZM437.072 62.1582C434.735 60.284 432.32 58.6254 429.856 57.1154L426.721 62.2313C429.005 63.6312 431.208 65.1466 433.317 66.8383L437.072 62.1582ZM433.856 74.8169C435.215 71.7872 436.575 68.7562 437.933 65.724L432.456 63.2726C431.1 66.3021 429.741 69.3308 428.382 72.3609L433.856 74.8169ZM433.851 74.8289L433.855 74.8187L428.383 72.3591L428.378 72.3693L433.851 74.8289ZM429.773 83.9256C431.13 80.8927 432.491 77.8605 433.852 74.8271L428.377 72.3711C427.016 75.4041 425.655 78.4385 424.296 81.4741L429.773 83.9256ZM418.567 80.438C420.845 81.8328 423.051 83.3503 425.157 85.04L428.912 80.3597C426.578 78.488 424.16 76.8269 421.7 75.3209L418.567 80.438ZM415.324 95.9529C417.84 90.3383 420.358 84.7216 422.872 79.1051L417.395 76.6538C414.882 82.2688 412.365 87.8843 409.849 93.4991L415.324 95.9529ZM415.305 95.9949L415.325 95.9507L409.848 93.5013L409.828 93.5455L415.305 95.9949ZM413.603 99.7937L415.304 95.9971L409.829 93.5433L408.128 97.3399L413.603 99.7937ZM419.643 101.047C417.313 99.1777 414.892 97.5144 412.432 96.0083L409.299 101.125C411.577 102.52 413.785 104.04 415.889 105.727L419.643 101.047ZM416.473 113.617C417.818 110.616 419.163 107.615 420.505 104.612L415.027 102.163C413.686 105.163 412.342 108.163 410.998 111.163L416.473 113.617ZM416.428 113.717L416.473 113.617L410.998 111.163L410.953 111.263L416.428 113.717ZM412.353 122.82C413.71 119.785 415.069 116.752 416.428 113.717L410.953 111.264C409.593 114.298 408.233 117.334 406.875 120.371L412.353 122.82ZM390.113 113.49C396.399 116.471 402.365 119.623 407.736 123.935L411.492 119.256C405.563 114.496 399.084 111.104 392.685 108.069L390.113 113.49ZM389.689 107.267C389.348 108.028 389.008 108.785 388.665 109.544L394.133 112.014C394.48 111.247 394.822 110.483 395.163 109.723L389.689 107.267ZM390.584 105.277C390.284 105.942 389.986 106.606 389.689 107.267L395.163 109.723C395.46 109.061 395.756 108.403 396.053 107.743L390.584 105.277ZM386.643 106.722C388.457 107.554 390.252 108.377 392.034 109.221L394.603 103.799C392.781 102.936 390.952 102.097 389.144 101.268L386.643 106.722ZM372.144 99.5415C376.904 102.258 381.843 104.521 386.643 106.722L389.144 101.268C384.304 99.0485 379.609 96.8931 375.118 94.3304L372.144 99.5415ZM375.442 100.233C375.751 99.5432 376.06 98.8532 376.369 98.1627L370.894 95.7091C370.584 96.4006 370.275 97.0914 369.966 97.7811L375.442 100.233ZM375.425 100.271L375.441 100.235L369.966 97.7798L369.95 97.8159L375.425 100.271ZM372.965 105.756C373.788 103.927 374.607 102.098 375.426 100.269L369.949 97.8174C369.13 99.6472 368.314 101.471 367.494 103.292L372.965 105.756ZM385.83 108.893C380.961 106.663 376.235 104.495 371.715 101.918L368.743 107.13C373.532 109.861 378.502 112.136 383.33 114.348L385.83 108.893ZM426.136 142.913C416.345 122.807 400.605 115.663 385.83 108.893L383.33 114.348C398.136 121.132 411.978 127.543 420.742 145.54L426.136 142.913ZM438.135 104.117C432.325 117.08 426.516 130.042 420.702 142.998L426.176 145.455C431.99 132.497 437.801 119.534 443.611 106.571L438.135 104.117ZM438.137 104.114L438.133 104.123L443.613 106.565L443.618 106.555L438.137 104.114ZM449.263 79.2946C445.554 87.565 441.847 95.8364 438.14 104.107L443.615 106.561C447.322 98.2904 451.029 90.0195 454.738 81.7496L449.263 79.2946ZM428.206 58.9227C436.477 63.9866 443.86 70.678 449.304 81.8374L454.697 79.2067C448.653 66.8177 440.372 59.3364 431.339 53.8056L428.206 58.9227ZM416.822 103.664C421.53 107.438 425.81 112.119 429.41 118.379L434.611 115.388C430.609 108.429 425.82 103.187 420.575 98.9825L416.822 103.664ZM416.604 98.6611L415.961 100.097L421.437 102.55L422.08 101.114L416.604 98.6611ZM416.618 98.6286L416.605 98.659L422.079 101.116L422.092 101.085L416.618 98.6286ZM423.939 82.3062C421.492 87.7457 419.055 93.1883 416.617 98.6308L422.093 101.083C424.531 95.6401 426.967 90.2018 429.411 84.7672L423.939 82.3062ZM442.585 97.6001C438.588 90.6443 433.79 85.3952 428.551 81.1959L424.799 85.8776C429.501 89.6471 433.789 94.3351 437.383 100.589L442.585 97.6001ZM438.017 110.814C439.585 107.316 441.151 103.819 442.721 100.324L437.247 97.8657C435.676 101.364 434.109 104.864 432.542 108.362L438.017 110.814ZM434.748 118.111C435.839 115.679 436.928 113.246 438.017 110.814L432.542 108.362C431.452 110.794 430.363 113.225 429.273 115.656L434.748 118.111ZM162.464 92.0914H154.127V98.0915H162.464V92.0914ZM165.049 89.9086C164.834 91.1695 163.742 92.0914 162.464 92.0914V98.0915C166.667 98.0915 170.258 95.0599 170.964 90.916L165.049 89.9086ZM175.489 64.2924C170.142 72.0114 166.627 80.6365 165.049 89.909L170.964 90.9156C172.395 82.5072 175.575 74.7049 180.421 67.7087L175.489 64.2924ZM175.203 60.9603C176.086 61.8584 176.206 63.257 175.489 64.2918L180.421 67.7094C182.78 64.3048 182.384 59.7049 179.48 56.7528L175.203 60.9603ZM169.207 54.8652L175.203 60.9605L179.48 56.7527L173.484 50.6575L169.207 54.8652ZM177.067 42.6685L169.207 50.6574L173.484 54.8653L181.344 46.8765L177.067 42.6685ZM187.206 48.6294L181.344 42.669L177.066 46.876L182.928 52.8363L187.206 48.6294ZM190.604 48.9219C189.552 49.6742 188.112 49.5497 187.204 48.6282L182.929 52.8375C185.906 55.8621 190.641 56.2728 194.095 53.8016L190.604 48.9219ZM215.759 38.3231C206.65 39.9249 198.179 43.4956 190.602 48.9229L194.096 53.8007C200.949 48.892 208.582 45.6771 216.798 44.2324L215.759 38.3231ZM217.927 35.7402C217.927 37.0132 217.013 38.1025 215.759 38.3231L216.799 44.2324C220.921 43.507 223.927 39.9261 223.927 35.7402H217.927ZM217.927 27.1682V35.7402H223.927V27.1682H217.927ZM231.946 24.1682H220.927V30.1682H231.946V24.1682ZM234.946 35.7395V27.1682H228.946V35.7395H234.946ZM237.114 38.3226C235.86 38.1015 234.946 37.0126 234.946 35.7395H228.946C228.946 39.9252 231.951 43.505 236.072 44.2315L237.114 38.3226ZM262.266 48.9206C254.694 43.4971 246.226 39.9265 237.113 38.3224L236.073 44.2316C244.293 45.6786 251.925 48.8936 258.773 53.7985L262.266 48.9206ZM265.663 48.6275C264.757 49.5487 263.316 49.6725 262.267 48.921L258.772 53.798C262.226 56.273 266.963 55.8601 269.939 52.8367L265.663 48.6275ZM271.53 42.6635L265.663 48.6283L269.94 52.8359L275.807 46.8711L271.53 42.6635ZM283.668 50.6555L275.808 42.6637L271.53 46.8709L279.39 54.8627L283.668 50.6555ZM277.669 60.9605L283.667 54.863L279.39 50.6552L273.391 56.7527L277.669 60.9605ZM277.383 64.2925C276.666 63.2577 276.786 61.8584 277.669 60.9603L273.391 56.7528C270.488 59.7049 270.092 64.3056 272.451 67.7101L277.383 64.2925ZM287.821 89.9093C286.247 80.6376 282.732 72.0127 277.383 64.2926L272.451 67.71C277.299 74.7067 280.479 82.5076 281.906 90.9137L287.821 89.9093ZM290.407 92.0922C289.128 92.0922 288.036 91.1694 287.821 89.9086L281.906 90.9144C282.611 95.0585 286.202 98.0922 290.407 98.0922V92.0922ZM298.745 92.0922H290.407V98.0922H298.745V92.0922ZM301.745 98.5405V95.0922H295.745V98.5405H301.745ZM256.316 101.541H298.745V95.5405H256.316V101.541ZM226.437 73.4076C240.596 73.4076 252.294 84.5719 253.324 98.7577L259.309 98.3233C258.058 81.0982 243.838 67.4076 226.437 67.4076V73.4076ZM199.548 98.7577C200.578 84.572 212.278 73.4076 226.437 73.4076V67.4076C209.036 67.4076 194.814 81.098 193.564 98.3233L199.548 98.7577ZM154.127 101.541H196.556V95.5405H154.127V101.541ZM151.127 95.0914V98.5405H157.127V95.0914H151.127ZM226.44 78.6513C215.26 78.6513 206.122 87.2577 204.862 98.1965L210.823 98.883C211.75 90.8292 218.45 84.6513 226.44 84.6513V78.6513ZM248.01 98.1965C246.751 87.2587 237.615 78.6513 226.44 78.6513V84.6513C234.423 84.6513 241.122 90.8282 242.05 98.883L248.01 98.1965ZM207.842 101.54H245.03V95.5397H207.842V101.54ZM126.923 200.49H325.949V194.49H126.923V200.49ZM123.923 109.783V197.49H129.923V109.783H123.923ZM325.949 106.783H126.923V112.783H325.949V106.783ZM328.949 197.49V109.783H322.949V197.49H328.949ZM158.408 131.522H146.039V137.522H158.408V131.522ZM161.03 128.899C161.03 130.348 159.856 131.522 158.408 131.522V137.522C163.17 137.522 167.03 133.662 167.03 128.899H161.03ZM158.408 126.277C159.856 126.277 161.03 127.45 161.03 128.899H167.03C167.03 124.137 163.17 120.277 158.408 120.277V126.277ZM146.039 126.277H158.408V120.277H146.039V126.277ZM143.417 128.899C143.417 127.45 144.59 126.277 146.039 126.277V120.277C141.276 120.277 137.417 124.137 137.417 128.899H143.417ZM146.039 131.522C144.59 131.522 143.417 130.348 143.417 128.899H137.417C137.417 133.661 141.276 137.522 146.039 137.522V131.522ZM183.145 137.522H195.514V131.522H183.145V137.522ZM174.523 128.899C174.523 133.661 178.382 137.522 183.145 137.522V131.522C181.696 131.522 180.523 130.348 180.523 128.899H174.523ZM183.145 120.277C178.382 120.277 174.523 124.137 174.523 128.899H180.523C180.523 127.45 181.696 126.277 183.145 126.277V120.277ZM195.514 120.277H183.145V126.277H195.514V120.277ZM204.136 128.899C204.136 124.137 200.276 120.277 195.514 120.277V126.277C196.963 126.277 198.136 127.45 198.136 128.899H204.136ZM195.514 137.522C200.276 137.522 204.136 133.662 204.136 128.899H198.136C198.136 130.348 196.963 131.522 195.514 131.522V137.522ZM232.621 131.522H220.252V137.522H232.621V131.522ZM235.243 128.899C235.243 130.348 234.07 131.522 232.621 131.522V137.522C237.383 137.522 241.243 133.662 241.243 128.899H235.243ZM232.621 126.277C234.07 126.277 235.243 127.45 235.243 128.899H241.243C241.243 124.137 237.383 120.277 232.621 120.277V126.277ZM220.252 126.277H232.621V120.277H220.252V126.277ZM217.63 128.899C217.63 127.45 218.803 126.277 220.252 126.277V120.277C215.489 120.277 211.63 124.137 211.63 128.899H217.63ZM220.252 131.522C218.803 131.522 217.63 130.348 217.63 128.899H211.63C211.63 133.661 215.489 137.522 220.252 137.522V131.522ZM257.358 137.522H269.727V131.522H257.358V137.522ZM248.736 128.899C248.736 133.661 252.595 137.522 257.358 137.522V131.522C255.91 131.522 254.736 130.348 254.736 128.899H248.736ZM257.358 120.277C252.596 120.277 248.736 124.137 248.736 128.899H254.736C254.736 127.45 255.909 126.277 257.358 126.277V120.277ZM269.727 120.277H257.358V126.277H269.727V120.277ZM278.349 128.899C278.349 124.137 274.49 120.277 269.727 120.277V126.277C271.176 126.277 272.349 127.45 272.349 128.899H278.349ZM269.727 137.522C274.49 137.522 278.349 133.662 278.349 128.899H272.349C272.349 130.348 271.176 131.522 269.727 131.522V137.522ZM306.834 131.522H294.465V137.522H306.834V131.522ZM309.456 128.899C309.456 130.348 308.283 131.522 306.834 131.522V137.522C311.596 137.522 315.456 133.662 315.456 128.899H309.456ZM306.834 126.277C308.283 126.277 309.456 127.45 309.456 128.899H315.456C315.456 124.137 311.596 120.277 306.834 120.277V126.277ZM294.465 126.277H306.834V120.277H294.465V126.277ZM291.843 128.899C291.843 127.45 293.016 126.277 294.465 126.277V120.277C289.702 120.277 285.843 124.137 285.843 128.899H291.843ZM294.465 131.522C293.016 131.522 291.843 130.348 291.843 128.899H285.843C285.843 133.661 289.702 137.522 294.465 137.522V131.522ZM146.039 186.997H158.408V180.997H146.039V186.997ZM137.417 178.375C137.417 183.136 141.276 186.997 146.039 186.997V180.997C144.59 180.997 143.417 179.823 143.417 178.375H137.417ZM146.039 169.753C141.276 169.753 137.417 173.612 137.417 178.375H143.417C143.417 176.926 144.59 175.753 146.039 175.753V169.753ZM158.408 169.753H146.039V175.753H158.408V169.753ZM167.03 178.375C167.03 173.612 163.17 169.753 158.408 169.753V175.753C159.856 175.753 161.03 176.926 161.03 178.375H167.03ZM158.408 186.997C163.17 186.997 167.03 183.137 167.03 178.375H161.03C161.03 179.824 159.856 180.997 158.408 180.997V186.997ZM182.958 175.753H269.727V169.753H182.958V175.753ZM180.336 178.375C180.336 176.926 181.509 175.753 182.958 175.753V169.753C178.195 169.753 174.336 173.612 174.336 178.375H180.336ZM182.958 180.997C181.509 180.997 180.336 179.824 180.336 178.375H174.336C174.336 183.137 178.195 186.997 182.958 186.997V180.997ZM269.727 180.997H182.958V186.997H269.727V180.997ZM272.349 178.375C272.349 179.824 271.176 180.997 269.727 180.997V186.997C274.49 186.997 278.349 183.137 278.349 178.375H272.349ZM269.727 175.753C271.176 175.753 272.349 176.926 272.349 178.375H278.349C278.349 173.612 274.49 169.753 269.727 169.753V175.753ZM306.834 169.753H294.465V175.753H306.834V169.753ZM315.456 178.375C315.456 173.612 311.596 169.753 306.834 169.753V175.753C308.283 175.753 309.456 176.926 309.456 178.375H315.456ZM306.834 186.997C311.596 186.997 315.456 183.137 315.456 178.375H309.456C309.456 179.824 308.283 180.997 306.834 180.997V186.997ZM294.465 186.997H306.834V180.997H294.465V186.997ZM285.843 178.375C285.843 183.137 289.702 186.997 294.465 186.997V180.997C293.016 180.997 291.843 179.824 291.843 178.375H285.843ZM294.465 169.753C289.702 169.753 285.843 173.612 285.843 178.375H291.843C291.843 176.926 293.016 175.753 294.465 175.753V169.753ZM164.592 156.259C163.143 156.259 161.97 155.086 161.97 153.637H155.97C155.97 158.399 159.829 162.259 164.592 162.259V156.259ZM176.961 156.259H164.592V162.259H176.961V156.259ZM179.583 153.637C179.583 155.086 178.41 156.259 176.961 156.259V162.259C181.723 162.259 185.583 158.399 185.583 153.637H179.583ZM176.961 151.015C178.41 151.015 179.583 152.188 179.583 153.637H185.583C185.583 148.874 181.723 145.015 176.961 145.015V151.015ZM164.592 151.015H176.961V145.015H164.592V151.015ZM161.97 153.637C161.97 152.188 163.143 151.015 164.592 151.015V145.015C159.829 145.015 155.97 148.874 155.97 153.637H161.97ZM193.076 153.637C193.076 158.399 196.936 162.259 201.699 162.259V156.259C200.25 156.259 199.076 155.086 199.076 153.637H193.076ZM201.699 145.015C196.936 145.015 193.076 148.874 193.076 153.637H199.076C199.076 152.188 200.25 151.015 201.699 151.015V145.015ZM214.067 145.015H201.699V151.015H214.067V145.015ZM222.69 153.637C222.69 148.874 218.83 145.015 214.067 145.015V151.015C215.516 151.015 216.69 152.188 216.69 153.637H222.69ZM214.067 162.259C218.83 162.259 222.69 158.399 222.69 153.637H216.69C216.69 155.086 215.516 156.259 214.067 156.259V162.259ZM201.699 162.259H214.067V156.259H201.699V162.259ZM238.805 156.259C237.356 156.259 236.183 155.086 236.183 153.637H230.183C230.183 158.399 234.043 162.259 238.805 162.259V156.259ZM251.174 156.259H238.805V162.259H251.174V156.259ZM253.796 153.637C253.796 155.086 252.623 156.259 251.174 156.259V162.259C255.937 162.259 259.796 158.399 259.796 153.637H253.796ZM251.174 151.015C252.623 151.015 253.796 152.188 253.796 153.637H259.796C259.796 148.874 255.937 145.015 251.174 145.015V151.015ZM238.805 151.015H251.174V145.015H238.805V151.015ZM236.183 153.637C236.183 152.188 237.356 151.015 238.805 151.015V145.015C234.043 145.015 230.183 148.874 230.183 153.637H236.183ZM267.289 153.637C267.289 158.399 271.149 162.259 275.911 162.259V156.259C274.462 156.259 273.289 155.086 273.289 153.637H267.289ZM275.911 145.015C271.149 145.015 267.289 148.874 267.289 153.637H273.289C273.289 152.188 274.462 151.015 275.911 151.015V145.015ZM288.28 145.015H275.911V151.015H288.28V145.015ZM296.902 153.637C296.902 148.874 293.043 145.015 288.28 145.015V151.015C289.729 151.015 290.902 152.188 290.902 153.637H296.902ZM288.28 162.259C293.043 162.259 296.902 158.399 296.902 153.637H290.902C290.902 155.086 289.729 156.259 288.28 156.259V162.259ZM275.911 162.259H288.28V156.259H275.911V162.259Z" fill="#3A0D49" mask="url(#path-1-inside-1_2306_8858)"/>
</g>
<defs>
<filter id="filter0_d_2306_8858" x="0.800059" y="0" width="452.4" height="211.135" filterUnits="userSpaceOnUse" color-interpolation-filters="sRGB">
<feFlood flood-opacity="0" result="BackgroundImageFix"/>
<feColorMatrix in="SourceAlpha" type="matrix" values="0 0 0 0 0 0 0 0 0 0 0 0 0 0 0 0 0 0 127 0" result="hardAlpha"/>
<feOffset dy="1.2"/>
<feGaussianBlur stdDeviation="0.600001"/>
<feComposite in2="hardAlpha" operator="out"/>
<feColorMatrix type="matrix" values="0 0 0 0 0 0 0 0 0 0 0 0 0 0 0 0 0 0 0.25 0"/>
<feBlend mode="normal" in2="BackgroundImageFix" result="effect1_dropShadow_2306_8858"/>
<feBlend mode="normal" in="SourceGraphic" in2="effect1_dropShadow_2306_8858" result="shape"/>
</filter>
<linearGradient id="paint0_linear_2306_8858" x1="227" y1="0" x2="227" y2="208.735" gradientUnits="userSpaceOnUse">
<stop offset="0.145" stop-color="#FFC291"/>
<stop offset="0.56" stop-color="#EF7FA4"/>
<stop offset="0.885" stop-color="#E24BB3"/>
</linearGradient>
</defs>
</svg>
