<svg width="323" height="281" viewBox="0 0 323 281" fill="none" xmlns="http://www.w3.org/2000/svg">
<g filter="url(#filter0_d_1146_1768)">
<path d="M134.994 150.45C135.093 150.472 135.22 150.503 135.349 150.545C135.414 150.566 135.525 150.605 135.65 150.665L135.655 150.668C135.731 150.704 136.061 150.863 136.351 151.205C136.518 151.403 136.77 151.779 136.827 152.321C136.89 152.913 136.69 153.418 136.432 153.765C136.046 154.285 135.532 154.46 135.446 154.489C135.443 154.49 135.441 154.49 135.439 154.491C135.173 154.584 134.928 154.607 134.86 154.613L134.854 154.614C134.503 154.647 133.957 154.637 133.436 154.62C132.296 154.583 130.596 154.483 128.923 154.368C127.247 154.252 125.564 154.119 124.449 154.014C123.919 153.964 123.44 153.914 123.166 153.868L123.161 153.867C123.11 153.858 122.945 153.831 122.771 153.774C122.719 153.757 122.615 153.722 122.492 153.661L122.488 153.659C122.413 153.623 122.082 153.461 121.794 153.106C121.626 152.898 121.397 152.53 121.347 152.014C121.292 151.461 121.467 150.985 121.7 150.648C122.06 150.126 122.55 149.937 122.638 149.903L122.645 149.9C122.899 149.801 123.123 149.774 123.165 149.77L123.169 149.769C123.249 149.759 123.319 149.755 123.366 149.752C123.458 149.747 123.555 149.746 123.645 149.746C126.063 149.724 126.677 149.6 127.17 149.404C127.302 149.352 127.433 149.292 127.591 149.211C127.16 148.364 126.818 147.484 126.527 146.618C125.568 146.6 124.689 146.578 123.968 146.553C123.241 146.527 122.621 146.498 122.243 146.461C122.149 146.452 122.029 146.439 121.909 146.418C121.854 146.409 121.75 146.389 121.629 146.354C121.569 146.336 121.465 146.303 121.343 146.247C121.252 146.206 120.983 146.079 120.721 145.813C120.425 145.512 119.959 144.814 120.191 143.877C120.377 143.126 120.904 142.755 121.046 142.661C121.362 142.449 121.672 142.376 121.721 142.364L121.725 142.363C121.902 142.319 122.072 142.3 122.155 142.292C122.914 142.211 123.178 142.043 123.483 141.822C123.554 141.77 123.641 141.703 123.742 141.624C124 141.424 124.353 141.149 124.803 140.86C124.375 139.609 123.892 138.519 123.255 137.605C122.765 136.901 122.37 136.259 122.121 135.679C121.905 135.178 121.593 134.27 121.955 133.303C122.366 132.206 123.322 131.82 123.781 131.682C124.212 131.553 124.701 131.496 125.013 131.461C125.034 131.458 125.055 131.456 125.074 131.453C125.851 131.363 126.381 131.282 126.836 131.038C126.868 131.021 126.901 131.002 126.935 130.981C127.324 130.625 127.622 130.27 127.834 129.799L124.85 94.3046L111.882 89.8182L109.997 89.1663L109.993 89.1648L110.571 87.345C110.557 87.2852 110.495 87.028 110.134 86.4801C109.677 85.7888 109.026 85.045 108.262 84.1721C108.174 84.0718 108.085 83.9699 107.994 83.8661C107.198 82.9551 106.233 81.8343 105.661 80.7231C105.366 80.1521 105.089 79.4246 105.078 78.6094C105.066 77.7189 105.375 76.8611 106.026 76.1591C108.501 73.4912 111.578 71.2757 115.064 69.6244L134.994 150.45ZM134.994 150.45C134.795 150.403 134.605 150.349 134.424 150.288M134.994 150.45L134.424 150.288M134.424 150.288C137.16 148.77 139.597 146.885 141.628 144.695C144.102 142.028 145.926 138.96 146.969 135.661C146.97 135.657 146.971 135.654 146.972 135.651L147.685 133.466H175.419L175.956 135.615L175.971 135.675L175.99 135.735C177.032 139.038 178.857 142.11 181.333 144.779C183.808 147.447 186.885 149.663 190.371 151.314C193.781 152.931 197.534 153.972 201.413 154.385C205.292 154.798 209.234 154.577 213.014 153.733L213.021 153.732L213.029 153.73C220.721 151.952 227.361 147.743 231.431 141.892C235.517 136.016 236.65 128.989 234.5 122.373C234.5 122.372 234.499 122.371 234.499 122.37L222.535 85.1175C222.535 85.1163 222.534 85.1151 222.534 85.1139C221.489 81.8135 219.663 78.7447 217.189 76.0771C214.714 73.4097 211.639 71.1936 208.155 69.5404L208.154 69.5403C204.744 67.9229 200.991 66.8824 197.112 66.4691C193.233 66.0558 189.291 66.2764 185.511 67.1204L185.506 67.1215C181.488 68.0294 177.725 69.6179 174.461 71.8013C171.537 73.7571 169.063 76.1577 167.179 78.8909H156.03C154.133 76.1754 151.653 73.7919 148.73 71.8504C145.468 69.6843 141.715 68.108 137.711 67.2054L137.707 67.2045C133.927 66.3605 129.985 66.1399 126.106 66.5532C122.227 66.9665 118.474 68.0069 115.065 69.6239L134.424 150.288ZM130.666 136.801C130.308 137.187 129.923 137.558 129.514 137.912C128.936 137.333 128.419 136.715 127.97 136.064C127.847 135.885 127.773 135.754 127.73 135.664C127.794 135.599 127.894 135.505 128.048 135.376C128.153 135.289 128.284 135.188 128.434 135.073C128.745 134.833 129.136 134.531 129.549 134.155C130.544 133.404 131.361 132.293 131.866 130.723C131.866 130.721 131.867 130.72 131.868 130.718L131.993 130.333L131.993 130.328L131.959 129.919L128.823 92.6318L128.712 91.3026L127.451 90.8664L115.281 86.6563C115.779 85.7135 116.419 84.8111 117.197 83.971C118.47 82.5964 120.082 81.4189 121.955 80.5226C124.362 79.3993 127.106 78.7945 129.916 78.7842C131.326 78.7874 132.728 78.9405 134.086 79.2385C136.617 79.8268 138.91 80.8936 140.786 82.3261C142.663 83.7599 144.054 85.5078 144.887 87.4018L144.89 87.4091L146.123 90.1852L146.664 91.4031H147.996H175.222H176.554L177.095 90.1852L178.328 87.4091L178.334 87.3966C179.158 85.5065 180.541 83.761 182.409 82.3279C184.276 80.896 186.561 79.8282 189.084 79.2378C191.119 78.7875 193.246 78.6688 195.342 78.8907C197.441 79.1128 199.453 79.6705 201.262 80.5221C203.134 81.4128 204.742 82.5882 206.006 83.9617C207.269 85.3349 208.161 86.8752 208.656 88.4839L208.66 88.4965L208.664 88.5091L220.633 125.693L220.637 125.705L220.64 125.716C221.709 128.904 221.216 132.322 219.188 135.273C217.144 138.248 213.672 140.541 209.441 141.532C207.407 141.982 205.279 142.101 203.183 141.879C201.086 141.657 199.075 141.1 197.267 140.249C193.477 138.427 190.856 135.517 189.811 132.266C189.811 132.265 189.811 132.263 189.81 132.262L186.679 122.384L186.226 120.954H184.725H138.493H137L136.542 122.375L133.357 132.26L133.354 132.27C132.843 133.883 131.939 135.426 130.666 136.801ZM127.672 135.508C127.672 135.508 127.674 135.514 127.675 135.526C127.672 135.514 127.671 135.508 127.672 135.508ZM122.565 146.371C122.565 146.371 122.569 146.37 122.577 146.369C122.569 146.371 122.565 146.371 122.565 146.371ZM123.849 149.825C123.847 149.825 123.846 149.825 123.844 149.825C123.825 149.821 123.829 149.821 123.849 149.825Z" fill="url(#paint0_linear_1146_1768)" stroke="#3A0D49" stroke-width="4.0996"/>
<path d="M164.945 190.69V192.968H167.222H258.778C268.498 192.968 277.813 189.052 284.677 182.092C291.539 175.133 295.389 165.701 295.389 155.873V39.8169C295.389 29.989 291.539 20.5574 284.677 13.5985C277.813 6.63845 268.498 2.72244 258.778 2.72244H75.6667C65.9465 2.72244 56.631 6.63845 49.7676 13.5985C42.9054 20.5574 39.0558 29.989 39.0558 39.8169V41.2792V44.2424L41.9192 43.4801C45.3815 42.5585 48.9989 42.0945 52.7778 42.0945H64.2222H66.4998V39.8169C66.4998 37.3328 67.4732 34.9566 69.1959 33.2097C70.9176 31.4638 73.2458 30.4888 75.6667 30.4888H258.778C261.199 30.4888 263.527 31.4638 265.249 33.2097C266.971 34.9566 267.945 37.3327 267.945 39.8169V155.873C267.945 158.357 266.971 160.734 265.249 162.481C263.527 164.226 261.199 165.201 258.778 165.201H167.222H164.945V167.479V190.69ZM164.945 237.113V239.39H167.222H304.556C308.205 239.39 311.699 237.92 314.27 235.313C316.839 232.707 318.278 229.179 318.278 225.507C318.278 221.835 316.839 218.307 314.27 215.701C311.699 213.094 308.205 211.624 304.556 211.624H167.222H164.945V213.901V237.113ZM75.6667 239.39C79.3163 239.39 82.81 237.92 85.3808 235.313C87.9506 232.707 89.3887 229.179 89.3887 225.507C89.3887 221.835 87.9506 218.307 85.3808 215.701C82.81 213.094 79.3163 211.624 75.6667 211.624C72.017 211.624 68.5234 213.094 65.9525 215.701C63.3828 218.307 61.9447 221.835 61.9447 225.507C61.9447 229.179 63.3828 232.707 65.9525 235.313C68.5234 237.92 72.017 239.39 75.6667 239.39ZM15.4343 71.6266C8.57202 78.5856 4.72244 88.0172 4.72244 97.8451V237.113C4.72244 246.941 8.57202 256.372 15.4343 263.331C22.2976 270.291 31.6132 274.207 41.3333 274.207H110C119.72 274.207 129.036 270.291 135.899 263.331C142.761 256.372 146.611 246.941 146.611 237.113V97.8451C146.611 88.0172 142.761 78.5856 135.899 71.6266C129.036 64.6666 119.72 60.7506 110 60.7506H41.3333C31.6132 60.7506 22.2976 64.6666 15.4343 71.6266ZM34.8626 91.2378C36.5842 89.4919 38.9125 88.517 41.3333 88.517H110C112.421 88.517 114.749 89.4919 116.471 91.2378C118.193 92.9848 119.167 95.3609 119.167 97.8451V237.113C119.167 239.597 118.193 241.973 116.471 243.72C114.749 245.466 112.421 246.441 110 246.441H41.3333C38.9125 246.441 36.5842 245.466 34.8626 243.72C33.1399 241.973 32.1664 239.597 32.1664 237.113V97.8451C32.1664 95.3609 33.1399 92.9848 34.8626 91.2378Z" fill="url(#paint1_linear_1146_1768)" stroke="#3A0D49" stroke-width="4.55511"/>
<path d="M192.277 97.9238C195.11 97.9238 197.406 96.0884 197.406 93.8242C197.406 91.5601 195.11 89.7246 192.277 89.7246C189.444 89.7246 187.147 91.5601 187.147 93.8242C187.147 96.0884 189.444 97.9238 192.277 97.9238Z" fill="url(#paint2_linear_1146_1768)"/>
<path d="M192.277 114.323C195.11 114.323 197.406 112.385 197.406 109.995C197.406 107.605 195.11 105.668 192.277 105.668C189.444 105.668 187.147 107.605 187.147 109.995C187.147 112.385 189.444 114.323 192.277 114.323Z" fill="url(#paint3_linear_1146_1768)"/>
<path d="M182.018 105.668C184.851 105.668 187.147 103.934 187.147 101.796C187.147 99.6573 184.851 97.9238 182.018 97.9238C179.185 97.9238 176.888 99.6573 176.888 101.796C176.888 103.934 179.185 105.668 182.018 105.668Z" fill="url(#paint4_linear_1146_1768)"/>
<path d="M158.627 108.857C160.327 108.857 161.705 107.837 161.705 106.579C161.705 105.321 160.327 104.302 158.627 104.302C156.928 104.302 155.55 105.321 155.55 106.579C155.55 107.837 156.928 108.857 158.627 108.857Z" fill="url(#paint5_linear_1146_1768)"/>
<path d="M202.741 105.668C205.461 105.668 207.665 103.934 207.665 101.796C207.665 99.6573 205.461 97.9238 202.741 97.9238C200.021 97.9238 197.817 99.6573 197.817 101.796C197.817 103.934 200.021 105.668 202.741 105.668Z" fill="url(#paint6_linear_1146_1768)"/>
<path d="M149.172 66.5293L149.889 67.0086L150.545 66.4482C151.887 65.3008 153.557 64.3667 155.451 63.7221C157.345 63.0778 159.408 62.7419 161.5 62.7419C163.592 62.7419 165.655 63.0778 167.549 63.7221C169.443 64.3667 171.113 65.3008 172.455 66.4482L173.111 67.0086L173.828 66.5293L181.625 61.3184L182.875 60.4829L181.732 59.506C179.172 57.3182 176.043 55.5812 172.56 54.3961C169.077 53.2108 165.307 52.6005 161.5 52.6005C157.693 52.6005 153.924 53.2108 150.44 54.3961C146.957 55.5812 143.828 57.3182 141.268 59.506L140.125 60.4829L141.375 61.3184L149.172 66.5293Z" fill="url(#paint7_linear_1146_1768)" stroke="#3A0D49" stroke-width="2.27756"/>
<path d="M188.022 56.4035L188.699 57.0191L189.446 56.4914L197.243 50.984L198.401 50.1661L197.352 49.2117C192.843 45.1078 187.313 41.834 181.135 39.5957C174.958 37.3573 168.265 36.202 161.5 36.202C154.735 36.202 148.042 37.3573 141.865 39.5957C135.687 41.834 130.157 45.1078 125.648 49.2117L124.599 50.1661L125.757 50.984L133.554 56.4914L134.301 57.0191L134.978 56.4035C138.273 53.4041 142.341 50.9889 146.918 49.3305C151.494 47.6722 156.466 46.8121 161.5 46.8121C166.534 46.8121 171.506 47.6722 176.082 49.3305C180.659 50.9889 184.727 53.4041 188.022 56.4035Z" fill="url(#paint8_linear_1146_1768)" stroke="#3A0D49" stroke-width="2.27756"/>
<path d="M86.5511 128.483C85.7055 127.718 84.581 127.305 83.4293 127.305H70.0926C68.9409 127.305 67.8164 127.718 66.9708 128.483C66.1215 129.252 65.6197 130.32 65.6197 131.461V137.497C65.6197 137.818 65.7558 138.125 65.9943 138.341L75.9968 147.394C76.4306 147.787 77.0913 147.787 77.5251 147.394L87.5276 138.341C87.7661 138.125 87.9022 137.818 87.9022 137.497V131.461C87.9022 130.32 87.4004 129.252 86.5511 128.483ZM86.5511 128.483L85.7906 129.323L86.5511 128.483C86.5511 128.483 86.5511 128.483 86.5511 128.483ZM70.8568 153.43C71.0953 153.214 71.2314 152.907 71.2314 152.585C71.2314 152.264 71.0953 151.957 70.8568 151.741L60.8543 142.688C60.6449 142.498 60.3726 142.393 60.0901 142.393H53.4218C52.2701 142.393 51.1456 142.806 50.3 143.572C49.4507 144.34 48.9489 145.409 48.9489 146.55V158.621C48.9489 159.762 49.4507 160.83 50.3 161.599C51.1456 162.364 52.2701 162.778 53.4218 162.778H60.0901C60.3726 162.778 60.6449 162.673 60.8543 162.483L70.8568 153.43ZM82.6651 151.741C82.4266 151.957 82.2905 152.264 82.2905 152.585C82.2905 152.907 82.4266 153.214 82.6651 153.43L92.6676 162.483C92.877 162.673 93.1493 162.778 93.4318 162.778H100.1C101.252 162.778 102.376 162.364 103.222 161.599C104.071 160.83 104.573 159.762 104.573 158.621V146.55C104.573 145.409 104.071 144.34 103.222 143.572L102.458 144.416L103.222 143.572C102.376 142.806 101.252 142.393 100.1 142.393H93.4318C93.1493 142.393 92.877 142.498 92.6676 142.688L82.6651 151.741ZM65.9943 166.83C65.7558 167.046 65.6197 167.353 65.6197 167.674V173.71C65.6197 174.851 66.1215 175.919 66.9708 176.688C67.8164 177.453 68.9409 177.866 70.0926 177.866H83.4293C84.581 177.866 85.7055 177.453 86.5511 176.688C87.4004 175.919 87.9022 174.851 87.9022 173.71V167.674C87.9022 167.353 87.7661 167.046 87.5276 166.83L77.5251 157.777C77.0913 157.384 76.4306 157.384 75.9968 157.777L65.9943 166.83Z" fill="url(#paint9_linear_1146_1768)" stroke="#3A0D49" stroke-width="2.27756" stroke-linecap="round" stroke-linejoin="round"/>
</g>
<defs>
<filter id="filter0_d_1146_1768" x="0.62284" y="0.445312" width="321.754" height="279.683" filterUnits="userSpaceOnUse" color-interpolation-filters="sRGB">
<feFlood flood-opacity="0" result="BackgroundImageFix"/>
<feColorMatrix in="SourceAlpha" type="matrix" values="0 0 0 0 0 0 0 0 0 0 0 0 0 0 0 0 0 0 127 0" result="hardAlpha"/>
<feOffset dy="1.82205"/>
<feGaussianBlur stdDeviation="0.911023"/>
<feComposite in2="hardAlpha" operator="out"/>
<feColorMatrix type="matrix" values="0 0 0 0 0 0 0 0 0 0 0 0 0 0 0 0 0 0 0.25 0"/>
<feBlend mode="normal" in2="BackgroundImageFix" result="effect1_dropShadow_1146_1768"/>
<feBlend mode="normal" in="SourceGraphic" in2="effect1_dropShadow_1146_1768" result="shape"/>
</filter>
<linearGradient id="paint0_linear_1146_1768" x1="169.096" y1="175.97" x2="169.827" y2="68.313" gradientUnits="userSpaceOnUse">
<stop stop-color="#E24BB3"/>
<stop offset="0.355614" stop-color="#EF7FA4"/>
<stop offset="0.811811" stop-color="#FFC291"/>
</linearGradient>
<linearGradient id="paint1_linear_1146_1768" x1="158.5" y1="346" x2="161.5" y2="5.00001" gradientUnits="userSpaceOnUse">
<stop stop-color="#E24BB3"/>
<stop offset="0.355614" stop-color="#EF7FA4"/>
<stop offset="0.811811" stop-color="#FFC291"/>
</linearGradient>
<linearGradient id="paint2_linear_1146_1768" x1="192.177" y1="100.199" x2="192.263" y2="89.7245" gradientUnits="userSpaceOnUse">
<stop stop-color="#E24BB3"/>
<stop offset="0.355614" stop-color="#EF7FA4"/>
<stop offset="0.811811" stop-color="#FFC291"/>
</linearGradient>
<linearGradient id="paint3_linear_1146_1768" x1="192.177" y1="116.724" x2="192.272" y2="105.668" gradientUnits="userSpaceOnUse">
<stop stop-color="#E24BB3"/>
<stop offset="0.355614" stop-color="#EF7FA4"/>
<stop offset="0.811811" stop-color="#FFC291"/>
</linearGradient>
<linearGradient id="paint4_linear_1146_1768" x1="181.918" y1="107.816" x2="181.994" y2="97.9236" gradientUnits="userSpaceOnUse">
<stop stop-color="#E24BB3"/>
<stop offset="0.355614" stop-color="#EF7FA4"/>
<stop offset="0.811811" stop-color="#FFC291"/>
</linearGradient>
<linearGradient id="paint5_linear_1146_1768" x1="158.568" y1="110.121" x2="158.612" y2="104.302" gradientUnits="userSpaceOnUse">
<stop stop-color="#E24BB3"/>
<stop offset="0.355614" stop-color="#EF7FA4"/>
<stop offset="0.811811" stop-color="#FFC291"/>
</linearGradient>
<linearGradient id="paint6_linear_1146_1768" x1="202.645" y1="107.816" x2="202.725" y2="97.9237" gradientUnits="userSpaceOnUse">
<stop stop-color="#E24BB3"/>
<stop offset="0.355614" stop-color="#EF7FA4"/>
<stop offset="0.811811" stop-color="#FFC291"/>
</linearGradient>
<linearGradient id="paint7_linear_1146_1768" x1="161.122" y1="68.8689" x2="161.168" y2="53.7382" gradientUnits="userSpaceOnUse">
<stop stop-color="#E24BB3"/>
<stop offset="0.355614" stop-color="#EF7FA4"/>
<stop offset="0.811811" stop-color="#FFC291"/>
</linearGradient>
<linearGradient id="paint8_linear_1146_1768" x1="160.819" y1="60.6173" x2="160.88" y2="37.3392" gradientUnits="userSpaceOnUse">
<stop stop-color="#E24BB3"/>
<stop offset="0.355614" stop-color="#EF7FA4"/>
<stop offset="0.811811" stop-color="#FFC291"/>
</linearGradient>
<linearGradient id="paint9_linear_1146_1768" x1="76.243" y1="190.126" x2="76.8116" y2="128.444" gradientUnits="userSpaceOnUse">
<stop stop-color="#E24BB3"/>
<stop offset="0.355614" stop-color="#EF7FA4"/>
<stop offset="0.811811" stop-color="#FFC291"/>
</linearGradient>
</defs>
</svg>
