<svg width="162" height="141" viewBox="0 0 162 141" fill="none" xmlns="http://www.w3.org/2000/svg">
<g id="Group 393" filter="url(#filter0_d_1272_4577)">
<path id="Vector" d="M67.4968 75.7248C67.5464 75.7359 67.61 75.7514 67.6744 75.7725C67.707 75.7831 67.7622 75.8024 67.8251 75.8327L67.8275 75.8338C67.8656 75.8522 68.0306 75.9314 68.1753 76.1026C68.2588 76.2014 68.3851 76.3895 68.4137 76.6605C68.4449 76.9567 68.345 77.2091 68.2162 77.3825C68.023 77.6427 67.7661 77.7298 67.7232 77.7443C67.7217 77.7448 67.7205 77.7452 67.7195 77.7456C67.5864 77.7919 67.464 77.8034 67.4298 77.8066L67.4269 77.8069C67.2516 77.8235 66.9786 77.8185 66.7182 77.81C66.1479 77.7914 65.2979 77.7413 64.4617 77.6838C63.6234 77.6261 62.7818 77.5597 62.2243 77.5071C61.9595 77.4821 61.72 77.4568 61.5827 77.4338L61.5804 77.4334C61.555 77.4292 61.4726 77.4154 61.3857 77.3872C61.3594 77.3786 61.3075 77.3608 61.2461 77.3307L61.2441 77.3297C61.2067 77.3115 61.0407 77.2305 60.897 77.0528C60.8132 76.9492 60.6985 76.765 60.6732 76.5071C60.6462 76.2306 60.7337 75.9927 60.85 75.8241C61.0301 75.5632 61.2749 75.4686 61.319 75.4515L61.3224 75.4502C61.4493 75.4005 61.5615 75.3872 61.5824 75.3848L61.5846 75.3845C61.6246 75.3795 61.6597 75.3773 61.6827 75.376C61.7289 75.3736 61.7776 75.3729 61.8225 75.3728M67.4968 75.7248L57.5318 35.3122C55.7888 36.1379 54.2503 37.2456 53.013 38.5796C52.6874 38.9306 52.5328 39.3595 52.539 39.8047C52.5446 40.2123 52.6832 40.576 52.8302 40.8616C53.1163 41.4172 53.5991 41.9775 53.997 42.4331C54.0423 42.4849 54.0869 42.5359 54.1308 42.586C54.5129 43.0225 54.8385 43.3944 55.0668 43.74C55.2477 44.014 55.2787 44.1426 55.2856 44.1725L54.9963 45.0824L54.9984 45.0831L55.9407 45.4091L62.425 47.6523L63.9172 65.3995C63.8109 65.6349 63.6618 65.8125 63.4675 65.9905C63.4506 66.0009 63.434 66.0104 63.4178 66.0191C63.1906 66.1412 62.9255 66.1815 62.5372 66.2267C62.5273 66.2279 62.517 66.2291 62.5063 66.2303C62.3507 66.2482 62.106 66.2764 61.8906 66.3411C61.6611 66.41 61.1831 66.6028 60.9775 67.1513C60.7963 67.6348 60.9524 68.089 61.0604 68.3397C61.1852 68.6293 61.3827 68.9503 61.6277 69.3024C61.9458 69.7596 62.1873 70.3047 62.4015 70.93C62.1762 71.0745 61.9997 71.2118 61.8712 71.3118C61.8205 71.3513 61.7772 71.385 61.7414 71.411C61.5888 71.5217 61.4571 71.6054 61.0775 71.6458C61.0362 71.6501 60.9511 71.6596 60.8627 71.6815L60.8603 71.6821C60.836 71.6878 60.6812 71.7245 60.5229 71.8303C60.452 71.8777 60.1885 72.0628 60.0954 72.4387C59.9795 72.907 60.2127 73.256 60.3604 73.4063C60.4914 73.5396 60.6261 73.603 60.6714 73.6236C60.7326 73.6514 60.7846 73.668 60.8145 73.6768C60.8749 73.6946 60.9269 73.7043 60.9545 73.7091C61.0143 73.7194 61.0746 73.7261 61.1217 73.7306C61.3104 73.7488 61.6207 73.7637 61.9841 73.7763C62.3444 73.7888 62.7838 73.7999 63.2636 73.8089C63.409 74.2418 63.5799 74.6821 63.7955 75.1056C63.7165 75.1458 63.6508 75.1761 63.585 75.2022C63.3384 75.3 63.0317 75.3622 61.8225 75.3728M67.4968 75.7248C67.3976 75.7015 67.3027 75.6746 67.2118 75.6442M67.4968 75.7248L67.2118 75.6442M61.8225 75.3728C61.8239 75.3728 61.8253 75.3728 61.8267 75.3728L61.8277 76.3977L61.8188 75.3729C61.82 75.3728 61.8213 75.3728 61.8225 75.3728ZM67.2118 75.6442C68.5799 74.8849 69.7984 73.9424 70.8141 72.8474C72.0508 71.5141 72.963 69.9801 73.4842 68.3303C73.4848 68.3286 73.4853 68.3269 73.4858 68.3253L73.8426 67.2331H87.7095L87.9778 68.3074L87.9854 68.3376L87.9947 68.3673C88.5158 70.019 89.4285 71.5548 90.6665 72.8894C91.9039 74.2235 93.4425 75.3313 95.1857 76.157C96.8907 76.9656 98.7671 77.4858 100.706 77.6924C102.646 77.8991 104.617 77.7887 106.507 77.3668L106.514 77.365C110.36 76.4759 113.68 74.3716 115.715 71.4459C117.759 68.5082 118.325 64.9947 117.25 61.6867C117.25 61.6861 117.25 61.6856 117.249 61.685L111.267 43.0587C111.267 43.0581 111.267 43.0575 111.267 43.0569C110.744 41.4068 109.831 39.8723 108.594 38.5386C107.357 37.2048 105.819 36.0968 104.077 35.2702L104.077 35.2701C102.372 34.4615 100.496 33.9412 98.5561 33.7345C96.6165 33.5279 94.6456 33.6382 92.7556 34.0602L92.753 34.0608C90.7442 34.5147 88.8625 35.3089 87.2304 36.4007C85.7684 37.3785 84.5313 38.5789 83.5897 39.9454H78.0149C77.0667 38.5877 75.8267 37.3959 74.365 36.4252C72.7342 35.3421 70.8576 34.554 68.8554 34.1027L68.8534 34.1022C66.9634 33.6803 64.9926 33.5699 63.0529 33.7766C61.1136 33.9832 59.2372 34.5034 57.5323 35.312L67.2118 75.6442ZM65.333 68.9004C65.1541 69.0937 64.9617 69.2792 64.7567 69.4559C64.4679 69.1664 64.2095 68.8574 63.9851 68.5321C63.9233 68.4425 63.8866 68.3769 63.8651 68.3321C63.897 68.2996 63.9472 68.2523 64.0241 68.1882C64.0767 68.1444 64.1421 68.094 64.217 68.0363C64.3722 67.9165 64.568 67.7655 64.7745 67.5774C65.2722 67.2018 65.6803 66.6463 65.9329 65.8616C65.9332 65.8607 65.9335 65.8598 65.9338 65.8589L65.9967 65.6665L65.9964 65.6638L65.9793 65.4596L64.4117 46.8159L64.3558 46.1513L63.7255 45.9332L57.6405 43.8282C57.8894 43.3568 58.2097 42.9055 58.5985 42.4855C59.2347 41.7982 60.0408 41.2094 60.9773 40.7613C62.1811 40.1996 63.5528 39.8972 64.9579 39.8921C65.6631 39.8937 66.3641 39.9703 67.0429 40.1193C68.3083 40.4134 69.4551 40.9468 70.3929 41.663C71.3315 42.3799 72.0272 43.2539 72.4434 44.2009L72.445 44.2045L73.0614 45.5926L73.3318 46.2015H73.9981H87.6109H88.2772L88.5476 45.5926L89.164 44.2045L89.1667 44.1983C89.5789 43.2533 90.2703 42.3805 91.2045 41.6639C92.1379 40.948 93.2805 40.4141 94.5421 40.1189C95.5593 39.8937 96.6232 39.8344 97.6712 39.9453C98.7204 40.0564 99.7263 40.3352 100.631 40.761C101.567 41.2064 102.371 41.7941 103.003 42.4808C103.635 43.1674 104.08 43.9376 104.328 44.7419L104.328 44.742L104.332 44.7546L110.316 63.3465L110.316 63.3465L110.32 63.3581C110.854 64.9519 110.608 66.6608 109.594 68.1366C108.572 69.6239 106.836 70.7703 104.72 71.266C103.703 71.4911 102.639 71.5505 101.591 71.4395C100.543 71.3286 99.5376 71.05 98.6333 70.6247C96.7387 69.7135 95.4281 68.2587 94.9057 66.6329C94.9055 66.6323 94.9053 66.6317 94.9051 66.6311L93.3395 61.6922L93.1128 60.977H92.3625H69.2465H68.4999L68.271 61.6876L66.6785 66.63L66.6769 66.6351C66.4217 67.4416 65.9695 68.2129 65.333 68.9004ZM63.8359 68.2541C63.8362 68.2542 63.837 68.2572 63.8376 68.2629C63.836 68.2569 63.8357 68.254 63.8359 68.2541ZM61.2824 73.6855C61.2825 73.6854 61.2843 73.6852 61.2883 73.6847C61.2844 73.6853 61.2823 73.6855 61.2824 73.6855ZM61.9243 75.4127C61.9235 75.4125 61.9227 75.4124 61.922 75.4123C61.9123 75.4106 61.9142 75.4107 61.9243 75.4127Z" fill="url(#paint0_linear_1272_4577)" stroke="#3A0D49" stroke-width="2.0498"/>
<path id="Vector_2" d="M82.4723 95.8451V96.9839H83.6111H129.389C134.249 96.9839 138.907 95.0259 142.338 91.5459C145.77 88.0664 147.694 83.3506 147.694 78.4366V20.4085C147.694 15.4945 145.77 10.7787 142.338 7.29923C138.907 3.81923 134.249 1.86122 129.389 1.86122H37.8333C32.9732 1.86122 28.3155 3.81923 24.8838 7.29923C21.4527 10.7787 19.5279 15.4945 19.5279 20.4085V21.1396V22.6212L20.9596 22.2401C22.6908 21.7792 24.4994 21.5472 26.3889 21.5472H32.1111H33.2499V20.4085C33.2499 19.1664 33.7366 17.9783 34.598 17.1048C35.4588 16.2319 36.6229 15.7444 37.8333 15.7444H129.389C130.599 15.7444 131.763 16.2319 132.624 17.1048C133.486 17.9783 133.972 19.1664 133.972 20.4085V78.4366C133.972 79.6787 133.486 80.8668 132.624 81.7403C131.763 82.6132 130.599 83.1007 129.389 83.1007H83.6111H82.4723V84.2394V95.8451ZM82.4723 119.056V120.195H83.6111H152.278C154.103 120.195 155.849 119.46 157.135 118.156C158.42 116.853 159.139 115.089 159.139 113.254C159.139 111.418 158.42 109.654 157.135 108.351C155.849 107.047 154.103 106.312 152.278 106.312H83.6111H82.4723V107.451V119.056ZM37.8333 120.195C39.6582 120.195 41.405 119.46 42.6904 118.156C43.9753 116.853 44.6943 115.089 44.6943 113.254C44.6943 111.418 43.9753 109.654 42.6904 108.351C41.405 107.047 39.6582 106.312 37.8333 106.312C36.0085 106.312 34.2617 107.047 32.9763 108.351C31.6914 109.654 30.9723 111.418 30.9723 113.254C30.9723 115.089 31.6914 116.853 32.9763 118.156C34.2617 119.46 36.0085 120.195 37.8333 120.195ZM7.71715 36.3133C4.28601 39.7928 2.36122 44.5086 2.36122 49.4225V119.056C2.36122 123.97 4.28601 128.686 7.71715 132.166C11.1488 135.646 15.8066 137.604 20.6667 137.604H55C59.8601 137.604 64.5178 135.646 67.9495 132.166C71.3807 128.686 73.3054 123.97 73.3054 119.056V49.4225C73.3054 44.5086 71.3807 39.7928 67.9495 36.3133C64.5178 32.8333 59.8601 30.8753 55 30.8753H20.6667C15.8066 30.8753 11.1488 32.8333 7.71715 36.3133ZM17.4313 46.1189C18.2921 45.246 19.4562 44.7585 20.6667 44.7585H55C56.2104 44.7585 57.3745 45.246 58.2354 46.1189C59.0967 46.9924 59.5834 48.1805 59.5834 49.4225V119.056C59.5834 120.298 59.0967 121.486 58.2354 122.36C57.3745 123.233 56.2104 123.72 55 123.72H20.6667C19.4562 123.72 18.2921 123.233 17.4313 122.36C16.5699 121.486 16.0832 120.298 16.0832 119.056V49.4225C16.0832 48.1805 16.5699 46.9924 17.4313 46.1189Z" fill="url(#paint1_linear_1272_4577)" stroke="#3A0D49" stroke-width="2.27756"/>
<path id="Vector_3" d="M96.1385 49.4619C97.5549 49.4619 98.7032 48.5442 98.7032 47.4121C98.7032 46.28 97.5549 45.3623 96.1385 45.3623C94.722 45.3623 93.5737 46.28 93.5737 47.4121C93.5737 48.5442 94.722 49.4619 96.1385 49.4619Z" fill="url(#paint2_linear_1272_4577)"/>
<path id="Vector_4" d="M96.1385 57.6613C97.5549 57.6613 98.7032 56.6926 98.7032 55.4977C98.7032 54.3027 97.5549 53.334 96.1385 53.334C94.722 53.334 93.5737 54.3027 93.5737 55.4977C93.5737 56.6926 94.722 57.6613 96.1385 57.6613Z" fill="url(#paint3_linear_1272_4577)"/>
<path id="Vector_5" d="M91.009 53.3338C92.4254 53.3338 93.5737 52.467 93.5737 51.3978C93.5737 50.3287 92.4254 49.4619 91.009 49.4619C89.5925 49.4619 88.4442 50.3287 88.4442 51.3978C88.4442 52.467 89.5925 53.3338 91.009 53.3338Z" fill="url(#paint4_linear_1272_4577)"/>
<path id="Vector_6" d="M79.3137 54.9279C80.1636 54.9279 80.8526 54.4181 80.8526 53.7892C80.8526 53.1602 80.1636 52.6504 79.3137 52.6504C78.4639 52.6504 77.7749 53.1602 77.7749 53.7892C77.7749 54.4181 78.4639 54.9279 79.3137 54.9279Z" fill="url(#paint5_linear_1272_4577)"/>
<path id="Vector_7" d="M101.37 53.3338C102.73 53.3338 103.833 52.467 103.833 51.3978C103.833 50.3287 102.73 49.4619 101.37 49.4619C100.011 49.4619 98.9083 50.3287 98.9083 51.3978C98.9083 52.467 100.011 53.3338 101.37 53.3338Z" fill="url(#paint6_linear_1272_4577)"/>
<path id="Vector_8" d="M74.586 33.7642L74.9446 34.0038L75.2724 33.7236C75.9436 33.1499 76.7784 32.6829 77.7256 32.3606C78.6724 32.0384 79.7038 31.8705 80.75 31.8705C81.7963 31.8705 82.8277 32.0384 83.7745 32.3606C84.7217 32.6829 85.5565 33.1499 86.2277 33.7236L86.5555 34.0038L86.914 33.7642L90.8124 31.1587L91.4375 30.741L90.866 30.2525C89.5861 29.1586 88.0214 28.2901 86.28 27.6976C84.5383 27.1049 82.6536 26.7998 80.75 26.7998C78.8465 26.7998 76.9618 27.1049 75.2201 27.6976C73.4787 28.2901 71.914 29.1586 70.6341 30.2525L70.0626 30.741L70.6876 31.1587L74.586 33.7642Z" fill="url(#paint7_linear_1272_4577)" stroke="#3A0D49" stroke-width="1.13878"/>
<path id="Vector_9" d="M94.0111 28.7012L94.3494 29.0091L94.7229 28.7452L98.6213 25.9915L99.2003 25.5825L98.6761 25.1054C96.4216 23.0534 93.6563 21.4165 90.5677 20.2974C87.4789 19.1782 84.1325 18.6005 80.75 18.6005C77.3674 18.6005 74.0211 19.1782 70.9323 20.2974C67.8436 21.4165 65.0784 23.0534 62.8239 25.1054L62.2996 25.5825L62.8786 25.9915L66.7771 28.7452L67.1506 29.0091L67.4888 28.7012C69.1365 27.2015 71.1704 25.994 73.4588 25.1648C75.7472 24.3356 78.2329 23.9056 80.75 23.9056C83.267 23.9056 85.7528 24.3356 88.0411 25.1648C90.3296 25.994 92.3634 27.2015 94.0111 28.7012Z" fill="url(#paint8_linear_1272_4577)" stroke="#3A0D49" stroke-width="1.13878"/>
<path id="Vector_10" d="M35.4284 77.2149C35.5477 77.1069 35.6157 76.9536 35.6157 76.7927C35.6157 76.6319 35.5477 76.4785 35.4284 76.3706L30.4272 71.8439C30.3225 71.7492 30.1863 71.6967 30.0451 71.6967H26.7109C26.1351 71.6967 25.5728 71.9032 25.15 72.2859C24.7254 72.6702 24.4744 73.2044 24.4744 73.775V79.8105C24.4744 80.381 24.7254 80.9152 25.15 81.2996C25.5728 81.6822 26.1351 81.8888 26.7109 81.8888H30.0451C30.1863 81.8888 30.3225 81.8363 30.4272 81.7415L35.4284 77.2149ZM41.3326 76.3706C41.2133 76.4785 41.1453 76.6319 41.1453 76.7927C41.1453 76.9536 41.2133 77.1069 41.3326 77.2149L46.3338 81.7415C46.4385 81.8363 46.5747 81.8888 46.7159 81.8888H50.05C50.6259 81.8888 51.1882 81.6822 51.6109 81.2996C52.0356 80.9152 52.2865 80.381 52.2865 79.8105V73.775C52.2865 73.2044 52.0356 72.6702 51.6109 72.2859L51.2289 72.708L51.6109 72.2859C51.1882 71.9032 50.6259 71.6967 50.05 71.6967H46.7159C46.5747 71.6967 46.4385 71.7492 46.3338 71.8439L41.3326 76.3706ZM32.9971 83.915C32.8779 84.0229 32.8098 84.1763 32.8098 84.3371V87.3549C32.8098 87.9254 33.0608 88.4596 33.4854 88.844C33.9082 89.2266 34.4705 89.4332 35.0463 89.4332H41.7146C42.2905 89.4332 42.8528 89.2266 43.2755 88.844C43.7002 88.4596 43.9511 87.9254 43.9511 87.3549V84.3371C43.9511 84.1763 43.8831 84.0229 43.7638 83.915L38.7626 79.3883C38.5457 79.192 38.2153 79.192 37.9984 79.3883L32.9971 83.915ZM37.9984 74.1971C38.2153 74.3934 38.5457 74.3934 38.7626 74.1971L43.2755 64.7415C42.8528 64.3588 42.2905 64.1523 41.7146 64.1523H35.0463C34.4705 64.1523 33.9082 64.3588 33.4854 64.7415C33.0608 65.1258 32.8098 65.66 32.8098 66.2306V69.2483C32.8098 69.4092 32.8779 69.5625 32.9971 69.6705L37.9984 74.1971Z" fill="url(#paint9_linear_1272_4577)" stroke="#3A0D49" stroke-width="1.13878" stroke-linecap="round" stroke-linejoin="round"/>
</g>
<defs>
<filter id="filter0_d_1272_4577" x="0.31139" y="0.722656" width="160.877" height="139.842" filterUnits="userSpaceOnUse" color-interpolation-filters="sRGB">
<feFlood flood-opacity="0" result="BackgroundImageFix"/>
<feColorMatrix in="SourceAlpha" type="matrix" values="0 0 0 0 0 0 0 0 0 0 0 0 0 0 0 0 0 0 127 0" result="hardAlpha"/>
<feOffset dy="0.911023"/>
<feGaussianBlur stdDeviation="0.455511"/>
<feComposite in2="hardAlpha" operator="out"/>
<feColorMatrix type="matrix" values="0 0 0 0 0 0 0 0 0 0 0 0 0 0 0 0 0 0 0.25 0"/>
<feBlend mode="normal" in2="BackgroundImageFix" result="effect1_dropShadow_1272_4577"/>
<feBlend mode="normal" in="SourceGraphic" in2="effect1_dropShadow_1272_4577" result="shape"/>
</filter>
<linearGradient id="paint0_linear_1272_4577" x1="84.5478" y1="88.485" x2="84.9133" y2="34.6565" gradientUnits="userSpaceOnUse">
<stop stop-color="#E24BB3"/>
<stop offset="0.355614" stop-color="#EF7FA4"/>
<stop offset="0.811811" stop-color="#FFC291"/>
</linearGradient>
<linearGradient id="paint1_linear_1272_4577" x1="79.25" y1="173.5" x2="80.75" y2="3" gradientUnits="userSpaceOnUse">
<stop stop-color="#E24BB3"/>
<stop offset="0.355614" stop-color="#EF7FA4"/>
<stop offset="0.811811" stop-color="#FFC291"/>
</linearGradient>
<linearGradient id="paint2_linear_1272_4577" x1="96.0887" y1="50.5995" x2="96.1313" y2="45.3622" gradientUnits="userSpaceOnUse">
<stop stop-color="#E24BB3"/>
<stop offset="0.355614" stop-color="#EF7FA4"/>
<stop offset="0.811811" stop-color="#FFC291"/>
</linearGradient>
<linearGradient id="paint3_linear_1272_4577" x1="96.0887" y1="58.8621" x2="96.1362" y2="53.334" gradientUnits="userSpaceOnUse">
<stop stop-color="#E24BB3"/>
<stop offset="0.355614" stop-color="#EF7FA4"/>
<stop offset="0.811811" stop-color="#FFC291"/>
</linearGradient>
<linearGradient id="paint4_linear_1272_4577" x1="90.9592" y1="54.4082" x2="90.9972" y2="49.4618" gradientUnits="userSpaceOnUse">
<stop stop-color="#E24BB3"/>
<stop offset="0.355614" stop-color="#EF7FA4"/>
<stop offset="0.811811" stop-color="#FFC291"/>
</linearGradient>
<linearGradient id="paint5_linear_1272_4577" x1="79.2839" y1="55.5599" x2="79.3058" y2="52.6503" gradientUnits="userSpaceOnUse">
<stop stop-color="#E24BB3"/>
<stop offset="0.355614" stop-color="#EF7FA4"/>
<stop offset="0.811811" stop-color="#FFC291"/>
</linearGradient>
<linearGradient id="paint6_linear_1272_4577" x1="101.323" y1="54.4082" x2="101.362" y2="49.4618" gradientUnits="userSpaceOnUse">
<stop stop-color="#E24BB3"/>
<stop offset="0.355614" stop-color="#EF7FA4"/>
<stop offset="0.811811" stop-color="#FFC291"/>
</linearGradient>
<linearGradient id="paint7_linear_1272_4577" x1="80.5608" y1="34.934" x2="80.5842" y2="27.3686" gradientUnits="userSpaceOnUse">
<stop stop-color="#E24BB3"/>
<stop offset="0.355614" stop-color="#EF7FA4"/>
<stop offset="0.811811" stop-color="#FFC291"/>
</linearGradient>
<linearGradient id="paint8_linear_1272_4577" x1="80.4093" y1="30.8081" x2="80.4401" y2="19.1691" gradientUnits="userSpaceOnUse">
<stop stop-color="#E24BB3"/>
<stop offset="0.355614" stop-color="#EF7FA4"/>
<stop offset="0.811811" stop-color="#FFC291"/>
</linearGradient>
<linearGradient id="paint9_linear_1272_4577" x1="38.1215" y1="95.563" x2="38.4058" y2="64.7219" gradientUnits="userSpaceOnUse">
<stop stop-color="#E24BB3"/>
<stop offset="0.355614" stop-color="#EF7FA4"/>
<stop offset="0.811811" stop-color="#FFC291"/>
</linearGradient>
</defs>
</svg>
