<svg width="280" height="199" viewBox="0 0 280 199" fill="none" xmlns="http://www.w3.org/2000/svg">
<mask id="path-1-outside-1_2306_5343" maskUnits="userSpaceOnUse" x="36.7978" y="44.9849" width="243" height="154" fill="black">
<rect fill="white" x="36.7978" y="44.9849" width="243" height="154"/>
<path fill-rule="evenodd" clip-rule="evenodd" d="M93.9443 47.534C74.5001 44.1054 55.9581 57.0887 52.5296 76.5329L39.3469 151.296C35.9183 170.74 48.9016 189.282 68.3458 192.71L85.522 195.739C104.296 199.049 122.23 187.059 126.529 168.726C138.986 168.395 149.341 159.627 152.086 147.927H168.762C171.157 158.135 179.344 166.111 189.667 168.199C193.743 186.829 211.84 199.081 230.793 195.739L247.97 192.711C267.414 189.282 280.397 170.74 276.969 151.296L263.786 76.5331C260.357 57.089 241.815 44.1057 222.371 47.5342L205.195 50.5629C199.713 51.5295 194.727 53.7054 190.481 56.7731C188.284 58.36 186.519 58.9862 185.16 58.9862H131.155C129.797 58.9862 128.032 58.3599 125.835 56.773C121.588 53.7052 116.603 51.5292 111.121 50.5626L93.9443 47.534ZM59.4232 77.7484C62.1804 62.1115 77.0918 51.6704 92.7288 54.4276L109.905 57.4562C114.324 58.2354 118.327 59.985 121.736 62.4472C124.519 64.4581 127.722 65.9862 131.155 65.9862H185.16C188.594 65.9862 191.797 64.4582 194.58 62.4473C197.988 59.9852 201.992 58.2356 206.41 57.4565L223.587 54.4279C239.224 51.6707 254.135 62.1118 256.892 77.7487L270.075 152.511C272.832 168.148 262.391 183.06 246.754 185.817L229.578 188.846C213.941 191.603 199.03 181.162 196.272 165.525L195.699 162.274C195.644 161.96 195.367 161.736 195.049 161.736C184.003 161.736 175.049 152.781 175.049 141.736C175.049 141.294 174.698 140.927 174.256 140.927H146.592C146.15 140.927 145.799 141.294 145.799 141.736C145.799 152.781 136.845 161.736 125.799 161.736C125.615 161.736 125.433 161.733 125.25 161.728C122.833 161.663 120.463 163.144 120.043 165.524C117.286 181.161 102.375 191.602 86.7376 188.845L69.5613 185.817C53.9244 183.059 43.4833 168.148 46.2405 152.511L59.4232 77.7484ZM195.021 153.076C201.165 153.076 206.146 148.095 206.146 141.951C206.146 135.806 201.165 130.826 195.021 130.826C188.876 130.826 183.896 135.806 183.896 141.951C183.896 148.095 188.876 153.076 195.021 153.076ZM136.896 141.951C136.896 148.095 131.915 153.076 125.771 153.076C119.626 153.076 114.646 148.095 114.646 141.951C114.646 135.806 119.626 130.826 125.771 130.826C131.915 130.826 136.896 135.806 136.896 141.951ZM120.095 106.247L134.982 115.097C135.432 115.372 135.882 115.584 136.332 115.734C136.807 115.884 137.294 115.847 137.794 115.622C138.294 115.397 138.807 114.847 139.332 113.972C139.882 113.097 140.132 112.397 140.082 111.872C140.032 111.322 139.819 110.884 139.444 110.559C139.069 110.234 138.657 109.934 138.207 109.659L127.857 103.547L138.169 97.4341C138.619 97.1591 139.032 96.8591 139.407 96.5341C139.782 96.1841 139.994 95.7466 140.044 95.2216C140.094 94.6716 139.857 93.9716 139.332 93.1216C138.807 92.2216 138.294 91.6591 137.794 91.4341C137.319 91.2091 136.844 91.1716 136.369 91.3216C135.919 91.4716 135.469 91.6841 135.019 91.9591L120.132 100.809C119.882 100.959 119.557 101.209 119.157 101.559C118.782 101.909 118.595 102.547 118.595 103.472C118.595 104.172 118.757 104.759 119.082 105.234C119.432 105.709 119.77 106.047 120.095 106.247ZM149.283 115.622C149.508 116.172 150.195 116.722 151.345 117.272C152.495 117.747 153.358 117.909 153.933 117.759C154.533 117.634 155.07 117.034 155.545 115.959L166.758 92.6716C167.108 91.9466 167.308 91.3591 167.358 90.9091C167.408 90.4341 167.258 90.0216 166.908 89.6716C166.583 89.2966 166.008 88.9091 165.183 88.5091C164.458 88.1591 163.833 87.9591 163.308 87.9091C162.808 87.8591 162.37 87.9841 161.995 88.2841C161.645 88.5841 161.295 89.0841 160.945 89.7841L149.695 113.297C149.22 114.322 149.083 115.097 149.283 115.622ZM180.168 115.734C180.643 115.584 181.106 115.372 181.556 115.097L196.443 106.247C196.768 106.047 197.093 105.709 197.418 105.234C197.768 104.759 197.943 104.172 197.943 103.472C197.943 102.547 197.756 101.909 197.381 101.559C197.006 101.209 196.681 100.959 196.406 100.809L181.518 91.9591C181.068 91.6841 180.606 91.4716 180.131 91.3216C179.681 91.1716 179.206 91.2091 178.706 91.4341C178.231 91.6591 177.731 92.2216 177.206 93.1216C176.706 93.9716 176.468 94.6716 176.493 95.2216C176.543 95.7466 176.756 96.1841 177.131 96.5341C177.506 96.8591 177.918 97.1591 178.368 97.4341L188.681 103.547L178.331 109.659C177.881 109.934 177.468 110.234 177.093 110.559C176.718 110.884 176.506 111.322 176.456 111.872C176.406 112.397 176.656 113.097 177.206 113.972C177.756 114.847 178.268 115.397 178.743 115.622C179.243 115.847 179.718 115.884 180.168 115.734Z"/>
</mask>
<path fill-rule="evenodd" clip-rule="evenodd" d="M93.9443 47.534C74.5001 44.1054 55.9581 57.0887 52.5296 76.5329L39.3469 151.296C35.9183 170.74 48.9016 189.282 68.3458 192.71L85.522 195.739C104.296 199.049 122.23 187.059 126.529 168.726C138.986 168.395 149.341 159.627 152.086 147.927H168.762C171.157 158.135 179.344 166.111 189.667 168.199C193.743 186.829 211.84 199.081 230.793 195.739L247.97 192.711C267.414 189.282 280.397 170.74 276.969 151.296L263.786 76.5331C260.357 57.089 241.815 44.1057 222.371 47.5342L205.195 50.5629C199.713 51.5295 194.727 53.7054 190.481 56.7731C188.284 58.36 186.519 58.9862 185.16 58.9862H131.155C129.797 58.9862 128.032 58.3599 125.835 56.773C121.588 53.7052 116.603 51.5292 111.121 50.5626L93.9443 47.534ZM59.4232 77.7484C62.1804 62.1115 77.0918 51.6704 92.7288 54.4276L109.905 57.4562C114.324 58.2354 118.327 59.985 121.736 62.4472C124.519 64.4581 127.722 65.9862 131.155 65.9862H185.16C188.594 65.9862 191.797 64.4582 194.58 62.4473C197.988 59.9852 201.992 58.2356 206.41 57.4565L223.587 54.4279C239.224 51.6707 254.135 62.1118 256.892 77.7487L270.075 152.511C272.832 168.148 262.391 183.06 246.754 185.817L229.578 188.846C213.941 191.603 199.03 181.162 196.272 165.525L195.699 162.274C195.644 161.96 195.367 161.736 195.049 161.736C184.003 161.736 175.049 152.781 175.049 141.736C175.049 141.294 174.698 140.927 174.256 140.927H146.592C146.15 140.927 145.799 141.294 145.799 141.736C145.799 152.781 136.845 161.736 125.799 161.736C125.615 161.736 125.433 161.733 125.25 161.728C122.833 161.663 120.463 163.144 120.043 165.524C117.286 181.161 102.375 191.602 86.7376 188.845L69.5613 185.817C53.9244 183.059 43.4833 168.148 46.2405 152.511L59.4232 77.7484ZM195.021 153.076C201.165 153.076 206.146 148.095 206.146 141.951C206.146 135.806 201.165 130.826 195.021 130.826C188.876 130.826 183.896 135.806 183.896 141.951C183.896 148.095 188.876 153.076 195.021 153.076ZM136.896 141.951C136.896 148.095 131.915 153.076 125.771 153.076C119.626 153.076 114.646 148.095 114.646 141.951C114.646 135.806 119.626 130.826 125.771 130.826C131.915 130.826 136.896 135.806 136.896 141.951ZM120.095 106.247L134.982 115.097C135.432 115.372 135.882 115.584 136.332 115.734C136.807 115.884 137.294 115.847 137.794 115.622C138.294 115.397 138.807 114.847 139.332 113.972C139.882 113.097 140.132 112.397 140.082 111.872C140.032 111.322 139.819 110.884 139.444 110.559C139.069 110.234 138.657 109.934 138.207 109.659L127.857 103.547L138.169 97.4341C138.619 97.1591 139.032 96.8591 139.407 96.5341C139.782 96.1841 139.994 95.7466 140.044 95.2216C140.094 94.6716 139.857 93.9716 139.332 93.1216C138.807 92.2216 138.294 91.6591 137.794 91.4341C137.319 91.2091 136.844 91.1716 136.369 91.3216C135.919 91.4716 135.469 91.6841 135.019 91.9591L120.132 100.809C119.882 100.959 119.557 101.209 119.157 101.559C118.782 101.909 118.595 102.547 118.595 103.472C118.595 104.172 118.757 104.759 119.082 105.234C119.432 105.709 119.77 106.047 120.095 106.247ZM149.283 115.622C149.508 116.172 150.195 116.722 151.345 117.272C152.495 117.747 153.358 117.909 153.933 117.759C154.533 117.634 155.07 117.034 155.545 115.959L166.758 92.6716C167.108 91.9466 167.308 91.3591 167.358 90.9091C167.408 90.4341 167.258 90.0216 166.908 89.6716C166.583 89.2966 166.008 88.9091 165.183 88.5091C164.458 88.1591 163.833 87.9591 163.308 87.9091C162.808 87.8591 162.37 87.9841 161.995 88.2841C161.645 88.5841 161.295 89.0841 160.945 89.7841L149.695 113.297C149.22 114.322 149.083 115.097 149.283 115.622ZM180.168 115.734C180.643 115.584 181.106 115.372 181.556 115.097L196.443 106.247C196.768 106.047 197.093 105.709 197.418 105.234C197.768 104.759 197.943 104.172 197.943 103.472C197.943 102.547 197.756 101.909 197.381 101.559C197.006 101.209 196.681 100.959 196.406 100.809L181.518 91.9591C181.068 91.6841 180.606 91.4716 180.131 91.3216C179.681 91.1716 179.206 91.2091 178.706 91.4341C178.231 91.6591 177.731 92.2216 177.206 93.1216C176.706 93.9716 176.468 94.6716 176.493 95.2216C176.543 95.7466 176.756 96.1841 177.131 96.5341C177.506 96.8591 177.918 97.1591 178.368 97.4341L188.681 103.547L178.331 109.659C177.881 109.934 177.468 110.234 177.093 110.559C176.718 110.884 176.506 111.322 176.456 111.872C176.406 112.397 176.656 113.097 177.206 113.972C177.756 114.847 178.268 115.397 178.743 115.622C179.243 115.847 179.718 115.884 180.168 115.734Z" fill="#FD874E"/>
<path d="M52.5296 76.5329L54.253 76.8367L52.5296 76.5329ZM93.9443 47.534L94.2482 45.8105L93.9443 47.534ZM39.3469 151.296L37.6235 150.992L39.3469 151.296ZM68.3458 192.71L68.0419 194.434H68.0419L68.3458 192.71ZM85.522 195.739L85.8259 194.015H85.8259L85.522 195.739ZM126.529 168.726L126.483 166.977L125.134 167.012L124.825 168.326L126.529 168.726ZM152.086 147.927V146.177H150.699L150.382 147.527L152.086 147.927ZM168.762 147.927L170.466 147.527L170.149 146.177H168.762V147.927ZM189.667 168.199L191.376 167.825L191.132 166.71L190.014 166.484L189.667 168.199ZM230.793 195.739L231.097 197.463L230.793 195.739ZM247.97 192.711L247.666 190.987L247.97 192.711ZM276.969 151.296L278.692 150.992L276.969 151.296ZM263.786 76.5331L265.509 76.2293V76.2293L263.786 76.5331ZM222.371 47.5342L222.675 49.2576L222.371 47.5342ZM205.195 50.5629L204.891 48.8395L205.195 50.5629ZM190.481 56.7731L191.506 58.1917V58.1917L190.481 56.7731ZM125.835 56.773L124.81 58.1916L125.835 56.773ZM111.121 50.5626L110.817 52.286L111.121 50.5626ZM92.7288 54.4276L93.0327 52.7042L92.7288 54.4276ZM59.4232 77.7484L61.1466 78.0523L59.4232 77.7484ZM109.905 57.4562L110.209 55.7328L109.905 57.4562ZM121.736 62.4472L120.711 63.8658V63.8658L121.736 62.4472ZM194.58 62.4473L193.555 61.0288L194.58 62.4473ZM206.41 57.4565L206.107 55.7331L206.41 57.4565ZM223.587 54.4279L223.891 56.1513L223.587 54.4279ZM256.892 77.7487L258.616 77.4448V77.4448L256.892 77.7487ZM270.075 152.511L271.798 152.207L270.075 152.511ZM246.754 185.817L246.45 184.093L246.754 185.817ZM229.578 188.846L229.882 190.569L229.578 188.846ZM196.272 165.525L197.996 165.221L196.272 165.525ZM195.699 162.274L193.976 162.578L193.976 162.578L195.699 162.274ZM125.25 161.728L125.203 163.478L125.203 163.478L125.25 161.728ZM120.043 165.524L118.32 165.221L120.043 165.524ZM86.7376 188.845L87.0415 187.122L86.7376 188.845ZM69.5613 185.817L69.2574 187.54H69.2574L69.5613 185.817ZM46.2405 152.511L47.9639 152.815L46.2405 152.511ZM134.982 115.097L135.895 113.603L135.885 113.598L135.876 113.592L134.982 115.097ZM120.095 106.247L119.177 107.737L119.189 107.744L119.2 107.751L120.095 106.247ZM136.332 115.734L135.779 117.394L135.792 117.399L135.805 117.403L136.332 115.734ZM137.794 115.622L137.076 114.026L137.076 114.026L137.794 115.622ZM139.332 113.972L137.85 113.04L137.841 113.056L137.831 113.071L139.332 113.972ZM140.082 111.872L138.339 112.03L138.34 112.037L140.082 111.872ZM138.207 109.659L139.12 108.166L139.108 108.159L139.097 108.152L138.207 109.659ZM127.857 103.547L126.965 102.041L124.42 103.549L126.967 105.053L127.857 103.547ZM138.169 97.4341L139.062 98.9395L139.072 98.9335L139.082 98.9273L138.169 97.4341ZM139.407 96.5341L140.553 97.8565L140.577 97.8354L140.601 97.8134L139.407 96.5341ZM140.044 95.2216L141.787 95.3875L141.787 95.38L140.044 95.2216ZM139.332 93.1216L137.82 94.0034L137.831 94.0224L137.843 94.0412L139.332 93.1216ZM137.794 91.4341L137.045 93.0156L137.061 93.0229L137.076 93.0299L137.794 91.4341ZM136.369 91.3216L135.842 89.6528L135.829 89.657L135.816 89.6614L136.369 91.3216ZM135.019 91.9591L135.914 93.4634L135.923 93.4579L135.932 93.4523L135.019 91.9591ZM120.132 100.809L119.238 99.3048L119.232 99.3085L120.132 100.809ZM119.157 101.559L118.005 100.242L117.983 100.261L117.963 100.28L119.157 101.559ZM119.082 105.234L117.638 106.222L117.655 106.248L117.673 106.272L119.082 105.234ZM151.345 117.272L150.59 118.85L150.633 118.871L150.677 118.889L151.345 117.272ZM149.283 115.622L147.648 116.245L147.655 116.264L147.663 116.284L149.283 115.622ZM153.933 117.759L153.576 116.046L153.533 116.055L153.491 116.066L153.933 117.759ZM155.545 115.959L153.969 115.2L153.956 115.226L153.945 115.252L155.545 115.959ZM166.758 92.6716L165.182 91.9108L165.181 91.9124L166.758 92.6716ZM167.358 90.9091L169.097 91.1024L169.098 91.0923L167.358 90.9091ZM166.908 89.6716L165.585 90.8177L165.626 90.8649L165.67 90.909L166.908 89.6716ZM165.183 88.5091L165.946 86.9344L165.944 86.9331L165.183 88.5091ZM163.308 87.9091L163.134 89.6504L163.142 89.6512L163.308 87.9091ZM161.995 88.2841L160.902 86.9176L160.879 86.9361L160.857 86.9554L161.995 88.2841ZM160.945 89.7841L159.38 89.0015L159.373 89.0151L159.367 89.0288L160.945 89.7841ZM149.695 113.297L148.117 112.541L148.112 112.551L148.108 112.561L149.695 113.297ZM181.556 115.097L180.662 113.592L180.652 113.598L180.643 113.603L181.556 115.097ZM180.168 115.734L179.641 114.065L179.628 114.069L179.615 114.074L180.168 115.734ZM196.443 106.247L197.337 107.751L197.349 107.744L197.36 107.737L196.443 106.247ZM197.418 105.234L196.009 104.196L195.991 104.221L195.974 104.246L197.418 105.234ZM197.381 101.559L196.187 102.838L196.187 102.838L197.381 101.559ZM196.406 100.809L195.511 102.313L195.539 102.33L195.568 102.345L196.406 100.809ZM181.518 91.9591L180.606 93.4523L180.615 93.4579L180.624 93.4634L181.518 91.9591ZM180.131 91.3216L179.577 92.9818L179.591 92.9862L179.604 92.9904L180.131 91.3216ZM178.706 91.4341L177.988 89.8382L177.972 89.8452L177.957 89.8526L178.706 91.4341ZM177.206 93.1216L178.714 94.0089L178.717 94.0034L177.206 93.1216ZM176.493 95.2216L174.745 95.301L174.747 95.3443L174.751 95.3875L176.493 95.2216ZM177.131 96.5341L175.937 97.8134L175.96 97.8354L175.985 97.8565L177.131 96.5341ZM178.368 97.4341L177.456 98.9273L177.466 98.9335L177.476 98.9395L178.368 97.4341ZM188.681 103.547L189.571 105.053L192.117 103.549L189.573 102.041L188.681 103.547ZM178.331 109.659L177.441 108.152L177.429 108.159L177.418 108.166L178.331 109.659ZM176.456 111.872L178.198 112.037L178.199 112.03L176.456 111.872ZM177.206 113.972L175.724 114.903V114.903L177.206 113.972ZM178.743 115.622L177.994 117.203L178.01 117.21L178.025 117.217L178.743 115.622ZM54.253 76.8367C57.5137 58.3444 75.1481 45.9967 93.6404 49.2574L94.2482 45.8105C73.8522 42.2142 54.4025 55.833 50.8062 76.229L54.253 76.8367ZM41.0703 151.599L54.253 76.8367L50.8062 76.229L37.6235 150.992L41.0703 151.599ZM68.6496 190.987C50.1573 187.726 37.8096 170.092 41.0703 151.599L37.6235 150.992C34.0271 171.388 47.6459 190.837 68.0419 194.434L68.6496 190.987ZM85.8259 194.015L68.6496 190.987L68.0419 194.434L85.2182 197.462L85.8259 194.015ZM124.825 168.326C120.737 185.761 103.681 197.164 85.8259 194.015L85.2182 197.462C104.912 200.935 123.723 188.358 128.233 169.126L124.825 168.326ZM150.382 147.527C147.815 158.468 138.129 166.667 126.483 166.977L126.576 170.475C139.844 170.123 150.866 160.785 153.789 148.327L150.382 147.527ZM168.762 146.177H152.086V149.677H168.762V146.177ZM190.014 166.484C180.364 164.532 172.705 157.071 170.466 147.527L167.058 148.327C169.609 159.199 178.325 167.69 189.32 169.915L190.014 166.484ZM230.49 194.016C212.464 197.194 195.253 185.542 191.376 167.825L187.957 168.573C192.234 188.116 211.215 200.968 231.097 197.463L230.49 194.016ZM247.666 190.987L230.49 194.016L231.097 197.463L248.274 194.434L247.666 190.987ZM275.245 151.6C278.506 170.092 266.158 187.726 247.666 190.987L248.274 194.434C268.67 190.838 282.288 171.388 278.692 150.992L275.245 151.6ZM262.063 76.837L275.245 151.6L278.692 150.992L265.509 76.2293L262.063 76.837ZM222.675 49.2576C241.167 45.997 258.802 58.3447 262.063 76.837L265.509 76.2293C261.913 55.8333 242.463 42.2145 222.067 45.8108L222.675 49.2576ZM205.499 52.2863L222.675 49.2576L222.067 45.8108L204.891 48.8395L205.499 52.2863ZM191.506 58.1917C195.543 55.2753 200.283 53.206 205.499 52.2863L204.891 48.8395C199.143 49.8529 193.912 52.1355 189.456 55.3545L191.506 58.1917ZM185.16 60.7362C187.036 60.7362 189.161 59.8856 191.506 58.1917L189.456 55.3545C187.408 56.8343 186.001 57.2362 185.16 57.2362V60.7362ZM131.155 60.7362H185.16V57.2362H131.155V60.7362ZM124.81 58.1916C127.155 59.8856 129.279 60.7362 131.155 60.7362V57.2362C130.315 57.2362 128.908 56.8343 126.86 55.3545L124.81 58.1916ZM110.817 52.286C116.033 53.2057 120.773 55.2751 124.81 58.1916L126.86 55.3545C122.404 52.1353 117.172 49.8527 111.424 48.8392L110.817 52.286ZM93.6404 49.2574L110.817 52.286L111.424 48.8392L94.2482 45.8105L93.6404 49.2574ZM93.0327 52.7042C76.4439 49.7792 60.6249 60.8558 57.6998 77.4445L61.1466 78.0523C63.736 63.3672 77.7398 53.5616 92.4249 56.151L93.0327 52.7042ZM110.209 55.7328L93.0327 52.7042L92.4249 56.151L109.601 59.1797L110.209 55.7328ZM122.76 61.0287C119.143 58.415 114.893 56.5588 110.209 55.7328L109.601 59.1797C113.754 59.9119 117.512 61.5549 120.711 63.8658L122.76 61.0287ZM131.155 64.2362C128.24 64.2362 125.397 62.9336 122.76 61.0287L120.711 63.8658C123.641 65.9827 127.203 67.7362 131.155 67.7362V64.2362ZM185.16 64.2362H131.155V67.7362H185.16V64.2362ZM193.555 61.0288C190.919 62.9336 188.075 64.2362 185.16 64.2362V67.7362C189.113 67.7362 192.675 65.9827 195.605 63.8659L193.555 61.0288ZM206.107 55.7331C201.422 56.5591 197.173 58.4152 193.555 61.0288L195.605 63.8659C198.804 61.5551 202.562 59.9122 206.714 59.1799L206.107 55.7331ZM223.283 52.7045L206.107 55.7331L206.714 59.1799L223.891 56.1513L223.283 52.7045ZM258.616 77.4448C255.691 60.8561 239.872 49.7794 223.283 52.7045L223.891 56.1513C238.576 53.5619 252.58 63.3675 255.169 78.0526L258.616 77.4448ZM271.798 152.207L258.616 77.4448L255.169 78.0526L268.352 152.815L271.798 152.207ZM247.058 187.54C263.647 184.615 274.723 168.796 271.798 152.207L268.352 152.815C270.941 167.5 261.135 181.504 246.45 184.093L247.058 187.54ZM229.882 190.569L247.058 187.54L246.45 184.093L229.274 187.122L229.882 190.569ZM194.549 165.829C197.474 182.417 213.293 193.494 229.882 190.569L229.274 187.122C214.589 189.711 200.585 179.906 197.996 165.221L194.549 165.829ZM193.976 162.578L194.549 165.829L197.996 165.221L197.423 161.97L193.976 162.578ZM195.049 163.486C194.547 163.486 194.073 163.129 193.976 162.578L197.423 161.97C197.215 160.792 196.187 159.986 195.049 159.986V163.486ZM173.299 141.736C173.299 153.748 183.037 163.486 195.049 163.486V159.986C184.97 159.986 176.799 151.815 176.799 141.736H173.299ZM174.256 142.677C173.686 142.677 173.299 142.216 173.299 141.736H176.799C176.799 140.373 175.709 139.177 174.256 139.177V142.677ZM146.592 142.677H174.256V139.177H146.592V142.677ZM147.549 141.736C147.549 142.216 147.161 142.677 146.592 142.677V139.177C145.139 139.177 144.049 140.373 144.049 141.736H147.549ZM125.799 163.486C137.811 163.486 147.549 153.748 147.549 141.736H144.049C144.049 151.815 135.878 159.986 125.799 159.986V163.486ZM125.203 163.478C125.401 163.483 125.6 163.486 125.799 163.486V159.986C125.631 159.986 125.464 159.983 125.297 159.979L125.203 163.478ZM121.767 165.828C121.997 164.523 123.408 163.429 125.203 163.478L125.297 159.979C122.259 159.897 118.929 161.764 118.32 165.221L121.767 165.828ZM86.4337 190.569C103.022 193.494 118.842 182.417 121.767 165.828L118.32 165.221C115.73 179.906 101.727 189.711 87.0415 187.122L86.4337 190.569ZM69.2574 187.54L86.4337 190.569L87.0415 187.122L69.8652 184.093L69.2574 187.54ZM44.5171 152.207C41.592 168.796 52.6687 184.615 69.2574 187.54L69.8652 184.093C55.1801 181.504 45.3745 167.5 47.9639 152.815L44.5171 152.207ZM57.6998 77.4445L44.5171 152.207L47.9639 152.815L61.1466 78.0523L57.6998 77.4445ZM204.396 141.951C204.396 147.128 200.198 151.326 195.021 151.326V154.826C202.131 154.826 207.896 149.061 207.896 141.951H204.396ZM195.021 132.576C200.198 132.576 204.396 136.773 204.396 141.951H207.896C207.896 134.84 202.131 129.076 195.021 129.076V132.576ZM185.646 141.951C185.646 136.773 189.843 132.576 195.021 132.576V129.076C187.91 129.076 182.146 134.84 182.146 141.951H185.646ZM195.021 151.326C189.843 151.326 185.646 147.128 185.646 141.951H182.146C182.146 149.061 187.91 154.826 195.021 154.826V151.326ZM125.771 154.826C132.881 154.826 138.646 149.061 138.646 141.951H135.146C135.146 147.128 130.948 151.326 125.771 151.326V154.826ZM112.896 141.951C112.896 149.061 118.66 154.826 125.771 154.826V151.326C120.593 151.326 116.396 147.128 116.396 141.951H112.896ZM125.771 129.076C118.66 129.076 112.896 134.84 112.896 141.951H116.396C116.396 136.773 120.593 132.576 125.771 132.576V129.076ZM138.646 141.951C138.646 134.84 132.881 129.076 125.771 129.076V132.576C130.948 132.576 135.146 136.773 135.146 141.951H138.646ZM135.876 113.592L120.989 104.742L119.2 107.751L134.088 116.601L135.876 113.592ZM136.885 114.074C136.574 113.97 136.244 113.817 135.895 113.603L134.069 116.59C134.62 116.926 135.19 117.198 135.779 117.394L136.885 114.074ZM137.076 114.026C136.926 114.093 136.882 114.072 136.859 114.065L135.805 117.403C136.732 117.696 137.663 117.6 138.513 117.217L137.076 114.026ZM137.831 113.071C137.611 113.438 137.423 113.687 137.274 113.847C137.121 114.011 137.051 114.037 137.076 114.026L138.513 117.217C139.516 116.766 140.26 115.827 140.833 114.872L137.831 113.071ZM138.34 112.037C138.333 111.962 138.356 112.001 138.284 112.202C138.215 112.395 138.082 112.672 137.85 113.04L140.814 114.903C141.402 113.967 141.932 112.841 141.824 111.706L138.34 112.037ZM138.298 111.882C138.303 111.885 138.305 111.888 138.307 111.889C138.308 111.891 138.309 111.892 138.309 111.892C138.309 111.892 138.309 111.892 138.309 111.892C138.309 111.893 138.31 111.894 138.311 111.896C138.313 111.9 138.331 111.937 138.339 112.03L141.825 111.713C141.739 110.768 141.347 109.892 140.591 109.237L138.298 111.882ZM137.294 111.152C137.667 111.38 138.001 111.624 138.298 111.882L140.591 109.237C140.138 108.845 139.647 108.488 139.12 108.166L137.294 111.152ZM126.967 105.053L137.317 111.166L139.097 108.152L128.747 102.04L126.967 105.053ZM137.277 95.9287L126.965 102.041L128.749 105.052L139.062 98.9395L137.277 95.9287ZM138.261 95.2116C137.963 95.4695 137.63 95.7131 137.257 95.9408L139.082 98.9273C139.609 98.6051 140.101 98.2486 140.553 97.8565L138.261 95.2116ZM138.302 95.0557C138.292 95.1682 138.266 95.2053 138.213 95.2547L140.601 97.8134C141.298 97.1628 141.697 96.325 141.787 95.3875L138.302 95.0557ZM137.843 94.0412C138.059 94.3903 138.182 94.6564 138.247 94.8463C138.312 95.039 138.298 95.0993 138.302 95.0631L141.787 95.38C141.89 94.2521 141.404 93.1455 140.821 92.202L137.843 94.0412ZM137.076 93.0299C137.041 93.0139 137.107 93.0349 137.26 93.2033C137.41 93.3672 137.599 93.6237 137.82 94.0034L140.844 92.2398C140.276 91.2667 139.532 90.2969 138.513 89.8382L137.076 93.0299ZM136.896 92.9904C136.915 92.9845 136.926 92.9827 136.932 92.9821C136.937 92.9815 136.94 92.9815 136.944 92.9818C136.949 92.9822 136.98 92.9848 137.045 93.0156L138.544 89.8525C137.694 89.4499 136.763 89.362 135.842 89.6528L136.896 92.9904ZM135.932 93.4523C136.281 93.2388 136.612 93.0855 136.923 92.9818L135.816 89.6614C135.227 89.8576 134.658 90.1294 134.107 90.4658L135.932 93.4523ZM121.026 102.313L135.914 93.4634L134.125 90.4548L119.238 99.3048L121.026 102.313ZM120.309 102.876C120.684 102.549 120.916 102.379 121.032 102.31L119.232 99.3085C118.848 99.5389 118.43 99.8696 118.005 100.242L120.309 102.876ZM120.345 103.472C120.345 103.116 120.382 102.903 120.414 102.793C120.445 102.688 120.451 102.745 120.351 102.838L117.963 100.28C117.036 101.145 116.845 102.421 116.845 103.472H120.345ZM120.526 104.246C120.44 104.12 120.345 103.896 120.345 103.472H116.845C116.845 104.447 117.074 105.398 117.638 106.222L120.526 104.246ZM121.012 104.756C120.953 104.72 120.773 104.578 120.491 104.196L117.673 106.272C118.091 106.84 118.586 107.373 119.177 107.737L121.012 104.756ZM152.1 115.693C151.597 115.452 151.265 115.244 151.061 115.08C150.845 114.908 150.861 114.857 150.903 114.959L147.663 116.284C147.93 116.936 148.402 117.435 148.874 117.813C149.357 118.199 149.944 118.541 150.59 118.85L152.1 115.693ZM153.491 116.066C153.544 116.052 153.467 116.084 153.179 116.03C152.903 115.978 152.52 115.863 152.014 115.654L150.677 118.889C151.864 119.379 153.2 119.759 154.375 119.452L153.491 116.066ZM153.945 115.252C153.751 115.691 153.586 115.932 153.483 116.048C153.385 116.157 153.41 116.08 153.576 116.046L154.29 119.472C155.788 119.16 156.639 117.815 157.146 116.666L153.945 115.252ZM165.181 91.9124L153.969 115.2L157.122 116.718L168.335 93.4308L165.181 91.9124ZM165.619 90.7158C165.601 90.8718 165.502 91.248 165.182 91.9108L168.334 93.4324C168.714 92.6452 169.015 91.8463 169.097 91.1024L165.619 90.7158ZM165.67 90.909C165.688 90.9264 165.661 90.9046 165.638 90.8415C165.628 90.8125 165.622 90.7845 165.619 90.7605C165.616 90.7371 165.618 90.7245 165.618 90.7259L169.098 91.0923C169.206 90.0704 168.853 89.1419 168.145 88.4342L165.67 90.909ZM164.419 90.0838C165.181 90.4531 165.497 90.7155 165.585 90.8177L168.23 88.5254C167.669 87.8777 166.835 87.365 165.946 86.9344L164.419 90.0838ZM163.142 89.6512C163.381 89.674 163.796 89.7828 164.422 90.0851L165.944 86.9331C165.12 86.5354 164.284 86.2442 163.474 86.167L163.142 89.6512ZM163.089 89.6506C163.099 89.6426 163.102 89.6411 163.099 89.6426C163.097 89.6441 163.091 89.6463 163.086 89.648C163.08 89.6496 163.079 89.6493 163.084 89.6488C163.09 89.6484 163.106 89.6476 163.134 89.6504L163.482 86.1678C162.55 86.0746 161.652 86.3174 160.902 86.9176L163.089 89.6506ZM162.511 90.5667C162.819 89.9499 163.043 89.6906 163.134 89.6128L160.857 86.9554C160.247 87.4775 159.772 88.2183 159.38 89.0015L162.511 90.5667ZM151.274 114.052L162.524 90.5394L159.367 89.0288L148.117 112.541L151.274 114.052ZM150.918 114.999C150.967 115.128 150.925 115.147 150.959 114.952C150.993 114.762 151.084 114.462 151.283 114.032L148.108 112.561C147.608 113.638 147.174 115.002 147.648 116.245L150.918 114.999ZM180.643 113.603C180.307 113.809 179.973 113.96 179.641 114.065L180.695 117.403C181.313 117.208 181.904 116.934 182.468 116.59L180.643 113.603ZM195.549 104.742L180.662 113.592L182.45 116.601L197.337 107.751L195.549 104.742ZM195.974 104.246C195.724 104.612 195.563 104.733 195.526 104.756L197.36 107.737C197.973 107.36 198.463 106.806 198.862 106.222L195.974 104.246ZM196.193 103.472C196.193 103.87 196.099 104.075 196.009 104.196L198.827 106.272C199.438 105.443 199.693 104.473 199.693 103.472H196.193ZM196.187 102.838C196.087 102.745 196.093 102.688 196.124 102.793C196.156 102.903 196.193 103.116 196.193 103.472H199.693C199.693 102.421 199.501 101.145 198.575 100.28L196.187 102.838ZM195.568 102.345C195.658 102.395 195.86 102.534 196.187 102.838L198.575 100.28C198.151 99.8844 197.703 99.5234 197.244 99.2728L195.568 102.345ZM180.624 93.4634L195.511 102.313L197.3 99.3048L182.412 90.4548L180.624 93.4634ZM179.604 92.9904C179.936 93.0952 180.27 93.2469 180.606 93.4523L182.431 90.4658C181.867 90.1213 181.276 89.8479 180.658 89.6528L179.604 92.9904ZM179.424 93.0299C179.518 92.9878 179.566 92.9825 179.575 92.9818C179.58 92.9814 179.58 92.9818 179.577 92.9814C179.574 92.9811 179.574 92.9807 179.577 92.9818L180.684 89.6614C179.753 89.3509 178.822 89.463 177.988 89.8382L179.424 93.0299ZM178.717 94.0034C178.942 93.6184 179.132 93.3561 179.282 93.1873C179.438 93.0118 179.501 92.9939 179.455 93.0156L177.957 89.8526C176.976 90.3172 176.252 91.2842 175.694 92.2398L178.717 94.0034ZM178.241 95.1421C178.242 95.1454 178.239 95.0564 178.31 94.8463C178.38 94.6398 178.506 94.3627 178.714 94.0089L175.697 92.2343C175.144 93.1757 174.697 94.2373 174.745 95.301L178.241 95.1421ZM178.325 95.2547C178.272 95.2054 178.246 95.1682 178.235 95.0557L174.751 95.3875C174.84 96.325 175.24 97.1628 175.937 97.8134L178.325 95.2547ZM179.281 95.9408C178.908 95.7131 178.574 95.4695 178.277 95.2116L175.985 97.8565C176.437 98.2486 176.928 98.6051 177.456 98.9273L179.281 95.9408ZM189.573 102.041L179.261 95.9287L177.476 98.9395L187.788 105.052L189.573 102.041ZM179.221 111.166L189.571 105.053L187.791 102.04L177.441 108.152L179.221 111.166ZM178.239 111.882C178.537 111.624 178.871 111.38 179.243 111.152L177.418 108.166C176.891 108.488 176.4 108.845 175.947 109.237L178.239 111.882ZM178.199 112.03C178.207 111.937 178.225 111.9 178.227 111.896C178.228 111.894 178.228 111.893 178.228 111.892C178.228 111.892 178.229 111.892 178.229 111.892C178.229 111.892 178.229 111.891 178.231 111.889C178.232 111.888 178.235 111.885 178.239 111.882L175.947 109.237C175.19 109.892 174.799 110.768 174.713 111.713L178.199 112.03ZM178.687 113.04C178.456 112.672 178.323 112.395 178.254 112.202C178.182 112.001 178.205 111.962 178.198 112.037L174.714 111.706C174.606 112.841 175.136 113.967 175.724 114.903L178.687 113.04ZM179.492 114.04C179.521 114.054 179.448 114.024 179.283 113.847C179.124 113.677 178.924 113.416 178.687 113.04L175.724 114.903C176.309 115.834 177.044 116.753 177.994 117.203L179.492 114.04ZM179.615 114.074C179.611 114.075 179.612 114.075 179.615 114.074C179.618 114.074 179.617 114.074 179.612 114.074C179.603 114.073 179.555 114.068 179.461 114.026L178.025 117.217C178.859 117.593 179.79 117.705 180.722 117.394L179.615 114.074Z" fill="url(#paint0_linear_2306_5343)" mask="url(#path-1-outside-1_2306_5343)"/>
<mask id="path-3-outside-2_2306_5343" maskUnits="userSpaceOnUse" x="-3.50907" y="19.8431" width="97.6891" height="97.6889" fill="black">
<rect fill="white" x="-3.50907" y="19.8431" width="97.6891" height="97.6889"/>
<path fill-rule="evenodd" clip-rule="evenodd" d="M72.143 77.6598C74.6495 79.0273 75.5728 82.1678 74.2053 84.6743C72.8377 87.1808 69.6972 88.1041 67.1908 86.7365L65.4266 85.774C63.4853 84.7149 61.0817 85.1928 59.3491 86.567C57.5944 87.9586 56.6318 90.2021 57.2635 92.3508L57.8124 94.2178C58.6177 96.9571 57.0499 99.8307 54.3106 100.636C51.5713 101.441 48.6977 99.8736 47.8923 97.1343L47.2506 94.9514C46.6511 92.9123 44.7524 91.598 42.6403 91.3608C40.5013 91.1207 38.2763 91.9886 37.2454 93.878L36.1651 95.8581C34.7975 98.3646 31.657 99.2879 29.1505 97.9204C26.6441 96.5529 25.7207 93.4124 27.0883 90.9059L28.2032 88.8624C29.2288 86.9825 28.7681 84.6549 27.4284 82.9842C26.0854 81.3093 23.9319 80.4027 21.8722 81.0082L19.5123 81.702C16.773 82.5074 13.8995 80.9396 13.0941 78.2002C12.2887 75.4609 13.8565 72.5874 16.5959 71.782L18.904 71.1034C20.9842 70.4918 22.3149 68.542 22.5373 66.3852C22.7586 64.2389 21.8801 62.0153 19.986 60.9819L17.9666 59.8801C15.4601 58.5126 14.5368 55.3721 15.9044 52.8656C17.2719 50.3592 20.4124 49.4359 22.9189 50.8034L24.8992 51.8839C26.7887 52.9147 29.1294 52.4403 30.798 51.0807C32.4456 49.7382 33.3309 47.6054 32.7314 45.5664L32.076 43.3373C31.2707 40.598 32.8385 37.7244 35.5778 36.9191C38.3171 36.1137 41.1907 37.6815 41.9961 40.4208L42.5586 42.3341C43.1902 44.4827 45.2139 45.8482 47.4426 46.0687C49.6432 46.2865 51.9229 45.3876 52.9821 43.4463L53.9447 41.6819C55.3123 39.1754 58.4528 38.2521 60.9593 39.6197C63.4657 40.9872 64.389 44.1277 63.0215 46.6342L62.0942 48.3337C61.0295 50.2853 61.5217 52.7028 62.9166 54.4339C64.3082 56.1607 66.5307 57.1012 68.6585 56.4757L70.393 55.9657C73.1323 55.1604 76.0058 56.7281 76.8112 59.4675C77.6166 62.2068 76.0488 65.0804 73.3094 65.8857L71.5233 66.4108C69.416 67.0304 68.0665 69.0021 67.8305 71.1859C67.5934 73.3801 68.4819 75.6623 70.4192 76.7193L72.143 77.6598ZM37.4767 82.6608C29.8056 78.4755 26.9799 68.864 31.1652 61.193C35.3505 53.5219 44.962 50.6962 52.633 54.8814C60.3041 59.0667 63.1299 68.6782 58.9446 76.3493C54.7593 84.0203 45.1478 86.8461 37.4767 82.6608ZM33.3598 62.3903C29.8358 68.8493 32.215 76.9422 38.6741 80.4662C45.1331 83.9902 53.2259 81.6109 56.75 75.1519C60.274 68.6929 57.8947 60.6001 51.4357 57.0761C44.9766 53.552 36.8838 55.9313 33.3598 62.3903Z"/>
</mask>
<path fill-rule="evenodd" clip-rule="evenodd" d="M72.143 77.6598C74.6495 79.0273 75.5728 82.1678 74.2053 84.6743C72.8377 87.1808 69.6972 88.1041 67.1908 86.7365L65.4266 85.774C63.4853 84.7149 61.0817 85.1928 59.3491 86.567C57.5944 87.9586 56.6318 90.2021 57.2635 92.3508L57.8124 94.2178C58.6177 96.9571 57.0499 99.8307 54.3106 100.636C51.5713 101.441 48.6977 99.8736 47.8923 97.1343L47.2506 94.9514C46.6511 92.9123 44.7524 91.598 42.6403 91.3608C40.5013 91.1207 38.2763 91.9886 37.2454 93.878L36.1651 95.8581C34.7975 98.3646 31.657 99.2879 29.1505 97.9204C26.6441 96.5529 25.7207 93.4124 27.0883 90.9059L28.2032 88.8624C29.2288 86.9825 28.7681 84.6549 27.4284 82.9842C26.0854 81.3093 23.9319 80.4027 21.8722 81.0082L19.5123 81.702C16.773 82.5074 13.8995 80.9396 13.0941 78.2002C12.2887 75.4609 13.8565 72.5874 16.5959 71.782L18.904 71.1034C20.9842 70.4918 22.3149 68.542 22.5373 66.3852C22.7586 64.2389 21.8801 62.0153 19.986 60.9819L17.9666 59.8801C15.4601 58.5126 14.5368 55.3721 15.9044 52.8656C17.2719 50.3592 20.4124 49.4359 22.9189 50.8034L24.8992 51.8839C26.7887 52.9147 29.1294 52.4403 30.798 51.0807C32.4456 49.7382 33.3309 47.6054 32.7314 45.5664L32.076 43.3373C31.2707 40.598 32.8385 37.7244 35.5778 36.9191C38.3171 36.1137 41.1907 37.6815 41.9961 40.4208L42.5586 42.3341C43.1902 44.4827 45.2139 45.8482 47.4426 46.0687C49.6432 46.2865 51.9229 45.3876 52.9821 43.4463L53.9447 41.6819C55.3123 39.1754 58.4528 38.2521 60.9593 39.6197C63.4657 40.9872 64.389 44.1277 63.0215 46.6342L62.0942 48.3337C61.0295 50.2853 61.5217 52.7028 62.9166 54.4339C64.3082 56.1607 66.5307 57.1012 68.6585 56.4757L70.393 55.9657C73.1323 55.1604 76.0058 56.7281 76.8112 59.4675C77.6166 62.2068 76.0488 65.0804 73.3094 65.8857L71.5233 66.4108C69.416 67.0304 68.0665 69.0021 67.8305 71.1859C67.5934 73.3801 68.4819 75.6623 70.4192 76.7193L72.143 77.6598ZM37.4767 82.6608C29.8056 78.4755 26.9799 68.864 31.1652 61.193C35.3505 53.5219 44.962 50.6962 52.633 54.8814C60.3041 59.0667 63.1299 68.6782 58.9446 76.3493C54.7593 84.0203 45.1478 86.8461 37.4767 82.6608ZM33.3598 62.3903C29.8358 68.8493 32.215 76.9422 38.6741 80.4662C45.1331 83.9902 53.2259 81.6109 56.75 75.1519C60.274 68.6929 57.8947 60.6001 51.4357 57.0761C44.9766 53.552 36.8838 55.9313 33.3598 62.3903Z" fill="#FD874E"/>
<path d="M70.4192 76.7193L69.3416 78.6944L70.4192 76.7193ZM71.5233 66.4108L70.8887 64.2522L71.5233 66.4108ZM73.3094 65.8857L73.9441 68.0444L73.3094 65.8857ZM70.393 55.9657L71.0276 58.1244L70.393 55.9657ZM68.6585 56.4757L68.0238 54.317L68.6585 56.4757ZM53.9447 41.6819L55.9199 42.7596L53.9447 41.6819ZM52.9821 43.4463L51.0069 42.3687L52.9821 43.4463ZM42.5586 42.3341L40.3999 42.9687L42.5586 42.3341ZM41.9961 40.4208L44.1547 39.7862L41.9961 40.4208ZM32.076 43.3373L29.9174 43.972L32.076 43.3373ZM32.7314 45.5664L34.89 44.9317L32.7314 45.5664ZM17.9666 59.8801L16.889 61.8553L17.9666 59.8801ZM19.986 60.9819L21.0636 59.0067L19.986 60.9819ZM18.904 71.1034L19.5387 73.262L18.904 71.1034ZM16.5959 71.782L15.9612 69.6234L16.5959 71.782ZM19.5123 81.702L20.147 83.8606L19.5123 81.702ZM21.8722 81.0082L21.2375 78.8496L21.8722 81.0082ZM28.2032 88.8624L26.228 87.7848L28.2032 88.8624ZM27.0883 90.9059L29.0634 91.9835L27.0883 90.9059ZM36.1651 95.8581L38.1402 96.9358L36.1651 95.8581ZM37.2454 93.878L35.2703 92.8004L37.2454 93.878ZM47.2506 94.9514L49.4092 94.3168L47.2506 94.9514ZM47.8923 97.1343L45.7337 97.7689L47.8923 97.1343ZM57.8124 94.2178L59.971 93.5831L57.8124 94.2178ZM57.2635 92.3508L55.1048 92.9854L57.2635 92.3508ZM65.4266 85.774L64.3489 87.7492L65.4266 85.774ZM72.143 77.6598L73.2206 75.6846L72.143 77.6598ZM67.1908 86.7365L68.2684 84.7614L67.1908 86.7365ZM64.3489 87.7492L66.1131 88.7117L68.2684 84.7614L66.5042 83.7989L64.3489 87.7492ZM59.971 93.5831L59.4221 91.7161L55.1048 92.9854L55.6537 94.8524L59.971 93.5831ZM45.0919 95.5861L45.7337 97.7689L50.051 96.4996L49.4092 94.3168L45.0919 95.5861ZM38.1402 96.9358L39.2205 94.9557L35.2703 92.8004L34.1899 94.7805L38.1402 96.9358ZM26.228 87.7848L25.1131 89.8283L29.0634 91.9835L30.1783 89.9401L26.228 87.7848ZM20.147 83.8606L22.5068 83.1668L21.2375 78.8496L18.8777 79.5434L20.147 83.8606ZM18.2694 68.9448L15.9612 69.6234L17.2305 73.9406L19.5387 73.262L18.2694 68.9448ZM16.889 61.8553L18.9083 62.957L21.0636 59.0067L19.0443 57.905L16.889 61.8553ZM25.9769 49.9087L23.9965 48.8282L21.8413 52.7785L23.8216 53.859L25.9769 49.9087ZM29.9174 43.972L30.5727 46.201L34.89 44.9317L34.2347 42.7027L29.9174 43.972ZM44.7172 41.6995L44.1547 39.7862L39.8374 41.0555L40.3999 42.9687L44.7172 41.6995ZM51.9696 40.6043L51.0069 42.3687L54.9572 44.5239L55.9199 42.7596L51.9696 40.6043ZM64.0694 49.4114L64.9967 47.7118L61.0464 45.5565L60.1191 47.2561L64.0694 49.4114ZM69.7583 53.8071L68.0238 54.317L69.2931 58.6343L71.0276 58.1244L69.7583 53.8071ZM72.158 68.5695L73.9441 68.0444L72.6748 63.7271L70.8887 64.2522L72.158 68.5695ZM73.2206 75.6846L71.4969 74.7442L69.3416 78.6944L71.0654 79.6349L73.2206 75.6846ZM65.5936 70.9442C65.2843 73.8063 66.414 77.0971 69.3416 78.6944L71.4969 74.7442C70.5498 74.2274 69.9026 72.9538 70.0675 71.4276L65.5936 70.9442ZM70.8887 64.2522C67.7284 65.1813 65.9053 68.0594 65.5936 70.9442L70.0675 71.4276C70.2277 69.9448 71.1037 68.8794 72.158 68.5695L70.8887 64.2522ZM74.6526 60.1021C75.1074 61.6493 74.222 63.2722 72.6748 63.7271L73.9441 68.0444C77.8756 66.8885 80.1257 62.7644 78.9698 58.8328L74.6526 60.1021ZM71.0276 58.1244C72.5748 57.6695 74.1977 58.555 74.6526 60.1021L78.9698 58.8328C77.814 54.9013 73.6898 52.6512 69.7583 53.8071L71.0276 58.1244ZM61.1646 55.8457C62.9978 58.1205 66.1095 59.5703 69.2931 58.6343L68.0238 54.317C66.952 54.6321 65.6185 54.201 64.6685 53.0221L61.1646 55.8457ZM60.1191 47.2561C58.5139 50.1983 59.3499 53.5936 61.1646 55.8457L64.6685 53.0221C63.6935 51.8121 63.5451 50.3723 64.0694 49.4114L60.1191 47.2561ZM59.8816 41.5948C61.2973 42.3672 61.8187 44.1409 61.0464 45.5565L64.9967 47.7118C66.9594 44.1145 65.6342 39.6072 62.0369 37.6445L59.8816 41.5948ZM55.9199 42.7596C56.6922 41.3439 58.466 40.8224 59.8816 41.5948L62.0369 37.6445C58.4396 35.6818 53.9323 37.007 51.9696 40.6043L55.9199 42.7596ZM47.221 48.3078C50.0836 48.5911 53.3617 47.4482 54.9572 44.5239L51.0069 42.3687C50.4841 43.3269 49.2028 43.9819 47.6641 43.8297L47.221 48.3078ZM40.3999 42.9687C41.3447 46.1822 44.289 48.0176 47.221 48.3078L47.6641 43.8297C46.1388 43.6787 45.0358 42.7832 44.7172 41.6995L40.3999 42.9687ZM36.2124 39.0777C37.7596 38.6228 39.3826 39.5083 39.8374 41.0555L44.1547 39.7862C42.9988 35.8547 38.8747 33.6046 34.9432 34.7604L36.2124 39.0777ZM34.2347 42.7027C33.7798 41.1555 34.6653 39.5326 36.2124 39.0777L34.9432 34.7604C31.0116 35.9163 28.7615 40.0404 29.9174 43.972L34.2347 42.7027ZM32.2192 52.825C34.4167 51.0345 35.7963 48.0143 34.89 44.9317L30.5727 46.201C30.8654 47.1966 30.4746 48.4419 29.3767 49.3365L32.2192 52.825ZM23.8216 53.859C26.7002 55.4295 30.0226 54.6148 32.2192 52.825L29.3767 49.3365C28.2361 50.2658 26.8772 50.3999 25.9769 49.9087L23.8216 53.859ZM17.8795 53.9433C18.6519 52.5276 20.4256 52.0062 21.8413 52.7785L23.9965 48.8282C20.3992 46.8656 15.8919 48.1907 13.9292 51.788L17.8795 53.9433ZM19.0443 57.905C17.6286 57.1326 17.1072 55.3589 17.8795 53.9433L13.9292 51.788C11.9665 55.3853 13.2917 59.8926 16.889 61.8553L19.0443 57.905ZM24.7754 66.616C25.0659 63.7989 23.9397 60.5759 21.0636 59.0067L18.9083 62.957C19.8205 63.4547 20.4513 64.6789 20.2992 66.1545L24.7754 66.616ZM19.5387 73.262C22.6742 72.3402 24.4801 69.48 24.7754 66.616L20.2992 66.1545C20.1497 67.604 19.2942 68.6435 18.2694 68.9448L19.5387 73.262ZM15.2527 77.5656C14.7979 76.0184 15.6833 74.3955 17.2305 73.9406L15.9612 69.6234C12.0297 70.7792 9.77958 74.9034 10.9355 78.8349L15.2527 77.5656ZM18.8777 79.5434C17.3305 79.9982 15.7076 79.1128 15.2527 77.5656L10.9355 78.8349C12.0913 82.7664 16.2155 85.0165 20.147 83.8606L18.8777 79.5434ZM29.1838 81.5767C27.3952 79.3461 24.3497 77.9346 21.2375 78.8496L22.5068 83.1668C23.514 82.8707 24.7756 83.2725 25.6731 84.3917L29.1838 81.5767ZM30.1783 89.9401C31.7396 87.0786 30.947 83.7756 29.1838 81.5767L25.6731 84.3917C26.5892 85.5343 26.7181 86.8865 26.228 87.7848L30.1783 89.9401ZM30.2282 95.9453C28.8125 95.1729 28.2911 93.3992 29.0634 91.9835L25.1131 89.8283C23.1504 93.4256 24.4756 97.9329 28.0729 99.8956L30.2282 95.9453ZM34.1899 94.7805C33.4175 96.1962 31.6438 96.7176 30.2282 95.9453L28.0729 99.8956C31.6702 101.858 36.1775 100.533 38.1402 96.9358L34.1899 94.7805ZM42.8914 89.1249C40.0756 88.8087 36.8408 89.9218 35.2703 92.8004L39.2205 94.9557C39.7118 94.0554 40.9271 93.4326 42.3892 93.5968L42.8914 89.1249ZM49.4092 94.3168C48.503 91.2342 45.7082 89.4412 42.8914 89.1249L42.3892 93.5968C43.7966 93.7548 44.7992 94.5905 45.0919 95.5861L49.4092 94.3168ZM53.676 98.4774C52.1288 98.9322 50.5058 98.0468 50.051 96.4996L45.7337 97.7689C46.8896 101.7 51.0137 103.951 54.9452 102.795L53.676 98.4774ZM55.6537 94.8524C56.1086 96.3996 55.2231 98.0225 53.676 98.4774L54.9452 102.795C58.8768 101.639 61.1269 97.5147 59.971 93.5831L55.6537 94.8524ZM57.951 84.8041C55.6426 86.6349 54.1601 89.7719 55.1048 92.9854L59.4221 91.7161C59.1035 90.6324 59.5463 89.2823 60.7473 88.3298L57.951 84.8041ZM66.5042 83.7989C63.5799 82.2034 60.2048 83.0166 57.951 84.8041L60.7473 88.3298C61.9587 87.369 63.3907 87.2264 64.3489 87.7492L66.5042 83.7989ZM76.1804 85.7519C78.1431 82.1546 76.818 77.6473 73.2206 75.6846L71.0654 79.6349C72.481 80.4073 73.0025 82.181 72.2301 83.5967L76.1804 85.7519ZM72.2301 83.5967C71.4578 85.0123 69.684 85.5338 68.2684 84.7614L66.1131 88.7117C69.7105 90.6744 74.2177 89.3492 76.1804 85.7519L72.2301 83.5967ZM29.19 60.1153C24.4095 68.8772 27.6372 79.8555 36.3991 84.6359L38.5543 80.6856C31.9741 77.0955 29.5502 68.8508 33.1403 62.2706L29.19 60.1153ZM53.7107 52.9063C44.9487 48.1259 33.9705 51.3534 29.19 60.1153L33.1403 62.2706C36.7305 55.6904 44.9752 53.2665 51.5554 56.8566L53.7107 52.9063ZM60.9197 77.4269C65.7002 68.665 62.4726 57.6867 53.7107 52.9063L51.5554 56.8566C58.1356 60.4467 60.5596 68.6914 56.9694 75.2716L60.9197 77.4269ZM36.3991 84.6359C45.161 89.4164 56.1392 86.1888 60.9197 77.4269L56.9694 75.2716C53.3793 81.8518 45.1346 84.2758 38.5543 80.6856L36.3991 84.6359ZM39.7517 78.491C34.3835 75.5622 32.4061 68.8361 35.3349 63.468L31.3846 61.3127C27.2654 68.8626 30.0466 78.3222 37.5964 82.4413L39.7517 78.491ZM54.7748 74.0743C51.846 79.4424 45.1199 81.4199 39.7517 78.491L37.5964 82.4413C45.1463 86.5605 54.6059 83.7794 58.7251 76.2295L54.7748 74.0743ZM50.358 59.0512C55.7262 61.98 57.7037 68.7061 54.7748 74.0743L58.7251 76.2295C62.8443 68.6797 60.0631 59.2201 52.5133 55.1009L50.358 59.0512ZM35.3349 63.468C38.2638 58.0998 44.9898 56.1223 50.358 59.0512L52.5133 55.1009C44.9634 50.9817 35.5038 53.7629 31.3846 61.3127L35.3349 63.468Z" fill="url(#paint1_linear_2306_5343)" mask="url(#path-3-outside-2_2306_5343)"/>
<mask id="path-5-outside-3_2306_5343" maskUnits="userSpaceOnUse" x="50.9068" y="-4.04245" width="72.0804" height="72.0802" fill="black">
<rect fill="white" x="50.9068" y="-4.04245" width="72.0804" height="72.0802"/>
<path fill-rule="evenodd" clip-rule="evenodd" d="M103.133 42.4614C104.557 43.7889 104.635 46.0198 103.308 47.4442C101.98 48.8685 99.7494 48.947 98.325 47.6195L97.3224 46.685C96.2192 45.6568 94.5506 45.5658 93.1735 46.1804C91.7789 46.8028 90.7634 48.1219 90.8171 49.6481L90.8638 50.9745C90.9322 52.9204 89.4103 54.5534 87.4644 54.6219C85.5184 54.6903 83.8855 53.1683 83.817 51.2224L83.7625 49.6719C83.7115 48.2235 82.6796 47.0339 81.3245 46.5198C79.9522 45.9992 78.3355 46.1961 77.3348 47.2698L76.2857 48.3953C74.9581 49.8197 72.7273 49.8982 71.3029 48.5706C69.8785 47.2431 69.8 45.0122 71.1276 43.5878L72.2099 42.4266C73.2056 41.3582 73.2951 39.7425 72.6928 38.4121C72.089 37.0784 70.8198 36.115 69.3567 36.1665L67.6803 36.2255C65.7343 36.2939 64.1014 34.7719 64.0329 32.826C63.9645 30.8801 65.4864 29.2472 67.4324 29.1787L69.0717 29.121C70.5495 29.069 71.7586 28.0061 72.2705 26.6188C72.78 25.2383 72.5759 23.6206 71.4995 22.6173L70.3521 21.5479C68.9277 20.2204 68.8492 17.9895 70.1768 16.5651C71.5044 15.1408 73.7353 15.0623 75.1596 16.3898L76.2849 17.4386C77.3587 18.4394 78.9853 18.5221 80.3177 17.9063C81.6334 17.2983 82.5792 16.0391 82.5283 14.5905L82.4726 13.0073C82.4041 11.0614 83.9261 9.42842 85.872 9.35996C87.8179 9.29151 89.4509 10.8135 89.5194 12.7594L89.5672 14.1186C89.6209 15.6449 90.7266 16.8894 92.1615 17.4123C93.5785 17.9286 95.2367 17.7206 96.2649 16.6173L97.1992 15.615C98.5267 14.1906 100.758 14.1121 102.182 15.4397C103.606 16.7672 103.685 18.9981 102.357 20.4225L101.457 21.3883C100.423 22.4973 100.339 24.1776 100.968 25.5571C101.595 26.9334 102.904 27.9308 104.416 27.8776L105.648 27.8343C107.593 27.7658 109.226 29.2878 109.295 31.2337C109.363 33.1796 107.841 34.8126 105.895 34.881L104.626 34.9257C103.13 34.9783 101.905 36.0524 101.379 37.455C100.851 38.8642 101.052 40.5222 102.153 41.5482L103.133 42.4614ZM78.8431 40.4808C74.1626 36.1184 73.9047 28.7877 78.2671 24.1072C82.6295 19.4266 89.9602 19.1687 94.6408 23.5311C99.3213 27.8935 99.5792 35.2243 95.2168 39.9048C90.8544 44.5853 83.5237 44.8432 78.8431 40.4808ZM80.0959 25.8117C76.6749 29.4822 76.8771 35.231 80.5476 38.652C84.2181 42.073 89.967 41.8708 93.388 38.2003C96.809 34.5298 96.6068 28.781 92.9363 25.36C89.2658 21.9389 83.5169 22.1412 80.0959 25.8117Z"/>
</mask>
<path fill-rule="evenodd" clip-rule="evenodd" d="M103.133 42.4614C104.557 43.7889 104.635 46.0198 103.308 47.4442C101.98 48.8685 99.7494 48.947 98.325 47.6195L97.3224 46.685C96.2192 45.6568 94.5506 45.5658 93.1735 46.1804C91.7789 46.8028 90.7634 48.1219 90.8171 49.6481L90.8638 50.9745C90.9322 52.9204 89.4103 54.5534 87.4644 54.6219C85.5184 54.6903 83.8855 53.1683 83.817 51.2224L83.7625 49.6719C83.7115 48.2235 82.6796 47.0339 81.3245 46.5198C79.9522 45.9992 78.3355 46.1961 77.3348 47.2698L76.2857 48.3953C74.9581 49.8197 72.7273 49.8982 71.3029 48.5706C69.8785 47.2431 69.8 45.0122 71.1276 43.5878L72.2099 42.4266C73.2056 41.3582 73.2951 39.7425 72.6928 38.4121C72.089 37.0784 70.8198 36.115 69.3567 36.1665L67.6803 36.2255C65.7343 36.2939 64.1014 34.7719 64.0329 32.826C63.9645 30.8801 65.4864 29.2472 67.4324 29.1787L69.0717 29.121C70.5495 29.069 71.7586 28.0061 72.2705 26.6188C72.78 25.2383 72.5759 23.6206 71.4995 22.6173L70.3521 21.5479C68.9277 20.2204 68.8492 17.9895 70.1768 16.5651C71.5044 15.1408 73.7353 15.0623 75.1596 16.3898L76.2849 17.4386C77.3587 18.4394 78.9853 18.5221 80.3177 17.9063C81.6334 17.2983 82.5792 16.0391 82.5283 14.5905L82.4726 13.0073C82.4041 11.0614 83.9261 9.42842 85.872 9.35996C87.8179 9.29151 89.4509 10.8135 89.5194 12.7594L89.5672 14.1186C89.6209 15.6449 90.7266 16.8894 92.1615 17.4123C93.5785 17.9286 95.2367 17.7206 96.2649 16.6173L97.1992 15.615C98.5267 14.1906 100.758 14.1121 102.182 15.4397C103.606 16.7672 103.685 18.9981 102.357 20.4225L101.457 21.3883C100.423 22.4973 100.339 24.1776 100.968 25.5571C101.595 26.9334 102.904 27.9308 104.416 27.8776L105.648 27.8343C107.593 27.7658 109.226 29.2878 109.295 31.2337C109.363 33.1796 107.841 34.8126 105.895 34.881L104.626 34.9257C103.13 34.9783 101.905 36.0524 101.379 37.455C100.851 38.8642 101.052 40.5222 102.153 41.5482L103.133 42.4614ZM78.8431 40.4808C74.1626 36.1184 73.9047 28.7877 78.2671 24.1072C82.6295 19.4266 89.9602 19.1687 94.6408 23.5311C99.3213 27.8935 99.5792 35.2243 95.2168 39.9048C90.8544 44.5853 83.5237 44.8432 78.8431 40.4808ZM80.0959 25.8117C76.6749 29.4822 76.8771 35.231 80.5476 38.652C84.2181 42.073 89.967 41.8708 93.388 38.2003C96.809 34.5298 96.6068 28.781 92.9363 25.36C89.2658 21.9389 83.5169 22.1412 80.0959 25.8117Z" fill="#FD874E"/>
<path d="M104.626 34.9257L104.706 37.1743L104.626 34.9257ZM105.895 34.881L105.816 32.6324L105.895 34.881ZM105.648 27.8343L105.568 25.5857L105.648 27.8343ZM104.416 27.8776L104.495 30.1262L104.416 27.8776ZM101.457 21.3883L99.8111 19.8543L101.457 21.3883ZM102.357 20.4225L104.003 21.9566L102.357 20.4225ZM97.1992 15.615L98.8451 17.149L97.1992 15.615ZM96.2649 16.6173L94.619 15.0833L96.2649 16.6173ZM89.5672 14.1186L87.3186 14.1977L89.5672 14.1186ZM89.5194 12.7594L91.768 12.6803L89.5194 12.7594ZM82.4726 13.0073L80.224 13.0864L82.4726 13.0073ZM82.5283 14.5905L84.7769 14.5114L82.5283 14.5905ZM76.2849 17.4386L74.7509 19.0846L76.2849 17.4386ZM75.1596 16.3898L76.6937 14.7439L75.1596 16.3898ZM70.3521 21.5479L71.8862 19.902L70.3521 21.5479ZM71.4995 22.6173L69.9654 24.2633L71.4995 22.6173ZM69.0717 29.121L69.1508 31.3696L69.0717 29.121ZM67.4324 29.1787L67.3533 26.9301L67.4324 29.1787ZM67.6803 36.2255L67.6012 33.9769L67.6803 36.2255ZM69.3567 36.1665L69.4358 38.4151L69.3567 36.1665ZM72.2099 42.4266L70.564 40.8925L72.2099 42.4266ZM71.1276 43.5878L72.7735 45.1219L71.1276 43.5878ZM76.2857 48.3953L74.6398 46.8613L76.2857 48.3953ZM77.3348 47.2698L78.9807 48.8038L77.3348 47.2698ZM83.7625 49.6719L81.5139 49.751L83.7625 49.6719ZM83.817 51.2224L86.0656 51.1433L83.817 51.2224ZM90.8638 50.9745L93.1124 50.8954L90.8638 50.9745ZM90.8171 49.6481L88.5685 49.7272L90.8171 49.6481ZM95.7883 48.3309L96.7909 49.2654L99.8591 45.9735L98.8564 45.039L95.7883 48.3309ZM93.1124 50.8954L93.0657 49.569L88.5685 49.7272L88.6152 51.0536L93.1124 50.8954ZM81.5139 49.751L81.5684 51.3015L86.0656 51.1433L86.0111 49.5928L81.5139 49.751ZM77.9316 49.9294L78.9807 48.8038L75.6888 45.7357L74.6398 46.8613L77.9316 49.9294ZM70.564 40.8925L69.4816 42.0537L72.7735 45.1219L73.8558 43.9606L70.564 40.8925ZM67.7594 38.4741L69.4358 38.4151L69.2775 33.9179L67.6012 33.9769L67.7594 38.4741ZM68.9926 26.8724L67.3533 26.9301L67.5115 31.4273L69.1508 31.3696L68.9926 26.8724ZM68.818 23.1939L69.9654 24.2633L73.0335 20.9714L71.8862 19.902L68.818 23.1939ZM77.819 15.7927L76.6937 14.7439L73.6256 18.0358L74.7509 19.0846L77.819 15.7927ZM80.224 13.0864L80.2797 14.6697L84.7769 14.5114L84.7212 12.9282L80.224 13.0864ZM91.8158 14.0395L91.768 12.6803L87.2707 12.8385L87.3186 14.1977L91.8158 14.0395ZM95.5532 14.0809L94.619 15.0833L97.9109 18.1514L98.8451 17.149L95.5532 14.0809ZM103.103 22.9224L104.003 21.9566L100.711 18.8884L99.8111 19.8543L103.103 22.9224ZM105.568 25.5857L104.336 25.629L104.495 30.1262L105.727 30.0829L105.568 25.5857ZM104.706 37.1743L105.975 37.1296L105.816 32.6324L104.547 32.6771L104.706 37.1743ZM104.667 40.8154L103.687 39.9023L100.619 43.1941L101.598 44.1073L104.667 40.8154ZM99.2721 36.6657C98.5085 38.7041 98.6926 41.399 100.619 43.1941L103.687 39.9023C103.411 39.6453 103.194 39.0244 103.486 38.2443L99.2721 36.6657ZM104.547 32.6771C101.954 32.7683 100.045 34.6029 99.2721 36.6657L103.486 38.2443C103.764 37.5019 104.306 37.1883 104.706 37.1743L104.547 32.6771ZM107.046 31.3128C107.071 32.0168 106.52 32.6077 105.816 32.6324L105.975 37.1296C109.162 37.0175 111.656 34.3424 111.544 31.1546L107.046 31.3128ZM105.727 30.0829C106.431 30.0581 107.022 30.6088 107.046 31.3128L111.544 31.1546C111.431 27.9668 108.756 25.4735 105.568 25.5857L105.727 30.0829ZM98.9205 26.4899C99.8393 28.5067 101.883 30.2181 104.495 30.1262L104.336 25.629C103.925 25.6435 103.351 25.3601 103.016 24.6243L98.9205 26.4899ZM99.8111 19.8543C98.0082 21.7887 98.0146 24.5015 98.9205 26.4899L103.016 24.6243C102.664 23.8536 102.839 23.2059 103.103 22.9224L99.8111 19.8543ZM100.648 17.0856C101.163 17.5659 101.192 18.3731 100.711 18.8884L104.003 21.9566C106.178 19.6232 106.049 15.9685 103.716 13.7937L100.648 17.0856ZM98.8451 17.149C99.3254 16.6337 100.133 16.6053 100.648 17.0856L103.716 13.7937C101.383 11.6189 97.728 11.7475 95.5532 14.0809L98.8451 17.149ZM91.3912 19.5263C93.4332 20.2704 96.1191 20.0738 97.9109 18.1514L94.619 15.0833C94.3543 15.3673 93.7238 15.5868 92.9319 15.2983L91.3912 19.5263ZM87.3186 14.1977C87.4113 16.8332 89.2923 18.7615 91.3912 19.5263L92.9319 15.2983C92.161 15.0173 91.8304 14.4565 91.8158 14.0395L87.3186 14.1977ZM85.9511 11.6086C86.6552 11.5838 87.246 12.1345 87.2707 12.8385L91.768 12.6803C91.6558 9.49251 88.9807 6.99921 85.7929 7.11136L85.9511 11.6086ZM84.7212 12.9282C84.6964 12.2241 85.2471 11.6333 85.9511 11.6086L85.7929 7.11136C82.6051 7.22351 80.1118 9.89863 80.224 13.0864L84.7212 12.9282ZM81.2616 19.9488C83.2211 19.0432 84.8661 17.047 84.7769 14.5114L80.2797 14.6697C80.2924 15.0312 80.0458 15.5534 79.3738 15.8639L81.2616 19.9488ZM74.7509 19.0846C76.6489 20.8536 79.311 20.8503 81.2616 19.9488L79.3738 15.8639C78.6596 16.194 78.0685 16.0252 77.819 15.7927L74.7509 19.0846ZM71.8228 18.0992C72.3031 17.5839 73.1102 17.5555 73.6256 18.0358L76.6937 14.7439C74.3603 12.5691 70.7057 12.6977 68.5309 15.0311L71.8228 18.0992ZM71.8862 19.902C71.3708 19.4217 71.3424 18.6145 71.8228 18.0992L68.5309 15.0311C66.3561 17.3645 66.4846 21.0191 68.818 23.1939L71.8862 19.902ZM74.3814 27.3978C75.1243 25.3847 74.9283 22.7373 73.0335 20.9714L69.9654 24.2633C70.2235 24.5039 70.4357 25.0919 70.1597 25.8399L74.3814 27.3978ZM69.1508 31.3696C71.728 31.279 73.6234 29.452 74.3814 27.3978L70.1597 25.8399C69.8939 26.5601 69.371 26.8591 68.9926 26.8724L69.1508 31.3696ZM66.2815 32.7469C66.2568 32.0429 66.8074 31.4521 67.5115 31.4273L67.3533 26.9301C64.1655 27.0422 61.6722 29.7174 61.7843 32.9051L66.2815 32.7469ZM67.6012 33.9769C66.8971 34.0016 66.3063 33.451 66.2815 32.7469L61.7843 32.9051C61.8965 36.0929 64.5716 38.5862 67.7594 38.4741L67.6012 33.9769ZM74.7426 37.4841C73.845 35.5016 71.837 33.8278 69.2775 33.9179L69.4358 38.4151C69.8025 38.4022 70.333 38.6551 70.6431 39.34L74.7426 37.4841ZM73.8558 43.9606C75.614 42.0743 75.6241 39.4313 74.7426 37.4841L70.6431 39.34C70.9662 40.0537 70.7972 40.6422 70.564 40.8925L73.8558 43.9606ZM72.8369 46.9247C72.3216 46.4444 72.2932 45.6372 72.7735 45.1219L69.4816 42.0537C67.3068 44.3871 67.4354 48.0418 69.7688 50.2166L72.8369 46.9247ZM74.6398 46.8613C74.1594 47.3766 73.3523 47.405 72.8369 46.9247L69.7688 50.2166C72.1022 52.3914 75.7568 52.2628 77.9316 49.9294L74.6398 46.8613ZM82.1225 44.4161C80.1134 43.654 77.4578 43.8377 75.6888 45.7357L78.9807 48.8038C79.2132 48.5544 79.7909 48.3445 80.5264 48.6235L82.1225 44.4161ZM86.0111 49.5928C85.9219 47.0574 84.1407 45.1817 82.1225 44.4161L80.5264 48.6235C81.2185 48.8861 81.5011 49.3896 81.5139 49.751L86.0111 49.5928ZM87.3852 52.3732C86.6812 52.398 86.0904 51.8474 86.0656 51.1433L81.5684 51.3015C81.6805 54.4893 84.3557 56.9826 87.5435 56.8705L87.3852 52.3732ZM88.6152 51.0536C88.6399 51.7577 88.0893 52.3485 87.3852 52.3732L87.5435 56.8705C90.7312 56.7583 93.2245 54.0832 93.1124 50.8954L88.6152 51.0536ZM92.2566 44.1257C90.2166 45.0361 88.4758 47.0917 88.5685 49.7272L93.0657 49.569C93.0511 49.152 93.3413 48.5694 94.0905 48.235L92.2566 44.1257ZM98.8564 45.039C96.9341 43.2474 94.2411 43.24 92.2566 44.1257L94.0905 48.235C94.8601 47.8916 95.5044 48.0663 95.7883 48.3309L98.8564 45.039ZM104.954 48.9782C107.129 46.6448 107 42.9902 104.667 40.8154L101.598 44.1073C102.114 44.5876 102.142 45.3948 101.662 45.9101L104.954 48.9782ZM101.662 45.9101C101.182 46.4254 100.374 46.4538 99.8591 45.9735L96.7909 49.2654C99.1244 51.4402 102.779 51.3116 104.954 48.9782L101.662 45.9101ZM76.6211 22.5731C71.4115 28.1627 71.7195 36.9171 77.309 42.1268L80.3772 38.8349C76.6057 35.3197 76.3979 29.4127 79.913 25.6412L76.6211 22.5731ZM96.1748 21.8852C90.5853 16.6756 81.8308 16.9835 76.6211 22.5731L79.913 25.6412C83.4282 21.8697 89.3352 21.6619 93.1067 25.1771L96.1748 21.8852ZM96.8628 41.4389C102.072 35.8493 101.764 27.0948 96.1748 21.8852L93.1067 25.1771C96.8782 28.6922 97.086 34.5992 93.5709 38.3707L96.8628 41.4389ZM77.309 42.1268C82.8986 47.3364 91.6531 47.0284 96.8628 41.4389L93.5709 38.3707C90.0557 42.1422 84.1487 42.35 80.3772 38.8349L77.309 42.1268ZM82.0817 37.0061C79.3202 34.4323 79.1681 30.1072 81.7418 27.3457L78.45 24.2776C74.1817 28.8571 74.434 36.0297 79.0136 40.2979L82.0817 37.0061ZM91.742 36.6662C89.1683 39.4277 84.8432 39.5798 82.0817 37.0061L79.0136 40.2979C83.5931 44.5662 90.7657 44.3139 95.0339 39.7343L91.742 36.6662ZM91.4022 27.0059C94.1637 29.5797 94.3158 33.9047 91.742 36.6662L95.0339 39.7343C99.3022 35.1548 99.0499 27.9823 94.4703 23.714L91.4022 27.0059ZM81.7418 27.3457C84.3156 24.5843 88.6407 24.4321 91.4022 27.0059L94.4703 23.714C89.8908 19.4458 82.7182 19.6981 78.45 24.2776L81.7418 27.3457Z" fill="url(#paint2_linear_2306_5343)" mask="url(#path-5-outside-3_2306_5343)"/>
<mask id="path-7-outside-4_2306_5343" maskUnits="userSpaceOnUse" x="24.2477" y="-3.15974" width="49.4665" height="49.4663" fill="black">
<rect fill="white" x="24.2477" y="-3.15974" width="49.4665" height="49.4663"/>
<path fill-rule="evenodd" clip-rule="evenodd" d="M58.8397 29.0806C59.7006 30.0048 59.6493 31.452 58.7251 32.3129C57.8009 33.1739 56.3537 33.1226 55.4927 32.1984L54.8864 31.5475C54.2197 30.8318 53.1442 30.6965 52.225 31.0311C51.2942 31.37 50.5767 32.1771 50.5416 33.1671L50.5111 34.0279C50.4664 35.2902 49.4068 36.2773 48.1444 36.2325C46.8821 36.1878 45.8951 35.1282 45.9398 33.8659L45.9755 32.8597C46.0088 31.9201 45.3955 31.1031 44.5421 30.7084C43.6778 30.3086 42.6226 30.362 41.9258 31.0111L41.1956 31.6912C40.2714 32.5522 38.8242 32.5009 37.9632 31.5767C37.1023 30.6524 37.1536 29.2053 38.0778 28.3443L38.8316 27.6421C39.5247 26.9964 39.6566 25.9552 39.3278 25.0669C38.9982 24.1764 38.221 23.495 37.2721 23.4614L36.1839 23.4228C34.9216 23.3781 33.9345 22.3185 33.9793 21.0562C34.024 19.7939 35.0836 18.8068 36.3459 18.8516L37.4098 18.8893C38.3684 18.9233 39.1994 18.2908 39.5941 17.4166C39.9868 16.5466 39.9288 15.4906 39.2782 14.7923L38.5846 14.0476C37.7236 13.1234 37.7749 11.6762 38.6991 10.8152C39.6234 9.95427 41.0705 10.0056 41.9315 10.9298L42.6114 11.6597C43.2605 12.3565 44.3094 12.4844 45.1999 12.1468C46.0791 11.8135 46.7488 11.0419 46.7821 10.1022L46.8185 9.0755C46.8632 7.81317 47.9228 6.82613 49.1852 6.87087C50.4475 6.91561 51.4345 7.9752 51.3898 9.23752L51.3585 10.1189C51.3235 11.109 51.982 11.9649 52.8866 12.3689C53.7798 12.7677 54.8623 12.709 55.5781 12.0422L56.2286 11.4362C57.1529 10.5752 58.6001 10.6265 59.461 11.5508C60.322 12.475 60.2707 13.9222 59.3464 14.7831L58.7201 15.3666C58.0003 16.0371 57.8691 17.1207 58.2128 18.0423C58.5556 18.9618 59.3572 19.6672 60.3378 19.7019L61.1364 19.7303C62.3987 19.775 63.3857 20.8346 63.341 22.0969C63.2963 23.3592 62.2367 24.3463 60.9743 24.3015L60.1515 24.2724C59.1805 24.2379 58.3385 24.8769 57.9343 25.7606C57.5281 26.6484 57.5821 27.7306 58.2476 28.445L58.8397 29.0806ZM43.1192 26.7734C40.2417 23.6845 40.4132 18.8479 43.5021 15.9705C46.5909 13.0931 51.4276 13.2645 54.305 16.3534C57.1824 19.4422 57.011 24.2789 53.9221 27.1563C50.8332 30.0337 45.9966 29.8622 43.1192 26.7734ZM44.6949 17.251C42.3132 19.4696 42.181 23.1989 44.3996 25.5805C46.6183 27.9622 50.3476 28.0944 52.7293 25.8758C55.1109 23.6572 55.2431 19.9279 53.0245 17.5462C50.8059 15.1645 47.0766 15.0323 44.6949 17.251Z"/>
</mask>
<path fill-rule="evenodd" clip-rule="evenodd" d="M58.8397 29.0806C59.7006 30.0048 59.6493 31.452 58.7251 32.3129C57.8009 33.1739 56.3537 33.1226 55.4927 32.1984L54.8864 31.5475C54.2197 30.8318 53.1442 30.6965 52.225 31.0311C51.2942 31.37 50.5767 32.1771 50.5416 33.1671L50.5111 34.0279C50.4664 35.2902 49.4068 36.2773 48.1444 36.2325C46.8821 36.1878 45.8951 35.1282 45.9398 33.8659L45.9755 32.8597C46.0088 31.9201 45.3955 31.1031 44.5421 30.7084C43.6778 30.3086 42.6226 30.362 41.9258 31.0111L41.1956 31.6912C40.2714 32.5522 38.8242 32.5009 37.9632 31.5767C37.1023 30.6524 37.1536 29.2053 38.0778 28.3443L38.8316 27.6421C39.5247 26.9964 39.6566 25.9552 39.3278 25.0669C38.9982 24.1764 38.221 23.495 37.2721 23.4614L36.1839 23.4228C34.9216 23.3781 33.9345 22.3185 33.9793 21.0562C34.024 19.7939 35.0836 18.8068 36.3459 18.8516L37.4098 18.8893C38.3684 18.9233 39.1994 18.2908 39.5941 17.4166C39.9868 16.5466 39.9288 15.4906 39.2782 14.7923L38.5846 14.0476C37.7236 13.1234 37.7749 11.6762 38.6991 10.8152C39.6234 9.95427 41.0705 10.0056 41.9315 10.9298L42.6114 11.6597C43.2605 12.3565 44.3094 12.4844 45.1999 12.1468C46.0791 11.8135 46.7488 11.0419 46.7821 10.1022L46.8185 9.0755C46.8632 7.81317 47.9228 6.82613 49.1852 6.87087C50.4475 6.91561 51.4345 7.9752 51.3898 9.23752L51.3585 10.1189C51.3235 11.109 51.982 11.9649 52.8866 12.3689C53.7798 12.7677 54.8623 12.709 55.5781 12.0422L56.2286 11.4362C57.1529 10.5752 58.6001 10.6265 59.461 11.5508C60.322 12.475 60.2707 13.9222 59.3464 14.7831L58.7201 15.3666C58.0003 16.0371 57.8691 17.1207 58.2128 18.0423C58.5556 18.9618 59.3572 19.6672 60.3378 19.7019L61.1364 19.7303C62.3987 19.775 63.3857 20.8346 63.341 22.0969C63.2963 23.3592 62.2367 24.3463 60.9743 24.3015L60.1515 24.2724C59.1805 24.2379 58.3385 24.8769 57.9343 25.7606C57.5281 26.6484 57.5821 27.7306 58.2476 28.445L58.8397 29.0806ZM43.1192 26.7734C40.2417 23.6845 40.4132 18.8479 43.5021 15.9705C46.5909 13.0931 51.4276 13.2645 54.305 16.3534C57.1824 19.4422 57.011 24.2789 53.9221 27.1563C50.8332 30.0337 45.9966 29.8622 43.1192 26.7734ZM44.6949 17.251C42.3132 19.4696 42.181 23.1989 44.3996 25.5805C46.6183 27.9622 50.3476 28.0944 52.7293 25.8758C55.1109 23.6572 55.2431 19.9279 53.0245 17.5462C50.8059 15.1645 47.0766 15.0323 44.6949 17.251Z" fill="#FD874E"/>
<path d="M60.1515 24.2724L60.0718 26.5209L60.1515 24.2724ZM60.9743 24.3015L61.054 22.0529L60.9743 24.3015ZM60.3378 19.7019L60.4175 17.4534L60.3378 19.7019ZM58.7201 15.3666L57.1864 13.7203L58.7201 15.3666ZM59.3464 14.7831L60.8801 16.4295L59.3464 14.7831ZM56.2286 11.4362L57.7623 13.0825L56.2286 11.4362ZM55.5781 12.0422L54.0444 10.3959L55.5781 12.0422ZM51.3585 10.1189L53.6071 10.1986L51.3585 10.1189ZM51.3898 9.23752L49.1412 9.15782L51.3898 9.23752ZM46.8185 9.0755L49.0671 9.1552L46.8185 9.0755ZM46.7821 10.1022L44.5335 10.0225L46.7821 10.1022ZM42.6114 11.6597L44.2577 10.126L42.6114 11.6597ZM41.9315 10.9298L40.2852 12.4634L41.9315 10.9298ZM38.5846 14.0476L40.2309 12.514L38.5846 14.0476ZM39.2782 14.7923L37.6319 16.3259L39.2782 14.7923ZM38.8316 27.6421L40.3653 29.2884L38.8316 27.6421ZM38.0778 28.3443L36.5442 26.698L38.0778 28.3443ZM41.1956 31.6912L42.7293 33.3376L41.1956 31.6912ZM41.9258 31.0111L40.3922 29.3647L41.9258 31.0111ZM45.9755 32.8597L43.7269 32.78L45.9755 32.8597ZM45.9398 33.8659L48.1884 33.9456L45.9398 33.8659ZM50.5111 34.0279L52.7597 34.1076L50.5111 34.0279ZM50.5416 33.1671L48.293 33.0874L50.5416 33.1671ZM54.8864 31.5475L53.24 33.0811L54.8864 31.5475ZM55.4927 32.1984L57.1391 30.6647L55.4927 32.1984ZM53.24 33.0811L53.8464 33.732L57.1391 30.6647L56.5327 30.0139L53.24 33.0811ZM52.7597 34.1076L52.7902 33.2468L48.293 33.0874L48.2625 33.9482L52.7597 34.1076ZM43.7269 32.78L43.6912 33.7862L48.1884 33.9456L48.2241 32.9394L43.7269 32.78ZM42.7293 33.3376L43.4594 32.6574L40.3922 29.3647L39.662 30.0449L42.7293 33.3376ZM37.298 25.9957L36.5442 26.698L39.6114 29.9906L40.3653 29.2884L37.298 25.9957ZM36.1042 25.6714L37.1924 25.71L37.3518 21.2128L36.2636 21.1743L36.1042 25.6714ZM37.4895 16.6407L36.4256 16.603L36.2662 21.1001L37.3301 21.1379L37.4895 16.6407ZM36.9382 15.5812L37.6319 16.3259L40.9246 13.2586L40.2309 12.514L36.9382 15.5812ZM44.2577 10.126L43.5779 9.39617L40.2852 12.4634L40.9651 13.1933L44.2577 10.126ZM44.5699 8.99579L44.5335 10.0225L49.0307 10.1819L49.0671 9.1552L44.5699 8.99579ZM53.6071 10.1986L53.6384 9.31722L49.1412 9.15782L49.11 10.0392L53.6071 10.1986ZM54.695 9.78984L54.0444 10.3959L57.1117 13.6886L57.7623 13.0825L54.695 9.78984ZM60.2537 17.013L60.8801 16.4295L57.8128 13.1368L57.1864 13.7203L60.2537 17.013ZM61.2161 17.4817L60.4175 17.4534L60.2581 21.9505L61.0567 21.9788L61.2161 17.4817ZM60.0718 26.5209L60.8946 26.5501L61.054 22.0529L60.2312 22.0238L60.0718 26.5209ZM60.486 27.5469L59.894 26.9114L56.6013 29.9786L57.1933 30.6142L60.486 27.5469ZM55.8882 24.8245C55.2026 26.3234 55.1668 28.4388 56.6013 29.9786L59.894 26.9114C59.9125 26.9312 59.9241 26.9515 59.9295 26.9642C59.9342 26.9751 59.9306 26.9717 59.9285 26.9494C59.9262 26.9267 59.9262 26.8903 59.9345 26.8429C59.9428 26.7956 59.9581 26.7453 59.9804 26.6966L55.8882 24.8245ZM60.2312 22.0238C58.1633 21.9505 56.5857 23.2998 55.8882 24.8245L59.9804 26.6966C60.0254 26.598 60.0837 26.5412 60.1149 26.5195C60.1281 26.5103 60.1303 26.5115 60.1195 26.5149C60.1072 26.5187 60.0897 26.5216 60.0718 26.5209L60.2312 22.0238ZM61.0924 22.0172C61.0921 22.0265 61.0905 22.0296 61.0899 22.0309C61.0886 22.0336 61.0858 22.0382 61.0806 22.043C61.0755 22.0478 61.0707 22.0504 61.0678 22.0514C61.0665 22.052 61.0633 22.0533 61.054 22.0529L60.8946 26.5501C63.3988 26.6389 65.5008 24.6808 65.5896 22.1766L61.0924 22.0172ZM61.0567 21.9788C61.0659 21.9792 61.069 21.9807 61.0703 21.9813C61.0731 21.9826 61.0777 21.9855 61.0825 21.9906C61.0873 21.9958 61.0898 22.0006 61.0909 22.0034C61.0914 22.0047 61.0927 22.0079 61.0924 22.0172L65.5896 22.1766C65.6783 19.6724 63.7203 17.5704 61.2161 17.4817L61.0567 21.9788ZM56.1046 18.8284C56.6933 20.4073 58.1776 21.8768 60.2581 21.9505L60.4175 17.4534C60.4336 17.4539 60.4492 17.4577 60.4596 17.4617C60.4684 17.4652 60.4645 17.4654 60.4503 17.4539C60.4174 17.4273 60.3606 17.3624 60.321 17.2562L56.1046 18.8284ZM57.1864 13.7203C55.641 15.1599 55.5271 17.2799 56.1046 18.8284L60.321 17.2562C60.3014 17.2038 60.2892 17.1503 60.2841 17.1003C60.279 17.0501 60.2817 17.0116 60.2859 16.9871C60.2936 16.9413 60.2991 16.9707 60.2537 17.013L57.1864 13.7203ZM57.8147 13.0844C57.821 13.0912 57.8221 13.0945 57.8226 13.0958C57.8236 13.0987 57.8248 13.1039 57.8246 13.111C57.8243 13.118 57.8228 13.1232 57.8215 13.126C57.8209 13.1273 57.8196 13.1305 57.8128 13.1368L60.8801 16.4295C62.7136 14.7215 62.8153 11.8506 61.1074 10.0171L57.8147 13.0844ZM57.7623 13.0825C57.769 13.0762 57.7723 13.0751 57.7737 13.0746C57.7765 13.0736 57.7818 13.0724 57.7888 13.0726C57.7959 13.0729 57.8011 13.0744 57.8038 13.0757C57.8051 13.0763 57.8083 13.0776 57.8147 13.0844L61.1074 10.0171C59.3994 8.18364 56.5285 8.08188 54.695 9.78984L57.7623 13.0825ZM51.9692 14.4233C53.4698 15.0935 55.5765 15.1186 57.1117 13.6886L54.0444 10.3959C54.0888 10.3545 54.1166 10.3621 54.0703 10.3668C54.0141 10.3725 53.914 10.3635 53.8041 10.3144L51.9692 14.4233ZM49.11 10.0392C49.0355 12.1386 50.4192 13.7311 51.9692 14.4233L53.8041 10.3144C53.6985 10.2673 53.6355 10.2047 53.61 10.1684C53.5989 10.1527 53.5991 10.1482 53.6018 10.1569C53.605 10.1672 53.6077 10.1828 53.6071 10.1986L49.11 10.0392ZM49.1055 9.11945C49.1147 9.11978 49.1178 9.12133 49.1191 9.12193C49.1219 9.12322 49.1265 9.12607 49.1313 9.13124C49.1361 9.1364 49.1386 9.14117 49.1397 9.14402C49.1402 9.14535 49.1415 9.14856 49.1412 9.15782L53.6384 9.31722C53.7271 6.81304 51.769 4.71105 49.2649 4.62229L49.1055 9.11945ZM49.0671 9.1552C49.0674 9.14593 49.069 9.14282 49.0696 9.14153C49.0708 9.13877 49.0737 9.13419 49.0789 9.12938C49.084 9.12457 49.0888 9.12204 49.0917 9.12096C49.093 9.12045 49.0962 9.11912 49.1055 9.11945L49.2649 4.62229C46.7607 4.53353 44.6587 6.49161 44.5699 8.99579L49.0671 9.1552ZM45.9975 14.2507C47.5398 13.666 48.9589 12.2086 49.0307 10.1819L44.5335 10.0225C44.5344 9.99894 44.5396 9.97607 44.5463 9.95876C44.5525 9.94279 44.5567 9.93956 44.5509 9.94679C44.5448 9.95445 44.53 9.97051 44.5033 9.98967C44.4765 10.0088 44.4424 10.0277 44.4023 10.043L45.9975 14.2507ZM40.9651 13.1933C42.3822 14.7146 44.4701 14.8297 45.9975 14.2507L44.4023 10.043C44.3595 10.0592 44.3159 10.0692 44.2756 10.0735C44.2353 10.0777 44.2061 10.0753 44.1903 10.0726C44.175 10.0701 44.1778 10.0683 44.1938 10.0765C44.2113 10.0855 44.2353 10.102 44.2577 10.126L40.9651 13.1933ZM40.2328 12.4616C40.2395 12.4553 40.2428 12.4542 40.2442 12.4537C40.247 12.4526 40.2523 12.4514 40.2593 12.4517C40.2664 12.4519 40.2716 12.4535 40.2743 12.4547C40.2756 12.4553 40.2788 12.4566 40.2852 12.4634L43.5779 9.39617C41.8699 7.56269 38.999 7.46093 37.1655 9.16889L40.2328 12.4616ZM40.2309 12.514C40.2246 12.5072 40.2235 12.5039 40.223 12.5026C40.2219 12.4997 40.2207 12.4944 40.221 12.4874C40.2212 12.4803 40.2228 12.4752 40.2241 12.4724C40.2246 12.4711 40.226 12.4679 40.2328 12.4616L37.1655 9.16889C35.332 10.8768 35.2302 13.7478 36.9382 15.5812L40.2309 12.514ZM41.6448 18.3424C42.315 16.8579 42.3376 14.7755 40.9246 13.2586L37.6319 16.3259C37.6111 16.3036 37.5976 16.2805 37.5908 16.2646C37.5846 16.2503 37.5871 16.2498 37.5889 16.2675C37.5908 16.2857 37.5912 16.3171 37.584 16.3593C37.5768 16.4015 37.5633 16.4467 37.5434 16.4907L41.6448 18.3424ZM37.3301 21.1379C39.3881 21.2108 40.9575 19.8646 41.6448 18.3424L37.5434 16.4907C37.5243 16.533 37.5014 16.5689 37.4784 16.5971C37.4553 16.6253 37.4359 16.6413 37.4254 16.6486C37.4153 16.6557 37.4165 16.6527 37.4309 16.6482C37.4466 16.6433 37.4679 16.6399 37.4895 16.6407L37.3301 21.1379ZM36.2279 21.1359C36.2282 21.1266 36.2297 21.1235 36.2303 21.1222C36.2316 21.1195 36.2345 21.1149 36.2396 21.1101C36.2448 21.1053 36.2496 21.1027 36.2524 21.1017C36.2537 21.1011 36.257 21.0998 36.2662 21.1001L36.4256 16.603C33.9214 16.5142 31.8194 18.4723 31.7307 20.9765L36.2279 21.1359ZM36.2636 21.1743C36.2543 21.1739 36.2512 21.1724 36.2499 21.1718C36.2472 21.1705 36.2426 21.1676 36.2378 21.1625C36.233 21.1573 36.2304 21.1525 36.2294 21.1497C36.2289 21.1484 36.2275 21.1452 36.2279 21.1359L31.7307 20.9765C31.6419 23.4807 33.6 25.5827 36.1042 25.6714L36.2636 21.1743ZM41.4379 24.2859C40.861 22.7274 39.3971 21.2853 37.3518 21.2128L37.1924 25.71C37.169 25.7092 37.1463 25.7039 37.1293 25.6973C37.1137 25.6912 37.111 25.6872 37.1189 25.6936C37.1272 25.7003 37.1439 25.7159 37.1636 25.7438C37.1832 25.7715 37.2025 25.8068 37.2177 25.8479L41.4379 24.2859ZM40.3653 29.2884C41.8766 27.8806 42.0017 25.8092 41.4379 24.2859L37.2177 25.8479C37.2336 25.891 37.2434 25.9348 37.2474 25.9751C37.2514 26.0154 37.2489 26.0446 37.2461 26.0605C37.2434 26.076 37.2416 26.0735 37.2495 26.0581C37.2583 26.0411 37.2744 26.0177 37.298 25.9957L40.3653 29.2884ZM39.6096 30.043C39.6033 30.0363 39.6022 30.033 39.6017 30.0316C39.6006 30.0288 39.5994 30.0235 39.5997 30.0165C39.5999 30.0094 39.6015 30.0042 39.6027 30.0015C39.6033 30.0002 39.6047 29.997 39.6114 29.9906L36.5442 26.698C34.7107 28.4059 34.6089 31.2768 36.3169 33.1103L39.6096 30.043ZM39.662 30.0449C39.6552 30.0512 39.6519 30.0523 39.6506 30.0528C39.6477 30.0539 39.6425 30.0551 39.6354 30.0548C39.6284 30.0546 39.6232 30.053 39.6204 30.0517C39.6191 30.0512 39.6159 30.0498 39.6096 30.043L36.3169 33.1103C38.0249 34.9438 40.8958 35.0456 42.7293 33.3376L39.662 30.0449ZM45.4866 28.6662C44.0041 27.9806 41.9134 27.9476 40.3922 29.3647L43.4594 32.6574C43.4354 32.6798 43.4103 32.6945 43.3921 32.7023C43.3756 32.7094 43.3728 32.7074 43.3883 32.7059C43.4043 32.7044 43.4335 32.704 43.4734 32.7111C43.5133 32.7182 43.5561 32.7313 43.5976 32.7505L45.4866 28.6662ZM48.2241 32.9394C48.2959 30.9128 46.9836 29.3586 45.4866 28.6662L43.5976 32.7505C43.6365 32.7685 43.6692 32.7898 43.6944 32.8108C43.7197 32.8318 43.7334 32.8488 43.7389 32.8569C43.7442 32.8645 43.7402 32.861 43.7351 32.8446C43.7297 32.8268 43.726 32.8036 43.7269 32.78L48.2241 32.9394ZM48.2241 33.9839C48.2149 33.9836 48.2118 33.9821 48.2105 33.9815C48.2077 33.9802 48.2031 33.9773 48.1983 33.9722C48.1935 33.967 48.191 33.9622 48.1899 33.9594C48.1894 33.9581 48.1881 33.9548 48.1884 33.9456L43.6912 33.7862C43.6025 36.2904 45.5606 38.3923 48.0647 38.4811L48.2241 33.9839ZM48.2625 33.9482C48.2622 33.9575 48.2606 33.9606 48.26 33.9619C48.2587 33.9646 48.2559 33.9692 48.2507 33.974C48.2456 33.9788 48.2408 33.9814 48.2379 33.9824C48.2366 33.9829 48.2334 33.9843 48.2241 33.9839L48.0647 38.4811C50.5689 38.5699 52.6709 36.6118 52.7597 34.1076L48.2625 33.9482ZM51.4554 28.9169C49.8604 29.4975 48.3674 30.9881 48.293 33.0874L52.7902 33.2468C52.7896 33.2626 52.7859 33.2781 52.7819 33.2881C52.7786 33.2966 52.7787 33.2921 52.7909 33.2772C52.8189 33.2429 52.8861 33.1849 52.9947 33.1454L51.4554 28.9169ZM56.5327 30.0139C55.1027 28.4788 52.9996 28.3547 51.4554 28.9169L52.9947 33.1454C53.1078 33.1042 53.2082 33.1023 53.2638 33.112C53.3097 33.12 53.2814 33.1255 53.24 33.0811L56.5327 30.0139ZM60.2587 33.9593C62.0922 32.2513 62.194 29.3804 60.486 27.5469L57.1933 30.6142C57.1996 30.621 57.2007 30.6243 57.2012 30.6256C57.2023 30.6285 57.2035 30.6337 57.2032 30.6408C57.203 30.6478 57.2014 30.653 57.2002 30.6558C57.1996 30.6571 57.1983 30.6603 57.1915 30.6666L60.2587 33.9593ZM57.1915 30.6666C57.1847 30.6729 57.1814 30.674 57.1801 30.6745C57.1772 30.6756 57.1719 30.6768 57.1649 30.6765C57.1578 30.6763 57.1527 30.6747 57.1499 30.6734C57.1486 30.6729 57.1454 30.6715 57.1391 30.6647L53.8464 33.732C55.5543 35.5655 58.4252 35.6673 60.2587 33.9593L57.1915 30.6666ZM41.9684 14.3241C37.9703 18.0485 37.7484 24.3089 41.4728 28.307L44.7655 25.2397C42.7351 23.0601 42.8561 19.6472 45.0357 17.6168L41.9684 14.3241ZM55.9513 14.8197C52.2269 10.8216 45.9666 10.5997 41.9684 14.3241L45.0357 17.6168C47.2153 15.5864 50.6282 15.7074 52.6586 17.887L55.9513 14.8197ZM55.4557 28.8026C59.4539 25.0782 59.6758 18.8179 55.9513 14.8197L52.6586 17.887C54.6891 20.0666 54.5681 23.4795 52.3885 25.5099L55.4557 28.8026ZM41.4728 28.307C45.1972 32.3051 51.4576 32.527 55.4557 28.8026L52.3885 25.5099C50.2088 27.5403 46.7959 27.4194 44.7655 25.2397L41.4728 28.307ZM46.046 24.0469C44.6744 22.5745 44.7561 20.2689 46.2285 18.8973L43.1613 15.6046C39.8703 18.6702 39.6877 23.8232 42.7533 27.1142L46.046 24.0469ZM51.1956 24.2294C49.7232 25.6011 47.4176 25.5193 46.046 24.0469L42.7533 27.1142C45.8189 30.4051 50.972 30.5878 54.2629 27.5221L51.1956 24.2294ZM51.3782 19.0798C52.7498 20.5523 52.6681 22.8578 51.1956 24.2294L54.2629 27.5221C57.5538 24.4565 57.7365 19.3035 54.6708 16.0126L51.3782 19.0798ZM46.2285 18.8973C47.701 17.5257 50.0065 17.6074 51.3782 19.0798L54.6708 16.0126C51.6052 12.7216 46.4522 12.539 43.1613 15.6046L46.2285 18.8973Z" fill="url(#paint3_linear_2306_5343)" mask="url(#path-7-outside-4_2306_5343)"/>
<defs>
<linearGradient id="paint0_linear_2306_5343" x1="67.799" y1="51.486" x2="262.674" y2="193.736" gradientUnits="userSpaceOnUse">
<stop stop-color="#FD874E"/>
<stop offset="1" stop-color="#FFC290"/>
</linearGradient>
<linearGradient id="paint1_linear_2306_5343" x1="74.2053" y1="84.6743" x2="15.9044" y2="52.8655" gradientUnits="userSpaceOnUse">
<stop offset="0.5" stop-color="#FFC290"/>
<stop offset="1" stop-color="#FC864F"/>
</linearGradient>
<linearGradient id="paint2_linear_2306_5343" x1="103.308" y1="47.4444" x2="70.1767" y2="16.5653" gradientUnits="userSpaceOnUse">
<stop offset="0.5" stop-color="#FFC290"/>
<stop offset="1" stop-color="#FC864F"/>
</linearGradient>
<linearGradient id="paint3_linear_2306_5343" x1="58.7253" y1="32.3128" x2="38.6994" y2="10.815" gradientUnits="userSpaceOnUse">
<stop offset="0.5" stop-color="#FFC290"/>
<stop offset="1" stop-color="#FC864F"/>
</linearGradient>
</defs>
</svg>
