<svg width="132" height="120" viewBox="0 0 132 120" fill="none" xmlns="http://www.w3.org/2000/svg">
<g filter="url(#filter0_d_767_1477)">
<path d="M104.784 0.660637C109.558 0.653183 114.337 0.492932 119.102 0.688588C122.881 0.843249 125.726 3.87125 125.855 7.75641C125.907 9.33657 125.872 10.9186 125.872 12.4987C125.872 25.8611 125.879 39.2216 125.855 52.5839C125.855 53.4839 125.987 53.9013 127.025 54.1175C128.633 54.4529 129.64 55.6715 130.228 57.2032C130.279 57.3355 130.383 57.4473 130.463 57.5685V114.32C129.787 115.719 129.034 117.059 127.474 117.659C127.048 117.823 126.589 118.013 126.144 118.013C118.776 118.03 111.41 118.019 104.042 118.013C104.167 116.904 104.29 115.794 104.415 114.685C104.786 114.674 105.157 114.655 105.529 114.655C112.006 114.653 118.483 114.655 124.959 114.651C126.537 114.651 126.96 114.234 126.96 112.699C126.96 94.8791 126.96 77.0613 126.96 59.2418C126.96 57.6691 126.64 57.3504 125.052 57.3504C118.793 57.3486 112.532 57.3504 106.273 57.3467C105.902 57.3467 105.533 57.3113 105.162 57.2927C105.099 56.1747 105.037 55.0566 104.974 53.9386C107.73 53.9125 110.486 53.8473 113.24 53.8845C114.159 53.8976 114.446 53.6963 114.442 52.7181C114.401 43.0769 114.416 33.4357 114.418 23.7964C114.418 19.984 114.432 16.1715 114.44 12.359C114.364 12.2472 114.287 12.1335 114.213 12.0217C111.194 12.0124 108.175 12.0031 105.155 11.9938C105.155 10.8888 105.157 9.78378 105.158 8.67879C108.721 8.66202 112.288 8.55208 115.847 8.67134C117.397 8.72351 117.829 9.33097 117.828 10.7602C117.803 24.7076 117.813 38.657 117.815 52.6044C117.815 52.992 117.815 53.3777 117.815 53.8324C119.082 53.8324 120.196 53.7783 121.305 53.8491C122.195 53.9069 122.462 53.6199 122.46 52.7125C122.434 38.0215 122.441 23.3287 122.439 8.63593C122.439 5.58184 120.869 4.02778 117.801 4.02219C113.525 4.01287 109.249 4.00169 104.97 3.99051C104.909 2.88179 104.845 1.77122 104.784 0.6625V0.660637Z" fill="#FD874E"/>
<path d="M22.5395 96.021C20.6184 96.0415 18.6991 96.075 16.7779 96.0825C14.0798 96.0937 11.3797 96.0284 8.68525 96.0974C4.19076 96.211 0.913066 92.5085 0.922383 88.3065C0.985738 61.6694 0.954061 35.0305 0.955924 8.39335C0.955924 4.76347 2.73359 2.19945 6.1231 0.958439C6.52559 0.811232 6.96162 0.667751 7.38274 0.665887C12.1884 0.647254 16.9941 0.658434 21.7998 0.660297C21.7998 1.76529 21.7998 2.87027 21.7979 3.97526C17.5829 3.98644 13.3661 3.98085 9.1511 4.02371C8.39084 4.03116 7.56722 4.08707 6.88522 4.37962C5.18768 5.1082 4.44046 6.4517 4.44232 8.35049C4.46841 32.282 4.45909 56.2153 4.45909 80.1468C4.45909 83.0611 4.44605 85.9755 4.47027 88.8879C4.48518 90.7178 5.81191 92.2085 7.66039 92.5458C8.01443 92.6054 8.36848 92.7135 8.72252 92.7153C13.3307 92.734 17.9388 92.7358 22.5451 92.7414C22.5451 93.8352 22.5451 94.9272 22.5433 96.021H22.5395Z" fill="#FD874E"/>
<path d="M93.6202 118.011C90.9928 118.13 88.9729 116.399 88.6375 113.74C88.6859 113.599 88.7735 113.457 88.7753 113.315C88.7828 107.783 88.7847 102.253 88.766 96.7201C88.766 96.5059 88.5424 96.2934 88.425 96.081C87.2418 96.0605 86.0585 96.04 84.8753 96.0195C84.8753 94.9257 84.8753 93.8319 84.8734 92.74C85.8182 92.7325 86.7648 92.7474 87.7095 92.7027C87.9517 92.6915 88.1846 92.4884 88.4232 92.3729C88.4306 91.2008 88.412 90.0269 88.4567 88.8567C88.4809 88.238 88.2461 88.0442 87.6517 88.0703C87.0387 88.0983 86.4219 88.0368 85.807 88.0144C85.807 86.8927 85.807 85.769 85.807 84.6473C86.6865 84.6193 87.566 84.5914 88.4437 84.5634C88.5555 84.2206 88.7642 83.8758 88.766 83.533C88.7847 75.4533 88.7809 67.3718 88.7753 59.2922C88.7753 58.9251 88.7157 58.5561 88.684 58.189C88.8946 57.4921 88.9673 56.7095 89.3381 56.1132C90.7338 53.866 92.9493 53.6852 95.2935 53.9387C95.2935 54.6188 95.3382 55.3045 95.2823 55.9809C95.2133 56.8232 95.5804 57.0468 96.3668 57.0263C98.0681 56.9816 99.7731 56.9983 101.474 57.0263C101.771 57.03 102.063 57.2033 102.358 57.2965C99.5699 57.3151 96.7842 57.3375 93.9966 57.3505C92.3791 57.3598 91.9655 57.7623 91.9655 59.3835C91.9655 77.108 91.9655 94.8325 91.9655 112.557C91.9655 114.074 92.2822 114.433 93.8046 114.685C93.7431 115.794 93.6798 116.904 93.6183 118.013L93.6202 118.011Z" fill="#FD874E"/>
<path d="M47.6598 104.87H52.5028V96.0154C50.7903 96.0154 49.1319 96.0154 47.4735 96.0154C47.4735 94.9253 47.4735 93.8352 47.4735 92.7451C50.699 92.7451 53.9246 92.7451 57.1501 92.7451C57.1501 93.8501 57.1501 94.957 57.1501 96.0619C56.2948 95.9874 55.9892 96.334 56.0153 97.2284C56.0805 99.3788 56.0805 101.535 56.0153 103.685C55.9892 104.579 56.2892 104.928 57.1501 104.844C56.9637 106.016 56.66 107.209 57.7072 108.176C54.4202 108.176 51.1332 108.176 47.8443 108.176C47.7828 107.075 47.7195 105.973 47.658 104.872L47.6598 104.87Z" fill="#FD874E"/>
<path d="M77.4293 96.0162C76.5982 96.0385 75.7616 96.0236 74.9361 96.1056C74.6994 96.1298 74.4628 96.4075 74.2802 96.6162C74.2038 96.7037 74.2653 96.9143 74.2653 97.069C74.2653 99.5995 74.2653 102.13 74.2653 104.873C75.2994 104.873 76.2721 104.873 77.2448 104.873C77.3063 105.974 77.3697 107.075 77.4311 108.177C74.392 108.177 71.3528 108.177 68.3136 108.177C68.3136 107.066 68.3136 105.955 68.3136 104.847H70.6894V96.0627H68.4999C68.4999 94.9577 68.4999 93.8528 68.4999 92.7459C71.4776 92.7459 74.4535 92.7441 77.4311 92.7422C77.4311 93.8341 77.4311 94.9261 77.4311 96.018L77.4293 96.0162Z" fill="#FD874E"/>
<path d="M77.4311 108.174C77.3696 107.073 77.3062 105.971 77.2448 104.87C78.4224 104.883 79.6019 104.896 80.7796 104.911C80.9585 104.961 81.1392 105.012 81.3181 105.06C84.0275 105.476 86.284 108.109 86.3977 111.083C86.4629 112.782 86.435 114.485 86.4145 116.186C86.3996 117.353 85.7194 118.039 84.5753 118.042C82.3802 118.05 80.1852 118.022 77.9882 118.007C77.9882 116.9 77.9882 115.793 77.9882 114.688C79.3168 114.677 80.6492 114.614 81.974 114.672C82.8181 114.709 83.0734 114.399 83.0026 113.602C82.9467 112.957 82.9989 112.303 82.9877 111.655C82.9542 109.583 81.6461 108.267 79.5609 108.206C78.851 108.185 78.1392 108.183 77.4292 108.172L77.4311 108.174Z" fill="#FD874E"/>
<path d="M47.6599 104.871C47.7214 105.972 47.7848 107.073 47.8463 108.175C47.5686 108.188 47.2891 108.188 47.0133 108.216C45.5021 108.378 44.1847 109.27 44.017 110.554C43.8437 111.875 43.9779 113.236 43.9779 114.698H47.4736C47.4736 115.803 47.4736 116.907 47.4736 118.011C45.6829 118.023 43.8922 118.056 42.1014 118.038C41.1437 118.028 40.4486 117.363 40.4337 116.413C40.4039 114.497 40.32 112.572 40.4691 110.668C40.7468 107.137 44.0114 104.571 47.6581 104.873L47.6599 104.871Z" fill="#FD874E"/>
<path d="M56.9638 0.660156C61.7396 0.660156 66.5136 0.660156 71.2895 0.660156C71.2895 1.76701 71.2895 2.87386 71.2895 3.98071C66.5136 3.98071 61.7378 3.97885 56.9619 3.97698C56.9619 2.872 56.9619 1.76514 56.9619 0.660156H56.9638Z" fill="#FD874E"/>
<path d="M22.5394 96.0217C22.5394 94.9279 22.5394 93.836 22.5413 92.7422C27.2557 92.7422 31.9682 92.7422 36.6825 92.7441C36.6825 93.836 36.6825 94.9261 36.6825 96.018C35.0502 96.0404 33.4179 96.0832 31.7856 96.0814C28.7035 96.0758 25.6215 96.0422 22.5394 96.0217Z" fill="#FD874E"/>
<path d="M32.5886 0.662109C36.8055 0.662109 41.0242 0.662109 45.241 0.662109C45.241 1.76896 45.241 2.87395 45.241 3.9808C41.0242 3.9808 36.8055 3.97894 32.5886 3.97707C32.5886 2.87209 32.5886 1.76896 32.5886 0.663973V0.662109Z" fill="#FD874E"/>
<path d="M83.3867 0.65918C87.4806 0.65918 91.5744 0.65918 95.6664 0.65918C95.7279 1.76976 95.7913 2.87847 95.8528 3.98905C94.6229 3.99837 93.3931 4.00769 92.1633 4.01887C89.7968 4.04123 87.4303 4.06731 85.0638 4.09154C84.5662 4.05613 84.0706 4.02073 83.5731 3.98719C83.5116 2.87847 83.4482 1.76976 83.3867 0.661043V0.65918Z" fill="#FD874E"/>
<path d="M83.3866 0.65918C83.4481 1.76789 83.5115 2.87661 83.573 3.98532C79.4791 3.98532 75.3852 3.9816 71.2914 3.9816C71.2914 2.87475 71.2914 1.76789 71.2914 0.661043C75.3238 0.661043 79.3543 0.661043 83.3866 0.661043V0.65918Z" fill="#FD874E"/>
<path d="M68.8726 118.009C64.9651 118.009 61.0575 118.009 57.15 118.009C57.15 116.904 57.15 115.799 57.15 114.694C61.119 114.694 65.0899 114.694 69.0589 114.694C68.9974 115.799 68.9341 116.904 68.8726 118.011V118.009Z" fill="#FD874E"/>
<path d="M45.2411 3.97885C45.2411 2.872 45.2411 1.76701 45.2411 0.660156C49.1486 0.660156 53.0561 0.660156 56.9655 0.660156C56.9655 1.76514 56.9655 2.872 56.9655 3.97698C56.5984 3.98816 56.2313 4.00494 55.8643 4.01053C53.6915 4.03661 51.5188 4.05897 49.3461 4.0832C47.9784 4.04779 46.6107 4.01425 45.243 3.97885H45.2411Z" fill="#FD874E"/>
<path d="M36.6826 96.0171C36.6826 94.9252 36.6826 93.8351 36.6826 92.7432C40.279 92.7432 43.8753 92.7432 47.4735 92.7432C47.4735 93.8332 47.4735 94.9233 47.4735 96.0134C43.8772 96.0134 40.279 96.0134 36.6826 96.0134V96.0171Z" fill="#FD874E"/>
<path d="M32.5887 0.662906C32.5887 1.76789 32.5887 2.87102 32.5887 3.97601C32.2216 3.98719 31.8526 4.00396 31.4855 4.00769C29.2476 4.03377 27.0097 4.05613 24.7699 4.07849C23.7786 4.04309 22.7854 4.00955 21.7941 3.97414C21.7941 2.86916 21.7941 1.76417 21.7959 0.65918C25.3923 0.65918 28.9905 0.65918 32.5868 0.65918L32.5887 0.662906Z" fill="#FD874E"/>
<path d="M93.6204 118.012C93.6819 116.903 93.7452 115.792 93.8067 114.684C97.3415 114.684 100.878 114.684 104.413 114.684C104.288 115.792 104.165 116.903 104.04 118.012C100.567 118.012 97.0937 118.012 93.6204 118.012Z" fill="#FD874E"/>
<path d="M57.1501 114.694C57.1501 115.799 57.1501 116.904 57.1501 118.009C53.9246 118.009 50.699 118.009 47.4735 118.009C47.4735 116.904 47.4735 115.801 47.4735 114.696C50.699 114.696 53.9246 114.696 57.1501 114.694Z" fill="#FD874E"/>
<path d="M95.8525 3.98905C95.791 2.87847 95.7276 1.76976 95.6661 0.65918C98.7053 0.65918 101.745 0.65918 104.784 0.65918C104.845 1.76789 104.909 2.87847 104.97 3.98719C101.931 3.98719 98.8917 3.98719 95.8525 3.98719V3.98905Z" fill="#FD874E"/>
<path d="M68.8727 118.009C68.9342 116.904 68.9975 115.799 69.059 114.692C72.0367 114.692 75.0125 114.69 77.9902 114.688C77.9902 115.795 77.9902 116.902 77.9902 118.007C74.951 118.007 71.9119 118.007 68.8727 118.007V118.009Z" fill="#FD874E"/>
<path d="M77.4293 96.015C77.4293 94.9231 77.4293 93.8311 77.4293 92.7392C79.9095 92.7392 82.3915 92.7392 84.8717 92.7373C84.8717 93.8311 84.8717 94.9249 84.8736 96.0169C82.3916 96.0169 79.9095 96.0169 77.4275 96.015H77.4293Z" fill="#FD874E"/>
<path d="M88.4234 96.0811C88.5426 96.2935 88.7644 96.5078 88.7644 96.7202C88.783 102.251 88.7811 107.783 88.7737 113.316C88.7737 113.457 88.6842 113.599 88.6358 113.74C88.5855 113.384 88.4905 113.03 88.4886 112.675C88.4793 107.545 88.483 102.413 88.4793 97.2829C88.4793 96.8823 88.442 96.4817 88.4215 96.0811H88.4234Z" fill="#FD874E"/>
<path d="M81.3201 105.062C81.1412 105.012 80.9605 104.962 80.7816 104.913C80.9605 104.963 81.1412 105.014 81.3201 105.062Z" fill="#FD874E"/>
<path d="M95.8525 3.98819C98.8916 3.98819 101.931 3.98819 104.97 3.98819C109.246 3.99937 113.523 4.01242 117.801 4.01987C120.868 4.02546 122.437 5.57952 122.439 8.63361C122.441 23.3264 122.432 38.0174 122.46 52.7102C122.46 53.6176 122.195 53.9046 121.304 53.8468C120.198 53.776 119.081 53.8301 117.814 53.8301C117.814 53.3754 117.814 52.9878 117.814 52.6021C117.814 38.6546 117.805 24.7053 117.827 10.7579C117.829 9.32866 117.397 8.72119 115.847 8.66902C112.288 8.54976 108.723 8.6597 105.158 8.67647C102.242 8.67647 99.3277 8.67647 96.4133 8.67647C93.1878 8.67834 89.9623 8.6802 86.7368 8.68206C86.1163 8.64479 85.4958 8.60753 84.8752 8.5684C84.9386 7.07582 85.002 5.58139 85.0653 4.08881C87.4318 4.06459 89.7983 4.04037 92.1648 4.01614C93.3946 4.00496 94.6245 3.99565 95.8543 3.98633L95.8525 3.98819Z" fill="#FFC290"/>
<path d="M104.413 114.682C100.878 114.682 97.3414 114.682 93.8066 114.682C92.2842 114.431 91.9674 114.071 91.9674 112.554C91.9674 94.8298 91.9674 77.1053 91.9674 59.3808C91.9674 57.7596 92.3811 57.3553 93.9985 57.3478C96.7861 57.3329 99.5719 57.3124 102.36 57.2938C103.293 57.2938 104.227 57.2919 105.16 57.29C105.531 57.3087 105.9 57.3441 106.271 57.3441C112.53 57.3478 118.791 57.3441 125.05 57.3478C126.636 57.3478 126.956 57.6664 126.958 59.2391C126.958 77.0587 126.958 94.8764 126.958 112.696C126.958 114.231 126.535 114.647 124.957 114.649C118.48 114.654 112.003 114.649 105.527 114.653C105.156 114.653 104.786 114.673 104.413 114.682ZM103.666 58.3894C100.971 58.3727 98.2787 58.3484 95.5842 58.3391C93.5606 58.3317 93.0612 58.8367 93.0612 60.8622C93.0612 76.5388 93.0612 92.2155 93.0612 107.892C93.0612 108.14 93.0482 108.39 93.0687 108.636C93.1562 109.7 93.7805 110.382 94.8445 110.393C97.3526 110.419 99.8607 110.382 102.371 110.369C102.648 110.38 102.928 110.402 103.205 110.402C110.022 110.404 116.838 110.406 123.654 110.404C125.266 110.404 125.956 109.711 125.956 108.079C125.957 92.2789 125.957 76.4773 125.956 60.6777C125.956 59.0342 125.242 58.3429 123.561 58.3429C117.675 58.3429 111.788 58.3429 105.902 58.3447C105.594 58.3447 105.285 58.3783 104.978 58.395C104.542 58.3932 104.106 58.3913 103.669 58.3894H103.666Z" fill="#FFC290"/>
<path d="M105.16 57.2916C104.227 57.2916 103.293 57.2935 102.36 57.2953C102.065 57.2003 101.773 57.0289 101.476 57.0251C99.7731 56.999 98.07 56.9804 96.3687 57.0251C95.5805 57.0456 95.2134 56.8202 95.2842 55.9798C95.3401 55.3034 95.2954 54.6176 95.2954 53.9375C98.5228 53.9375 101.748 53.9375 104.976 53.9375C105.039 55.0555 105.101 56.1736 105.164 57.2916H105.16Z" fill="#FD874E"/>
<path d="M96.4116 8.67667C99.3259 8.67667 102.242 8.67667 105.156 8.67667C105.156 9.78166 105.155 10.8866 105.153 11.9916C102.238 11.9916 99.3222 11.9916 96.4078 11.9916C96.4078 10.8866 96.4078 9.78166 96.4097 8.6748L96.4116 8.67667Z" fill="#FD874E"/>
<path d="M21.7941 3.97559C22.7854 4.01099 23.7786 4.04453 24.7699 4.07807C24.7084 5.53338 24.6488 6.99055 24.5873 8.44771C20.132 8.44958 15.6747 8.44771 11.2194 8.46821C10.8896 8.46821 10.5597 8.64896 10.2299 8.74586C9.31499 9.11294 8.96095 9.7819 8.96281 10.7714C8.97772 35.8265 8.97213 60.8815 8.97586 85.9385C8.97586 87.4292 9.49388 87.9547 10.992 87.9584C14.7132 87.9659 18.4344 87.9584 22.1556 87.9547C22.9662 88.0125 23.7767 88.0702 24.5873 88.128C24.5873 89.5423 24.5873 90.9566 24.5873 92.3709C19.2972 92.3709 14.007 92.3691 8.71498 92.3802C8.36094 92.3802 8.00876 92.4902 7.65472 92.5479C5.80624 92.2107 4.47951 90.7218 4.4646 88.8901C4.44038 85.9758 4.45342 83.0614 4.45342 80.149C4.45342 56.2175 4.46274 32.2842 4.43665 8.35268C4.43479 6.45389 5.182 5.11039 6.87955 4.3818C7.56155 4.08925 8.38517 4.03335 9.14543 4.0259C13.3604 3.98304 17.5754 3.98863 21.7922 3.97745L21.7941 3.97559Z" fill="#FFC290"/>
<path d="M7.65674 92.5463C8.01078 92.4885 8.36296 92.3786 8.71701 92.3786C14.0072 92.3674 19.2973 92.3693 24.5893 92.3693C36.6212 92.3693 48.655 92.3693 60.6869 92.3693C69.933 92.3693 79.1772 92.3693 88.4234 92.3711C88.1867 92.4867 87.9519 92.6898 87.7097 92.7009C86.7668 92.7457 85.8202 92.7308 84.8736 92.7382C82.3934 92.7382 79.9114 92.7382 77.4312 92.7401C74.4536 92.7401 71.4777 92.7419 68.5 92.7438C64.7174 92.7438 60.9328 92.7438 57.1501 92.7438C53.9246 92.7438 50.6991 92.7438 47.4736 92.7438C43.8772 92.7438 40.2809 92.7438 36.6827 92.7438C31.9683 92.7438 27.2558 92.7438 22.5415 92.7419C17.9333 92.7363 13.3252 92.7326 8.71887 92.7159C8.36483 92.7159 8.01078 92.6059 7.65674 92.5463Z" fill="#FFC290"/>
<path d="M88.4216 92.3705C79.1754 92.3705 69.9312 92.3705 60.6851 92.3687C60.6851 90.9562 60.6851 89.5438 60.6851 88.1295C61.2049 88.1108 61.7248 88.081 62.2466 88.0736C64.3932 88.0456 66.5398 88.0232 68.6864 87.999C71.789 87.999 74.8897 87.999 77.9922 88.0009C80.5972 88.0046 83.2022 88.0065 85.8054 88.0102C86.4203 88.0326 87.0371 88.0941 87.6501 88.0661C88.2445 88.04 88.4793 88.2319 88.4551 88.8525C88.4104 90.0227 88.429 91.1966 88.4216 92.3687V92.3705Z" fill="#FFC290"/>
<path d="M85.8051 88.0126C83.2001 88.0089 80.5951 88.0071 77.9919 88.0033C77.9919 86.8853 77.9919 85.7654 77.9919 84.6474C80.597 84.6474 83.202 84.6474 85.807 84.6455C85.807 85.7673 85.807 86.8909 85.807 88.0126H85.8051Z" fill="#FD874E"/>
<path d="M88.4437 84.5609C88.4493 76.1458 88.4512 67.7308 88.468 59.3157C88.468 58.9393 88.6096 58.5629 88.6841 58.1865C88.7158 58.5536 88.7754 58.9207 88.7754 59.2897C88.781 67.3693 88.7829 75.4508 88.7661 83.5304C88.7661 83.8752 88.5555 84.218 88.4437 84.5609Z" fill="#FD874E"/>
<path d="M77.9903 114.691C75.0126 114.691 72.0368 114.693 69.0591 114.695C65.09 114.695 61.1192 114.695 57.1502 114.695C53.9246 114.695 50.6991 114.695 47.4736 114.697C46.3369 114.697 45.2003 114.697 43.9779 114.697C43.9779 113.234 43.8437 111.874 44.017 110.552C44.1847 109.269 45.5021 108.378 47.0133 108.214C47.2891 108.184 47.5686 108.186 47.8463 108.173C51.1333 108.173 54.4203 108.173 57.7092 108.173C61.244 108.173 64.7807 108.173 68.3156 108.173C71.3548 108.173 74.3939 108.173 77.4331 108.173C78.1431 108.184 78.8549 108.186 79.5648 108.206C81.65 108.268 82.9581 109.583 82.9916 111.656C83.0028 112.304 82.9506 112.958 83.0065 113.603C83.0773 114.398 82.822 114.708 81.9779 114.672C80.6512 114.615 79.3207 114.678 77.9921 114.689L77.9903 114.691Z" fill="#FFC290"/>
<path d="M68.4999 96.0607H70.6893V104.845C69.8955 104.845 69.1036 104.845 68.3135 104.845C64.5923 104.845 60.8712 104.845 57.15 104.845C56.2909 104.927 55.9891 104.578 56.0152 103.686C56.0804 101.535 56.0804 99.3794 56.0152 97.229C55.9872 96.3346 56.2928 95.988 57.15 96.0625C60.9326 96.0625 64.7172 96.0625 68.4999 96.0625V96.0607Z" fill="#FFC290"/>
<path d="M68.4999 96.06C64.7172 96.06 60.9327 96.06 57.15 96.06C57.15 94.955 57.15 93.8482 57.15 92.7432C60.9327 92.7432 64.7172 92.7432 68.4999 92.7432C68.4999 93.8482 68.4999 94.9531 68.4999 96.06Z" fill="#FD874E"/>
<path d="M57.1499 104.843C60.8711 104.843 64.5923 104.843 68.3135 104.843C68.3135 105.953 68.3135 107.064 68.3135 108.173C64.7786 108.173 61.2419 108.173 57.7071 108.173C56.6599 107.207 56.9636 106.015 57.1499 104.841V104.843Z" fill="#FD874E"/>
<path d="M85.0635 4.09121C85.0001 5.58378 84.9368 7.07821 84.8734 8.57079C84.538 8.59128 84.2045 8.62296 83.8691 8.62669C82.0336 8.65091 80.1982 8.66768 78.3609 8.68818C74.9509 8.68818 71.539 8.69004 68.129 8.69191C67.011 8.66768 65.8948 8.64346 64.7768 8.61924C64.4544 8.56333 64.1302 8.46271 63.8078 8.46085C61.1544 8.44594 58.5009 8.4478 55.8475 8.44594C55.8475 7.55151 55.8512 6.65709 55.8475 5.76266C55.8419 4.66886 55.5214 4.35767 54.3996 4.35394C52.9797 4.35022 51.5617 4.36699 50.1418 4.3409C49.8753 4.33531 49.6107 4.17319 49.3442 4.08375C51.5169 4.05953 53.6897 4.03717 55.8624 4.01108C56.2295 4.00735 56.5965 3.99058 56.9636 3.97754C61.7395 3.97754 66.5154 3.9794 71.2912 3.98127C75.3851 3.98127 79.4789 3.98499 83.5728 3.98499C84.0703 4.0204 84.5678 4.0558 85.0635 4.08934V4.09121Z" fill="#FFC290"/>
<path d="M49.3443 4.08366C49.6108 4.1731 49.8735 4.33522 50.1419 4.34081C51.5599 4.3669 52.9798 4.35013 54.3997 4.35385C55.5214 4.35758 55.8401 4.66877 55.8475 5.76257C55.8531 6.657 55.8475 7.55143 55.8475 8.44585C45.4275 8.44585 35.0074 8.44585 24.5892 8.44771C24.6507 6.99055 24.7104 5.53524 24.7718 4.07807C27.0098 4.05571 29.2477 4.03335 31.4875 4.00726C31.8546 4.00354 32.2235 3.98677 32.5906 3.97559C36.8075 3.97559 41.0262 3.97745 45.243 3.97931C46.6107 4.01472 47.9785 4.04826 49.3462 4.08366H49.3443Z" fill="#FFC290"/>
<path d="M22.154 87.9531C18.4328 87.9549 14.7116 87.9661 10.9904 87.9568C9.49411 87.9531 8.97423 87.4276 8.97423 85.9369C8.97236 60.8818 8.97423 35.8267 8.96118 10.7697C8.96118 9.78027 9.31336 9.11132 10.2283 8.74609C10.5656 8.76286 10.9047 8.79454 11.242 8.79641C14.9464 8.80386 18.6489 8.80572 22.3533 8.80759C22.3533 9.86972 22.3533 10.93 22.3533 11.9921C19.3458 12.0052 16.3402 12.0462 13.3346 12.0163C12.5575 12.0089 12.3488 12.2381 12.3488 13.0077C12.3675 36.5422 12.3637 60.0768 12.3656 83.6095C12.3656 83.8834 12.3879 84.1555 12.4084 84.64C15.6861 84.64 18.9247 84.64 22.1633 84.64C22.1595 85.745 22.1558 86.8481 22.1521 87.9531H22.154Z" fill="#FD874E"/>
<path d="M39.7609 17.9521C40.7131 18.2073 41.6411 18.4179 42.5374 18.7254C42.7144 18.7869 42.9063 19.2583 42.8486 19.48C41.7864 23.6074 40.6964 27.7292 39.5914 31.8455C38.5013 35.9058 37.3889 39.9605 36.2857 44.0171C35.9708 45.1743 35.654 46.3314 35.3168 47.5706C34.2956 47.3153 33.3397 47.101 32.408 46.8141C32.2701 46.7712 32.1211 46.3575 32.1714 46.1675C33.39 41.5649 34.6422 36.9716 35.8758 32.3709C36.964 28.3106 38.0336 24.2466 39.1162 20.1863C39.3063 19.4744 39.5243 18.7701 39.7628 17.9502L39.7609 17.9521Z" fill="#FD874E"/>
<path d="M52.4691 32.1842C49.4355 29.2885 46.6907 26.6686 43.6907 23.8045C44.5534 23.0834 45.2652 22.5803 45.8597 21.9635C46.3497 21.4548 46.6143 21.684 46.9851 22.0567C49.5175 24.6021 52.0629 27.1325 54.5971 29.6723C55.076 30.1531 55.5623 30.632 55.9909 31.1575C56.6244 31.9326 56.3766 32.7227 55.7766 33.3376C52.6983 36.4867 49.5827 39.5986 46.4168 42.7906C45.5746 41.9316 44.8292 41.1713 43.9646 40.2899C46.7466 37.6383 49.4877 35.024 52.4672 32.1842H52.4691Z" fill="#FD874E"/>
<path d="M31.1876 23.9039C28.3422 26.712 25.6347 29.3823 22.8601 32.1214C25.6589 34.8532 28.3907 37.5197 31.2398 40.2998C30.2783 41.1495 29.4658 41.8669 28.4484 42.7651C27.1105 41.362 25.7037 39.8601 24.267 38.388C22.7148 36.7985 21.1384 35.2314 19.5619 33.6662C18.4365 32.5519 18.416 31.8009 19.5359 30.6773C22.3999 27.8096 25.2844 24.9604 28.1223 22.0685C28.6124 21.5691 28.8528 21.6101 29.2851 22.0927C29.8348 22.7057 30.4777 23.2368 31.1895 23.9039H31.1876Z" fill="#FD874E"/>
<path d="M88.2239 15.9386C91.224 15.9218 94.2221 15.8995 97.2222 15.8902C99.6353 15.8827 102.048 15.9032 104.461 15.8771C105.037 15.8715 105.332 16.0057 105.291 16.643C105.252 17.2598 105.261 17.8803 105.289 18.4989C105.315 19.0784 105.101 19.3728 104.493 19.3486C103.539 19.3113 102.583 19.2946 101.627 19.2685C101.316 19.1977 101.007 19.0635 100.696 19.0635C96.5383 19.0467 92.3793 19.0486 88.222 19.0449C88.222 18.0107 88.2239 16.9747 88.2258 15.9405L88.2239 15.9386Z" fill="#FD874E"/>
<path d="M89.1537 49.6782C88.8462 49.695 88.5369 49.7248 88.2295 49.7248C79.343 49.7266 70.4546 49.7155 61.5681 49.7434C60.7408 49.7453 60.4426 49.5664 60.4613 48.6813C60.5116 46.2235 60.4706 46.2235 62.9452 46.2235C66.5676 46.2235 70.1919 46.2216 73.8143 46.2235C74.1534 46.2235 74.4907 46.2608 74.8298 46.2812C74.7106 46.4098 74.5895 46.6502 74.4702 46.6483C73.1863 46.6483 73.3689 47.5316 73.3149 48.3757C73.2609 49.2273 73.5739 49.4061 74.3715 49.3987C78.3069 49.3596 82.2405 49.3819 86.176 49.3819C86.8804 49.3819 87.5866 49.3558 88.2891 49.3968C88.5816 49.4136 88.8649 49.5794 89.1537 49.6782Z" fill="#FD874E"/>
<path d="M69.2454 75.293H84.6407C84.6407 76.2862 84.6798 77.2663 84.6015 78.239C84.5885 78.3992 84.05 78.6303 83.7537 78.634C80.5598 78.662 77.366 78.6564 74.1722 78.6489C72.5305 78.6452 70.8889 78.6154 69.2472 78.5967C69.2472 77.4955 69.2472 76.3961 69.2472 75.2948L69.2454 75.293Z" fill="#FD874E"/>
<path d="M60.5023 38.9603C60.6682 38.8448 60.8359 38.6286 61.0017 38.6268C68.7534 38.6118 76.5051 38.6174 84.2568 38.623C84.3444 38.623 84.4319 38.6659 84.5847 38.705V42.0368C84.3499 42.0628 84.1412 42.1076 83.9344 42.1076C78.9424 42.1113 73.9504 42.1094 68.9584 42.1076C68.8056 42.1076 68.6509 42.0759 68.4981 42.0591C69.005 41.9566 69.5081 41.7777 70.0168 41.7684C71.8597 41.733 71.8131 41.7535 71.8708 39.9703C71.8988 39.1243 71.6174 38.9361 70.818 38.9454C67.3801 38.9864 63.9421 38.9622 60.5023 38.9622V38.9603Z" fill="#FD874E"/>
<path d="M70.7343 23.5335C75.1654 23.5167 79.5965 23.5018 84.0295 23.4776C84.527 23.4739 84.6351 23.7049 84.6575 24.1633C84.7861 26.8913 84.7954 26.8988 82.0767 26.8894C78.2959 26.8764 74.5169 26.8503 70.7361 26.8298C70.7361 25.7323 70.7361 24.6329 70.7361 23.5335H70.7343Z" fill="#FD874E"/>
<path d="M82.0821 34.427C77.8671 34.4307 73.6521 34.4363 69.4372 34.44C69.2471 33.8624 68.9881 33.294 68.8875 32.7015C68.798 32.1723 68.8819 31.6114 68.8875 31.0654C73.2236 31.0785 77.5597 31.0915 81.8958 31.1064C81.9573 32.2133 82.0187 33.322 82.0802 34.4288L82.0821 34.427Z" fill="#FD874E"/>
<path d="M42.4499 78.5966C37.9219 78.5966 33.3938 78.5966 28.8677 78.5984C28.8677 77.4953 28.8677 76.3922 28.8677 75.2891C33.3957 75.2891 37.9237 75.2891 42.4518 75.2909C42.4518 76.3922 42.4518 77.4953 42.4518 78.5966H42.4499Z" fill="#FD874E"/>
<path d="M69.2453 75.293C69.2453 76.3942 69.2453 77.4936 69.2453 78.5949C64.7787 78.5949 60.3141 78.5949 55.8475 78.5949C55.8475 77.4955 55.8475 76.3942 55.8475 75.2948C60.3122 75.2948 64.7787 75.2948 69.2434 75.2948L69.2453 75.293Z" fill="#FD874E"/>
<path d="M55.8474 75.2929C55.8474 76.3923 55.8474 77.4935 55.8474 78.5929C51.3828 78.5929 46.9162 78.5948 42.4515 78.5967C42.4515 77.4954 42.4515 76.3923 42.4515 75.291C46.9181 75.291 51.3827 75.291 55.8493 75.291L55.8474 75.2929Z" fill="#FD874E"/>
<path d="M43.9479 84.6396C48.0995 84.6415 52.2511 84.6452 56.4027 84.6471C56.4027 85.7651 56.4027 86.885 56.4046 88.0031C52.2511 88.0068 48.0957 88.0105 43.9423 88.0142C43.9423 86.8888 43.946 85.7633 43.946 84.6396H43.9479Z" fill="#FD874E"/>
<path d="M56.4065 88.0034C56.4065 86.8854 56.4065 85.7655 56.4047 84.6475C60.4985 84.6475 64.5924 84.6475 68.6862 84.6475C68.6862 85.7655 68.6862 86.8817 68.6862 87.9997C66.5396 88.0239 64.393 88.0444 62.2464 88.0742C61.7265 88.0817 61.2066 88.1096 60.6849 88.1283C59.2594 88.0873 57.832 88.0444 56.4065 88.0034Z" fill="#FD874E"/>
<path d="M93.0668 31.0876C95.724 31.0633 98.3812 31.0335 101.037 31.0149C102.389 31.0056 103.744 31.0149 105.224 31.0149C105.224 32.0938 105.248 33.0739 105.197 34.0503C105.19 34.2031 104.845 34.4659 104.655 34.4659C100.852 34.4715 97.0489 34.4472 93.2476 34.4286C93.1861 33.3162 93.1264 32.2019 93.0649 31.0894L93.0668 31.0876Z" fill="#FD874E"/>
<path d="M22.355 11.9921C22.355 10.93 22.355 9.86975 22.355 8.80762C26.8197 8.80762 31.2862 8.80762 35.7509 8.80762C35.7509 9.86788 35.7509 10.9282 35.7509 11.9884C31.2862 11.9884 26.8197 11.9884 22.355 11.9903V11.9921Z" fill="#FD874E"/>
<path d="M56.224 67.7148C60.3775 67.7148 64.531 67.7148 68.6845 67.7148C68.6845 68.8048 68.6845 69.8949 68.6845 70.985C64.5291 70.985 60.3719 70.985 56.2166 70.985C56.2184 69.8949 56.2203 68.803 56.2221 67.7129L56.224 67.7148Z" fill="#FD874E"/>
<path d="M22.165 87.9477C22.1688 86.8427 22.1725 85.7396 22.1762 84.6346C26.0837 84.6346 29.9894 84.6327 33.8969 84.6309C33.8969 85.7582 33.8969 86.8856 33.8988 88.0129C33.4702 88.0315 33.0416 88.0632 32.613 88.0669C29.9409 88.0893 27.2689 88.1042 24.5968 88.121C23.7862 88.0632 22.9756 88.0055 22.165 87.9477Z" fill="#FD874E"/>
<path d="M86.1761 49.3809C82.2406 49.3809 78.3052 49.3586 74.3715 49.3977C73.574 49.4052 73.261 49.2244 73.315 48.3747C73.369 47.5325 73.1864 46.6455 74.4703 46.6474C74.5896 46.6474 74.7107 46.407 74.8299 46.2803C78.6126 46.2821 82.3934 46.284 86.1761 46.2859C86.1761 47.3163 86.1761 48.3486 86.1761 49.3791V49.3809Z" fill="#FD874E"/>
<path d="M93.067 31.0878C93.1285 32.2003 93.1881 33.3146 93.2496 34.427C89.5265 34.427 85.8053 34.427 82.0823 34.427C82.0208 33.3202 81.9593 32.2114 81.8978 31.1046C84.855 31.0729 87.8104 31.0357 90.7675 31.017C91.5353 31.0114 92.3011 31.0636 93.0688 31.0878H93.067Z" fill="#FD874E"/>
<path d="M64.7751 8.61914C65.8931 8.64336 67.0093 8.66759 68.1273 8.69181C68.1273 9.79121 68.1273 10.8906 68.1273 11.9919C64.1583 11.9919 60.1874 11.9919 56.2184 11.9919C56.2184 10.9297 56.2184 9.86761 56.2184 8.80548C58.7489 8.80175 61.2793 8.80362 63.8117 8.78498C64.134 8.78312 64.4546 8.67691 64.7769 8.61914H64.7751Z" fill="#FD874E"/>
<path d="M65.9024 15.9268C69.9311 15.9305 73.9597 15.9361 77.9883 15.9398C77.9883 16.974 77.9883 18.0082 77.9883 19.0405C74.2429 19.0423 70.4994 19.0274 66.754 19.0628C66.0403 19.0703 65.8297 18.8318 65.8782 18.1535C65.9322 17.4137 65.8968 16.6684 65.9024 15.9268Z" fill="#FD874E"/>
<path d="M25.5209 60.157C29.3651 60.157 33.2111 60.1533 37.0553 60.1533C37.0571 61.2341 37.0609 62.3167 37.0627 63.3975C33.2186 63.3975 29.3744 63.3975 25.5284 63.3975C25.5246 62.3167 25.5228 61.2378 25.519 60.1589L25.5209 60.157Z" fill="#FD874E"/>
<path d="M33.8876 88.0197C33.8876 86.8924 33.8876 85.765 33.8857 84.6377C37.2398 84.6377 40.5939 84.6396 43.948 84.6414C43.948 85.7669 43.9443 86.8924 43.9443 88.016C40.5921 88.016 37.2398 88.0179 33.8895 88.0197H33.8876Z" fill="#FD874E"/>
<path d="M29.2329 70.9943C25.9571 71.0055 22.6794 71.0093 19.4036 71.0372C18.8278 71.0428 18.6843 70.8155 18.6713 70.2695C18.6098 67.6514 18.5949 67.644 21.1738 67.6533C23.8608 67.6626 26.5497 67.6906 29.2367 67.7092C29.2367 68.8049 29.2329 69.8987 29.2329 70.9943Z" fill="#FD874E"/>
<path d="M60.5023 38.9605C63.9403 38.9605 67.3801 38.9847 70.818 38.9437C71.6174 38.9344 71.8988 39.1226 71.8708 39.9685C71.8131 41.7518 71.8597 41.7313 70.0168 41.7667C69.5081 41.776 69.005 41.9568 68.4981 42.0574C65.8782 42.0574 63.2564 42.0574 60.5023 42.0574V38.9605Z" fill="#FD874E"/>
<path d="M70.7342 23.5334C70.7342 24.6328 70.7342 25.7303 70.7342 26.8297C67.5124 26.8502 64.2887 26.8819 61.0669 26.8633C60.8731 26.8633 60.5377 26.4831 60.5135 26.2539C60.4408 25.5477 60.4408 24.8247 60.5135 24.1204C60.5377 23.8912 60.8694 23.511 61.0632 23.5092C64.2868 23.4887 67.5086 23.5166 70.7323 23.5334H70.7342Z" fill="#FD874E"/>
<path d="M68.1274 11.9904C68.1274 10.891 68.1274 9.78974 68.1274 8.69034C71.5374 8.69034 74.9492 8.69034 78.3592 8.68848C78.3592 9.78974 78.3592 10.891 78.3592 11.9904C74.9473 11.9904 71.5373 11.9904 68.1255 11.9904H68.1274Z" fill="#FD874E"/>
<path d="M28.8677 75.2891C28.8677 76.3922 28.8677 77.4953 28.8677 78.5984C25.6794 78.6133 22.4893 78.6376 19.301 78.6227C19.0961 78.6227 18.7271 78.3227 18.7159 78.1438C18.6563 77.2251 18.688 76.3009 18.688 75.2891H28.8695H28.8677Z" fill="#FD874E"/>
<path d="M86.1759 49.3803C86.1759 48.3499 86.1759 47.3176 86.1759 46.2871C89.4629 46.2871 92.7518 46.2871 96.0388 46.2871C96.0388 47.4163 96.0388 48.5437 96.0388 49.6729C93.745 49.6747 91.4493 49.6766 89.1555 49.6803C88.8666 49.5816 88.5834 49.4157 88.2908 49.399C87.5884 49.3561 86.8821 49.3841 86.1778 49.3841L86.1759 49.3803Z" fill="#FD874E"/>
<path d="M47.8462 70.9888C44.4959 70.9888 41.1474 70.9888 37.797 70.9888C37.7989 69.8969 37.8026 68.8068 37.8044 67.7148C41.1511 67.7148 44.4959 67.7148 47.8425 67.7167C47.8425 68.8068 47.8444 69.8987 47.8462 70.9888Z" fill="#FD874E"/>
<path d="M45.4236 60.1533C48.9603 60.1552 52.4952 60.157 56.0319 60.1608C56.0319 61.2359 56.0319 62.313 56.0319 63.3882C52.4933 63.39 48.9529 63.3937 45.4143 63.3956C45.418 62.3148 45.4199 61.2341 45.4236 60.1533Z" fill="#FD874E"/>
<path d="M56.2184 8.80371C56.2184 9.86584 56.2184 10.928 56.2184 11.9901C52.745 11.9901 49.2717 11.9901 45.7983 11.9901C45.7983 10.9298 45.7983 9.8677 45.7983 8.80744C49.2717 8.80744 52.745 8.80557 56.2184 8.80371Z" fill="#FD874E"/>
<path d="M56.0338 63.3875C56.0338 62.3124 56.0338 61.2353 56.0338 60.1602C59.5072 60.1602 62.9805 60.1602 66.4539 60.1602C66.4539 61.2372 66.4539 62.3124 66.4539 63.3894C62.9805 63.3894 59.5072 63.3894 56.0338 63.3894V63.3875Z" fill="#FD874E"/>
<path d="M65.9024 15.928C65.8986 16.6715 65.9322 17.4168 65.8781 18.1547C65.8297 18.833 66.0403 19.0697 66.7539 19.0641C70.4994 19.0287 74.2429 19.0454 77.9883 19.0436C81.4002 19.0436 84.8102 19.0436 88.222 19.0454C92.3792 19.0492 96.5383 19.0454 100.696 19.0641C101.007 19.0641 101.318 19.1982 101.627 19.269C101.323 19.3044 101.02 19.3697 100.718 19.3697C87.6481 19.3734 74.5764 19.3641 61.5066 19.3902C60.642 19.3902 60.3793 19.1386 60.3868 18.2908C60.4054 15.8758 60.3756 15.8702 62.7495 15.8777C63.8005 15.8814 64.8514 15.9112 65.9042 15.928H65.9024Z" fill="#FD874E"/>
<path d="M68.6863 88.0007C68.6863 86.8826 68.6863 85.7665 68.6863 84.6484C71.7888 84.6484 74.8914 84.6484 77.9939 84.6484C77.9939 85.7683 77.9939 86.8864 77.9939 88.0044C74.8914 88.0044 71.7907 88.0025 68.6881 88.0007H68.6863Z" fill="#FD874E"/>
<path d="M96.4116 8.67676C96.4116 9.78175 96.4116 10.8867 96.4097 11.9936C93.1842 11.9936 89.9586 11.9936 86.735 11.9936C86.735 10.8905 86.735 9.78734 86.735 8.68421C89.9605 8.68235 93.186 8.68048 96.4116 8.67862V8.67676Z" fill="#FD874E"/>
<path d="M96.037 49.6709C96.037 48.5417 96.037 47.4144 96.037 46.2852C99.0594 46.2852 102.082 46.2852 105.168 46.2852V49.6709H96.0352H96.037Z" fill="#FD874E"/>
<path d="M88.222 19.0448C84.8101 19.0448 81.4001 19.0448 77.9883 19.043C77.9883 18.0088 77.9883 16.9746 77.9883 15.9423C80.5132 15.9796 83.0399 16.028 85.5648 16.0448C86.4499 16.0504 87.3369 15.9777 88.2239 15.9404C88.2239 16.9746 88.222 18.0107 88.2201 19.0448H88.222Z" fill="#FD874E"/>
<path d="M45.7984 8.80762C45.7984 9.86788 45.7984 10.93 45.7984 11.9903C42.4499 11.9903 39.0995 11.9903 35.751 11.9903C35.751 10.93 35.751 9.86975 35.751 8.80948C39.0995 8.80948 42.448 8.80948 45.7984 8.80948V8.80762Z" fill="#FD874E"/>
<path d="M66.4539 63.3894C66.4539 62.3124 66.4539 61.2372 66.4539 60.1602C69.7409 60.1602 73.0279 60.1602 76.3168 60.1602C76.3168 61.2372 76.3168 62.3124 76.3168 63.3894C73.0297 63.3894 69.7409 63.3894 66.4539 63.3894Z" fill="#FD874E"/>
<path d="M68.8876 31.0657C68.8801 31.6117 68.7963 32.1726 68.8876 32.7018C68.9882 33.2962 69.2472 33.8627 69.4373 34.4403C66.6254 34.459 63.8117 34.4906 60.9999 34.4702C60.8005 34.4702 60.4539 34.0919 60.4315 33.8627C60.3589 33.1267 60.3607 32.3757 60.4353 31.6415C60.4595 31.4086 60.8061 31.0248 61.0073 31.0248C63.6328 31.0061 66.2602 31.0415 68.8857 31.0657H68.8876Z" fill="#FD874E"/>
<path d="M68.6844 70.987C68.6844 69.897 68.6844 68.8069 68.6844 67.7168C71.6621 67.7168 74.638 67.7168 77.6157 67.7168C77.6157 68.8069 77.6157 69.8988 77.6175 70.9889C74.6398 70.9889 71.6621 70.9889 68.6863 70.9889L68.6844 70.987Z" fill="#FD874E"/>
<path d="M37.8044 67.7126C37.8025 68.8046 37.7988 69.8946 37.7969 70.9866C34.9422 70.9885 32.0875 70.9903 29.2328 70.9922C29.2328 69.8965 29.2365 68.8027 29.2365 67.707C32.0912 67.707 34.9478 67.7108 37.8025 67.7126H37.8044Z" fill="#FD874E"/>
<path d="M86.735 8.68407C86.735 9.78719 86.735 10.8903 86.735 11.9934C83.9437 11.9934 81.1523 11.9934 78.361 11.9916C78.361 10.8903 78.361 9.78906 78.361 8.68966C80.1964 8.67102 82.0337 8.65239 83.8691 8.62817C84.2045 8.62444 84.54 8.5909 84.8735 8.57227C85.494 8.60953 86.1145 8.6468 86.735 8.68593V8.68407Z" fill="#FD874E"/>
<path d="M47.8463 70.9889C47.8463 69.8988 47.8444 68.8069 47.8425 67.7168C50.6357 67.7168 53.4308 67.7168 56.224 67.7168C56.2222 68.8087 56.2203 69.8988 56.2185 70.9908C53.4271 70.9908 50.6376 70.9908 47.8463 70.9908V70.9889Z" fill="#FD874E"/>
<path d="M45.4238 60.1532C45.42 61.234 45.4182 62.3148 45.4144 63.3955C42.6306 63.3955 39.8466 63.3955 37.0628 63.3955C37.0609 62.3148 37.0572 61.234 37.0553 60.1514C39.8448 60.1514 42.6343 60.1514 45.4238 60.1514V60.1532Z" fill="#FD874E"/>
<path d="M76.3168 63.3894C76.3168 62.3124 76.3168 61.2372 76.3168 60.1602C79.0615 60.1602 81.8082 60.1602 84.6424 60.1602C84.6424 61.1459 84.6815 62.0403 84.6107 62.9273C84.5958 63.1136 84.1765 63.4118 83.9399 63.4136C81.4001 63.4341 78.8584 63.4062 76.3186 63.3913L76.3168 63.3894Z" fill="#FD874E"/>
<path d="M25.5209 60.1567C25.5247 61.2356 25.5265 62.3164 25.5303 63.3953C23.4041 63.4288 21.2799 63.4736 19.1537 63.4792C18.9991 63.4792 18.837 63.2052 18.6916 63.0469C18.66 63.0133 18.6879 62.9276 18.6823 62.8661C18.4904 60.071 18.4904 60.0617 21.2668 60.0748C22.6849 60.0822 24.101 60.1288 25.5191 60.1586L25.5209 60.1567Z" fill="#FD874E"/>
<path d="M77.6175 70.9866C77.6175 69.8965 77.6175 68.8046 77.6156 67.7145C79.8442 67.7126 82.071 67.7108 84.2996 67.707C84.307 68.8008 84.3163 69.8946 84.3238 70.9885C82.0877 70.9885 79.8535 70.9885 77.6175 70.9866Z" fill="#FD874E"/>
<path d="M84.3237 70.9887C84.3162 69.8949 84.3069 68.8011 84.2994 67.7072C84.3293 67.7035 84.3758 67.6849 84.3889 67.6979C84.8305 68.1563 84.7802 70.5471 84.3237 70.9887Z" fill="#FD874E"/>
<path d="M104.974 58.3962C105.281 58.3794 105.591 58.3459 105.898 58.3459C111.784 58.3421 117.671 58.3421 123.557 58.344C125.24 58.344 125.952 59.0353 125.952 60.6788C125.954 76.4785 125.954 92.28 125.952 108.08C125.952 109.712 125.262 110.405 123.651 110.405C116.834 110.405 110.018 110.405 103.202 110.403C102.924 110.403 102.645 110.381 102.367 110.37C101.806 109.688 101.795 108.888 101.786 108.054C101.778 107.379 102.037 107.221 102.652 107.237C104.033 107.273 105.415 107.263 106.796 107.236C107.057 107.23 107.314 107.053 107.573 106.956C112.522 106.956 117.473 106.956 122.475 106.956V61.8472C122.054 61.8472 121.69 61.8472 121.325 61.8472C115.809 61.8341 110.296 61.8211 104.78 61.8062C104.843 60.6695 104.907 59.5347 104.97 58.398L104.974 58.3962Z" fill="#FD874E"/>
<path d="M107.575 106.954C107.316 107.052 107.059 107.23 106.798 107.233C105.417 107.261 104.035 107.271 102.654 107.235C102.037 107.22 101.778 107.377 101.787 108.051C101.797 108.884 101.808 109.685 102.369 110.367C99.8606 110.379 97.3506 110.418 94.8425 110.392C93.7785 110.38 93.1543 109.698 93.0667 108.635C93.0462 108.389 93.0593 108.139 93.0593 107.891C93.0593 92.2143 93.0593 76.5377 93.0593 60.861C93.0593 58.8355 93.5587 58.3305 95.5823 58.338C98.2767 58.3473 100.969 58.3715 103.664 58.3883C103.405 58.4852 103.146 58.6641 102.885 58.6678C101.254 58.6939 99.624 58.6622 97.9954 58.7013C97.7196 58.7088 97.2202 58.9603 97.2165 59.1076C97.1979 60.0299 96.7954 61.0529 97.7121 61.8057C97.3525 61.8393 96.9929 61.871 96.6351 61.9045V106.905C97.1028 106.905 97.5034 106.905 97.9022 106.905C101.126 106.92 104.35 106.937 107.573 106.954H107.575Z" fill="#FD874E"/>
<path d="M97.7142 61.8071C96.7993 61.0524 97.1999 60.0313 97.2185 59.1089C97.2223 58.9617 97.7217 58.7101 97.9974 58.7027C99.626 58.6636 101.258 58.6952 102.887 58.6692C103.148 58.6654 103.405 58.4865 103.666 58.3896C104.102 58.3915 104.538 58.3934 104.974 58.3952C104.911 59.5319 104.847 60.6667 104.784 61.8034C102.427 61.8034 100.071 61.8052 97.7142 61.8071Z" fill="#FD874E"/>
<path d="M33.8876 88.0198C37.2398 88.0198 40.5921 88.0179 43.9424 88.0161C48.0959 88.0123 52.2513 88.0086 56.4048 88.0049C57.8303 88.0459 59.2576 88.0869 60.6831 88.1297C60.6831 89.5422 60.6831 90.9565 60.6831 92.3689C48.6512 92.3689 36.6175 92.3689 24.5856 92.3689C24.5856 90.9546 24.5856 89.5403 24.5856 88.126C27.2577 88.1092 29.9298 88.0943 32.6019 88.072C33.0304 88.0682 33.459 88.0366 33.8876 88.0179V88.0198Z" fill="#FFC290"/>
<path d="M45.7982 8.80779C42.4497 8.80779 39.1012 8.80779 35.7508 8.80779C31.2861 8.80779 26.8196 8.80779 22.3549 8.80779C18.6505 8.80406 14.948 8.8022 11.2435 8.79661C10.9063 8.79661 10.5671 8.76493 10.2299 8.74629C10.5597 8.6494 10.8895 8.47051 11.2193 8.46865C15.6747 8.44815 20.1319 8.45188 24.5873 8.44815C35.0073 8.44815 45.4274 8.44815 55.8456 8.44629C58.499 8.44815 61.1525 8.44629 63.8059 8.4612C64.1302 8.46306 64.4525 8.56368 64.7749 8.61958C64.4525 8.67735 64.132 8.7817 63.8097 8.78543C61.2792 8.80406 58.7487 8.8022 56.2164 8.80592C52.743 8.80592 49.2697 8.80592 45.7963 8.80779H45.7982Z" fill="#FFC290"/>
<path d="M103.673 74.0338C107.927 74.0152 112.181 73.9947 116.436 73.9854C117.14 73.9854 117.846 74.0375 118.551 74.0673C118.711 74.1363 118.871 74.2052 119.031 74.276C119.849 74.4996 120.013 75.1611 120.015 75.8618C120.028 81.5432 120.043 87.2247 119.987 92.9062C119.982 93.4223 119.478 93.9329 119.206 94.4453C119.05 94.5236 118.893 94.6037 118.737 94.682C118.647 94.7062 118.56 94.7509 118.47 94.7509C113.538 94.7453 108.604 94.736 103.671 94.7267C103.718 93.5062 103.263 92.118 104.791 91.395H116.45V77.3525H103.679C103.677 76.2456 103.675 75.1388 103.673 74.0319V74.0338Z" fill="#FD874E"/>
<path d="M103.673 74.0335C103.675 75.1404 103.677 76.2473 103.679 77.3541C103.269 77.4231 102.857 77.4939 102.449 77.5628V91.2047C103.273 91.2717 104.031 91.3332 104.791 91.3966C103.263 92.1177 103.716 93.5078 103.671 94.7283C102.745 94.7451 101.819 94.7786 100.893 94.773C99.6539 94.7637 98.9607 94.0892 98.9216 92.8277C98.888 91.7469 98.9123 90.6643 98.9123 89.5816C98.9123 85.1915 98.9123 80.7995 98.9123 76.4094C98.9123 74.5758 99.516 73.9758 101.361 73.9795C102.132 73.9795 102.902 74.0168 103.673 74.0354V74.0335Z" fill="#FD874E"/>
<path d="M119.031 74.2741C118.871 74.2052 118.711 74.1362 118.55 74.0654C118.711 74.1344 118.871 74.2033 119.031 74.2741Z" fill="#FD874E"/>
<path d="M104.791 91.396C104.033 91.3345 103.274 91.2711 102.449 91.2041V77.5622C102.857 77.4933 103.267 77.4225 103.679 77.3535C107.912 77.3535 112.144 77.3535 116.45 77.3535V91.396H104.791ZM102.894 84.2909C104.292 85.7779 105.564 87.2351 106.956 88.5711C107.711 89.296 108.658 89.0966 109.431 88.3028C110.29 87.4195 111.162 86.5475 112.025 85.6661C113.359 84.3002 114.691 82.9306 116.284 81.2927C115.487 80.6368 114.798 80.0163 114.045 79.4871C113.855 79.3529 113.363 79.3939 113.176 79.5523C112.569 80.0647 112.038 80.6666 111.477 81.2368C110.357 82.3735 109.235 83.5101 108.061 84.7008C107.299 83.8959 106.645 83.158 105.932 82.4834C105.751 82.312 105.263 82.1871 105.119 82.2989C104.374 82.8859 103.695 83.5586 102.896 84.289L102.894 84.2909Z" fill="#FFC290"/>
<path d="M102.894 84.2889C103.694 83.5566 104.372 82.8857 105.117 82.2988C105.261 82.187 105.749 82.3118 105.93 82.4832C106.644 83.1578 107.298 83.8957 108.06 84.7007C109.236 83.5081 110.355 82.3714 111.475 81.2366C112.036 80.6683 112.567 80.0646 113.175 79.5521C113.363 79.3938 113.853 79.3528 114.043 79.4869C114.798 80.0161 115.487 80.6366 116.283 81.2925C114.688 82.9305 113.357 84.3 112.023 85.6659C111.162 86.5473 110.29 87.4194 109.429 88.3026C108.658 89.0964 107.711 89.2958 106.955 88.5709C105.563 87.2367 104.29 85.7777 102.893 84.2907L102.894 84.2889Z" fill="#FD874E"/>
</g>
<defs>
<filter id="filter0_d_767_1477" x="0.177009" y="0.591797" width="131.032" height="118.943" filterUnits="userSpaceOnUse" color-interpolation-filters="sRGB">
<feFlood flood-opacity="0" result="BackgroundImageFix"/>
<feColorMatrix in="SourceAlpha" type="matrix" values="0 0 0 0 0 0 0 0 0 0 0 0 0 0 0 0 0 0 127 0" result="hardAlpha"/>
<feOffset dy="0.745355"/>
<feGaussianBlur stdDeviation="0.372677"/>
<feComposite in2="hardAlpha" operator="out"/>
<feColorMatrix type="matrix" values="0 0 0 0 0 0 0 0 0 0 0 0 0 0 0 0 0 0 0.25 0"/>
<feBlend mode="normal" in2="BackgroundImageFix" result="effect1_dropShadow_767_1477"/>
<feBlend mode="normal" in="SourceGraphic" in2="effect1_dropShadow_767_1477" result="shape"/>
</filter>
</defs>
</svg>
