<svg width="283" height="257" viewBox="0 0 283 257" fill="none" xmlns="http://www.w3.org/2000/svg">
<g filter="url(#filter0_d_767_1135)">
<path d="M226.004 0.148471C236.3 0.132396 246.609 -0.213227 256.885 0.208754C265.035 0.542321 271.172 7.07299 271.449 15.4523C271.562 18.8603 271.486 22.2724 271.486 25.6804C271.486 54.4997 271.502 83.315 271.449 112.134C271.449 114.075 271.735 114.976 273.973 115.442C277.442 116.165 279.612 118.794 280.882 122.097C280.99 122.382 281.215 122.624 281.388 122.885V245.284C279.929 248.302 278.306 251.191 274.942 252.485C274.022 252.839 273.033 253.249 272.072 253.249C256.182 253.285 240.295 253.261 224.405 253.249C224.674 250.858 224.939 248.462 225.208 246.071C226.008 246.047 226.808 246.007 227.612 246.007C241.581 246.003 255.551 246.007 269.516 245.999C272.92 245.999 273.833 245.099 273.833 241.787C273.833 203.355 273.833 164.926 273.833 126.494C273.833 123.102 273.141 122.415 269.717 122.415C256.218 122.411 242.715 122.415 229.215 122.407C228.415 122.407 227.62 122.33 226.82 122.29C226.683 119.879 226.551 117.467 226.414 115.056C232.358 115 238.302 114.859 244.242 114.939C246.223 114.968 246.842 114.534 246.834 112.424C246.745 91.63 246.778 70.8364 246.782 50.0468C246.782 41.8242 246.814 33.6016 246.83 25.3789C246.665 25.1378 246.5 24.8927 246.34 24.6515C239.829 24.6314 233.318 24.6113 226.804 24.5912C226.804 22.2081 226.808 19.8249 226.812 17.4417C234.496 17.4055 242.188 17.1684 249.864 17.4256C253.208 17.5381 254.14 18.8483 254.136 21.9308C254.084 52.012 254.104 82.0973 254.108 112.179C254.108 113.014 254.108 113.846 254.108 114.827C256.841 114.827 259.244 114.71 261.635 114.863C263.556 114.988 264.131 114.369 264.127 112.412C264.071 80.7268 264.087 49.038 264.083 17.3492C264.083 10.7623 260.695 7.41057 254.08 7.39852C244.857 7.37842 235.633 7.35431 226.406 7.33019C226.273 4.93897 226.137 2.54372 226.004 0.15249V0.148471Z" fill="#FD874E"/>
<path d="M48.623 205.818C44.4795 205.862 40.3401 205.935 36.1966 205.951C30.3773 205.975 24.5539 205.834 18.7427 205.983C9.04914 206.228 1.97995 198.243 2.00004 189.18C2.13668 131.73 2.06836 74.2766 2.07238 16.8268C2.07238 8.99808 5.90639 3.46812 13.2167 0.79155C14.0848 0.474059 15.0252 0.164606 15.9335 0.160587C26.2981 0.120398 36.6628 0.144512 47.0275 0.148531C47.0275 2.53172 47.0275 4.91491 47.0235 7.2981C37.9328 7.32222 28.8381 7.31016 19.7474 7.40259C18.1077 7.41867 16.3313 7.53923 14.8604 8.1702C11.1992 9.74158 9.58767 12.6392 9.59169 16.7344C9.64795 68.3488 9.62786 119.967 9.62786 171.582C9.62786 177.867 9.59973 184.153 9.65197 190.434C9.68413 194.381 12.5456 197.596 16.5323 198.323C17.2959 198.452 18.0595 198.685 18.823 198.689C28.7617 198.729 38.7004 198.733 48.635 198.745C48.635 201.104 48.635 203.459 48.631 205.818H48.623Z" fill="#FD874E"/>
<path d="M201.927 253.245C196.26 253.502 191.903 249.769 191.18 244.034C191.285 243.728 191.473 243.423 191.477 243.117C191.494 231.185 191.498 219.257 191.457 207.325C191.457 206.863 190.975 206.405 190.722 205.947C188.17 205.903 185.618 205.858 183.066 205.814C183.066 203.455 183.066 201.096 183.062 198.741C185.099 198.725 187.141 198.757 189.179 198.661C189.701 198.636 190.203 198.198 190.718 197.949C190.734 195.421 190.694 192.889 190.79 190.366C190.842 189.031 190.336 188.613 189.054 188.67C187.732 188.73 186.402 188.597 185.075 188.549C185.075 186.13 185.075 183.706 185.075 181.287C186.972 181.227 188.869 181.166 190.762 181.106C191.003 180.367 191.453 179.623 191.457 178.884C191.498 161.458 191.489 144.028 191.477 126.602C191.477 125.811 191.349 125.015 191.281 124.223C191.735 122.72 191.891 121.032 192.691 119.746C195.701 114.899 200.48 114.509 205.535 115.056C205.535 116.523 205.632 118.002 205.511 119.461C205.363 121.277 206.154 121.759 207.85 121.715C211.52 121.619 215.197 121.655 218.866 121.715C219.505 121.723 220.136 122.097 220.771 122.298C214.759 122.338 208.751 122.386 202.738 122.415C199.25 122.435 198.358 123.303 198.358 126.799C198.358 165.027 198.358 203.254 198.358 241.482C198.358 244.753 199.041 245.529 202.324 246.071C202.192 248.462 202.055 250.858 201.922 253.249L201.927 253.245Z" fill="#FD874E"/>
<path d="M102.801 224.903H113.246V205.805C109.553 205.805 105.976 205.805 102.4 205.805C102.4 203.454 102.4 201.103 102.4 198.752C109.356 198.752 116.313 198.752 123.27 198.752C123.27 201.135 123.27 203.522 123.27 205.906C121.425 205.745 120.766 206.492 120.822 208.421C120.963 213.059 120.963 217.709 120.822 222.347C120.766 224.276 121.413 225.027 123.27 224.846C122.868 227.374 122.213 229.946 124.471 232.032C117.382 232.032 110.293 232.032 103.199 232.032C103.067 229.657 102.93 227.282 102.797 224.907L102.801 224.903Z" fill="#FD874E"/>
<path d="M167.007 205.806C165.214 205.854 163.41 205.822 161.63 205.999C161.119 206.051 160.609 206.65 160.215 207.1C160.05 207.289 160.183 207.743 160.183 208.077C160.183 213.535 160.183 218.992 160.183 224.908C162.413 224.908 164.511 224.908 166.609 224.908C166.742 227.283 166.878 229.658 167.011 232.033C160.456 232.033 153.901 232.033 147.347 232.033C147.347 229.638 147.347 227.243 147.347 224.852H152.471V205.907H147.748C147.748 203.524 147.748 201.14 147.748 198.753C154.171 198.753 160.589 198.749 167.011 198.745C167.011 201.1 167.011 203.455 167.011 205.81L167.007 205.806Z" fill="#FD874E"/>
<path d="M167.011 232.029C166.878 229.654 166.742 227.278 166.609 224.903C169.149 224.931 171.693 224.96 174.233 224.992C174.618 225.1 175.008 225.209 175.394 225.313C181.238 226.209 186.104 231.888 186.35 238.302C186.49 241.967 186.43 245.641 186.386 249.31C186.354 251.826 184.887 253.305 182.419 253.313C177.685 253.329 172.951 253.269 168.212 253.236C168.212 250.849 168.212 248.462 168.212 246.079C171.078 246.055 173.951 245.918 176.809 246.043C178.629 246.123 179.18 245.456 179.027 243.736C178.907 242.345 179.019 240.935 178.995 239.536C178.923 235.067 176.101 232.23 171.604 232.097C170.073 232.053 168.538 232.049 167.007 232.025L167.011 232.029Z" fill="#FD874E"/>
<path d="M102.802 224.904C102.934 227.28 103.071 229.655 103.204 232.03C102.605 232.058 102.002 232.058 101.407 232.118C98.1478 232.468 95.3065 234.393 94.9448 237.162C94.571 240.011 94.8604 242.945 94.8604 246.1H102.4C102.4 248.483 102.4 250.862 102.4 253.246C98.5376 253.27 94.6755 253.342 90.8134 253.302C88.7477 253.282 87.2486 251.847 87.2165 249.797C87.1522 245.666 86.9713 241.514 87.2928 237.407C87.8916 229.791 94.9327 224.257 102.798 224.908L102.802 224.904Z" fill="#FD874E"/>
<path d="M122.868 0.148438C133.168 0.148438 143.464 0.148438 153.765 0.148438C153.765 2.53565 153.765 4.92286 153.765 7.31007C143.464 7.31007 133.164 7.30605 122.864 7.30203C122.864 4.91884 122.864 2.53163 122.864 0.148438H122.868Z" fill="#FD874E"/>
<path d="M48.6229 205.818C48.6229 203.459 48.6229 201.104 48.6269 198.745C58.7946 198.745 68.9584 198.745 79.1261 198.749C79.1261 201.104 79.1261 203.455 79.1261 205.81C75.6056 205.859 72.085 205.951 68.5645 205.947C61.9173 205.935 55.2701 205.863 48.6229 205.818Z" fill="#FD874E"/>
<path d="M70.2965 0.152344C79.3912 0.152344 88.4899 0.152344 97.5846 0.152344C97.5846 2.53955 97.5846 4.92274 97.5846 7.30995C88.4899 7.30995 79.3912 7.30594 70.2965 7.30192C70.2965 4.91873 70.2965 2.53955 70.2965 0.156363V0.152344Z" fill="#FD874E"/>
<path d="M179.855 0.144531C188.685 0.144531 197.514 0.144531 206.34 0.144531C206.472 2.53978 206.609 4.93101 206.742 7.32625C204.089 7.34635 201.437 7.36644 198.784 7.39056C193.68 7.43878 188.576 7.49505 183.472 7.54729C182.399 7.47093 181.33 7.39458 180.257 7.32224C180.125 4.93101 179.988 2.53978 179.855 0.14855V0.144531Z" fill="#FD874E"/>
<path d="M179.855 0.144531C179.988 2.53576 180.125 4.92699 180.257 7.31822C171.428 7.31822 162.598 7.31018 153.769 7.31018C153.769 4.92297 153.769 2.53576 153.769 0.14855C162.466 0.14855 171.159 0.14855 179.855 0.14855V0.144531Z" fill="#FD874E"/>
<path d="M148.552 253.24C140.125 253.24 131.697 253.24 123.269 253.24C123.269 250.857 123.269 248.474 123.269 246.091C131.83 246.091 140.394 246.091 148.954 246.091C148.821 248.474 148.685 250.857 148.552 253.244V253.24Z" fill="#FD874E"/>
<path d="M97.5848 7.30605C97.5848 4.91884 97.5848 2.53565 97.5848 0.148438C106.012 0.148438 114.44 0.148438 122.872 0.148438C122.872 2.53163 122.872 4.91884 122.872 7.30203C122.08 7.32614 121.288 7.36231 120.496 7.37437C115.81 7.43063 111.124 7.47886 106.438 7.5311C103.488 7.45475 100.539 7.38241 97.5888 7.30605H97.5848Z" fill="#FD874E"/>
<path d="M79.1263 205.81C79.1263 203.455 79.1263 201.104 79.1263 198.749C86.8827 198.749 94.6391 198.749 102.4 198.749C102.4 201.1 102.4 203.451 102.4 205.802C94.6431 205.802 86.8827 205.802 79.1263 205.802V205.81Z" fill="#FD874E"/>
<path d="M70.2966 0.152569C70.2966 2.53576 70.2966 4.91493 70.2966 7.29812C69.5049 7.32224 68.7092 7.35841 67.9174 7.36644C63.0908 7.42271 58.2641 7.47093 53.4334 7.51916C51.2954 7.4428 49.1533 7.37046 47.0153 7.2941C47.0153 4.91091 47.0153 2.52772 47.0193 0.144531C54.7757 0.144531 62.5362 0.144531 70.2926 0.144531L70.2966 0.152569Z" fill="#FD874E"/>
<path d="M201.927 253.245C202.06 250.854 202.196 248.459 202.329 246.067C209.953 246.067 217.581 246.067 225.204 246.067C224.935 248.459 224.67 250.854 224.401 253.245C216.909 253.245 209.418 253.245 201.927 253.245Z" fill="#FD874E"/>
<path d="M123.27 246.091C123.27 248.474 123.27 250.857 123.27 253.24C116.313 253.24 109.356 253.24 102.4 253.24C102.4 250.857 102.4 248.478 102.4 246.095C109.356 246.095 116.313 246.095 123.27 246.091Z" fill="#FD874E"/>
<path d="M206.741 7.32625C206.608 4.93101 206.472 2.53978 206.339 0.144531C212.894 0.144531 219.449 0.144531 226.004 0.144531C226.136 2.53576 226.273 4.93101 226.405 7.32223C219.851 7.32223 213.296 7.32223 206.741 7.32223V7.32625Z" fill="#FD874E"/>
<path d="M148.552 253.241C148.685 250.858 148.821 248.474 148.954 246.087C155.376 246.087 161.794 246.083 168.217 246.079C168.217 248.466 168.217 250.854 168.217 253.237C161.662 253.237 155.107 253.237 148.552 253.237V253.241Z" fill="#FD874E"/>
<path d="M167.007 205.806C167.007 203.45 167.007 201.095 167.007 198.74C172.356 198.74 177.709 198.74 183.058 198.736C183.058 201.095 183.058 203.454 183.062 205.81C177.709 205.81 172.356 205.81 167.003 205.806H167.007Z" fill="#FD874E"/>
<path d="M190.718 205.946C190.976 206.404 191.454 206.867 191.454 207.325C191.494 219.253 191.49 231.185 191.474 243.117C191.474 243.422 191.281 243.728 191.176 244.033C191.068 243.266 190.863 242.502 190.859 241.734C190.839 230.67 190.847 219.602 190.839 208.538C190.839 207.674 190.759 206.81 190.714 205.946H190.718Z" fill="#FD874E"/>
<path d="M175.398 225.318C175.013 225.209 174.623 225.101 174.237 224.996C174.623 225.105 175.013 225.213 175.398 225.318Z" fill="#FD874E"/>
<path d="M206.741 7.32531C213.296 7.32531 219.851 7.32531 226.405 7.32531C235.629 7.34942 244.852 7.37755 254.079 7.39363C260.694 7.40569 264.078 10.7574 264.082 17.3444C264.086 49.0332 264.066 80.7179 264.126 112.407C264.126 114.364 263.556 114.983 261.635 114.858C259.248 114.706 256.84 114.822 254.107 114.822C254.107 113.841 254.107 113.006 254.107 112.174C254.107 82.0924 254.087 52.0071 254.136 21.9259C254.14 18.8434 253.207 17.5332 249.864 17.4207C242.187 17.1635 234.499 17.4006 226.811 17.4368C220.522 17.4368 214.236 17.4368 207.951 17.4368C200.994 17.4408 194.037 17.4448 187.081 17.4488C185.742 17.3685 184.404 17.2881 183.066 17.2037C183.202 13.9846 183.339 10.7614 183.476 7.54233C188.58 7.49008 193.684 7.43784 198.788 7.38559C201.44 7.36148 204.093 7.34138 206.745 7.32129L206.741 7.32531Z" fill="#FFC290"/>
<path d="M225.204 246.066C217.58 246.066 209.952 246.066 202.329 246.066C199.045 245.524 198.362 244.748 198.362 241.477C198.362 203.249 198.362 165.022 198.362 126.794C198.362 123.298 199.254 122.426 202.742 122.41C208.755 122.378 214.763 122.333 220.775 122.293C222.789 122.293 224.802 122.289 226.815 122.285C227.615 122.325 228.411 122.402 229.211 122.402C242.71 122.41 256.214 122.402 269.713 122.41C273.133 122.41 273.824 123.097 273.828 126.489C273.828 164.921 273.828 203.35 273.828 241.782C273.828 245.094 272.916 245.99 269.512 245.994C255.542 246.006 241.573 245.994 227.607 246.002C226.807 246.002 226.008 246.046 225.204 246.066ZM223.592 124.656C217.781 124.62 211.974 124.568 206.163 124.548C201.798 124.532 200.721 125.621 200.721 129.989C200.721 163.8 200.721 197.611 200.721 231.422C200.721 231.956 200.693 232.495 200.737 233.025C200.926 235.32 202.272 236.791 204.567 236.815C209.976 236.871 215.386 236.791 220.799 236.763C221.398 236.787 222.001 236.835 222.6 236.835C237.301 236.839 252.002 236.843 266.703 236.839C270.179 236.839 271.666 235.344 271.666 231.824C271.67 197.748 271.67 163.667 271.666 129.591C271.666 126.047 270.127 124.556 266.502 124.556C253.806 124.556 241.111 124.556 228.415 124.56C227.752 124.56 227.085 124.632 226.422 124.668C225.481 124.664 224.541 124.66 223.6 124.656H223.592Z" fill="#FFC290"/>
<path d="M226.816 122.287C224.802 122.287 222.789 122.291 220.775 122.295C220.14 122.09 219.509 121.72 218.87 121.712C215.197 121.656 211.524 121.616 207.854 121.712C206.154 121.756 205.363 121.27 205.515 119.457C205.636 117.999 205.54 116.52 205.54 115.053C212.5 115.053 219.457 115.053 226.418 115.053C226.554 117.464 226.687 119.875 226.824 122.287H226.816Z" fill="#FD874E"/>
<path d="M207.947 17.4376C214.232 17.4376 220.522 17.4376 226.808 17.4376C226.808 19.8208 226.803 22.204 226.799 24.5872C220.514 24.5872 214.224 24.5872 207.939 24.5872C207.939 22.204 207.939 19.8208 207.943 17.4336L207.947 17.4376Z" fill="#FD874E"/>
<path d="M47.0151 7.29785C49.1531 7.37421 51.2952 7.44655 53.4332 7.51889C53.3006 10.6576 53.172 13.8004 53.0394 16.9431C43.4303 16.9472 33.8171 16.9431 24.208 16.9874C23.4967 16.9874 22.7853 17.3772 22.074 17.5862C20.1007 18.3779 19.3371 19.8207 19.3412 21.9547C19.3733 75.9924 19.3613 130.03 19.3693 184.072C19.3693 187.287 20.4865 188.42 23.7177 188.428C31.7434 188.444 39.7691 188.428 47.7948 188.42C49.543 188.545 51.2912 188.67 53.0394 188.794C53.0394 191.844 53.0394 194.895 53.0394 197.945C41.6298 197.945 30.2202 197.941 18.8067 197.965C18.0431 197.965 17.2835 198.202 16.5199 198.327C12.5332 197.599 9.67176 194.388 9.63961 190.438C9.58736 184.152 9.61549 177.867 9.61549 171.585C9.61549 119.971 9.63559 68.3526 9.57932 16.7382C9.5753 12.643 11.1869 9.74534 14.8481 8.17397C16.319 7.543 18.0953 7.42244 19.735 7.40636C28.8257 7.31393 37.9164 7.32598 47.0111 7.30187L47.0151 7.29785Z" fill="#FFC290"/>
<path d="M16.5244 198.323C17.288 198.199 18.0476 197.962 18.8112 197.962C30.2208 197.938 41.6303 197.942 53.0439 197.942C78.9938 197.942 104.948 197.942 130.898 197.942C150.839 197.942 170.777 197.942 190.718 197.946C190.208 198.195 189.702 198.633 189.179 198.657C187.146 198.753 185.104 198.721 183.062 198.737C177.713 198.737 172.36 198.737 167.011 198.741C160.589 198.741 154.171 198.745 147.749 198.749C139.59 198.749 131.428 198.749 123.27 198.749C116.313 198.749 109.356 198.749 102.4 198.749C94.6433 198.749 86.8868 198.749 79.1264 198.749C68.9587 198.749 58.7949 198.749 48.6272 198.745C38.6885 198.733 28.7499 198.725 18.8152 198.689C18.0516 198.689 17.288 198.452 16.5244 198.323Z" fill="#FFC290"/>
<path d="M190.714 197.945C170.773 197.945 150.835 197.945 130.894 197.941C130.894 194.895 130.894 191.848 130.894 188.798C132.015 188.758 133.136 188.693 134.261 188.677C138.891 188.617 143.521 188.569 148.151 188.517C154.842 188.517 161.529 188.517 168.221 188.521C173.839 188.529 179.458 188.533 185.072 188.541C186.398 188.589 187.728 188.722 189.051 188.661C190.333 188.605 190.839 189.019 190.787 190.357C190.69 192.881 190.731 195.413 190.714 197.941V197.945Z" fill="#FFC290"/>
<path d="M185.071 188.545C179.453 188.537 173.835 188.533 168.22 188.525C168.22 186.114 168.22 183.699 168.22 181.287C173.839 181.287 179.457 181.287 185.075 181.283C185.075 183.703 185.075 186.126 185.075 188.545H185.071Z" fill="#FD874E"/>
<path d="M190.762 181.102C190.774 162.953 190.778 144.803 190.814 126.654C190.814 125.842 191.12 125.031 191.281 124.219C191.349 125.01 191.478 125.802 191.478 126.598C191.49 144.024 191.494 161.454 191.457 178.879C191.457 179.623 191.003 180.362 190.762 181.102Z" fill="#FD874E"/>
<path d="M168.217 246.083C161.795 246.083 155.376 246.087 148.954 246.091C140.394 246.091 131.83 246.091 123.27 246.091C116.313 246.091 109.356 246.091 102.4 246.095C99.9482 246.095 97.4967 246.095 94.8603 246.095C94.8603 242.941 94.5709 240.007 94.9447 237.157C95.3064 234.388 98.1477 232.467 101.407 232.114C102.002 232.049 102.605 232.054 103.203 232.025C110.293 232.025 117.382 232.025 124.475 232.025C132.099 232.025 139.727 232.025 147.351 232.025C153.906 232.025 160.46 232.025 167.015 232.025C168.546 232.05 170.082 232.054 171.613 232.098C176.11 232.23 178.931 235.068 179.003 239.537C179.028 240.935 178.915 242.346 179.036 243.736C179.188 245.452 178.638 246.12 176.817 246.043C173.956 245.919 171.086 246.055 168.221 246.079L168.217 246.083Z" fill="#FFC290"/>
<path d="M147.748 205.903H152.47V224.848C150.758 224.848 149.05 224.848 147.346 224.848C139.321 224.848 131.295 224.848 123.269 224.848C121.417 225.025 120.766 224.273 120.822 222.348C120.963 217.71 120.963 213.06 120.822 208.423C120.762 206.494 121.421 205.746 123.269 205.907C131.428 205.907 139.59 205.907 147.748 205.907V205.903Z" fill="#FFC290"/>
<path d="M147.748 205.903C139.59 205.903 131.428 205.903 123.269 205.903C123.269 203.519 123.269 201.132 123.269 198.749C131.428 198.749 139.59 198.749 147.748 198.749C147.748 201.132 147.748 203.515 147.748 205.903Z" fill="#FD874E"/>
<path d="M123.269 224.844C131.295 224.844 139.321 224.844 147.346 224.844C147.346 227.239 147.346 229.634 147.346 232.026C139.722 232.026 132.095 232.026 124.471 232.026C122.212 229.944 122.867 227.372 123.269 224.84V224.844Z" fill="#FD874E"/>
<path d="M183.472 7.54691C183.335 10.766 183.199 13.9892 183.062 17.2083C182.339 17.2525 181.619 17.3208 180.896 17.3288C176.937 17.3811 172.979 17.4173 169.016 17.4615C161.661 17.4615 154.303 17.4655 146.948 17.4695C144.537 17.4173 142.13 17.365 139.718 17.3128C139.023 17.1922 138.324 16.9752 137.629 16.9712C131.906 16.939 126.183 16.943 120.46 16.939C120.46 15.01 120.468 13.0809 120.46 11.1518C120.448 8.79276 119.757 8.12161 117.337 8.11357C114.275 8.10553 111.217 8.1417 108.154 8.08544C107.58 8.07338 107.009 7.72374 106.434 7.53083C111.12 7.47859 115.806 7.43036 120.492 7.3741C121.284 7.36606 122.076 7.32989 122.867 7.30176C133.168 7.30176 143.468 7.30578 153.768 7.3098C162.598 7.3098 171.427 7.31783 180.257 7.31783C181.33 7.39419 182.403 7.47055 183.472 7.54289V7.54691Z" fill="#FFC290"/>
<path d="M106.434 7.53095C107.009 7.72385 107.576 8.07349 108.154 8.08555C111.213 8.14182 114.275 8.10565 117.337 8.11368C119.757 8.12172 120.444 8.79287 120.46 11.1519C120.472 13.081 120.46 15.0101 120.46 16.9391C97.9866 16.9391 75.5131 16.9391 53.0436 16.9431C53.1762 13.8004 53.3048 10.6616 53.4374 7.51889C58.2641 7.47066 63.0908 7.42244 67.9214 7.36617C68.7132 7.35813 69.5089 7.32196 70.3006 7.29785C79.3953 7.29785 88.494 7.30187 97.5888 7.30589C100.539 7.38225 103.488 7.45459 106.438 7.53095H106.434Z" fill="#FFC290"/>
<path d="M47.7913 188.416C39.7656 188.42 31.7399 188.444 23.7142 188.424C20.487 188.416 19.3658 187.283 19.3658 184.068C19.3618 130.03 19.3658 75.9922 19.3376 21.9504C19.3376 19.8164 20.0972 18.3736 22.0705 17.5859C22.7979 17.6221 23.5293 17.6904 24.2567 17.6944C32.2463 17.7105 40.2318 17.7145 48.2213 17.7186C48.2213 20.0093 48.2213 22.2961 48.2213 24.5868C41.7348 24.6149 35.2524 24.7034 28.7699 24.6391C27.0941 24.623 26.644 25.1173 26.644 26.7771C26.6841 77.5354 26.6761 128.294 26.6801 179.048C26.6801 179.639 26.7284 180.226 26.7726 181.271C33.8418 181.271 40.8266 181.271 47.8113 181.271C47.8033 183.654 47.7953 186.033 47.7872 188.416H47.7913Z" fill="#FD874E"/>
<path d="M85.7654 37.4425C87.8191 37.9931 89.8205 38.4472 91.7535 39.1103C92.1353 39.2429 92.5493 40.2597 92.4247 40.738C90.1339 49.6398 87.7829 58.5295 85.3997 67.4072C83.0487 76.1643 80.6494 84.9094 78.2702 93.6585C77.591 96.1542 76.9078 98.6499 76.1804 101.322C73.9781 100.772 71.9164 100.31 69.907 99.6908C69.6096 99.5984 69.288 98.7062 69.3966 98.2962C72.0249 88.3696 74.7256 78.4631 77.3861 68.5405C79.7331 59.7834 82.0399 51.0182 84.3749 42.2611C84.7848 40.7259 85.255 39.2068 85.7694 37.4385L85.7654 37.4425Z" fill="#FD874E"/>
<path d="M113.174 68.1368C106.631 61.8915 100.711 56.241 94.241 50.064C96.1017 48.5087 97.6369 47.4236 98.9189 46.0933C99.9759 44.9962 100.547 45.4905 101.346 46.2943C106.808 51.784 112.298 57.2417 117.763 62.7194C118.796 63.7563 119.845 64.7891 120.77 65.9224C122.136 67.5943 121.601 69.2983 120.307 70.6245C113.668 77.4164 106.949 84.1279 100.121 91.0123C98.304 89.1596 96.6965 87.5198 94.8317 85.6189C100.832 79.9001 106.744 74.2616 113.17 68.1368H113.174Z" fill="#FD874E"/>
<path d="M67.2748 50.2793C61.138 56.3358 55.2985 62.0948 49.3144 68.0026C55.3508 73.8942 61.2425 79.6452 67.3873 85.6414C65.3136 87.474 63.5613 89.0213 61.367 90.9583C58.4815 87.9321 55.4472 84.6929 52.3487 81.518C49.001 78.0899 45.601 74.71 42.201 71.3342C39.7736 68.9309 39.7294 67.3113 42.1448 64.8879C48.3218 58.7029 54.543 52.558 60.6637 46.3207C61.7207 45.2437 62.2391 45.3321 63.1715 46.373C64.3571 47.6952 65.7436 48.8406 67.2788 50.2793H67.2748Z" fill="#FD874E"/>
<path d="M190.288 33.0998C196.759 33.0636 203.225 33.0154 209.695 32.9953C214.9 32.9792 220.104 33.0234 225.309 32.9672C226.55 32.9551 227.185 33.2445 227.097 34.6189C227.013 35.9492 227.033 37.2874 227.093 38.6217C227.149 39.8716 226.687 40.5066 225.377 40.4543C223.319 40.3739 221.258 40.3378 219.196 40.2815C218.525 40.1288 217.858 39.8394 217.186 39.8394C208.22 39.8033 199.25 39.8073 190.284 39.7992C190.284 37.5688 190.288 35.3343 190.292 33.1038L190.288 33.0998Z" fill="#FD874E"/>
<path d="M192.294 105.868C191.63 105.904 190.963 105.968 190.3 105.968C171.134 105.972 151.964 105.948 132.798 106.008C131.014 106.012 130.371 105.627 130.411 103.718C130.52 98.4168 130.431 98.4168 135.768 98.4168C143.581 98.4168 151.398 98.4128 159.21 98.4168C159.942 98.4168 160.669 98.4972 161.401 98.5414C161.143 98.8187 160.882 99.3371 160.625 99.3331C157.856 99.3331 158.25 101.238 158.133 103.059C158.017 104.895 158.692 105.281 160.412 105.265C168.9 105.181 177.384 105.229 185.871 105.229C187.391 105.229 188.914 105.173 190.429 105.261C191.06 105.297 191.671 105.655 192.294 105.868Z" fill="#FD874E"/>
<path d="M149.356 161.112H182.56C182.56 163.254 182.644 165.368 182.476 167.466C182.447 167.812 181.286 168.31 180.647 168.318C173.759 168.378 166.87 168.366 159.982 168.35C156.441 168.342 152.901 168.278 149.36 168.238C149.36 165.863 149.36 163.491 149.36 161.116L149.356 161.112Z" fill="#FD874E"/>
<path d="M130.5 82.7517C130.857 82.5026 131.219 82.0364 131.577 82.0323C148.295 82.0002 165.014 82.0123 181.732 82.0243C181.921 82.0243 182.11 82.1167 182.439 82.2011V89.3869C181.933 89.4431 181.483 89.5396 181.037 89.5396C170.27 89.5476 159.504 89.5436 148.737 89.5396C148.408 89.5396 148.074 89.4713 147.744 89.4351C148.838 89.2141 149.923 88.8283 151.02 88.8082C154.995 88.7318 154.894 88.776 155.019 84.93C155.079 83.1054 154.472 82.6995 152.748 82.7196C145.333 82.808 137.918 82.7557 130.5 82.7557V82.7517Z" fill="#FD874E"/>
<path d="M152.567 49.48C162.124 49.4439 171.681 49.4117 181.242 49.3595C182.315 49.3514 182.548 49.8498 182.596 50.8384C182.874 56.722 182.894 56.7381 177.03 56.718C168.876 56.6899 160.726 56.6336 152.571 56.5894C152.571 54.2223 152.571 51.8512 152.571 49.48H152.567Z" fill="#FD874E"/>
<path d="M177.042 72.9747C167.951 72.9827 158.86 72.9947 149.77 73.0028C149.36 71.7569 148.801 70.5312 148.584 69.2532C148.391 68.1118 148.572 66.9021 148.584 65.7246C157.936 65.7527 167.288 65.7809 176.64 65.813C176.773 68.2002 176.905 70.5915 177.038 72.9787L177.042 72.9747Z" fill="#FD874E"/>
<path d="M91.5649 168.237C81.799 168.237 72.0331 168.237 62.2713 168.241C62.2713 165.862 62.2713 163.483 62.2713 161.104C72.0372 161.104 81.803 161.104 91.5689 161.108C91.5689 163.483 91.5689 165.862 91.5689 168.237H91.5649Z" fill="#FD874E"/>
<path d="M149.356 161.112C149.356 163.487 149.356 165.859 149.356 168.234C139.723 168.234 130.093 168.234 120.46 168.234C120.46 165.863 120.46 163.487 120.46 161.116C130.089 161.116 139.723 161.116 149.352 161.116L149.356 161.112Z" fill="#FD874E"/>
<path d="M120.46 161.112C120.46 163.484 120.46 165.859 120.46 168.23C110.831 168.23 101.197 168.234 91.5682 168.238C91.5682 165.863 91.5682 163.484 91.5682 161.108C101.201 161.108 110.831 161.108 120.464 161.108L120.46 161.112Z" fill="#FD874E"/>
<path d="M94.7954 181.271C103.749 181.276 112.704 181.284 121.658 181.288C121.658 183.699 121.658 186.114 121.662 188.526C112.704 188.534 103.741 188.542 94.7834 188.55C94.7834 186.122 94.7914 183.695 94.7914 181.271H94.7954Z" fill="#FD874E"/>
<path d="M121.666 188.525C121.666 186.114 121.666 183.698 121.662 181.287C130.491 181.287 139.321 181.287 148.15 181.287C148.15 183.698 148.15 186.106 148.15 188.517C143.521 188.569 138.891 188.614 134.261 188.678C133.14 188.694 132.019 188.754 130.893 188.794C127.819 188.706 124.74 188.614 121.666 188.525Z" fill="#FD874E"/>
<path d="M200.733 65.7721C206.464 65.7199 212.195 65.6556 217.922 65.6154C220.84 65.5953 223.761 65.6154 226.952 65.6154C226.952 67.9423 227.005 70.0562 226.896 72.1621C226.88 72.4917 226.137 73.0583 225.727 73.0583C217.524 73.0704 209.322 73.0181 201.123 72.9779C200.99 70.5787 200.862 68.1754 200.729 65.7761L200.733 65.7721Z" fill="#FD874E"/>
<path d="M48.2249 24.587C48.2249 22.2962 48.2249 20.0095 48.2249 17.7188C57.8541 17.7188 67.4873 17.7188 77.1166 17.7188C77.1166 20.0055 77.1166 22.2922 77.1166 24.579C67.4873 24.579 57.8541 24.579 48.2249 24.583V24.587Z" fill="#FD874E"/>
<path d="M121.272 144.768C130.23 144.768 139.188 144.768 148.146 144.768C148.146 147.119 148.146 149.47 148.146 151.821C139.184 151.821 130.218 151.821 121.256 151.821C121.26 149.47 121.264 147.115 121.268 144.764L121.272 144.768Z" fill="#FD874E"/>
<path d="M47.8152 188.406C47.8232 186.022 47.8312 183.643 47.8393 181.26C56.2668 181.26 64.6904 181.256 73.118 181.252C73.118 183.683 73.118 186.115 73.122 188.546C72.1976 188.586 71.2733 188.655 70.349 188.663C64.5859 188.711 58.8228 188.743 53.0598 188.779C51.3116 188.655 49.5634 188.53 47.8152 188.406Z" fill="#FD874E"/>
<path d="M185.872 105.225C177.384 105.225 168.896 105.177 160.412 105.262C158.692 105.278 158.017 104.888 158.133 103.055C158.25 101.239 157.856 99.3258 160.625 99.3298C160.882 99.3298 161.144 98.8114 161.401 98.5381C169.559 98.5421 177.713 98.5461 185.872 98.5501C185.872 100.773 185.872 102.999 185.872 105.221V105.225Z" fill="#FD874E"/>
<path d="M200.733 65.7728C200.866 68.172 200.995 70.5753 201.127 72.9746C193.098 72.9746 185.072 72.9746 177.042 72.9746C176.91 70.5874 176.777 68.1961 176.644 65.8089C183.022 65.7406 189.396 65.6602 195.774 65.62C197.43 65.608 199.082 65.7205 200.737 65.7728H200.733Z" fill="#FD874E"/>
<path d="M139.715 17.3135C142.126 17.3657 144.533 17.418 146.945 17.4702C146.945 19.8413 146.945 22.2125 146.945 24.5876C138.384 24.5876 129.82 24.5876 121.26 24.5876C121.26 22.2969 121.26 20.0061 121.26 17.7154C126.718 17.7073 132.175 17.7113 137.637 17.6712C138.332 17.6671 139.023 17.4381 139.719 17.3135H139.715Z" fill="#FD874E"/>
<path d="M142.146 33.0742C150.835 33.0823 159.524 33.0943 168.213 33.1024C168.213 35.3328 168.213 37.5633 168.213 39.7898C160.135 39.7938 152.061 39.7616 143.983 39.838C142.444 39.8541 141.989 39.3396 142.094 37.8768C142.21 36.2813 142.134 34.6737 142.146 33.0742Z" fill="#FD874E"/>
<path d="M55.0531 128.467C63.3441 128.467 71.639 128.459 79.9299 128.459C79.934 130.79 79.942 133.125 79.946 135.456C71.6551 135.456 63.3641 135.456 55.0692 135.456C55.0612 133.125 55.0571 130.798 55.0491 128.471L55.0531 128.467Z" fill="#FD874E"/>
<path d="M73.098 188.562C73.098 186.13 73.098 183.699 73.094 181.268C80.328 181.268 87.5619 181.272 94.7959 181.276C94.7959 183.703 94.7879 186.13 94.7879 188.554C87.5579 188.554 80.328 188.558 73.102 188.562H73.098Z" fill="#FD874E"/>
<path d="M63.0589 151.841C55.9937 151.865 48.9245 151.873 41.8594 151.933C40.6175 151.945 40.3081 151.455 40.2799 150.277C40.1473 144.631 40.1152 144.615 45.6773 144.635C51.4725 144.655 57.2717 144.715 63.0669 144.755C63.0669 147.119 63.0589 149.478 63.0589 151.841Z" fill="#FD874E"/>
<path d="M130.5 82.7527C137.914 82.7527 145.333 82.8049 152.748 82.7165C154.472 82.6964 155.079 83.1023 155.019 84.9269C154.894 88.773 154.995 88.7287 151.02 88.8051C149.923 88.8252 148.838 89.215 147.744 89.432C142.094 89.432 136.439 89.432 130.5 89.432V82.7527Z" fill="#FD874E"/>
<path d="M152.567 49.479C152.567 51.8501 152.567 54.2172 152.567 56.5883C145.619 56.6325 138.666 56.7009 131.717 56.6607C131.299 56.6607 130.576 55.8408 130.524 55.3465C130.367 53.8234 130.367 52.264 130.524 50.7449C130.576 50.2506 131.291 49.4307 131.709 49.4267C138.662 49.3825 145.61 49.4428 152.563 49.479H152.567Z" fill="#FD874E"/>
<path d="M146.945 24.5834C146.945 22.2122 146.945 19.8371 146.945 17.4659C154.299 17.4659 161.658 17.4659 169.012 17.4619C169.012 19.8371 169.012 22.2122 169.012 24.5834C161.654 24.5834 154.299 24.5834 146.941 24.5834H146.945Z" fill="#FD874E"/>
<path d="M62.271 161.104C62.271 163.483 62.271 165.862 62.271 168.241C55.3948 168.273 48.5145 168.325 41.6382 168.293C41.1961 168.293 40.4003 167.646 40.3762 167.26C40.2476 165.279 40.316 163.286 40.316 161.104H62.2751H62.271Z" fill="#FD874E"/>
<path d="M185.871 105.226C185.871 103.004 185.871 100.777 185.871 98.5547C192.961 98.5547 200.054 98.5547 207.143 98.5547C207.143 100.99 207.143 103.422 207.143 105.857C202.196 105.861 197.245 105.865 192.297 105.873C191.674 105.66 191.064 105.302 190.433 105.266C188.918 105.174 187.394 105.234 185.875 105.234L185.871 105.226Z" fill="#FD874E"/>
<path d="M103.203 151.829C95.9775 151.829 88.7556 151.829 81.5297 151.829C81.5337 149.474 81.5417 147.123 81.5458 144.768C88.7637 144.768 95.9775 144.768 103.195 144.772C103.195 147.123 103.199 149.478 103.203 151.829Z" fill="#FD874E"/>
<path d="M97.9785 128.459C105.606 128.463 113.23 128.467 120.858 128.475C120.858 130.794 120.858 133.117 120.858 135.436C113.226 135.44 105.59 135.448 97.9584 135.452C97.9664 133.121 97.9705 130.79 97.9785 128.459Z" fill="#FD874E"/>
<path d="M121.26 17.7109C121.26 20.0017 121.26 22.2925 121.26 24.5832C113.769 24.5832 106.278 24.5832 98.7865 24.5832C98.7865 22.2965 98.7865 20.0057 98.7865 17.719C106.278 17.719 113.769 17.715 121.26 17.7109Z" fill="#FD874E"/>
<path d="M120.862 135.435C120.862 133.116 120.862 130.793 120.862 128.475C128.353 128.475 135.844 128.475 143.336 128.475C143.336 130.798 143.336 133.116 143.336 135.439C135.844 135.439 128.353 135.439 120.862 135.439V135.435Z" fill="#FD874E"/>
<path d="M142.146 33.0759C142.138 34.6794 142.21 36.287 142.094 37.8784C141.989 39.3413 142.443 39.8517 143.983 39.8396C152.061 39.7633 160.135 39.7995 168.212 39.7954C175.571 39.7954 182.926 39.7954 190.284 39.7995C199.25 39.8075 208.22 39.7995 217.186 39.8396C217.858 39.8396 218.529 40.129 219.196 40.2817C218.541 40.3581 217.886 40.4987 217.235 40.4987C189.046 40.5068 160.854 40.4867 132.666 40.5429C130.801 40.5429 130.234 40.0004 130.25 38.1718C130.29 32.9634 130.226 32.9513 135.346 32.9674C137.613 32.9754 139.879 33.0397 142.15 33.0759H142.146Z" fill="#FD874E"/>
<path d="M148.15 188.52C148.15 186.109 148.15 183.701 148.15 181.29C154.842 181.29 161.533 181.29 168.225 181.29C168.225 183.705 168.225 186.117 168.225 188.528C161.533 188.528 154.846 188.524 148.154 188.52H148.15Z" fill="#FD874E"/>
<path d="M207.947 17.4375C207.947 19.8207 207.947 22.2039 207.943 24.5911C200.986 24.5911 194.029 24.5911 187.077 24.5911C187.077 22.2119 187.077 19.8327 187.077 17.4536C194.034 17.4496 200.99 17.4455 207.947 17.4415V17.4375Z" fill="#FD874E"/>
<path d="M207.139 105.852C207.139 103.417 207.139 100.985 207.139 98.5498C213.658 98.5498 220.176 98.5498 226.832 98.5498V105.852H207.135H207.139Z" fill="#FD874E"/>
<path d="M190.284 39.799C182.926 39.799 175.571 39.799 168.213 39.7949C168.213 37.5645 168.213 35.334 168.213 33.1075C173.658 33.1879 179.108 33.2924 184.553 33.3286C186.462 33.3406 188.375 33.1839 190.288 33.1035C190.288 35.334 190.284 37.5685 190.28 39.799H190.284Z" fill="#FD874E"/>
<path d="M98.7866 17.7188C98.7866 20.0055 98.7866 22.2962 98.7866 24.583C91.5647 24.583 84.3387 24.583 77.1168 24.583C77.1168 22.2962 77.1168 20.0095 77.1168 17.7228C84.3387 17.7228 91.5606 17.7228 98.7866 17.7228V17.7188Z" fill="#FD874E"/>
<path d="M143.336 135.439C143.336 133.116 143.336 130.798 143.336 128.475C150.425 128.475 157.514 128.475 164.607 128.475C164.607 130.798 164.607 133.116 164.607 135.439C157.518 135.439 150.425 135.439 143.336 135.439Z" fill="#FD874E"/>
<path d="M148.585 65.7247C148.568 66.9022 148.388 68.1119 148.585 69.2532C148.802 70.5353 149.36 71.757 149.77 73.0028C143.706 73.043 137.637 73.1114 131.573 73.0671C131.143 73.0671 130.395 72.2513 130.347 71.757C130.19 70.1695 130.194 68.5499 130.355 66.9665C130.407 66.4641 131.155 65.6363 131.589 65.6363C137.251 65.5961 142.918 65.6724 148.581 65.7247H148.585Z" fill="#FD874E"/>
<path d="M148.146 151.825C148.146 149.474 148.146 147.123 148.146 144.771C154.569 144.771 160.987 144.771 167.409 144.771C167.409 147.123 167.409 149.478 167.413 151.829C160.991 151.829 154.569 151.829 148.15 151.829L148.146 151.825Z" fill="#FD874E"/>
<path d="M81.5454 144.763C81.5414 147.118 81.5333 149.469 81.5293 151.824C75.3724 151.828 69.2155 151.832 63.0586 151.836C63.0586 149.473 63.0666 147.114 63.0666 144.751C69.2235 144.751 75.3844 144.759 81.5414 144.763H81.5454Z" fill="#FD874E"/>
<path d="M187.077 17.454C187.077 19.8332 187.077 22.2124 187.077 24.5915C181.057 24.5915 175.037 24.5915 169.016 24.5875C169.016 22.2124 169.016 19.8372 169.016 17.4661C172.975 17.4259 176.937 17.3857 180.896 17.3335C181.619 17.3254 182.343 17.2531 183.062 17.2129C184.401 17.2933 185.739 17.3736 187.077 17.458V17.454Z" fill="#FD874E"/>
<path d="M103.204 151.829C103.204 149.478 103.2 147.123 103.195 144.771C109.22 144.771 115.248 144.771 121.272 144.771C121.268 147.127 121.264 149.478 121.26 151.833C115.24 151.833 109.224 151.833 103.204 151.833V151.829Z" fill="#FD874E"/>
<path d="M97.9787 128.459C97.9707 130.79 97.9667 133.121 97.9586 135.452C91.9545 135.452 85.9503 135.452 79.9461 135.452C79.942 133.121 79.934 130.79 79.93 128.455C85.9462 128.455 91.9625 128.455 97.9787 128.455V128.459Z" fill="#FD874E"/>
<path d="M164.607 135.439C164.607 133.116 164.607 130.798 164.607 128.475C170.527 128.475 176.451 128.475 182.564 128.475C182.564 130.601 182.648 132.53 182.495 134.443C182.463 134.845 181.559 135.488 181.049 135.492C175.571 135.536 170.089 135.475 164.611 135.443L164.607 135.439Z" fill="#FD874E"/>
<path d="M55.0531 128.467C55.0612 130.794 55.0652 133.125 55.0732 135.452C50.4877 135.524 45.9062 135.621 41.3207 135.633C40.9871 135.633 40.6375 135.042 40.324 134.7C40.2557 134.628 40.3159 134.443 40.3039 134.311C39.8899 128.282 39.8899 128.262 45.8781 128.29C48.9364 128.306 51.9908 128.407 55.0491 128.471L55.0531 128.467Z" fill="#FD874E"/>
<path d="M167.413 151.824C167.413 149.473 167.413 147.118 167.409 144.767C172.215 144.763 177.018 144.759 181.824 144.751C181.84 147.11 181.861 149.469 181.877 151.828C177.054 151.828 172.235 151.828 167.413 151.824Z" fill="#FD874E"/>
<path d="M181.876 151.829C181.86 149.47 181.84 147.111 181.824 144.752C181.888 144.744 181.989 144.703 182.017 144.732C182.969 145.72 182.861 150.876 181.876 151.829Z" fill="#FD874E"/>
<path d="M226.414 124.67C227.077 124.634 227.744 124.561 228.407 124.561C241.103 124.553 253.798 124.553 266.494 124.557C270.123 124.557 271.658 126.048 271.658 129.593C271.662 163.669 271.662 197.749 271.658 231.825C271.658 235.346 270.171 236.841 266.695 236.841C251.994 236.841 237.293 236.841 222.592 236.837C221.993 236.837 221.39 236.788 220.791 236.764C219.582 235.293 219.558 233.569 219.538 231.769C219.521 230.314 220.08 229.972 221.406 230.008C224.384 230.085 227.366 230.065 230.344 230.004C230.907 229.992 231.461 229.611 232.02 229.402C242.694 229.402 253.372 229.402 264.159 229.402V132.113C263.251 132.113 262.467 132.113 261.679 132.113C249.784 132.085 237.892 132.057 225.996 132.024C226.132 129.573 226.269 127.125 226.406 124.674L226.414 124.67Z" fill="#FD874E"/>
<path d="M232.024 229.396C231.465 229.609 230.911 229.991 230.348 229.999C227.37 230.06 224.388 230.08 221.41 230.003C220.08 229.971 219.521 230.309 219.541 231.764C219.561 233.56 219.585 235.288 220.795 236.759C215.386 236.783 209.972 236.868 204.563 236.811C202.268 236.787 200.922 235.316 200.733 233.021C200.689 232.491 200.717 231.952 200.717 231.418C200.717 197.607 200.717 163.796 200.717 129.986C200.717 125.617 201.794 124.528 206.158 124.544C211.97 124.564 217.777 124.616 223.588 124.653C223.03 124.862 222.471 125.247 221.908 125.255C218.392 125.312 214.875 125.243 211.363 125.328C210.768 125.344 209.691 125.886 209.683 126.204C209.643 128.193 208.775 130.4 210.752 132.023C209.976 132.096 209.201 132.164 208.429 132.236V229.292C209.438 229.292 210.302 229.292 211.162 229.292C218.115 229.324 225.067 229.36 232.02 229.396H232.024Z" fill="#FD874E"/>
<path d="M210.756 132.027C208.783 130.399 209.647 128.197 209.687 126.208C209.695 125.89 210.772 125.347 211.367 125.331C214.88 125.247 218.4 125.315 221.913 125.259C222.475 125.251 223.03 124.865 223.593 124.656C224.533 124.66 225.473 124.664 226.414 124.668C226.277 127.12 226.141 129.567 226.004 132.019C220.92 132.019 215.84 132.023 210.756 132.027Z" fill="#FD874E"/>
<path d="M73.0979 188.56C80.3279 188.56 87.5578 188.556 94.7838 188.552C103.742 188.544 112.704 188.536 121.662 188.528C124.736 188.617 127.815 188.705 130.889 188.798C130.889 191.844 130.889 194.894 130.889 197.941C104.939 197.941 78.9856 197.941 53.0357 197.941C53.0357 194.89 53.0357 191.84 53.0357 188.79C58.7988 188.753 64.5619 188.721 70.3249 188.673C71.2493 188.665 72.1736 188.597 73.0979 188.556V188.56Z" fill="#FFC290"/>
<path d="M98.7862 17.7191C91.5642 17.7191 84.3423 17.7191 77.1164 17.7191C67.4872 17.7191 57.854 17.7191 48.2247 17.7191C40.2352 17.7111 32.2497 17.7071 24.2602 17.695C23.5328 17.695 22.8014 17.6267 22.0739 17.5865C22.7853 17.3775 23.4966 16.9917 24.208 16.9877C33.8171 16.9435 43.4302 16.9515 53.0393 16.9435C75.5129 16.9435 97.9864 16.9435 120.456 16.9395C126.179 16.9435 131.902 16.9395 137.625 16.9716C138.324 16.9756 139.019 17.1926 139.714 17.3132C139.019 17.4378 138.328 17.6628 137.633 17.6709C132.175 17.7111 126.717 17.7071 121.256 17.7151C113.764 17.7151 106.273 17.7151 98.7821 17.7191H98.7862Z" fill="#FFC290"/>
<path d="M223.609 158.396C232.784 158.355 241.959 158.311 251.134 158.291C252.653 158.291 254.176 158.404 255.695 158.468C256.041 158.617 256.387 158.765 256.732 158.918C258.497 159.4 258.85 160.827 258.854 162.338C258.882 174.592 258.915 186.845 258.794 199.099C258.782 200.212 257.697 201.313 257.11 202.418C256.773 202.587 256.435 202.76 256.097 202.929C255.904 202.981 255.716 203.077 255.523 203.077C244.885 203.065 234.243 203.045 223.605 203.025C223.705 200.393 222.725 197.399 226.02 195.839H251.166V165.553H223.621C223.617 163.166 223.613 160.779 223.609 158.391V158.396Z" fill="#FD874E"/>
<path d="M223.608 158.396C223.612 160.783 223.617 163.17 223.621 165.558C222.736 165.706 221.848 165.859 220.968 166.008V195.43C222.744 195.574 224.38 195.707 226.02 195.844C222.724 197.399 223.701 200.397 223.604 203.029C221.607 203.066 219.61 203.138 217.612 203.126C214.94 203.106 213.445 201.651 213.36 198.93C213.288 196.599 213.34 194.264 213.34 191.929C213.34 182.461 213.34 172.988 213.34 163.52C213.34 159.565 214.642 158.271 218.621 158.279C220.285 158.279 221.945 158.36 223.608 158.4V158.396Z" fill="#FD874E"/>
<path d="M256.732 158.914C256.386 158.765 256.041 158.617 255.695 158.464C256.041 158.613 256.386 158.761 256.732 158.914Z" fill="#FD874E"/>
<path d="M226.02 195.843C224.384 195.71 222.748 195.574 220.968 195.429V166.007C221.848 165.858 222.732 165.705 223.621 165.557C232.751 165.557 241.878 165.557 251.166 165.557V195.843H226.02ZM221.929 180.519C224.943 183.726 227.688 186.869 230.69 189.75C232.317 191.314 234.359 190.884 236.027 189.172C237.88 187.267 239.76 185.386 241.621 183.485C244.499 180.539 247.372 177.585 250.808 174.053C249.088 172.638 247.601 171.3 245.978 170.158C245.568 169.869 244.507 169.957 244.105 170.299C242.795 171.404 241.649 172.702 240.44 173.932C238.024 176.383 235.605 178.835 233.073 181.403C231.429 179.667 230.019 178.075 228.479 176.621C228.09 176.251 227.037 175.982 226.727 176.223C225.12 177.489 223.657 178.939 221.933 180.515L221.929 180.519Z" fill="#FFC290"/>
<path d="M221.929 180.515C223.653 178.936 225.116 177.489 226.723 176.223C227.033 175.982 228.086 176.251 228.476 176.621C230.015 178.076 231.426 179.667 233.069 181.403C235.605 178.831 238.02 176.38 240.436 173.932C241.645 172.706 242.791 171.404 244.101 170.299C244.507 169.957 245.564 169.869 245.974 170.158C247.601 171.3 249.088 172.638 250.805 174.053C247.364 177.585 244.495 180.539 241.617 183.485C239.761 185.386 237.88 187.267 236.023 189.172C234.359 190.884 232.318 191.314 230.686 189.75C227.684 186.873 224.939 183.726 221.925 180.519L221.929 180.515Z" fill="#FD874E"/>
</g>
<defs>
<filter id="filter0_d_767_1135" x="0.392451" y="0" width="282.603" height="256.531" filterUnits="userSpaceOnUse" color-interpolation-filters="sRGB">
<feFlood flood-opacity="0" result="BackgroundImageFix"/>
<feColorMatrix in="SourceAlpha" type="matrix" values="0 0 0 0 0 0 0 0 0 0 0 0 0 0 0 0 0 0 127 0" result="hardAlpha"/>
<feOffset dy="1.60755"/>
<feGaussianBlur stdDeviation="0.803774"/>
<feComposite in2="hardAlpha" operator="out"/>
<feColorMatrix type="matrix" values="0 0 0 0 0 0 0 0 0 0 0 0 0 0 0 0 0 0 0.25 0"/>
<feBlend mode="normal" in2="BackgroundImageFix" result="effect1_dropShadow_767_1135"/>
<feBlend mode="normal" in="SourceGraphic" in2="effect1_dropShadow_767_1135" result="shape"/>
</filter>
</defs>
</svg>
