<svg width="15" height="15" viewBox="0 0 15 15" fill="none" xmlns="http://www.w3.org/2000/svg">
<path d="M8.3273 0.208984C9.14741 0.211171 9.56366 0.215545 9.92305 0.225751L10.0645 0.230854C10.2278 0.236686 10.3889 0.243976 10.5835 0.252723C11.3591 0.289172 11.8884 0.411642 12.3527 0.591701C12.8339 0.776862 13.2392 1.02763 13.6445 1.43222C14.0152 1.79663 14.302 2.23744 14.485 2.72398C14.6651 3.18834 14.7876 3.71758 14.824 4.49395C14.8327 4.68786 14.84 4.84896 14.8459 5.01298L14.8502 5.15441C14.8612 5.51306 14.8656 5.92931 14.867 6.74942L14.8677 7.29324V8.24821C14.8695 8.77993 14.8639 9.31166 14.851 9.84322L14.8466 9.98465C14.8408 10.1487 14.8335 10.3098 14.8247 10.5037C14.7883 11.28 14.6644 11.8086 14.485 12.2737C14.3025 12.7605 14.0156 13.2014 13.6445 13.5654C13.28 13.936 12.8392 14.2228 12.3527 14.4059C11.8884 14.586 11.3591 14.7085 10.5835 14.7449C10.4105 14.753 10.2375 14.7603 10.0645 14.7668L9.92305 14.7711C9.56366 14.7814 9.14741 14.7865 8.3273 14.7879L7.78348 14.7886H6.82924C6.29728 14.7905 5.76531 14.7849 5.2335 14.7719L5.09208 14.7675C4.91902 14.7609 4.74601 14.7534 4.57304 14.7449C3.7974 14.7085 3.26816 14.586 2.80307 14.4059C2.3166 14.2232 1.87596 13.9364 1.51204 13.5654C1.14102 13.2011 0.853934 12.7603 0.670795 12.2737C0.490737 11.8093 0.368267 11.28 0.331818 10.5037C0.323697 10.3307 0.316407 10.1577 0.309949 9.98465L0.306304 9.84322C0.29287 9.31166 0.286795 8.77994 0.288079 8.24821V6.74942C0.286045 6.2177 0.291391 5.68598 0.304117 5.15441L0.30922 5.01298C0.315052 4.84896 0.322342 4.68786 0.331089 4.49395C0.367538 3.71758 0.490008 3.18907 0.670066 2.72398C0.853124 2.23695 1.14079 1.796 1.51277 1.43222C1.8766 1.06151 2.31694 0.774666 2.80307 0.591701C3.26816 0.411642 3.79667 0.289172 4.57304 0.252723C4.76695 0.243976 4.92878 0.236686 5.09208 0.230854L5.2335 0.22648C5.76507 0.213528 6.29679 0.207939 6.82851 0.209713L8.3273 0.208984ZM7.57791 3.8539C6.61122 3.8539 5.68412 4.23792 5.00057 4.92147C4.31701 5.60502 3.93299 6.53212 3.93299 7.49881C3.93299 8.46551 4.31701 9.3926 5.00057 10.0762C5.68412 10.7597 6.61122 11.1437 7.57791 11.1437C8.5446 11.1437 9.4717 10.7597 10.1553 10.0762C10.8388 9.3926 11.2228 8.46551 11.2228 7.49881C11.2228 6.53212 10.8388 5.60502 10.1553 4.92147C9.4717 4.23792 8.5446 3.8539 7.57791 3.8539ZM7.57791 5.31187C7.8651 5.31182 8.1495 5.36834 8.41485 5.4782C8.6802 5.58806 8.92131 5.74911 9.12442 5.95215C9.32753 6.15519 9.48866 6.39625 9.59861 6.66157C9.70856 6.92688 9.76517 7.21126 9.76522 7.49845C9.76527 7.78564 9.70875 8.07004 9.59889 8.33539C9.48903 8.60074 9.32798 8.84185 9.12494 9.04496C8.9219 9.24807 8.68083 9.4092 8.41552 9.51915C8.15021 9.6291 7.86583 9.68572 7.57864 9.68576C6.99862 9.68576 6.44236 9.45535 6.03223 9.04522C5.6221 8.63509 5.39169 8.07883 5.39169 7.49881C5.39169 6.9188 5.6221 6.36254 6.03223 5.95241C6.44236 5.54227 6.99862 5.31187 7.57864 5.31187M11.4058 2.76042C11.1641 2.76042 10.9324 2.85643 10.7615 3.02732C10.5906 3.19821 10.4946 3.42998 10.4946 3.67165C10.4946 3.91333 10.5906 4.1451 10.7615 4.31599C10.9324 4.48688 11.1641 4.58288 11.4058 4.58288C11.6475 4.58288 11.8792 4.48688 12.0501 4.31599C12.221 4.1451 12.317 3.91333 12.317 3.67165C12.317 3.42998 12.221 3.19821 12.0501 3.02732C11.8792 2.85643 11.6475 2.76042 11.4058 2.76042Z" fill="url(#paint0_linear_767_1168)"/>
<defs>
<linearGradient id="paint0_linear_767_1168" x1="7.57786" y1="0.208984" x2="7.57786" y2="14.789" gradientUnits="userSpaceOnUse">
<stop stop-color="#FFE1C9"/>
<stop offset="1" stop-color="#FFC291"/>
</linearGradient>
</defs>
</svg>
