<svg width="360" height="229" viewBox="0 0 360 229" fill="none" xmlns="http://www.w3.org/2000/svg">
<g filter="url(#filter0_d_2306_5038)">
<path fill-rule="evenodd" clip-rule="evenodd" d="M262.343 80.3003H282.05C322.229 80.3003 354.8 112.871 354.8 153.05C354.8 193.229 322.229 225.8 282.05 225.8H74.7498C34.5712 225.8 2 193.229 2 153.05C2 112.871 34.5712 80.3003 74.7498 80.3003H99.5572C101.177 35.7822 136.998 0.200195 180.95 0.200195C224.902 0.200195 260.723 35.7822 262.343 80.3003Z" fill="#FD874E"/>
<g filter="url(#filter1_d_2306_5038)">
<rect x="159.2" y="65.0007" width="5.81552" height="21.3031" rx="2.90776" fill="#FFC290"/>
<rect x="175.422" y="65.0007" width="5.81552" height="21.3031" rx="2.90776" fill="#FFC290"/>
<rect x="191.645" y="65.0007" width="5.81552" height="21.3031" rx="2.90776" fill="#FFC290"/>
<rect x="159.8" y="140" width="5.81552" height="21.3031" rx="2.90776" fill="#FFC290"/>
<rect x="176.022" y="140" width="5.81552" height="21.3031" rx="2.90776" fill="#FFC290"/>
<rect x="192.245" y="140" width="5.81552" height="21.3031" rx="2.90776" fill="#FFC290"/>
<rect x="205.7" y="132.059" width="5.8155" height="21.3032" rx="2.90775" transform="rotate(-90 205.7 132.059)" fill="#FFC290"/>
<rect x="205.7" y="115.836" width="5.8155" height="21.3032" rx="2.90775" transform="rotate(-90 205.7 115.836)" fill="#FFC290"/>
<rect x="205.7" y="99.6143" width="5.8155" height="21.3032" rx="2.90775" transform="rotate(-90 205.7 99.6143)" fill="#FFC290"/>
<rect x="130.7" y="132.059" width="5.8155" height="21.3032" rx="2.90775" transform="rotate(-90 130.7 132.059)" fill="#FFC290"/>
<rect x="130.7" y="115.836" width="5.8155" height="21.3032" rx="2.90775" transform="rotate(-90 130.7 115.836)" fill="#FFC290"/>
<rect x="130.7" y="99.6143" width="5.8155" height="21.3032" rx="2.90775" transform="rotate(-90 130.7 99.6143)" fill="#FFC290"/>
<rect x="145.008" y="78.8643" width="67.9848" height="68.4409" rx="15" fill="#FFC290"/>
<rect x="149" y="82.7007" width="60" height="60.4025" rx="15" fill="#FD874E"/>
<rect x="156.8" y="90.5" width="45" height="45.3019" rx="15" fill="#FFC290"/>
</g>
<g filter="url(#filter2_d_2306_5038)">
<path d="M276.322 28.7339C286.025 19.4246 299.187 13.7011 313.7 13.7011C328.212 13.7011 341.375 19.4246 351.078 28.7339C352.878 30.4495 355.718 30.3933 357.434 28.6073C359.15 26.8214 359.093 23.9667 357.308 22.2511C346.001 11.3808 330.631 4.70117 313.7 4.70117C296.769 4.70117 281.398 11.3808 270.078 22.2371C268.292 23.9667 268.236 26.8074 269.951 28.6073C271.667 30.4073 274.522 30.4636 276.308 28.7339H276.322ZM313.7 36.2011C321.687 36.2011 328.972 39.1683 334.54 44.076C336.411 45.7214 339.251 45.5385 340.897 43.6823C342.542 41.8261 342.359 38.9714 340.503 37.3261C333.359 31.0261 323.965 27.2011 313.7 27.2011C303.434 27.2011 294.04 31.0261 286.911 37.3261C285.04 38.9714 284.872 41.812 286.517 43.6823C288.162 45.5526 291.003 45.7214 292.873 44.076C298.428 39.1683 305.712 36.2011 313.714 36.2011H313.7ZM322.7 58.701C322.7 56.3141 321.752 54.0249 320.064 52.3371C318.376 50.6492 316.087 49.701 313.7 49.701C311.313 49.701 309.024 50.6492 307.336 52.3371C305.648 54.0249 304.7 56.3141 304.7 58.701C304.7 61.0879 305.648 63.3771 307.336 65.0649C309.024 66.7528 311.313 67.701 313.7 67.701C316.087 67.701 318.376 66.7528 320.064 65.0649C321.752 63.3771 322.7 61.0879 322.7 58.701Z" fill="#F7805B"/>
</g>
<g filter="url(#filter3_d_2306_5038)">
<path fill-rule="evenodd" clip-rule="evenodd" d="M248.6 194.57C250.904 193.496 252.5 191.159 252.5 188.45C252.5 184.722 249.478 181.7 245.75 181.7C242.022 181.7 239 184.722 239 188.45C239 191.159 240.597 193.496 242.9 194.57V225.799H248.6V194.57Z" fill="#FFC290"/>
</g>
<g filter="url(#filter4_d_2306_5038)">
<path fill-rule="evenodd" clip-rule="evenodd" d="M79.7 194.57C82.0036 193.496 83.6 191.159 83.6 188.45C83.6 184.722 80.5779 181.7 76.85 181.7C73.1221 181.7 70.1 184.722 70.1 188.45C70.1 191.159 71.6964 193.496 74 194.57V225.799H79.7V194.57Z" fill="#FFC290"/>
</g>
<g filter="url(#filter5_d_2306_5038)">
<path fill-rule="evenodd" clip-rule="evenodd" d="M266.3 180.471C268.604 179.396 270.2 177.06 270.2 174.35C270.2 170.622 267.178 167.6 263.45 167.6C259.722 167.6 256.7 170.622 256.7 174.35C256.7 177.06 258.296 179.396 260.6 180.471V225.8H266.3V180.471Z" fill="#FFC290"/>
</g>
<g filter="url(#filter6_d_2306_5038)">
<path fill-rule="evenodd" clip-rule="evenodd" d="M97.4001 180.471C99.7036 179.396 101.3 177.06 101.3 174.35C101.3 170.622 98.278 167.6 94.55 167.6C90.8221 167.6 87.8 170.622 87.8 174.35C87.8 177.06 89.3965 179.396 91.7001 180.471V225.8H97.4001V180.471Z" fill="#FFC290"/>
</g>
<g filter="url(#filter7_d_2306_5038)">
<path fill-rule="evenodd" clip-rule="evenodd" d="M284 203.57C286.304 202.496 287.9 200.159 287.9 197.45C287.9 193.722 284.878 190.7 281.15 190.7C277.422 190.7 274.4 193.722 274.4 197.45C274.4 200.159 275.996 202.496 278.3 203.57V225.799H284V203.57Z" fill="#FFC290"/>
</g>
<g filter="url(#filter8_d_2306_5038)">
<path fill-rule="evenodd" clip-rule="evenodd" d="M115.1 203.57C117.404 202.496 119 200.159 119 197.45C119 193.722 115.978 190.7 112.25 190.7C108.522 190.7 105.5 193.722 105.5 197.45C105.5 200.159 107.096 202.496 109.4 203.57V225.799H115.1V203.57Z" fill="#FFC290"/>
</g>
<g filter="url(#filter9_d_2306_5038)">
<path d="M158.141 214.052C156.971 214.052 156.139 213.883 155.645 213.545C155.151 213.181 154.852 212.726 154.748 212.18C154.644 211.608 154.592 211.036 154.592 210.464V190.301C154.592 189.729 154.644 189.17 154.748 188.624C154.852 188.078 155.151 187.636 155.645 187.298C156.139 186.934 156.984 186.752 158.18 186.752C159.376 186.752 160.208 186.934 160.676 187.298C161.17 187.636 161.469 188.078 161.573 188.624C161.677 189.17 161.729 189.742 161.729 190.34V210.503C161.729 211.075 161.677 211.634 161.573 212.18C161.469 212.726 161.17 213.181 160.676 213.545C160.182 213.883 159.337 214.052 158.141 214.052ZM173.751 214.403C172.555 214.403 171.346 214.169 170.124 213.701C168.902 213.207 167.771 212.518 166.731 211.634C165.717 210.724 164.898 209.645 164.274 208.397C163.676 207.123 163.377 205.706 163.377 204.146C163.377 202.716 163.65 201.377 164.196 200.129C164.742 198.881 165.483 197.789 166.419 196.853C167.381 195.891 168.473 195.137 169.695 194.591C170.943 194.045 172.269 193.772 173.673 193.772C175.597 193.772 177.339 194.24 178.899 195.176C180.459 196.086 181.707 197.321 182.643 198.881C183.579 200.441 184.047 202.183 184.047 204.107C184.047 205.745 183.735 207.201 183.111 208.475C182.487 209.749 181.668 210.828 180.654 211.712C179.64 212.596 178.522 213.259 177.3 213.701C176.104 214.169 174.921 214.403 173.751 214.403ZM173.673 207.266C174.063 207.266 174.505 207.175 174.999 206.993C175.519 206.785 175.961 206.447 176.325 205.979C176.715 205.511 176.91 204.874 176.91 204.068C176.91 203.418 176.767 202.859 176.481 202.391C176.221 201.923 175.844 201.559 175.35 201.299C174.856 201.039 174.284 200.909 173.634 200.909C173.062 200.909 172.542 201.052 172.074 201.338C171.606 201.598 171.229 201.975 170.943 202.469C170.657 202.937 170.514 203.483 170.514 204.107C170.514 204.887 170.696 205.511 171.06 205.979C171.424 206.447 171.853 206.785 172.347 206.993C172.841 207.175 173.283 207.266 173.673 207.266ZM201.304 186.713C201.798 186.713 202.266 186.752 202.708 186.83C203.15 186.908 203.514 187.155 203.8 187.571C204.112 187.987 204.268 188.702 204.268 189.716C204.268 190.704 204.112 191.419 203.8 191.861C203.514 192.277 203.137 192.524 202.669 192.602C202.227 192.68 201.759 192.719 201.265 192.719H195.883V210.581C195.883 211.153 195.831 211.712 195.727 212.258C195.623 212.778 195.324 213.207 194.83 213.545C194.362 213.883 193.53 214.052 192.334 214.052C191.19 214.052 190.371 213.883 189.877 213.545C189.383 213.181 189.084 212.739 188.98 212.219C188.902 211.673 188.863 211.114 188.863 210.542V192.719H183.443C182.975 192.719 182.507 192.68 182.039 192.602C181.597 192.498 181.22 192.238 180.908 191.822C180.622 191.406 180.479 190.691 180.479 189.677C180.479 188.689 180.622 187.987 180.908 187.571C181.22 187.155 181.61 186.908 182.078 186.83C182.546 186.752 183.014 186.713 183.482 186.713H201.304Z" fill="#FFE1CA"/>
</g>
</g>
<defs>
<filter id="filter0_d_2306_5038" x="0.800002" y="0.200195" width="359.085" height="228" filterUnits="userSpaceOnUse" color-interpolation-filters="sRGB">
<feFlood flood-opacity="0" result="BackgroundImageFix"/>
<feColorMatrix in="SourceAlpha" type="matrix" values="0 0 0 0 0 0 0 0 0 0 0 0 0 0 0 0 0 0 127 0" result="hardAlpha"/>
<feOffset dy="1.2"/>
<feGaussianBlur stdDeviation="0.599999"/>
<feComposite in2="hardAlpha" operator="out"/>
<feColorMatrix type="matrix" values="0 0 0 0 0 0 0 0 0 0 0 0 0 0 0 0 0 0 0.25 0"/>
<feBlend mode="normal" in2="BackgroundImageFix" result="effect1_dropShadow_2306_5038"/>
<feBlend mode="normal" in="SourceGraphic" in2="effect1_dropShadow_2306_5038" result="shape"/>
</filter>
<filter id="filter1_d_2306_5038" x="129.5" y="65.0007" width="98.7032" height="98.7025" filterUnits="userSpaceOnUse" color-interpolation-filters="sRGB">
<feFlood flood-opacity="0" result="BackgroundImageFix"/>
<feColorMatrix in="SourceAlpha" type="matrix" values="0 0 0 0 0 0 0 0 0 0 0 0 0 0 0 0 0 0 127 0" result="hardAlpha"/>
<feOffset dy="1.2"/>
<feGaussianBlur stdDeviation="0.599999"/>
<feComposite in2="hardAlpha" operator="out"/>
<feColorMatrix type="matrix" values="0 0 0 0 0 0 0 0 0 0 0 0 0 0 0 0 0 0 0.25 0"/>
<feBlend mode="normal" in2="BackgroundImageFix" result="effect1_dropShadow_2306_5038"/>
<feBlend mode="normal" in="SourceGraphic" in2="effect1_dropShadow_2306_5038" result="shape"/>
</filter>
<filter id="filter2_d_2306_5038" x="267.501" y="4.70117" width="92.3842" height="65.3998" filterUnits="userSpaceOnUse" color-interpolation-filters="sRGB">
<feFlood flood-opacity="0" result="BackgroundImageFix"/>
<feColorMatrix in="SourceAlpha" type="matrix" values="0 0 0 0 0 0 0 0 0 0 0 0 0 0 0 0 0 0 127 0" result="hardAlpha"/>
<feOffset dy="1.2"/>
<feGaussianBlur stdDeviation="0.599999"/>
<feComposite in2="hardAlpha" operator="out"/>
<feColorMatrix type="matrix" values="0 0 0 0 0 0 0 0 0 0 0 0 0 0 0 0 0 0 0.25 0"/>
<feBlend mode="normal" in2="BackgroundImageFix" result="effect1_dropShadow_2306_5038"/>
<feBlend mode="normal" in="SourceGraphic" in2="effect1_dropShadow_2306_5038" result="shape"/>
</filter>
<filter id="filter3_d_2306_5038" x="237.8" y="180.5" width="15.9" height="46.4996" filterUnits="userSpaceOnUse" color-interpolation-filters="sRGB">
<feFlood flood-opacity="0" result="BackgroundImageFix"/>
<feColorMatrix in="SourceAlpha" type="matrix" values="0 0 0 0 0 0 0 0 0 0 0 0 0 0 0 0 0 0 127 0" result="hardAlpha"/>
<feOffset/>
<feGaussianBlur stdDeviation="0.599999"/>
<feComposite in2="hardAlpha" operator="out"/>
<feColorMatrix type="matrix" values="0 0 0 0 0 0 0 0 0 0 0 0 0 0 0 0 0 0 0.25 0"/>
<feBlend mode="normal" in2="BackgroundImageFix" result="effect1_dropShadow_2306_5038"/>
<feBlend mode="normal" in="SourceGraphic" in2="effect1_dropShadow_2306_5038" result="shape"/>
</filter>
<filter id="filter4_d_2306_5038" x="68.9" y="180.5" width="15.9" height="46.4996" filterUnits="userSpaceOnUse" color-interpolation-filters="sRGB">
<feFlood flood-opacity="0" result="BackgroundImageFix"/>
<feColorMatrix in="SourceAlpha" type="matrix" values="0 0 0 0 0 0 0 0 0 0 0 0 0 0 0 0 0 0 127 0" result="hardAlpha"/>
<feOffset/>
<feGaussianBlur stdDeviation="0.599999"/>
<feComposite in2="hardAlpha" operator="out"/>
<feColorMatrix type="matrix" values="0 0 0 0 0 0 0 0 0 0 0 0 0 0 0 0 0 0 0.25 0"/>
<feBlend mode="normal" in2="BackgroundImageFix" result="effect1_dropShadow_2306_5038"/>
<feBlend mode="normal" in="SourceGraphic" in2="effect1_dropShadow_2306_5038" result="shape"/>
</filter>
<filter id="filter5_d_2306_5038" x="255.5" y="166.4" width="15.9" height="60.5997" filterUnits="userSpaceOnUse" color-interpolation-filters="sRGB">
<feFlood flood-opacity="0" result="BackgroundImageFix"/>
<feColorMatrix in="SourceAlpha" type="matrix" values="0 0 0 0 0 0 0 0 0 0 0 0 0 0 0 0 0 0 127 0" result="hardAlpha"/>
<feOffset/>
<feGaussianBlur stdDeviation="0.599999"/>
<feComposite in2="hardAlpha" operator="out"/>
<feColorMatrix type="matrix" values="0 0 0 0 0 0 0 0 0 0 0 0 0 0 0 0 0 0 0.25 0"/>
<feBlend mode="normal" in2="BackgroundImageFix" result="effect1_dropShadow_2306_5038"/>
<feBlend mode="normal" in="SourceGraphic" in2="effect1_dropShadow_2306_5038" result="shape"/>
</filter>
<filter id="filter6_d_2306_5038" x="86.6001" y="166.4" width="15.9" height="60.5997" filterUnits="userSpaceOnUse" color-interpolation-filters="sRGB">
<feFlood flood-opacity="0" result="BackgroundImageFix"/>
<feColorMatrix in="SourceAlpha" type="matrix" values="0 0 0 0 0 0 0 0 0 0 0 0 0 0 0 0 0 0 127 0" result="hardAlpha"/>
<feOffset/>
<feGaussianBlur stdDeviation="0.599999"/>
<feComposite in2="hardAlpha" operator="out"/>
<feColorMatrix type="matrix" values="0 0 0 0 0 0 0 0 0 0 0 0 0 0 0 0 0 0 0.25 0"/>
<feBlend mode="normal" in2="BackgroundImageFix" result="effect1_dropShadow_2306_5038"/>
<feBlend mode="normal" in="SourceGraphic" in2="effect1_dropShadow_2306_5038" result="shape"/>
</filter>
<filter id="filter7_d_2306_5038" x="273.2" y="189.5" width="15.9" height="37.4996" filterUnits="userSpaceOnUse" color-interpolation-filters="sRGB">
<feFlood flood-opacity="0" result="BackgroundImageFix"/>
<feColorMatrix in="SourceAlpha" type="matrix" values="0 0 0 0 0 0 0 0 0 0 0 0 0 0 0 0 0 0 127 0" result="hardAlpha"/>
<feOffset/>
<feGaussianBlur stdDeviation="0.599999"/>
<feComposite in2="hardAlpha" operator="out"/>
<feColorMatrix type="matrix" values="0 0 0 0 0 0 0 0 0 0 0 0 0 0 0 0 0 0 0.25 0"/>
<feBlend mode="normal" in2="BackgroundImageFix" result="effect1_dropShadow_2306_5038"/>
<feBlend mode="normal" in="SourceGraphic" in2="effect1_dropShadow_2306_5038" result="shape"/>
</filter>
<filter id="filter8_d_2306_5038" x="104.3" y="189.5" width="15.9" height="37.4996" filterUnits="userSpaceOnUse" color-interpolation-filters="sRGB">
<feFlood flood-opacity="0" result="BackgroundImageFix"/>
<feColorMatrix in="SourceAlpha" type="matrix" values="0 0 0 0 0 0 0 0 0 0 0 0 0 0 0 0 0 0 127 0" result="hardAlpha"/>
<feOffset/>
<feGaussianBlur stdDeviation="0.599999"/>
<feComposite in2="hardAlpha" operator="out"/>
<feColorMatrix type="matrix" values="0 0 0 0 0 0 0 0 0 0 0 0 0 0 0 0 0 0 0.25 0"/>
<feBlend mode="normal" in2="BackgroundImageFix" result="effect1_dropShadow_2306_5038"/>
<feBlend mode="normal" in="SourceGraphic" in2="effect1_dropShadow_2306_5038" result="shape"/>
</filter>
<filter id="filter9_d_2306_5038" x="153.392" y="186.713" width="52.0764" height="30.0899" filterUnits="userSpaceOnUse" color-interpolation-filters="sRGB">
<feFlood flood-opacity="0" result="BackgroundImageFix"/>
<feColorMatrix in="SourceAlpha" type="matrix" values="0 0 0 0 0 0 0 0 0 0 0 0 0 0 0 0 0 0 127 0" result="hardAlpha"/>
<feOffset dy="1.2"/>
<feGaussianBlur stdDeviation="0.599999"/>
<feComposite in2="hardAlpha" operator="out"/>
<feColorMatrix type="matrix" values="0 0 0 0 0 0 0 0 0 0 0 0 0 0 0 0 0 0 0.25 0"/>
<feBlend mode="normal" in2="BackgroundImageFix" result="effect1_dropShadow_2306_5038"/>
<feBlend mode="normal" in="SourceGraphic" in2="effect1_dropShadow_2306_5038" result="shape"/>
</filter>
</defs>
</svg>
