<svg width="568" height="564" viewBox="0 0 568 564" fill="none" xmlns="http://www.w3.org/2000/svg">
<g style="mix-blend-mode:plus-darker">
<path fill-rule="evenodd" clip-rule="evenodd" d="M567.881 6.1138H415.232L368.462 52.8844H441.701C443.065 47.4396 447.991 43.4072 453.859 43.4072C460.781 43.4072 466.392 49.0186 466.392 55.9405C466.392 62.8625 460.781 68.4738 453.859 68.4738C447.992 68.4738 443.066 64.4422 441.701 58.9982H361.082H285.314L316.953 90.6371H416.598C417.908 85.1152 422.871 81.0072 428.793 81.0072C435.715 81.0072 441.327 86.6186 441.327 93.5405C441.327 100.462 435.715 106.074 428.793 106.074C422.981 106.074 418.093 102.117 416.675 96.7509H315.687H314.421L313.525 95.8556L276.668 58.9982H237.779L171.597 125.18H265.518C266.714 119.505 271.75 115.245 277.781 115.245C284.703 115.245 290.315 120.857 290.315 127.779C290.315 134.701 284.703 140.312 277.781 140.312C272.08 140.312 267.268 136.505 265.748 131.294H164.217H67.5098L132.705 196.489C134.684 195.18 137.057 194.418 139.608 194.418C146.53 194.418 152.141 200.03 152.141 206.952C152.141 213.874 146.53 219.485 139.608 219.485C132.686 219.485 127.074 213.874 127.074 206.952C127.074 204.799 127.617 202.773 128.573 201.003L58.8636 131.294H-12.7773V125.18H60.1298H162.951L234.352 53.7798L235.247 52.8844H236.513H277.934H359.816L411.805 0.895346L412.7 0H413.966H567.881V6.1138ZM566.353 557.886H413.704L366.933 511.115H439.524C441.186 516.089 445.882 519.674 451.415 519.674C458.336 519.674 463.948 514.063 463.948 507.141C463.948 500.219 458.336 494.607 451.415 494.607C445.222 494.607 440.078 499.098 439.063 505.001H359.553H283.786L315.425 473.362H414.046C415.264 479.032 420.316 483.273 426.347 483.25C433.269 483.223 438.859 477.591 438.833 470.669C438.806 463.747 433.174 458.157 426.252 458.183C420.55 458.205 415.751 462.031 414.252 467.248H314.158H312.892L311.997 468.144L275.139 505.001H236.251L170.069 438.819H262.912C264.33 444.185 269.218 448.141 275.03 448.141C281.952 448.141 287.563 442.53 287.563 435.608C287.563 428.686 281.952 423.075 275.03 423.075C269.107 423.075 264.144 427.183 262.834 432.705H162.689H65.9814L133.67 365.017L129.347 360.694L57.3352 432.705H-14V438.819H58.6014H161.423L232.823 510.22L233.718 511.115H234.985H276.406H358.287L410.276 563.104L411.172 563.999H412.438H566.353V557.886ZM133.188 206.952C133.188 203.406 136.062 200.532 139.608 200.532C143.153 200.532 146.027 203.406 146.027 206.952C146.027 210.497 143.153 213.371 139.608 213.371C136.062 213.371 133.188 210.497 133.188 206.952ZM428.793 87.121C425.248 87.121 422.374 89.9952 422.374 93.5405C422.374 97.0859 425.248 99.96 428.793 99.96C432.339 99.96 435.213 97.0859 435.213 93.5405C435.213 89.9952 432.339 87.121 428.793 87.121ZM447.439 55.9405C447.439 52.3951 450.313 49.521 453.859 49.521C457.404 49.521 460.278 52.3951 460.278 55.9405C460.278 59.4859 457.404 62.36 453.859 62.36C450.313 62.36 447.439 59.4859 447.439 55.9405ZM182.842 193.939L99.5199 277.262H-2.07864V283.375H99.5199L173.672 357.527L174.567 358.422H175.833H246.251L306.035 418.207L306.931 419.102H308.197H405.629C406.994 424.546 411.919 428.578 417.787 428.578C424.709 428.578 430.32 422.967 430.32 416.045C430.32 409.123 424.709 403.512 417.787 403.512C411.919 403.512 406.993 407.544 405.629 412.988H309.463L254.897 358.422H418.245V352.309H247.517H177.099L108.166 283.375H442.395V277.262H108.166L186.27 199.158H216.261H246.251L287.388 240.295L288.284 241.19H289.55H363.001C364.139 246.941 369.211 251.278 375.296 251.278C382.218 251.278 387.829 245.666 387.829 238.744C387.829 231.822 382.218 226.211 375.296 226.211C369.65 226.211 364.876 229.944 363.308 235.076H290.816L254.897 199.158H275.958C277.827 203.73 282.32 206.952 287.565 206.952C294.487 206.952 300.098 201.341 300.098 194.419C300.098 187.497 294.487 181.885 287.565 181.885C281.107 181.885 275.79 186.769 275.106 193.044H247.517H223.641L258.566 158.119H415.43C416.822 163.524 421.728 167.518 427.568 167.518C434.49 167.518 440.101 161.906 440.101 154.984C440.101 148.062 434.49 142.451 427.568 142.451C421.673 142.451 416.728 146.521 415.391 152.005H257.3H256.033L255.138 152.9L214.994 193.044H185.004H183.738L182.842 193.939ZM411.367 416.045C411.367 412.499 414.241 409.625 417.787 409.625C421.332 409.625 424.206 412.499 424.206 416.045C424.206 419.59 421.332 422.464 417.787 422.464C414.241 422.464 411.367 419.59 411.367 416.045ZM426.275 464.297C422.73 464.311 419.866 467.196 419.88 470.741C419.893 474.286 422.778 477.149 426.324 477.136C429.869 477.122 432.732 474.237 432.719 470.692C432.705 467.147 429.82 464.284 426.275 464.297ZM444.995 507.141C444.995 503.595 447.869 500.721 451.415 500.721C454.96 500.721 457.834 503.595 457.834 507.141C457.834 510.686 454.96 513.56 451.415 513.56C447.869 513.56 444.995 510.686 444.995 507.141ZM275.03 429.189C271.485 429.189 268.61 432.063 268.61 435.608C268.61 439.154 271.485 442.028 275.03 442.028C278.575 442.028 281.449 439.154 281.449 435.608C281.449 432.063 278.575 429.189 275.03 429.189ZM368.876 238.744C368.876 235.199 371.751 232.325 375.296 232.325C378.841 232.325 381.715 235.199 381.715 238.744C381.715 242.29 378.841 245.164 375.296 245.164C371.751 245.164 368.876 242.29 368.876 238.744ZM287.565 187.999C284.019 187.999 281.145 190.873 281.145 194.419C281.145 197.964 284.019 200.838 287.565 200.838C291.11 200.838 293.984 197.964 293.984 194.419C293.984 190.873 291.11 187.999 287.565 187.999ZM271.362 127.779C271.362 124.233 274.236 121.359 277.781 121.359C281.327 121.359 284.201 124.233 284.201 127.779C284.201 131.324 281.327 134.198 277.781 134.198C274.236 134.198 271.362 131.324 271.362 127.779ZM427.568 148.565C424.023 148.565 421.149 151.439 421.149 154.984C421.149 158.53 424.023 161.404 427.568 161.404C431.113 161.404 433.988 158.53 433.988 154.984C433.988 151.439 431.113 148.565 427.568 148.565Z" fill="url(#paint0_linear_1235_768)"/>
</g>
<defs>
<linearGradient id="paint0_linear_1235_768" x1="-14.1187" y1="282" x2="745.381" y2="274.5" gradientUnits="userSpaceOnUse">
<stop offset="0.085" stop-color="#6F56B4"/>
<stop offset="0.315" stop-color="#FD874E"/>
<stop offset="1" stop-color="#97512F" stop-opacity="0"/>
</linearGradient>
</defs>
</svg>
