<svg width="23" height="23" viewBox="0 0 23 23" fill="none" xmlns="http://www.w3.org/2000/svg">
<path fill-rule="evenodd" clip-rule="evenodd" d="M11.7502 0.807617C17.7621 0.807617 23 4.90591 23 10.3699C23 13.134 21.497 15.5223 19.4012 17.446C17.3009 19.3753 14.4974 20.9447 11.6051 22.1023C11.3148 22.2192 10.991 22.2214 10.6991 22.1084C10.4073 21.9954 10.1693 21.7756 10.0335 21.4937C9.91654 21.2473 9.88729 20.9841 9.87941 20.7174L9.87492 20.1156C9.87255 20.0495 9.86804 19.9834 9.86141 19.9176C9.82317 19.525 9.71967 19.2763 9.3068 19.2032C4.4919 18.364 0.500488 15.1398 0.500488 10.3699C0.500488 4.90591 5.73838 0.807617 11.7502 0.807617ZM14.0002 7.55747C13.7018 7.55747 13.4157 7.676 13.2047 7.88697C12.9938 8.09795 12.8752 8.38409 12.8752 8.68245V8.95019L12.0517 7.96246C11.9037 7.78497 11.7046 7.65737 11.4815 7.59701C11.2584 7.53666 11.0222 7.54649 10.8048 7.62515C10.5875 7.70382 10.3997 7.84751 10.2669 8.03668C10.1342 8.22586 10.0629 8.45133 10.0628 8.68245V12.0574C10.0628 12.3557 10.1813 12.6419 10.3923 12.8529C10.6033 13.0638 10.8894 13.1824 11.1878 13.1824C11.4861 13.1824 11.7723 13.0638 11.9832 12.8529C12.1942 12.6419 12.3127 12.3557 12.3127 12.0574V11.7896L13.1362 12.7774C13.2842 12.9549 13.4833 13.0825 13.7064 13.1428C13.9295 13.2032 14.1658 13.1933 14.3831 13.1147C14.6004 13.036 14.7882 12.8923 14.921 12.7031C15.0538 12.514 15.1251 12.2885 15.1252 12.0574V8.68245C15.1252 8.38409 15.0067 8.09795 14.7957 7.88697C14.5847 7.676 14.2986 7.55747 14.0002 7.55747ZM5.00039 7.55747C4.70203 7.55747 4.41589 7.676 4.20491 7.88697C3.99394 8.09795 3.87542 8.38409 3.87542 8.68245V12.0574C3.87542 12.3557 3.99394 12.6419 4.20491 12.8529C4.41589 13.0638 4.70203 13.1824 5.00039 13.1824H6.12537C6.42373 13.1824 6.70987 13.0638 6.92085 12.8529C7.13182 12.6419 7.25035 12.3557 7.25035 12.0574C7.25035 11.759 7.13182 11.4729 6.92085 11.2619C6.70987 11.0509 6.42373 10.9324 6.12537 10.9324V8.68245C6.12537 8.38409 6.00684 8.09795 5.79587 7.88697C5.5849 7.676 5.29876 7.55747 5.00039 7.55747ZM8.37532 7.55747C8.09978 7.55751 7.83383 7.65867 7.62792 7.84177C7.42201 8.02487 7.29046 8.27718 7.25822 8.55083L7.25035 8.68245V12.0574C7.25066 12.3441 7.36046 12.6199 7.55729 12.8284C7.75413 13.0369 8.02315 13.1624 8.30939 13.1792C8.59563 13.196 8.87749 13.1028 9.09737 12.9188C9.31725 12.7348 9.45856 12.4737 9.49242 12.189L9.5003 12.0574V8.68245C9.5003 8.38409 9.38177 8.09795 9.1708 7.88697C8.95983 7.676 8.67368 7.55747 8.37532 7.55747ZM18.5001 7.55747H16.8126C16.5371 7.55751 16.2711 7.65867 16.0652 7.84177C15.8593 8.02487 15.7278 8.27718 15.6955 8.55083L15.6877 8.68245V12.0574C15.6877 12.3329 15.7889 12.5989 15.972 12.8048C16.1551 13.0107 16.4074 13.1422 16.681 13.1745L16.8126 13.1824H18.5001C18.7868 13.182 19.0626 13.0722 19.2711 12.8754C19.4796 12.6786 19.6051 12.4095 19.6219 12.1233C19.6387 11.8371 19.5456 11.5552 19.3615 11.3353C19.1775 11.1155 18.9165 10.9741 18.6317 10.9403L18.5001 10.9324H18.3494C18.4363 10.7827 18.4873 10.6149 18.4985 10.4421C18.5096 10.2694 18.4805 10.0964 18.4135 9.9368L18.3494 9.80743H18.5001C18.7868 9.80711 19.0626 9.69731 19.2711 9.50048C19.4796 9.30364 19.6051 9.03462 19.6219 8.74838C19.6387 8.46214 19.5456 8.18028 19.3615 7.9604C19.1775 7.74052 18.9165 7.59921 18.6317 7.56535L18.5001 7.55747Z" fill="#F77F5A"/>
</svg>
