<svg width="23" height="13" viewBox="0 0 23 13" fill="none" xmlns="http://www.w3.org/2000/svg">
<path d="M2.9111 12.3002C2.37944 12.3002 1.92446 12.1111 1.54617 11.7328C1.16788 11.3545 0.978414 10.8992 0.97777 10.3669C0.977125 9.83455 1.16659 9.37958 1.54617 9.00193C1.92575 8.62429 2.38073 8.43482 2.9111 8.43353H3.16534C3.23751 8.43353 3.31388 8.44964 3.39444 8.48186L7.79277 4.08353C7.76055 4.00297 7.74444 3.92629 7.74444 3.85346V3.6002C7.74444 3.06853 7.9339 2.61355 8.31284 2.23526C8.69177 1.85697 9.14675 1.66751 9.67777 1.66686C10.2088 1.66622 10.6641 1.85569 11.0437 2.23526C11.4232 2.61484 11.6124 3.06982 11.6111 3.6002C11.6111 3.63242 11.595 3.79353 11.5628 4.08353L14.0278 6.54853C14.1083 6.51631 14.185 6.5002 14.2578 6.5002H14.7653C14.8375 6.5002 14.9139 6.51631 14.9944 6.54853L18.4261 3.11686C18.3939 3.03631 18.3778 2.95962 18.3778 2.8868V2.63353C18.3778 2.10186 18.5672 1.64689 18.9462 1.2686C19.3251 0.890308 19.7801 0.700841 20.3111 0.700197C20.8421 0.699553 21.2974 0.889019 21.677 1.2686C22.0566 1.64817 22.2457 2.10315 22.2444 2.63353C22.2431 3.16391 22.054 3.61921 21.677 3.99943C21.3 4.37965 20.8447 4.5688 20.3111 4.56686H20.0578C19.985 4.56686 19.9083 4.55075 19.8278 4.51853L16.3961 7.9502C16.4283 8.03075 16.4444 8.10744 16.4444 8.18026V8.43353C16.4444 8.9652 16.2553 9.4205 15.877 9.79943C15.4987 10.1784 15.0434 10.3675 14.5111 10.3669C13.9788 10.3662 13.5238 10.1771 13.1462 9.79943C12.7685 9.42179 12.5791 8.96649 12.5778 8.43353V8.18026C12.5778 8.10744 12.5939 8.03075 12.6261 7.9502L10.1611 5.4852C10.0805 5.51742 10.0039 5.53353 9.93104 5.53353H9.67777C9.64555 5.53353 9.48444 5.51742 9.19444 5.4852L4.7961 9.88353C4.82832 9.96409 4.84444 10.0408 4.84444 10.1136V10.3669C4.84444 10.8985 4.65529 11.3538 4.277 11.7328C3.89871 12.1117 3.44341 12.3008 2.9111 12.3002Z" fill="url(#paint0_linear_1530_14)"/>
<defs>
<linearGradient id="paint0_linear_1530_14" x1="11.6111" y1="0.700195" x2="11.6111" y2="12.3002" gradientUnits="userSpaceOnUse">
<stop stop-color="#FFE1C9"/>
<stop offset="1" stop-color="#FFC291"/>
</linearGradient>
</defs>
</svg>
