<svg width="24" height="23" viewBox="0 0 24 23" fill="none" xmlns="http://www.w3.org/2000/svg">
<path d="M18.0916 0.807617H5.95472C4.49855 0.807617 3.10203 1.38608 2.07236 2.41574C1.04269 3.44541 0.464233 4.84194 0.464233 6.2981V16.7011C0.464233 17.4221 0.606249 18.1361 0.882172 18.8022C1.15809 19.4684 1.56252 20.0737 2.07236 20.5835C3.10203 21.6132 4.49855 22.1916 5.95472 22.1916H18.0916C19.5468 22.1886 20.9416 21.6091 21.9706 20.5801C22.9996 19.5511 23.579 18.1564 23.5821 16.7011V6.2981C23.579 4.84287 22.9996 3.44812 21.9706 2.41912C20.9416 1.39011 19.5468 0.810671 18.0916 0.807617ZM13.8726 10.4246C13.3039 10.749 12.6605 10.9195 12.0058 10.9195C11.3511 10.9195 10.7077 10.749 10.139 10.4246L2.22119 5.88198C2.32357 4.9634 2.761 4.11479 3.44981 3.49849C4.13861 2.88219 5.03045 2.54145 5.95472 2.54145H18.0916C19.0151 2.54399 19.9056 2.8856 20.5939 3.50142C21.2822 4.11725 21.7203 4.96439 21.8251 5.88198L13.8726 10.4246Z" fill="#F77F5A"/>
</svg>
