<svg width="29" height="28" viewBox="0 0 29 28" fill="none" xmlns="http://www.w3.org/2000/svg">
<path id="Vector" d="M21.7622 0.800781H6.77838C4.98064 0.800781 3.25653 1.51493 1.98534 2.78612C0.714149 4.05731 0 5.78142 0 7.57916V20.4224C0 21.3125 0.175328 22.194 0.515973 23.0164C0.856619 23.8388 1.35591 24.586 1.98534 25.2154C3.25653 26.4866 4.98064 27.2008 6.77838 27.2008H21.7622C23.5587 27.197 25.2807 26.4816 26.551 25.2113C27.8214 23.9409 28.5368 22.219 28.5405 20.4224V7.57916C28.5368 5.78258 27.8214 4.06066 26.551 2.79029C25.2807 1.51991 23.5587 0.804552 21.7622 0.800781ZM16.5535 12.6736C15.8514 13.074 15.0571 13.2846 14.2489 13.2846C13.4406 13.2846 12.6463 13.074 11.9442 12.6736L2.16908 7.06543C2.29548 5.93137 2.83551 4.88372 3.68589 4.12285C4.53627 3.36199 5.6373 2.94132 6.77838 2.94132H21.7622C22.9024 2.94445 24.0017 3.36619 24.8514 4.12647C25.7011 4.88674 26.2421 5.9326 26.3715 7.06543L16.5535 12.6736Z" fill="#FFE1C9"/>
</svg>
