<svg width="52" height="53" viewBox="0 0 52 53" fill="none" xmlns="http://www.w3.org/2000/svg">
<g filter="url(#filter0_d_767_712)">
<path d="M12.5979 11.9788C13.1489 9.60931 15.1327 7.57044 16.0695 6.90918C21.1391 7.57044 17.5389 23.8447 15.0776 31.7614C15.2429 14.6789 13.0938 12.4748 12.5979 11.9788Z" fill="url(#paint0_linear_767_712)"/>
<path d="M9.07108 11.9815C2.56873 23.1127 5.26886 35.1806 7.52815 40.0298C6.86689 24.325 11.0591 12.227 16.0736 6.88184C13.2633 7.92883 10.2834 10.7141 9.07108 11.9815Z" fill="url(#paint1_linear_767_712)"/>
<g filter="url(#filter1_d_767_712)">
<path d="M29.1288 13.1908C29.8957 10.2316 31.388 7.51504 34.8596 6.30273C39.7089 10.3805 34.6943 26.5813 30.837 36.5001C31.0574 20.5197 29.4594 13.9623 29.1288 13.1908Z" fill="url(#paint2_linear_767_712)"/>
</g>
<path d="M20.9739 6.24709C11.9918 22.7785 16.9513 40.1365 21.525 48.2369C22.9577 34.7362 26.815 9.77379 34.8603 6.30219C28.6886 4.42863 23.1781 4.09801 20.9739 6.24709Z" fill="url(#paint3_linear_767_712)"/>
<path d="M43.4011 16.1105C44.1946 15.1847 45.3849 15.6329 45.8809 15.8901C48.4157 20.574 46.1013 30.3826 44.2828 35.6175C45.6053 22.8884 44.2828 18.0392 43.4011 16.1105Z" fill="url(#paint4_linear_767_712)"/>
<path d="M39.4886 10.2721C32.4903 15.7826 32.6556 30.4404 36.8436 44.6023C38.4416 25.2055 41.6928 13.7988 45.8808 15.8928C43.3459 11.5946 41.0315 9.66593 39.4886 10.2721Z" fill="url(#paint5_linear_767_712)"/>
</g>
<defs>
<filter id="filter0_d_767_712" x="0.692307" y="0.455003" width="50.6152" height="52.09" filterUnits="userSpaceOnUse" color-interpolation-filters="sRGB">
<feFlood flood-opacity="0" result="BackgroundImageFix"/>
<feColorMatrix in="SourceAlpha" type="matrix" values="0 0 0 0 0 0 0 0 0 0 0 0 0 0 0 0 0 0 127 0" result="hardAlpha"/>
<feOffset/>
<feGaussianBlur stdDeviation="2.15385"/>
<feComposite in2="hardAlpha" operator="out"/>
<feColorMatrix type="matrix" values="0 0 0 0 1 0 0 0 0 1 0 0 0 0 1 0 0 0 0.15 0"/>
<feBlend mode="normal" in2="BackgroundImageFix" result="effect1_dropShadow_767_712"/>
<feBlend mode="normal" in="SourceGraphic" in2="effect1_dropShadow_767_712" result="shape"/>
</filter>
<filter id="filter1_d_767_712" x="28.9716" y="6.30273" width="8.04446" height="30.5115" filterUnits="userSpaceOnUse" color-interpolation-filters="sRGB">
<feFlood flood-opacity="0" result="BackgroundImageFix"/>
<feColorMatrix in="SourceAlpha" type="matrix" values="0 0 0 0 0 0 0 0 0 0 0 0 0 0 0 0 0 0 127 0" result="hardAlpha"/>
<feOffset dy="0.157128"/>
<feGaussianBlur stdDeviation="0.0785638"/>
<feComposite in2="hardAlpha" operator="out"/>
<feColorMatrix type="matrix" values="0 0 0 0 0 0 0 0 0 0 0 0 0 0 0 0 0 0 0.25 0"/>
<feBlend mode="normal" in2="BackgroundImageFix" result="effect1_dropShadow_767_712"/>
<feBlend mode="normal" in="SourceGraphic" in2="effect1_dropShadow_767_712" result="shape"/>
</filter>
<linearGradient id="paint0_linear_767_712" x1="15.6154" y1="6.90918" x2="15.6154" y2="31.7614" gradientUnits="userSpaceOnUse">
<stop offset="0.03" stop-color="#132777"/>
<stop offset="0.356667" stop-color="#E14CB3"/>
<stop offset="0.826667" stop-color="#FF944B"/>
</linearGradient>
<linearGradient id="paint1_linear_767_712" x1="10.5347" y1="6.85679" x2="10.5347" y2="40.0298" gradientUnits="userSpaceOnUse">
<stop stop-color="#455ECE"/>
<stop offset="0.424" stop-color="#E14CB3"/>
<stop offset="1" stop-color="#FF944B"/>
</linearGradient>
<linearGradient id="paint2_linear_767_712" x1="32.9939" y1="6.30273" x2="32.9939" y2="36.5001" gradientUnits="userSpaceOnUse">
<stop offset="0.055" stop-color="#132777"/>
<stop offset="0.414" stop-color="#E14CB3"/>
<stop offset="0.826667" stop-color="#FFA567"/>
</linearGradient>
<linearGradient id="paint3_linear_767_712" x1="25.4147" y1="4.7627" x2="21.8071" y2="47.2484" gradientUnits="userSpaceOnUse">
<stop stop-color="#455ECE"/>
<stop offset="0.369974" stop-color="#E14CB3"/>
<stop offset="1" stop-color="#FF9437"/>
</linearGradient>
<linearGradient id="paint4_linear_767_712" x1="45.2005" y1="15.5527" x2="45.2005" y2="35.6175" gradientUnits="userSpaceOnUse">
<stop offset="0.045" stop-color="#132777"/>
<stop offset="0.444" stop-color="#E14CB3"/>
<stop offset="0.826667" stop-color="#FBAD67"/>
</linearGradient>
<linearGradient id="paint5_linear_767_712" x1="39.9" y1="10.1631" x2="39.9" y2="44.6023" gradientUnits="userSpaceOnUse">
<stop stop-color="#455ECE"/>
<stop offset="0.439" stop-color="#E14CB3"/>
<stop offset="1" stop-color="#FF9B44"/>
</linearGradient>
</defs>
</svg>
