<svg width="70" height="70" viewBox="0 0 70 70" fill="none" xmlns="http://www.w3.org/2000/svg">
<g clip-path="url(#clip0_767_1077)">
<path fill-rule="evenodd" clip-rule="evenodd" d="M46.8416 31.9079C47.6609 32.7282 48.1211 33.8402 48.1211 34.9996C48.1211 36.159 47.6609 37.2709 46.8416 38.0912L30.345 54.5937C29.5242 55.4141 28.4112 55.8748 27.2508 55.8745C26.0904 55.8743 24.9776 55.413 24.1573 54.5923C23.3369 53.7716 22.8762 52.6586 22.8765 51.4981C22.8767 50.3377 23.338 49.2249 24.1587 48.4046L37.5637 34.9996L24.1587 21.5946C23.3614 20.7698 22.9199 19.6649 22.9293 18.5178C22.9387 17.3707 23.3983 16.2731 24.2091 15.4616C25.0199 14.65 26.117 14.1894 27.2641 14.1789C28.4112 14.1684 29.5165 14.6089 30.342 15.4054L46.8445 31.905L46.8416 31.9079Z" fill="#58206B"/>
</g>
<defs>
<clipPath id="clip0_767_1077">
<rect width="70" height="70" fill="white"/>
</clipPath>
</defs>
</svg>
