<svg width="13" height="16" viewBox="0 0 13 16" fill="none" xmlns="http://www.w3.org/2000/svg">
<path d="M4.11598 6.13405C4.12382 5.53386 4.36574 4.96046 4.79017 4.53603C5.21461 4.11159 5.78801 3.86968 6.3882 3.86183C6.98839 3.86968 7.56179 4.11159 7.98622 4.53603C8.41066 4.96046 8.65257 5.53386 8.66042 6.13405C8.65257 6.73424 8.41066 7.30764 7.98622 7.73208C7.56179 8.15651 6.98839 8.39843 6.3882 8.40627C5.78801 8.39843 5.21461 8.15651 4.79017 7.73208C4.36574 7.30764 4.12382 6.73424 4.11598 6.13405ZM6.3882 12.9507L9.41782 13.7081V11.3753C8.50415 11.9255 7.45464 12.2089 6.3882 12.1933C5.32175 12.2089 4.27225 11.9255 3.35857 11.3753V13.7081M6.3882 1.58961C5.79134 1.57872 5.19855 1.69002 4.64629 1.91666C4.09402 2.14329 3.59395 2.48048 3.17679 2.9075C2.74516 3.32511 2.40407 3.82707 2.17474 4.38215C1.94541 4.93723 1.83275 5.53356 1.84376 6.13405C1.83587 6.73074 1.95005 7.32274 2.17928 7.87369C2.40852 8.42464 2.74797 8.9229 3.17679 9.33788C3.592 9.76901 4.09121 10.1104 4.64356 10.341C5.19592 10.5716 5.7897 10.6864 6.3882 10.6785C6.9867 10.6864 7.58047 10.5716 8.13283 10.341C8.68519 10.1104 9.18439 9.76901 9.5996 9.33788C10.0284 8.9229 10.3679 8.42464 10.5971 7.87369C10.8263 7.32274 10.9405 6.73074 10.9326 6.13405C10.9436 5.53356 10.831 4.93723 10.6017 4.38215C10.3723 3.82707 10.0312 3.32511 9.5996 2.9075C9.18245 2.48048 8.68237 2.14329 8.1301 1.91666C7.57784 1.69002 6.98506 1.57872 6.3882 1.58961ZM12.4474 6.13405C12.432 6.86115 12.2857 7.57952 12.0157 8.25479C11.7737 8.94237 11.4065 9.57922 10.9326 10.1332V15.9803L6.3882 14.4655L1.84376 15.9803V10.1332C0.863439 9.03223 0.324023 7.60818 0.328945 6.13405C0.315596 5.33922 0.465306 4.55008 0.768834 3.81536C1.07236 3.08065 1.52326 2.41594 2.0937 1.86228C2.64941 1.28673 3.31719 0.831172 4.05581 0.523739C4.79443 0.216305 5.58823 0.0635156 6.3882 0.0748013C7.18817 0.0635156 7.98196 0.216305 8.72058 0.523739C9.45921 0.831172 10.127 1.28673 10.6827 1.86228C11.2531 2.41594 11.704 3.08065 12.0076 3.81536C12.3111 4.55008 12.4608 5.33922 12.4474 6.13405Z" fill="url(#paint0_linear_1768_1059)"/>
<defs>
<linearGradient id="paint0_linear_1768_1059" x1="6.3882" y1="0.0742188" x2="5.73817" y2="35.2395" gradientUnits="userSpaceOnUse">
<stop stop-color="#FD874E"/>
<stop offset="1" stop-color="#FFC290"/>
</linearGradient>
</defs>
</svg>
