<svg width="19" height="16" viewBox="0 0 19 16" fill="none" xmlns="http://www.w3.org/2000/svg">
<path fill-rule="evenodd" clip-rule="evenodd" d="M0.270563 11.3469V11.3424C0.270563 9.30147 1.43328 7.53198 3.12125 6.64702C2.3134 5.9539 1.79456 4.92647 1.78419 3.7812L1.78407 3.7675L1.78419 3.76751C1.80305 1.68393 3.50487 -0.00964445 5.56816 -0.00964445C7.18367 -0.00964445 8.56095 0.945288 9.1378 2.26683C9.20899 2.26279 9.28046 2.26076 9.35215 2.26076C9.42384 2.26076 9.49531 2.26279 9.5665 2.26683C10.1434 0.945288 11.5206 -0.00964445 13.1361 -0.00964445C15.1994 -0.00964445 16.9013 1.68393 16.9201 3.76751L16.9202 3.7812L16.9201 3.7812C16.9097 4.92647 16.3909 5.95391 15.5831 6.64702C17.271 7.53198 18.4337 9.30146 18.4337 11.3424V11.3452C18.0255 11.8887 17.5696 12.3943 17.0722 12.856H16.9201V11.3424C16.9201 9.25442 15.2087 7.55835 13.1361 7.55835H12.8202C12.6328 7.98776 12.3656 8.38273 12.0278 8.72044C11.9581 8.79019 11.8859 8.85694 11.8115 8.92059C12.2815 9.16692 12.716 9.48465 13.0981 9.86679C14.0916 10.8603 14.6497 12.2077 14.6497 13.6128V14.5761C14.1649 14.8324 13.6594 15.0546 13.1361 15.2396V13.6128C13.1361 12.6092 12.7375 11.6467 12.0278 10.9371C11.3182 10.2274 10.3557 9.82875 9.35215 9.82875C8.34857 9.82875 7.3861 10.2274 6.67646 10.9371C5.96683 11.6467 5.56816 12.6092 5.56816 13.6128V15.24C5.04496 15.0551 4.53936 14.833 4.05456 14.5768V13.6128C4.05456 12.2077 4.6127 10.8603 5.60619 9.86679C5.98832 9.48465 6.42283 9.16692 6.89283 8.92059C6.8184 8.85694 6.74621 8.79019 6.67646 8.72044C6.33875 8.38273 6.07147 7.98776 5.88406 7.55835H5.56816C3.49564 7.55835 1.78416 9.25442 1.78416 11.3424V12.856H1.63075C1.13393 12.3948 0.67848 11.8898 0.270563 11.3469ZM6.67646 3.36906C5.96683 4.0787 5.56816 5.04117 5.56816 6.04475C4.34612 6.04475 3.31289 5.03266 3.2978 3.77435C3.31289 2.51605 4.34612 1.50395 5.56816 1.50395C6.4975 1.50395 7.26308 2.00291 7.64633 2.66706C7.29108 2.84646 6.96314 3.08238 6.67646 3.36906ZM15.4065 3.77435C15.3914 5.03266 14.3582 6.04475 13.1361 6.04475C13.1361 5.04117 12.7375 4.0787 12.0278 3.36906C11.7412 3.08238 11.4132 2.84646 11.058 2.66706C11.4412 2.00291 12.2068 1.50395 13.1361 1.50395C14.3582 1.50395 15.3914 2.51605 15.4065 3.77435ZM7.74674 4.43934C8.17252 4.01356 8.75001 3.77435 9.35215 3.77435C9.9543 3.77435 10.5318 4.01356 10.9576 4.43934C11.3833 4.86512 11.6225 5.44261 11.6225 6.04475C11.6225 6.6469 11.3833 7.22439 10.9576 7.65017C10.5318 8.07595 9.9543 8.31515 9.35215 8.31515C8.75001 8.31515 8.17252 8.07595 7.74674 7.65017C7.32096 7.22439 7.08176 6.6469 7.08176 6.04475C7.08176 5.44261 7.32096 4.86512 7.74674 4.43934Z" fill="url(#paint0_linear_1768_1051)"/>
<defs>
<linearGradient id="paint0_linear_1768_1051" x1="9.3521" y1="-0.00976562" x2="9.36139" y2="29.2457" gradientUnits="userSpaceOnUse">
<stop stop-color="#F77F5A"/>
<stop offset="1" stop-color="#FFC291"/>
</linearGradient>
</defs>
</svg>
