<svg width="19" height="20" viewBox="0 0 19 20" fill="none" xmlns="http://www.w3.org/2000/svg">
<path d="M9.50055 1.5C9.23533 1.5 8.98098 1.60536 8.79344 1.79289C8.60591 1.98043 8.50055 2.23478 8.50055 2.5V10.002C8.5006 10.1238 8.47097 10.2438 8.41424 10.3516C8.3575 10.4594 8.27537 10.5517 8.17493 10.6207C8.07449 10.6896 7.95878 10.733 7.8378 10.7472C7.71681 10.7614 7.59419 10.7459 7.48055 10.702L4.96755 9.736C4.40075 9.51758 3.77886 9.48665 3.19319 9.64774C2.60752 9.80882 2.08892 10.1534 1.71355 10.631C7.20155 13.092 9.27055 15.441 10.1905 17.464C10.5205 18.189 11.1675 18.577 11.7685 18.484L15.2245 17.952C15.468 17.9143 15.6948 17.8056 15.8767 17.6394C16.0585 17.4732 16.1872 17.2571 16.2465 17.018L17.3995 12.385C17.5084 11.9474 17.5249 11.492 17.4482 11.0477C17.3715 10.6034 17.2032 10.1799 16.9539 9.80418C16.7047 9.42844 16.38 9.10868 16.0005 8.86521C15.621 8.62175 15.195 8.45991 14.7495 8.39L11.1335 7.821C10.9572 7.79316 10.7966 7.70334 10.6806 7.5677C10.5646 7.43207 10.5007 7.25949 10.5005 7.081V2.5C10.5005 2.23478 10.3952 1.98043 10.2077 1.79289C10.0201 1.60536 9.76577 1.5 9.50055 1.5ZM7.00055 2.5C7.00055 1.83696 7.26394 1.20107 7.73278 0.732233C8.20162 0.263392 8.83751 0 9.50055 0C10.1636 0 10.7995 0.263392 11.2683 0.732233C11.7372 1.20107 12.0005 1.83696 12.0005 2.5V6.44L14.9835 6.908C15.6346 7.01029 16.2572 7.24695 16.8119 7.60291C17.3665 7.95887 17.841 8.42635 18.2052 8.97562C18.5693 9.5249 18.8152 10.1439 18.9272 10.7934C19.0392 11.4428 19.0148 12.1085 18.8555 12.748L17.7025 17.38C17.5717 17.906 17.2883 18.3816 16.888 18.747C16.4877 19.1125 15.9883 19.3515 15.4525 19.434L11.9975 19.967C10.5555 20.189 9.35155 19.241 8.82455 18.085C8.08955 16.468 6.29755 14.251 0.634549 11.795C0.501056 11.737 0.381009 11.652 0.28196 11.5453C0.182911 11.4387 0.107002 11.3127 0.0590067 11.1753C0.0110116 11.0379 -0.00803089 10.892 0.00307658 10.7469C0.0141841 10.6018 0.0552012 10.4605 0.123549 10.332C0.623799 9.40106 1.44655 8.68464 2.43743 8.31715C3.42832 7.94967 4.51925 7.95637 5.50555 8.336L7.00055 8.91V2.5Z" fill="#FE874F"/>
</svg>
