<svg width="15" height="15" viewBox="0 0 15 15" fill="none" xmlns="http://www.w3.org/2000/svg">
<path d="M7.48078 8.40137C6.84679 8.40137 6.23877 8.64721 5.79048 9.08482C5.34218 9.52243 5.09033 10.116 5.09033 10.7348C5.09033 11.3537 5.34218 11.9472 5.79048 12.3848C6.23877 12.8225 6.84679 13.0683 7.48078 13.0683C8.11476 13.0683 8.72278 12.8225 9.17108 12.3848C9.61938 11.9472 9.87123 11.3537 9.87123 10.7348C9.87123 10.116 9.61938 9.52243 9.17108 9.08482C8.72278 8.64721 8.11476 8.40137 7.48078 8.40137ZM6.4563 10.7348C6.4563 10.4696 6.56424 10.2152 6.75636 10.0277C6.94849 9.84014 7.20907 9.73478 7.48078 9.73478C7.75249 9.73478 8.01307 9.84014 8.20519 10.0277C8.39732 10.2152 8.50526 10.4696 8.50526 10.7348C8.50526 11.0001 8.39732 11.2544 8.20519 11.442C8.01307 11.6295 7.75249 11.7349 7.48078 11.7349C7.20907 11.7349 6.94849 11.6295 6.75636 11.442C6.56424 11.2544 6.4563 11.0001 6.4563 10.7348Z" fill="url(#paint0_linear_1768_1033)"/>
<path d="M11.5969 3.37287L9.42567 0.401367L1.44226 6.62705L0.999689 6.62239V6.62905H0.651367V14.6295H14.994V6.62905H14.337L13.0298 2.89618L11.5969 3.37287ZM12.8939 6.62905H6.0449L11.1461 4.93162L12.1856 4.60694L12.8939 6.62905ZM10.2473 3.82223L4.98149 5.57433L9.1518 2.32214L10.2473 3.82223ZM2.01734 12.0754V9.18186C2.30548 9.08219 2.56721 8.921 2.78344 8.71004C2.99966 8.49909 3.16493 8.24369 3.2672 7.96246H12.3782C12.4804 8.24379 12.6457 8.4993 12.8619 8.71037C13.0781 8.92144 13.3399 9.08275 13.6281 9.18253V12.076C13.3399 12.1758 13.0781 12.3371 12.8619 12.5482C12.6457 12.7593 12.4804 13.0148 12.3782 13.2961H3.26856C3.16624 13.0145 3.00081 12.7588 2.78434 12.5476C2.56787 12.3364 2.30583 12.1751 2.01734 12.0754Z" fill="url(#paint1_linear_1768_1033)"/>
<defs>
<linearGradient id="paint0_linear_1768_1033" x1="7.48078" y1="8.40137" x2="7.77886" y2="18.4557" gradientUnits="userSpaceOnUse">
<stop stop-color="#F77F5A"/>
<stop offset="1" stop-color="#FFC291"/>
</linearGradient>
<linearGradient id="paint1_linear_1768_1033" x1="7.82271" y1="0.401367" x2="8.7462" y2="31.0531" gradientUnits="userSpaceOnUse">
<stop stop-color="#F77F5A"/>
<stop offset="1" stop-color="#FFC291"/>
</linearGradient>
</defs>
</svg>
