<svg width="18" height="18" viewBox="0 0 18 18" fill="none" xmlns="http://www.w3.org/2000/svg">
<path d="M4.85849 8.5478L8.83247 2.04492L12.8065 8.5478H4.85849ZM12.8065 16.4958C11.9033 16.4958 11.1357 16.1798 10.5037 15.5478C9.87173 14.9158 9.55549 14.148 9.55501 13.2443C9.55453 12.3407 9.87076 11.5731 10.5037 10.9416C11.1367 10.3101 11.9042 9.99385 12.8065 9.99289C13.7087 9.99192 14.4765 10.3082 15.1099 10.9416C15.7433 11.575 16.0593 12.3426 16.0579 13.2443C16.0564 14.1461 15.7405 14.9139 15.1099 15.5478C14.4794 16.1817 13.7116 16.4977 12.8065 16.4958ZM2.32959 16.1345V10.3542H8.10993V16.1345H2.32959ZM12.8065 15.0507C13.3122 15.0507 13.7397 14.8761 14.089 14.5268C14.4382 14.1776 14.6128 13.7501 14.6128 13.2443C14.6128 12.7385 14.4382 12.311 14.089 11.9618C13.7397 11.6126 13.3122 11.438 12.8065 11.438C12.3007 11.438 11.8732 11.6126 11.5239 11.9618C11.1747 12.311 11.0001 12.7385 11.0001 13.2443C11.0001 13.7501 11.1747 14.1776 11.5239 14.5268C11.8732 14.8761 12.3007 15.0507 12.8065 15.0507ZM3.77467 14.6894H6.66484V11.7992H3.77467V14.6894ZM7.42351 7.10272H10.2414L8.83247 4.82671L7.42351 7.10272Z" fill="url(#paint0_linear_1768_1044)"/>
<defs>
<linearGradient id="paint0_linear_1768_1044" x1="9.19374" y1="2.04492" x2="8.76437" y2="34.5308" gradientUnits="userSpaceOnUse">
<stop stop-color="#F77F5A"/>
<stop offset="1" stop-color="#FFE1CA"/>
</linearGradient>
</defs>
</svg>
