<svg width="12" height="13" viewBox="0 0 12 13" fill="none" xmlns="http://www.w3.org/2000/svg">
<path d="M9.77479 12.1002C9.28679 12.1002 8.60129 11.9237 7.57479 11.3502C6.32654 10.6502 5.36104 10.0039 4.11954 8.76566C2.92254 7.56941 2.34004 6.79491 1.52479 5.31141C0.603791 3.63641 0.760791 2.75841 0.936291 2.38316C1.14529 1.93466 1.45379 1.66641 1.85254 1.40016C2.07903 1.25177 2.31871 1.12456 2.56854 1.02016C2.59354 1.00941 2.61679 0.999159 2.63754 0.989909C2.76129 0.934159 2.94879 0.849909 3.18629 0.939909C3.34479 0.999409 3.48629 1.12116 3.70779 1.33991C4.16204 1.78791 4.78279 2.78566 5.01179 3.27566C5.16554 3.60591 5.26729 3.82391 5.26754 4.06841C5.26754 4.35466 5.12354 4.57541 4.94879 4.81366C4.91604 4.85841 4.88354 4.90116 4.85204 4.94266C4.66179 5.19266 4.62004 5.26491 4.64754 5.39391C4.70329 5.65316 5.11904 6.42491 5.80229 7.10666C6.48554 7.78841 7.23504 8.17791 7.49529 8.23341C7.62979 8.26216 7.70354 8.21866 7.96154 8.02166C7.99854 7.99341 8.03654 7.96416 8.07629 7.93491C8.34279 7.73666 8.55329 7.59641 8.83279 7.59641H8.83429C9.07754 7.59641 9.28579 7.70191 9.63079 7.87591C10.0808 8.10291 11.1085 8.71566 11.5593 9.17041C11.7785 9.39141 11.9008 9.53241 11.9605 9.69066C12.0505 9.92891 11.9658 10.1157 11.9105 10.2407C11.9013 10.2614 11.891 10.2842 11.8803 10.3094C11.7751 10.5588 11.6471 10.798 11.498 11.0239C11.2323 11.4214 10.963 11.7292 10.5135 11.9384C10.2827 12.0476 10.0301 12.1029 9.77479 12.1002Z" fill="#F77F5A"/>
</svg>
