<svg width="20" height="21" viewBox="0 0 20 21" fill="none" xmlns="http://www.w3.org/2000/svg">
<path d="M16.675 18.1953L17.375 17.4953L15.5 15.6203V12.8203H14.5V16.0203L16.675 18.1953ZM15 20.8203C13.6167 20.8203 12.4377 20.3326 11.463 19.3573C10.4883 18.382 10.0007 17.203 10 15.8203C9.99933 14.4376 10.487 13.2586 11.463 12.2833C12.439 11.308 13.618 10.8203 15 10.8203C16.382 10.8203 17.5613 11.308 18.538 12.2833C19.5147 13.2586 20.002 14.4376 20 15.8203C19.998 17.203 19.5103 18.3823 18.537 19.3583C17.5637 20.3343 16.3847 20.8216 15 20.8203ZM4 6.82031H14V4.82031H4V6.82031ZM8.675 18.8203H2C1.45 18.8203 0.979333 18.6246 0.588 18.2333C0.196667 17.842 0.000666667 17.371 0 16.8203V2.82031C0 2.27031 0.196 1.79965 0.588 1.40831C0.98 1.01698 1.45067 0.820979 2 0.820312H16C16.55 0.820312 17.021 1.01631 17.413 1.40831C17.805 1.80031 18.0007 2.27098 18 2.82031V9.52031C17.5167 9.28698 17.029 9.11198 16.537 8.99531C16.045 8.87865 15.5327 8.82031 15 8.82031C14.8167 8.82031 14.6457 8.82431 14.487 8.83231C14.3283 8.84031 14.166 8.86131 14 8.89531V8.82031H4V10.8203H10.125C9.825 11.1036 9.55433 11.412 9.313 11.7453C9.07167 12.0786 8.859 12.437 8.675 12.8203H4V14.8203H8.075C8.04167 14.987 8.021 15.1496 8.013 15.3083C8.005 15.467 8.00067 15.6376 8 15.8203C8 16.3703 8.05 16.883 8.15 17.3583C8.25 17.8336 8.425 18.321 8.675 18.8203Z" fill="#E8E1FB"/>
</svg>
