<svg width="1100" height="602" viewBox="0 0 1100 602" fill="none" xmlns="http://www.w3.org/2000/svg">
<mask id="path-1-inside-1_632_174" fill="white">
<path fill-rule="evenodd" clip-rule="evenodd" d="M787 30C787 13.4315 773.569 0 757 0H30C13.4315 0 0 13.4315 0 30V572C0 588.569 13.4315 602 30 602H1070C1086.57 602 1100 588.569 1100 572V108C1100 91.4315 1086.57 78 1070 78H817C800.431 78 787 64.5685 787 48V30Z"/>
</mask>
<path fill-rule="evenodd" clip-rule="evenodd" d="M787 30C787 13.4315 773.569 0 757 0H30C13.4315 0 0 13.4315 0 30V572C0 588.569 13.4315 602 30 602H1070C1086.57 602 1100 588.569 1100 572V108C1100 91.4315 1086.57 78 1070 78H817C800.431 78 787 64.5685 787 48V30Z" fill="url(#paint0_linear_632_174)"/>
<path d="M30 3H757V-3H30V3ZM3 30C3 15.0883 15.0883 3 30 3V-3C11.7746 -3 -3 11.7746 -3 30H3ZM3 572V30H-3V572H3ZM30 599C15.0883 599 3 586.912 3 572H-3C-3 590.225 11.7746 605 30 605V599ZM1070 599H30V605H1070V599ZM1097 572C1097 586.912 1084.91 599 1070 599V605C1088.23 605 1103 590.225 1103 572H1097ZM1097 108V572H1103V108H1097ZM1070 75H817V81H1070V75ZM790 48V30H784V48H790ZM817 75C802.088 75 790 62.9117 790 48H784C784 66.2254 798.775 81 817 81V75ZM1103 108C1103 89.7746 1088.23 75 1070 75V81C1084.91 81 1097 93.0883 1097 108H1103ZM757 3C771.912 3 784 15.0883 784 30H790C790 11.7746 775.225 -3 757 -3V3Z" fill="#FD874E" mask="url(#path-1-inside-1_632_174)"/>
<defs>
<linearGradient id="paint0_linear_632_174" x1="550" y1="0" x2="550" y2="903" gradientUnits="userSpaceOnUse">
<stop stop-color="#FFE1C9"/>
<stop offset="1" stop-color="#FFC291"/>
</linearGradient>
</defs>
</svg>
