<svg width="36" height="32" viewBox="0 0 36 32" fill="none" xmlns="http://www.w3.org/2000/svg">
<path d="M4 32C2.9 32 1.95867 31.6087 1.176 30.826C0.393336 30.0433 0.00133672 29.1013 3.38983e-06 28C-0.00132994 26.8987 0.39067 25.9573 1.176 25.176C1.96134 24.3947 2.90267 24.0027 4 24C5.09734 23.9973 6.03934 24.3893 6.826 25.176C7.61267 25.9627 8.004 26.904 8 28C7.996 29.096 7.60467 30.038 6.826 30.826C6.04734 31.614 5.10534 32.0053 4 32ZM4 20C2.9 20 1.95867 19.6087 1.176 18.826C0.393336 18.0433 0.00133672 17.1013 3.38983e-06 16C-0.00132994 14.8987 0.39067 13.9573 1.176 13.176C1.96134 12.3947 2.90267 12.0027 4 12C5.09734 11.9973 6.03934 12.3893 6.826 13.176C7.61267 13.9627 8.004 14.904 8 16C7.996 17.096 7.60467 18.038 6.826 18.826C6.04734 19.614 5.10534 20.0053 4 20ZM4 8.00001C2.9 8.00001 1.95867 7.60868 1.176 6.82601C0.393336 6.04335 0.00133672 5.10135 3.38983e-06 4.00001C-0.00132994 2.89868 0.39067 1.95735 1.176 1.17601C1.96134 0.39468 2.90267 0.00268018 4 1.35135e-05C5.09734 -0.00265315 6.03934 0.389346 6.826 1.17601C7.61267 1.96268 8.004 2.90401 8 4.00001C7.996 5.09601 7.60467 6.03801 6.826 6.82601C6.04734 7.61401 5.10534 8.00535 4 8.00001ZM16 8.00001C14.9 8.00001 13.9587 7.60868 13.176 6.82601C12.3933 6.04335 12.0013 5.10135 12 4.00001C11.9987 2.89868 12.3907 1.95735 13.176 1.17601C13.9613 0.39468 14.9027 0.00268018 16 1.35135e-05C17.0973 -0.00265315 18.0393 0.389346 18.826 1.17601C19.6127 1.96268 20.004 2.90401 20 4.00001C19.996 5.09601 19.6047 6.03801 18.826 6.82601C18.0473 7.61401 17.1053 8.00535 16 8.00001ZM28 8.00001C26.9 8.00001 25.9587 7.60868 25.176 6.82601C24.3933 6.04335 24.0013 5.10135 24 4.00001C23.9987 2.89868 24.3907 1.95735 25.176 1.17601C25.9613 0.39468 26.9027 0.00268018 28 1.35135e-05C29.0973 -0.00265315 30.0393 0.389346 30.826 1.17601C31.6127 1.96268 32.004 2.90401 32 4.00001C31.996 5.09601 31.6047 6.03801 30.826 6.82601C30.0473 7.61401 29.1053 8.00535 28 8.00001ZM16 20C14.9 20 13.9587 19.6087 13.176 18.826C12.3933 18.0433 12.0013 17.1013 12 16C11.9987 14.8987 12.3907 13.9573 13.176 13.176C13.9613 12.3947 14.9027 12.0027 16 12C17.0973 11.9973 18.0393 12.3893 18.826 13.176C19.6127 13.9627 20.004 14.904 20 16C19.996 17.096 19.6047 18.038 18.826 18.826C18.0473 19.614 17.1053 20.0053 16 20ZM18 32V25.85L29.05 14.85C29.35 14.55 29.6833 14.3333 30.05 14.2C30.4167 14.0667 30.7833 14 31.15 14C31.55 14 31.9333 14.0753 32.3 14.226C32.6667 14.3767 33 14.6013 33.3 14.9L35.15 16.75C35.4167 17.05 35.6253 17.3833 35.776 17.75C35.9267 18.1167 36.0013 18.4833 36 18.85C35.9987 19.2167 35.932 19.592 35.8 19.976C35.668 20.36 35.4513 20.7013 35.15 21L24.15 32H18ZM21 29H22.9L28.95 22.9L28.05 21.95L27.1 21.05L21 27.1V29ZM28.05 21.95L27.1 21.05L28.95 22.9L28.05 21.95Z" fill="white"/>
</svg>
