<svg width="31" height="27" viewBox="0 0 31 27" fill="none" xmlns="http://www.w3.org/2000/svg">
<g id="Group 389" filter="url(#filter0_d_767_1868)">
<path id="Vector" d="M24.2512 0.368927C25.32 0.367258 26.39 0.331383 27.4566 0.375184C28.3026 0.409808 28.9396 1.08768 28.9684 1.95744C28.9801 2.31119 28.9721 2.66535 28.9721 3.01909C28.9721 6.01049 28.9738 9.00147 28.9684 11.9929C28.9684 12.1943 28.998 12.2878 29.2304 12.3362C29.5904 12.4113 29.8156 12.6841 29.9474 13.027C29.9587 13.0566 29.9821 13.0816 30 13.1087V25.8135C29.8486 26.1268 29.68 26.4267 29.3309 26.5611C29.2354 26.5978 29.1327 26.6403 29.033 26.6403C27.3836 26.6441 25.7346 26.6416 24.0852 26.6403C24.1132 26.3921 24.1407 26.1435 24.1686 25.8953C24.2516 25.8928 24.3347 25.8886 24.4181 25.8886C25.8681 25.8882 27.3181 25.8886 28.7677 25.8878C29.1211 25.8878 29.2158 25.7943 29.2158 25.4506C29.2158 21.4614 29.2158 17.4726 29.2158 13.4833C29.2158 13.1313 29.144 13.0599 28.7886 13.0599C27.3874 13.0595 25.9857 13.0599 24.5845 13.0591C24.5015 13.0591 24.4189 13.0512 24.3359 13.047C24.3217 12.7967 24.308 12.5464 24.2938 12.2961C24.9107 12.2903 25.5277 12.2757 26.1443 12.284C26.3499 12.287 26.4142 12.2419 26.4133 12.0229C26.4042 9.86456 26.4075 7.70621 26.4079 5.54829C26.4079 4.69479 26.4112 3.8413 26.4129 2.98781C26.3958 2.96278 26.3787 2.93733 26.362 2.9123C25.6862 2.91022 25.0104 2.90813 24.3342 2.90604C24.3342 2.65867 24.3347 2.4113 24.3351 2.16393C25.1327 2.16018 25.9311 2.13557 26.7279 2.16226C27.0749 2.17394 27.1717 2.30993 27.1713 2.62989C27.1659 5.75227 27.168 8.87507 27.1684 11.9975C27.1684 12.0842 27.1684 12.1706 27.1684 12.2724C27.452 12.2724 27.7015 12.2603 27.9497 12.2761C28.1491 12.289 28.2088 12.2248 28.2083 12.0216C28.2025 8.73282 28.2042 5.44358 28.2037 2.15434C28.2037 1.47062 27.8521 1.12272 27.1655 1.12147C26.2081 1.11938 25.2507 1.11688 24.2929 1.11438C24.2792 0.866172 24.265 0.617549 24.2512 0.369344V0.368927Z" fill="#F77F5A"/>
<path id="Vector_2" d="M5.83938 21.7165C5.4093 21.7211 4.97963 21.7286 4.54955 21.7302C3.94551 21.7327 3.34106 21.7181 2.73786 21.7336C1.73169 21.759 0.997919 20.9301 1 19.9895C1.01419 14.0263 1.0071 8.06268 1.00751 2.09949C1.00751 1.28688 1.40548 0.71288 2.16428 0.435056C2.25438 0.402101 2.35199 0.369981 2.44627 0.369564C3.52211 0.365392 4.59794 0.367895 5.67378 0.368312C5.67378 0.615683 5.67378 0.863054 5.67336 1.11043C4.72976 1.11293 3.78575 1.11168 2.84215 1.12127C2.67195 1.12294 2.48757 1.13545 2.33489 1.20095C1.95487 1.36405 1.78759 1.66482 1.788 2.0899C1.79384 7.44738 1.79176 12.8053 1.79176 18.1628C1.79176 18.8152 1.78884 19.4676 1.79426 20.1196C1.7976 20.5293 2.09461 20.863 2.50843 20.9385C2.58768 20.9518 2.66694 20.976 2.7462 20.9765C3.77782 20.9806 4.80944 20.981 5.84064 20.9823C5.84064 21.2272 5.84064 21.4716 5.84022 21.7165H5.83938Z" fill="#F77F5A"/>
<path id="Vector_3" d="M21.752 26.6396C21.1638 26.6663 20.7116 26.2788 20.6366 25.6835C20.6474 25.6518 20.667 25.6201 20.6674 25.5884C20.6691 24.3499 20.6695 23.1118 20.6653 21.8733C20.6653 21.8253 20.6153 21.7777 20.589 21.7302C20.3241 21.7256 20.0592 21.721 19.7943 21.7164C19.7943 21.4715 19.7943 21.2267 19.7939 20.9822C20.0054 20.9806 20.2173 20.9839 20.4288 20.9739C20.483 20.9714 20.5352 20.9259 20.5886 20.9C20.5903 20.6377 20.5861 20.3748 20.5961 20.1129C20.6015 19.9744 20.549 19.931 20.4159 19.9368C20.2786 19.9431 20.1406 19.9293 20.0029 19.9243C20.0029 19.6732 20.0029 19.4217 20.0029 19.1705C20.1998 19.1643 20.3967 19.158 20.5932 19.1518C20.6182 19.075 20.6649 18.9978 20.6653 18.9211C20.6695 17.1123 20.6687 15.3031 20.6674 13.4943C20.6674 13.4122 20.6541 13.3296 20.647 13.2474C20.6941 13.0914 20.7104 12.9162 20.7934 12.7827C21.1059 12.2796 21.6019 12.2391 22.1266 12.2959C22.1266 12.4481 22.1366 12.6016 22.1241 12.7531C22.1087 12.9416 22.1909 12.9917 22.3669 12.9871C22.7478 12.9771 23.1295 12.9808 23.5103 12.9871C23.5766 12.9879 23.6421 13.0267 23.7081 13.0476C23.084 13.0517 22.4604 13.0568 21.8363 13.0597C21.4742 13.0618 21.3816 13.1519 21.3816 13.5148C21.3816 17.4827 21.3816 21.4507 21.3816 25.4186C21.3816 25.7582 21.4525 25.8387 21.7933 25.895C21.7796 26.1432 21.7654 26.3918 21.7516 26.6401L21.752 26.6396Z" fill="#F77F5A"/>
<path id="Vector_4" d="M11.463 23.6968H12.5472V21.7145C12.1638 21.7145 11.7926 21.7145 11.4213 21.7145C11.4213 21.4705 11.4213 21.2265 11.4213 20.9824C12.1434 20.9824 12.8655 20.9824 13.5876 20.9824C13.5876 21.2298 13.5876 21.4776 13.5876 21.725C13.3961 21.7083 13.3277 21.7859 13.3335 21.9861C13.3481 22.4675 13.3481 22.9501 13.3335 23.4315C13.3277 23.6318 13.3948 23.7098 13.5876 23.691C13.5458 23.9534 13.4779 24.2204 13.7123 24.4369C12.9764 24.4369 12.2406 24.4369 11.5043 24.4369C11.4905 24.1903 11.4764 23.9438 11.4626 23.6972L11.463 23.6968Z" fill="#F77F5A"/>
<path id="Vector_5" d="M18.1274 21.7154C17.9414 21.7204 17.7541 21.717 17.5693 21.7354C17.5163 21.7408 17.4633 21.803 17.4225 21.8497C17.4053 21.8693 17.4191 21.9164 17.4191 21.951C17.4191 22.5175 17.4191 23.084 17.4191 23.6981C17.6506 23.6981 17.8684 23.6981 18.0861 23.6981C18.0999 23.9446 18.1141 24.1912 18.1279 24.4377C17.4475 24.4377 16.7671 24.4377 16.0867 24.4377C16.0867 24.1891 16.0867 23.9404 16.0867 23.6922H16.6186V21.7258H16.1284C16.1284 21.4784 16.1284 21.231 16.1284 20.9833C16.7951 20.9833 17.4612 20.9828 18.1279 20.9824C18.1279 21.2269 18.1279 21.4713 18.1279 21.7158L18.1274 21.7154Z" fill="#F77F5A"/>
<path id="Vector_6" d="M18.1278 24.4369C18.1141 24.1903 18.0999 23.9438 18.0861 23.6973C18.3498 23.7002 18.6138 23.7031 18.8775 23.7064C18.9175 23.7177 18.958 23.729 18.998 23.7398C19.6046 23.8328 20.1097 24.4223 20.1352 25.0881C20.1498 25.4685 20.1435 25.8498 20.1389 26.2306C20.1356 26.4918 19.9833 26.6453 19.7272 26.6461C19.2358 26.6478 18.7444 26.6415 18.2526 26.6382C18.2526 26.3904 18.2526 26.1426 18.2526 25.8952C18.55 25.8927 18.8483 25.8786 19.1449 25.8915C19.3338 25.8998 19.391 25.8306 19.3751 25.652C19.3626 25.5077 19.3743 25.3613 19.3718 25.2161C19.3643 24.7522 19.0714 24.4577 18.6046 24.444C18.4457 24.4394 18.2864 24.439 18.1274 24.4365L18.1278 24.4369Z" fill="#F77F5A"/>
<path id="Vector_7" d="M11.463 23.6983C11.4768 23.9449 11.491 24.1914 11.5048 24.438C11.4426 24.4409 11.38 24.4409 11.3183 24.4471C10.98 24.4834 10.6851 24.6832 10.6475 24.9707C10.6087 25.2664 10.6388 25.5709 10.6388 25.8984H11.4213C11.4213 26.1458 11.4213 26.3927 11.4213 26.6401C11.0204 26.6426 10.6196 26.6501 10.2187 26.6459C10.0043 26.6439 9.84866 26.4949 9.84533 26.2822C9.83865 25.8533 9.81988 25.4224 9.85325 24.9961C9.91541 24.2056 10.6463 23.6312 11.4626 23.6988L11.463 23.6983Z" fill="#F77F5A"/>
<path id="Vector_8" d="M13.5459 0.369141C14.615 0.369141 15.6838 0.369141 16.7529 0.369141C16.7529 0.616929 16.7529 0.864717 16.7529 1.11251C15.6838 1.11251 14.6146 1.11209 13.5454 1.11167C13.5454 0.8643 13.5454 0.616512 13.5454 0.369141H13.5459Z" fill="#F77F5A"/>
<path id="Vector_9" d="M5.83937 21.7166C5.83937 21.4717 5.83937 21.2273 5.83979 20.9824C6.89518 20.9824 7.95016 20.9824 9.00555 20.9828C9.00555 21.2273 9.00555 21.4713 9.00555 21.7158C8.64013 21.7208 8.2747 21.7304 7.90928 21.73C7.21931 21.7287 6.52934 21.7212 5.83937 21.7166Z" fill="#F77F5A"/>
<path id="Vector_10" d="M8.08907 0.369141C9.03308 0.369141 9.97751 0.369141 10.9215 0.369141C10.9215 0.616929 10.9215 0.8643 10.9215 1.11209C9.97751 1.11209 9.03308 1.11167 8.08907 1.11125C8.08907 0.863883 8.08907 0.616929 8.08907 0.369558V0.369141Z" fill="#F77F5A"/>
<path id="Vector_11" d="M19.4611 0.368164C20.3776 0.368164 21.2941 0.368164 22.2101 0.368164C22.2239 0.616787 22.2381 0.864992 22.2518 1.11361C21.9765 1.1157 21.7012 1.11779 21.4259 1.12029C20.8961 1.12529 20.3663 1.13114 19.8365 1.13656C19.7251 1.12863 19.6142 1.12071 19.5028 1.1132C19.489 0.864992 19.4749 0.616787 19.4611 0.368581V0.368164Z" fill="#F77F5A"/>
<path id="Vector_12" d="M19.4611 0.368164C19.4748 0.616369 19.489 0.864575 19.5028 1.11278C18.5863 1.11278 17.6698 1.11195 16.7533 1.11195C16.7533 0.864158 16.7533 0.616369 16.7533 0.368581C17.6561 0.368581 18.5584 0.368581 19.4611 0.368581V0.368164Z" fill="#F77F5A"/>
<path id="Vector_13" d="M16.2119 26.6396C15.3371 26.6396 14.4623 26.6396 13.5876 26.6396C13.5876 26.3922 13.5876 26.1448 13.5876 25.8975C14.4761 25.8975 15.3651 25.8975 16.2536 25.8975C16.2398 26.1448 16.2256 26.3922 16.2119 26.64V26.6396Z" fill="#F77F5A"/>
<path id="Vector_14" d="M10.9215 1.11209C10.9215 0.8643 10.9215 0.616929 10.9215 0.369141C11.7963 0.369141 12.6711 0.369141 13.5463 0.369141C13.5463 0.616512 13.5463 0.8643 13.5463 1.11167C13.4641 1.11417 13.3819 1.11793 13.2997 1.11918C12.8133 1.12502 12.3269 1.13003 11.8405 1.13545C11.5343 1.12752 11.2281 1.12001 10.922 1.11209H10.9215Z" fill="#F77F5A"/>
<path id="Vector_15" d="M9.00558 21.7154C9.00558 21.4709 9.00558 21.2269 9.00558 20.9824C9.81069 20.9824 10.6158 20.9824 11.4213 20.9824C11.4213 21.2265 11.4213 21.4705 11.4213 21.7145C10.6162 21.7145 9.81069 21.7145 9.00558 21.7145V21.7154Z" fill="#F77F5A"/>
<path id="Vector_16" d="M8.08906 0.368998C8.08906 0.616369 8.08906 0.863323 8.08906 1.11069C8.00688 1.1132 7.92429 1.11695 7.84211 1.11779C7.34111 1.12363 6.84011 1.12863 6.33869 1.13364C6.11677 1.12571 5.89443 1.1182 5.6725 1.11028C5.6725 0.862906 5.6725 0.615535 5.67292 0.368164C6.47802 0.368164 7.28354 0.368164 8.08864 0.368164L8.08906 0.368998Z" fill="#F77F5A"/>
<path id="Vector_17" d="M21.7521 26.6396C21.7659 26.3914 21.78 26.1427 21.7938 25.8945C22.5851 25.8945 23.3769 25.8945 24.1682 25.8945C24.1403 26.1427 24.1128 26.3914 24.0848 26.6396C23.3072 26.6396 22.5297 26.6396 21.7521 26.6396Z" fill="#F77F5A"/>
<path id="Vector_18" d="M13.5876 25.8975C13.5876 26.1448 13.5876 26.3922 13.5876 26.6396C12.8655 26.6396 12.1434 26.6396 11.4213 26.6396C11.4213 26.3922 11.4213 26.1452 11.4213 25.8979C12.1434 25.8979 12.8655 25.8979 13.5876 25.8975Z" fill="#F77F5A"/>
<path id="Vector_19" d="M22.2518 1.11361C22.238 0.864992 22.2238 0.616787 22.2101 0.368164C22.8904 0.368164 23.5708 0.368164 24.2512 0.368164C24.2649 0.616369 24.2791 0.864992 24.2929 1.1132C23.6125 1.1132 22.9321 1.1132 22.2518 1.1132V1.11361Z" fill="#F77F5A"/>
<path id="Vector_20" d="M16.2119 26.6389C16.2256 26.3915 16.2398 26.1441 16.2536 25.8963C16.9202 25.8963 17.5864 25.8959 18.253 25.8955C18.253 26.1433 18.253 26.3911 18.253 26.6385C17.5726 26.6385 16.8922 26.6385 16.2119 26.6385V26.6389Z" fill="#F77F5A"/>
<path id="Vector_21" d="M18.1274 21.7152C18.1274 21.4708 18.1274 21.2263 18.1274 20.9819C18.6827 20.9819 19.2383 20.9819 19.7935 20.9814C19.7935 21.2263 19.7935 21.4712 19.794 21.7156C19.2383 21.7156 18.6827 21.7156 18.127 21.7152H18.1274Z" fill="#F77F5A"/>
<path id="Vector_22" d="M20.5886 21.7305C20.6153 21.778 20.665 21.826 20.665 21.8736C20.6691 23.1117 20.6687 24.3502 20.6671 25.5887C20.6671 25.6204 20.647 25.6521 20.6362 25.6838C20.6249 25.6041 20.6036 25.5249 20.6032 25.4452C20.6011 24.2968 20.602 23.148 20.6011 21.9995C20.6011 21.9098 20.5928 21.8202 20.5882 21.7305H20.5886Z" fill="#F77F5A"/>
<path id="Vector_23" d="M18.9985 23.7404C18.9584 23.7291 18.9179 23.7179 18.8779 23.707C18.9179 23.7183 18.9584 23.7296 18.9985 23.7404Z" fill="#F77F5A"/>
<path id="Vector_24" d="M22.2518 1.1137C22.9321 1.1137 23.6125 1.1137 24.2929 1.1137C25.2503 1.1162 26.2076 1.11912 27.1654 1.12079C27.852 1.12204 28.2033 1.46995 28.2037 2.15366C28.2041 5.4429 28.202 8.73173 28.2083 12.021C28.2083 12.2241 28.149 12.2884 27.9496 12.2754C27.7019 12.2596 27.452 12.2717 27.1683 12.2717C27.1683 12.1699 27.1683 12.0831 27.1683 11.9968C27.1683 8.87439 27.1662 5.75159 27.1712 2.62921C27.1717 2.30926 27.0749 2.17326 26.7278 2.16158C25.931 2.13489 25.133 2.1595 24.335 2.16325C23.6822 2.16325 23.0298 2.16325 22.3773 2.16325C21.6552 2.16367 20.9332 2.16409 20.2111 2.1645C20.0721 2.15616 19.9332 2.14782 19.7943 2.13906C19.8085 1.80492 19.8227 1.47036 19.8369 1.13622C20.3667 1.1308 20.8964 1.12538 21.4262 1.11996C21.7015 1.11745 21.9769 1.11537 22.2522 1.11328L22.2518 1.1137Z" fill="#FFC290"/>
<path id="Vector_25" d="M24.1682 25.8942C23.3768 25.8942 22.5851 25.8942 21.7937 25.8942C21.4529 25.8379 21.382 25.7574 21.382 25.4178C21.382 21.4498 21.382 17.4819 21.382 13.5139C21.382 13.151 21.4746 13.0605 21.8367 13.0588C22.4608 13.0555 23.0844 13.0509 23.7085 13.0467C23.9175 13.0467 24.1265 13.0463 24.3355 13.0459C24.4185 13.0501 24.5011 13.058 24.5841 13.058C25.9853 13.0588 27.3869 13.058 28.7881 13.0588C29.1431 13.0588 29.2149 13.1302 29.2153 13.4822C29.2153 17.4715 29.2153 21.4603 29.2153 25.4495C29.2153 25.7932 29.1206 25.8863 28.7673 25.8867C27.3173 25.8879 25.8672 25.8867 24.4176 25.8875C24.3346 25.8875 24.2516 25.8921 24.1682 25.8942ZM24.0009 13.292C23.3977 13.2883 22.7949 13.2828 22.1917 13.2808C21.7387 13.2791 21.6269 13.3921 21.6269 13.8456C21.6269 17.3551 21.6269 20.8646 21.6269 24.3741C21.6269 24.4296 21.624 24.4855 21.6286 24.5405C21.6482 24.7787 21.7879 24.9314 22.0261 24.9339C22.5876 24.9397 23.1491 24.9314 23.711 24.9285C23.7731 24.931 23.8357 24.936 23.8979 24.936C25.4238 24.9364 26.9497 24.9368 28.4757 24.9364C28.8365 24.9364 28.9909 24.7812 28.9909 24.4158C28.9913 20.8788 28.9913 17.3413 28.9909 13.8043C28.9909 13.4364 28.8311 13.2816 28.4548 13.2816C27.137 13.2816 25.8193 13.2816 24.5015 13.282C24.4327 13.282 24.3634 13.2895 24.2946 13.2933C24.197 13.2929 24.0993 13.2924 24.0017 13.292H24.0009Z" fill="#FFC290"/>
<path id="Vector_26" d="M24.3355 13.0468C24.1265 13.0468 23.9175 13.0472 23.7085 13.0476C23.6426 13.0263 23.5771 12.988 23.5108 12.9871C23.1295 12.9813 22.7482 12.9771 22.3673 12.9871C22.1909 12.9917 22.1087 12.9412 22.1246 12.7531C22.1371 12.6017 22.1271 12.4482 22.1271 12.2959C22.8496 12.2959 23.5717 12.2959 24.2942 12.2959C24.3083 12.5462 24.3221 12.7965 24.3363 13.0468H24.3355Z" fill="#F77F5A"/>
<path id="Vector_27" d="M22.3769 2.16253C23.0294 2.16253 23.6822 2.16253 24.3346 2.16253C24.3346 2.4099 24.3342 2.65727 24.3338 2.90464C23.6814 2.90464 23.0285 2.90464 22.3761 2.90464C22.3761 2.65727 22.3761 2.4099 22.3765 2.16211L22.3769 2.16253Z" fill="#F77F5A"/>
<path id="Vector_28" d="M5.6725 1.11035C5.89442 1.11828 6.11677 1.12579 6.33869 1.13329C6.32492 1.45909 6.31158 1.7853 6.29781 2.11152C5.3004 2.11193 4.30257 2.11152 3.30516 2.1161C3.23133 2.1161 3.15749 2.15657 3.08365 2.17826C2.87883 2.26044 2.79957 2.4102 2.79999 2.6317C2.80333 8.24073 2.80208 13.8498 2.80291 19.4592C2.80291 19.7929 2.91888 19.9106 3.25427 19.9114C4.08732 19.9131 4.92037 19.9114 5.75343 19.9106C5.93489 19.9235 6.11635 19.9364 6.29781 19.9494C6.29781 20.266 6.29781 20.5826 6.29781 20.8992C5.11352 20.8992 3.92922 20.8988 2.74451 20.9013C2.66525 20.9013 2.58641 20.9259 2.50715 20.9388C2.09334 20.8633 1.79632 20.53 1.79299 20.12C1.78756 19.4675 1.79048 18.8151 1.79048 18.1631C1.79048 12.8056 1.79257 7.44772 1.78673 2.09024C1.78631 1.66516 1.95359 1.3644 2.33361 1.20129C2.48629 1.1358 2.67067 1.12328 2.84087 1.12161C3.78447 1.11202 4.72807 1.11327 5.67208 1.11077L5.6725 1.11035Z" fill="#FFC290"/>
<path id="Vector_29" d="M2.50761 20.9381C2.58687 20.9252 2.66571 20.9005 2.74497 20.9005C3.92927 20.898 5.11356 20.8985 6.29827 20.8985C8.99182 20.8985 11.6858 20.8985 14.3793 20.8985C16.4492 20.8985 18.5187 20.8985 20.5886 20.8989C20.5357 20.9247 20.4831 20.9702 20.4289 20.9727C20.2178 20.9827 20.0059 20.9794 19.794 20.9811C19.2387 20.9811 18.6831 20.9811 18.1279 20.9815C17.4613 20.9815 16.7951 20.9819 16.1285 20.9823C15.2816 20.9823 14.4344 20.9823 13.5876 20.9823C12.8655 20.9823 12.1434 20.9823 11.4213 20.9823C10.6162 20.9823 9.81111 20.9823 9.00559 20.9823C7.9502 20.9823 6.89522 20.9823 5.83982 20.9819C4.80821 20.9806 3.77659 20.9798 2.74539 20.9761C2.66613 20.9761 2.58687 20.9514 2.50761 20.9381Z" fill="#FFC290"/>
<path id="Vector_30" d="M20.5882 20.8995C18.5183 20.8995 16.4488 20.8995 14.3789 20.8991C14.3789 20.5829 14.3789 20.2667 14.3789 19.9501C14.4953 19.9459 14.6117 19.9393 14.7285 19.9376C15.2091 19.9313 15.6896 19.9263 16.1702 19.9209C16.8647 19.9209 17.5589 19.9209 18.2534 19.9213C18.8366 19.9222 19.4198 19.9226 20.0025 19.9234C20.1402 19.9284 20.2783 19.9422 20.4155 19.9359C20.5486 19.9301 20.6012 19.973 20.5957 20.112C20.5857 20.3739 20.5899 20.6367 20.5882 20.8991V20.8995Z" fill="#FFC290"/>
<path id="Vector_31" d="M20.0025 19.9237C19.4193 19.9229 18.8361 19.9225 18.2534 19.9216C18.2534 19.6713 18.2534 19.4206 18.2534 19.1703C18.8366 19.1703 19.4197 19.1703 20.0029 19.1699C20.0029 19.421 20.0029 19.6726 20.0029 19.9237H20.0025Z" fill="#F77F5A"/>
<path id="Vector_32" d="M20.5932 19.1514C20.5945 17.2676 20.5949 15.3837 20.5986 13.4999C20.5986 13.4156 20.6303 13.3313 20.647 13.2471C20.6541 13.3292 20.6675 13.4114 20.6675 13.494C20.6687 15.3028 20.6691 17.112 20.6654 18.9208C20.6654 18.9979 20.6182 19.0747 20.5932 19.1514Z" fill="#F77F5A"/>
<path id="Vector_33" d="M18.253 25.8967C17.5864 25.8967 16.9202 25.8971 16.2536 25.8975C15.3651 25.8975 14.4761 25.8975 13.5876 25.8975C12.8655 25.8975 12.1434 25.8975 11.4213 25.8979C11.1669 25.8979 10.9124 25.8979 10.6387 25.8979C10.6387 25.5705 10.6087 25.266 10.6475 24.9702C10.685 24.6828 10.98 24.4834 11.3183 24.4467C11.38 24.44 11.4426 24.4404 11.5048 24.4375C12.2406 24.4375 12.9765 24.4375 13.7127 24.4375C14.5041 24.4375 15.2958 24.4375 16.0872 24.4375C16.7675 24.4375 17.4479 24.4375 18.1283 24.4375C18.2872 24.44 18.4466 24.4404 18.6055 24.445C19.0723 24.4588 19.3651 24.7533 19.3727 25.2172C19.3752 25.3623 19.3635 25.5087 19.376 25.6531C19.3918 25.8312 19.3347 25.9004 19.1457 25.8925C18.8487 25.8796 18.5509 25.8938 18.2534 25.8963L18.253 25.8967Z" fill="#FFC290"/>
<path id="Vector_34" d="M16.1284 21.7254H16.6186V23.6919C16.4409 23.6919 16.2636 23.6919 16.0867 23.6919C15.2537 23.6919 14.4206 23.6919 13.5875 23.6919C13.3952 23.7102 13.3277 23.6322 13.3335 23.4324C13.3481 22.951 13.3481 22.4684 13.3335 21.987C13.3272 21.7867 13.3957 21.7091 13.5875 21.7258C14.4344 21.7258 15.2816 21.7258 16.1284 21.7258V21.7254Z" fill="#FFC290"/>
<path id="Vector_35" d="M16.1284 21.725C15.2816 21.725 14.4344 21.725 13.5876 21.725C13.5876 21.4776 13.5876 21.2298 13.5876 20.9824C14.4344 20.9824 15.2816 20.9824 16.1284 20.9824C16.1284 21.2298 16.1284 21.4772 16.1284 21.725Z" fill="#F77F5A"/>
<path id="Vector_36" d="M13.5875 23.6918C14.4206 23.6918 15.2536 23.6918 16.0867 23.6918C16.0867 23.9404 16.0867 24.1891 16.0867 24.4373C15.2954 24.4373 14.5036 24.4373 13.7123 24.4373C13.4778 24.2212 13.5458 23.9542 13.5875 23.6914V23.6918Z" fill="#F77F5A"/>
<path id="Vector_37" d="M19.8365 1.1358C19.8223 1.46994 19.8081 1.80449 19.7939 2.13863C19.7188 2.14322 19.6442 2.15031 19.5691 2.15115C19.1582 2.15657 18.7473 2.16032 18.336 2.16491C17.5726 2.16491 16.8088 2.16533 16.0454 2.16575C15.7951 2.16032 15.5452 2.1549 15.2949 2.14948C15.2228 2.13696 15.1502 2.11444 15.078 2.11402C14.484 2.11068 13.89 2.1111 13.2959 2.11068C13.2959 1.91045 13.2968 1.71022 13.2959 1.50998C13.2947 1.26511 13.2229 1.19545 12.9718 1.19462C12.6539 1.19378 12.3365 1.19754 12.0186 1.1917C11.959 1.19044 11.8997 1.15415 11.8401 1.13413C12.3265 1.12871 12.8129 1.1237 13.2993 1.11786C13.3814 1.11703 13.4636 1.11327 13.5458 1.11035C14.615 1.11035 15.6841 1.11077 16.7533 1.11119C17.6698 1.11119 18.5863 1.11202 19.5027 1.11202C19.6141 1.11995 19.7255 1.12787 19.8365 1.13538V1.1358Z" fill="#FFC290"/>
<path id="Vector_38" d="M11.8401 1.13455C11.8997 1.15457 11.9586 1.19086 12.0186 1.19211C12.3361 1.19795 12.654 1.1942 12.9718 1.19503C13.223 1.19587 13.2943 1.26553 13.296 1.5104C13.2972 1.71063 13.296 1.91087 13.296 2.1111C10.9632 2.1111 8.63053 2.1111 6.29823 2.11152C6.312 1.7853 6.32535 1.45951 6.33911 1.13329C6.84011 1.12829 7.34111 1.12328 7.84253 1.11744C7.92471 1.11661 8.0073 1.11285 8.08948 1.11035C9.0335 1.11035 9.97793 1.11077 10.9219 1.11119C11.2281 1.11911 11.5343 1.12662 11.8405 1.13455H11.8401Z" fill="#FFC290"/>
<path id="Vector_39" d="M5.75306 19.9096C4.92001 19.91 4.08695 19.9125 3.2539 19.9104C2.91893 19.9096 2.80254 19.792 2.80254 19.4583C2.80212 13.8492 2.80254 8.2402 2.79962 2.63076C2.79962 2.40925 2.87846 2.2595 3.08328 2.17773C3.15879 2.18149 3.23471 2.18858 3.31022 2.189C4.13951 2.19067 4.96839 2.19108 5.79769 2.1915C5.79769 2.42928 5.79769 2.66664 5.79769 2.90441C5.12441 2.90733 4.45154 2.91651 3.77868 2.90984C3.60472 2.90817 3.558 2.95948 3.558 3.13176C3.56218 8.40039 3.56134 13.669 3.56176 18.9372C3.56176 18.9986 3.56676 19.0595 3.57135 19.1679C4.30512 19.1679 5.03013 19.1679 5.75514 19.1679C5.75431 19.4153 5.75347 19.6622 5.75264 19.9096H5.75306Z" fill="#F77F5A"/>
<path id="Vector_40" d="M9.69471 4.23967C9.90787 4.29682 10.1156 4.34396 10.3163 4.41279C10.3559 4.42656 10.3989 4.5321 10.3859 4.58174C10.1481 5.50573 9.90412 6.42847 9.65674 7.34996C9.41271 8.25893 9.16367 9.16666 8.91672 10.0748C8.84622 10.3338 8.7753 10.5929 8.6998 10.8703C8.4712 10.8132 8.2572 10.7652 8.04862 10.7009C8.01775 10.6913 7.98438 10.5987 7.99565 10.5562C8.26846 9.52582 8.54879 8.49755 8.82494 7.4676C9.06856 6.55862 9.30801 5.64881 9.55037 4.73984C9.59292 4.58049 9.64173 4.4228 9.69512 4.23926L9.69471 4.23967Z" fill="#F77F5A"/>
<path id="Vector_41" d="M12.5397 7.42531C11.8605 6.77706 11.2461 6.19054 10.5744 5.54938C10.7676 5.38794 10.9269 5.27531 11.06 5.13723C11.1697 5.02335 11.229 5.07466 11.312 5.15809C11.8789 5.72792 12.4487 6.29441 13.016 6.86299C13.1232 6.97062 13.2321 7.07782 13.3281 7.19546C13.4699 7.369 13.4144 7.54587 13.2801 7.68353C12.591 8.38852 11.8935 9.08516 11.1847 9.79974C10.9962 9.60743 10.8293 9.43724 10.6358 9.23992C11.2586 8.64632 11.8722 8.06105 12.5392 7.42531H12.5397Z" fill="#F77F5A"/>
<path id="Vector_42" d="M7.77542 5.57177C7.13843 6.20042 6.53231 6.7982 5.91117 7.41141C6.53773 8.02295 7.14928 8.6199 7.7871 9.24229C7.57185 9.43251 7.38997 9.59311 7.16221 9.79418C6.86269 9.48007 6.54774 9.14384 6.22612 8.81429C5.87863 8.45846 5.52572 8.10764 5.17281 7.75723C4.92085 7.50777 4.91626 7.33966 5.16697 7.08812C5.80813 6.44612 6.45388 5.80829 7.08921 5.16087C7.19892 5.04908 7.25273 5.05825 7.34951 5.1663C7.47257 5.30354 7.61649 5.42243 7.77584 5.57177H7.77542Z" fill="#F77F5A"/>
<path id="Vector_43" d="M20.544 3.78919C21.2156 3.78544 21.8868 3.78043 22.5584 3.77835C23.0986 3.77668 23.6388 3.78127 24.1791 3.77543C24.308 3.77418 24.3739 3.80421 24.3647 3.94688C24.3559 4.08495 24.358 4.22387 24.3643 4.36236C24.3701 4.49209 24.3221 4.558 24.1862 4.55258C23.9726 4.54424 23.7586 4.54048 23.5446 4.53464C23.4749 4.51879 23.4057 4.48876 23.336 4.48876C22.4053 4.485 21.4742 4.48542 20.5436 4.48459C20.5436 4.25307 20.544 4.02113 20.5444 3.78961L20.544 3.78919Z" fill="#F77F5A"/>
<path id="Vector_44" d="M20.7521 11.3419C20.6833 11.3457 20.6141 11.3524 20.5452 11.3524C18.5558 11.3528 16.566 11.3503 14.5766 11.3565C14.3914 11.357 14.3247 11.3169 14.3288 11.1188C14.3401 10.5685 14.3309 10.5685 14.8849 10.5685C15.6958 10.5685 16.5072 10.5681 17.3182 10.5685C17.3941 10.5685 17.4696 10.5769 17.5455 10.5815C17.5188 10.6103 17.4917 10.6641 17.465 10.6637C17.1776 10.6637 17.2185 10.8614 17.2064 11.0504C17.1943 11.241 17.2643 11.281 17.4429 11.2794C18.3239 11.2706 19.2045 11.2756 20.0855 11.2756C20.2432 11.2756 20.4013 11.2698 20.5586 11.279C20.6241 11.2827 20.6875 11.3198 20.7521 11.3419Z" fill="#F77F5A"/>
<path id="Vector_45" d="M16.2953 17.0762H19.7418C19.7418 17.2985 19.7506 17.5179 19.7331 17.7357C19.7301 17.7716 19.6096 17.8233 19.5432 17.8241C18.8282 17.8304 18.1133 17.8291 17.3983 17.8275C17.0307 17.8266 16.6632 17.82 16.2957 17.8158C16.2957 17.5692 16.2957 17.3231 16.2957 17.0766L16.2953 17.0762Z" fill="#F77F5A"/>
<path id="Vector_46" d="M14.338 8.94205C14.3752 8.91618 14.4127 8.86779 14.4498 8.86738C16.1852 8.86404 17.9205 8.86529 19.6559 8.86654C19.6755 8.86654 19.6951 8.87614 19.7293 8.8849V9.63076C19.6767 9.6366 19.63 9.64662 19.5837 9.64662C18.4662 9.64745 17.3486 9.64703 16.2311 9.64662C16.1969 9.64662 16.1622 9.63952 16.128 9.63577C16.2415 9.61283 16.3541 9.57278 16.468 9.57069C16.8806 9.56277 16.8701 9.56736 16.8831 9.16814C16.8893 8.97876 16.8263 8.93662 16.6474 8.93871C15.8777 8.94789 15.1081 8.94246 14.338 8.94246V8.94205Z" fill="#F77F5A"/>
<path id="Vector_47" d="M16.6286 5.48909C17.6206 5.48533 18.6126 5.482 19.605 5.47657C19.7164 5.47574 19.7406 5.52746 19.7456 5.63008C19.7743 6.24079 19.7764 6.24246 19.1678 6.24038C18.3214 6.23746 17.4754 6.23162 16.629 6.22703C16.629 5.98133 16.629 5.73521 16.629 5.48909H16.6286Z" fill="#F77F5A"/>
<path id="Vector_48" d="M19.169 7.92735C18.2254 7.92818 17.2819 7.92943 16.3383 7.93027C16.2957 7.80095 16.2377 7.67372 16.2152 7.54106C16.1952 7.42259 16.2139 7.29703 16.2152 7.1748C17.1859 7.17772 18.1566 7.18064 19.1273 7.18398C19.1411 7.43177 19.1549 7.67998 19.1686 7.92776L19.169 7.92735Z" fill="#F77F5A"/>
<path id="Vector_49" d="M10.2967 17.8156C9.283 17.8156 8.26932 17.8156 7.25606 17.8161C7.25606 17.5691 7.25606 17.3221 7.25606 17.0752C8.26974 17.0752 9.28342 17.0752 10.2971 17.0756C10.2971 17.3221 10.2971 17.5691 10.2971 17.8156H10.2967Z" fill="#F77F5A"/>
<path id="Vector_50" d="M16.2953 17.0762C16.2953 17.3227 16.2953 17.5688 16.2953 17.8154C15.2954 17.8154 14.2959 17.8154 13.296 17.8154C13.296 17.5692 13.296 17.3227 13.296 17.0766C14.2955 17.0766 15.2954 17.0766 16.2949 17.0766L16.2953 17.0762Z" fill="#F77F5A"/>
<path id="Vector_51" d="M13.2959 17.0766C13.2959 17.3227 13.2959 17.5692 13.2959 17.8154C12.2964 17.8154 11.2965 17.8158 10.297 17.8162C10.297 17.5697 10.297 17.3227 10.297 17.0762C11.2969 17.0762 12.2964 17.0762 13.2964 17.0762L13.2959 17.0766Z" fill="#F77F5A"/>
<path id="Vector_52" d="M10.632 19.1689C11.5614 19.1694 12.4908 19.1702 13.4202 19.1706C13.4202 19.4209 13.4202 19.6716 13.4207 19.9219C12.4908 19.9227 11.5606 19.9236 10.6308 19.9244C10.6308 19.6724 10.6316 19.4205 10.6316 19.1689H10.632Z" fill="#F77F5A"/>
<path id="Vector_53" d="M13.4211 19.9212C13.4211 19.6709 13.4211 19.4202 13.4207 19.1699C14.3372 19.1699 15.2537 19.1699 16.1701 19.1699C16.1701 19.4202 16.1701 19.6701 16.1701 19.9204C15.6896 19.9258 15.209 19.9304 14.7285 19.9371C14.6121 19.9387 14.4957 19.945 14.3789 19.9492C14.0598 19.94 13.7402 19.9304 13.4211 19.9212Z" fill="#F77F5A"/>
<path id="Vector_54" d="M21.6282 7.17931C22.223 7.17388 22.8179 7.16721 23.4123 7.16304C23.7152 7.16095 24.0185 7.16304 24.3497 7.16304C24.3497 7.40457 24.3551 7.62399 24.3438 7.84258C24.3422 7.87678 24.265 7.9356 24.2224 7.9356C23.371 7.93685 22.5196 7.93143 21.6686 7.92726C21.6549 7.67822 21.6415 7.42876 21.6278 7.17972L21.6282 7.17931Z" fill="#F77F5A"/>
<path id="Vector_55" d="M5.79807 2.9053C5.79807 2.66752 5.79807 2.43016 5.79807 2.19238C6.79756 2.19238 7.79747 2.19238 8.79697 2.19238C8.79697 2.42974 8.79697 2.6671 8.79697 2.90446C7.79747 2.90446 6.79756 2.90446 5.79807 2.90488V2.9053Z" fill="#F77F5A"/>
<path id="Vector_56" d="M13.3803 15.3793C14.3101 15.3793 15.2399 15.3793 16.1697 15.3793C16.1697 15.6234 16.1697 15.8674 16.1697 16.1114C15.2395 16.1114 14.3088 16.1114 13.3786 16.1114C13.379 15.8674 13.3794 15.6229 13.3798 15.3789L13.3803 15.3793Z" fill="#F77F5A"/>
<path id="Vector_57" d="M5.75554 19.9085C5.75637 19.6612 5.75721 19.4142 5.75804 19.1668C6.63281 19.1668 7.50716 19.1664 8.38193 19.166C8.38193 19.4184 8.38193 19.6708 8.38234 19.9231C8.2864 19.9273 8.19045 19.9344 8.09451 19.9352C7.49631 19.9402 6.89812 19.9436 6.29992 19.9473C6.11846 19.9344 5.937 19.9215 5.75554 19.9085Z" fill="#F77F5A"/>
<path id="Vector_58" d="M20.0856 11.2752C19.2045 11.2752 18.3235 11.2702 17.4429 11.279C17.2644 11.2806 17.1943 11.2402 17.2064 11.0499C17.2185 10.8614 17.1776 10.6628 17.465 10.6632C17.4917 10.6632 17.5188 10.6094 17.5455 10.5811C18.3923 10.5815 19.2387 10.5819 20.0856 10.5823C20.0856 10.813 20.0856 11.0441 20.0856 11.2748V11.2752Z" fill="#F77F5A"/>
<path id="Vector_59" d="M21.6282 7.18001C21.642 7.42905 21.6553 7.6785 21.6691 7.92754C20.8356 7.92754 20.0025 7.92754 19.1691 7.92754C19.1553 7.67976 19.1415 7.43155 19.1278 7.18376C19.7898 7.17667 20.4514 7.16833 21.1134 7.16416C21.2853 7.1629 21.4567 7.17458 21.6286 7.18001H21.6282Z" fill="#F77F5A"/>
<path id="Vector_60" d="M15.2945 2.14941C15.5448 2.15484 15.7947 2.16026 16.045 2.16568C16.045 2.4118 16.045 2.65792 16.045 2.90446C15.1565 2.90446 14.2675 2.90446 13.379 2.90446C13.379 2.66668 13.379 2.42891 13.379 2.19113C13.9455 2.19029 14.512 2.19071 15.0789 2.18654C15.151 2.18612 15.2228 2.16235 15.295 2.14941H15.2945Z" fill="#F77F5A"/>
<path id="Vector_61" d="M15.5469 3.78613C16.4488 3.78697 17.3507 3.78822 18.2526 3.78905C18.2526 4.02057 18.2526 4.25209 18.2526 4.48319C17.4141 4.48361 16.576 4.48027 15.7376 4.4882C15.5778 4.48987 15.5307 4.43647 15.5415 4.28463C15.5536 4.11902 15.5457 3.95216 15.5469 3.78613Z" fill="#F77F5A"/>
<path id="Vector_62" d="M6.50683 13.6883C7.36741 13.6883 8.22841 13.6875 9.089 13.6875C9.08941 13.9294 9.09025 14.1718 9.09066 14.4138C8.23008 14.4138 7.3695 14.4138 6.50849 14.4138C6.50766 14.1718 6.50724 13.9303 6.50641 13.6888L6.50683 13.6883Z" fill="#F77F5A"/>
<path id="Vector_63" d="M8.37984 19.9251C8.37984 19.6727 8.37984 19.4203 8.37943 19.168C9.1303 19.168 9.88117 19.1684 10.632 19.1688C10.632 19.4208 10.6312 19.6727 10.6312 19.9243C9.88076 19.9243 9.1303 19.9247 8.38026 19.9251H8.37984Z" fill="#F77F5A"/>
<path id="Vector_64" d="M7.33781 16.1144C6.60446 16.1169 5.87069 16.1177 5.13733 16.124C5.00843 16.1252 4.97631 16.0743 4.97339 15.9521C4.95963 15.366 4.95629 15.3643 5.53363 15.3664C6.13516 15.3685 6.73711 15.3748 7.33864 15.3789C7.33864 15.6242 7.33781 15.8691 7.33781 16.1144Z" fill="#F77F5A"/>
<path id="Vector_65" d="M14.338 8.9423C15.1077 8.9423 15.8777 8.94773 16.6474 8.93855C16.8263 8.93646 16.8893 8.9786 16.8831 9.16798C16.8701 9.5672 16.8806 9.56261 16.468 9.57053C16.3541 9.57262 16.2415 9.61308 16.128 9.63561C15.5415 9.63561 14.9546 9.63561 14.338 9.63561V8.9423Z" fill="#F77F5A"/>
<path id="Vector_66" d="M16.6286 5.48946C16.6286 5.73558 16.6286 5.98128 16.6286 6.2274C15.9074 6.23199 15.1857 6.23908 14.4644 6.23491C14.4211 6.23491 14.346 6.14981 14.3405 6.0985C14.3243 5.9404 14.3243 5.77855 14.3405 5.62086C14.346 5.56955 14.4202 5.48446 14.4636 5.48404C15.1853 5.47945 15.9065 5.48571 16.6282 5.48946H16.6286Z" fill="#F77F5A"/>
<path id="Vector_67" d="M16.045 2.90521C16.045 2.65909 16.045 2.41255 16.045 2.16643C16.8084 2.16643 17.5722 2.16643 18.3356 2.16602C18.3356 2.41255 18.3356 2.65909 18.3356 2.90521C17.5718 2.90521 16.8084 2.90521 16.0446 2.90521H16.045Z" fill="#F77F5A"/>
<path id="Vector_68" d="M7.25603 17.0752C7.25603 17.3221 7.25603 17.5691 7.25603 17.8161C6.54229 17.8194 5.82812 17.8248 5.11438 17.8215C5.06849 17.8215 4.98589 17.7543 4.98339 17.7143C4.97004 17.5086 4.97713 17.3017 4.97713 17.0752H7.25645H7.25603Z" fill="#F77F5A"/>
<path id="Vector_69" d="M20.0855 11.2755C20.0855 11.0448 20.0855 10.8137 20.0855 10.583C20.8214 10.583 21.5576 10.583 22.2935 10.583C22.2935 10.8358 22.2935 11.0882 22.2935 11.341C21.78 11.3414 21.2661 11.3418 20.7525 11.3426C20.6879 11.3205 20.6245 11.2834 20.559 11.2797C20.4017 11.2701 20.2436 11.2763 20.0859 11.2763L20.0855 11.2755Z" fill="#F77F5A"/>
<path id="Vector_70" d="M11.5048 16.1118C10.7547 16.1118 10.0051 16.1118 9.25505 16.1118C9.25547 15.8674 9.2563 15.6234 9.25672 15.3789C10.0059 15.3789 10.7547 15.3789 11.5039 15.3793C11.5039 15.6234 11.5043 15.8678 11.5048 16.1118Z" fill="#F77F5A"/>
<path id="Vector_71" d="M10.9624 13.6875C11.7542 13.6879 12.5455 13.6883 13.3372 13.6892C13.3372 13.9299 13.3372 14.171 13.3372 14.4117C12.5451 14.4121 11.7525 14.4129 10.9603 14.4133C10.9611 14.1714 10.9616 13.9294 10.9624 13.6875Z" fill="#F77F5A"/>
<path id="Vector_72" d="M13.379 2.19141C13.379 2.42918 13.379 2.66696 13.379 2.90474C12.6014 2.90474 11.8239 2.90474 11.0463 2.90474C11.0463 2.66738 11.0463 2.4296 11.0463 2.19224C11.8239 2.19224 12.6014 2.19182 13.379 2.19141Z" fill="#F77F5A"/>
<path id="Vector_73" d="M13.3377 14.411C13.3377 14.1703 13.3377 13.9292 13.3377 13.6885C14.1152 13.6885 14.8928 13.6885 15.6704 13.6885C15.6704 13.9296 15.6704 14.1703 15.6704 14.4114C14.8928 14.4114 14.1152 14.4114 13.3377 14.4114V14.411Z" fill="#F77F5A"/>
<path id="Vector_74" d="M15.5469 3.78682C15.5461 3.95326 15.5536 4.12012 15.5415 4.28531C15.5307 4.43716 15.5778 4.49013 15.7376 4.48888C16.576 4.48096 17.4141 4.48471 18.2526 4.48429C19.0164 4.48429 19.7798 4.48429 20.5436 4.48471C21.4742 4.48554 22.4053 4.48471 23.336 4.48888C23.4056 4.48888 23.4753 4.51892 23.5446 4.53477C23.4766 4.54269 23.4086 4.55729 23.341 4.55729C20.4151 4.55813 17.4888 4.55604 14.5629 4.56188C14.3693 4.56188 14.3105 4.50557 14.3122 4.31576C14.3163 3.77514 14.3096 3.77388 14.8411 3.77555C15.0764 3.77639 15.3116 3.78306 15.5473 3.78682H15.5469Z" fill="#F77F5A"/>
<path id="Vector_75" d="M16.1702 19.9204C16.1702 19.6701 16.1702 19.4202 16.1702 19.1699C16.8647 19.1699 17.5593 19.1699 18.2538 19.1699C18.2538 19.4206 18.2538 19.6709 18.2538 19.9212C17.5593 19.9212 16.8651 19.9208 16.1706 19.9204H16.1702Z" fill="#F77F5A"/>
<path id="Vector_76" d="M22.3769 2.16309C22.3769 2.41046 22.3769 2.65783 22.3765 2.90562C21.6544 2.90562 20.9323 2.90562 20.2107 2.90562C20.2107 2.65866 20.2107 2.41171 20.2107 2.16475C20.9328 2.16434 21.6548 2.16392 22.3769 2.1635V2.16309Z" fill="#F77F5A"/>
<path id="Vector_77" d="M22.2931 11.34C22.2931 11.0872 22.2931 10.8348 22.2931 10.582C22.9697 10.582 23.6463 10.582 24.3371 10.582V11.34H22.2927H22.2931Z" fill="#F77F5A"/>
<path id="Vector_78" d="M20.5436 4.48404C19.7798 4.48404 19.0164 4.48404 18.2526 4.48362C18.2526 4.2521 18.2526 4.02058 18.2526 3.78948C18.8178 3.79782 19.3835 3.80867 19.9487 3.81242C20.1469 3.81367 20.3454 3.79741 20.544 3.78906C20.544 4.02058 20.5436 4.25252 20.5432 4.48404H20.5436Z" fill="#F77F5A"/>
<path id="Vector_79" d="M11.0463 2.19238C11.0463 2.42974 11.0463 2.66752 11.0463 2.90488C10.2967 2.90488 9.54662 2.90488 8.797 2.90488C8.797 2.66752 8.797 2.43016 8.797 2.1928C9.54662 2.1928 10.2962 2.1928 11.0463 2.1928V2.19238Z" fill="#F77F5A"/>
<path id="Vector_80" d="M15.6704 14.4114C15.6704 14.1703 15.6704 13.9296 15.6704 13.6885C16.4063 13.6885 17.1421 13.6885 17.8784 13.6885C17.8784 13.9296 17.8784 14.1703 17.8784 14.4114C17.1425 14.4114 16.4063 14.4114 15.6704 14.4114Z" fill="#F77F5A"/>
<path id="Vector_81" d="M16.2152 7.17538C16.2136 7.29761 16.1948 7.42317 16.2152 7.54164C16.2377 7.67472 16.2957 7.80153 16.3383 7.93085C15.7088 7.93502 15.0789 7.94211 14.4494 7.93752C14.4048 7.93752 14.3272 7.85284 14.3222 7.80153C14.3059 7.63675 14.3063 7.46864 14.323 7.30428C14.3284 7.25214 14.406 7.16621 14.4511 7.16621C15.0389 7.16204 15.627 7.16996 16.2148 7.17538H16.2152Z" fill="#F77F5A"/>
<path id="Vector_82" d="M16.1697 16.112C16.1697 15.868 16.1697 15.6239 16.1697 15.3799C16.8363 15.3799 17.5025 15.3799 18.1691 15.3799C18.1691 15.6239 18.1691 15.8684 18.1696 16.1124C17.503 16.1124 16.8363 16.1124 16.1702 16.1124L16.1697 16.112Z" fill="#F77F5A"/>
<path id="Vector_83" d="M9.25667 15.3792C9.25625 15.6236 9.25542 15.8677 9.255 16.1121C8.61592 16.1125 7.97685 16.113 7.33777 16.1134C7.33777 15.8681 7.3386 15.6232 7.3386 15.3779C7.97768 15.3779 8.61717 15.3788 9.25625 15.3792H9.25667Z" fill="#F77F5A"/>
<path id="Vector_84" d="M20.2107 2.16468C20.2107 2.41163 20.2107 2.65859 20.2107 2.90554C19.5858 2.90554 18.9609 2.90554 18.336 2.90512C18.336 2.65859 18.336 2.41205 18.336 2.16593C18.7469 2.16176 19.1582 2.15759 19.5691 2.15216C19.6442 2.15133 19.7193 2.14382 19.7939 2.13965C19.9329 2.14799 20.0718 2.15633 20.2107 2.16509V2.16468Z" fill="#F77F5A"/>
<path id="Vector_85" d="M11.5048 16.1124C11.5048 15.8684 11.5043 15.6239 11.5039 15.3799C12.1292 15.3799 12.755 15.3799 13.3803 15.3799C13.3799 15.6243 13.3794 15.8684 13.379 16.1128C12.7541 16.1128 12.1296 16.1128 11.5048 16.1128V16.1124Z" fill="#F77F5A"/>
<path id="Vector_86" d="M10.9624 13.6869C10.9616 13.9289 10.9612 14.1708 10.9603 14.4128C10.3371 14.4128 9.7139 14.4128 9.09067 14.4128C9.09026 14.1708 9.08942 13.9289 9.089 13.6865C9.71348 13.6865 10.338 13.6865 10.9624 13.6865V13.6869Z" fill="#F77F5A"/>
<path id="Vector_87" d="M17.8784 14.4114C17.8784 14.1703 17.8784 13.9296 17.8784 13.6885C18.4928 13.6885 19.1077 13.6885 19.7422 13.6885C19.7422 13.9091 19.751 14.1094 19.7351 14.3079C19.7318 14.3497 19.6379 14.4164 19.5849 14.4168C19.0163 14.4214 18.4474 14.4152 17.8788 14.4118L17.8784 14.4114Z" fill="#F77F5A"/>
<path id="Vector_88" d="M6.50683 13.6876C6.50766 13.9292 6.50808 14.1711 6.50892 14.4126C6.03294 14.4202 5.55739 14.4302 5.08142 14.4314C5.0468 14.4314 5.01051 14.3701 4.97797 14.3346C4.97088 14.3271 4.97713 14.3079 4.97588 14.2942C4.93292 13.6684 4.93292 13.6664 5.55447 13.6693C5.87192 13.671 6.18896 13.6814 6.50641 13.6881L6.50683 13.6876Z" fill="#F77F5A"/>
<path id="Vector_89" d="M18.1696 16.1121C18.1696 15.8681 18.1696 15.6236 18.1691 15.3796C18.6681 15.3792 19.1666 15.3788 19.6655 15.3779C19.6671 15.6228 19.6692 15.8677 19.6709 16.1125C19.1703 16.1125 18.6701 16.1125 18.1696 16.1121Z" fill="#F77F5A"/>
<path id="Vector_90" d="M19.6709 16.1127C19.6692 15.8678 19.6671 15.623 19.6654 15.3781C19.6721 15.3773 19.6825 15.3731 19.6855 15.376C19.7843 15.4786 19.7731 16.0138 19.6709 16.1127Z" fill="#F77F5A"/>
<path id="Vector_91" d="M24.2938 13.2932C24.3626 13.2894 24.4318 13.2819 24.5007 13.2819C25.8185 13.2811 27.1362 13.2811 28.454 13.2815C28.8307 13.2815 28.9901 13.4363 28.9901 13.8042C28.9905 17.3412 28.9905 20.8787 28.9901 24.4157C28.9901 24.7812 28.8357 24.9363 28.4749 24.9363C26.9489 24.9363 25.423 24.9363 23.8971 24.9359C23.8349 24.9359 23.7723 24.9309 23.7102 24.9284C23.5846 24.7757 23.5821 24.5968 23.58 24.4099C23.5784 24.2589 23.6363 24.2234 23.774 24.2272C24.0831 24.2351 24.3926 24.233 24.7017 24.2268C24.7601 24.2255 24.8177 24.1859 24.8757 24.1642C25.9837 24.1642 27.092 24.1642 28.2117 24.1642V14.0658C28.1174 14.0658 28.036 14.0658 27.9543 14.0658C26.7195 14.0629 25.4852 14.0599 24.2504 14.0566C24.2646 13.8021 24.2788 13.5481 24.2929 13.2936L24.2938 13.2932Z" fill="#F77F5A"/>
<path id="Vector_92" d="M24.8761 24.1638C24.8181 24.1859 24.7605 24.2255 24.7021 24.2264C24.393 24.2326 24.0835 24.2347 23.7744 24.2268C23.6363 24.2234 23.5783 24.2585 23.5804 24.4095C23.5825 24.596 23.585 24.7753 23.7106 24.928C23.1491 24.9305 22.5872 24.9393 22.0257 24.9334C21.7875 24.9309 21.6478 24.7783 21.6281 24.5401C21.6236 24.485 21.6265 24.4291 21.6265 24.3736C21.6265 20.8641 21.6265 17.3546 21.6265 13.8451C21.6265 13.3917 21.7383 13.2786 22.1913 13.2803C22.7945 13.2824 23.3973 13.2878 24.0005 13.2916C23.9425 13.3132 23.8845 13.3533 23.8261 13.3541C23.4611 13.36 23.0961 13.3529 22.7315 13.3616C22.6698 13.3633 22.558 13.4196 22.5571 13.4526C22.553 13.6591 22.4629 13.8881 22.6681 14.0566C22.5876 14.0641 22.5071 14.0712 22.427 14.0787V24.1529C22.5317 24.1529 22.6214 24.1529 22.7107 24.1529C23.4323 24.1563 24.154 24.16 24.8757 24.1638H24.8761Z" fill="#F77F5A"/>
<path id="Vector_93" d="M22.6685 14.057C22.4637 13.8881 22.5534 13.6595 22.5576 13.453C22.5584 13.4201 22.6702 13.3637 22.732 13.3621C23.0965 13.3533 23.462 13.3604 23.8266 13.3546C23.885 13.3537 23.9425 13.3137 24.0009 13.292C24.0985 13.2924 24.1962 13.2928 24.2938 13.2932C24.2796 13.5477 24.2654 13.8018 24.2512 14.0562C23.7235 14.0562 23.1962 14.0566 22.6685 14.057Z" fill="#F77F5A"/>
<path id="Vector_94" d="M8.37985 19.9252C9.1303 19.9252 9.88076 19.9248 10.6308 19.9244C11.5606 19.9235 12.4909 19.9227 13.4207 19.9219C13.7398 19.9311 14.0594 19.9402 14.3785 19.9498C14.3785 20.266 14.3785 20.5826 14.3785 20.8988C11.6849 20.8988 8.99097 20.8988 6.29742 20.8988C6.29742 20.5822 6.29742 20.2656 6.29742 19.949C6.89562 19.9452 7.49382 19.9419 8.09201 19.9369C8.18796 19.9361 8.2839 19.929 8.37985 19.9248V19.9252Z" fill="#FFC290"/>
<path id="Vector_95" d="M11.0462 2.19226C10.2966 2.19226 9.547 2.19226 8.79696 2.19226C7.79747 2.19226 6.79755 2.19226 5.79806 2.19226C4.96876 2.19142 4.13988 2.191 3.31058 2.18975C3.23507 2.18975 3.15915 2.18266 3.08365 2.17849C3.15748 2.1568 3.23132 2.11675 3.30516 2.11633C4.30257 2.11175 5.30039 2.11258 6.2978 2.11175C8.63052 2.11175 10.9632 2.11175 13.2955 2.11133C13.8896 2.11175 14.4836 2.11133 15.0776 2.11467C15.1502 2.11508 15.2224 2.13761 15.2945 2.15012C15.2224 2.16305 15.1506 2.18642 15.0784 2.18725C14.5119 2.19142 13.9454 2.191 13.3785 2.19184C12.601 2.19184 11.8234 2.19184 11.0458 2.19226H11.0462Z" fill="#FFC290"/>
<path id="Vector_96" d="M24.0026 16.794C24.955 16.7899 25.9073 16.7853 26.8597 16.7832C27.0174 16.7832 27.1755 16.7949 27.3332 16.8016C27.369 16.817 27.4049 16.8324 27.4408 16.8483C27.6239 16.8983 27.6606 17.0464 27.661 17.2033C27.664 18.4752 27.6673 19.7471 27.6548 21.019C27.6535 21.1345 27.5409 21.2488 27.48 21.3635C27.445 21.3811 27.4099 21.399 27.3749 21.4165C27.3549 21.4219 27.3353 21.4319 27.3152 21.4319C26.211 21.4307 25.1064 21.4286 24.0022 21.4265C24.0126 21.1533 23.9108 20.8425 24.2529 20.6807H26.863V17.537H24.0039C24.0035 17.2892 24.003 17.0414 24.0026 16.7936V16.794Z" fill="#F77F5A"/>
<path id="Vector_97" d="M24.0026 16.7943C24.003 17.0421 24.0034 17.2899 24.0038 17.5377C23.9121 17.5531 23.8199 17.569 23.7285 17.5844V20.6384C23.9129 20.6534 24.0827 20.6672 24.2529 20.6814C23.9108 20.8428 24.0122 21.154 24.0022 21.4272C23.7948 21.431 23.5875 21.4385 23.3802 21.4372C23.1028 21.4351 22.9476 21.2841 22.9388 21.0017C22.9313 20.7598 22.9368 20.5174 22.9368 20.275C22.9368 19.2922 22.9368 18.309 22.9368 17.3262C22.9368 16.9157 23.0719 16.7814 23.4849 16.7822C23.6576 16.7822 23.8299 16.7906 24.0026 16.7947V16.7943Z" fill="#F77F5A"/>
<path id="Vector_98" d="M27.4408 16.8485C27.4049 16.833 27.369 16.8176 27.3331 16.8018C27.369 16.8172 27.4049 16.8326 27.4408 16.8485Z" fill="#F77F5A"/>
<path id="Vector_99" d="M24.2529 20.6808C24.0831 20.667 23.9133 20.6528 23.7285 20.6378V17.5838C23.8199 17.5684 23.9116 17.5525 24.0038 17.5371C24.9516 17.5371 25.899 17.5371 26.863 17.5371V20.6808H24.2529ZM23.8282 19.0902C24.1411 19.4231 24.426 19.7493 24.7376 20.0484C24.9066 20.2106 25.1185 20.166 25.2916 19.9883C25.4839 19.7906 25.6791 19.5953 25.8723 19.398C26.1709 19.0923 26.4692 18.7856 26.8259 18.419C26.6473 18.2721 26.493 18.1332 26.3245 18.0147C26.2819 17.9847 26.1718 17.9939 26.1301 18.0293C25.9941 18.1441 25.8752 18.2788 25.7496 18.4065C25.4989 18.6609 25.2478 18.9154 24.985 19.1819C24.8144 19.0017 24.6679 18.8365 24.5082 18.6855C24.4677 18.6472 24.3584 18.6192 24.3263 18.6442C24.1594 18.7756 24.0076 18.9262 23.8286 19.0897L23.8282 19.0902Z" fill="#FFC290"/>
<path id="Vector_100" d="M23.8283 19.0901C24.0072 18.9262 24.1591 18.776 24.3259 18.6446C24.358 18.6196 24.4673 18.6475 24.5078 18.6859C24.6676 18.8369 24.814 19.0021 24.9846 19.1823C25.2478 18.9153 25.4985 18.6609 25.7492 18.4068C25.8748 18.2796 25.9937 18.1444 26.1297 18.0297C26.1718 17.9943 26.2815 17.9851 26.3241 18.0151C26.493 18.1336 26.6474 18.2725 26.8255 18.4194C26.4684 18.786 26.1706 19.0926 25.8719 19.3984C25.6792 19.5957 25.4839 19.7909 25.2912 19.9887C25.1185 20.1664 24.9066 20.211 24.7372 20.0487C24.4256 19.7501 24.1407 19.4234 23.8278 19.0905L23.8283 19.0901Z" fill="#F77F5A"/>
</g>
<defs>
<filter id="filter0_d_767_1868" x="0.833139" y="0.353516" width="29.3337" height="26.6277" filterUnits="userSpaceOnUse" color-interpolation-filters="sRGB">
<feFlood flood-opacity="0" result="BackgroundImageFix"/>
<feColorMatrix in="SourceAlpha" type="matrix" values="0 0 0 0 0 0 0 0 0 0 0 0 0 0 0 0 0 0 127 0" result="hardAlpha"/>
<feOffset dy="0.166861"/>
<feGaussianBlur stdDeviation="0.0834304"/>
<feComposite in2="hardAlpha" operator="out"/>
<feColorMatrix type="matrix" values="0 0 0 0 0 0 0 0 0 0 0 0 0 0 0 0 0 0 0.25 0"/>
<feBlend mode="normal" in2="BackgroundImageFix" result="effect1_dropShadow_767_1868"/>
<feBlend mode="normal" in="SourceGraphic" in2="effect1_dropShadow_767_1868" result="shape"/>
</filter>
</defs>
</svg>
