<svg width="38" height="34" viewBox="0 0 38 34" fill="none" xmlns="http://www.w3.org/2000/svg">
<g filter="url(#filter0_d_1752_978)">
<path d="M29.8636 0.698818C31.1903 0.696747 32.5186 0.652213 33.8427 0.706586C34.8929 0.749567 35.6836 1.59106 35.7194 2.67077C35.7339 3.1099 35.724 3.54955 35.724 3.98868C35.724 7.70214 35.7261 11.4151 35.7194 15.1285C35.7194 15.3787 35.7561 15.4946 36.0446 15.5547C36.4915 15.6479 36.7711 15.9866 36.9347 16.4123C36.9487 16.449 36.9777 16.4801 37 16.5138V32.2852C36.812 32.6741 36.6028 33.0464 36.1694 33.2132C36.0508 33.2588 35.9234 33.3116 35.7996 33.3116C33.7521 33.3162 31.705 33.3131 29.6575 33.3116C29.6922 33.0035 29.7263 32.6948 29.761 32.3867C29.8641 32.3836 29.9671 32.3784 30.0707 32.3784C31.8707 32.3779 33.6708 32.3784 35.4703 32.3774C35.9089 32.3774 36.0264 32.2614 36.0264 31.8347C36.0264 26.8826 36.0264 21.9309 36.0264 16.9788C36.0264 16.5417 35.9374 16.4532 35.4962 16.4532C33.7567 16.4527 32.0168 16.4532 30.2773 16.4521C30.1743 16.4521 30.0717 16.4423 29.9687 16.4371C29.9511 16.1264 29.934 15.8157 29.9164 15.505C30.6823 15.4978 31.4482 15.4796 32.2135 15.49C32.4688 15.4936 32.5486 15.4377 32.5476 15.1658C32.5362 12.4865 32.5403 9.80717 32.5408 7.12837C32.5408 6.06886 32.545 5.00935 32.547 3.94984C32.5258 3.91877 32.5046 3.88718 32.4839 3.85611C31.645 3.85352 30.806 3.85093 29.9666 3.84834C29.9666 3.54126 29.9671 3.23418 29.9677 2.9271C30.9578 2.92244 31.9489 2.89189 32.938 2.92503C33.3689 2.93953 33.489 3.10835 33.4885 3.50553C33.4817 7.38159 33.4843 11.2582 33.4849 15.1342C33.4849 15.2419 33.4849 15.3491 33.4849 15.4755C33.837 15.4755 34.1467 15.4605 34.4548 15.4802C34.7023 15.4962 34.7764 15.4165 34.7758 15.1643C34.7686 11.0816 34.7707 6.99839 34.7701 2.91519C34.7701 2.06644 34.3336 1.63456 33.4812 1.63301C32.2928 1.63042 31.1043 1.62731 29.9154 1.62421C29.8983 1.31609 29.8807 1.00745 29.8636 0.699336V0.698818Z" fill="#FFE1C9"/>
<path d="M7.00751 27.1998C6.47361 27.2055 5.94024 27.2149 5.40634 27.2169C4.6565 27.22 3.90615 27.2019 3.15734 27.2211C1.9083 27.2527 0.997416 26.2237 1.00001 25.056C1.01761 17.6534 1.00881 10.2503 1.00933 2.84771C1.00933 1.83895 1.50335 1.1264 2.44531 0.781517C2.55716 0.740607 2.67834 0.700733 2.79537 0.700215C4.13089 0.695037 5.46641 0.698144 6.80193 0.698662C6.80193 1.00574 6.80193 1.31282 6.80141 1.61991C5.63005 1.62301 4.45817 1.62146 3.2868 1.63337C3.07552 1.63544 2.84664 1.65098 2.65711 1.73228C2.18535 1.93475 1.97769 2.30812 1.97821 2.8358C1.98546 9.48647 1.98287 16.1377 1.98287 22.7883C1.98287 23.5982 1.97925 24.4081 1.98598 25.2175C1.99012 25.7261 2.35883 26.1403 2.87253 26.2341C2.97092 26.2506 3.06931 26.2807 3.1677 26.2812C4.44833 26.2864 5.72896 26.2869 7.00907 26.2884C7.00907 26.5924 7.00907 26.8959 7.00855 27.1998H7.00751Z" fill="#FFE1C9"/>
<path d="M26.7611 33.3107C26.0309 33.3439 25.4696 32.8628 25.3764 32.1238C25.3898 32.0845 25.4142 32.0451 25.4147 32.0058C25.4168 30.4683 25.4173 28.9313 25.4121 27.3938C25.4121 27.3343 25.35 27.2753 25.3173 27.2162C24.9885 27.2105 24.6597 27.2048 24.3308 27.1991C24.3308 26.8952 24.3308 26.5912 24.3303 26.2877C24.5929 26.2857 24.8559 26.2898 25.1185 26.2774C25.1858 26.2743 25.2505 26.2178 25.3168 26.1857C25.3189 25.86 25.3137 25.5338 25.3261 25.2085C25.3329 25.0366 25.2676 24.9828 25.1024 24.99C24.9321 24.9978 24.7607 24.9807 24.5898 24.9745C24.5898 24.6627 24.5898 24.3505 24.5898 24.0387C24.8342 24.031 25.0786 24.0232 25.3225 24.0154C25.3536 23.9202 25.4116 23.8244 25.4121 23.7291C25.4173 21.4837 25.4162 19.2378 25.4147 16.9924C25.4147 16.8904 25.3981 16.7879 25.3893 16.6859C25.4478 16.4922 25.468 16.2747 25.5711 16.109C25.9589 15.4845 26.5747 15.4342 27.2261 15.5047C27.2261 15.6937 27.2385 15.8843 27.223 16.0722C27.2038 16.3063 27.3059 16.3684 27.5244 16.3627C27.9972 16.3503 28.471 16.355 28.9438 16.3627C29.0261 16.3638 29.1074 16.4119 29.1893 16.4378C28.4146 16.443 27.6404 16.4492 26.8657 16.4528C26.4162 16.4554 26.3012 16.5673 26.3012 17.0178C26.3012 21.9435 26.3012 26.8693 26.3012 31.795C26.3012 32.2165 26.3893 32.3165 26.8123 32.3864C26.7953 32.6945 26.7777 33.0031 26.7606 33.3113L26.7611 33.3107Z" fill="#FFE1C9"/>
<path d="M13.9886 29.6587H15.3344V27.1979C14.8585 27.1979 14.3976 27.1979 13.9368 27.1979C13.9368 26.8949 13.9368 26.592 13.9368 26.2891C14.8332 26.2891 15.7295 26.2891 16.6259 26.2891C16.6259 26.5961 16.6259 26.9037 16.6259 27.2108C16.3882 27.1901 16.3033 27.2864 16.3106 27.535C16.3287 28.1326 16.3287 28.7317 16.3106 29.3293C16.3033 29.5779 16.3867 29.6747 16.6259 29.6514C16.5741 29.9771 16.4897 30.3086 16.7808 30.5773C15.8673 30.5773 14.9538 30.5773 14.0398 30.5773C14.0227 30.2713 14.0051 29.9652 13.988 29.6592L13.9886 29.6587Z" fill="#FFE1C9"/>
<path d="M22.2617 27.1989C22.0307 27.2051 21.7982 27.201 21.5688 27.2238C21.503 27.2305 21.4373 27.3077 21.3865 27.3657C21.3653 27.39 21.3824 27.4485 21.3824 27.4915C21.3824 28.1947 21.3824 28.898 21.3824 29.6602C21.6698 29.6602 21.9401 29.6602 22.2104 29.6602C22.2275 29.9663 22.2451 30.2723 22.2622 30.5784C21.4176 30.5784 20.573 30.5784 19.7284 30.5784C19.7284 30.2697 19.7284 29.9611 19.7284 29.653H20.3886V27.2119H19.7802C19.7802 26.9048 19.7802 26.5977 19.7802 26.2901C20.6077 26.2901 21.4347 26.2896 22.2622 26.2891C22.2622 26.5925 22.2622 26.896 22.2622 27.1994L22.2617 27.1989Z" fill="#FFE1C9"/>
<path d="M22.2621 30.5763C22.245 30.2703 22.2274 29.9642 22.2103 29.6582C22.5376 29.6618 22.8654 29.6655 23.1927 29.6696C23.2424 29.6836 23.2926 29.6976 23.3423 29.711C24.0953 29.8265 24.7224 30.5582 24.754 31.3847C24.7721 31.857 24.7643 32.3303 24.7586 32.8031C24.7545 33.1272 24.5655 33.3178 24.2475 33.3188C23.6375 33.3209 23.0275 33.3131 22.4169 33.309C22.4169 33.0014 22.4169 32.6938 22.4169 32.3867C22.7862 32.3836 23.1564 32.366 23.5246 32.3821C23.7592 32.3924 23.8301 32.3065 23.8105 32.0848C23.7949 31.9056 23.8094 31.7239 23.8063 31.5437C23.797 30.9678 23.4335 30.6022 22.854 30.5851C22.6567 30.5794 22.4589 30.5789 22.2616 30.5758L22.2621 30.5763Z" fill="#FFE1C9"/>
<path d="M13.9886 29.6585C14.0056 29.9646 14.0232 30.2706 14.0403 30.5767C13.9632 30.5803 13.8855 30.5803 13.8089 30.5881C13.3889 30.6331 13.0228 30.8812 12.9762 31.238C12.928 31.6051 12.9653 31.9831 12.9653 32.3896H13.9368C13.9368 32.6967 13.9368 33.0033 13.9368 33.3104C13.4391 33.3135 12.9415 33.3228 12.4438 33.3176C12.1777 33.315 11.9845 33.1302 11.9804 32.8661C11.9721 32.3337 11.9488 31.7988 11.9902 31.2695C12.0673 30.2882 12.9746 29.5752 13.988 29.659L13.9886 29.6585Z" fill="#FFE1C9"/>
<path d="M16.5741 0.699219C17.9014 0.699219 19.2281 0.699219 20.5553 0.699219C20.5553 1.00682 20.5553 1.31442 20.5553 1.62202C19.2281 1.62202 17.9008 1.6215 16.5736 1.62098C16.5736 1.3139 16.5736 1.0063 16.5736 0.699219H16.5741Z" fill="#FFE1C9"/>
<path d="M7.00745 27.2005C7.00745 26.8965 7.00745 26.593 7.00796 26.2891C8.31811 26.2891 9.62774 26.2891 10.9379 26.2896C10.9379 26.593 10.9379 26.896 10.9379 27.1994C10.4842 27.2056 10.0306 27.2176 9.57699 27.217C8.72047 27.2155 7.86396 27.2062 7.00745 27.2005Z" fill="#FFE1C9"/>
<path d="M9.80017 0.699219C10.9721 0.699219 12.1444 0.699219 13.3163 0.699219C13.3163 1.00682 13.3163 1.3139 13.3163 1.6215C12.1444 1.6215 10.9721 1.62098 9.80017 1.62046C9.80017 1.31338 9.80017 1.00682 9.80017 0.699737V0.699219Z" fill="#FFE1C9"/>
<path d="M23.9172 0.699219C25.0549 0.699219 26.1926 0.699219 27.3298 0.699219C27.3469 1.00785 27.3645 1.31597 27.3816 1.62461C27.0398 1.62719 26.6981 1.62978 26.3563 1.63289C25.6986 1.63911 25.041 1.64636 24.3833 1.65309C24.245 1.64325 24.1073 1.63341 23.969 1.62409C23.9519 1.31597 23.9343 1.00785 23.9172 0.699737V0.699219Z" fill="#FFE1C9"/>
<path d="M23.9172 0.699219C23.9343 1.00734 23.9519 1.31545 23.969 1.62357C22.8313 1.62357 21.6936 1.62253 20.5559 1.62253C20.5559 1.31494 20.5559 1.00734 20.5559 0.699737C21.6765 0.699737 22.7966 0.699737 23.9172 0.699737V0.699219Z" fill="#FFE1C9"/>
<path d="M19.8837 33.3099C18.7978 33.3099 17.7119 33.3099 16.626 33.3099C16.626 33.0028 16.626 32.6958 16.626 32.3887C17.729 32.3887 18.8325 32.3887 19.9355 32.3887C19.9184 32.6958 19.9008 33.0028 19.8837 33.3104V33.3099Z" fill="#FFE1C9"/>
<path d="M13.3164 1.6215C13.3164 1.3139 13.3164 1.00682 13.3164 0.699219C14.4023 0.699219 15.4882 0.699219 16.5747 0.699219C16.5747 1.0063 16.5747 1.3139 16.5747 1.62098C16.4727 1.62409 16.3706 1.62875 16.2686 1.6303C15.6648 1.63755 15.061 1.64377 14.4572 1.6505C14.0771 1.64066 13.697 1.63134 13.3169 1.6215H13.3164Z" fill="#FFE1C9"/>
<path d="M10.938 27.1989C10.938 26.8955 10.938 26.5925 10.938 26.2891C11.9374 26.2891 12.9369 26.2891 13.9368 26.2891C13.9368 26.592 13.9368 26.8949 13.9368 27.1979C12.9374 27.1979 11.9374 27.1979 10.938 27.1979V27.1989Z" fill="#FFE1C9"/>
<path d="M9.80028 0.700254C9.80028 1.00734 9.80028 1.3139 9.80028 1.62098C9.69827 1.62409 9.59574 1.62875 9.49372 1.62978C8.87179 1.63703 8.24986 1.64325 7.62741 1.64946C7.35192 1.63962 7.07591 1.6303 6.80042 1.62046C6.80042 1.31338 6.80041 1.0063 6.80093 0.699219C7.80037 0.699219 8.80033 0.699219 9.79977 0.699219L9.80028 0.700254Z" fill="#FFE1C9"/>
<path d="M26.7612 33.3116C26.7783 33.0035 26.7959 32.6948 26.813 32.3867C27.7954 32.3867 28.7782 32.3867 29.7606 32.3867C29.7259 32.6948 29.6917 33.0035 29.657 33.3116C28.6918 33.3116 27.7265 33.3116 26.7612 33.3116Z" fill="#FFE1C9"/>
<path d="M16.6259 32.3887C16.6259 32.6958 16.6259 33.0028 16.6259 33.3099C15.7295 33.3099 14.8332 33.3099 13.9368 33.3099C13.9368 33.0028 13.9368 32.6963 13.9368 32.3892C14.8332 32.3892 15.7295 32.3892 16.6259 32.3887Z" fill="#FFE1C9"/>
<path d="M27.3815 1.62461C27.3644 1.31597 27.3468 1.00785 27.3297 0.699219C28.1743 0.699219 29.0189 0.699219 29.8635 0.699219C29.8806 1.00734 29.8982 1.31597 29.9153 1.62409C29.0707 1.62409 28.2261 1.62409 27.3815 1.62409V1.62461Z" fill="#FFE1C9"/>
<path d="M19.8837 33.3115C19.9008 33.0044 19.9184 32.6973 19.9355 32.3897C20.763 32.3897 21.59 32.3892 22.4175 32.3887C22.4175 32.6963 22.4175 33.0039 22.4175 33.311C21.5729 33.311 20.7283 33.311 19.8837 33.311V33.3115Z" fill="#FFE1C9"/>
<path d="M22.2616 27.198C22.2616 26.8945 22.2616 26.5911 22.2616 26.2876C22.9509 26.2876 23.6406 26.2876 24.3299 26.2871C24.3299 26.5911 24.3299 26.8951 24.3304 27.1985C23.6406 27.1985 22.9509 27.1985 22.2611 27.198H22.2616Z" fill="#FFE1C9"/>
<path d="M25.3169 27.2168C25.3501 27.2758 25.4117 27.3354 25.4117 27.3944C25.4169 28.9314 25.4163 30.4689 25.4143 32.0063C25.4143 32.0457 25.3894 32.085 25.376 32.1244C25.362 32.0255 25.3356 31.9271 25.335 31.8282C25.3325 30.4026 25.3335 28.9764 25.3325 27.5508C25.3325 27.4395 25.3221 27.3281 25.3164 27.2168H25.3169Z" fill="#FFE1C9"/>
<path d="M23.3429 29.7133C23.2932 29.6993 23.243 29.6853 23.1932 29.6719C23.243 29.6859 23.2932 29.6998 23.3429 29.7133Z" fill="#FFE1C9"/>
<path d="M27.3816 1.62356C28.2262 1.62356 29.0708 1.62356 29.9154 1.62356C31.1038 1.62667 32.2923 1.6303 33.4812 1.63237C34.3336 1.63392 34.7696 2.0658 34.7701 2.91455C34.7707 6.99775 34.7681 11.0804 34.7758 15.1636C34.7758 15.4158 34.7023 15.4956 34.4548 15.4795C34.1472 15.4598 33.837 15.4749 33.4849 15.4749C33.4849 15.3485 33.4849 15.2408 33.4849 15.1336C33.4849 11.2575 33.4823 7.38095 33.4885 3.50489C33.489 3.10771 33.3689 2.93889 32.938 2.92439C31.9489 2.89125 30.9583 2.9218 29.9677 2.92646C29.1572 2.92646 28.3473 2.92646 27.5374 2.92646C26.641 2.92698 25.7446 2.9275 24.8483 2.92801C24.6758 2.91766 24.5034 2.9073 24.3309 2.89642C24.3485 2.48163 24.3661 2.06632 24.3838 1.65153C25.0414 1.6448 25.6991 1.63806 26.3567 1.63133C26.6985 1.62823 27.0403 1.62564 27.3821 1.62305L27.3816 1.62356Z" fill="#FFE1C9"/>
<path d="M29.7606 32.3851C28.7782 32.3851 27.7953 32.3851 26.813 32.3851C26.3899 32.3152 26.3019 32.2153 26.3019 31.7938C26.3019 26.868 26.3019 21.9423 26.3019 17.0166C26.3019 16.566 26.4168 16.4537 26.8663 16.4516C27.641 16.4475 28.4152 16.4418 29.1899 16.4366C29.4493 16.4366 29.7088 16.4361 29.9682 16.4355C30.0713 16.4407 30.1738 16.4506 30.2768 16.4506C32.0163 16.4516 33.7562 16.4506 35.4957 16.4516C35.9364 16.4516 36.0254 16.5402 36.026 16.9772C36.026 21.9294 36.026 26.881 36.026 31.8331C36.026 32.2598 35.9084 32.3753 35.4698 32.3758C33.6698 32.3774 31.8697 32.3758 30.0702 32.3769C29.9672 32.3769 29.8641 32.3825 29.7606 32.3851ZM29.5529 16.7411C28.8041 16.7364 28.0558 16.7297 27.307 16.7271C26.7446 16.725 26.6059 16.8654 26.6059 17.4283C26.6059 21.7849 26.6059 26.1415 26.6059 30.4981C26.6059 30.567 26.6022 30.6364 26.6079 30.7047C26.6323 31.0004 26.8057 31.19 27.1014 31.1931C27.7984 31.2003 28.4955 31.19 29.193 31.1863C29.2702 31.1894 29.3478 31.1956 29.425 31.1956C31.3193 31.1962 33.2135 31.1967 35.1078 31.1962C35.5557 31.1962 35.7473 31.0035 35.7473 30.5499C35.7479 26.1591 35.7479 21.7678 35.7473 17.377C35.7473 16.9202 35.549 16.7281 35.0819 16.7281C33.4461 16.7281 31.8102 16.7281 30.1743 16.7286C30.0889 16.7286 30.0029 16.738 29.9175 16.7426C29.7963 16.7421 29.6751 16.7416 29.5539 16.7411H29.5529Z" fill="#FFE1C9"/>
<path d="M29.9682 16.436C29.7087 16.436 29.4493 16.4365 29.1898 16.4371C29.108 16.4107 29.0267 16.363 28.9444 16.362C28.4711 16.3547 27.9978 16.3495 27.525 16.362C27.3059 16.3677 27.2039 16.305 27.2236 16.0715C27.2391 15.8835 27.2267 15.6929 27.2267 15.5039C28.1236 15.5039 29.02 15.5039 29.9169 15.5039C29.9345 15.8146 29.9516 16.1253 29.9692 16.436H29.9682Z" fill="#FFE1C9"/>
<path d="M27.5369 2.9263C28.3468 2.9263 29.1573 2.9263 29.9672 2.9263C29.9672 3.23338 29.9666 3.54046 29.9661 3.84754C29.1562 3.84754 28.3458 3.84754 27.5359 3.84754C27.5359 3.54046 27.5359 3.23338 27.5364 2.92578L27.5369 2.9263Z" fill="#FFE1C9"/>
<path d="M6.80028 1.61914C7.07577 1.62898 7.35178 1.6383 7.62727 1.64762C7.61019 2.05206 7.59362 2.45701 7.57653 2.86197C6.33836 2.86248 5.09968 2.86197 3.86151 2.86766C3.76986 2.86766 3.6782 2.91789 3.58654 2.94482C3.33228 3.04684 3.23389 3.23274 3.23441 3.50772C3.23855 10.4706 3.237 17.4336 3.23803 24.397C3.23803 24.8113 3.38199 24.9573 3.79834 24.9584C4.83247 24.9604 5.86661 24.9584 6.90074 24.9573C7.126 24.9734 7.35126 24.9894 7.57653 25.0055C7.57653 25.3985 7.57653 25.7916 7.57653 26.1846C6.10637 26.1846 4.63621 26.1841 3.16553 26.1872C3.06714 26.1872 2.96927 26.2178 2.87088 26.2338C2.35718 26.1401 1.98847 25.7263 1.98433 25.2173C1.9776 24.4074 1.98122 23.5975 1.98122 22.7881C1.98122 16.1374 1.98381 9.48622 1.97656 2.83556C1.97605 2.30787 2.1837 1.93451 2.65546 1.73203C2.84499 1.65073 3.07387 1.63519 3.28515 1.63312C4.45652 1.62121 5.62788 1.62277 6.79976 1.61966L6.80028 1.61914Z" fill="#FFE1C9"/>
<path d="M2.87146 26.2348C2.96985 26.2187 3.06772 26.1882 3.16611 26.1882C4.63627 26.1851 6.10643 26.1856 7.57711 26.1856C10.9208 26.1856 14.2651 26.1856 17.6088 26.1856C20.1783 26.1856 22.7473 26.1856 25.3169 26.1861C25.2511 26.2182 25.1859 26.2746 25.1185 26.2778C24.8565 26.2902 24.5935 26.286 24.3304 26.2881C23.6411 26.2881 22.9514 26.2881 22.2621 26.2886C21.4346 26.2886 20.6076 26.2891 19.7801 26.2897C18.7289 26.2897 17.6771 26.2897 16.6259 26.2897C15.7295 26.2897 14.8331 26.2897 13.9367 26.2897C12.9373 26.2897 11.9379 26.2897 10.9379 26.2897C9.62777 26.2897 8.31814 26.2897 7.008 26.2891C5.72737 26.2876 4.44674 26.2866 3.16663 26.2819C3.06824 26.2819 2.96985 26.2513 2.87146 26.2348Z" fill="#FFE1C9"/>
<path d="M25.3164 26.1856C22.7468 26.1856 20.1778 26.1856 17.6083 26.185C17.6083 25.7925 17.6083 25.4 17.6083 25.007C17.7528 25.0018 17.8972 24.9935 18.0422 24.9914C18.6388 24.9837 19.2353 24.9774 19.8319 24.9707C20.6941 24.9707 21.5558 24.9707 22.418 24.9712C23.142 24.9723 23.8659 24.9728 24.5893 24.9738C24.7602 24.98 24.9316 24.9971 25.102 24.9893C25.2672 24.9821 25.3324 25.0354 25.3257 25.2079C25.3133 25.5331 25.3185 25.8593 25.3164 26.185V26.1856Z" fill="#FFE1C9"/>
<path d="M24.5893 24.9748C23.8653 24.9738 23.1414 24.9733 22.418 24.9722C22.418 24.6615 22.418 24.3503 22.418 24.0396C23.1419 24.0396 23.8659 24.0396 24.5898 24.0391C24.5898 24.3508 24.5898 24.6631 24.5898 24.9748H24.5893Z" fill="#FFE1C9"/>
<path d="M25.3226 24.0151C25.3242 21.6765 25.3247 19.3379 25.3294 16.9994C25.3294 16.8948 25.3687 16.7902 25.3894 16.6855C25.3982 16.7876 25.4148 16.8896 25.4148 16.9921C25.4164 19.2375 25.4169 21.4834 25.4122 23.7287C25.4122 23.8245 25.3537 23.9198 25.3226 24.0151Z" fill="#FFE1C9"/>
<path d="M22.4175 32.3876C21.59 32.3876 20.763 32.3881 19.9355 32.3886C18.8325 32.3886 17.7289 32.3886 16.6259 32.3886C15.7296 32.3886 14.8332 32.3886 13.9368 32.3891C13.6209 32.3891 13.305 32.3891 12.9653 32.3891C12.9653 31.9826 12.928 31.6046 12.9762 31.2375C13.0228 30.8807 13.3889 30.6331 13.8089 30.5876C13.8855 30.5793 13.9632 30.5798 14.0403 30.5762C14.9538 30.5762 15.8673 30.5762 16.7813 30.5762C17.7636 30.5762 18.7465 30.5762 19.7289 30.5762C20.5735 30.5762 21.4181 30.5762 22.2627 30.5762C22.46 30.5793 22.6578 30.5798 22.8551 30.5855C23.4346 30.6026 23.7981 30.9682 23.8074 31.544C23.8105 31.7242 23.796 31.906 23.8115 32.0852C23.8312 32.3063 23.7603 32.3922 23.5257 32.3824C23.157 32.3664 22.7872 32.384 22.418 32.3871L22.4175 32.3876Z" fill="#FFE1C9"/>
<path d="M19.7801 27.2112H20.3886V29.6523C20.168 29.6523 19.9479 29.6523 19.7283 29.6523C18.6942 29.6523 17.66 29.6523 16.6259 29.6523C16.3872 29.6751 16.3033 29.5783 16.3105 29.3302C16.3287 28.7326 16.3287 28.1335 16.3105 27.5359C16.3028 27.2873 16.3877 27.191 16.6259 27.2117C17.6771 27.2117 18.7289 27.2117 19.7801 27.2117V27.2112Z" fill="#FFE1C9"/>
<path d="M19.7802 27.2108C18.7289 27.2108 17.6772 27.2108 16.626 27.2108C16.626 26.9037 16.626 26.5961 16.626 26.2891C17.6772 26.2891 18.7289 26.2891 19.7802 26.2891C19.7802 26.5961 19.7802 26.9032 19.7802 27.2108Z" fill="#FFE1C9"/>
<path d="M16.6259 29.6509C17.6601 29.6509 18.6942 29.6509 19.7283 29.6509C19.7283 29.9595 19.7283 30.2682 19.7283 30.5763C18.746 30.5763 17.7631 30.5763 16.7808 30.5763C16.4897 30.3081 16.5741 29.9766 16.6259 29.6504V29.6509Z" fill="#FFE1C9"/>
<path d="M24.3832 1.65268C24.3656 2.06748 24.348 2.48279 24.3304 2.89758C24.2372 2.90328 24.1445 2.91208 24.0513 2.91311C23.5412 2.91985 23.0311 2.92451 22.5205 2.9302C21.5729 2.9302 20.6247 2.93072 19.6771 2.93124C19.3663 2.92451 19.0562 2.91777 18.7454 2.91104C18.6559 2.89551 18.5658 2.86754 18.4762 2.86703C17.7388 2.86288 17.0014 2.8634 16.2639 2.86288C16.2639 2.61432 16.265 2.36575 16.2639 2.11719C16.2624 1.81321 16.1733 1.72673 15.8616 1.7257C15.467 1.72466 15.0729 1.72932 14.6783 1.72207C14.6043 1.72052 14.5307 1.67547 14.4567 1.65061C15.0605 1.64388 15.6643 1.63766 16.2681 1.63041C16.3701 1.62938 16.4721 1.62472 16.5741 1.62109C17.9014 1.62109 19.2286 1.62161 20.5558 1.62213C21.6935 1.62213 22.8312 1.62317 23.9689 1.62317C24.1072 1.633 24.2455 1.64284 24.3832 1.65216V1.65268Z" fill="#FFE1C9"/>
<path d="M14.4567 1.64918C14.5308 1.67403 14.6038 1.71908 14.6783 1.72064C15.0724 1.72789 15.467 1.72323 15.8616 1.72426C16.1734 1.7253 16.2619 1.81178 16.264 2.11575C16.2655 2.36432 16.264 2.61288 16.264 2.86145C13.3682 2.86145 10.4724 2.86145 7.57715 2.86197C7.59424 2.45701 7.61081 2.05258 7.6279 1.64762C8.24983 1.64141 8.87176 1.63519 9.49421 1.62794C9.59622 1.62691 9.69875 1.62225 9.80077 1.61914C10.9726 1.61914 12.145 1.61966 13.3169 1.62018C13.697 1.63002 14.0771 1.63934 14.4572 1.64918H14.4567Z" fill="#FFE1C9"/>
<path d="M6.90034 24.9573C5.86621 24.9578 4.83207 24.9609 3.79794 24.9583C3.38211 24.9573 3.23763 24.8113 3.23763 24.397C3.23712 17.4341 3.23763 10.4711 3.23401 3.50769C3.23401 3.23272 3.33188 3.04681 3.58614 2.94531C3.67987 2.94997 3.77412 2.95878 3.86785 2.95929C4.89732 2.96137 5.92628 2.96188 6.95575 2.9624C6.95575 3.25757 6.95575 3.55223 6.95575 3.8474C6.11995 3.85102 5.28467 3.86241 4.44939 3.85413C4.23345 3.85206 4.17545 3.91575 4.17545 4.12962C4.18063 10.67 4.17959 17.2104 4.18011 23.7502C4.18011 23.8263 4.18632 23.9019 4.19202 24.0366C5.10291 24.0366 6.00292 24.0366 6.90293 24.0366C6.9019 24.3437 6.90086 24.6502 6.89983 24.9573H6.90034Z" fill="#FFE1C9"/>
<path d="M11.7935 5.50442C12.0581 5.57537 12.316 5.63388 12.5651 5.71933C12.6143 5.73642 12.6676 5.86743 12.6515 5.92906C12.3564 7.07608 12.0534 8.22155 11.7464 9.36547C11.4434 10.4938 11.1343 11.6207 10.8277 12.748C10.7402 13.0696 10.6521 13.3912 10.5584 13.7356C10.2746 13.6646 10.009 13.6051 9.75006 13.5253C9.71174 13.5134 9.67031 13.3984 9.6843 13.3456C10.023 12.0665 10.371 10.7901 10.7138 9.5115C11.0162 8.38312 11.3134 7.2537 11.6143 6.12532C11.6671 5.9275 11.7277 5.73176 11.794 5.50391L11.7935 5.50442Z" fill="#FFE1C9"/>
<path d="M15.3251 9.45934C14.482 8.65462 13.7192 7.92653 12.8855 7.1306C13.1253 6.9302 13.3231 6.79038 13.4883 6.61897C13.6245 6.4776 13.698 6.5413 13.801 6.64486C14.5048 7.35224 15.2122 8.05547 15.9164 8.76129C16.0495 8.8949 16.1847 9.02798 16.3038 9.17401C16.4799 9.38944 16.411 9.609 16.2442 9.77989C15.3888 10.655 14.5229 11.5198 13.6431 12.4069C13.409 12.1682 13.2019 11.9569 12.9616 11.712C13.7348 10.9751 14.4965 10.2485 15.3245 9.45934H15.3251Z" fill="#FFE1C9"/>
<path d="M9.41086 7.15799C8.62011 7.93838 7.86769 8.68045 7.09662 9.44168C7.87442 10.2008 8.63358 10.9419 9.42536 11.7145C9.15815 11.9506 8.93237 12.15 8.64963 12.3996C8.27782 12.0097 7.88685 11.5923 7.48759 11.1832C7.05623 10.7415 6.61813 10.306 6.18003 9.87097C5.86726 9.5613 5.86156 9.35261 6.17278 9.04035C6.96871 8.24339 7.77033 7.45161 8.55901 6.64791C8.6952 6.50913 8.762 6.52052 8.88214 6.65465C9.03491 6.82502 9.21356 6.9726 9.41138 7.15799H9.41086Z" fill="#FFE1C9"/>
<path d="M25.2615 4.94487C26.0952 4.94021 26.9284 4.93399 27.7622 4.93141C28.4328 4.92933 29.1034 4.93503 29.774 4.92778C29.934 4.92623 30.0158 4.96351 30.0044 5.14061C29.9936 5.31202 29.9962 5.48446 30.0039 5.65639C30.0112 5.81744 29.9516 5.89926 29.7828 5.89252C29.5177 5.88217 29.252 5.87751 28.9864 5.87026C28.8999 5.85058 28.8139 5.81329 28.7274 5.81329C27.5721 5.80863 26.4163 5.80915 25.261 5.80811C25.261 5.52071 25.2615 5.23279 25.262 4.94539L25.2615 4.94487Z" fill="#FFE1C9"/>
<path d="M25.5199 14.3216C25.4344 14.3263 25.3485 14.3346 25.263 14.3346C22.7934 14.3351 20.3233 14.332 17.8537 14.3398C17.6238 14.3403 17.5409 14.2906 17.5461 14.0446C17.5601 13.3616 17.5487 13.3616 18.2364 13.3616C19.2431 13.3616 20.2503 13.361 21.257 13.3616C21.3512 13.3616 21.445 13.3719 21.5392 13.3776C21.5061 13.4133 21.4724 13.4801 21.4393 13.4796C21.0825 13.4796 21.1332 13.7251 21.1182 13.9597C21.1032 14.1963 21.1902 14.246 21.4118 14.244C22.5055 14.2331 23.5987 14.2393 24.6924 14.2393C24.8881 14.2393 25.0844 14.2321 25.2796 14.2434C25.3609 14.2481 25.4396 14.2942 25.5199 14.3216Z" fill="#FFE1C9"/>
<path d="M19.9873 21.4395H24.2657C24.2657 21.7155 24.2766 21.9878 24.2549 22.2582C24.2512 22.3027 24.1016 22.3669 24.0192 22.3679C23.1317 22.3757 22.2441 22.3742 21.3565 22.3721C20.9003 22.3711 20.444 22.3628 19.9878 22.3576C19.9878 22.0515 19.9878 21.746 19.9878 21.44L19.9873 21.4395Z" fill="#FFE1C9"/>
<path d="M17.5575 11.3434C17.6036 11.3113 17.6502 11.2512 17.6963 11.2507C19.8505 11.2466 22.0047 11.2481 24.159 11.2497C24.1833 11.2497 24.2076 11.2616 24.2501 11.2725V12.1984C24.1849 12.2056 24.1269 12.218 24.0694 12.218C22.6821 12.2191 21.2948 12.2186 19.9075 12.218C19.865 12.218 19.822 12.2092 19.7796 12.2046C19.9204 12.1761 20.0602 12.1264 20.2016 12.1238C20.7138 12.114 20.7008 12.1196 20.7169 11.6241C20.7246 11.389 20.6464 11.3367 20.4243 11.3393C19.4689 11.3506 18.5134 11.3439 17.5575 11.3439V11.3434Z" fill="#FFE1C9"/>
<path d="M20.401 7.05461C21.6324 7.04995 22.8639 7.04581 24.0958 7.03907C24.2341 7.03804 24.2641 7.10225 24.2703 7.22964C24.3061 7.98776 24.3087 7.98984 23.5531 7.98725C22.5024 7.98362 21.4522 7.97637 20.4015 7.97068C20.4015 7.66567 20.4015 7.36014 20.4015 7.05461H20.401Z" fill="#FFE1C9"/>
<path d="M23.5547 10.0826C22.3834 10.0837 21.212 10.0852 20.0406 10.0863C19.9878 9.92572 19.9158 9.76778 19.8879 9.60311C19.863 9.45604 19.8863 9.30017 19.8879 9.14844C21.0929 9.15206 22.2979 9.15569 23.5029 9.15983C23.52 9.46743 23.5371 9.77555 23.5542 10.0831L23.5547 10.0826Z" fill="#FFE1C9"/>
<path d="M12.5407 22.3567C11.2823 22.3567 10.024 22.3567 8.76611 22.3572C8.76611 22.0506 8.76611 21.7441 8.76611 21.4375C10.0245 21.4375 11.2828 21.4375 12.5412 21.438C12.5412 21.7441 12.5412 22.0506 12.5412 22.3567H12.5407Z" fill="#FFE1C9"/>
<path d="M19.9872 21.4395C19.9872 21.7455 19.9872 22.051 19.9872 22.3571C18.7459 22.3571 17.5052 22.3571 16.2639 22.3571C16.2639 22.0515 16.2639 21.7455 16.2639 21.44C17.5047 21.44 18.7459 21.44 19.9867 21.44L19.9872 21.4395Z" fill="#FFE1C9"/>
<path d="M16.2639 21.44C16.2639 21.7455 16.2639 22.0515 16.2639 22.3571C15.0232 22.3571 13.7819 22.3576 12.5411 22.3581C12.5411 22.0521 12.5411 21.7455 12.5411 21.4395C13.7824 21.4395 15.0232 21.4395 16.2644 21.4395L16.2639 21.44Z" fill="#FFE1C9"/>
<path d="M12.957 24.0371C14.1108 24.0376 15.2645 24.0387 16.4183 24.0392C16.4183 24.3499 16.4183 24.6611 16.4188 24.9718C15.2645 24.9729 14.1097 24.9739 12.9554 24.9749C12.9554 24.6621 12.9565 24.3494 12.9565 24.0371H12.957Z" fill="#FFE1C9"/>
<path d="M16.4193 24.9717C16.4193 24.661 16.4193 24.3498 16.4188 24.0391C17.5565 24.0391 18.6942 24.0391 19.8319 24.0391C19.8319 24.3498 19.8319 24.66 19.8319 24.9707C19.2354 24.9774 18.6388 24.9831 18.0423 24.9914C17.8978 24.9934 17.7533 25.0012 17.6083 25.0064C17.2122 24.995 16.8155 24.9831 16.4193 24.9717Z" fill="#FFE1C9"/>
<path d="M26.6073 9.15416C27.3458 9.14743 28.0842 9.13914 28.8221 9.13396C29.1981 9.13137 29.5746 9.13396 29.9857 9.13396C29.9857 9.43379 29.9925 9.70618 29.9785 9.97753C29.9764 10.02 29.8806 10.093 29.8278 10.093C28.7709 10.0946 27.714 10.0878 26.6576 10.0827C26.6405 9.7735 26.6239 9.46383 26.6068 9.15468L26.6073 9.15416Z" fill="#FFE1C9"/>
<path d="M6.95618 3.84789C6.95618 3.55271 6.95618 3.25806 6.95618 2.96289C8.19693 2.96289 9.4382 2.96289 10.679 2.96289C10.679 3.25754 10.679 3.5522 10.679 3.84685C9.4382 3.84685 8.19693 3.84685 6.95618 3.84737V3.84789Z" fill="#FFE1C9"/>
<path d="M16.3685 19.3325C17.5228 19.3325 18.6771 19.3325 19.8313 19.3325C19.8313 19.6355 19.8313 19.9384 19.8313 20.2414C18.6766 20.2414 17.5212 20.2414 16.3665 20.2414C16.367 19.9384 16.3675 19.635 16.368 19.332L16.3685 19.3325Z" fill="#FFE1C9"/>
<path d="M6.90344 24.9569C6.90448 24.6498 6.90551 24.3433 6.90655 24.0362C7.99247 24.0362 9.07787 24.0357 10.1638 24.0352C10.1638 24.3485 10.1638 24.6617 10.1643 24.975C10.0452 24.9802 9.9261 24.989 9.80699 24.9901C9.0644 24.9963 8.32182 25.0004 7.57923 25.0051C7.35397 24.989 7.1287 24.973 6.90344 24.9569Z" fill="#FFE1C9"/>
<path d="M24.6924 14.2386C23.5987 14.2386 22.505 14.2324 21.4118 14.2433C21.1902 14.2454 21.1032 14.1951 21.1182 13.959C21.1332 13.7249 21.0825 13.4785 21.4393 13.479C21.4724 13.479 21.5061 13.4122 21.5392 13.377C22.5905 13.3775 23.6412 13.378 24.6924 13.3785C24.6924 13.6649 24.6924 13.9518 24.6924 14.2381V14.2386Z" fill="#FFE1C9"/>
<path d="M26.6074 9.15456C26.6245 9.46371 26.641 9.77338 26.6581 10.0825C25.6235 10.0825 24.5893 10.0825 23.5547 10.0825C23.5376 9.77494 23.5205 9.46682 23.5034 9.15922C24.3252 9.15042 25.1465 9.14006 25.9684 9.13488C26.1817 9.13333 26.3945 9.14783 26.6079 9.15456H26.6074Z" fill="#FFE1C9"/>
<path d="M18.745 2.91016C19.0557 2.91689 19.3659 2.92362 19.6766 2.93035C19.6766 3.23588 19.6766 3.54141 19.6766 3.84745C18.5736 3.84745 17.4701 3.84745 16.3671 3.84745C16.3671 3.55228 16.3671 3.25711 16.3671 2.96194C17.0703 2.9609 17.7735 2.96142 18.4773 2.95624C18.5669 2.95573 18.6559 2.92621 18.7455 2.91016H18.745Z" fill="#FFE1C9"/>
<path d="M19.0583 4.94141C20.1778 4.94244 21.2974 4.944 22.417 4.94503C22.417 5.23243 22.417 5.51984 22.417 5.80672C21.3761 5.80724 20.3358 5.8031 19.2949 5.81294C19.0966 5.81501 19.0381 5.74872 19.0515 5.56023C19.0665 5.35465 19.0567 5.14751 19.0583 4.94141Z" fill="#FFE1C9"/>
<path d="M7.83609 17.2335C8.9044 17.2335 9.97323 17.2324 11.0415 17.2324C11.0421 17.5328 11.0431 17.8336 11.0436 18.134C9.9753 18.134 8.90699 18.134 7.83816 18.134C7.83712 17.8336 7.83661 17.5338 7.83557 17.234L7.83609 17.2335Z" fill="#FFE1C9"/>
<path d="M10.1612 24.977C10.1612 24.6637 10.1612 24.3504 10.1606 24.0371C11.0928 24.0371 12.0249 24.0376 12.957 24.0381C12.957 24.3509 12.956 24.6637 12.956 24.976C12.0244 24.976 11.0928 24.9765 10.1617 24.977H10.1612Z" fill="#FFE1C9"/>
<path d="M8.86759 20.2452C7.95722 20.2483 7.04634 20.2493 6.13597 20.2571C5.97595 20.2586 5.93608 20.1955 5.93245 20.0437C5.91536 19.3162 5.91122 19.3141 6.62792 19.3167C7.37465 19.3193 8.1219 19.327 8.86863 19.3322C8.86863 19.6367 8.86759 19.9407 8.86759 20.2452Z" fill="#FFE1C9"/>
<path d="M17.5575 11.3426C18.5129 11.3426 19.4689 11.3494 20.4243 11.338C20.6464 11.3354 20.7246 11.3877 20.7169 11.6228C20.7008 12.1184 20.7138 12.1127 20.2016 12.1225C20.0602 12.1251 19.9204 12.1753 19.7796 12.2033C19.0515 12.2033 18.3229 12.2033 17.5575 12.2033V11.3426Z" fill="#FFE1C9"/>
<path d="M20.4011 7.05561C20.4011 7.36114 20.4011 7.66615 20.4011 7.97168C19.5057 7.97738 18.6098 7.98618 17.7145 7.981C17.6606 7.981 17.5674 7.87536 17.5607 7.81167C17.5405 7.6154 17.5405 7.41448 17.5607 7.21873C17.5674 7.15504 17.6596 7.0494 17.7134 7.04888C18.6093 7.04319 19.5047 7.05095 20.4005 7.05561H20.4011Z" fill="#FFE1C9"/>
<path d="M19.6765 3.84731C19.6765 3.54178 19.6765 3.23573 19.6765 2.93021C20.6242 2.93021 21.5724 2.93021 22.52 2.92969C22.52 3.23573 22.52 3.54178 22.52 3.84731C21.5719 3.84731 20.6242 3.84731 19.676 3.84731H19.6765Z" fill="#FFE1C9"/>
<path d="M8.76613 21.4375C8.76613 21.7441 8.76613 22.0506 8.76613 22.3572C7.8801 22.3613 6.99355 22.3681 6.10752 22.3639C6.05056 22.3639 5.94803 22.2806 5.94492 22.2308C5.92835 21.9755 5.93715 21.7187 5.93715 21.4375H8.76665H8.76613Z" fill="#FFE1C9"/>
<path d="M24.6924 14.2385C24.6924 13.9522 24.6924 13.6653 24.6924 13.3789C25.6059 13.3789 26.5199 13.3789 27.4333 13.3789C27.4333 13.6927 27.4333 14.006 27.4333 14.3198C26.7959 14.3203 26.1579 14.3209 25.5204 14.3219C25.4402 14.2945 25.3614 14.2484 25.2801 14.2437C25.0849 14.2318 24.8886 14.2396 24.6929 14.2396L24.6924 14.2385Z" fill="#FFE1C9"/>
<path d="M14.0404 20.2438C13.1093 20.2438 12.1788 20.2438 11.2477 20.2438C11.2482 19.9404 11.2492 19.6374 11.2498 19.334C12.1798 19.334 13.1093 19.334 14.0394 19.3345C14.0394 19.6374 14.0399 19.9409 14.0404 20.2438Z" fill="#FFE1C9"/>
<path d="M13.3671 17.2324C14.35 17.2329 15.3323 17.2335 16.3152 17.2345C16.3152 17.5333 16.3152 17.8326 16.3152 18.1314C15.3318 18.1319 14.3479 18.133 13.3645 18.1335C13.3655 17.8331 13.3661 17.5328 13.3671 17.2324Z" fill="#FFE1C9"/>
<path d="M16.367 2.96094C16.367 3.25611 16.367 3.55128 16.367 3.84645C15.4017 3.84645 14.4365 3.84645 13.4712 3.84645C13.4712 3.5518 13.4712 3.25663 13.4712 2.96197C14.4365 2.96197 15.4017 2.96146 16.367 2.96094Z" fill="#FFE1C9"/>
<path d="M16.3157 18.1313C16.3157 17.8325 16.3157 17.5332 16.3157 17.2344C17.2809 17.2344 18.2462 17.2344 19.2115 17.2344C19.2115 17.5337 19.2115 17.8325 19.2115 18.1318C18.2462 18.1318 17.2809 18.1318 16.3157 18.1318V18.1313Z" fill="#FFE1C9"/>
<path d="M19.0583 4.94192C19.0572 5.14854 19.0665 5.35567 19.0515 5.56074C19.0381 5.74924 19.0966 5.815 19.2949 5.81345C20.3358 5.80361 21.3761 5.80827 22.417 5.80775C23.3652 5.80775 24.3128 5.80775 25.261 5.80827C26.4163 5.8093 27.5721 5.80827 28.7274 5.81345C28.8139 5.81345 28.9004 5.85073 28.9864 5.87041C28.9019 5.88025 28.8175 5.89837 28.7336 5.89837C25.1015 5.89941 21.4688 5.89682 17.8367 5.90407C17.5964 5.90407 17.5234 5.83416 17.5254 5.59854C17.5306 4.92742 17.5223 4.92586 18.1821 4.92793C18.4741 4.92897 18.7662 4.93726 19.0588 4.94192H19.0583Z" fill="#FFE1C9"/>
<path d="M19.8319 24.9707C19.8319 24.66 19.8319 24.3498 19.8319 24.0391C20.6941 24.0391 21.5563 24.0391 22.4185 24.0391C22.4185 24.3503 22.4185 24.661 22.4185 24.9717C21.5563 24.9717 20.6946 24.9712 19.8324 24.9707H19.8319Z" fill="#FFE1C9"/>
<path d="M27.5368 2.92578C27.5368 3.23286 27.5368 3.53994 27.5363 3.84754C26.6399 3.84754 25.7435 3.84754 24.8477 3.84754C24.8477 3.54098 24.8477 3.23442 24.8477 2.92785C25.744 2.92733 26.6404 2.92682 27.5368 2.9263V2.92578Z" fill="#FFE1C9"/>
<path d="M27.4328 14.3198C27.4328 14.006 27.4328 13.6927 27.4328 13.3789C28.2727 13.3789 29.1127 13.3789 29.9702 13.3789V14.3198H27.4323H27.4328Z" fill="#FFE1C9"/>
<path d="M25.261 5.80804C24.3128 5.80804 23.3652 5.80804 22.417 5.80752C22.417 5.52012 22.417 5.23272 22.417 4.94583C23.1187 4.95619 23.8209 4.96965 24.5225 4.97431C24.7685 4.97587 25.015 4.95567 25.2615 4.94531C25.2615 5.23272 25.261 5.52064 25.2605 5.80804H25.261Z" fill="#FFE1C9"/>
<path d="M13.4713 2.96289C13.4713 3.25754 13.4713 3.55271 13.4713 3.84737C12.5407 3.84737 11.6096 3.84737 10.6791 3.84737C10.6791 3.55271 10.6791 3.25806 10.6791 2.96341C11.6096 2.96341 12.5402 2.96341 13.4713 2.96341V2.96289Z" fill="#FFE1C9"/>
<path d="M19.2115 18.1318C19.2115 17.8325 19.2115 17.5337 19.2115 17.2344C20.125 17.2344 21.0385 17.2344 21.9525 17.2344C21.9525 17.5337 21.9525 17.8325 21.9525 18.1318C21.039 18.1318 20.125 18.1318 19.2115 18.1318Z" fill="#FFE1C9"/>
<path d="M19.8879 9.14761C19.8858 9.29934 19.8625 9.45521 19.8879 9.60228C19.9158 9.76747 19.9878 9.92489 20.0406 10.0854C19.2592 10.0906 18.4773 10.0994 17.6958 10.0937C17.6404 10.0937 17.5441 9.98859 17.5379 9.92489C17.5177 9.72034 17.5182 9.51165 17.5389 9.30762C17.5457 9.24289 17.642 9.13622 17.6979 9.13622C18.4276 9.13104 19.1577 9.14088 19.8874 9.14761H19.8879Z" fill="#FFE1C9"/>
<path d="M19.8314 20.2428C19.8314 19.9399 19.8314 19.6369 19.8314 19.334C20.6589 19.334 21.4859 19.334 22.3134 19.334C22.3134 19.6369 22.3134 19.9404 22.314 20.2433C21.4864 20.2433 20.6589 20.2433 19.8319 20.2433L19.8314 20.2428Z" fill="#FFE1C9"/>
<path d="M11.2496 19.3336C11.2491 19.637 11.2481 19.94 11.2476 20.2434C10.4542 20.244 9.66089 20.2445 8.86755 20.245C8.86755 19.9405 8.86859 19.6365 8.86859 19.332C9.66193 19.332 10.4558 19.3331 11.2491 19.3336H11.2496Z" fill="#FFE1C9"/>
<path d="M24.8477 2.92951C24.8477 3.23607 24.8477 3.54264 24.8477 3.8492C24.072 3.8492 23.2962 3.8492 22.5205 3.84868C22.5205 3.54264 22.5205 3.23659 22.5205 2.93106C23.0306 2.92588 23.5412 2.9207 24.0513 2.91397C24.1445 2.91294 24.2377 2.90362 24.3304 2.89844C24.5028 2.90879 24.6753 2.91915 24.8477 2.93003V2.92951Z" fill="#FFE1C9"/>
<path d="M14.0403 20.2433C14.0403 19.9404 14.0398 19.6369 14.0393 19.334C14.8156 19.334 15.5923 19.334 16.3686 19.334C16.3681 19.6374 16.3675 19.9404 16.367 20.2438C15.5913 20.2438 14.8161 20.2438 14.0403 20.2438V20.2433Z" fill="#FFE1C9"/>
<path d="M13.3671 17.2329C13.3661 17.5333 13.3656 17.8336 13.3646 18.134C12.5909 18.134 11.8172 18.134 11.0436 18.134C11.0431 17.8336 11.042 17.5333 11.0415 17.2324C11.8167 17.2324 12.5919 17.2324 13.3671 17.2324V17.2329Z" fill="#FFE1C9"/>
<path d="M21.9524 18.1318C21.9524 17.8325 21.9524 17.5337 21.9524 17.2344C22.7152 17.2344 23.4785 17.2344 24.2661 17.2344C24.2661 17.5083 24.277 17.7569 24.2573 18.0034C24.2532 18.0552 24.1367 18.138 24.0709 18.1385C23.3651 18.1442 22.6587 18.1365 21.9529 18.1323L21.9524 18.1318Z" fill="#FFE1C9"/>
<path d="M7.83603 17.2322C7.83707 17.532 7.83759 17.8324 7.83862 18.1322C7.24776 18.1415 6.65742 18.154 6.06656 18.1555C6.02358 18.1555 5.97853 18.0794 5.93814 18.0354C5.92933 18.026 5.9371 18.0022 5.93555 17.9851C5.88221 17.2084 5.88221 17.2058 6.6538 17.2094C7.04787 17.2115 7.44144 17.2244 7.83552 17.2327L7.83603 17.2322Z" fill="#FFE1C9"/>
<path d="M22.3139 20.2434C22.3139 19.9405 22.3139 19.637 22.3134 19.3341C22.9327 19.3336 23.5515 19.3331 24.1709 19.332C24.1729 19.636 24.1755 19.94 24.1776 20.244C23.5562 20.244 22.9353 20.244 22.3139 20.2434Z" fill="#FFE1C9"/>
<path d="M24.1776 20.2439C24.1756 19.9399 24.173 19.636 24.1709 19.332C24.1792 19.3309 24.1921 19.3258 24.1958 19.3294C24.3185 19.4568 24.3045 20.1212 24.1776 20.2439Z" fill="#FFE1C9"/>
<path d="M29.9163 16.7434C30.0018 16.7387 30.0878 16.7294 30.1732 16.7294C31.8091 16.7283 33.4449 16.7283 35.0808 16.7289C35.5484 16.7289 35.7462 16.921 35.7462 17.3777C35.7468 21.7685 35.7468 26.1598 35.7462 30.5506C35.7462 31.0043 35.5546 31.1969 35.1067 31.1969C33.2124 31.1969 31.3182 31.1969 29.4239 31.1964C29.3467 31.1964 29.269 31.1902 29.1919 31.1871C29.036 30.9975 29.0329 30.7754 29.0303 30.5434C29.0282 30.3559 29.1002 30.3119 29.2711 30.3166C29.6548 30.3264 30.0391 30.3238 30.4228 30.316C30.4953 30.3145 30.5668 30.2653 30.6387 30.2384C32.0141 30.2384 33.39 30.2384 34.7799 30.2384V17.7024C34.6629 17.7024 34.5619 17.7024 34.4604 17.7024C32.9276 17.6988 31.3953 17.6952 29.8625 17.691C29.8801 17.3751 29.8977 17.0598 29.9153 16.7439L29.9163 16.7434Z" fill="#FFE1C9"/>
<path d="M30.6393 30.2391C30.5673 30.2665 30.4958 30.3157 30.4233 30.3168C30.0396 30.3245 29.6554 30.3271 29.2716 30.3173C29.1002 30.3131 29.0283 30.3566 29.0308 30.5441C29.0334 30.7756 29.0365 30.9982 29.1924 31.1878C28.4954 31.1909 27.7979 31.2018 27.1008 31.1945C26.8052 31.1914 26.6317 31.0019 26.6073 30.7062C26.6016 30.6378 26.6053 30.5684 26.6053 30.4996C26.6053 26.1429 26.6053 21.7863 26.6053 17.4297C26.6053 16.8668 26.744 16.7265 27.3064 16.7285C28.0552 16.7311 28.8035 16.7379 29.5523 16.7425C29.4803 16.7694 29.4084 16.8192 29.3359 16.8202C28.8827 16.8274 28.4296 16.8186 27.977 16.8295C27.9004 16.8316 27.7616 16.9015 27.7606 16.9424C27.7554 17.1987 27.6435 17.483 27.8983 17.6922C27.7984 17.7016 27.6984 17.7104 27.599 17.7197V30.2256C27.729 30.2256 27.8403 30.2256 27.9511 30.2256C28.847 30.2298 29.7429 30.2344 30.6387 30.2391H30.6393Z" fill="#FFE1C9"/>
<path d="M27.8988 17.6919C27.6446 17.4822 27.7559 17.1984 27.7611 16.9421C27.7621 16.9012 27.9009 16.8313 27.9776 16.8292C28.4302 16.8183 28.8838 16.8271 29.3364 16.8199C29.4089 16.8188 29.4803 16.7691 29.5528 16.7422C29.674 16.7427 29.7952 16.7432 29.9164 16.7437C29.8988 17.0596 29.8812 17.375 29.8635 17.6909C29.2085 17.6909 28.5539 17.6914 27.8988 17.6919Z" fill="#FFE1C9"/>
<path d="M10.1611 24.9768C11.0927 24.9768 12.0243 24.9763 12.9554 24.9758C14.1097 24.9747 15.2645 24.9737 16.4188 24.9727C16.8149 24.984 17.2116 24.9954 17.6077 25.0074C17.6077 25.3999 17.6077 25.7929 17.6077 26.1854C14.264 26.1854 10.9198 26.1854 7.57605 26.1854C7.57605 25.7924 7.57605 25.3994 7.57605 25.0063C8.31864 25.0017 9.06123 24.9975 9.80381 24.9913C9.92292 24.9903 10.042 24.9815 10.1611 24.9763V24.9768Z" fill="#FFE1C9"/>
<path d="M13.4711 2.96374C12.5406 2.96374 11.61 2.96374 10.6789 2.96374C9.43818 2.96374 8.19691 2.96374 6.95616 2.96374C5.92668 2.96271 4.89773 2.96219 3.86825 2.96064C3.77453 2.96064 3.68028 2.95183 3.58655 2.94665C3.67821 2.91973 3.76986 2.87001 3.86152 2.8695C5.09969 2.8638 6.33837 2.86483 7.57653 2.8638C10.4723 2.8638 13.3681 2.8638 16.2634 2.86328C17.0008 2.8638 17.7382 2.86328 18.4756 2.86742C18.5657 2.86794 18.6553 2.89591 18.7449 2.91144C18.6553 2.92749 18.5662 2.95649 18.4766 2.95753C17.7734 2.96271 17.0702 2.96219 16.3664 2.96323C15.4012 2.96323 14.4359 2.96323 13.4706 2.96374H13.4711Z" fill="#FFE1C9"/>
<path d="M29.5549 21.0896C30.7371 21.0845 31.9194 21.0788 33.1016 21.0762C33.2974 21.0762 33.4936 21.0907 33.6894 21.099C33.7339 21.1181 33.7784 21.1373 33.823 21.157C34.0503 21.2191 34.0959 21.4029 34.0964 21.5976C34.1 23.1765 34.1042 24.7555 34.0886 26.3344C34.0871 26.4778 33.9473 26.6197 33.8717 26.7621C33.8282 26.7838 33.7847 26.8061 33.7412 26.8279C33.7163 26.8346 33.692 26.847 33.6671 26.847C32.2964 26.8455 30.9251 26.8429 29.5544 26.8403C29.5673 26.5011 29.441 26.1153 29.8656 25.9144H33.1058V22.0119H29.5565C29.5559 21.7043 29.5554 21.3967 29.5549 21.0891V21.0896Z" fill="#FFE1C9"/>
<path d="M29.5549 21.0892C29.5555 21.3968 29.556 21.7044 29.5565 22.012C29.4426 22.0312 29.3281 22.0509 29.2147 22.07V25.8612C29.4436 25.8798 29.6544 25.8969 29.8656 25.9145C29.441 26.1149 29.5668 26.5012 29.5544 26.8404C29.297 26.8451 29.0397 26.8544 28.7823 26.8528C28.4379 26.8503 28.2453 26.6628 28.2344 26.3122C28.2251 26.0119 28.2318 25.711 28.2318 25.4101C28.2318 24.1901 28.2318 22.9695 28.2318 21.7495C28.2318 21.2399 28.3996 21.0732 28.9123 21.0742C29.1267 21.0742 29.3405 21.0846 29.5549 21.0898V21.0892Z" fill="#FFE1C9"/>
<path d="M33.8231 21.1557C33.7785 21.1365 33.734 21.1173 33.6895 21.0977C33.734 21.1168 33.7785 21.136 33.8231 21.1557Z" fill="#FFE1C9"/>
<path d="M29.8657 25.9142C29.6549 25.8971 29.4441 25.8795 29.2147 25.8609V22.0697C29.3281 22.0506 29.4421 22.0309 29.5565 22.0117C30.733 22.0117 31.9091 22.0117 33.1058 22.0117V25.9142H29.8657ZM29.3385 23.9397C29.7269 24.3529 30.0806 24.7578 30.4674 25.1291C30.6771 25.3306 30.9402 25.2752 31.1551 25.0546C31.3938 24.8091 31.6362 24.5668 31.8759 24.3218C32.2467 23.9422 32.617 23.5616 33.0597 23.1064C32.8381 22.9242 32.6465 22.7517 32.4373 22.6046C32.3844 22.5674 32.2477 22.5788 32.1959 22.6228C32.0271 22.7652 31.8795 22.9324 31.7237 23.0909C31.4125 23.4068 31.1007 23.7227 30.7745 24.0536C30.5627 23.8299 30.3809 23.6248 30.1826 23.4373C30.1323 23.3897 29.9967 23.355 29.9568 23.3861C29.7497 23.5492 29.5612 23.7361 29.339 23.9391L29.3385 23.9397Z" fill="#FFE1C9"/>
<path d="M29.3385 23.9389C29.5607 23.7354 29.7492 23.549 29.9563 23.3859C29.9962 23.3548 30.1319 23.3895 30.1821 23.4371C30.3804 23.6246 30.5622 23.8297 30.774 24.0534C31.1008 23.722 31.412 23.4061 31.7232 23.0907C31.8791 22.9328 32.0267 22.765 32.1955 22.6226C32.2478 22.5786 32.384 22.5672 32.4368 22.6044C32.6465 22.7515 32.8381 22.924 33.0592 23.1062C32.616 23.5614 32.2462 23.942 31.8754 24.3216C31.6362 24.5666 31.3939 24.8089 31.1546 25.0544C30.9402 25.275 30.6772 25.3304 30.4669 25.1289C30.0801 24.7582 29.7264 24.3527 29.338 23.9395L29.3385 23.9389Z" fill="#FFE1C9"/>
</g>
<defs>
<filter id="filter0_d_1752_978" x="0.792862" y="0.679688" width="36.4143" height="33.0549" filterUnits="userSpaceOnUse" color-interpolation-filters="sRGB">
<feFlood flood-opacity="0" result="BackgroundImageFix"/>
<feColorMatrix in="SourceAlpha" type="matrix" values="0 0 0 0 0 0 0 0 0 0 0 0 0 0 0 0 0 0 127 0" result="hardAlpha"/>
<feOffset dy="0.207138"/>
<feGaussianBlur stdDeviation="0.103569"/>
<feComposite in2="hardAlpha" operator="out"/>
<feColorMatrix type="matrix" values="0 0 0 0 0 0 0 0 0 0 0 0 0 0 0 0 0 0 0.25 0"/>
<feBlend mode="normal" in2="BackgroundImageFix" result="effect1_dropShadow_1752_978"/>
<feBlend mode="normal" in="SourceGraphic" in2="effect1_dropShadow_1752_978" result="shape"/>
</filter>
</defs>
</svg>
