<svg width="38" height="34" viewBox="0 0 38 34" fill="none" xmlns="http://www.w3.org/2000/svg">
<g id="Group 389" filter="url(#filter0_d_1768_5269)">
<path id="Vector" d="M29.8636 0.698818C31.1903 0.696747 32.5186 0.652213 33.8427 0.706586C34.8929 0.749567 35.6836 1.59106 35.7194 2.67077C35.7339 3.1099 35.724 3.54955 35.724 3.98868C35.724 7.70214 35.7261 11.4151 35.7194 15.1285C35.7194 15.3787 35.7561 15.4946 36.0446 15.5547C36.4915 15.6479 36.7711 15.9866 36.9348 16.4123C36.9487 16.449 36.9777 16.4801 37 16.5138V32.2852C36.812 32.6741 36.6028 33.0464 36.1694 33.2132C36.0508 33.2588 35.9234 33.3116 35.7996 33.3116C33.7521 33.3162 31.7051 33.3131 29.6575 33.3116C29.6922 33.0035 29.7264 32.6948 29.7611 32.3867C29.8641 32.3836 29.9672 32.3784 30.0707 32.3784C31.8708 32.3779 33.6708 32.3784 35.4703 32.3774C35.9089 32.3774 36.0265 32.2614 36.0265 31.8347C36.0265 26.8826 36.0265 21.9309 36.0265 16.9788C36.0265 16.5417 35.9374 16.4532 35.4962 16.4532C33.7568 16.4527 32.0168 16.4532 30.2774 16.4521C30.1743 16.4521 30.0718 16.4423 29.9687 16.4371C29.9511 16.1264 29.934 15.8157 29.9164 15.505C30.6823 15.4978 31.4482 15.4796 32.2136 15.49C32.4689 15.4936 32.5486 15.4377 32.5476 15.1658C32.5362 12.4865 32.5403 9.80717 32.5409 7.12837C32.5409 6.06886 32.545 5.00935 32.5471 3.94984C32.5258 3.91877 32.5046 3.88718 32.4839 3.85611C31.645 3.85352 30.8061 3.85093 29.9667 3.84834C29.9667 3.54126 29.9672 3.23418 29.9677 2.9271C30.9578 2.92244 31.949 2.89189 32.938 2.92503C33.3689 2.93953 33.489 3.10835 33.4885 3.50553C33.4818 7.38159 33.4844 11.2582 33.4849 15.1342C33.4849 15.2419 33.4849 15.3491 33.4849 15.4755C33.837 15.4755 34.1467 15.4605 34.4548 15.4802C34.7023 15.4962 34.7764 15.4165 34.7759 15.1643C34.7686 11.0816 34.7707 6.99839 34.7702 2.91519C34.7702 2.06644 34.3336 1.63456 33.4813 1.63301C32.2928 1.63042 31.1044 1.62731 29.9154 1.62421C29.8983 1.31609 29.8807 1.00745 29.8636 0.699336V0.698818Z" fill="#493187"/>
<path id="Vector_2" d="M7.00751 27.1998C6.47361 27.2055 5.94024 27.2149 5.40634 27.2169C4.6565 27.22 3.90615 27.2019 3.15734 27.2211C1.9083 27.2527 0.997416 26.2237 1.00001 25.056C1.01761 17.6534 1.00881 10.2503 1.00933 2.84771C1.00933 1.83895 1.50335 1.1264 2.44531 0.781517C2.55716 0.740607 2.67834 0.700733 2.79537 0.700215C4.13089 0.695037 5.46641 0.698144 6.80193 0.698662C6.80193 1.00574 6.80193 1.31282 6.80141 1.61991C5.63005 1.62301 4.45817 1.62146 3.2868 1.63337C3.07552 1.63544 2.84664 1.65098 2.65711 1.73228C2.18535 1.93475 1.97769 2.30812 1.97821 2.8358C1.98546 9.48647 1.98287 16.1377 1.98287 22.7883C1.98287 23.5982 1.97925 24.4081 1.98598 25.2175C1.99012 25.7261 2.35883 26.1403 2.87253 26.2341C2.97092 26.2506 3.06931 26.2807 3.1677 26.2812C4.44833 26.2864 5.72896 26.2869 7.00907 26.2884C7.00907 26.5924 7.00907 26.8959 7.00855 27.1998H7.00751Z" fill="#493187"/>
<path id="Vector_3" d="M26.7611 33.3107C26.031 33.3439 25.4696 32.8628 25.3764 32.1238C25.3899 32.0845 25.4142 32.0451 25.4147 32.0058C25.4168 30.4683 25.4173 28.9313 25.4122 27.3938C25.4122 27.3343 25.35 27.2753 25.3174 27.2162C24.9886 27.2105 24.6597 27.2048 24.3309 27.1991C24.3309 26.8952 24.3309 26.5912 24.3304 26.2877C24.5929 26.2857 24.856 26.2898 25.1185 26.2774C25.1859 26.2743 25.2506 26.2178 25.3169 26.1857C25.3189 25.86 25.3138 25.5338 25.3262 25.2085C25.3329 25.0366 25.2677 24.9828 25.1025 24.99C24.9321 24.9978 24.7607 24.9807 24.5898 24.9745C24.5898 24.6627 24.5898 24.3505 24.5898 24.0387C24.8342 24.031 25.0787 24.0232 25.3226 24.0154C25.3536 23.9202 25.4116 23.8244 25.4122 23.7291C25.4173 21.4837 25.4163 19.2378 25.4147 16.9924C25.4147 16.8904 25.3982 16.7879 25.3894 16.6859C25.4479 16.4922 25.4681 16.2747 25.5711 16.109C25.959 15.4845 26.5747 15.4342 27.2262 15.5047C27.2262 15.6937 27.2386 15.8843 27.2231 16.0722C27.2039 16.3063 27.3059 16.3684 27.5244 16.3627C27.9972 16.3503 28.4711 16.355 28.9439 16.3627C29.0262 16.3638 29.1075 16.4119 29.1893 16.4378C28.4146 16.443 27.6404 16.4492 26.8657 16.4528C26.4163 16.4554 26.3013 16.5673 26.3013 17.0178C26.3013 21.9435 26.3013 26.8693 26.3013 31.795C26.3013 32.2165 26.3893 32.3165 26.8124 32.3864C26.7953 32.6945 26.7777 33.0031 26.7606 33.3113L26.7611 33.3107Z" fill="#493187"/>
<path id="Vector_4" d="M13.9886 29.6587H15.3344V27.1979C14.8585 27.1979 14.3977 27.1979 13.9368 27.1979C13.9368 26.8949 13.9368 26.592 13.9368 26.2891C14.8332 26.2891 15.7296 26.2891 16.6259 26.2891C16.6259 26.5961 16.6259 26.9037 16.6259 27.2108C16.3883 27.1901 16.3033 27.2864 16.3106 27.535C16.3287 28.1326 16.3287 28.7317 16.3106 29.3293C16.3033 29.5779 16.3867 29.6747 16.6259 29.6514C16.5742 29.9771 16.4898 30.3086 16.7808 30.5773C15.8673 30.5773 14.9538 30.5773 14.0398 30.5773C14.0227 30.2713 14.0051 29.9652 13.988 29.6592L13.9886 29.6587Z" fill="#493187"/>
<path id="Vector_5" d="M22.2616 27.1989C22.0307 27.2051 21.7982 27.201 21.5688 27.2238C21.503 27.2305 21.4372 27.3077 21.3865 27.3657C21.3653 27.39 21.3823 27.4485 21.3823 27.4915C21.3823 28.1947 21.3823 28.898 21.3823 29.6602C21.6697 29.6602 21.9401 29.6602 22.2104 29.6602C22.2275 29.9663 22.2451 30.2723 22.2622 30.5784C21.4176 30.5784 20.573 30.5784 19.7283 30.5784C19.7283 30.2697 19.7283 29.9611 19.7283 29.653H20.3886V27.2119H19.7801C19.7801 26.9048 19.7801 26.5977 19.7801 26.2901C20.6076 26.2901 21.4346 26.2896 22.2622 26.2891C22.2622 26.5925 22.2622 26.896 22.2622 27.1994L22.2616 27.1989Z" fill="#493187"/>
<path id="Vector_6" d="M22.2621 30.5773C22.2451 30.2713 22.2274 29.9652 22.2104 29.6592C22.5376 29.6628 22.8654 29.6664 23.1927 29.6706C23.2424 29.6846 23.2927 29.6985 23.3424 29.712C24.0953 29.8275 24.7224 30.5592 24.754 31.3857C24.7721 31.8579 24.7644 32.3313 24.7587 32.804C24.7545 33.1282 24.5655 33.3188 24.2476 33.3198C23.6375 33.3219 23.0275 33.3141 22.417 33.31C22.417 33.0024 22.417 32.6948 22.417 32.3877C22.7862 32.3846 23.1565 32.367 23.5246 32.383C23.7592 32.3934 23.8302 32.3074 23.8105 32.0858C23.795 31.9066 23.8095 31.7249 23.8064 31.5447C23.797 30.9688 23.4335 30.6032 22.854 30.5861C22.6567 30.5804 22.4589 30.5799 22.2616 30.5768L22.2621 30.5773Z" fill="#493187"/>
<path id="Vector_7" d="M13.9886 29.6595C14.0057 29.9655 14.0233 30.2716 14.0404 30.5776C13.9632 30.5813 13.8855 30.5813 13.8089 30.589C13.3889 30.6341 13.0228 30.8821 12.9762 31.2389C12.9281 31.6061 12.9653 31.9841 12.9653 32.3906H13.9368C13.9368 32.6977 13.9368 33.0043 13.9368 33.3113C13.4392 33.3144 12.9415 33.3238 12.4439 33.3186C12.1777 33.316 11.9845 33.1311 11.9804 32.867C11.9721 32.3347 11.9488 31.7998 11.9902 31.2705C12.0674 30.2892 12.9747 29.5761 13.9881 29.66L13.9886 29.6595Z" fill="#493187"/>
<path id="Vector_8" d="M16.5742 0.699219C17.9014 0.699219 19.2281 0.699219 20.5554 0.699219C20.5554 1.00682 20.5554 1.31442 20.5554 1.62202C19.2281 1.62202 17.9009 1.6215 16.5737 1.62098C16.5737 1.3139 16.5737 1.0063 16.5737 0.699219H16.5742Z" fill="#493187"/>
<path id="Vector_9" d="M7.00749 27.2005C7.00749 26.8965 7.00749 26.593 7.00801 26.2891C8.31815 26.2891 9.62778 26.2891 10.9379 26.2896C10.9379 26.593 10.9379 26.896 10.9379 27.1994C10.4843 27.2056 10.0307 27.2176 9.57703 27.217C8.72052 27.2155 7.86401 27.2062 7.00749 27.2005Z" fill="#493187"/>
<path id="Vector_10" d="M9.80022 0.699219C10.9721 0.699219 12.1445 0.699219 13.3164 0.699219C13.3164 1.00682 13.3164 1.3139 13.3164 1.6215C12.1445 1.6215 10.9721 1.62098 9.80022 1.62046C9.80022 1.31338 9.80022 1.00682 9.80022 0.699737V0.699219Z" fill="#493187"/>
<path id="Vector_11" d="M23.9172 0.698242C25.0549 0.698242 26.1926 0.698242 27.3298 0.698242C27.3469 1.00688 27.3645 1.31499 27.3816 1.62363C27.0398 1.62622 26.698 1.62881 26.3563 1.63191C25.6986 1.63813 25.0409 1.64538 24.3833 1.65211C24.245 1.64227 24.1073 1.63243 23.969 1.62311C23.9519 1.31499 23.9343 1.00688 23.9172 0.69876V0.698242Z" fill="#493187"/>
<path id="Vector_12" d="M23.9172 0.698242C23.9343 1.00636 23.9519 1.31448 23.969 1.62259C22.8313 1.62259 21.6936 1.62156 20.5559 1.62156C20.5559 1.31396 20.5559 1.00636 20.5559 0.69876C21.6765 0.69876 22.7966 0.69876 23.9172 0.69876V0.698242Z" fill="#493187"/>
<path id="Vector_13" d="M19.8837 33.3109C18.7978 33.3109 17.7119 33.3109 16.6259 33.3109C16.6259 33.0038 16.6259 32.6967 16.6259 32.3896C17.729 32.3896 18.8325 32.3896 19.9355 32.3896C19.9184 32.6967 19.9008 33.0038 19.8837 33.3114V33.3109Z" fill="#493187"/>
<path id="Vector_14" d="M13.3164 1.6215C13.3164 1.3139 13.3164 1.00682 13.3164 0.699219C14.4023 0.699219 15.4882 0.699219 16.5747 0.699219C16.5747 1.0063 16.5747 1.3139 16.5747 1.62098C16.4726 1.62409 16.3706 1.62875 16.2686 1.6303C15.6648 1.63755 15.061 1.64377 14.4572 1.6505C14.0771 1.64066 13.697 1.63134 13.3169 1.6215H13.3164Z" fill="#493187"/>
<path id="Vector_15" d="M10.938 27.1989C10.938 26.8955 10.938 26.5925 10.938 26.2891C11.9374 26.2891 12.9368 26.2891 13.9368 26.2891C13.9368 26.592 13.9368 26.8949 13.9368 27.1979C12.9374 27.1979 11.9374 27.1979 10.938 27.1979V27.1989Z" fill="#493187"/>
<path id="Vector_16" d="M9.80022 0.699278C9.80022 1.00636 9.80022 1.31292 9.80022 1.62C9.69821 1.62311 9.59567 1.62777 9.49366 1.62881C8.87173 1.63606 8.2498 1.64227 7.62735 1.64849C7.35186 1.63865 7.07585 1.62933 6.80035 1.61949C6.80035 1.3124 6.80035 1.00532 6.80087 0.698242C7.80031 0.698242 8.80027 0.698242 9.7997 0.698242L9.80022 0.699278Z" fill="#493187"/>
<path id="Vector_17" d="M26.7612 33.3106C26.7783 33.0025 26.7959 32.6939 26.813 32.3857C27.7953 32.3857 28.7782 32.3857 29.7606 32.3857C29.7259 32.6939 29.6917 33.0025 29.657 33.3106C28.6917 33.3106 27.7265 33.3106 26.7612 33.3106Z" fill="#493187"/>
<path id="Vector_18" d="M16.6259 32.3896C16.6259 32.6967 16.6259 33.0038 16.6259 33.3109C15.7296 33.3109 14.8332 33.3109 13.9368 33.3109C13.9368 33.0038 13.9368 32.6972 13.9368 32.3902C14.8332 32.3902 15.7296 32.3902 16.6259 32.3896Z" fill="#493187"/>
<path id="Vector_19" d="M27.3815 1.62363C27.3644 1.31499 27.3468 1.00688 27.3297 0.698242C28.1743 0.698242 29.0189 0.698242 29.8635 0.698242C29.8806 1.00636 29.8982 1.31499 29.9153 1.62311C29.0707 1.62311 28.2261 1.62311 27.3815 1.62311V1.62363Z" fill="#493187"/>
<path id="Vector_20" d="M19.8837 33.3105C19.9008 33.0034 19.9184 32.6963 19.9355 32.3887C20.763 32.3887 21.59 32.3882 22.4175 32.3877C22.4175 32.6953 22.4175 33.0029 22.4175 33.31C21.5729 33.31 20.7283 33.31 19.8837 33.31V33.3105Z" fill="#493187"/>
<path id="Vector_21" d="M22.2616 27.198C22.2616 26.8945 22.2616 26.5911 22.2616 26.2876C22.9509 26.2876 23.6407 26.2876 24.3299 26.2871C24.3299 26.5911 24.3299 26.8951 24.3304 27.1985C23.6407 27.1985 22.9509 27.1985 22.2611 27.198H22.2616Z" fill="#493187"/>
<path id="Vector_22" d="M25.3169 27.2168C25.3501 27.2758 25.4117 27.3354 25.4117 27.3944C25.4169 28.9314 25.4163 30.4689 25.4143 32.0063C25.4143 32.0457 25.3894 32.085 25.376 32.1244C25.362 32.0255 25.3356 31.9271 25.335 31.8282C25.3325 30.4026 25.3335 28.9764 25.3325 27.5508C25.3325 27.4395 25.3221 27.3281 25.3164 27.2168H25.3169Z" fill="#493187"/>
<path id="Vector_23" d="M23.3429 29.7123C23.2932 29.6983 23.243 29.6844 23.1933 29.6709C23.243 29.6849 23.2932 29.6989 23.3429 29.7123Z" fill="#493187"/>
<path id="Vector_24" d="M27.3815 1.62356C28.2261 1.62356 29.0707 1.62356 29.9153 1.62356C31.1038 1.62667 32.2922 1.6303 33.4812 1.63237C34.3336 1.63392 34.7696 2.0658 34.7701 2.91455C34.7706 6.99775 34.768 11.0804 34.7758 15.1636C34.7758 15.4158 34.7023 15.4956 34.4547 15.4795C34.1471 15.4598 33.8369 15.4749 33.4848 15.4749C33.4848 15.3485 33.4848 15.2408 33.4848 15.1336C33.4848 11.2575 33.4822 7.38095 33.4884 3.50489C33.489 3.10771 33.3688 2.93889 32.938 2.92439C31.9489 2.89125 30.9583 2.9218 29.9676 2.92646C29.1572 2.92646 28.3473 2.92646 27.5374 2.92646C26.641 2.92698 25.7446 2.9275 24.8482 2.92801C24.6758 2.91766 24.5033 2.9073 24.3309 2.89642C24.3485 2.48163 24.3661 2.06632 24.3837 1.65153C25.0414 1.6448 25.699 1.63806 26.3567 1.63133C26.6985 1.62823 27.0402 1.62564 27.382 1.62305L27.3815 1.62356Z" fill="#493187"/>
<path id="Vector_25" d="M29.7605 32.3861C28.7781 32.3861 27.7953 32.3861 26.8129 32.3861C26.3899 32.3162 26.3018 32.2163 26.3018 31.7947C26.3018 26.869 26.3018 21.9433 26.3018 17.0175C26.3018 16.567 26.4168 16.4546 26.8663 16.4526C27.641 16.4484 28.4151 16.4427 29.1898 16.4376C29.4493 16.4376 29.7087 16.437 29.9682 16.4365C30.0712 16.4417 30.1737 16.4515 30.2768 16.4515C32.0162 16.4526 33.7562 16.4515 35.4956 16.4526C35.9363 16.4526 36.0254 16.5411 36.0259 16.9782C36.0259 21.9303 36.0259 26.882 36.0259 31.8341C36.0259 32.2608 35.9083 32.3763 35.4697 32.3768C33.6697 32.3783 31.8697 32.3768 30.0702 32.3778C29.9671 32.3778 29.8641 32.3835 29.7605 32.3861ZM29.5528 16.7421C28.804 16.7374 28.0558 16.7307 27.307 16.7281C26.7446 16.726 26.6058 16.8663 26.6058 17.4292C26.6058 21.7859 26.6058 26.1425 26.6058 30.4991C26.6058 30.568 26.6022 30.6374 26.6079 30.7057C26.6322 31.0014 26.8057 31.1909 27.1014 31.194C27.7984 31.2013 28.4954 31.1909 29.1929 31.1873C29.2701 31.1904 29.3478 31.1966 29.4249 31.1966C31.3192 31.1971 33.2135 31.1977 35.1078 31.1971C35.5557 31.1971 35.7473 31.0045 35.7473 30.5509C35.7478 26.1601 35.7478 21.7688 35.7473 17.378C35.7473 16.9212 35.549 16.7291 35.0819 16.7291C33.446 16.7291 31.8101 16.7291 30.1743 16.7296C30.0888 16.7296 30.0028 16.7389 29.9174 16.7436C29.7962 16.7431 29.6751 16.7426 29.5539 16.7421H29.5528Z" fill="#493187"/>
<path id="Vector_26" d="M29.9682 16.437C29.7087 16.437 29.4493 16.4375 29.1898 16.438C29.108 16.4116 29.0267 16.364 28.9444 16.363C28.4711 16.3557 27.9978 16.3505 27.525 16.363C27.3059 16.3686 27.2039 16.306 27.2236 16.0724C27.2391 15.8845 27.2267 15.6939 27.2267 15.5049C28.1236 15.5049 29.02 15.5049 29.9169 15.5049C29.9345 15.8156 29.9516 16.1263 29.9692 16.437H29.9682Z" fill="#493187"/>
<path id="Vector_27" d="M27.5369 2.9263C28.3468 2.9263 29.1572 2.9263 29.9671 2.9263C29.9671 3.23338 29.9666 3.54046 29.9661 3.84754C29.1562 3.84754 28.3458 3.84754 27.5359 3.84754C27.5359 3.54046 27.5359 3.23338 27.5364 2.92578L27.5369 2.9263Z" fill="#493187"/>
<path id="Vector_28" d="M6.80034 1.62012C7.07583 1.62996 7.35184 1.63928 7.62734 1.6486C7.61025 2.05303 7.59368 2.45799 7.57659 2.86294C6.33842 2.86346 5.09974 2.86294 3.86158 2.86864C3.76992 2.86864 3.67826 2.91887 3.5866 2.9458C3.33234 3.04781 3.23395 3.23372 3.23447 3.50869C3.23861 10.4716 3.23706 17.4345 3.23809 24.398C3.23809 24.8123 3.38205 24.9583 3.7984 24.9593C4.83253 24.9614 5.86667 24.9593 6.9008 24.9583C7.12606 24.9744 7.35133 24.9904 7.57659 25.0065C7.57659 25.3995 7.57659 25.7925 7.57659 26.1856C6.10643 26.1856 4.63627 26.1851 3.16559 26.1882C3.0672 26.1882 2.96933 26.2187 2.87094 26.2348C2.35724 26.1411 1.98853 25.7273 1.98439 25.2183C1.97766 24.4084 1.98129 23.5984 1.98129 22.7891C1.98129 16.1384 1.98387 9.4872 1.97662 2.83653C1.97611 2.30885 2.18376 1.93548 2.65552 1.73301C2.84505 1.65171 3.07394 1.63617 3.28522 1.6341C4.45658 1.62219 5.62794 1.62374 6.79982 1.62064L6.80034 1.62012Z" fill="#493187"/>
<path id="Vector_29" d="M2.87152 26.2338C2.96991 26.2177 3.06778 26.1872 3.16617 26.1872C4.63633 26.1841 6.10649 26.1846 7.57717 26.1846C10.9209 26.1846 14.2651 26.1846 17.6088 26.1846C20.1784 26.1846 22.7474 26.1846 25.3169 26.1851C25.2512 26.2172 25.1859 26.2737 25.1186 26.2768C24.8566 26.2892 24.5935 26.2851 24.3304 26.2871C23.6412 26.2871 22.9514 26.2871 22.2622 26.2877C21.4347 26.2877 20.6077 26.2882 19.7802 26.2887C18.7289 26.2887 17.6772 26.2887 16.626 26.2887C15.7296 26.2887 14.8332 26.2887 13.9368 26.2887C12.9374 26.2887 11.9379 26.2887 10.938 26.2887C9.62783 26.2887 8.3182 26.2887 7.00806 26.2882C5.72743 26.2866 4.4468 26.2856 3.16669 26.2809C3.0683 26.2809 2.96991 26.2504 2.87152 26.2338Z" fill="#493187"/>
<path id="Vector_30" d="M25.3164 26.1856C22.7469 26.1856 20.1779 26.1856 17.6083 26.185C17.6083 25.7925 17.6083 25.4 17.6083 25.007C17.7528 25.0018 17.8973 24.9935 18.0423 24.9914C18.6388 24.9837 19.2354 24.9774 19.8319 24.9707C20.6942 24.9707 21.5558 24.9707 22.4181 24.9712C23.142 24.9723 23.8659 24.9728 24.5894 24.9738C24.7603 24.98 24.9317 24.9971 25.102 24.9893C25.2672 24.9821 25.3325 25.0354 25.3257 25.2079C25.3133 25.5331 25.3185 25.8593 25.3164 26.185V26.1856Z" fill="#493187"/>
<path id="Vector_31" d="M24.5893 24.9748C23.8654 24.9738 23.1414 24.9733 22.418 24.9722C22.418 24.6615 22.418 24.3503 22.418 24.0396C23.1419 24.0396 23.8659 24.0396 24.5898 24.0391C24.5898 24.3508 24.5898 24.6631 24.5898 24.9748H24.5893Z" fill="#493187"/>
<path id="Vector_32" d="M25.3226 24.0151C25.3241 21.6765 25.3247 19.3379 25.3293 16.9994C25.3293 16.8948 25.3687 16.7902 25.3894 16.6855C25.3982 16.7876 25.4148 16.8896 25.4148 16.9921C25.4163 19.2375 25.4168 21.4834 25.4122 23.7287C25.4122 23.8245 25.3537 23.9198 25.3226 24.0151Z" fill="#493187"/>
<path id="Vector_33" d="M22.4175 32.3886C21.59 32.3886 20.763 32.3891 19.9355 32.3896C18.8325 32.3896 17.729 32.3896 16.626 32.3896C15.7296 32.3896 14.8332 32.3896 13.9368 32.3901C13.6209 32.3901 13.305 32.3901 12.9653 32.3901C12.9653 31.9836 12.928 31.6056 12.9762 31.2384C13.0228 30.8816 13.3889 30.6341 13.8089 30.5885C13.8855 30.5803 13.9632 30.5808 14.0404 30.5771C14.9539 30.5771 15.8673 30.5771 16.7813 30.5771C17.7637 30.5771 18.7465 30.5771 19.7289 30.5771C20.5735 30.5771 21.4181 30.5771 22.2627 30.5771C22.46 30.5803 22.6578 30.5808 22.8551 30.5865C23.4346 30.6036 23.7981 30.9692 23.8074 31.545C23.8105 31.7252 23.796 31.907 23.8116 32.0861C23.8313 32.3073 23.7603 32.3932 23.5257 32.3834C23.157 32.3673 22.7873 32.3849 22.4181 32.388L22.4175 32.3886Z" fill="#493187"/>
<path id="Vector_34" d="M19.7801 27.2112H20.3886V29.6523C20.168 29.6523 19.9479 29.6523 19.7283 29.6523C18.6942 29.6523 17.6601 29.6523 16.6259 29.6523C16.3872 29.6751 16.3033 29.5783 16.3106 29.3302C16.3287 28.7326 16.3287 28.1335 16.3106 27.5359C16.3028 27.2873 16.3877 27.191 16.6259 27.2117C17.6771 27.2117 18.7289 27.2117 19.7801 27.2117V27.2112Z" fill="#493187"/>
<path id="Vector_35" d="M19.7801 27.2108C18.7289 27.2108 17.6772 27.2108 16.6259 27.2108C16.6259 26.9037 16.6259 26.5961 16.6259 26.2891C17.6772 26.2891 18.7289 26.2891 19.7801 26.2891C19.7801 26.5961 19.7801 26.9032 19.7801 27.2108Z" fill="#493187"/>
<path id="Vector_36" d="M16.6259 29.6519C17.66 29.6519 18.6942 29.6519 19.7283 29.6519C19.7283 29.9605 19.7283 30.2692 19.7283 30.5773C18.746 30.5773 17.7631 30.5773 16.7807 30.5773C16.4897 30.309 16.5741 29.9776 16.6259 29.6514V29.6519Z" fill="#493187"/>
<path id="Vector_37" d="M24.3832 1.65171C24.3656 2.0665 24.348 2.48181 24.3304 2.8966C24.2372 2.9023 24.1445 2.9111 24.0513 2.91214C23.5412 2.91887 23.0311 2.92353 22.5205 2.92923C21.5729 2.92923 20.6247 2.92974 19.677 2.93026C19.3663 2.92353 19.0561 2.9168 18.7454 2.91007C18.6558 2.89453 18.5657 2.86657 18.4762 2.86605C17.7387 2.86191 17.0013 2.86242 16.2639 2.86191C16.2639 2.61334 16.265 2.36478 16.2639 2.11621C16.2624 1.81224 16.1733 1.72576 15.8616 1.72472C15.467 1.72369 15.0729 1.72835 14.6783 1.7211C14.6042 1.71954 14.5307 1.67449 14.4566 1.64963C15.0605 1.6429 15.6643 1.63669 16.2681 1.62944C16.3701 1.6284 16.4721 1.62374 16.5741 1.62012C17.9013 1.62012 19.2286 1.62064 20.5558 1.62115C21.6935 1.62115 22.8312 1.62219 23.9689 1.62219C24.1072 1.63203 24.2455 1.64187 24.3832 1.65119V1.65171Z" fill="#493187"/>
<path id="Vector_38" d="M14.4567 1.65015C14.5307 1.67501 14.6037 1.72006 14.6783 1.72161C15.0724 1.72886 15.467 1.7242 15.8616 1.72524C16.1733 1.72628 16.2619 1.81276 16.2639 2.11673C16.2655 2.36529 16.2639 2.61386 16.2639 2.86242C13.3682 2.86242 10.4724 2.86242 7.57712 2.86294C7.59421 2.45799 7.61078 2.05355 7.62787 1.6486C8.2498 1.64238 8.87173 1.63617 9.49418 1.62892C9.59619 1.62788 9.69872 1.62322 9.80074 1.62012C10.9726 1.62012 12.145 1.62064 13.3169 1.62115C13.697 1.63099 14.0771 1.64031 14.4572 1.65015H14.4567Z" fill="#493187"/>
<path id="Vector_39" d="M6.90034 24.9573C5.86621 24.9578 4.83207 24.9609 3.79794 24.9583C3.38211 24.9573 3.23763 24.8113 3.23763 24.397C3.23712 17.4341 3.23763 10.4711 3.23401 3.50769C3.23401 3.23272 3.33188 3.04681 3.58614 2.94531C3.67987 2.94997 3.77412 2.95878 3.86785 2.95929C4.89732 2.96137 5.92628 2.96188 6.95575 2.9624C6.95575 3.25757 6.95575 3.55223 6.95575 3.8474C6.11995 3.85102 5.28467 3.86241 4.44939 3.85413C4.23345 3.85206 4.17545 3.91575 4.17545 4.12962C4.18063 10.67 4.17959 17.2104 4.18011 23.7502C4.18011 23.8263 4.18632 23.9019 4.19202 24.0366C5.10291 24.0366 6.00292 24.0366 6.90293 24.0366C6.9019 24.3437 6.90086 24.6502 6.89983 24.9573H6.90034Z" fill="#493187"/>
<path id="Vector_40" d="M11.7934 5.50442C12.058 5.57537 12.3159 5.63388 12.565 5.71933C12.6142 5.73642 12.6675 5.86743 12.6515 5.92906C12.3563 7.07608 12.0534 8.22155 11.7463 9.36547C11.4434 10.4938 11.1342 11.6207 10.8276 12.748C10.7401 13.0696 10.6521 13.3912 10.5584 13.7356C10.2746 13.6646 10.0089 13.6051 9.75002 13.5253C9.7117 13.5134 9.67027 13.3984 9.68425 13.3456C10.0229 12.0665 10.3709 10.7901 10.7137 9.5115C11.0161 8.38312 11.3134 7.2537 11.6143 6.12532C11.6671 5.9275 11.7277 5.73176 11.7939 5.50391L11.7934 5.50442Z" fill="#493187"/>
<path id="Vector_41" d="M15.3251 9.45934C14.482 8.65462 13.7193 7.92653 12.8855 7.1306C13.1253 6.9302 13.3231 6.79038 13.4883 6.61897C13.6245 6.4776 13.698 6.5413 13.8011 6.64486C14.5048 7.35224 15.2122 8.05547 15.9165 8.76129C16.0496 8.8949 16.1847 9.02798 16.3038 9.17401C16.4799 9.38944 16.411 9.609 16.2443 9.77989C15.3888 10.655 14.523 11.5198 13.6431 12.4069C13.4091 12.1682 13.2019 11.9569 12.9617 11.712C13.7348 10.9751 14.4965 10.2485 15.3246 9.45934H15.3251Z" fill="#493187"/>
<path id="Vector_42" d="M9.41086 7.15799C8.62011 7.93838 7.86769 8.68045 7.09662 9.44168C7.87442 10.2008 8.63358 10.9419 9.42536 11.7145C9.15815 11.9506 8.93237 12.15 8.64963 12.3996C8.27782 12.0097 7.88685 11.5923 7.48759 11.1832C7.05623 10.7415 6.61813 10.306 6.18003 9.87097C5.86726 9.5613 5.86156 9.35261 6.17278 9.04035C6.96871 8.24339 7.77033 7.45161 8.55901 6.64791C8.6952 6.50913 8.762 6.52052 8.88214 6.65465C9.03491 6.82502 9.21356 6.9726 9.41138 7.15799H9.41086Z" fill="#493187"/>
<path id="Vector_43" d="M25.2615 4.94487C26.0952 4.94021 26.9284 4.93399 27.7622 4.93141C28.4328 4.92933 29.1034 4.93503 29.774 4.92778C29.934 4.92623 30.0158 4.96351 30.0044 5.14061C29.9936 5.31202 29.9962 5.48446 30.0039 5.65639C30.0112 5.81744 29.9516 5.89926 29.7828 5.89252C29.5177 5.88217 29.252 5.87751 28.9864 5.87026C28.8999 5.85058 28.8139 5.81329 28.7274 5.81329C27.5721 5.80863 26.4163 5.80915 25.261 5.80811C25.261 5.52071 25.2615 5.23279 25.262 4.94539L25.2615 4.94487Z" fill="#493187"/>
<path id="Vector_44" d="M25.5199 14.3207C25.4345 14.3253 25.3485 14.3336 25.2631 14.3336C22.7935 14.3341 20.3233 14.331 17.8537 14.3388C17.6238 14.3393 17.541 14.2896 17.5461 14.0436C17.5601 13.3606 17.5487 13.3606 18.2364 13.3606C19.2431 13.3606 20.2503 13.3601 21.257 13.3606C21.3513 13.3606 21.445 13.3709 21.5392 13.3766C21.5061 13.4124 21.4724 13.4792 21.4393 13.4787C21.0825 13.4787 21.1332 13.7241 21.1182 13.9587C21.1032 14.1953 21.1902 14.2451 21.4118 14.243C22.5055 14.2321 23.5987 14.2383 24.6924 14.2383C24.8881 14.2383 25.0844 14.2311 25.2796 14.2425C25.3609 14.2471 25.4396 14.2932 25.5199 14.3207Z" fill="#493187"/>
<path id="Vector_45" d="M19.9873 21.4395H24.2657C24.2657 21.7155 24.2766 21.9878 24.2548 22.2582C24.2512 22.3027 24.1015 22.3669 24.0192 22.3679C23.1316 22.3757 22.244 22.3742 21.3565 22.3721C20.9002 22.3711 20.444 22.3628 19.9878 22.3576C19.9878 22.0515 19.9878 21.746 19.9878 21.44L19.9873 21.4395Z" fill="#493187"/>
<path id="Vector_46" d="M17.5576 11.3424C17.6036 11.3103 17.6503 11.2502 17.6963 11.2497C19.8506 11.2456 22.0048 11.2471 24.159 11.2487C24.1834 11.2487 24.2077 11.2606 24.2502 11.2715V12.1974C24.1849 12.2046 24.1269 12.2171 24.0694 12.2171C22.6821 12.2181 21.2948 12.2176 19.9075 12.2171C19.8651 12.2171 19.8221 12.2083 19.7796 12.2036C19.9205 12.1751 20.0603 12.1254 20.2017 12.1228C20.7138 12.113 20.7009 12.1187 20.7169 11.6231C20.7247 11.388 20.6465 11.3357 20.4243 11.3383C19.4689 11.3497 18.5135 11.3429 17.5576 11.3429V11.3424Z" fill="#493187"/>
<path id="Vector_47" d="M20.401 7.05559C21.6325 7.05093 22.8639 7.04678 24.0958 7.04005C24.2341 7.03902 24.2641 7.10323 24.2704 7.23062C24.3061 7.98874 24.3087 7.99081 23.5531 7.98822C22.5024 7.9846 21.4523 7.97735 20.4015 7.97165C20.4015 7.66664 20.4015 7.36111 20.4015 7.05559H20.401Z" fill="#493187"/>
<path id="Vector_48" d="M23.5547 10.0826C22.3833 10.0837 21.2119 10.0852 20.0406 10.0863C19.9878 9.92572 19.9158 9.76778 19.8878 9.60311C19.863 9.45604 19.8863 9.30017 19.8878 9.14844C21.0928 9.15206 22.2979 9.15569 23.5029 9.15983C23.52 9.46743 23.5371 9.77555 23.5542 10.0831L23.5547 10.0826Z" fill="#493187"/>
<path id="Vector_49" d="M12.5407 22.3576C11.2823 22.3576 10.024 22.3576 8.76614 22.3582C8.76614 22.0516 8.76614 21.745 8.76614 21.4385C10.0245 21.4385 11.2829 21.4385 12.5412 21.439C12.5412 21.745 12.5412 22.0516 12.5412 22.3576H12.5407Z" fill="#493187"/>
<path id="Vector_50" d="M19.9872 21.4395C19.9872 21.7455 19.9872 22.051 19.9872 22.3571C18.746 22.3571 17.5052 22.3571 16.2639 22.3571C16.2639 22.0515 16.2639 21.7455 16.2639 21.44C17.5047 21.44 18.746 21.44 19.9867 21.44L19.9872 21.4395Z" fill="#493187"/>
<path id="Vector_51" d="M16.2639 21.44C16.2639 21.7455 16.2639 22.0515 16.2639 22.3571C15.0232 22.3571 13.7819 22.3576 12.5411 22.3581C12.5411 22.0521 12.5411 21.7455 12.5411 21.4395C13.7824 21.4395 15.0232 21.4395 16.2644 21.4395L16.2639 21.44Z" fill="#493187"/>
<path id="Vector_52" d="M12.957 24.0371C14.1107 24.0376 15.2645 24.0387 16.4182 24.0392C16.4182 24.3499 16.4182 24.6611 16.4188 24.9718C15.2645 24.9729 14.1097 24.9739 12.9554 24.9749C12.9554 24.6621 12.9564 24.3494 12.9564 24.0371H12.957Z" fill="#493187"/>
<path id="Vector_53" d="M16.4193 24.9717C16.4193 24.661 16.4193 24.3498 16.4188 24.0391C17.5565 24.0391 18.6942 24.0391 19.8319 24.0391C19.8319 24.3498 19.8319 24.66 19.8319 24.9707C19.2353 24.9774 18.6388 24.9831 18.0422 24.9914C17.8978 24.9934 17.7533 25.0012 17.6083 25.0064C17.2121 24.995 16.8155 24.9831 16.4193 24.9717Z" fill="#493187"/>
<path id="Vector_54" d="M26.6074 9.15416C27.3458 9.14743 28.0843 9.13914 28.8222 9.13396C29.1982 9.13137 29.5746 9.13396 29.9858 9.13396C29.9858 9.43379 29.9925 9.70618 29.9786 9.97753C29.9765 10.02 29.8807 10.093 29.8279 10.093C28.7709 10.0946 27.714 10.0878 26.6576 10.0827C26.6405 9.7735 26.624 9.46383 26.6069 9.15468L26.6074 9.15416Z" fill="#493187"/>
<path id="Vector_55" d="M6.95622 3.84789C6.95622 3.55271 6.95622 3.25806 6.95622 2.96289C8.19698 2.96289 9.43825 2.96289 10.679 2.96289C10.679 3.25754 10.679 3.5522 10.679 3.84685C9.43825 3.84685 8.19698 3.84685 6.95622 3.84737V3.84789Z" fill="#493187"/>
<path id="Vector_56" d="M16.3686 19.3335C17.5229 19.3335 18.6771 19.3335 19.8314 19.3335C19.8314 19.6365 19.8314 19.9394 19.8314 20.2423C18.6766 20.2423 17.5213 20.2423 16.3665 20.2423C16.367 19.9394 16.3676 19.6359 16.3681 19.333L16.3686 19.3335Z" fill="#493187"/>
<path id="Vector_57" d="M6.90343 24.9559C6.90446 24.6489 6.9055 24.3423 6.90653 24.0352C7.99245 24.0352 9.07785 24.0347 10.1638 24.0342C10.1638 24.3475 10.1638 24.6608 10.1643 24.9741C10.0452 24.9792 9.92608 24.988 9.80698 24.9891C9.06439 24.9953 8.3218 24.9994 7.57921 25.0041C7.35395 24.988 7.12869 24.972 6.90343 24.9559Z" fill="#493187"/>
<path id="Vector_58" d="M24.6924 14.2386C23.5987 14.2386 22.505 14.2324 21.4119 14.2433C21.1902 14.2454 21.1032 14.1951 21.1183 13.959C21.1333 13.7249 21.0825 13.4785 21.4393 13.479C21.4725 13.479 21.5061 13.4122 21.5393 13.377C22.5905 13.3775 23.6412 13.378 24.6924 13.3785C24.6924 13.6649 24.6924 13.9518 24.6924 14.2381V14.2386Z" fill="#493187"/>
<path id="Vector_59" d="M26.6074 9.15456C26.6245 9.46371 26.6411 9.77338 26.6582 10.0825C25.6235 10.0825 24.5894 10.0825 23.5547 10.0825C23.5376 9.77494 23.5205 9.46682 23.5034 9.15922C24.3253 9.15042 25.1466 9.14006 25.9684 9.13488C26.1817 9.13333 26.3946 9.14783 26.6079 9.15456H26.6074Z" fill="#493187"/>
<path id="Vector_60" d="M18.745 2.91016C19.0557 2.91689 19.3659 2.92362 19.6766 2.93035C19.6766 3.23588 19.6766 3.54141 19.6766 3.84745C18.5736 3.84745 17.47 3.84745 16.367 3.84745C16.367 3.55228 16.367 3.25711 16.367 2.96194C17.0703 2.9609 17.7735 2.96142 18.4772 2.95624C18.5668 2.95573 18.6559 2.92621 18.7455 2.91016H18.745Z" fill="#493187"/>
<path id="Vector_61" d="M19.0583 4.94141C20.1778 4.94244 21.2974 4.944 22.417 4.94503C22.417 5.23243 22.417 5.51984 22.417 5.80672C21.3761 5.80724 20.3358 5.8031 19.2949 5.81294C19.0966 5.81501 19.0381 5.74872 19.0515 5.56023C19.0665 5.35465 19.0567 5.14751 19.0583 4.94141Z" fill="#493187"/>
<path id="Vector_62" d="M7.83606 17.2335C8.90437 17.2335 9.9732 17.2324 11.0415 17.2324C11.042 17.5328 11.0431 17.8336 11.0436 18.134C9.97527 18.134 8.90696 18.134 7.83813 18.134C7.83709 17.8336 7.83658 17.5338 7.83554 17.234L7.83606 17.2335Z" fill="#493187"/>
<path id="Vector_63" d="M10.1612 24.976C10.1612 24.6627 10.1612 24.3494 10.1607 24.0361C11.0928 24.0361 12.0249 24.0367 12.957 24.0372C12.957 24.3499 12.956 24.6627 12.956 24.975C12.0244 24.975 11.0928 24.9755 10.1617 24.976H10.1612Z" fill="#493187"/>
<path id="Vector_64" d="M8.86762 20.2452C7.95725 20.2483 7.04637 20.2493 6.136 20.2571C5.97598 20.2586 5.93611 20.1955 5.93248 20.0437C5.91539 19.3162 5.91125 19.3141 6.62795 19.3167C7.37468 19.3193 8.12193 19.327 8.86866 19.3322C8.86866 19.6367 8.86762 19.9407 8.86762 20.2452Z" fill="#493187"/>
<path id="Vector_65" d="M17.5576 11.3426C18.513 11.3426 19.4689 11.3494 20.4243 11.338C20.6465 11.3354 20.7247 11.3877 20.7169 11.6228C20.7009 12.1184 20.7138 12.1127 20.2017 12.1225C20.0603 12.1251 19.9205 12.1753 19.7796 12.2033C19.0515 12.2033 18.3229 12.2033 17.5576 12.2033V11.3426Z" fill="#493187"/>
<path id="Vector_66" d="M20.401 7.05561C20.401 7.36114 20.401 7.66615 20.401 7.97168C19.5057 7.97738 18.6098 7.98618 17.7145 7.981C17.6606 7.981 17.5674 7.87536 17.5607 7.81167C17.5405 7.6154 17.5405 7.41448 17.5607 7.21873C17.5674 7.15504 17.6596 7.0494 17.7134 7.04888C18.6093 7.04319 19.5047 7.05095 20.4005 7.05561H20.401Z" fill="#493187"/>
<path id="Vector_67" d="M19.6766 3.84731C19.6766 3.54178 19.6766 3.23573 19.6766 2.93021C20.6242 2.93021 21.5724 2.93021 22.5201 2.92969C22.5201 3.23573 22.5201 3.54178 22.5201 3.84731C21.5719 3.84731 20.6242 3.84731 19.6761 3.84731H19.6766Z" fill="#493187"/>
<path id="Vector_68" d="M8.7661 21.4385C8.7661 21.745 8.7661 22.0516 8.7661 22.3582C7.88007 22.3623 6.99352 22.369 6.10749 22.3649C6.05053 22.3649 5.94799 22.2815 5.94489 22.2318C5.92832 21.9765 5.93712 21.7197 5.93712 21.4385H8.76662H8.7661Z" fill="#493187"/>
<path id="Vector_69" d="M24.6924 14.2385C24.6924 13.9522 24.6924 13.6653 24.6924 13.3789C25.6058 13.3789 26.5198 13.3789 27.4333 13.3789C27.4333 13.6927 27.4333 14.006 27.4333 14.3198C26.7959 14.3203 26.1579 14.3209 25.5204 14.3219C25.4401 14.2945 25.3614 14.2484 25.2801 14.2437C25.0849 14.2318 24.8886 14.2396 24.6929 14.2396L24.6924 14.2385Z" fill="#493187"/>
<path id="Vector_70" d="M14.0404 20.2429C13.1093 20.2429 12.1787 20.2429 11.2477 20.2429C11.2482 19.9394 11.2492 19.6365 11.2497 19.333C12.1798 19.333 13.1093 19.333 14.0393 19.3335C14.0393 19.6365 14.0399 19.9399 14.0404 20.2429Z" fill="#493187"/>
<path id="Vector_71" d="M13.3671 17.2324C14.35 17.2329 15.3323 17.2335 16.3152 17.2345C16.3152 17.5333 16.3152 17.8326 16.3152 18.1314C15.3318 18.1319 14.3479 18.133 13.3645 18.1335C13.3656 17.8331 13.3661 17.5328 13.3671 17.2324Z" fill="#493187"/>
<path id="Vector_72" d="M16.367 2.96191C16.367 3.25709 16.367 3.55226 16.367 3.84743C15.4018 3.84743 14.4365 3.84743 13.4712 3.84743C13.4712 3.55277 13.4712 3.2576 13.4712 2.96295C14.4365 2.96295 15.4018 2.96243 16.367 2.96191Z" fill="#493187"/>
<path id="Vector_73" d="M16.3157 18.1313C16.3157 17.8325 16.3157 17.5332 16.3157 17.2344C17.281 17.2344 18.2463 17.2344 19.2115 17.2344C19.2115 17.5337 19.2115 17.8325 19.2115 18.1318C18.2463 18.1318 17.281 18.1318 16.3157 18.1318V18.1313Z" fill="#493187"/>
<path id="Vector_74" d="M19.0583 4.94192C19.0572 5.14854 19.0665 5.35567 19.0515 5.56074C19.0381 5.74924 19.0966 5.815 19.2949 5.81345C20.3358 5.80361 21.3761 5.80827 22.417 5.80775C23.3652 5.80775 24.3128 5.80775 25.261 5.80827C26.4163 5.8093 27.5721 5.80827 28.7274 5.81345C28.8139 5.81345 28.9004 5.85073 28.9864 5.87041C28.9019 5.88025 28.8175 5.89837 28.7336 5.89837C25.1015 5.89941 21.4688 5.89682 17.8367 5.90407C17.5964 5.90407 17.5234 5.83416 17.5254 5.59854C17.5306 4.92742 17.5223 4.92586 18.1821 4.92793C18.4741 4.92897 18.7662 4.93726 19.0588 4.94192H19.0583Z" fill="#493187"/>
<path id="Vector_75" d="M19.8319 24.9707C19.8319 24.66 19.8319 24.3498 19.8319 24.0391C20.6941 24.0391 21.5563 24.0391 22.4186 24.0391C22.4186 24.3503 22.4186 24.661 22.4186 24.9717C21.5563 24.9717 20.6947 24.9712 19.8324 24.9707H19.8319Z" fill="#493187"/>
<path id="Vector_76" d="M27.5369 2.92676C27.5369 3.23384 27.5369 3.54092 27.5364 3.84852C26.64 3.84852 25.7436 3.84852 24.8477 3.84852C24.8477 3.54196 24.8477 3.23539 24.8477 2.92883C25.7441 2.92831 26.6405 2.92779 27.5369 2.92728V2.92676Z" fill="#493187"/>
<path id="Vector_77" d="M27.4328 14.3189C27.4328 14.005 27.4328 13.6917 27.4328 13.3779C28.2727 13.3779 29.1127 13.3779 29.9702 13.3779V14.3189H27.4323H27.4328Z" fill="#493187"/>
<path id="Vector_78" d="M25.261 5.80804C24.3128 5.80804 23.3652 5.80804 22.417 5.80752C22.417 5.52012 22.417 5.23272 22.417 4.94583C23.1187 4.95619 23.8209 4.96965 24.5225 4.97431C24.7685 4.97587 25.015 4.95567 25.2615 4.94531C25.2615 5.23272 25.261 5.52064 25.2605 5.80804H25.261Z" fill="#493187"/>
<path id="Vector_79" d="M13.4712 2.96289C13.4712 3.25754 13.4712 3.55271 13.4712 3.84737C12.5407 3.84737 11.6096 3.84737 10.679 3.84737C10.679 3.55271 10.679 3.25806 10.679 2.96341C11.6096 2.96341 12.5402 2.96341 13.4712 2.96341V2.96289Z" fill="#493187"/>
<path id="Vector_80" d="M19.2115 18.1318C19.2115 17.8325 19.2115 17.5337 19.2115 17.2344C20.125 17.2344 21.0385 17.2344 21.9525 17.2344C21.9525 17.5337 21.9525 17.8325 21.9525 18.1318C21.039 18.1318 20.125 18.1318 19.2115 18.1318Z" fill="#493187"/>
<path id="Vector_81" d="M19.8879 9.14858C19.8858 9.30031 19.8625 9.45618 19.8879 9.60325C19.9158 9.76844 19.9878 9.92587 20.0406 10.0864C19.2592 10.0916 18.4773 10.1004 17.6958 10.0947C17.6404 10.0947 17.5441 9.98956 17.5379 9.92587C17.5177 9.72132 17.5182 9.51263 17.5389 9.3086C17.5457 9.24387 17.642 9.13719 17.6979 9.13719C18.4275 9.13201 19.1577 9.14185 19.8873 9.14858H19.8879Z" fill="#493187"/>
<path id="Vector_82" d="M19.8314 20.2428C19.8314 19.9399 19.8314 19.6369 19.8314 19.334C20.6589 19.334 21.4859 19.334 22.3134 19.334C22.3134 19.6369 22.3134 19.9404 22.3139 20.2433C21.4864 20.2433 20.6589 20.2433 19.8319 20.2433L19.8314 20.2428Z" fill="#493187"/>
<path id="Vector_83" d="M11.2497 19.3326C11.2491 19.6361 11.2481 19.939 11.2476 20.2425C10.4543 20.243 9.66092 20.2435 8.86758 20.244C8.86758 19.9395 8.86862 19.6355 8.86862 19.3311C9.66196 19.3311 10.4558 19.3321 11.2491 19.3326H11.2497Z" fill="#493187"/>
<path id="Vector_84" d="M24.8477 2.92853C24.8477 3.2351 24.8477 3.54166 24.8477 3.84822C24.072 3.84822 23.2963 3.84822 22.5206 3.8477C22.5206 3.54166 22.5206 3.23561 22.5206 2.93008C23.0306 2.92491 23.5412 2.91973 24.0513 2.913C24.1445 2.91196 24.2377 2.90264 24.3304 2.89746C24.5029 2.90782 24.6753 2.91817 24.8477 2.92905V2.92853Z" fill="#493187"/>
<path id="Vector_85" d="M14.0404 20.2433C14.0404 19.9404 14.0399 19.6369 14.0394 19.334C14.8156 19.334 15.5924 19.334 16.3686 19.334C16.3681 19.6374 16.3676 19.9404 16.3671 20.2438C15.5913 20.2438 14.8161 20.2438 14.0404 20.2438V20.2433Z" fill="#493187"/>
<path id="Vector_86" d="M13.3672 17.232C13.3661 17.5323 13.3656 17.8327 13.3646 18.133C12.5909 18.133 11.8172 18.133 11.0436 18.133C11.0431 17.8327 11.042 17.5323 11.0415 17.2314C11.8167 17.2314 12.5919 17.2314 13.3672 17.2314V17.232Z" fill="#493187"/>
<path id="Vector_87" d="M21.9524 18.1318C21.9524 17.8325 21.9524 17.5337 21.9524 17.2344C22.7152 17.2344 23.4785 17.2344 24.2662 17.2344C24.2662 17.5083 24.277 17.7569 24.2574 18.0034C24.2532 18.0552 24.1367 18.138 24.0709 18.1385C23.3651 18.1442 22.6588 18.1365 21.953 18.1323L21.9524 18.1318Z" fill="#493187"/>
<path id="Vector_88" d="M7.83606 17.2332C7.8371 17.533 7.83762 17.8333 7.83865 18.1332C7.24779 18.1425 6.65745 18.1549 6.06659 18.1565C6.02361 18.1565 5.97856 18.0804 5.93817 18.0363C5.92936 18.027 5.93713 18.0032 5.93558 17.9861C5.88224 17.2093 5.88224 17.2068 6.65383 17.2104C7.04791 17.2125 7.44147 17.2254 7.83555 17.2337L7.83606 17.2332Z" fill="#493187"/>
<path id="Vector_89" d="M22.3139 20.2425C22.3139 19.9395 22.3139 19.6361 22.3134 19.3331C22.9328 19.3326 23.5516 19.3321 24.1709 19.3311C24.173 19.635 24.1756 19.939 24.1777 20.243C23.5562 20.243 22.9353 20.243 22.3139 20.2425Z" fill="#493187"/>
<path id="Vector_90" d="M24.1776 20.2429C24.1755 19.939 24.173 19.635 24.1709 19.331C24.1792 19.33 24.1921 19.3248 24.1957 19.3284C24.3185 19.4558 24.3045 20.1202 24.1776 20.2429Z" fill="#493187"/>
<path id="Vector_91" d="M29.9164 16.7434C30.0018 16.7387 30.0878 16.7294 30.1732 16.7294C31.8091 16.7283 33.445 16.7283 35.0809 16.7289C35.5485 16.7289 35.7463 16.921 35.7463 17.3777C35.7468 21.7685 35.7468 26.1598 35.7463 30.5506C35.7463 31.0043 35.5547 31.1969 35.1067 31.1969C33.2125 31.1969 31.3182 31.1969 29.4239 31.1964C29.3468 31.1964 29.2691 31.1902 29.1919 31.1871C29.0361 30.9975 29.033 30.7754 29.0304 30.5434C29.0283 30.3559 29.1003 30.3119 29.2712 30.3166C29.6549 30.3264 30.0391 30.3238 30.4228 30.316C30.4953 30.3145 30.5668 30.2653 30.6388 30.2384C32.0142 30.2384 33.3901 30.2384 34.78 30.2384V17.7024C34.663 17.7024 34.562 17.7024 34.4605 17.7024C32.9277 17.6988 31.3954 17.6952 29.8625 17.691C29.8801 17.3751 29.8978 17.0598 29.9154 16.7439L29.9164 16.7434Z" fill="#493187"/>
<path id="Vector_92" d="M30.6393 30.2381C30.5673 30.2656 30.4958 30.3147 30.4233 30.3158C30.0396 30.3236 29.6554 30.3261 29.2717 30.3163C29.1003 30.3122 29.0283 30.3557 29.0309 30.5431C29.0334 30.7746 29.0366 30.9973 29.1924 31.1868C28.4954 31.1899 27.7979 31.2008 27.1009 31.1935C26.8052 31.1904 26.6317 31.0009 26.6073 30.7052C26.6017 30.6368 26.6053 30.5675 26.6053 30.4986C26.6053 26.142 26.6053 21.7853 26.6053 17.4287C26.6053 16.8658 26.7441 16.7255 27.3064 16.7276C28.0552 16.7302 28.8035 16.7369 29.5523 16.7415C29.4803 16.7685 29.4084 16.8182 29.3359 16.8192C28.8828 16.8265 28.4296 16.8177 27.977 16.8285C27.9004 16.8306 27.7616 16.9005 27.7606 16.9414C27.7554 17.1978 27.6436 17.4821 27.8983 17.6913C27.7984 17.7006 27.6984 17.7094 27.599 17.7187V30.2246C27.729 30.2246 27.8403 30.2246 27.9512 30.2246C28.847 30.2288 29.7429 30.2334 30.6388 30.2381H30.6393Z" fill="#493187"/>
<path id="Vector_93" d="M27.8989 17.6919C27.6446 17.4822 27.756 17.1984 27.7611 16.9421C27.7622 16.9012 27.901 16.8313 27.9776 16.8292C28.4302 16.8183 28.8838 16.8271 29.3364 16.8199C29.4089 16.8188 29.4804 16.7691 29.5529 16.7422C29.6741 16.7427 29.7952 16.7432 29.9164 16.7437C29.8988 17.0596 29.8812 17.375 29.8636 17.6909C29.2085 17.6909 28.554 17.6914 27.8989 17.6919Z" fill="#493187"/>
<path id="Vector_94" d="M10.1612 24.9758C11.0928 24.9758 12.0244 24.9753 12.9555 24.9748C14.1097 24.9738 15.2645 24.9727 16.4188 24.9717C16.815 24.9831 17.2116 24.9945 17.6078 25.0064C17.6078 25.3989 17.6078 25.7919 17.6078 26.1845C14.2641 26.1845 10.9198 26.1845 7.57611 26.1845C7.57611 25.7914 7.57611 25.3984 7.57611 25.0053C8.3187 25.0007 9.06129 24.9965 9.80387 24.9903C9.92298 24.9893 10.0421 24.9805 10.1612 24.9753V24.9758Z" fill="#493187"/>
<path id="Vector_95" d="M13.4712 2.96277C12.5406 2.96277 11.6101 2.96277 10.679 2.96277C9.43823 2.96277 8.19696 2.96277 6.9562 2.96277C5.92673 2.96173 4.89777 2.96121 3.8683 2.95966C3.77457 2.95966 3.68032 2.95086 3.58659 2.94568C3.67825 2.91875 3.76991 2.86904 3.86157 2.86852C5.09973 2.86282 6.33842 2.86386 7.57658 2.86282C10.4724 2.86282 13.3681 2.86282 16.2634 2.8623C17.0008 2.86282 17.7382 2.8623 18.4756 2.86645C18.5657 2.86697 18.6553 2.89493 18.7449 2.91046C18.6553 2.92652 18.5663 2.95552 18.4767 2.95655C17.7734 2.96173 17.0702 2.96121 16.3665 2.96225C15.4012 2.96225 14.4359 2.96225 13.4707 2.96277H13.4712Z" fill="#493187"/>
<path id="Vector_96" d="M29.555 21.0896C30.7372 21.0845 31.9194 21.0788 33.1017 21.0762C33.2974 21.0762 33.4937 21.0907 33.6894 21.099C33.734 21.1181 33.7785 21.1373 33.823 21.157C34.0504 21.2191 34.0959 21.4029 34.0965 21.5976C34.1001 23.1765 34.1042 24.7555 34.0887 26.3344C34.0871 26.4778 33.9473 26.6197 33.8717 26.7621C33.8282 26.7838 33.7847 26.8061 33.7412 26.8279C33.7164 26.8346 33.692 26.847 33.6672 26.847C32.2964 26.8455 30.9252 26.8429 29.5545 26.8403C29.5674 26.5011 29.441 26.1153 29.8657 25.9144H33.1058V22.0119H29.5565C29.556 21.7043 29.5555 21.3967 29.555 21.0891V21.0896Z" fill="#493187"/>
<path id="Vector_97" d="M29.5549 21.0892C29.5554 21.3968 29.556 21.7044 29.5565 22.012C29.4425 22.0312 29.3281 22.0509 29.2147 22.07V25.8612C29.4436 25.8798 29.6543 25.8969 29.8656 25.9145C29.441 26.1149 29.5668 26.5012 29.5544 26.8404C29.297 26.8451 29.0397 26.8544 28.7823 26.8528C28.4379 26.8503 28.2453 26.6628 28.2344 26.3122C28.2251 26.0119 28.2318 25.711 28.2318 25.4101C28.2318 24.1901 28.2318 22.9695 28.2318 21.7495C28.2318 21.2399 28.3996 21.0732 28.9123 21.0742C29.1267 21.0742 29.3405 21.0846 29.5549 21.0898V21.0892Z" fill="#493187"/>
<path id="Vector_98" d="M33.823 21.1566C33.7785 21.1375 33.7339 21.1183 33.6894 21.0986C33.7339 21.1178 33.7785 21.137 33.823 21.1566Z" fill="#493187"/>
<path id="Vector_99" d="M29.8656 25.9142C29.6549 25.8971 29.4441 25.8795 29.2147 25.8609V22.0697C29.3281 22.0506 29.442 22.0309 29.5565 22.0117C30.733 22.0117 31.909 22.0117 33.1058 22.0117V25.9142H29.8656ZM29.3385 23.9397C29.7269 24.3529 30.0805 24.7578 30.4674 25.1291C30.6771 25.3306 30.9402 25.2752 31.1551 25.0546C31.3938 24.8091 31.6361 24.5668 31.8759 24.3218C32.2467 23.9422 32.6169 23.5616 33.0597 23.1064C32.8381 22.9242 32.6465 22.7517 32.4373 22.6046C32.3844 22.5674 32.2477 22.5788 32.1959 22.6228C32.0271 22.7652 31.8795 22.9324 31.7237 23.0909C31.4124 23.4068 31.1007 23.7227 30.7745 24.0536C30.5627 23.8299 30.3809 23.6248 30.1826 23.4373C30.1323 23.3897 29.9967 23.355 29.9568 23.3861C29.7496 23.5492 29.5611 23.7361 29.339 23.9391L29.3385 23.9397Z" fill="#493187"/>
</g>
<defs>
<filter id="filter0_d_1768_5269" x="0.792862" y="0.679688" width="36.4143" height="33.0549" filterUnits="userSpaceOnUse" color-interpolation-filters="sRGB">
<feFlood flood-opacity="0" result="BackgroundImageFix"/>
<feColorMatrix in="SourceAlpha" type="matrix" values="0 0 0 0 0 0 0 0 0 0 0 0 0 0 0 0 0 0 127 0" result="hardAlpha"/>
<feOffset dy="0.207138"/>
<feGaussianBlur stdDeviation="0.103569"/>
<feComposite in2="hardAlpha" operator="out"/>
<feColorMatrix type="matrix" values="0 0 0 0 0 0 0 0 0 0 0 0 0 0 0 0 0 0 0.25 0"/>
<feBlend mode="normal" in2="BackgroundImageFix" result="effect1_dropShadow_1768_5269"/>
<feBlend mode="normal" in="SourceGraphic" in2="effect1_dropShadow_1768_5269" result="shape"/>
</filter>
</defs>
</svg>
