<svg width="16" height="17" viewBox="0 0 16 17" fill="none" xmlns="http://www.w3.org/2000/svg">
<path d="M14.7791 0.833596L15.2069 1.26135C15.7963 1.8515 15.7071 2.89767 15.006 3.59802L6.18497 12.4191L3.32702 13.4645C2.96815 13.5965 2.6187 13.4254 2.54765 13.0839C2.52364 12.9601 2.53494 12.8319 2.58027 12.7142L3.64602 9.83157L12.4424 1.03442C13.1435 0.334071 14.1897 0.243446 14.7791 0.833596ZM5.8 1.71085C5.89521 1.71085 5.98948 1.7296 6.07744 1.76603C6.16541 1.80247 6.24533 1.85587 6.31265 1.92319C6.37997 1.99052 6.43338 2.07044 6.46981 2.1584C6.50625 2.24636 6.525 2.34064 6.525 2.43585C6.525 2.53105 6.50625 2.62533 6.46981 2.71329C6.43338 2.80125 6.37997 2.88118 6.31265 2.9485C6.24533 3.01582 6.16541 3.06922 6.07744 3.10566C5.98948 3.14209 5.89521 3.16085 5.8 3.16085H2.9C2.51544 3.16085 2.14662 3.31361 1.8747 3.58554C1.60277 3.85747 1.45 4.22628 1.45 4.61085V13.3108C1.45 13.6954 1.60277 14.0642 1.8747 14.3362C2.14662 14.6081 2.51544 14.7608 2.9 14.7608H11.6C11.9846 14.7608 12.3534 14.6081 12.6253 14.3362C12.8972 14.0642 13.05 13.6954 13.05 13.3108V10.4108C13.05 10.2186 13.1264 10.0342 13.2623 9.89819C13.3983 9.76223 13.5827 9.68585 13.775 9.68585C13.9673 9.68585 14.1517 9.76223 14.2877 9.89819C14.4236 10.0342 14.5 10.2186 14.5 10.4108V13.3108C14.5 14.08 14.1945 14.8176 13.6506 15.3615C13.1068 15.9053 12.3691 16.2108 11.6 16.2108H2.9C2.13087 16.2108 1.39325 15.9053 0.84939 15.3615C0.305535 14.8176 0 14.08 0 13.3108V4.61085C0 3.84172 0.305535 3.10409 0.84939 2.56024C1.39325 2.01638 2.13087 1.71085 2.9 1.71085H5.8Z" fill="url(#paint0_linear_767_1975)"/>
<defs>
<linearGradient id="paint0_linear_767_1975" x1="7.79825" y1="0.444336" x2="7.79825" y2="16.2108" gradientUnits="userSpaceOnUse">
<stop stop-color="#FFE1C9"/>
<stop offset="1" stop-color="#FFC291"/>
</linearGradient>
</defs>
</svg>
