<svg width="20" height="20" viewBox="0 0 20 20" fill="none" xmlns="http://www.w3.org/2000/svg">
<path d="M18.3465 0.483219L18.8775 1.01422C19.6092 1.74682 19.4985 3.04552 18.6282 3.91492L7.6779 14.8652L4.1301 16.163C3.6846 16.3268 3.2508 16.1144 3.1626 15.6905C3.13279 15.5367 3.14683 15.3777 3.2031 15.2315L4.5261 11.6531L15.4458 0.732519C16.3161 -0.136881 17.6148 -0.249381 18.3465 0.483219ZM7.2 1.57222C7.31819 1.57222 7.43522 1.5955 7.54441 1.64073C7.65361 1.68596 7.75282 1.75225 7.8364 1.83582C7.91997 1.9194 7.98626 2.01861 8.03149 2.1278C8.07672 2.237 8.1 2.35403 8.1 2.47222C8.1 2.59041 8.07672 2.70744 8.03149 2.81663C7.98626 2.92583 7.91997 3.02504 7.8364 3.10862C7.75282 3.19219 7.65361 3.25848 7.54441 3.30371C7.43522 3.34894 7.31819 3.37222 7.2 3.37222H3.6C3.12261 3.37222 2.66477 3.56186 2.32721 3.89943C1.98964 4.23699 1.8 4.69483 1.8 5.17222V15.9722C1.8 16.4496 1.98964 16.9074 2.32721 17.245C2.66477 17.5826 3.12261 17.7722 3.6 17.7722H14.4C14.8774 17.7722 15.3352 17.5826 15.6728 17.245C16.0104 16.9074 16.2 16.4496 16.2 15.9722V12.3722C16.2 12.1335 16.2948 11.9046 16.4636 11.7358C16.6324 11.567 16.8613 11.4722 17.1 11.4722C17.3387 11.4722 17.5676 11.567 17.7364 11.7358C17.9052 11.9046 18 12.1335 18 12.3722V15.9722C18 16.927 17.6207 17.8427 16.9456 18.5178C16.2705 19.1929 15.3548 19.5722 14.4 19.5722H3.6C2.64522 19.5722 1.72955 19.1929 1.05442 18.5178C0.379285 17.8427 0 16.927 0 15.9722V5.17222C0 4.21744 0.379285 3.30177 1.05442 2.62663C1.72955 1.9515 2.64522 1.57222 3.6 1.57222H7.2Z" fill="#F77F5A"/>
</svg>
