<svg width="44" height="44" viewBox="0 0 44 44" fill="none" xmlns="http://www.w3.org/2000/svg">
<path d="M15.4 24.3996C15.4 27.0516 13.252 29.1996 10.6 29.1996C7.94805 29.1996 5.80005 27.0516 5.80005 24.3996C5.80005 21.7476 7.94805 19.5996 10.6 19.5996C13.252 19.5996 15.4 21.7476 15.4 24.3996Z" fill="white"/>
<path fill-rule="evenodd" clip-rule="evenodd" d="M10.6 26.7996C11.2366 26.7996 11.847 26.5468 12.2971 26.0967C12.7472 25.6466 13 25.0361 13 24.3996C13 23.7631 12.7472 23.1526 12.2971 22.7026C11.847 22.2525 11.2366 21.9996 10.6 21.9996C9.96353 21.9996 9.35308 22.2525 8.90299 22.7026C8.45291 23.1526 8.20005 23.7631 8.20005 24.3996C8.20005 25.0361 8.45291 25.6466 8.90299 26.0967C9.35308 26.5468 9.96353 26.7996 10.6 26.7996ZM10.6 29.1996C13.252 29.1996 15.4 27.0516 15.4 24.3996C15.4 21.7476 13.252 19.5996 10.6 19.5996C7.94805 19.5996 5.80005 21.7476 5.80005 24.3996C5.80005 27.0516 7.94805 29.1996 10.6 29.1996Z" fill="white"/>
<path d="M0.400146 37.0548C0.400146 33.426 7.19575 31.5996 10.6001 31.5996C14.0045 31.5996 20.8001 33.4272 20.8001 37.0536V43.5996H0.400146V37.0548Z" fill="white"/>
<path fill-rule="evenodd" clip-rule="evenodd" d="M3.20095 36.3792C2.82175 36.7536 2.80015 36.9684 2.80015 37.0548V41.1996H18.4001V37.0536C18.4001 36.9696 18.3785 36.7536 17.9993 36.3792C17.5985 35.9844 16.9373 35.5608 16.0313 35.1732C14.2073 34.392 11.9801 33.9996 10.6001 33.9996C9.22015 33.9996 6.99175 34.392 5.16895 35.1732C4.26295 35.5608 3.60175 35.9844 3.20095 36.3792ZM10.6001 31.5996C7.19575 31.5996 0.400146 33.4272 0.400146 37.0536V43.5996H20.8001V37.0536C20.8001 33.4284 14.0045 31.5996 10.6001 31.5996Z" fill="white"/>
<path d="M38.2001 24.3996C38.2001 27.0516 36.0521 29.1996 33.4001 29.1996C30.7481 29.1996 28.6001 27.0516 28.6001 24.3996C28.6001 21.7476 30.7481 19.5996 33.4001 19.5996C36.0521 19.5996 38.2001 21.7476 38.2001 24.3996Z" fill="white"/>
<path fill-rule="evenodd" clip-rule="evenodd" d="M33.4001 26.7996C34.0366 26.7996 34.6471 26.5468 35.0972 26.0967C35.5472 25.6466 35.8001 25.0361 35.8001 24.3996C35.8001 23.7631 35.5472 23.1526 35.0972 22.7026C34.6471 22.2525 34.0366 21.9996 33.4001 21.9996C32.7636 21.9996 32.1531 22.2525 31.703 22.7026C31.253 23.1526 31.0001 23.7631 31.0001 24.3996C31.0001 25.0361 31.253 25.6466 31.703 26.0967C32.1531 26.5468 32.7636 26.7996 33.4001 26.7996ZM33.4001 29.1996C36.0521 29.1996 38.2001 27.0516 38.2001 24.3996C38.2001 21.7476 36.0521 19.5996 33.4001 19.5996C30.7481 19.5996 28.6001 21.7476 28.6001 24.3996C28.6001 27.0516 30.7481 29.1996 33.4001 29.1996Z" fill="white"/>
<path d="M26.8002 22.0012C26.8002 24.6532 24.6522 26.8012 22.0002 26.8012C19.3482 26.8012 17.2002 24.6532 17.2002 22.0012C17.2002 19.3492 19.3482 17.2012 22.0002 17.2012C24.6522 17.2012 26.8002 19.3492 26.8002 22.0012Z" fill="white"/>
<path fill-rule="evenodd" clip-rule="evenodd" d="M22.0002 24.4012C22.6367 24.4012 23.2472 24.1483 23.6973 23.6982C24.1473 23.2481 24.4002 22.6377 24.4002 22.0012C24.4002 21.3647 24.1473 20.7542 23.6973 20.3041C23.2472 19.854 22.6367 19.6012 22.0002 19.6012C21.3637 19.6012 20.7532 19.854 20.3031 20.3041C19.8531 20.7542 19.6002 21.3647 19.6002 22.0012C19.6002 22.6377 19.8531 23.2481 20.3031 23.6982C20.7532 24.1483 21.3637 24.4012 22.0002 24.4012ZM22.0002 26.8012C24.6522 26.8012 26.8002 24.6532 26.8002 22.0012C26.8002 19.3492 24.6522 17.2012 22.0002 17.2012C19.3482 17.2012 17.2002 19.3492 17.2002 22.0012C17.2002 24.6532 19.3482 26.8012 22.0002 26.8012Z" fill="white"/>
<path d="M20.8001 8.59999C20.8001 7.06184 20.1891 5.58669 19.1014 4.49905C18.0138 3.41142 16.5386 2.80039 15.0005 2.80039H11.1977C9.62416 2.79786 8.11267 3.41381 6.98911 4.51543C5.86554 5.61705 5.21991 7.1161 5.19141 8.68937C5.16292 10.2626 5.75384 11.7841 6.83678 12.9257C7.91971 14.0673 9.4079 14.7375 10.9805 14.792L11.2001 14.8004V17.2004C11.2001 17.2004 20.8001 15.8 20.8001 8.59999ZM24.4001 6.68359C24.4001 5.01718 25.0621 3.41903 26.2404 2.2407C27.4187 1.06237 29.0169 0.400391 30.6833 0.400391H37.6001C39.1914 0.400391 40.7175 1.03253 41.8427 2.15775C42.9679 3.28297 43.6001 4.80909 43.6001 6.40039C43.6001 7.99169 42.9679 9.51781 41.8427 10.643C40.7175 11.7683 39.1914 12.4004 37.6001 12.4004H35.2001V16.0004C35.2001 16.0004 24.4001 14.4836 24.4001 6.68359ZM23.2001 37.0556C23.2001 33.4268 29.9957 31.6004 33.4001 31.6004C36.8045 31.6004 43.6001 33.428 43.6001 37.0544V43.6004H23.2001V37.0556Z" fill="white"/>
<path fill-rule="evenodd" clip-rule="evenodd" d="M26.0009 36.3808C25.6217 36.7552 25.6001 36.97 25.6001 37.0564V41.2012H41.2001V37.0552C41.2001 36.9712 41.1785 36.7552 40.7993 36.3808C40.3985 35.986 39.7373 35.5624 38.8313 35.1748C37.0073 34.3936 34.7801 34.0012 33.4001 34.0012C32.0201 34.0012 29.7917 34.3936 27.9689 35.1748C27.0629 35.5624 26.4017 35.986 26.0009 36.3808ZM33.4001 31.6012C29.9957 31.6012 23.2001 33.4288 23.2001 37.0552V43.6012H43.6001V37.0552C43.6001 33.43 36.8045 31.6012 33.4001 31.6012ZM22.0001 34.6552C22.0001 32.6428 19.7837 31.1836 17.1941 30.2836C18.6968 29.5731 20.3379 29.2035 22.0001 29.2012C23.6623 29.2035 25.3034 29.5731 26.8061 30.2836C24.2165 31.1836 22.0001 32.6428 22.0001 34.6552Z" fill="white"/>
<path fill-rule="evenodd" clip-rule="evenodd" d="M22.0001 34.6552C22.0001 33.5836 22.6289 32.668 23.6081 31.9108L23.7773 31.7848C24.6137 31.1776 25.6733 30.6772 26.8061 30.2848C25.6821 29.7549 24.479 29.4124 23.2445 29.2708C22.4175 29.178 21.5827 29.178 20.7557 29.2708C19.5212 29.412 18.3182 29.7541 17.1941 30.2836C18.3257 30.6772 19.3865 31.1776 20.2217 31.7836C20.2793 31.8252 20.3357 31.8676 20.3909 31.9108C21.3713 32.6668 22.0001 33.5836 22.0001 34.6552Z" fill="white"/>
</svg>
