<svg width="80" height="80" viewBox="0 0 80 80" fill="none" xmlns="http://www.w3.org/2000/svg">
<g clip-path="url(#clip0_1603_1865)">
<path d="M-112 9.14285C-112 4.09339 -107.907 0 -102.857 0H70.8571C75.9066 0 80 4.0934 80 9.14286V70.8571C80 75.9066 75.9066 80 70.8571 80H-102.857C-107.907 80 -112 75.9066 -112 70.8571V9.14285Z" fill="url(#paint0_linear_1603_1865)"/>
<path d="M33.4 42.3996C33.4 45.0516 31.252 47.1996 28.6 47.1996C25.948 47.1996 23.8 45.0516 23.8 42.3996C23.8 39.7476 25.948 37.5996 28.6 37.5996C31.252 37.5996 33.4 39.7476 33.4 42.3996Z" fill="white"/>
<path fill-rule="evenodd" clip-rule="evenodd" d="M28.6 44.7996C29.2366 44.7996 29.847 44.5468 30.2971 44.0967C30.7472 43.6466 31 43.0361 31 42.3996C31 41.7631 30.7472 41.1526 30.2971 40.7026C29.847 40.2525 29.2366 39.9996 28.6 39.9996C27.9635 39.9996 27.3531 40.2525 26.903 40.7026C26.4529 41.1526 26.2 41.7631 26.2 42.3996C26.2 43.0361 26.4529 43.6466 26.903 44.0967C27.3531 44.5468 27.9635 44.7996 28.6 44.7996ZM28.6 47.1996C31.252 47.1996 33.4 45.0516 33.4 42.3996C33.4 39.7476 31.252 37.5996 28.6 37.5996C25.948 37.5996 23.8 39.7476 23.8 42.3996C23.8 45.0516 25.948 47.1996 28.6 47.1996Z" fill="white"/>
<path d="M18.4001 55.0548C18.4001 51.426 25.1957 49.5996 28.6001 49.5996C32.0045 49.5996 38.8001 51.4272 38.8001 55.0536V61.5996H18.4001V55.0548Z" fill="white"/>
<path fill-rule="evenodd" clip-rule="evenodd" d="M21.2009 54.3792C20.8217 54.7536 20.8001 54.9684 20.8001 55.0548V59.1996H36.4001V55.0536C36.4001 54.9696 36.3785 54.7536 35.9993 54.3792C35.5985 53.9844 34.9373 53.5608 34.0313 53.1732C32.2073 52.392 29.9801 51.9996 28.6001 51.9996C27.2201 51.9996 24.9917 52.392 23.1689 53.1732C22.2629 53.5608 21.6017 53.9844 21.2009 54.3792ZM28.6001 49.5996C25.1957 49.5996 18.4001 51.4272 18.4001 55.0536V61.5996H38.8001V55.0536C38.8001 51.4284 32.0045 49.5996 28.6001 49.5996Z" fill="white"/>
<path d="M56.2001 42.3996C56.2001 45.0516 54.0521 47.1996 51.4001 47.1996C48.7481 47.1996 46.6001 45.0516 46.6001 42.3996C46.6001 39.7476 48.7481 37.5996 51.4001 37.5996C54.0521 37.5996 56.2001 39.7476 56.2001 42.3996Z" fill="white"/>
<path fill-rule="evenodd" clip-rule="evenodd" d="M51.4001 44.7996C52.0366 44.7996 52.6471 44.5468 53.0972 44.0967C53.5472 43.6466 53.8001 43.0361 53.8001 42.3996C53.8001 41.7631 53.5472 41.1526 53.0972 40.7026C52.6471 40.2525 52.0366 39.9996 51.4001 39.9996C50.7636 39.9996 50.1531 40.2525 49.703 40.7026C49.253 41.1526 49.0001 41.7631 49.0001 42.3996C49.0001 43.0361 49.253 43.6466 49.703 44.0967C50.1531 44.5468 50.7636 44.7996 51.4001 44.7996ZM51.4001 47.1996C54.0521 47.1996 56.2001 45.0516 56.2001 42.3996C56.2001 39.7476 54.0521 37.5996 51.4001 37.5996C48.7481 37.5996 46.6001 39.7476 46.6001 42.3996C46.6001 45.0516 48.7481 47.1996 51.4001 47.1996Z" fill="white"/>
<path d="M44.8002 40.0012C44.8002 42.6532 42.6522 44.8012 40.0002 44.8012C37.3482 44.8012 35.2002 42.6532 35.2002 40.0012C35.2002 37.3492 37.3482 35.2012 40.0002 35.2012C42.6522 35.2012 44.8002 37.3492 44.8002 40.0012Z" fill="white"/>
<path fill-rule="evenodd" clip-rule="evenodd" d="M40.0002 42.4012C40.6367 42.4012 41.2472 42.1483 41.6973 41.6982C42.1473 41.2481 42.4002 40.6377 42.4002 40.0012C42.4002 39.3647 42.1473 38.7542 41.6973 38.3041C41.2472 37.854 40.6367 37.6012 40.0002 37.6012C39.3637 37.6012 38.7532 37.854 38.3031 38.3041C37.8531 38.7542 37.6002 39.3647 37.6002 40.0012C37.6002 40.6377 37.8531 41.2481 38.3031 41.6982C38.7532 42.1483 39.3637 42.4012 40.0002 42.4012ZM40.0002 44.8012C42.6522 44.8012 44.8002 42.6532 44.8002 40.0012C44.8002 37.3492 42.6522 35.2012 40.0002 35.2012C37.3482 35.2012 35.2002 37.3492 35.2002 40.0012C35.2002 42.6532 37.3482 44.8012 40.0002 44.8012Z" fill="white"/>
<path d="M38.8001 26.6C38.8001 25.0618 38.1891 23.5867 37.1014 22.4991C36.0138 21.4114 34.5386 20.8004 33.0005 20.8004H29.1977C27.6242 20.7979 26.1127 21.4138 24.9891 22.5154C23.8655 23.6171 23.2199 25.1161 23.1914 26.6894C23.1629 28.2626 23.7538 29.7841 24.8368 30.9257C25.9197 32.0673 27.4079 32.7375 28.9805 32.792L29.2001 32.8004V35.2004C29.2001 35.2004 38.8001 33.8 38.8001 26.6ZM42.4001 24.6836C42.4001 23.0172 43.0621 21.419 44.2404 20.2407C45.4187 19.0624 47.0169 18.4004 48.6833 18.4004H55.6001C57.1914 18.4004 58.7175 19.0325 59.8427 20.1578C60.9679 21.283 61.6001 22.8091 61.6001 24.4004C61.6001 25.9917 60.9679 27.5178 59.8427 28.643C58.7175 29.7683 57.1914 30.4004 55.6001 30.4004H53.2001V34.0004C53.2001 34.0004 42.4001 32.4836 42.4001 24.6836ZM41.2001 55.0556C41.2001 51.4268 47.9957 49.6004 51.4001 49.6004C54.8045 49.6004 61.6001 51.428 61.6001 55.0544V61.6004H41.2001V55.0556Z" fill="white"/>
<path fill-rule="evenodd" clip-rule="evenodd" d="M44.0009 54.3808C43.6217 54.7552 43.6001 54.97 43.6001 55.0564V59.2012H59.2001V55.0552C59.2001 54.9712 59.1785 54.7552 58.7993 54.3808C58.3985 53.986 57.7373 53.5624 56.8313 53.1748C55.0073 52.3936 52.7801 52.0012 51.4001 52.0012C50.0201 52.0012 47.7917 52.3936 45.9689 53.1748C45.0629 53.5624 44.4017 53.986 44.0009 54.3808ZM51.4001 49.6012C47.9957 49.6012 41.2001 51.4288 41.2001 55.0552V61.6012H61.6001V55.0552C61.6001 51.43 54.8045 49.6012 51.4001 49.6012ZM40.0001 52.6552C40.0001 50.6428 37.7837 49.1836 35.1941 48.2836C36.6968 47.5731 38.3379 47.2035 40.0001 47.2012C41.6623 47.2035 43.3034 47.5731 44.8061 48.2836C42.2165 49.1836 40.0001 50.6428 40.0001 52.6552Z" fill="white"/>
<path fill-rule="evenodd" clip-rule="evenodd" d="M40.0001 52.6552C40.0001 51.5836 40.6289 50.668 41.6081 49.9108L41.7773 49.7848C42.6137 49.1776 43.6733 48.6772 44.8061 48.2848C43.6821 47.7549 42.479 47.4124 41.2445 47.2708C40.4175 47.178 39.5827 47.178 38.7557 47.2708C37.5212 47.412 36.3182 47.7541 35.1941 48.2836C36.3257 48.6772 37.3865 49.1776 38.2217 49.7836C38.2793 49.8252 38.3357 49.8676 38.3909 49.9108C39.3713 50.6668 40.0001 51.5836 40.0001 52.6552Z" fill="white"/>
</g>
<defs>
<linearGradient id="paint0_linear_1603_1865" x1="-112" y1="40" x2="80" y2="40" gradientUnits="userSpaceOnUse">
<stop stop-color="#435ECF"/>
<stop offset="0.355" stop-color="#E24BB3"/>
<stop offset="1" stop-color="#FF9433"/>
</linearGradient>
<clipPath id="clip0_1603_1865">
<rect width="80" height="80" rx="40" fill="white"/>
</clipPath>
</defs>
</svg>
