<svg width="70" height="70" viewBox="0 0 70 70" fill="none" xmlns="http://www.w3.org/2000/svg">
<g id="mingcute:right-fill" clip-path="url(#clip0_632_322)">
<g id="Group">
<path id="Vector" fill-rule="evenodd" clip-rule="evenodd" d="M23.1584 38.0921C22.3391 37.2718 21.8789 36.1598 21.8789 35.0004C21.8789 33.841 22.3391 32.7291 23.1584 31.9088L39.655 15.4063C40.4758 14.5859 41.5888 14.1252 42.7492 14.1255C43.9096 14.1257 45.0224 14.587 45.8427 15.4077C46.6631 16.2284 47.1238 17.3414 47.1235 18.5019C47.1233 19.6623 46.662 20.7751 45.8413 21.5954L32.4363 35.0004L45.8413 48.4054C46.6386 49.2302 47.0801 50.3351 47.0707 51.4822C47.0613 52.6293 46.6017 53.7269 45.7909 54.5384C44.9801 55.35 43.883 55.8106 42.7359 55.8211C41.5888 55.8316 40.4835 55.3911 39.658 54.5946L23.1555 38.095L23.1584 38.0921Z" fill="#58206B"/>
</g>
</g>
<defs>
<clipPath id="clip0_632_322">
<rect width="70" height="70" fill="white" transform="matrix(-1 0 0 -1 70 70)"/>
</clipPath>
</defs>
</svg>
