<svg width="19" height="18" viewBox="0 0 19 18" fill="none" xmlns="http://www.w3.org/2000/svg">
<path d="M10.226 0C11.2385 0.00269994 11.7524 0.00809981 12.1961 0.0206995L12.3707 0.0269993C12.5723 0.0341992 12.7712 0.0431989 13.0115 0.0539987C13.969 0.0989976 14.6224 0.250194 15.1957 0.472489C15.7897 0.701084 16.2901 1.01068 16.7905 1.51016C17.2481 1.96006 17.6022 2.50427 17.8281 3.10493C18.0504 3.67821 18.2016 4.3316 18.2466 5.29008C18.2574 5.52947 18.2664 5.72837 18.2736 5.93086L18.279 6.10546C18.2925 6.54825 18.2979 7.06214 18.2997 8.07461L18.3006 8.746V9.92497C18.3028 10.5814 18.2959 11.2379 18.2799 11.8941L18.2745 12.0687C18.2673 12.2712 18.2583 12.4701 18.2475 12.7095C18.2025 13.668 18.0495 14.3205 17.8281 14.8947C17.6029 15.4956 17.2487 16.04 16.7905 16.4894C16.3404 16.9469 15.7963 17.301 15.1957 17.5271C14.6224 17.7494 13.969 17.9006 13.0115 17.9456C12.7979 17.9556 12.5843 17.9646 12.3707 17.9726L12.1961 17.978C11.7524 17.9906 11.2385 17.9969 10.226 17.9987L9.55464 17.9996H8.37657C7.71982 18.0018 7.06307 17.9949 6.40651 17.9789L6.23192 17.9735C6.01827 17.9654 5.80467 17.9561 5.59113 17.9456C4.63355 17.9006 3.98017 17.7494 3.40598 17.5271C2.8054 17.3015 2.26141 16.9474 1.81212 16.4894C1.35407 16.0397 0.999642 15.4954 0.773545 14.8947C0.551251 14.3214 0.400054 13.668 0.355055 12.7095C0.345028 12.496 0.336028 12.2824 0.328056 12.0687L0.323556 11.8941C0.306971 11.2379 0.299471 10.5814 0.301056 9.92497V8.07461C0.298545 7.41817 0.305145 6.76172 0.320856 6.10546L0.327156 5.93086C0.334356 5.72837 0.343355 5.52947 0.354155 5.29008C0.399154 4.3316 0.550351 3.67911 0.772645 3.10493C0.998643 2.50366 1.35378 1.95928 1.81302 1.51016C2.26219 1.0525 2.80583 0.698372 3.40598 0.472489C3.98017 0.250194 4.63266 0.0989976 5.59113 0.0539987C5.83053 0.0431989 6.03032 0.0341992 6.23192 0.0269993L6.40651 0.0215994C7.06277 0.00560931 7.71922 -0.0012912 8.37567 0.000899914L10.226 0ZM9.30085 4.4999C8.1074 4.4999 6.96283 4.97399 6.11894 5.81788C5.27505 6.66178 4.80095 7.80634 4.80095 8.99979C4.80095 10.1932 5.27505 11.3378 6.11894 12.1817C6.96283 13.0256 8.1074 13.4997 9.30085 13.4997C10.4943 13.4997 11.6389 13.0256 12.4828 12.1817C13.3266 11.3378 13.8007 10.1932 13.8007 8.99979C13.8007 7.80634 13.3266 6.66178 12.4828 5.81788C11.6389 4.97399 10.4943 4.4999 9.30085 4.4999ZM9.30085 6.29985C9.65541 6.29979 10.0065 6.36957 10.3341 6.5052C10.6617 6.64083 10.9594 6.83966 11.2101 7.09033C11.4609 7.341 11.6598 7.6386 11.7955 7.96615C11.9313 8.2937 12.0012 8.64478 12.0012 8.99934C12.0013 9.3539 11.9315 9.705 11.7959 10.0326C11.6603 10.3602 11.4614 10.6579 11.2108 10.9086C10.9601 11.1594 10.6625 11.3583 10.3349 11.494C10.0074 11.6298 9.65631 11.6997 9.30175 11.6997C8.58568 11.6997 7.89894 11.4153 7.3926 10.9089C6.88627 10.4026 6.60181 9.71586 6.60181 8.99979C6.60181 8.28372 6.88627 7.59698 7.3926 7.09065C7.89894 6.58431 8.58568 6.29985 9.30175 6.29985M14.0266 3.14993C13.7283 3.14993 13.4421 3.26845 13.2312 3.47942C13.0202 3.6904 12.9017 3.97654 12.9017 4.2749C12.9017 4.57326 13.0202 4.8594 13.2312 5.07038C13.4421 5.28135 13.7283 5.39987 14.0266 5.39987C14.325 5.39987 14.6111 5.28135 14.8221 5.07038C15.0331 4.8594 15.1516 4.57326 15.1516 4.2749C15.1516 3.97654 15.0331 3.6904 14.8221 3.47942C14.6111 3.26845 14.325 3.14993 14.0266 3.14993Z" fill="#713E79"/>
</svg>
