<svg width="547" height="564" viewBox="0 0 547 564" fill="none" xmlns="http://www.w3.org/2000/svg">
<g style="mix-blend-mode:hard-light" opacity="0.5">
<path fill-rule="evenodd" clip-rule="evenodd" d="M6.10352e-05 6.1138H152.649L199.419 52.8844H126.181C124.816 47.4396 119.89 43.4072 114.023 43.4072C107.101 43.4072 101.489 49.0186 101.489 55.9405C101.489 62.8625 107.101 68.4738 114.023 68.4738C119.89 68.4738 124.815 64.4422 126.18 58.9982H206.799H282.567L250.928 90.6371H151.283C149.974 85.1152 145.011 81.0072 139.088 81.0072C132.166 81.0072 126.555 86.6186 126.555 93.5405C126.555 100.462 132.166 106.074 139.088 106.074C144.9 106.074 149.788 102.117 151.206 96.7509H252.195H253.461L254.356 95.8556L291.213 58.9982H330.102L396.284 125.18H302.363C301.167 119.505 296.131 115.245 290.1 115.245C283.178 115.245 277.567 120.857 277.567 127.779C277.567 134.701 283.178 140.312 290.1 140.312C295.801 140.312 300.614 136.505 302.133 131.294H403.664H500.372L435.177 196.489C433.197 195.18 430.824 194.418 428.274 194.418C421.352 194.418 415.74 200.03 415.74 206.952C415.74 213.874 421.352 219.485 428.274 219.485C435.196 219.485 440.807 213.874 440.807 206.952C440.807 204.799 440.264 202.773 439.308 201.003L509.018 131.294H580.659V125.18H507.752H404.93L333.53 53.7798L332.635 52.8844H331.368H289.947H208.066L156.077 0.895346L155.181 0H153.915H6.10352e-05V6.1138ZM1.5285 557.886H154.177L200.948 511.115H128.357C126.695 516.089 122 519.674 116.467 519.674C109.545 519.674 103.934 514.063 103.934 507.141C103.934 500.219 109.545 494.607 116.467 494.607C122.659 494.607 127.803 499.098 128.818 505.001H208.328H284.096L252.457 473.362H153.836C152.617 479.032 147.565 483.273 141.534 483.25C134.613 483.223 129.023 477.591 129.049 470.669C129.075 463.747 134.708 458.157 141.63 458.183C147.332 458.205 152.13 462.031 153.629 467.248H253.723H254.989L255.884 468.144L292.742 505.001H331.63L397.812 438.819H304.97C303.551 444.185 298.663 448.141 292.851 448.141C285.93 448.141 280.318 442.53 280.318 435.608C280.318 428.686 285.93 423.075 292.851 423.075C298.774 423.075 303.737 427.183 305.047 432.705H405.192H501.9L434.211 365.017L438.534 360.694L510.546 432.705H581.881V438.819H509.28H406.459L335.058 510.22L334.163 511.115H332.897H291.476H209.594L157.605 563.104L156.71 563.999H155.444H1.5285V557.886ZM434.693 206.952C434.693 203.406 431.819 200.532 428.274 200.532C424.728 200.532 421.854 203.406 421.854 206.952C421.854 210.497 424.728 213.371 428.274 213.371C431.819 213.371 434.693 210.497 434.693 206.952ZM139.088 87.121C142.633 87.121 145.508 89.9952 145.508 93.5405C145.508 97.0859 142.633 99.96 139.088 99.96C135.543 99.96 132.669 97.0859 132.669 93.5405C132.669 89.9952 135.543 87.121 139.088 87.121ZM120.442 55.9405C120.442 52.3951 117.568 49.521 114.023 49.521C110.477 49.521 107.603 52.3951 107.603 55.9405C107.603 59.4859 110.477 62.36 114.023 62.36C117.568 62.36 120.442 59.4859 120.442 55.9405ZM385.039 193.939L468.361 277.262H569.96V283.375H468.361L394.21 357.527L393.314 358.422H392.048H321.63L261.846 418.207L260.951 419.102H259.684H162.252C160.888 424.546 155.962 428.578 150.094 428.578C143.173 428.578 137.561 422.967 137.561 416.045C137.561 409.123 143.173 403.512 150.094 403.512C155.962 403.512 160.888 407.544 162.252 412.988H258.418L312.984 358.422H149.636V352.309H320.364H390.782L459.715 283.375H125.486V277.262H459.715L381.611 199.158H351.621H321.63L280.493 240.295L279.598 241.19H278.331H204.88C203.742 246.941 198.67 251.278 192.585 251.278C185.663 251.278 180.052 245.666 180.052 238.744C180.052 231.822 185.663 226.211 192.585 226.211C198.231 226.211 203.005 229.944 204.573 235.076H277.065L312.984 199.158H291.923C290.054 203.73 285.562 206.952 280.317 206.952C273.395 206.952 267.783 201.341 267.783 194.419C267.783 187.497 273.395 181.885 280.317 181.885C286.774 181.885 292.091 186.769 292.775 193.044H320.364H344.241L309.316 158.119H152.451C151.06 163.524 146.153 167.518 140.313 167.518C133.391 167.518 127.78 161.906 127.78 154.984C127.78 148.062 133.391 142.451 140.313 142.451C146.209 142.451 151.153 146.521 152.49 152.005H310.582H311.848L312.743 152.9L352.887 193.044H382.878H384.144L385.039 193.939ZM156.514 416.045C156.514 412.499 153.64 409.625 150.094 409.625C146.549 409.625 143.675 412.499 143.675 416.045C143.675 419.59 146.549 422.464 150.094 422.464C153.64 422.464 156.514 419.59 156.514 416.045ZM141.606 464.297C145.152 464.311 148.015 467.196 148.001 470.741C147.988 474.286 145.103 477.149 141.558 477.136C138.012 477.122 135.149 474.237 135.163 470.692C135.176 467.147 138.061 464.284 141.606 464.297ZM122.886 507.141C122.886 503.595 120.012 500.721 116.467 500.721C112.921 500.721 110.047 503.595 110.047 507.141C110.047 510.686 112.921 513.56 116.467 513.56C120.012 513.56 122.886 510.686 122.886 507.141ZM292.851 429.189C296.397 429.189 299.271 432.063 299.271 435.608C299.271 439.154 296.397 442.028 292.851 442.028C289.306 442.028 286.432 439.154 286.432 435.608C286.432 432.063 289.306 429.189 292.851 429.189ZM199.005 238.744C199.005 235.199 196.131 232.325 192.585 232.325C189.04 232.325 186.166 235.199 186.166 238.744C186.166 242.29 189.04 245.164 192.585 245.164C196.131 245.164 199.005 242.29 199.005 238.744ZM280.317 187.999C283.862 187.999 286.736 190.873 286.736 194.419C286.736 197.964 283.862 200.838 280.317 200.838C276.771 200.838 273.897 197.964 273.897 194.419C273.897 190.873 276.771 187.999 280.317 187.999ZM296.519 127.779C296.519 124.233 293.645 121.359 290.1 121.359C286.555 121.359 283.68 124.233 283.68 127.779C283.68 131.324 286.555 134.198 290.1 134.198C293.645 134.198 296.519 131.324 296.519 127.779ZM140.313 148.565C143.859 148.565 146.733 151.439 146.733 154.984C146.733 158.53 143.859 161.404 140.313 161.404C136.768 161.404 133.894 158.53 133.894 154.984C133.894 151.439 136.768 148.565 140.313 148.565Z" fill="url(#paint0_linear_1146_1353)"/>
</g>
<defs>
<linearGradient id="paint0_linear_1146_1353" x1="582" y1="282" x2="-177.5" y2="274.5" gradientUnits="userSpaceOnUse">
<stop stop-color="#3A0D49"/>
<stop offset="0.478533" stop-color="#FF9433"/>
<stop offset="1" stop-color="#AA93E9" stop-opacity="0"/>
</linearGradient>
</defs>
</svg>
