<svg width="13" height="17" viewBox="0 0 13 17" fill="none" xmlns="http://www.w3.org/2000/svg">
<path d="M4.11598 6.23659C4.12382 5.6364 4.36574 5.063 4.79017 4.63857C5.21461 4.21413 5.78801 3.97222 6.3882 3.96437C6.98839 3.97222 7.56179 4.21413 7.98622 4.63857C8.41066 5.063 8.65257 5.6364 8.66042 6.23659C8.65257 6.83678 8.41066 7.41018 7.98622 7.83462C7.56179 8.25905 6.98839 8.50097 6.3882 8.50881C5.78801 8.50097 5.21461 8.25905 4.79017 7.83462C4.36574 7.41018 4.12382 6.83678 4.11598 6.23659ZM6.3882 13.0532L9.41782 13.8107V11.4778C8.50415 12.0281 7.45464 12.3114 6.3882 12.2958C5.32175 12.3114 4.27225 12.0281 3.35857 11.4778V13.8107M6.3882 1.69215C5.79134 1.68126 5.19855 1.79256 4.64629 2.01919C4.09402 2.24583 3.59395 2.58302 3.17679 3.01004C2.74516 3.42765 2.40407 3.92961 2.17474 4.48469C1.94541 5.03977 1.83275 5.6361 1.84376 6.23659C1.83587 6.83328 1.95005 7.42528 2.17928 7.97623C2.40852 8.52717 2.74797 9.02544 3.17679 9.44042C3.592 9.87155 4.09121 10.213 4.64356 10.4435C5.19592 10.6741 5.7897 10.789 6.3882 10.781C6.9867 10.789 7.58047 10.6741 8.13283 10.4435C8.68519 10.213 9.18439 9.87155 9.5996 9.44042C10.0284 9.02544 10.3679 8.52717 10.5971 7.97623C10.8263 7.42528 10.9405 6.83328 10.9326 6.23659C10.9436 5.6361 10.831 5.03977 10.6017 4.48469C10.3723 3.92961 10.0312 3.42765 9.5996 3.01004C9.18245 2.58302 8.68237 2.24583 8.1301 2.01919C7.57784 1.79256 6.98506 1.68126 6.3882 1.69215ZM12.4474 6.23659C12.432 6.96369 12.2857 7.68205 12.0157 8.35733C11.7737 9.04491 11.4065 9.68176 10.9326 10.2357V16.0829L6.3882 14.5681L1.84376 16.0829V10.2357C0.863439 9.13477 0.324023 7.71071 0.328945 6.23659C0.315596 5.44176 0.465306 4.65262 0.768834 3.9179C1.07236 3.18319 1.52326 2.51848 2.0937 1.96482C2.64941 1.38926 3.31719 0.933711 4.05581 0.626278C4.79443 0.318844 5.58823 0.166055 6.3882 0.17734C7.18817 0.166055 7.98196 0.318844 8.72058 0.626278C9.45921 0.933711 10.127 1.38926 10.6827 1.96482C11.2531 2.51848 11.704 3.18319 12.0076 3.9179C12.3111 4.65262 12.4608 5.44176 12.4474 6.23659Z" fill="#713E79"/>
</svg>
