<svg width="15" height="15" viewBox="0 0 15 15" fill="none" xmlns="http://www.w3.org/2000/svg">
<path d="M7.48078 8.22168C6.84679 8.22168 6.23877 8.46753 5.79048 8.90514C5.34218 9.34275 5.09033 9.93627 5.09033 10.5551C5.09033 11.174 5.34218 11.7675 5.79048 12.2052C6.23877 12.6428 6.84679 12.8886 7.48078 12.8886C8.11476 12.8886 8.72278 12.6428 9.17108 12.2052C9.61938 11.7675 9.87123 11.174 9.87123 10.5551C9.87123 9.93627 9.61938 9.34275 9.17108 8.90514C8.72278 8.46753 8.11476 8.22168 7.48078 8.22168ZM6.4563 10.5551C6.4563 10.2899 6.56424 10.0355 6.75636 9.848C6.94849 9.66045 7.20907 9.55509 7.48078 9.55509C7.75249 9.55509 8.01307 9.66045 8.20519 9.848C8.39732 10.0355 8.50526 10.2899 8.50526 10.5551C8.50526 10.8204 8.39732 11.0747 8.20519 11.2623C8.01307 11.4498 7.75249 11.5552 7.48078 11.5552C7.20907 11.5552 6.94849 11.4498 6.75636 11.2623C6.56424 11.0747 6.4563 10.8204 6.4563 10.5551Z" fill="#713E79"/>
<path d="M11.5969 3.19318L9.42567 0.22168L1.44226 6.44737L0.999689 6.4427V6.44937H0.651367V14.4498H14.994V6.44937H14.337L13.0298 2.71649L11.5969 3.19318ZM12.8939 6.44937H6.0449L11.1461 4.75194L12.1856 4.42725L12.8939 6.44937ZM10.2473 3.64254L4.98149 5.39464L9.1518 2.14246L10.2473 3.64254ZM2.01734 11.8957V9.00218C2.30548 8.9025 2.56721 8.74131 2.78344 8.53036C2.99966 8.3194 3.16493 8.064 3.2672 7.78277H12.3782C12.4804 8.0641 12.6457 8.31961 12.8619 8.53068C13.0781 8.74175 13.3399 8.90306 13.6281 9.00284V11.8963C13.3399 11.9961 13.0781 12.1574 12.8619 12.3685C12.6457 12.5796 12.4804 12.8351 12.3782 13.1164H3.26856C3.16624 12.8348 3.00081 12.5791 2.78434 12.3679C2.56787 12.1568 2.30583 11.9954 2.01734 11.8957Z" fill="#713E79"/>
</svg>
