<svg width="17" height="18" viewBox="0 0 17 18" fill="none" xmlns="http://www.w3.org/2000/svg">
<path d="M13.0605 2.82C12.377 2.03962 12.0003 1.03743 12.0005 0H8.91054V12.4C8.88671 13.071 8.60342 13.7066 8.12031 14.1729C7.6372 14.6393 6.99199 14.8999 6.32054 14.9C4.90054 14.9 3.72054 13.74 3.72054 12.3C3.72054 10.58 5.38054 9.29 7.09054 9.82V6.66C3.64054 6.2 0.620544 8.88 0.620544 12.3C0.620544 15.63 3.38054 18 6.31054 18C9.45055 18 12.0005 15.45 12.0005 12.3V6.01C13.2535 6.90985 14.7579 7.39265 16.3005 7.39V4.3C16.3005 4.3 14.4205 4.39 13.0605 2.82Z" fill="#E8E1FB"/>
</svg>
