<svg width="29" height="28" viewBox="0 0 29 28" fill="none" xmlns="http://www.w3.org/2000/svg">
<path d="M21.7622 0.799805H6.77838C4.98064 0.799805 3.25653 1.51395 1.98534 2.78515C0.714149 4.05634 0 5.78044 0 7.57818V20.4214C0 21.3116 0.175328 22.193 0.515973 23.0154C0.856619 23.8378 1.35591 24.585 1.98534 25.2145C3.25653 26.4857 4.98064 27.1998 6.77838 27.1998H21.7622C23.5587 27.196 25.2807 26.4807 26.551 25.2103C27.8214 23.9399 28.5368 22.218 28.5405 20.4214V7.57818C28.5368 5.7816 27.8214 4.05969 26.551 2.78931C25.2807 1.51893 23.5587 0.803575 21.7622 0.799805ZM16.5535 12.6727C15.8514 13.0731 15.0571 13.2836 14.2489 13.2836C13.4406 13.2836 12.6463 13.0731 11.9442 12.6727L2.16908 7.06445C2.29548 5.9304 2.83551 4.88274 3.68589 4.12187C4.53627 3.36101 5.6373 2.94035 6.77838 2.94035H21.7622C22.9024 2.94347 24.0017 3.36522 24.8514 4.12549C25.7011 4.88577 26.2421 5.93162 26.3715 7.06445L16.5535 12.6727Z" fill="#F9E3FD"/>
</svg>
