<svg width="19" height="16" viewBox="0 0 19 16" fill="none" xmlns="http://www.w3.org/2000/svg">
<path fill-rule="evenodd" clip-rule="evenodd" d="M0.270563 11.5266V11.522C0.270563 9.48115 1.43328 7.71166 3.12125 6.82671C2.3134 6.13359 1.79456 5.10616 1.78419 3.96089L1.78407 3.94719L1.78419 3.94719C1.80305 1.86362 3.50487 0.170043 5.56816 0.170043C7.18367 0.170043 8.56095 1.12498 9.1378 2.44652C9.20899 2.44248 9.28046 2.44044 9.35215 2.44044C9.42384 2.44044 9.49531 2.44248 9.5665 2.44652C10.1434 1.12498 11.5206 0.170043 13.1361 0.170043C15.1994 0.170043 16.9013 1.86362 16.9201 3.94719L16.9202 3.96089L16.9201 3.96089C16.9097 5.10616 16.3909 6.13359 15.5831 6.82671C17.271 7.71167 18.4337 9.48115 18.4337 11.522V11.5249C18.0255 12.0684 17.5696 12.574 17.0722 13.0356H16.9201V11.522C16.9201 9.4341 15.2087 7.73804 13.1361 7.73804H12.8202C12.6328 8.16745 12.3656 8.56242 12.0278 8.90013C11.9581 8.96988 11.8859 9.03662 11.8115 9.10028C12.2815 9.34661 12.716 9.66434 13.0981 10.0465C14.0916 11.04 14.6497 12.3874 14.6497 13.7924V14.7557C14.1649 15.0121 13.6594 15.2343 13.1361 15.4192V13.7924C13.1361 12.7889 12.7375 11.8264 12.0278 11.1167C11.3182 10.4071 10.3557 10.0084 9.35215 10.0084C8.34857 10.0084 7.3861 10.4071 6.67646 11.1167C5.96683 11.8264 5.56816 12.7889 5.56816 13.7924V15.4197C5.04496 15.2348 4.53936 15.0127 4.05456 14.7565V13.7924C4.05456 12.3874 4.6127 11.04 5.60619 10.0465C5.98832 9.66434 6.42283 9.34661 6.89283 9.10028C6.8184 9.03662 6.74621 8.96988 6.67646 8.90013C6.33875 8.56242 6.07147 8.16745 5.88406 7.73804H5.56816C3.49564 7.73804 1.78416 9.4341 1.78416 11.522V13.0356H1.63075C1.13393 12.5745 0.67848 12.0695 0.270563 11.5266ZM6.67646 3.54875C5.96683 4.25839 5.56816 5.22086 5.56816 6.22444C4.34612 6.22444 3.31289 5.21235 3.2978 3.95404C3.31289 2.69574 4.34612 1.68364 5.56816 1.68364C6.4975 1.68364 7.26308 2.1826 7.64633 2.84675C7.29108 3.02614 6.96314 3.26207 6.67646 3.54875ZM15.4065 3.95404C15.3914 5.21235 14.3582 6.22444 13.1361 6.22444C13.1361 5.22086 12.7375 4.25839 12.0278 3.54875C11.7412 3.26207 11.4132 3.02614 11.058 2.84675C11.4412 2.1826 12.2068 1.68364 13.1361 1.68364C14.3582 1.68364 15.3914 2.69574 15.4065 3.95404ZM7.74674 4.61903C8.17252 4.19324 8.75001 3.95404 9.35215 3.95404C9.9543 3.95404 10.5318 4.19324 10.9576 4.61903C11.3833 5.04481 11.6225 5.62229 11.6225 6.22444C11.6225 6.82659 11.3833 7.40407 10.9576 7.82986C10.5318 8.25564 9.9543 8.49484 9.35215 8.49484C8.75001 8.49484 8.17252 8.25564 7.74674 7.82986C7.32096 7.40407 7.08176 6.82659 7.08176 6.22444C7.08176 5.62229 7.32096 5.04481 7.74674 4.61903Z" fill="#713E79"/>
</svg>
