<svg width="28" height="28" viewBox="0 0 28 28" fill="none" xmlns="http://www.w3.org/2000/svg">
<path fill-rule="evenodd" clip-rule="evenodd" d="M14.0693 0.799805C21.4913 0.799805 27.9579 5.85942 27.9579 12.6051C27.9579 16.0175 26.1023 18.9661 23.5149 21.341C20.9219 23.7229 17.4609 25.6604 13.8901 27.0895C13.5317 27.2339 13.1319 27.2366 12.7716 27.0971C12.4113 26.9576 12.1175 26.6862 11.9499 26.3382C11.8054 26.034 11.7693 25.709 11.7596 25.3798L11.754 24.6368C11.7511 24.5552 11.7455 24.4736 11.7374 24.3924C11.6901 23.9076 11.5624 23.6007 11.0527 23.5104C5.10834 22.4743 0.180664 18.4939 0.180664 12.6051C0.180664 5.85942 6.64719 0.799805 14.0693 0.799805ZM16.847 9.13296C16.4786 9.13296 16.1254 9.27929 15.8649 9.53975C15.6044 9.80021 15.4581 10.1535 15.4581 10.5218V10.8524L14.4415 9.63295C14.2587 9.41382 14.0129 9.25629 13.7375 9.18178C13.4621 9.10727 13.1704 9.1194 12.9021 9.21652C12.6338 9.31363 12.4019 9.49103 12.238 9.72458C12.0741 9.95813 11.9861 10.2365 11.986 10.5218V14.6884C11.986 15.0567 12.1323 15.41 12.3928 15.6705C12.6532 15.9309 13.0065 16.0773 13.3748 16.0773C13.7432 16.0773 14.0964 15.9309 14.3569 15.6705C14.6174 15.41 14.7637 15.0567 14.7637 14.6884V14.3579L15.7803 15.5773C15.9631 15.7964 16.2089 15.9539 16.4843 16.0284C16.7597 16.103 17.0514 16.0908 17.3197 15.9937C17.588 15.8966 17.8199 15.7192 17.9838 15.4856C18.1477 15.2521 18.2357 14.9737 18.2358 14.6884V10.5218C18.2358 10.1535 18.0895 9.80021 17.8291 9.53975C17.5686 9.27929 17.2153 9.13296 16.847 9.13296ZM5.7361 9.13296C5.36775 9.13296 5.01449 9.27929 4.75403 9.53975C4.49357 9.80021 4.34724 10.1535 4.34724 10.5218V14.6884C4.34724 15.0567 4.49357 15.41 4.75403 15.6705C5.01449 15.9309 5.36775 16.0773 5.7361 16.0773H7.12496C7.49331 16.0773 7.84657 15.9309 8.10703 15.6705C8.36749 15.41 8.51382 15.0567 8.51382 14.6884C8.51382 14.3201 8.36749 13.9668 8.10703 13.7063C7.84657 13.4459 7.49331 13.2995 7.12496 13.2995V10.5218C7.12496 10.1535 6.97864 9.80021 6.71817 9.53975C6.45771 9.27929 6.10445 9.13296 5.7361 9.13296ZM9.90268 9.13296C9.5625 9.13301 9.23417 9.2579 8.97996 9.48395C8.72575 9.71 8.56334 10.0215 8.52354 10.3593L8.51382 10.5218V14.6884C8.51421 15.0424 8.64976 15.3829 8.89277 15.6403C9.13578 15.8977 9.4679 16.0526 9.82129 16.0733C10.1747 16.0941 10.5226 15.9791 10.7941 15.7519C11.0656 15.5247 11.24 15.2024 11.2818 14.8509L11.2915 14.6884V10.5218C11.2915 10.1535 11.1452 9.80021 10.8848 9.53975C10.6243 9.27929 10.271 9.13296 9.90268 9.13296ZM22.4024 9.13296H20.3191C19.9789 9.13301 19.6506 9.2579 19.3964 9.48395C19.1422 9.71 18.9798 10.0215 18.94 10.3593L18.9303 10.5218V14.6884C18.9303 15.0286 19.0552 15.3569 19.2813 15.6111C19.5073 15.8653 19.8188 16.0277 20.1566 16.0675L20.3191 16.0773H22.4024C22.7564 16.0769 23.0969 15.9413 23.3543 15.6983C23.6117 15.4553 23.7666 15.1232 23.7873 14.7698C23.8081 14.4164 23.6931 14.0684 23.4659 13.797C23.2387 13.5255 22.9164 13.3511 22.5649 13.3093L22.4024 13.2995H22.2163C22.3236 13.1147 22.3867 12.9076 22.4004 12.6943C22.4141 12.481 22.3782 12.2674 22.2955 12.0704L22.2163 11.9107H22.4024C22.7564 11.9103 23.0969 11.7747 23.3543 11.5317C23.6117 11.2887 23.7666 10.9566 23.7873 10.6032C23.8081 10.2498 23.6931 9.90186 23.4659 9.63041C23.2387 9.35895 22.9164 9.18449 22.5649 9.14268L22.4024 9.13296Z" fill="#F9E3FD"/>
</svg>
