<svg width="18" height="19" viewBox="0 0 18 19" fill="none" xmlns="http://www.w3.org/2000/svg">
<path d="M4.85849 8.72847L8.83247 2.22559L12.8065 8.72847H4.85849ZM12.8065 16.6764C11.9033 16.6764 11.1357 16.3604 10.5037 15.7285C9.87173 15.0965 9.55549 14.3286 9.55501 13.425C9.55453 12.5213 9.87076 11.7537 10.5037 11.1222C11.1367 10.4907 11.9042 10.1745 12.8065 10.1736C13.7087 10.1726 14.4765 10.4888 15.1099 11.1222C15.7433 11.7557 16.0593 12.5233 16.0579 13.425C16.0564 14.3267 15.7405 15.0945 15.1099 15.7285C14.4794 16.3624 13.7116 16.6784 12.8065 16.6764ZM2.32959 16.3152V10.5348H8.10993V16.3152H2.32959ZM12.8065 15.2313C13.3122 15.2313 13.7397 15.0567 14.089 14.7075C14.4382 14.3583 14.6128 13.9308 14.6128 13.425C14.6128 12.9192 14.4382 12.4917 14.089 12.1425C13.7397 11.7932 13.3122 11.6186 12.8065 11.6186C12.3007 11.6186 11.8732 11.7932 11.5239 12.1425C11.1747 12.4917 11.0001 12.9192 11.0001 13.425C11.0001 13.9308 11.1747 14.3583 11.5239 14.7075C11.8732 15.0567 12.3007 15.2313 12.8065 15.2313ZM3.77467 14.8701H6.66484V11.9799H3.77467V14.8701ZM7.42351 7.28338H10.2414L8.83247 5.00737L7.42351 7.28338Z" fill="#713E79"/>
</svg>
