<svg width="28" height="16" viewBox="0 0 28 16" fill="none" xmlns="http://www.w3.org/2000/svg">
<path d="M3.20005 15.1998C2.54005 15.1998 1.97525 14.965 1.50565 14.4954C1.03605 14.0258 0.800851 13.4606 0.800051 12.7998C0.799251 12.139 1.03445 11.5742 1.50565 11.1054C1.97685 10.6366 2.54165 10.4014 3.20005 10.3998H3.51565C3.60525 10.3998 3.70005 10.4198 3.80005 10.4598L9.26005 4.99981C9.22005 4.89981 9.20005 4.80461 9.20005 4.71421V4.39981C9.20005 3.73981 9.43525 3.17501 9.90565 2.70541C10.3761 2.23581 10.9409 2.00061 11.6001 1.99981C12.2593 1.99901 12.8245 2.23421 13.2957 2.70541C13.7669 3.17661 14.0017 3.74141 14.0001 4.39981C14.0001 4.43981 13.9801 4.63981 13.9401 4.99981L17.0001 8.05981C17.1001 8.01981 17.1953 7.99981 17.2857 7.99981H17.9157C18.0053 7.99981 18.1001 8.01981 18.2001 8.05981L22.4601 3.79981C22.4201 3.69981 22.4001 3.60461 22.4001 3.51421V3.19981C22.4001 2.53981 22.6353 1.97501 23.1057 1.50541C23.5761 1.03581 24.1409 0.800607 24.8001 0.799807C25.4593 0.799007 26.0245 1.03421 26.4957 1.50541C26.9669 1.97661 27.2017 2.54141 27.2001 3.19981C27.1985 3.85821 26.9637 4.42341 26.4957 4.89541C26.0277 5.36741 25.4625 5.60221 24.8001 5.59981H24.4857C24.3953 5.59981 24.3001 5.57981 24.2001 5.53981L19.9401 9.79981C19.9801 9.89981 20.0001 9.99501 20.0001 10.0854V10.3998C20.0001 11.0598 19.7653 11.625 19.2957 12.0954C18.8261 12.5658 18.2609 12.8006 17.6001 12.7998C16.9393 12.799 16.3745 12.5642 15.9057 12.0954C15.4369 11.6266 15.2017 11.0614 15.2001 10.3998V10.0854C15.2001 9.99501 15.2201 9.89981 15.2601 9.79981L12.2001 6.73981C12.1001 6.77981 12.0049 6.79981 11.9145 6.79981H11.6001C11.5601 6.79981 11.3601 6.77981 11.0001 6.73981L5.54005 12.1998C5.58005 12.2998 5.60005 12.395 5.60005 12.4854V12.7998C5.60005 13.4598 5.36525 14.025 4.89565 14.4954C4.42605 14.9658 3.86085 15.2006 3.20005 15.1998Z" fill="#713E79"/>
</svg>
