<svg width="570" height="564" viewBox="0 0 570 564" fill="none" xmlns="http://www.w3.org/2000/svg">
<g style="mix-blend-mode:hard-light" opacity="0.5">
<path fill-rule="evenodd" clip-rule="evenodd" d="M569.881 6.1138H417.232L370.462 52.8844H443.701C445.065 47.4396 449.991 43.4072 455.859 43.4072C462.781 43.4072 468.392 49.0186 468.392 55.9405C468.392 62.8625 462.781 68.4738 455.859 68.4738C449.992 68.4738 445.066 64.4422 443.701 58.9982H363.082H287.314L318.953 90.6371H418.598C419.908 85.1152 424.871 81.0072 430.793 81.0072C437.715 81.0072 443.327 86.6186 443.327 93.5405C443.327 100.462 437.715 106.074 430.793 106.074C424.981 106.074 420.093 102.117 418.675 96.7509H317.687H316.421L315.525 95.8556L278.668 58.9982H239.779L173.597 125.18H267.518C268.714 119.505 273.75 115.245 279.781 115.245C286.703 115.245 292.315 120.857 292.315 127.779C292.315 134.701 286.703 140.312 279.781 140.312C274.08 140.312 269.268 136.505 267.748 131.294H166.217H69.5098L134.705 196.489C136.684 195.18 139.057 194.418 141.608 194.418C148.53 194.418 154.141 200.03 154.141 206.952C154.141 213.874 148.53 219.485 141.608 219.485C134.686 219.485 129.074 213.874 129.074 206.952C129.074 204.799 129.617 202.773 130.573 201.003L60.8636 131.294H-10.7773V125.18H62.1298H164.951L236.352 53.7798L237.247 52.8844H238.513H279.934H361.816L413.805 0.895346L414.7 0H415.966H569.881V6.1138ZM568.353 557.886H415.704L368.933 511.115H441.524C443.186 516.089 447.882 519.674 453.415 519.674C460.336 519.674 465.948 514.063 465.948 507.141C465.948 500.219 460.336 494.607 453.415 494.607C447.222 494.607 442.078 499.098 441.063 505.001H361.553H285.786L317.425 473.362H416.046C417.264 479.032 422.316 483.273 428.347 483.25C435.269 483.223 440.859 477.591 440.833 470.669C440.806 463.747 435.174 458.157 428.252 458.183C422.55 458.205 417.751 462.031 416.252 467.248H316.158H314.892L313.997 468.144L277.139 505.001H238.251L172.069 438.819H264.912C266.33 444.185 271.218 448.141 277.03 448.141C283.952 448.141 289.563 442.53 289.563 435.608C289.563 428.686 283.952 423.075 277.03 423.075C271.107 423.075 266.144 427.183 264.834 432.705H164.689H67.9814L135.67 365.017L131.347 360.694L59.3352 432.705H-12V438.819H60.6014H163.423L234.823 510.22L235.718 511.115H236.985H278.406H360.287L412.276 563.104L413.172 563.999H414.438H568.353V557.886ZM135.188 206.952C135.188 203.406 138.062 200.532 141.608 200.532C145.153 200.532 148.027 203.406 148.027 206.952C148.027 210.497 145.153 213.371 141.608 213.371C138.062 213.371 135.188 210.497 135.188 206.952ZM430.793 87.121C427.248 87.121 424.374 89.9952 424.374 93.5405C424.374 97.0859 427.248 99.96 430.793 99.96C434.339 99.96 437.213 97.0859 437.213 93.5405C437.213 89.9952 434.339 87.121 430.793 87.121ZM449.439 55.9405C449.439 52.3951 452.313 49.521 455.859 49.521C459.404 49.521 462.278 52.3951 462.278 55.9405C462.278 59.4859 459.404 62.36 455.859 62.36C452.313 62.36 449.439 59.4859 449.439 55.9405ZM184.842 193.939L101.52 277.262H-0.0786438V283.375H101.52L175.672 357.527L176.567 358.422H177.833H248.251L308.035 418.207L308.931 419.102H310.197H407.629C408.994 424.546 413.919 428.578 419.787 428.578C426.709 428.578 432.32 422.967 432.32 416.045C432.32 409.123 426.709 403.512 419.787 403.512C413.919 403.512 408.993 407.544 407.629 412.988H311.463L256.897 358.422H420.245V352.309H249.517H179.099L110.166 283.375H444.395V277.262H110.166L188.27 199.158H218.261H248.251L289.388 240.295L290.284 241.19H291.55H365.001C366.139 246.941 371.211 251.278 377.296 251.278C384.218 251.278 389.829 245.666 389.829 238.744C389.829 231.822 384.218 226.211 377.296 226.211C371.65 226.211 366.876 229.944 365.308 235.076H292.816L256.897 199.158H277.958C279.827 203.73 284.32 206.952 289.565 206.952C296.487 206.952 302.098 201.341 302.098 194.419C302.098 187.497 296.487 181.885 289.565 181.885C283.107 181.885 277.79 186.769 277.106 193.044H249.517H225.641L260.566 158.119H417.43C418.822 163.524 423.728 167.518 429.568 167.518C436.49 167.518 442.101 161.906 442.101 154.984C442.101 148.062 436.49 142.451 429.568 142.451C423.673 142.451 418.728 146.521 417.391 152.005H259.3H258.033L257.138 152.9L216.994 193.044H187.004H185.738L184.842 193.939ZM413.367 416.045C413.367 412.499 416.241 409.625 419.787 409.625C423.332 409.625 426.206 412.499 426.206 416.045C426.206 419.59 423.332 422.464 419.787 422.464C416.241 422.464 413.367 419.59 413.367 416.045ZM428.275 464.297C424.73 464.311 421.866 467.196 421.88 470.741C421.893 474.286 424.778 477.149 428.324 477.136C431.869 477.122 434.732 474.237 434.719 470.692C434.705 467.147 431.82 464.284 428.275 464.297ZM446.995 507.141C446.995 503.595 449.869 500.721 453.415 500.721C456.96 500.721 459.834 503.595 459.834 507.141C459.834 510.686 456.96 513.56 453.415 513.56C449.869 513.56 446.995 510.686 446.995 507.141ZM277.03 429.189C273.485 429.189 270.61 432.063 270.61 435.608C270.61 439.154 273.485 442.028 277.03 442.028C280.575 442.028 283.449 439.154 283.449 435.608C283.449 432.063 280.575 429.189 277.03 429.189ZM370.876 238.744C370.876 235.199 373.751 232.325 377.296 232.325C380.841 232.325 383.715 235.199 383.715 238.744C383.715 242.29 380.841 245.164 377.296 245.164C373.751 245.164 370.876 242.29 370.876 238.744ZM289.565 187.999C286.019 187.999 283.145 190.873 283.145 194.419C283.145 197.964 286.019 200.838 289.565 200.838C293.11 200.838 295.984 197.964 295.984 194.419C295.984 190.873 293.11 187.999 289.565 187.999ZM273.362 127.779C273.362 124.233 276.236 121.359 279.781 121.359C283.327 121.359 286.201 124.233 286.201 127.779C286.201 131.324 283.327 134.198 279.781 134.198C276.236 134.198 273.362 131.324 273.362 127.779ZM429.568 148.565C426.023 148.565 423.149 151.439 423.149 154.984C423.149 158.53 426.023 161.404 429.568 161.404C433.113 161.404 435.988 158.53 435.988 154.984C435.988 151.439 433.113 148.565 429.568 148.565Z" fill="url(#paint0_linear_1237_822)"/>
</g>
<defs>
<linearGradient id="paint0_linear_1237_822" x1="-12.1187" y1="282" x2="747.381" y2="274.5" gradientUnits="userSpaceOnUse">
<stop stop-color="#3A0D49"/>
<stop offset="0.478533" stop-color="#FF9433"/>
<stop offset="1" stop-color="#AA93E9" stop-opacity="0"/>
</linearGradient>
</defs>
</svg>
