<svg width="28" height="28" viewBox="0 0 28 28" fill="none" xmlns="http://www.w3.org/2000/svg">
<path fill-rule="evenodd" clip-rule="evenodd" d="M14.0691 0.799805C21.4912 0.799805 27.9577 5.85942 27.9577 12.6051C27.9577 16.0175 26.1022 18.9661 23.5148 21.341C20.9218 23.7229 17.4607 25.6604 13.89 27.0895C13.5316 27.2339 13.1317 27.2366 12.7714 27.0971C12.4111 26.9576 12.1174 26.6862 11.9497 26.3382C11.8053 26.034 11.7692 25.709 11.7595 25.3798L11.7539 24.6368C11.751 24.5552 11.7454 24.4736 11.7372 24.3924C11.69 23.9076 11.5622 23.6007 11.0525 23.5104C5.10822 22.4743 0.180542 18.4939 0.180542 12.6051C0.180542 5.85942 6.64707 0.799805 14.0691 0.799805ZM16.8469 9.13296C16.4785 9.13296 16.1252 9.27929 15.8648 9.53975C15.6043 9.80021 15.458 10.1535 15.458 10.5218V10.8524L14.4413 9.63295C14.2586 9.41382 14.0128 9.25629 13.7374 9.18178C13.462 9.10727 13.1703 9.1194 12.902 9.21652C12.6337 9.31363 12.4018 9.49103 12.2379 9.72458C12.074 9.95813 11.986 10.2365 11.9858 10.5218V14.6884C11.9858 15.0567 12.1322 15.41 12.3926 15.6705C12.6531 15.9309 13.0064 16.0773 13.3747 16.0773C13.7431 16.0773 14.0963 15.9309 14.3568 15.6705C14.6172 15.41 14.7636 15.0567 14.7636 14.6884V14.3579L15.7802 15.5773C15.963 15.7964 16.2087 15.9539 16.4842 16.0284C16.7596 16.103 17.0513 16.0908 17.3196 15.9937C17.5879 15.8966 17.8198 15.7192 17.9837 15.4856C18.1476 15.2521 18.2356 14.9737 18.2357 14.6884V10.5218C18.2357 10.1535 18.0894 9.80021 17.8289 9.53975C17.5685 9.27929 17.2152 9.13296 16.8469 9.13296ZM5.73598 9.13296C5.36763 9.13296 5.01437 9.27929 4.75391 9.53975C4.49345 9.80021 4.34712 10.1535 4.34712 10.5218V14.6884C4.34712 15.0567 4.49345 15.41 4.75391 15.6705C5.01437 15.9309 5.36763 16.0773 5.73598 16.0773H7.12484C7.49319 16.0773 7.84645 15.9309 8.10691 15.6705C8.36737 15.41 8.5137 15.0567 8.5137 14.6884C8.5137 14.3201 8.36737 13.9668 8.10691 13.7063C7.84645 13.4459 7.49319 13.2995 7.12484 13.2995V10.5218C7.12484 10.1535 6.97851 9.80021 6.71805 9.53975C6.45759 9.27929 6.10433 9.13296 5.73598 9.13296ZM9.90256 9.13296C9.56238 9.13301 9.23405 9.2579 8.97984 9.48395C8.72563 9.71 8.56322 10.0215 8.52342 10.3593L8.5137 10.5218V14.6884C8.51409 15.0424 8.64964 15.3829 8.89265 15.6403C9.13565 15.8977 9.46778 16.0526 9.82116 16.0733C10.1745 16.0941 10.5225 15.9791 10.794 15.7519C11.0654 15.5247 11.2399 15.2024 11.2817 14.8509L11.2914 14.6884V10.5218C11.2914 10.1535 11.1451 9.80021 10.8846 9.53975C10.6242 9.27929 10.2709 9.13296 9.90256 9.13296ZM22.4023 9.13296H20.319C19.9788 9.13301 19.6505 9.2579 19.3963 9.48395C19.1421 9.71 18.9797 10.0215 18.9399 10.3593L18.9301 10.5218V14.6884C18.9302 15.0286 19.0551 15.3569 19.2811 15.6111C19.5072 15.8653 19.8187 16.0277 20.1565 16.0675L20.319 16.0773H22.4023C22.7563 16.0769 23.0968 15.9413 23.3542 15.6983C23.6116 15.4553 23.7665 15.1232 23.7872 14.7698C23.808 14.4164 23.693 14.0684 23.4658 13.797C23.2386 13.5255 22.9163 13.3511 22.5648 13.3093L22.4023 13.2995H22.2162C22.3235 13.1147 22.3865 12.9076 22.4003 12.6943C22.414 12.481 22.3781 12.2674 22.2954 12.0704L22.2162 11.9107H22.4023C22.7563 11.9103 23.0968 11.7747 23.3542 11.5317C23.6116 11.2887 23.7665 10.9566 23.7872 10.6032C23.808 10.2498 23.693 9.90186 23.4658 9.63041C23.2386 9.35895 22.9163 9.18449 22.5648 9.14268L22.4023 9.13296Z" fill="#493187"/>
</svg>
