<svg width="569" height="564" viewBox="0 0 569 564" fill="none" xmlns="http://www.w3.org/2000/svg">
<g style="mix-blend-mode:plus-darker">
<path fill-rule="evenodd" clip-rule="evenodd" d="M0.118713 6.1138H152.768L199.538 52.8844H126.299C124.935 47.4396 120.009 43.4072 114.141 43.4072C107.219 43.4072 101.608 49.0186 101.608 55.9405C101.608 62.8625 107.219 68.4738 114.141 68.4738C120.008 68.4738 124.934 64.4422 126.299 58.9982H206.918H282.686L251.047 90.6371H151.402C150.092 85.1152 145.129 81.0072 139.207 81.0072C132.285 81.0072 126.673 86.6186 126.673 93.5406C126.673 100.462 132.285 106.074 139.207 106.074C145.019 106.074 149.907 102.117 151.325 96.7509H252.313H253.579L254.475 95.8556L291.332 58.9982H330.221L396.403 125.18H302.482C301.286 119.505 296.25 115.245 290.219 115.245C283.297 115.245 277.685 120.857 277.685 127.779C277.685 134.701 283.297 140.312 290.219 140.312C295.92 140.312 300.732 136.505 302.252 131.294H403.783H500.49L435.295 196.489C433.316 195.18 430.943 194.418 428.392 194.418C421.47 194.418 415.859 200.03 415.859 206.952C415.859 213.874 421.47 219.485 428.392 219.485C435.314 219.485 440.926 213.874 440.926 206.952C440.926 204.799 440.383 202.773 439.427 201.003L509.136 131.294H580.777V125.18H507.87H405.049L333.648 53.7797L332.753 52.8844H331.487H290.066H208.184L156.195 0.895346L155.3 0H154.034H0.118713V6.1138ZM1.64716 557.886H154.296L201.067 511.115H128.476C126.814 516.089 122.118 519.674 116.585 519.674C109.664 519.674 104.052 514.063 104.052 507.141C104.052 500.219 109.664 494.607 116.585 494.607C122.778 494.607 127.922 499.098 128.937 505.001H208.447H284.214L252.575 473.362H153.954C152.736 479.032 147.684 483.273 141.653 483.25C134.731 483.223 129.141 477.591 129.167 470.669C129.194 463.747 134.826 458.157 141.748 458.183C147.45 458.205 152.249 462.031 153.748 467.248H253.842H255.108L256.003 468.144L292.861 505.001H331.749L397.931 438.819H305.088C303.67 444.185 298.782 448.141 292.97 448.141C286.048 448.141 280.437 442.53 280.437 435.608C280.437 428.686 286.048 423.075 292.97 423.075C298.893 423.075 303.856 427.183 305.166 432.705H405.311H502.019L434.33 365.017L438.653 360.694L510.665 432.705H582V438.819H509.399H406.577L335.177 510.22L334.282 511.115H333.015H291.594H209.713L157.724 563.104L156.828 563.999H155.562H1.64716V557.886ZM434.812 206.952C434.812 203.406 431.938 200.532 428.392 200.532C424.847 200.532 421.973 203.406 421.973 206.952C421.973 210.497 424.847 213.371 428.392 213.371C431.938 213.371 434.812 210.497 434.812 206.952ZM139.207 87.1211C142.752 87.1211 145.626 89.9952 145.626 93.5406C145.626 97.0859 142.752 99.96 139.207 99.96C135.661 99.96 132.787 97.0859 132.787 93.5406C132.787 89.9952 135.661 87.1211 139.207 87.1211ZM120.561 55.9405C120.561 52.3951 117.687 49.521 114.141 49.521C110.596 49.521 107.722 52.3951 107.722 55.9405C107.722 59.4859 110.596 62.36 114.141 62.36C117.687 62.36 120.561 59.4859 120.561 55.9405ZM385.158 193.939L468.48 277.262H570.079V283.375H468.48L394.328 357.527L393.433 358.422H392.167H321.749L261.965 418.207L261.069 419.102H259.803H162.371C161.006 424.546 156.081 428.578 150.213 428.578C143.291 428.578 137.68 422.967 137.68 416.045C137.68 409.123 143.291 403.512 150.213 403.512C156.081 403.512 161.007 407.544 162.371 412.988H258.537L313.103 358.422H149.755V352.309H320.483H390.901L459.834 283.375H125.605V277.262H459.834L381.73 199.158H351.739H321.749L280.612 240.295L279.716 241.19H278.45H204.999C203.861 246.941 198.789 251.278 192.704 251.278C185.782 251.278 180.171 245.666 180.171 238.744C180.171 231.822 185.782 226.211 192.704 226.211C198.35 226.211 203.124 229.944 204.692 235.076H277.184L313.103 199.158H292.042C290.173 203.73 285.68 206.952 280.435 206.952C273.513 206.952 267.902 201.341 267.902 194.419C267.902 187.497 273.513 181.885 280.435 181.885C286.893 181.885 292.21 186.769 292.894 193.044H320.483H344.359L309.434 158.119H152.57C151.178 163.524 146.272 167.518 140.432 167.518C133.51 167.518 127.899 161.906 127.899 154.984C127.899 148.062 133.51 142.451 140.432 142.451C146.327 142.451 151.272 146.521 152.609 152.005H310.7H311.967L312.862 152.9L353.006 193.044H382.996H384.262L385.158 193.939ZM156.633 416.045C156.633 412.499 153.759 409.625 150.213 409.625C146.668 409.625 143.794 412.499 143.794 416.045C143.794 419.59 146.668 422.464 150.213 422.464C153.759 422.464 156.633 419.59 156.633 416.045ZM141.725 464.297C145.27 464.311 148.134 467.196 148.12 470.741C148.107 474.286 145.222 477.149 141.676 477.136C138.131 477.122 135.268 474.237 135.281 470.692C135.295 467.147 138.18 464.284 141.725 464.297ZM123.005 507.141C123.005 503.595 120.131 500.721 116.585 500.721C113.04 500.721 110.166 503.595 110.166 507.141C110.166 510.686 113.04 513.56 116.585 513.56C120.131 513.56 123.005 510.686 123.005 507.141ZM292.97 429.189C296.515 429.189 299.39 432.063 299.39 435.608C299.39 439.154 296.515 442.028 292.97 442.028C289.425 442.028 286.551 439.154 286.551 435.608C286.551 432.063 289.425 429.189 292.97 429.189ZM199.124 238.744C199.124 235.199 196.249 232.325 192.704 232.325C189.159 232.325 186.285 235.199 186.285 238.744C186.285 242.29 189.159 245.164 192.704 245.164C196.249 245.164 199.124 242.29 199.124 238.744ZM280.435 187.999C283.981 187.999 286.855 190.873 286.855 194.419C286.855 197.964 283.981 200.838 280.435 200.838C276.89 200.838 274.016 197.964 274.016 194.419C274.016 190.873 276.89 187.999 280.435 187.999ZM296.638 127.779C296.638 124.233 293.764 121.359 290.219 121.359C286.673 121.359 283.799 124.233 283.799 127.779C283.799 131.324 286.673 134.198 290.219 134.198C293.764 134.198 296.638 131.324 296.638 127.779ZM140.432 148.565C143.977 148.565 146.851 151.439 146.851 154.984C146.851 158.53 143.977 161.404 140.432 161.404C136.887 161.404 134.012 158.53 134.012 154.984C134.012 151.439 136.887 148.565 140.432 148.565Z" fill="url(#paint0_linear_767_414)"/>
</g>
<defs>
<linearGradient id="paint0_linear_767_414" x1="582.119" y1="282" x2="-177.381" y2="274.5" gradientUnits="userSpaceOnUse">
<stop offset="0.085" stop-color="#6F56B4"/>
<stop offset="0.315" stop-color="#FD874E"/>
<stop offset="1" stop-color="#97512F" stop-opacity="0"/>
</linearGradient>
</defs>
</svg>
