<svg width="44" height="40" viewBox="0 0 44 40" fill="none" xmlns="http://www.w3.org/2000/svg">
<path d="M42 24.0041H40C40 16.2641 33.74 10.0041 26 10.0041H24V7.4641C24.6082 7.11294 25.1133 6.60783 25.4644 5.99955C25.8154 5.39128 26.0002 4.70129 26 3.99897C25.9998 3.29665 25.8147 2.60676 25.4633 1.99867C25.1119 1.39058 24.6066 0.885721 23.9982 0.534873C23.3898 0.184025 22.6998 -0.000449306 21.9974 8.21782e-07C21.2951 0.00045095 20.6053 0.18581 19.9973 0.537438C19.3894 0.889065 18.8847 1.39457 18.5341 2.00311C18.1835 2.61165 17.9993 3.30178 18 4.0041C18 5.4841 18.8 6.7841 20 7.4641V10.0041H18C10.26 10.0041 4 16.2641 4 24.0041H2C0.9 24.0041 0 24.9041 0 26.0041V32.0041C0 33.1041 0.9 34.0041 2 34.0041H4V36.0041C4 37.065 4.42143 38.0824 5.17157 38.8325C5.92172 39.5827 6.93913 40.0041 8 40.0041H36C38.22 40.0041 40 38.2241 40 36.0041V34.0041H42C43.1 34.0041 44 33.1041 44 32.0041V26.0041C44 24.9041 43.1 24.0041 42 24.0041ZM17.58 29.0041C16.8 27.2441 15.06 26.0041 13 26.0041C10.94 26.0041 9.2 27.2441 8.42 29.0041C8.16 28.3841 8 27.7241 8 27.0041C8 25.678 8.52678 24.4062 9.46447 23.4686C10.4021 22.5309 11.6739 22.0041 13 22.0041C14.3261 22.0041 15.5979 22.5309 16.5355 23.4686C17.4732 24.4062 18 25.678 18 27.0041C18 27.7241 17.84 28.3841 17.58 29.0041ZM35.58 29.0041C34.8 27.2441 33 26.0041 31 26.0041C29 26.0041 27.2 27.2441 26.42 29.0041C26.16 28.3841 26 27.7241 26 27.0041C26 25.678 26.5268 24.4062 27.4645 23.4686C28.4021 22.5309 29.6739 22.0041 31 22.0041C32.3261 22.0041 33.5979 22.5309 34.5355 23.4686C35.4732 24.4062 36 25.678 36 27.0041C36 27.7241 35.84 28.3841 35.58 29.0041Z" fill="white"/>
</svg>
