<svg width="359" height="247" viewBox="0 0 359 247" fill="none" xmlns="http://www.w3.org/2000/svg">
<g filter="url(#filter0_d_2306_3808)">
<g filter="url(#filter1_d_2306_3808)">
<path d="M111.176 229.498C101.979 226.965 92.7502 224.515 83.5871 221.875C69.6705 217.867 57.8034 210.637 48.0784 200.31C43.6026 195.555 40.7267 189.876 38.8095 183.753C34.3138 167.501 33.0908 150.995 34.9882 134.305C36.5088 120.927 38.2475 107.574 40.0127 94.2273C40.5416 90.2322 41.4672 86.2877 42.2076 82.318C46.1611 71.276 51.4963 60.8292 58.5968 51.4017C62.1933 46.6342 67.0128 42.6137 71.7068 38.7326C80.5856 31.3881 90.066 24.8351 100.822 20.1119C113.622 14.4896 126.871 10.3172 140.675 7.58207C160.548 3.64394 180.686 4.56199 200.632 5.36608C220.121 6.15117 238.838 11.4885 256.728 19.3332C268.132 24.335 278.161 31.0842 287.503 38.9225C291.344 42.1452 295.615 45.1526 298.557 49.0401C303.297 55.3019 307.363 62.0765 311.197 68.9017C313.577 73.1374 314.999 77.867 316.85 82.3686C316.883 83.1727 316.81 83.9958 316.975 84.7745C317.729 88.2758 318.827 91.7264 319.303 95.253C321.048 108.175 322.615 121.123 324.221 134.071C325.973 148.184 325.339 162.189 322.159 176.08C321.577 178.631 321.167 181.227 320.678 183.798L320.691 183.709C320.46 183.956 320.228 184.203 319.997 184.45C318.622 190.11 315.984 195.308 311.786 199.367C306.338 204.628 300.646 209.82 294.326 214.036C289.572 217.209 283.82 219.241 278.24 220.988C268.231 224.116 258.017 226.649 247.888 229.428C246.579 229.472 245.264 229.472 243.961 229.567C232.993 230.372 222.045 231.676 211.064 231.91C192.467 232.309 173.856 232.201 155.252 231.973C144.589 231.84 133.931 231.1 123.281 230.542C119.241 230.327 115.208 229.846 111.176 229.485V229.498ZM294.279 152.66C293.221 139.794 292.355 125.58 290.802 111.436C289.023 95.2593 282.227 81.2353 269.666 69.9844C254.705 56.5871 236.947 47.7295 217.642 42.0376C195.991 35.6555 173.651 35.6555 151.577 39.7139C130.249 43.6331 111.275 53.0099 94.3501 66.0273C81.1674 76.1702 72.3414 89.0482 69.5713 105.181C68.0904 113.798 67.3963 122.541 66.5302 131.241C65.0427 146.183 64.765 161.138 66.6624 176.073C67.1715 180.062 68.6259 183.367 71.9249 186.235C82.9987 195.846 96.036 202.064 109.794 207.091C127.155 213.441 145.296 215.892 163.754 216.829C187.627 218.038 211.342 217.196 234.58 211.498C253.977 206.743 272.026 199.12 287.298 186.28C290.174 183.861 292.045 181.05 292.336 177.365C292.957 169.596 293.559 161.821 294.279 152.654V152.66Z" fill="url(#paint0_linear_2306_3808)"/>
</g>
<g filter="url(#filter2_d_2306_3808)">
<path d="M28.492 39.4649V39.4725V39.5613V39.65V39.7388V39.8275V39.9163V40.005V40.0937V40.1825V40.2712V40.36V40.4487V40.5375V40.6262V40.715V40.8037V40.8924V40.9812V41.0699V41.1587V41.2474V41.3362V41.4249V41.5137V41.6024V41.6912V41.7799V41.8686V41.9574V42.0461V42.1349V42.2236V42.3124V42.4011V42.4899V42.5786V42.6674V42.7561V42.8449V42.9336V43.0224V43.1111V43.1999V43.2886V43.3774V43.4661V43.5549V43.6436V43.7324V43.8211V43.9099V43.9986V44.0874V44.1761V44.2649V44.3536V44.4424V44.5311V44.6199V44.7087V44.7974V44.8862V44.9749V45.0637V45.1524V45.2412V45.3299V45.4187V45.5074V45.5962V45.685V45.7737V45.8625V45.9512V46.04V46.1287V46.2175V46.3063V46.395V46.4838V46.5725V46.6613V46.75V46.8388V46.9276V47.0163V47.1051V47.1938V47.2826V47.3714V47.4601V47.5489V47.6376V47.7264V47.8152V47.9039V47.9927V48.0815V48.1702V48.259V48.3477V48.4365V48.5253V48.614V48.7028V48.7916V48.8803V48.9691V49.0579V49.1466V49.2354V49.3242V49.4129V49.5017V49.5905V49.6792V49.768V49.8568V49.9455V50.0343V50.1231V50.2118V50.3006V50.3894V50.4781V50.5669V50.6557V50.7444V50.8332V50.922V51.0108V51.0995V51.1883V51.2771V51.3658V51.4546V51.5434V51.6322V51.7209V51.8097V51.8985V51.9872V52.076V52.1648V52.2536V52.3423V52.4311V52.5199V52.6087V52.6975V52.7862V52.875V52.9638V53.0526V53.1413V53.2301V53.3189V53.4077V53.4965V53.5852V53.674V53.7628V53.8516V53.9403V54.0291V54.1179V54.2067V54.2955V54.3843V54.473V54.5618V54.6506V54.7394V54.8282V54.917V55.0057V55.0945V55.1833V55.2721V55.3609V55.4497V55.5384V55.6272V55.716V55.8048V55.8936V55.9824V56.0712V56.16V56.2487V56.3375V56.4263V56.5151V56.6039V56.6927V56.7815V56.8703V56.9591V57.0479V57.1367V57.2254V57.3142V57.403V57.4918V57.5806V57.6694V57.7582V57.847V57.9358V58.0246V58.1134V58.2022V58.291V58.3798V58.4686V58.5574V58.6462V58.735V58.8238V58.9126V59.0014V59.0902V59.179V59.2678V59.3566V59.4454V59.5342V59.623V59.7118V59.8006V59.8894V59.9782V60.067V60.1558V60.2446V60.3334V60.4222V60.511V60.5998V60.6886V60.7774V60.8662V60.955V61.0438V61.1326V61.2215V61.3103V61.3991V61.4879V61.5767V61.6655V61.7543V61.8431V61.9319V62.0207V62.1096V62.1984V62.2872V62.376V62.4648V62.5536V62.6424V62.7312V62.8201V62.9089V62.9977V63.0865V63.1753V63.2641V63.353V63.4418V63.5306V63.6194V63.7082V63.7971V63.8859V63.9747V64.0635V64.1523V64.2412V64.33V64.4188V64.5076V64.5964V64.6853V64.7741V64.8629V64.9517V65.0406V65.1294V65.2182V65.307V65.3959V65.4847V65.5735V65.6624V65.7512V65.84V65.9288V66.0177V66.1065V66.1953V66.2842V66.373V66.4618V66.5507V66.6395V66.7283V66.8172V66.906V66.9948V67.0837V67.1725V67.2613V67.3502V67.439V67.5278V67.6167V67.7055V67.7943V67.8832V67.972V68.0609V68.1497V68.2385V68.3274V68.4162V68.5051V68.5939V68.6828V68.7716V68.8604V68.9493V69.0381V69.127V69.2158V69.3047V69.3935V69.4824V69.5712V69.66V69.7489V69.8377V69.9266V70.0154V70.1043V70.1931V70.282V70.3708V70.4597V70.5485V70.6374V70.7262V70.8151V70.904V70.9928V71.0817V71.1705V71.2594V71.3482V71.4371V71.5259V71.6148V71.7037V71.7925V71.8814V71.9702V72.0591V72.148V72.2368V72.3257V72.4145V72.5034V72.5923V72.6811V72.77V72.8589V72.9477V73.0366V73.1255V73.2143V73.3032V73.3921V73.4809V73.5698V73.6587V73.7475V73.8364V73.9253V74.0141V74.103V74.1919V74.2808V74.3696V74.4585V74.5474V74.6362V74.7251V74.814V74.9029V74.9918V75.0806V75.1695V75.2584V75.3473V75.4361V75.525V75.6139V75.7028V75.7917V75.8805V75.9694V76.0583V76.1472V76.2361V76.325V76.4138V76.5027V76.5916V76.6805V76.7694V76.8583V76.9472V77.036V77.1249V77.2138V77.3027V77.3916V77.4805V77.5694V77.6583V77.7472V77.8361V77.9249V78.0138V78.1027V78.1916V78.2805V78.3694V78.4583V78.5472V78.6361V78.725V78.8139V78.9028V78.9917V79.0806V79.1695V79.2584V79.3473V79.4362V79.5251V79.614V79.7029V79.7918V79.8807V79.9696V80.0586V80.1475V80.2364V80.3253V80.4142V80.5031V80.592V80.6809V80.7698V80.8587V80.9476V81.0366V81.1255V81.2144V81.3033V81.3922V81.4811V81.57V81.659V81.7479V81.8368V81.9257V82.0146V82.1035V82.1925V82.2814V82.3703V82.4592V82.5482V82.6371V82.726V82.8149V84.9149H26.392C25.5298 84.9149 24.741 84.9384 23.9423 84.9622C23.4683 84.9763 22.9908 84.9905 22.4925 85C21.2124 85.0244 19.8946 85.0126 18.5657 84.8406L18.5633 84.8402C17.0679 84.6448 16.5209 84.8597 16.3644 84.9685L16.3626 84.9697C16.3223 84.9973 16.0054 85.2144 15.9765 86.4647L28.492 39.4649ZM28.492 39.4649C29.5481 39.4756 30.6043 39.4861 31.6602 39.4965C32.7306 39.5071 33.8005 39.5176 34.8699 39.5285V82.3337V84.4337H36.9699H39.6488C39.5709 84.8227 39.4921 85.2137 39.4128 85.6064C38.861 88.3425 38.2924 91.1617 37.9226 93.9548L37.9224 93.9561C36.164 107.302 34.4163 120.672 32.8934 134.071M28.492 39.4649L15.9764 86.4658C15.9578 87.2986 16.0697 88.1683 16.2182 89.2167C16.2266 89.2761 16.2352 89.3363 16.2438 89.3971C16.3796 90.3512 16.5381 91.4652 16.5455 92.5944M32.8934 134.071C32.8934 134.071 32.8934 134.071 32.8934 134.071L34.9799 134.308L32.8934 134.071ZM32.8934 134.071C31.0658 150.146 32.0884 166.064 36.0955 181.753M36.0955 181.753C35.2551 181.785 34.416 181.817 33.578 181.849C29.5053 182.005 25.4574 182.159 21.3988 182.239L21.3979 182.239C19.3118 182.281 18.5014 182.055 18.11 181.74C17.8237 181.509 17.2906 180.815 17.2594 178.254L17.2594 178.253C17.1858 172.464 17.186 166.683 17.1861 160.887C17.1862 158.45 17.1863 156.011 17.1808 153.567M36.0955 181.753C36.8105 181.727 37.5265 181.7 38.2436 181.675L21.4402 184.339C25.519 184.259 29.5978 184.103 33.6789 183.947C34.6674 183.909 35.6561 183.871 36.6449 183.834C36.4559 183.141 36.2728 182.448 36.0955 181.753ZM17.1808 153.567C17.1947 153.52 17.2097 153.472 17.2271 153.416C17.2598 153.31 17.3011 153.177 17.3597 152.971C17.4599 152.619 17.5967 152.08 17.59 151.469L17.5899 151.463C17.4379 140.129 17.2725 128.791 17.0609 117.453L17.0607 117.446C17.0458 116.761 16.9136 116.129 16.792 115.629C16.7314 115.379 16.6806 115.186 16.6353 115.014C16.5905 114.843 16.5512 114.693 16.5131 114.53M17.1808 153.567C17.1617 153.632 17.1447 153.695 17.1264 153.775L15.0802 153.302M17.1808 153.567C17.1806 153.477 17.1804 153.387 17.1802 153.297L15.0802 153.302M16.5131 114.53C16.5189 112.508 16.5285 110.481 16.5381 108.453C16.563 103.175 16.5881 97.8813 16.5455 92.5944M16.5131 114.53C16.5129 114.608 16.5127 114.685 16.5125 114.762L14.4125 114.757L16.4676 114.325C16.4827 114.397 16.4978 114.465 16.5131 114.53ZM16.5455 92.5944C16.5455 92.595 16.5455 92.5956 16.5455 92.5962L14.4456 92.6096L16.5455 92.5927C16.5455 92.5933 16.5455 92.5938 16.5455 92.5944ZM15.0802 153.302C15.1256 153.106 15.1857 152.909 15.2459 152.712C15.3701 152.305 15.4946 151.897 15.4901 151.492L15.0802 153.302Z" stroke="url(#paint1_linear_2306_3808)" stroke-width="4.2" shape-rendering="crispEdges"/>
</g>
<g filter="url(#filter3_d_2306_3808)">
<path d="M325.035 181.856C324.417 181.836 323.798 181.816 323.18 181.797C323.187 181.756 323.194 181.716 323.201 181.676C323.513 179.936 323.813 178.256 324.205 176.559L324.206 176.555C327.442 162.413 328.086 148.161 326.305 133.819C326.012 131.457 325.72 129.093 325.428 126.728C324.121 116.151 322.812 105.558 321.384 94.9794C321.13 93.1018 320.715 91.2696 320.282 89.5102C320.154 88.9892 320.026 88.4792 319.899 87.9757C319.601 86.7913 319.312 85.6434 319.058 84.4759H319.058H319.068H319.077H319.087H319.096H319.106H319.115H319.125H319.134H319.144H319.154H319.163H319.173H319.182H319.192H319.202H319.211H319.221H319.23H319.24H319.25H319.259H319.269H319.279H319.288H319.298H319.308H319.317H319.327H319.337H319.346H319.356H319.366H319.375H319.385H319.395H319.404H319.414H319.424H319.434H319.443H319.453H319.463H319.473H319.482H319.492H319.502H319.512H319.521H319.531H319.541H319.551H319.561H319.57H319.58H319.59H319.6H319.61H319.62H319.629H319.639H319.649H319.659H319.669H319.679H319.689H319.698H319.708H319.718H319.728H319.738H319.748H319.758H319.768H319.778H319.788H319.798H319.808H319.818H319.828H319.838H319.848H319.857H319.867H319.877H319.887H319.897H319.908H319.918H319.928H319.938H319.948H319.958H319.968H319.978H319.988H319.998H320.008H320.018H320.028H320.038H320.048H320.059H320.069H320.079H320.089H320.099H320.109H320.119H320.13H320.14H320.15H320.16H320.17H320.18H320.191H320.201H320.211H320.221H320.232H320.242H320.252H320.262H320.272H320.283H320.293H320.303H320.314H320.324H320.334H320.345H320.355H320.365H320.375H320.386H320.396H320.407H320.417H320.427H320.438H320.448H320.458H320.469H320.479H320.49H320.5H320.51H320.521H320.531H320.542H320.552H320.563H320.573H320.584H320.594H320.605H320.615H320.626H320.636H320.647H320.657H320.668H320.678H320.689H320.7H320.71H320.721H320.731H320.742H320.753H320.763H320.774H320.784H320.795H320.806H320.816H320.827H320.838H320.848H320.859H320.87H320.88H320.891H320.902H320.913H320.923H320.934H320.945H320.956H320.966H320.977H320.988H320.999H321.01H321.02H321.031H321.042H321.053H321.064H321.075H321.086H321.096H321.107H321.118H321.129H321.14H321.151H321.162H321.173H321.184H321.195H321.206H321.217H321.228H321.239H321.25H321.261H321.272H321.283H321.294H321.305H321.316H321.327H321.338H321.349H321.36H321.371H321.382H321.394H321.405H321.416H321.427H321.438H321.449H321.46H321.472H321.483H321.494H321.505H321.516H321.528H321.539H321.55H321.561H321.573H321.584H321.595H321.607H321.618H321.629H321.641H321.652H321.663H321.675H321.686H321.697H321.709H321.72H321.732H321.743H321.754H321.766H321.777H321.789H321.8H321.812H321.823H321.835H321.846H321.858H321.869H321.881H323.688L323.957 82.6893C324.031 82.2009 324.116 81.7569 324.21 81.273C324.266 80.982 324.324 80.6766 324.385 80.3384C324.534 79.5055 324.673 78.5742 324.682 77.6005L324.682 77.5942C324.734 67.6001 324.737 57.6011 324.739 47.6108C324.739 45.851 324.739 44.0915 324.74 42.3323C325.656 42.3803 326.572 42.4285 327.489 42.4768L327.49 42.4768C328.479 42.5289 329.468 42.581 330.458 42.6328V82.7938V84.8938H332.558C333.362 84.8938 334.113 84.9203 334.897 84.9481C335.399 84.9658 335.914 84.9841 336.466 84.9962C337.806 85.0255 339.226 85.0111 340.656 84.8021L340.66 84.8015C341.445 84.6854 341.998 84.6574 342.384 84.686C342.644 84.7052 342.771 84.7461 342.819 84.7657C342.873 84.8599 343.004 85.1927 343.006 86.1032L343.006 86.1039C343.026 94.2207 343.039 102.336 342.986 110.442L342.986 110.446C342.982 111.253 342.865 111.958 342.722 112.818C342.642 113.294 342.555 113.817 342.475 114.432L342.459 114.55L342.458 114.669C342.412 117.383 342.366 120.097 342.32 122.812C342.158 132.363 341.996 141.92 341.862 151.473L341.862 151.478C341.854 152.181 342.065 152.778 342.198 153.123C342.288 153.358 342.343 153.488 342.384 153.585C342.385 153.587 342.386 153.59 342.387 153.592C342.322 155.926 342.241 158.271 342.16 160.625C341.945 166.854 341.728 173.137 341.79 179.394L343.889 179.373L341.79 179.394C341.803 180.724 341.326 181.311 340.791 181.659C340.12 182.098 339.057 182.331 337.788 182.283L337.785 182.283C333.536 182.126 329.282 181.991 325.035 181.856ZM342.796 84.7345C342.796 84.7336 342.802 84.7388 342.811 84.7526C342.8 84.7423 342.795 84.7354 342.796 84.7345Z" stroke="url(#paint2_linear_2306_3808)" stroke-width="4.2" shape-rendering="crispEdges"/>
</g>
<path d="M113.259 231.801C113.728 231.847 114.2 231.894 114.673 231.94C117.474 232.217 120.332 232.499 123.168 232.65L123.168 232.65C125.539 232.776 127.916 232.91 130.297 233.045C138.572 233.514 146.9 233.985 155.225 234.084L113.259 231.801ZM113.259 231.801C113.259 232.098 113.259 232.396 113.26 232.696C113.264 235.226 113.267 237.874 113.034 240.437L113.259 231.801ZM211.107 234.02L211.107 234.02C192.475 234.414 173.837 234.312 155.226 234.084L211.107 234.02ZM211.107 234.02C218.654 233.859 226.242 233.193 233.748 232.533C237.225 232.228 240.684 231.924 244.113 231.673C244.709 231.629 245.289 231.607 245.885 231.591C245.914 232.158 245.944 232.72 245.974 233.279C246.145 236.467 246.311 239.549 246.2 242.656C246.126 242.751 245.998 242.892 245.791 243.078C245.429 243.406 245.035 243.698 244.59 244.029C244.479 244.112 244.364 244.197 244.246 244.286C244.109 244.284 243.956 244.275 243.734 244.261L243.72 244.26C243.524 244.248 243.258 244.231 242.995 244.231M211.107 234.02L116.503 244.162M116.503 244.162H116.505C158.67 244.199 200.829 244.218 242.995 244.231M116.503 244.162C115.256 244.162 114.422 244.09 113.857 243.96M116.503 244.162L113.857 243.96M242.995 244.231L242.995 246.331M242.995 244.231L242.995 246.331M242.995 246.331C243.192 246.331 243.404 246.345 243.619 246.358C244.241 246.397 244.886 246.438 245.249 246.16L116.503 246.262C158.669 246.299 200.828 246.318 242.995 246.331ZM113.857 243.96C113.318 243.837 113.196 243.7 113.182 243.684M113.857 243.96L113.182 243.684M113.182 243.684L113.182 243.684M113.182 243.684L113.182 243.684M113.182 243.684L113.182 243.684M113.182 243.684L113.182 243.684M113.182 243.684C113.167 243.667 113.047 243.533 112.981 242.99M113.182 243.684L112.981 242.99M112.981 242.99C112.913 242.426 112.927 241.621 113.034 240.437L112.981 242.99ZM246.259 242.57C246.259 242.57 246.258 242.572 246.254 242.578C246.257 242.573 246.259 242.57 246.259 242.57Z" stroke="url(#paint3_linear_2306_3808)" stroke-width="4.2"/>
<path d="M36.9643 37.4447C33.4406 37.4067 29.9102 37.3751 26.3864 37.3371C23.4444 35.8429 20.238 34.6779 17.6068 32.7785C12.2186 28.891 11.0683 18.1593 13.0054 11.8532C17.0779 -1.36679 37.2685 -3.32953 46.0349 4.97094C51.3305 9.98542 52.3486 16.5068 51.0859 23.3573C49.6711 31.05 44.468 35.3237 36.9643 37.4447Z" fill="url(#paint4_linear_2306_3808)"/>
<path d="M332.557 40.6272C329.251 40.4562 325.946 40.2789 322.64 40.108C310.495 37.911 306.892 24.9569 309.768 15.4092C314.052 1.18884 334.818 -0.356022 343.465 8.71055C349.164 14.6874 349.574 22.0888 347.148 29.4522C344.966 36.0685 339.644 39.5571 332.563 40.6272H332.557Z" fill="url(#paint5_linear_2306_3808)"/>
<path d="M14.4133 114.75C14.605 115.662 14.9488 116.567 14.962 117.485C15.1736 128.818 15.3454 140.152 15.4909 151.485C15.4975 152.086 15.2264 152.694 15.081 153.296C7.39879 151.156 2.39412 144.976 1.29005 137.018C0.390924 130.534 1.46855 124.583 6.12944 119.809C8.29791 117.593 11.6101 116.402 14.4 114.744L14.4133 114.75Z" fill="url(#paint6_linear_2306_3808)"/>
<path d="M344.49 153.235C344.305 152.653 343.948 152.076 343.955 151.494C344.127 139.23 344.345 126.96 344.55 114.696C353.64 117.279 358.321 124.364 358.215 133.449C358.109 142.535 352.576 151.228 344.49 153.235Z" fill="url(#paint7_linear_2306_3808)"/>
<g filter="url(#filter4_d_2306_3808)">
<path d="M118.48 103.951C129.197 104.072 137.758 112.315 137.573 122.325C137.388 132.101 128.741 140.154 118.506 140.072C108.107 139.99 99.572 131.607 99.8034 121.705C100.028 111.986 108.603 103.844 118.48 103.951Z" fill="url(#paint8_linear_2306_3808)"/>
</g>
<g filter="url(#filter5_d_2306_3808)">
<path d="M259.285 122.126C259.285 132.035 250.961 140.025 240.615 140.057C230.367 140.088 221.819 132.009 221.733 122.208C221.64 112.021 230.281 103.917 241.21 103.93C251.047 103.942 259.291 112.237 259.291 122.12L259.285 122.126Z" fill="url(#paint9_linear_2306_3808)"/>
</g>
<g filter="url(#filter6_d_2306_3808)">
<path d="M179.627 179.55C171.442 178.423 163.363 177.36 156.441 172.706C153.149 170.49 150.339 167.844 149.235 163.962C148.316 160.74 149.705 157.606 152.607 156.181C155.476 154.776 158.901 155.295 160.798 158.093C163.535 162.133 167.561 164 172.116 164.285C177.762 164.634 183.501 164.412 189.134 163.861C192.902 163.494 196.049 161.525 198.29 158.27C200.3 155.352 203.692 154.738 206.733 156.244C209.615 157.675 211.076 161.253 209.899 164.425C208.385 168.489 205.272 171.294 201.549 173.498C194.813 177.493 187.19 178.544 179.62 179.55H179.627Z" fill="url(#paint10_linear_2306_3808)"/>
</g>
</g>
<defs>
<filter id="filter0_d_2306_3808" x="0.930394" y="0" width="357.356" height="246.525" filterUnits="userSpaceOnUse" color-interpolation-filters="sRGB">
<feFlood flood-opacity="0" result="BackgroundImageFix"/>
<feColorMatrix in="SourceAlpha" type="matrix" values="0 0 0 0 0 0 0 0 0 0 0 0 0 0 0 0 0 0 127 0" result="hardAlpha"/>
<feOffset dy="0.0696061"/>
<feGaussianBlur stdDeviation="0.034803"/>
<feComposite in2="hardAlpha" operator="out"/>
<feColorMatrix type="matrix" values="0 0 0 0 0 0 0 0 0 0 0 0 0 0 0 0 0 0 0.25 0"/>
<feBlend mode="normal" in2="BackgroundImageFix" result="effect1_dropShadow_2306_3808"/>
<feBlend mode="normal" in="SourceGraphic" in2="effect1_dropShadow_2306_3808" result="shape"/>
</filter>
<filter id="filter1_d_2306_3808" x="32.7271" y="4.66064" width="293.851" height="230.317" filterUnits="userSpaceOnUse" color-interpolation-filters="sRGB">
<feFlood flood-opacity="0" result="BackgroundImageFix"/>
<feColorMatrix in="SourceAlpha" type="matrix" values="0 0 0 0 0 0 0 0 0 0 0 0 0 0 0 0 0 0 127 0" result="hardAlpha"/>
<feOffset dy="1.4"/>
<feGaussianBlur stdDeviation="0.7"/>
<feComposite in2="hardAlpha" operator="out"/>
<feColorMatrix type="matrix" values="0 0 0 0 0 0 0 0 0 0 0 0 0 0 0 0 0 0 0.25 0"/>
<feBlend mode="normal" in2="BackgroundImageFix" result="effect1_dropShadow_2306_3808"/>
<feBlend mode="normal" in="SourceGraphic" in2="effect1_dropShadow_2306_3808" result="shape"/>
</filter>
<filter id="filter2_d_2306_3808" x="12.4744" y="37.3428" width="31.1315" height="149.802" filterUnits="userSpaceOnUse" color-interpolation-filters="sRGB">
<feFlood flood-opacity="0" result="BackgroundImageFix"/>
<feColorMatrix in="SourceAlpha" type="matrix" values="0 0 0 0 0 0 0 0 0 0 0 0 0 0 0 0 0 0 127 0" result="hardAlpha"/>
<feOffset dy="1.4"/>
<feGaussianBlur stdDeviation="0.7"/>
<feComposite in2="hardAlpha" operator="out"/>
<feColorMatrix type="matrix" values="0 0 0 0 0 0 0 0 0 0 0 0 0 0 0 0 0 0 0.25 0"/>
<feBlend mode="normal" in2="BackgroundImageFix" result="effect1_dropShadow_2306_3808"/>
<feBlend mode="normal" in="SourceGraphic" in2="effect1_dropShadow_2306_3808" result="shape"/>
</filter>
<filter id="filter3_d_2306_3808" x="315.45" y="40.1201" width="31.0737" height="147.069" filterUnits="userSpaceOnUse" color-interpolation-filters="sRGB">
<feFlood flood-opacity="0" result="BackgroundImageFix"/>
<feColorMatrix in="SourceAlpha" type="matrix" values="0 0 0 0 0 0 0 0 0 0 0 0 0 0 0 0 0 0 127 0" result="hardAlpha"/>
<feOffset dy="1.4"/>
<feGaussianBlur stdDeviation="0.7"/>
<feComposite in2="hardAlpha" operator="out"/>
<feColorMatrix type="matrix" values="0 0 0 0 0 0 0 0 0 0 0 0 0 0 0 0 0 0 0.25 0"/>
<feBlend mode="normal" in2="BackgroundImageFix" result="effect1_dropShadow_2306_3808"/>
<feBlend mode="normal" in="SourceGraphic" in2="effect1_dropShadow_2306_3808" result="shape"/>
</filter>
<filter id="filter4_d_2306_3808" x="98.3988" y="103.95" width="40.5773" height="38.9226" filterUnits="userSpaceOnUse" color-interpolation-filters="sRGB">
<feFlood flood-opacity="0" result="BackgroundImageFix"/>
<feColorMatrix in="SourceAlpha" type="matrix" values="0 0 0 0 0 0 0 0 0 0 0 0 0 0 0 0 0 0 127 0" result="hardAlpha"/>
<feOffset dy="1.4"/>
<feGaussianBlur stdDeviation="0.7"/>
<feComposite in2="hardAlpha" operator="out"/>
<feColorMatrix type="matrix" values="0 0 0 0 0 0 0 0 0 0 0 0 0 0 0 0 0 0 0.25 0"/>
<feBlend mode="normal" in2="BackgroundImageFix" result="effect1_dropShadow_2306_3808"/>
<feBlend mode="normal" in="SourceGraphic" in2="effect1_dropShadow_2306_3808" result="shape"/>
</filter>
<filter id="filter5_d_2306_3808" x="220.332" y="103.93" width="40.3589" height="38.927" filterUnits="userSpaceOnUse" color-interpolation-filters="sRGB">
<feFlood flood-opacity="0" result="BackgroundImageFix"/>
<feColorMatrix in="SourceAlpha" type="matrix" values="0 0 0 0 0 0 0 0 0 0 0 0 0 0 0 0 0 0 127 0" result="hardAlpha"/>
<feOffset dy="1.4"/>
<feGaussianBlur stdDeviation="0.7"/>
<feComposite in2="hardAlpha" operator="out"/>
<feColorMatrix type="matrix" values="0 0 0 0 0 0 0 0 0 0 0 0 0 0 0 0 0 0 0.25 0"/>
<feBlend mode="normal" in2="BackgroundImageFix" result="effect1_dropShadow_2306_3808"/>
<feBlend mode="normal" in="SourceGraphic" in2="effect1_dropShadow_2306_3808" result="shape"/>
</filter>
<filter id="filter6_d_2306_3808" x="147.554" y="155.428" width="64.1538" height="26.9226" filterUnits="userSpaceOnUse" color-interpolation-filters="sRGB">
<feFlood flood-opacity="0" result="BackgroundImageFix"/>
<feColorMatrix in="SourceAlpha" type="matrix" values="0 0 0 0 0 0 0 0 0 0 0 0 0 0 0 0 0 0 127 0" result="hardAlpha"/>
<feOffset dy="1.4"/>
<feGaussianBlur stdDeviation="0.7"/>
<feComposite in2="hardAlpha" operator="out"/>
<feColorMatrix type="matrix" values="0 0 0 0 0 0 0 0 0 0 0 0 0 0 0 0 0 0 0.25 0"/>
<feBlend mode="normal" in2="BackgroundImageFix" result="effect1_dropShadow_2306_3808"/>
<feBlend mode="normal" in="SourceGraphic" in2="effect1_dropShadow_2306_3808" result="shape"/>
</filter>
<linearGradient id="paint0_linear_2306_3808" x1="69.4858" y1="11.5198" x2="341.051" y2="170.121" gradientUnits="userSpaceOnUse">
<stop stop-color="#FD874E"/>
<stop offset="0.5" stop-color="#E453A8"/>
<stop offset="1" stop-color="#6F56B4"/>
</linearGradient>
<linearGradient id="paint1_linear_2306_3808" x1="17.3163" y1="41.7746" x2="52.4953" y2="44.8699" gradientUnits="userSpaceOnUse">
<stop stop-color="#FD874E"/>
<stop offset="0.5" stop-color="#E453A8"/>
<stop offset="1" stop-color="#6F56B4"/>
</linearGradient>
<linearGradient id="paint2_linear_2306_3808" x1="320.285" y1="44.4695" x2="355.382" y2="47.6098" gradientUnits="userSpaceOnUse">
<stop stop-color="#6F56B4"/>
<stop offset="0.5" stop-color="#E453A8"/>
<stop offset="1" stop-color="#FD874E"/>
</linearGradient>
<linearGradient id="paint3_linear_2306_3808" x1="127.543" y1="229.95" x2="139.232" y2="273.244" gradientUnits="userSpaceOnUse">
<stop stop-color="#FD874E"/>
<stop offset="0.5" stop-color="#E453A8"/>
<stop offset="1" stop-color="#6F56B4"/>
</linearGradient>
<linearGradient id="paint4_linear_2306_3808" x1="16.9189" y1="1.12887" x2="57.0066" y2="20.4093" gradientUnits="userSpaceOnUse">
<stop stop-color="#FD874E"/>
<stop offset="0.5" stop-color="#E453A8"/>
<stop offset="1" stop-color="#6F56B4"/>
</linearGradient>
<linearGradient id="paint5_linear_2306_3808" x1="313.658" y1="4.18505" x2="353.97" y2="23.6399" gradientUnits="userSpaceOnUse">
<stop stop-color="#6F56B4"/>
<stop offset="0.5" stop-color="#E453A8"/>
<stop offset="1" stop-color="#FD874E"/>
</linearGradient>
<linearGradient id="paint6_linear_2306_3808" x1="2.76046" y1="115.906" x2="20.3744" y2="118.929" gradientUnits="userSpaceOnUse">
<stop stop-color="#FD874E"/>
<stop offset="0.5" stop-color="#E453A8"/>
<stop offset="1" stop-color="#6F56B4"/>
</linearGradient>
<linearGradient id="paint7_linear_2306_3808" x1="345.687" y1="115.858" x2="363.038" y2="118.789" gradientUnits="userSpaceOnUse">
<stop stop-color="#6F56B4"/>
<stop offset="0.5" stop-color="#E453A8"/>
<stop offset="1" stop-color="#FD874E"/>
</linearGradient>
<linearGradient id="paint8_linear_2306_3808" x1="104.388" y1="105.039" x2="142.884" y2="123.419" gradientUnits="userSpaceOnUse">
<stop stop-color="#FD874E"/>
<stop offset="0.5" stop-color="#E453A8"/>
<stop offset="1" stop-color="#6F56B4"/>
</linearGradient>
<linearGradient id="paint9_linear_2306_3808" x1="226.295" y1="105.019" x2="264.652" y2="123.224" gradientUnits="userSpaceOnUse">
<stop stop-color="#6F56B4"/>
<stop offset="0.5" stop-color="#E453A8"/>
<stop offset="1" stop-color="#FD874E"/>
</linearGradient>
<linearGradient id="paint10_linear_2306_3808" x1="156.408" y1="156.155" x2="189.1" y2="194.116" gradientUnits="userSpaceOnUse">
<stop stop-color="#FD874E"/>
<stop offset="0.5" stop-color="#E453A8"/>
<stop offset="1" stop-color="#6F56B4"/>
</linearGradient>
</defs>
</svg>
