<svg width="28" height="28" viewBox="0 0 28 28" fill="none" xmlns="http://www.w3.org/2000/svg">
<path id="Vector" fill-rule="evenodd" clip-rule="evenodd" d="M14.0693 0.800781C21.4913 0.800781 27.9579 5.8604 27.9579 12.6061C27.9579 16.0185 26.1023 18.9671 23.5149 21.342C20.9219 23.7239 17.4609 25.6614 13.8901 27.0905C13.5317 27.2349 13.1319 27.2376 12.7716 27.0981C12.4113 26.9585 12.1175 26.6872 11.9499 26.3391C11.8054 26.035 11.7693 25.71 11.7596 25.3808L11.754 24.6378C11.7511 24.5561 11.7455 24.4746 11.7374 24.3933C11.6901 23.9086 11.5624 23.6017 11.0527 23.5114C5.10834 22.4753 0.180664 18.4948 0.180664 12.6061C0.180664 5.8604 6.64719 0.800781 14.0693 0.800781ZM16.847 9.13394C16.4786 9.13394 16.1254 9.28026 15.8649 9.54072C15.6044 9.80119 15.4581 10.1544 15.4581 10.5228V10.8533L14.4415 9.63393C14.2587 9.41479 14.0129 9.25726 13.7375 9.18275C13.4621 9.10824 13.1704 9.12037 12.9021 9.21749C12.6338 9.31461 12.4019 9.49201 12.238 9.72555C12.0741 9.9591 11.9861 10.2375 11.986 10.5228V14.6894C11.986 15.0577 12.1323 15.411 12.3928 15.6714C12.6532 15.9319 13.0065 16.0782 13.3748 16.0782C13.7432 16.0782 14.0964 15.9319 14.3569 15.6714C14.6174 15.411 14.7637 15.0577 14.7637 14.6894V14.3588L15.7803 15.5782C15.9631 15.7974 16.2089 15.9549 16.4843 16.0294C16.7597 16.1039 17.0514 16.0918 17.3197 15.9947C17.588 15.8976 17.8199 15.7202 17.9838 15.4866C18.1477 15.2531 18.2357 14.9747 18.2358 14.6894V10.5228C18.2358 10.1544 18.0895 9.80119 17.8291 9.54072C17.5686 9.28026 17.2153 9.13394 16.847 9.13394ZM5.7361 9.13394C5.36775 9.13394 5.01449 9.28026 4.75403 9.54072C4.49357 9.80119 4.34724 10.1544 4.34724 10.5228V14.6894C4.34724 15.0577 4.49357 15.411 4.75403 15.6714C5.01449 15.9319 5.36775 16.0782 5.7361 16.0782H7.12496C7.49331 16.0782 7.84657 15.9319 8.10703 15.6714C8.36749 15.411 8.51382 15.0577 8.51382 14.6894C8.51382 14.321 8.36749 13.9678 8.10703 13.7073C7.84657 13.4468 7.49331 13.3005 7.12496 13.3005V10.5228C7.12496 10.1544 6.97864 9.80119 6.71817 9.54072C6.45771 9.28026 6.10445 9.13394 5.7361 9.13394ZM9.90268 9.13394C9.5625 9.13398 9.23417 9.25887 8.97996 9.48492C8.72575 9.71097 8.56334 10.0225 8.52354 10.3603L8.51382 10.5228V14.6894C8.51421 15.0434 8.64976 15.3839 8.89277 15.6413C9.13578 15.8987 9.4679 16.0536 9.82129 16.0743C10.1747 16.0951 10.5226 15.9801 10.7941 15.7529C11.0656 15.5257 11.24 15.2034 11.2818 14.8519L11.2915 14.6894V10.5228C11.2915 10.1544 11.1452 9.80119 10.8848 9.54072C10.6243 9.28026 10.271 9.13394 9.90268 9.13394ZM22.4024 9.13394H20.3191C19.9789 9.13398 19.6506 9.25887 19.3964 9.48492C19.1422 9.71097 18.9798 10.0225 18.94 10.3603L18.9303 10.5228V14.6894C18.9303 15.0296 19.0552 15.3579 19.2813 15.6121C19.5073 15.8663 19.8188 16.0287 20.1566 16.0685L20.3191 16.0782H22.4024C22.7564 16.0778 23.0969 15.9423 23.3543 15.6993C23.6117 15.4563 23.7666 15.1242 23.7873 14.7708C23.8081 14.4174 23.6931 14.0694 23.4659 13.798C23.2387 13.5265 22.9164 13.352 22.5649 13.3102L22.4024 13.3005H22.2163C22.3236 13.1157 22.3867 12.9085 22.4004 12.6953C22.4141 12.482 22.3782 12.2684 22.2955 12.0714L22.2163 11.9117H22.4024C22.7564 11.9113 23.0969 11.7757 23.3543 11.5327C23.6117 11.2897 23.7666 10.9576 23.7873 10.6042C23.8081 10.2508 23.6931 9.90284 23.4659 9.63138C23.2387 9.35993 22.9164 9.18547 22.5649 9.14366L22.4024 9.13394Z" fill="#FFE1C9"/>
</svg>
