<svg width="17" height="18" viewBox="0 0 17 18" fill="none" xmlns="http://www.w3.org/2000/svg">
<path d="M13.0606 2.82C12.377 2.03962 12.0003 1.03743 12.0006 0H8.91061V12.4C8.88677 13.071 8.60348 13.7066 8.12037 14.1729C7.63727 14.6393 6.99205 14.8999 6.32061 14.9C4.90061 14.9 3.72061 13.74 3.72061 12.3C3.72061 10.58 5.38061 9.29 7.09061 9.82V6.66C3.64061 6.2 0.620605 8.88 0.620605 12.3C0.620605 15.63 3.38061 18 6.31061 18C9.45061 18 12.0006 15.45 12.0006 12.3V6.01C13.2536 6.90985 14.758 7.39265 16.3006 7.39V4.3C16.3006 4.3 14.4206 4.39 13.0606 2.82Z" fill="#F77F5A"/>
</svg>
