<svg width="13" height="15" viewBox="0 0 13 15" fill="none" xmlns="http://www.w3.org/2000/svg">
<path d="M10.2633 2.49318C9.70959 1.86108 9.40446 1.0493 9.40469 0.208984H6.90179V10.253C6.88249 10.7965 6.65301 11.3113 6.2617 11.6891C5.87038 12.0668 5.34776 12.2779 4.80389 12.278C3.65369 12.278 2.69789 11.3384 2.69789 10.172C2.69789 8.77878 4.04249 7.73388 5.42759 8.16318V5.60358C2.63309 5.23098 0.18689 7.40178 0.18689 10.172C0.18689 12.8693 2.42249 14.789 4.79579 14.789C7.33919 14.789 9.40469 12.7235 9.40469 10.172V5.07708C10.4196 5.80596 11.6382 6.19703 12.8877 6.19488V3.69198C12.8877 3.69198 11.3649 3.76488 10.2633 2.49318Z" fill="url(#paint0_linear_767_1154)"/>
<defs>
<linearGradient id="paint0_linear_767_1154" x1="6.53729" y1="0.208984" x2="6.53729" y2="14.789" gradientUnits="userSpaceOnUse">
<stop stop-color="#FFE1C9"/>
<stop offset="1" stop-color="#FFC291"/>
</linearGradient>
</defs>
</svg>
