<svg width="28" height="16" viewBox="0 0 28 16" fill="none" xmlns="http://www.w3.org/2000/svg">
<path id="Vector" d="M3.19999 15.1998C2.53999 15.1998 1.97519 14.965 1.50559 14.4954C1.03599 14.0258 0.80079 13.4606 0.79999 12.7998C0.79919 12.139 1.03439 11.5742 1.50559 11.1054C1.97679 10.6366 2.54159 10.4014 3.19999 10.3998H3.51559C3.60519 10.3998 3.69999 10.4198 3.79999 10.4598L9.25999 4.99981C9.21999 4.89981 9.19999 4.80461 9.19999 4.71421V4.39981C9.19999 3.73981 9.43519 3.17501 9.90559 2.70541C10.376 2.23581 10.9408 2.00061 11.6 1.99981C12.2592 1.99901 12.8244 2.23421 13.2956 2.70541C13.7668 3.17661 14.0016 3.74141 14 4.39981C14 4.43981 13.98 4.63981 13.94 4.99981L17 8.05981C17.1 8.01981 17.1952 7.99981 17.2856 7.99981H17.9156C18.0052 7.99981 18.1 8.01981 18.2 8.05981L22.46 3.79981C22.42 3.69981 22.4 3.60461 22.4 3.51421V3.19981C22.4 2.53981 22.6352 1.97501 23.1056 1.50541C23.576 1.03581 24.1408 0.800607 24.8 0.799807C25.4592 0.799007 26.0244 1.03421 26.4956 1.50541C26.9668 1.97661 27.2016 2.54141 27.2 3.19981C27.1984 3.85821 26.9636 4.42341 26.4956 4.89541C26.0276 5.36741 25.4624 5.60221 24.8 5.59981H24.4856C24.3952 5.59981 24.3 5.57981 24.2 5.53981L19.94 9.79981C19.98 9.89981 20 9.99501 20 10.0854V10.3998C20 11.0598 19.7652 11.625 19.2956 12.0954C18.826 12.5658 18.2608 12.8006 17.6 12.7998C16.9392 12.799 16.3744 12.5642 15.9056 12.0954C15.4368 11.6266 15.2016 11.0614 15.2 10.3998V10.0854C15.2 9.99501 15.22 9.89981 15.26 9.79981L12.2 6.73981C12.1 6.77981 12.0048 6.79981 11.9144 6.79981H11.6C11.56 6.79981 11.36 6.77981 11 6.73981L5.53999 12.1998C5.57999 12.2998 5.59999 12.395 5.59999 12.4854V12.7998C5.59999 13.4598 5.36519 14.025 4.89559 14.4954C4.42599 14.9658 3.86079 15.2006 3.19999 15.1998Z" fill="#E8E1FB"/>
</svg>
