<svg width="28" height="16" viewBox="0 0 28 16" fill="none" xmlns="http://www.w3.org/2000/svg">
<path id="Vector" d="M3.20005 15.2008C2.54005 15.2008 1.97525 14.966 1.50565 14.4964C1.03605 14.0268 0.800851 13.4616 0.800051 12.8008C0.799251 12.14 1.03445 11.5752 1.50565 11.1064C1.97685 10.6376 2.54165 10.4024 3.20005 10.4008H3.51565C3.60525 10.4008 3.70005 10.4208 3.80005 10.4608L9.26005 5.00078C9.22005 4.90078 9.20005 4.80558 9.20005 4.71518V4.40078C9.20005 3.74078 9.43525 3.17598 9.90565 2.70638C10.3761 2.23678 10.9409 2.00158 11.6001 2.00078C12.2593 1.99998 12.8245 2.23518 13.2957 2.70638C13.7669 3.17758 14.0017 3.74238 14.0001 4.40078C14.0001 4.44078 13.9801 4.64078 13.9401 5.00078L17.0001 8.06078C17.1001 8.02078 17.1953 8.00078 17.2857 8.00078H17.9157C18.0053 8.00078 18.1001 8.02078 18.2001 8.06078L22.4601 3.80078C22.4201 3.70078 22.4001 3.60558 22.4001 3.51518V3.20078C22.4001 2.54078 22.6353 1.97598 23.1057 1.50638C23.5761 1.03678 24.1409 0.801583 24.8001 0.800783C25.4593 0.799983 26.0245 1.03518 26.4957 1.50638C26.9669 1.97758 27.2017 2.54238 27.2001 3.20078C27.1985 3.85918 26.9637 4.42438 26.4957 4.89638C26.0277 5.36838 25.4625 5.60318 24.8001 5.60078H24.4857C24.3953 5.60078 24.3001 5.58078 24.2001 5.54078L19.9401 9.80078C19.9801 9.90078 20.0001 9.99598 20.0001 10.0864V10.4008C20.0001 11.0608 19.7653 11.626 19.2957 12.0964C18.8261 12.5668 18.2609 12.8016 17.6001 12.8008C16.9393 12.8 16.3745 12.5652 15.9057 12.0964C15.4369 11.6276 15.2017 11.0624 15.2001 10.4008V10.0864C15.2001 9.99598 15.2201 9.90078 15.2601 9.80078L12.2001 6.74078C12.1001 6.78078 12.0049 6.80078 11.9145 6.80078H11.6001C11.5601 6.80078 11.3601 6.78078 11.0001 6.74078L5.54005 12.2008C5.58005 12.3008 5.60005 12.396 5.60005 12.4864V12.8008C5.60005 13.4608 5.36525 14.026 4.89565 14.4964C4.42605 14.9668 3.86085 15.2016 3.20005 15.2008Z" fill="#F77F5A"/>
</svg>
