<svg width="44" height="28" viewBox="0 0 44 28" fill="none" xmlns="http://www.w3.org/2000/svg">
<path d="M0 18V0H24C35 0 44 9 44 20V24H39.66C39.2488 25.1719 38.4828 26.1868 37.4686 26.9036C36.4543 27.6204 35.242 28.0036 34 28C32.758 28.0036 31.5457 27.6204 30.5314 26.9036C29.5172 26.1868 28.7512 25.1719 28.34 24H18C16.7394 25.6766 14.9837 26.9145 12.9811 27.5388C10.9786 28.163 8.83043 28.142 6.84045 27.4786C4.85047 26.8153 3.11935 25.5433 1.89183 23.8423C0.664312 22.1414 0.00251162 20.0976 0 18ZM10 12C6.68 12 4 14.68 4 18C4 21.32 6.68 24 10 24C13.32 24 16 21.32 16 18C16 14.68 13.32 12 10 12ZM28 10V14H38.5C37.84 12.54 37 11.2 36 10H28Z" fill="white"/>
</svg>
