<svg width="17" height="17" viewBox="0 0 17 17" fill="none" xmlns="http://www.w3.org/2000/svg">
<path d="M13.5438 14.2963L14.1076 13.7324L12.5972 12.222V9.96647H11.7917V12.5443L13.5438 14.2963ZM12.1944 16.4109C11.0801 16.4109 10.1303 16.0181 9.3452 15.2324C8.56005 14.4467 8.16721 13.497 8.16667 12.3831C8.16613 11.2693 8.55898 10.3196 9.3452 9.53389C10.1314 8.7482 11.0812 8.35536 12.1944 8.35536C13.3077 8.35536 14.2577 8.7482 15.0445 9.53389C15.8313 10.3196 16.2238 11.2693 16.2222 12.3831C16.2206 13.497 15.8278 14.447 15.0437 15.2332C14.2596 16.0194 13.3099 16.412 12.1944 16.4109ZM3.33334 5.13314H11.3889V3.52203H3.33334V5.13314ZM7.09931 14.7998H1.72223C1.27917 14.7998 0.900022 14.6422 0.584781 14.3269C0.26954 14.0117 0.111652 13.6323 0.111115 13.1887V1.91092C0.111115 1.46786 0.269003 1.08871 0.584781 0.773471C0.900559 0.458231 1.27971 0.300342 1.72223 0.299805H13C13.4431 0.299805 13.8225 0.457694 14.1383 0.773471C14.454 1.08925 14.6117 1.4684 14.6111 1.91092V7.30814C14.2218 7.12018 13.8289 6.9792 13.4326 6.88522C13.0363 6.79124 12.6235 6.74425 12.1944 6.74425C12.0468 6.74425 11.909 6.74747 11.7812 6.75392C11.6534 6.76036 11.5226 6.77728 11.3889 6.80467V6.74425H3.33334V8.35536H8.26736C8.0257 8.5836 7.80766 8.83198 7.61325 9.1005C7.41885 9.36902 7.24753 9.65768 7.09931 9.96647H3.33334V11.5776H6.61598C6.58912 11.7118 6.57248 11.8429 6.56603 11.9707C6.55959 12.0985 6.5561 12.236 6.55556 12.3831C6.55556 12.8262 6.59584 13.2392 6.67639 13.6221C6.75695 14.005 6.89792 14.3976 7.09931 14.7998Z" fill="url(#paint0_linear_767_1986)"/>
<defs>
<linearGradient id="paint0_linear_767_1986" x1="8.16667" y1="0.299805" x2="8.16667" y2="16.4109" gradientUnits="userSpaceOnUse">
<stop stop-color="#FFE1C9"/>
<stop offset="1" stop-color="#FFC291"/>
</linearGradient>
</defs>
</svg>
