<svg width="329" height="280" viewBox="0 0 329 280" fill="none" xmlns="http://www.w3.org/2000/svg">
<g filter="url(#filter0_d_1271_3194)">
<path d="M262.186 0.579491C274.132 0.562003 286.092 0.185998 298.014 0.645074C307.47 1.00796 314.59 8.11271 314.912 17.2286C315.043 20.9362 314.954 24.6482 314.954 28.3558C314.954 59.7084 314.973 91.0567 314.912 122.409C314.912 124.521 315.243 125.501 317.84 126.008C321.864 126.795 324.382 129.654 325.856 133.248C325.982 133.558 326.243 133.821 326.443 134.105V267.263C324.751 270.547 322.867 273.69 318.964 275.098C317.896 275.483 316.749 275.929 315.635 275.929C297.198 275.968 278.767 275.942 260.33 275.929C260.642 273.327 260.95 270.721 261.263 268.12C262.191 268.094 263.118 268.05 264.051 268.05C280.259 268.046 296.466 268.05 312.669 268.041C316.619 268.041 317.677 267.062 317.677 263.459C317.677 221.648 317.677 179.842 317.677 138.031C317.677 134.341 316.875 133.593 312.903 133.593C297.24 133.589 281.574 133.593 265.911 133.585C264.983 133.585 264.06 133.502 263.132 133.458C262.974 130.835 262.82 128.211 262.661 125.588C269.558 125.527 276.454 125.374 283.345 125.461C285.644 125.492 286.362 125.02 286.353 122.724C286.25 100.103 286.288 77.4812 286.292 54.8641C286.292 45.9187 286.33 36.9733 286.348 28.0278C286.157 27.7655 285.966 27.4988 285.779 27.2365C278.226 27.2146 270.672 27.1928 263.114 27.1709C263.114 24.5782 263.118 21.9855 263.123 19.3929C272.038 19.3535 280.963 19.0955 289.869 19.3754C293.748 19.4978 294.83 20.9231 294.825 24.2765C294.764 57.0021 294.788 89.732 294.792 122.458C294.792 123.367 294.792 124.272 294.792 125.339C297.963 125.339 300.751 125.212 303.526 125.378C305.755 125.514 306.421 124.84 306.417 122.711C306.351 88.2411 306.37 53.7667 306.365 19.2923C306.365 12.1263 302.435 8.47997 294.76 8.46685C284.059 8.44499 273.358 8.41876 262.652 8.39252C262.498 5.79109 262.34 3.18529 262.186 0.583864V0.579491Z" fill="white"/>
<path d="M56.3866 224.329C51.5793 224.377 46.7766 224.456 41.9693 224.474C35.2177 224.5 28.4613 224.347 21.719 224.509C10.4725 224.775 2.27068 216.088 2.29399 206.229C2.45253 143.729 2.37326 81.2244 2.37792 18.7246C2.37792 10.2076 6.82619 4.19154 15.3077 1.27969C16.3149 0.934291 17.406 0.597636 18.4597 0.593264C30.485 0.549542 42.5102 0.575775 54.5354 0.580147C54.5354 3.17283 54.5354 5.76552 54.5308 8.3582C43.9836 8.38443 33.4318 8.37132 22.8847 8.47188C20.9823 8.48937 18.9214 8.62053 17.2148 9.30696C12.967 11.0165 11.0973 14.1688 11.1019 18.624C11.1672 74.7755 11.1439 130.931 11.1439 187.083C11.1439 193.921 11.1113 200.759 11.1719 207.593C11.2092 211.886 14.529 215.384 19.1545 216.175C20.0404 216.315 20.9263 216.569 21.8123 216.573C33.3432 216.617 44.8742 216.621 56.4005 216.634C56.4005 219.201 56.4005 221.763 56.3959 224.329H56.3866Z" fill="white"/>
<path d="M234.251 275.924C227.677 276.203 222.622 272.142 221.783 265.903C221.904 265.57 222.123 265.238 222.128 264.906C222.147 251.925 222.151 238.948 222.105 225.967C222.105 225.465 221.545 224.966 221.251 224.468C218.291 224.42 215.33 224.372 212.369 224.323C212.369 221.757 212.369 219.191 212.364 216.628C214.728 216.611 217.097 216.646 219.461 216.541C220.067 216.515 220.65 216.038 221.247 215.767C221.265 213.017 221.219 210.263 221.331 207.517C221.391 206.065 220.804 205.611 219.316 205.672C217.782 205.737 216.239 205.593 214.7 205.541C214.7 202.909 214.7 200.272 214.7 197.64C216.901 197.575 219.102 197.509 221.298 197.443C221.578 196.639 222.1 195.83 222.105 195.026C222.151 176.068 222.142 157.106 222.128 138.148C222.128 137.287 221.979 136.421 221.9 135.56C222.426 133.925 222.608 132.089 223.536 130.689C227.029 125.417 232.573 124.993 238.438 125.587C238.438 127.183 238.55 128.792 238.41 130.379C238.238 132.355 239.156 132.88 241.124 132.832C245.381 132.727 249.648 132.766 253.905 132.832C254.646 132.841 255.378 133.247 256.115 133.466C249.139 133.51 242.169 133.562 235.193 133.593C231.146 133.614 230.111 134.559 230.111 138.363C230.111 179.95 230.111 221.538 230.111 263.126C230.111 266.685 230.903 267.529 234.713 268.119C234.559 270.721 234.4 273.326 234.247 275.928L234.251 275.924Z" fill="white"/>
<path d="M119.246 245.092H131.364V224.316C127.079 224.316 122.929 224.316 118.779 224.316C118.779 221.758 118.779 219.2 118.779 216.643C126.851 216.643 134.922 216.643 142.993 216.643C142.993 219.235 142.993 221.832 142.993 224.425C140.853 224.25 140.088 225.063 140.153 227.162C140.317 232.207 140.317 237.266 140.153 242.311C140.088 244.41 140.839 245.228 142.993 245.031C142.527 247.781 141.767 250.579 144.387 252.848C136.162 252.848 127.937 252.848 119.707 252.848C119.553 250.264 119.395 247.68 119.241 245.097L119.246 245.092Z" fill="white"/>
<path d="M193.737 224.317C191.657 224.369 189.564 224.334 187.498 224.527C186.906 224.583 186.314 225.235 185.857 225.724C185.666 225.93 185.82 226.424 185.82 226.787C185.82 232.724 185.82 238.662 185.82 245.097C188.407 245.097 190.841 245.097 193.275 245.097C193.429 247.681 193.588 250.265 193.742 252.849C186.137 252.849 178.532 252.849 170.927 252.849C170.927 250.243 170.927 247.638 170.927 245.036H176.872V224.426H171.393C171.393 221.833 171.393 219.241 171.393 216.644C178.844 216.644 186.291 216.639 193.742 216.635C193.742 219.197 193.742 221.759 193.742 224.321L193.737 224.317Z" fill="white"/>
<path d="M193.742 252.844C193.588 250.26 193.429 247.676 193.275 245.092C196.222 245.122 199.174 245.153 202.121 245.188C202.568 245.306 203.021 245.424 203.468 245.538C210.248 246.513 215.894 252.691 216.179 259.669C216.342 263.656 216.272 267.652 216.221 271.644C216.183 274.381 214.482 275.99 211.619 275.999C206.126 276.016 200.633 275.95 195.136 275.915C195.136 273.318 195.136 270.721 195.136 268.129C198.46 268.102 201.794 267.954 205.109 268.089C207.222 268.177 207.86 267.451 207.683 265.58C207.543 264.067 207.674 262.532 207.646 261.011C207.562 256.149 204.289 253.062 199.071 252.918C197.295 252.87 195.514 252.865 193.737 252.839L193.742 252.844Z" fill="white"/>
<path d="M119.246 245.091C119.4 247.675 119.558 250.259 119.712 252.843C119.017 252.874 118.318 252.874 117.628 252.939C113.846 253.32 110.55 255.414 110.13 258.426C109.696 261.526 110.032 264.718 110.032 268.15H118.779C118.779 270.743 118.779 273.331 118.779 275.924C114.299 275.95 109.818 276.029 105.337 275.985C102.94 275.963 101.201 274.402 101.164 272.172C101.089 267.678 100.879 263.161 101.252 258.693C101.947 250.408 110.116 244.387 119.241 245.096L119.246 245.091Z" fill="white"/>
<path d="M142.526 0.578125C154.477 0.578125 166.423 0.578125 178.373 0.578125C178.373 3.17518 178.373 5.77224 178.373 8.36929C166.423 8.36929 154.472 8.36492 142.521 8.36055C142.521 5.76787 142.521 3.17081 142.521 0.578125H142.526Z" fill="white"/>
<path d="M56.3857 224.33C56.3857 221.763 56.3857 219.201 56.3904 216.635C68.1872 216.635 79.9793 216.635 91.776 216.639C91.776 219.201 91.776 221.759 91.776 224.321C87.6914 224.373 83.6069 224.474 79.5223 224.47C71.8101 224.457 64.0979 224.378 56.3857 224.33Z" fill="white"/>
<path d="M81.5322 0.583984C92.084 0.583984 102.64 0.583984 113.192 0.583984C113.192 3.18104 113.192 5.77373 113.192 8.37078C102.64 8.37078 92.084 8.36641 81.5322 8.36204C81.5322 5.76935 81.5322 3.18104 81.5322 0.588357V0.583984Z" fill="white"/>
<path d="M208.645 0.574219C218.889 0.574219 229.133 0.574219 239.372 0.574219C239.526 3.18002 239.684 5.78145 239.838 8.38725C236.761 8.40911 233.683 8.43097 230.606 8.4572C224.684 8.50967 218.763 8.57088 212.841 8.62772C211.596 8.54465 210.356 8.46157 209.111 8.38288C208.957 5.78145 208.798 3.18002 208.645 0.578591V0.574219Z" fill="white"/>
<path d="M208.645 0.574219C208.799 3.17565 208.957 5.77708 209.111 8.3785C198.867 8.3785 188.623 8.36976 178.379 8.36976C178.379 5.7727 178.379 3.17565 178.379 0.578591C188.469 0.578591 198.555 0.578591 208.645 0.578591V0.574219Z" fill="white"/>
<path d="M172.326 275.921C162.548 275.921 152.77 275.921 142.992 275.921C142.992 273.328 142.992 270.735 142.992 268.143C152.924 268.143 162.86 268.143 172.792 268.143C172.638 270.735 172.479 273.328 172.326 275.925V275.921Z" fill="white"/>
<path d="M113.193 8.36492C113.193 5.76787 113.193 3.17518 113.193 0.578125C122.971 0.578125 132.749 0.578125 142.531 0.578125C142.531 3.17081 142.531 5.76787 142.531 8.36055C141.613 8.38678 140.694 8.42613 139.776 8.43925C134.339 8.50046 128.902 8.55292 123.465 8.60976C120.043 8.52669 116.62 8.44799 113.198 8.36492H113.193Z" fill="white"/>
<path d="M91.7764 224.321C91.7764 221.758 91.7764 219.201 91.7764 216.639C100.775 216.639 109.775 216.639 118.778 216.639C118.778 219.196 118.778 221.754 118.778 224.312C109.779 224.312 100.775 224.312 91.7764 224.312V224.321Z" fill="white"/>
<path d="M81.5318 0.582963C81.5318 3.17565 81.5318 5.76396 81.5318 8.35664C80.6133 8.38288 79.69 8.42223 78.7715 8.43097C73.1715 8.49218 67.5715 8.54465 61.9669 8.59711C59.4863 8.51404 57.0011 8.43534 54.5205 8.35227C54.5205 5.75959 54.5205 3.1669 54.5252 0.574219C63.5243 0.574219 72.528 0.574219 81.5271 0.574219L81.5318 0.582963Z" fill="white"/>
<path d="M234.252 275.924C234.406 273.322 234.564 270.717 234.718 268.115C243.563 268.115 252.413 268.115 261.259 268.115C260.946 270.717 260.638 273.322 260.326 275.924C251.635 275.924 242.943 275.924 234.252 275.924Z" fill="white"/>
<path d="M142.993 268.143C142.993 270.735 142.993 273.328 142.993 275.921C134.922 275.921 126.851 275.921 118.779 275.921C118.779 273.328 118.779 270.74 118.779 268.147C126.851 268.147 134.922 268.147 142.993 268.143Z" fill="white"/>
<path d="M239.837 8.38725C239.683 5.78145 239.525 3.18002 239.371 0.574219C246.976 0.574219 254.581 0.574219 262.186 0.574219C262.34 3.17565 262.498 5.78145 262.652 8.38288C255.047 8.38288 247.442 8.38288 239.837 8.38288V8.38725Z" fill="white"/>
<path d="M172.325 275.92C172.479 273.327 172.638 270.735 172.791 268.138C180.243 268.138 187.689 268.133 195.14 268.129C195.14 270.726 195.14 273.323 195.14 275.916C187.535 275.916 179.93 275.916 172.325 275.916V275.92Z" fill="white"/>
<path d="M193.737 224.316C193.737 221.754 193.737 219.191 193.737 216.629C199.943 216.629 206.154 216.629 212.36 216.625C212.36 219.191 212.36 221.758 212.365 224.32C206.154 224.32 199.943 224.32 193.732 224.316H193.737Z" fill="white"/>
<path d="M221.247 224.469C221.545 224.967 222.1 225.47 222.1 225.968C222.147 238.945 222.142 251.926 222.123 264.907C222.123 265.239 221.9 265.571 221.778 265.904C221.653 265.069 221.415 264.238 221.41 263.403C221.387 251.366 221.396 239.325 221.387 227.289C221.387 226.349 221.293 225.409 221.242 224.469H221.247Z" fill="white"/>
<path d="M203.473 245.541C203.025 245.423 202.573 245.305 202.125 245.191C202.573 245.309 203.025 245.428 203.473 245.541Z" fill="white"/>
<path d="M239.837 8.38914C247.442 8.38914 255.047 8.38914 262.652 8.38914C273.353 8.41537 284.054 8.44598 294.76 8.46346C302.435 8.47658 306.361 12.123 306.366 19.2889C306.37 53.7633 306.347 88.2333 306.417 122.708C306.417 124.837 305.755 125.51 303.526 125.375C300.756 125.209 297.963 125.335 294.793 125.335C294.793 124.269 294.793 123.359 294.793 122.454C294.793 89.7286 294.769 56.9987 294.825 24.2732C294.83 20.9197 293.748 19.4944 289.869 19.372C280.963 19.0922 272.043 19.3501 263.123 19.3895C255.826 19.3895 248.533 19.3895 241.241 19.3895C233.17 19.3938 225.098 19.3982 217.027 19.4026C215.475 19.3151 213.922 19.2277 212.369 19.1359C212.528 15.6338 212.686 12.1273 212.845 8.62523C218.766 8.5684 224.688 8.51156 230.61 8.45472C233.687 8.42849 236.765 8.40663 239.842 8.38477L239.837 8.38914Z" fill="white"/>
<path d="M261.258 268.115C252.413 268.115 243.563 268.115 234.717 268.115C230.908 267.525 230.115 266.681 230.115 263.122C230.115 221.534 230.115 179.947 230.115 138.359C230.115 134.555 231.15 133.606 235.198 133.589C242.173 133.554 249.144 133.506 256.119 133.462C258.455 133.462 260.791 133.457 263.128 133.453C264.055 133.497 264.979 133.58 265.906 133.58C281.569 133.589 297.236 133.58 312.898 133.589C316.866 133.589 317.668 134.336 317.672 138.026C317.672 179.837 317.672 221.644 317.672 263.455C317.672 267.057 316.614 268.032 312.665 268.037C296.457 268.05 280.249 268.037 264.046 268.045C263.118 268.045 262.19 268.093 261.258 268.115ZM259.388 136.033C252.646 135.993 245.908 135.937 239.166 135.915C234.102 135.897 232.852 137.082 232.852 141.835C232.852 178.617 232.852 215.4 232.852 252.183C232.852 252.765 232.82 253.351 232.871 253.928C233.09 256.424 234.652 258.024 237.315 258.051C243.591 258.112 249.867 258.024 256.147 257.994C256.842 258.02 257.542 258.072 258.236 258.072C275.293 258.077 292.349 258.081 309.405 258.077C313.439 258.077 315.164 256.45 315.164 252.62C315.168 215.549 315.168 178.473 315.164 141.402C315.164 137.545 313.378 135.923 309.172 135.923C294.443 135.923 279.713 135.923 264.983 135.928C264.214 135.928 263.44 136.006 262.671 136.046C261.579 136.041 260.488 136.037 259.397 136.033H259.388Z" fill="white"/>
<path d="M263.128 133.454C260.792 133.454 258.456 133.458 256.12 133.463C255.383 133.24 254.651 132.837 253.909 132.829C249.648 132.767 245.386 132.724 241.129 132.829C239.156 132.877 238.238 132.348 238.415 130.376C238.555 128.789 238.443 127.18 238.443 125.584C246.519 125.584 254.59 125.584 262.666 125.584C262.825 128.207 262.978 130.831 263.137 133.454H263.128Z" fill="white"/>
<path d="M241.236 19.3891C248.528 19.3891 255.826 19.3891 263.118 19.3891C263.118 21.9818 263.114 24.5745 263.109 27.1672C255.816 27.1672 248.519 27.1672 241.227 27.1672C241.227 24.5745 241.227 21.9818 241.231 19.3848L241.236 19.3891Z" fill="white"/>
<path d="M54.5214 8.35742C57.002 8.44049 59.4872 8.51919 61.9678 8.59789C61.814 12.0125 61.6647 15.4316 61.5109 18.8506C50.3622 18.855 39.2089 18.8506 28.0603 18.8987C27.235 18.8987 26.4097 19.3228 25.5844 19.5501C23.295 20.4114 22.4091 21.981 22.4137 24.3027C22.451 83.0906 22.437 141.878 22.4464 200.671C22.4464 204.169 23.7426 205.401 27.4915 205.41C36.803 205.428 46.1145 205.41 55.426 205.401C57.4543 205.537 59.4826 205.673 61.5109 205.808C61.5109 209.127 61.5109 212.445 61.5109 215.763C48.2733 215.763 35.0358 215.759 21.7936 215.785C20.9076 215.785 20.0264 216.043 19.1405 216.179C14.515 215.387 11.1951 211.894 11.1578 207.596C11.0972 200.758 11.1299 193.92 11.1299 187.087C11.1299 130.935 11.1532 74.7791 11.0879 18.6276C11.0832 14.1724 12.953 11.0201 17.2008 9.31055C18.9073 8.62412 20.9683 8.49296 22.8707 8.47547C33.4178 8.37491 43.9649 8.38803 54.5168 8.36179L54.5214 8.35742Z" fill="white"/>
<path d="M19.1455 216.173C20.0314 216.038 20.9127 215.78 21.7986 215.78C35.0362 215.754 48.2737 215.758 61.5159 215.758C91.6233 215.758 121.735 215.758 151.843 215.758C174.979 215.758 198.111 215.758 221.248 215.762C220.656 216.034 220.068 216.51 219.462 216.536C217.103 216.641 214.734 216.606 212.365 216.624C206.159 216.624 199.948 216.624 193.742 216.628C186.291 216.628 178.845 216.633 171.394 216.637C161.928 216.637 152.458 216.637 142.993 216.637C134.922 216.637 126.85 216.637 118.779 216.637C109.78 216.637 100.781 216.637 91.7772 216.637C79.9804 216.637 68.1883 216.637 56.3915 216.633C44.8606 216.619 33.3296 216.611 21.8033 216.571C20.9174 216.571 20.0314 216.313 19.1455 216.173Z" fill="white"/>
<path d="M221.243 215.763C198.106 215.763 174.974 215.763 151.838 215.759C151.838 212.444 151.838 209.13 151.838 205.812C153.139 205.768 154.44 205.698 155.745 205.681C161.117 205.615 166.488 205.563 171.86 205.506C179.623 205.506 187.382 205.506 195.146 205.51C201.664 205.519 208.183 205.523 214.696 205.532C216.235 205.585 217.778 205.729 219.313 205.663C220.8 205.602 221.387 206.052 221.327 207.508C221.215 210.254 221.262 213.008 221.243 215.759V215.763Z" fill="white"/>
<path d="M214.696 205.535C208.178 205.526 201.659 205.522 195.146 205.513C195.146 202.89 195.146 200.262 195.146 197.639C201.664 197.639 208.183 197.639 214.701 197.635C214.701 200.267 214.701 202.903 214.701 205.535H214.696Z" fill="white"/>
<path d="M221.298 197.44C221.312 177.695 221.317 157.951 221.358 138.206C221.358 137.323 221.713 136.44 221.899 135.557C221.979 136.418 222.128 137.279 222.128 138.145C222.142 157.103 222.146 176.065 222.105 195.022C222.105 195.831 221.578 196.636 221.298 197.44Z" fill="white"/>
<path d="M195.141 268.132C187.69 268.132 180.244 268.136 172.793 268.14C162.861 268.14 152.925 268.14 142.993 268.14C134.922 268.14 126.851 268.14 118.779 268.145C115.935 268.145 113.091 268.145 110.032 268.145C110.032 264.713 109.696 261.521 110.13 258.421C110.55 255.409 113.846 253.319 117.628 252.934C118.318 252.864 119.017 252.868 119.712 252.838C127.937 252.838 136.162 252.838 144.392 252.838C153.237 252.838 162.087 252.838 170.932 252.838C178.537 252.838 186.142 252.838 193.747 252.838C195.524 252.864 197.305 252.868 199.081 252.917C204.299 253.061 207.572 256.148 207.656 261.009C207.684 262.531 207.554 264.066 207.693 265.578C207.871 267.445 207.232 268.171 205.12 268.088C201.8 267.952 198.471 268.101 195.146 268.127L195.141 268.132Z" fill="white"/>
<path d="M171.393 224.421H176.872V245.031C174.886 245.031 172.904 245.031 170.927 245.031C161.615 245.031 152.304 245.031 142.992 245.031C140.843 245.224 140.088 244.406 140.153 242.312C140.316 237.266 140.316 232.208 140.153 227.162C140.083 225.064 140.848 224.25 142.992 224.425C152.458 224.425 161.928 224.425 171.393 224.425V224.421Z" fill="white"/>
<path d="M171.393 224.421C161.928 224.421 152.458 224.421 142.992 224.421C142.992 221.828 142.992 219.231 142.992 216.639C152.458 216.639 161.928 216.639 171.393 216.639C171.393 219.231 171.393 221.824 171.393 224.421Z" fill="white"/>
<path d="M142.993 245.026C152.304 245.026 161.616 245.026 170.927 245.026C170.927 247.632 170.927 250.237 170.927 252.839C162.082 252.839 153.232 252.839 144.387 252.839C141.766 250.574 142.526 247.776 142.993 245.021V245.026Z" fill="white"/>
<path d="M212.84 8.62803C212.682 12.1301 212.523 15.6366 212.365 19.1387C211.525 19.1868 210.691 19.2611 209.851 19.2698C205.259 19.3267 200.666 19.366 196.068 19.4141C187.535 19.4141 178.998 19.4185 170.465 19.4229C167.668 19.366 164.875 19.3092 162.077 19.2524C161.27 19.1212 160.459 18.8851 159.652 18.8807C153.012 18.8457 146.373 18.8501 139.733 18.8457C139.733 16.7471 139.742 14.6485 139.733 12.5498C139.719 9.9834 138.917 9.25325 136.11 9.2445C132.557 9.23576 129.009 9.27511 125.456 9.2139C124.789 9.20078 124.127 8.8204 123.46 8.61054C128.897 8.5537 134.333 8.50124 139.77 8.44003C140.689 8.43128 141.607 8.39193 142.526 8.36133C154.477 8.36133 166.427 8.3657 178.378 8.37007C188.622 8.37007 198.866 8.37882 209.11 8.37882C210.355 8.46189 211.6 8.54496 212.84 8.62366V8.62803Z" fill="white"/>
<path d="M123.459 8.61101C124.126 8.82087 124.783 9.20125 125.455 9.21436C129.003 9.27557 132.556 9.23622 136.109 9.24497C138.916 9.25371 139.714 9.98386 139.732 12.5503C139.746 14.6489 139.732 16.7476 139.732 18.8462C113.658 18.8462 87.5841 18.8462 61.5146 18.8506C61.6685 15.4316 61.8177 12.0169 61.9716 8.59789C67.5716 8.54542 73.1715 8.49296 78.7761 8.43175C79.6947 8.423 80.6179 8.38365 81.5365 8.35742C92.0883 8.35742 102.645 8.36179 113.197 8.36617C116.619 8.44924 120.041 8.52794 123.464 8.61101H123.459Z" fill="white"/>
<path d="M55.4214 205.396C46.1099 205.4 36.7984 205.426 27.4869 205.405C23.7427 205.396 22.4418 204.163 22.4418 200.665C22.4372 141.877 22.4418 83.0893 22.4092 24.297C22.4092 21.9754 23.2904 20.4058 25.5798 19.5488C26.4238 19.5882 27.2724 19.6625 28.1164 19.6669C37.3859 19.6844 46.6508 19.6887 55.9204 19.6931C55.9204 22.1852 55.9204 24.673 55.9204 27.1651C48.3947 27.1957 40.8737 27.2919 33.3527 27.222C31.4083 27.2045 30.8861 27.7422 30.8861 29.5479C30.9327 84.7682 30.9234 139.988 30.928 195.204C30.928 195.847 30.984 196.485 31.0353 197.622C39.237 197.622 47.3409 197.622 55.4448 197.622C55.4354 200.215 55.4261 202.803 55.4168 205.396H55.4214Z" fill="white"/>
<path d="M99.4793 41.1528C101.862 41.7518 104.184 42.2458 106.427 42.9672C106.87 43.1115 107.35 44.2177 107.205 44.738C104.548 54.4223 101.82 64.0935 99.055 73.7515C96.3273 83.2785 93.5436 92.7923 90.7832 102.31C89.9952 105.026 89.2026 107.741 88.3586 110.648C85.8034 110.049 83.4114 109.546 81.0801 108.873C80.735 108.772 80.362 107.802 80.4879 107.356C83.5373 96.5567 86.6707 85.7793 89.7574 74.9845C92.4805 65.4576 95.1569 55.9219 97.866 46.395C98.3416 44.7249 98.8871 43.0722 99.4839 41.1484L99.4793 41.1528Z" fill="white"/>
<path d="M131.28 74.5435C123.689 67.7492 116.821 61.6019 109.313 54.8819C111.472 53.1899 113.253 52.0094 114.741 50.5623C115.967 49.3687 116.629 49.9064 117.557 50.7809C123.894 56.7532 130.263 62.6906 136.605 68.6498C137.803 69.7779 139.02 70.9015 140.092 72.1344C141.678 73.9533 141.057 75.807 139.556 77.2499C131.853 84.6388 124.057 91.9403 116.135 99.4298C114.028 97.4142 112.162 95.6304 109.999 93.5623C116.96 87.3408 123.819 81.2066 131.275 74.5435H131.28Z" fill="white"/>
<path d="M78.0266 55.1158C70.9066 61.7046 64.1316 67.9699 57.1888 74.397C64.1923 80.8066 71.0278 87.0631 78.1572 93.5863C75.7512 95.58 73.7183 97.2633 71.1724 99.3707C67.8245 96.0785 64.3042 92.5545 60.7092 89.1005C56.8251 85.3711 52.8804 81.6941 48.9357 78.0215C46.1194 75.4069 46.0682 73.645 48.8705 71.0086C56.0371 64.2798 63.2551 57.5948 70.3564 50.8092C71.5827 49.6375 72.1842 49.7337 73.266 50.8661C74.6415 52.3045 76.2501 53.5506 78.0313 55.1158H78.0266Z" fill="white"/>
<path d="M220.749 36.4259C228.256 36.3866 235.758 36.3341 243.265 36.3122C249.303 36.2948 255.342 36.3428 261.38 36.2816C262.821 36.2685 263.557 36.5833 263.455 38.0786C263.357 39.5258 263.38 40.9817 263.45 42.4333C263.516 43.793 262.979 44.4838 261.459 44.427C259.072 44.3395 256.68 44.3002 254.288 44.239C253.509 44.0728 252.735 43.758 251.957 43.758C241.554 43.7187 231.147 43.723 220.744 43.7143C220.744 41.2877 220.749 38.8568 220.753 36.4303L220.749 36.4259Z" fill="white"/>
<path d="M223.074 115.592C222.305 115.632 221.531 115.702 220.762 115.702C198.525 115.706 176.284 115.68 154.047 115.745C151.977 115.75 151.231 115.33 151.277 113.253C151.403 107.486 151.301 107.486 157.493 107.486C166.557 107.486 175.626 107.482 184.691 107.486C185.539 107.486 186.383 107.574 187.232 107.622C186.933 107.924 186.63 108.488 186.332 108.483C183.119 108.483 183.576 110.556 183.441 112.536C183.306 114.534 184.089 114.954 186.085 114.936C195.933 114.845 205.776 114.897 215.623 114.897C217.386 114.897 219.153 114.836 220.911 114.932C221.643 114.971 222.352 115.361 223.074 115.592Z" fill="white"/>
<path d="M173.258 175.693H211.781C211.781 178.024 211.879 180.323 211.684 182.606C211.651 182.982 210.303 183.524 209.562 183.533C201.57 183.598 193.578 183.585 185.586 183.568C181.478 183.559 177.37 183.489 173.262 183.445C173.262 180.861 173.262 178.282 173.262 175.698L173.258 175.693Z" fill="white"/>
<path d="M151.381 90.4437C151.796 90.1727 152.216 89.6655 152.63 89.6611C172.028 89.6261 191.425 89.6393 210.822 89.6524C211.041 89.6524 211.26 89.7529 211.642 89.8447V97.6621C211.055 97.7234 210.533 97.8283 210.015 97.8283C197.523 97.837 185.032 97.8327 172.54 97.8283C172.158 97.8283 171.771 97.754 171.389 97.7146C172.657 97.4741 173.916 97.0544 175.189 97.0326C179.8 96.9495 179.684 96.9976 179.828 92.8134C179.898 90.8285 179.194 90.3869 177.194 90.4088C168.591 90.5049 159.988 90.4481 151.381 90.4481V90.4437Z" fill="white"/>
<path d="M176.984 54.2465C188.072 54.2072 199.16 54.1722 210.253 54.1153C211.498 54.1066 211.768 54.6487 211.824 55.7243C212.146 62.1251 212.169 62.1426 205.367 62.1207C195.906 62.0901 186.45 62.0289 176.989 61.9808C176.989 59.4056 176.989 56.8261 176.989 54.2465H176.984Z" fill="white"/>
<path d="M205.379 79.8073C194.832 79.816 184.285 79.8291 173.738 79.8379C173.262 78.4825 172.614 77.149 172.362 75.7587C172.139 74.517 172.348 73.201 172.362 71.9199C183.213 71.9505 194.063 71.9811 204.913 72.0161C205.067 74.6132 205.221 77.2146 205.375 79.8117L205.379 79.8073Z" fill="white"/>
<path d="M106.207 183.444C94.877 183.444 83.5465 183.444 72.2207 183.449C72.2207 180.86 72.2207 178.272 72.2207 175.684C83.5512 175.684 94.8817 175.684 106.212 175.688C106.212 178.272 106.212 180.86 106.212 183.444H106.207Z" fill="white"/>
<path d="M173.259 175.693C173.259 178.277 173.259 180.857 173.259 183.441C162.082 183.441 150.91 183.441 139.733 183.441C139.733 180.861 139.733 178.277 139.733 175.698C150.905 175.698 162.082 175.698 173.254 175.698L173.259 175.693Z" fill="white"/>
<path d="M139.732 175.692C139.732 178.271 139.732 180.855 139.732 183.435C128.56 183.435 117.384 183.439 106.212 183.444C106.212 180.86 106.212 178.271 106.212 175.688C117.389 175.688 128.56 175.688 139.737 175.688L139.732 175.692Z" fill="white"/>
<path d="M109.956 197.623C120.345 197.627 130.734 197.636 141.122 197.641C141.122 200.264 141.122 202.891 141.127 205.515C130.734 205.524 120.336 205.532 109.942 205.541C109.942 202.9 109.952 200.259 109.952 197.623H109.956Z" fill="white"/>
<path d="M141.132 205.515C141.132 202.892 141.132 200.264 141.127 197.641C151.371 197.641 161.615 197.641 171.859 197.641C171.859 200.264 171.859 202.883 171.859 205.506C166.488 205.563 161.116 205.611 155.745 205.681C154.444 205.699 153.143 205.764 151.837 205.808C148.27 205.712 144.699 205.611 141.132 205.515Z" fill="white"/>
<path d="M232.867 71.9732C239.516 71.9164 246.165 71.8464 252.81 71.8027C256.195 71.7808 259.585 71.8027 263.287 71.8027C263.287 74.3342 263.347 76.6339 263.221 78.9249C263.203 79.2834 262.34 79.8999 261.865 79.8999C252.348 79.913 242.831 79.8562 233.319 79.8125C233.165 77.2023 233.016 74.5877 232.862 71.9776L232.867 71.9732Z" fill="white"/>
<path d="M55.9248 27.1673C55.9248 24.6752 55.9248 22.1874 55.9248 19.6953C67.0968 19.6953 78.2734 19.6953 89.4453 19.6953C89.4453 22.1831 89.4453 24.6708 89.4453 27.1586C78.2734 27.1586 67.0968 27.1586 55.9248 27.1629V27.1673Z" fill="white"/>
<path d="M140.675 157.911C151.068 157.911 161.461 157.911 171.855 157.911C171.855 160.468 171.855 163.026 171.855 165.584C161.457 165.584 151.054 165.584 140.656 165.584C140.661 163.026 140.666 160.464 140.67 157.906L140.675 157.911Z" fill="white"/>
<path d="M55.4492 205.384C55.4585 202.791 55.4679 200.203 55.4772 197.61C65.255 197.61 75.0281 197.606 84.8059 197.602C84.8059 200.247 84.8059 202.892 84.8106 205.537C83.7381 205.581 82.6657 205.655 81.5933 205.664C74.9069 205.716 68.2205 205.751 61.5341 205.791C59.5058 205.655 57.4775 205.52 55.4492 205.384Z" fill="white"/>
<path d="M215.625 114.892C205.777 114.892 195.929 114.84 186.086 114.932C184.091 114.949 183.307 114.525 183.443 112.531C183.578 110.555 183.121 108.474 186.333 108.479C186.632 108.479 186.935 107.914 187.233 107.617C196.699 107.622 206.159 107.626 215.625 107.63C215.625 110.048 215.625 112.47 215.625 114.888V114.892Z" fill="white"/>
<path d="M232.867 71.9738C233.021 74.5839 233.171 77.1985 233.324 79.8087C224.008 79.8087 214.697 79.8087 205.381 79.8087C205.227 77.2116 205.073 74.6102 204.919 72.0131C212.319 71.9388 219.714 71.8513 227.114 71.8076C229.035 71.7945 230.951 71.9169 232.872 71.9738H232.867Z" fill="white"/>
<path d="M162.072 19.252C164.869 19.3088 167.662 19.3656 170.46 19.4225C170.46 22.002 170.46 24.5816 170.46 27.1655C160.528 27.1655 150.592 27.1655 140.66 27.1655C140.66 24.6734 140.66 22.1813 140.66 19.6892C146.992 19.6804 153.324 19.6848 159.661 19.6411C160.468 19.6367 161.27 19.3875 162.076 19.252H162.072Z" fill="white"/>
<path d="M164.893 36.4004C174.973 36.4091 185.054 36.4223 195.135 36.431C195.135 38.8575 195.135 41.2841 195.135 43.7063C185.763 43.7106 176.396 43.6756 167.023 43.7587C165.238 43.7762 164.711 43.2166 164.832 41.6251C164.967 39.8894 164.879 38.1405 164.893 36.4004Z" fill="white"/>
<path d="M63.8465 140.177C73.4657 140.177 83.0896 140.168 92.7089 140.168C92.7135 142.704 92.7229 145.244 92.7275 147.78C83.1083 147.78 73.489 147.78 63.8651 147.78C63.8558 145.244 63.8511 142.713 63.8418 140.181L63.8465 140.177Z" fill="white"/>
<path d="M84.783 205.555C84.783 202.909 84.783 200.264 84.7783 197.619C93.1713 197.619 101.564 197.624 109.957 197.628C109.957 200.269 109.948 202.909 109.948 205.546C101.56 205.546 93.1713 205.55 84.7876 205.555H84.783Z" fill="white"/>
<path d="M73.1357 165.607C64.9386 165.633 56.7369 165.642 48.5397 165.708C47.099 165.721 46.7399 165.187 46.7073 163.906C46.5534 157.763 46.5161 157.746 52.9694 157.768C59.693 157.79 66.4214 157.855 73.1451 157.899C73.1451 160.47 73.1357 163.036 73.1357 165.607Z" fill="white"/>
<path d="M151.381 90.4444C159.984 90.4444 168.591 90.5012 177.194 90.4051C179.194 90.3832 179.898 90.8248 179.828 92.8097C179.684 96.9939 179.8 96.9458 175.189 97.0289C173.916 97.0507 172.657 97.4748 171.389 97.7109C164.833 97.7109 158.272 97.7109 151.381 97.7109V90.4444Z" fill="white"/>
<path d="M176.984 54.2476C176.984 56.8272 176.984 59.4024 176.984 61.9819C168.922 62.03 160.856 62.1044 152.794 62.0606C152.309 62.0606 151.469 61.1687 151.409 60.6309C151.227 58.9739 151.227 57.2775 151.409 55.6248C151.469 55.0871 152.299 54.1951 152.784 54.1908C160.851 54.1427 168.913 54.2083 176.979 54.2476H176.984Z" fill="white"/>
<path d="M170.461 27.1615C170.461 24.5819 170.461 21.998 170.461 19.4184C178.994 19.4184 187.531 19.4184 196.064 19.4141C196.064 21.998 196.064 24.5819 196.064 27.1615C187.526 27.1615 178.994 27.1615 170.456 27.1615H170.461Z" fill="white"/>
<path d="M72.2212 175.684C72.2212 178.272 72.2212 180.86 72.2212 183.449C64.2432 183.484 56.2606 183.54 48.2826 183.505C47.7697 183.505 46.8465 182.801 46.8185 182.382C46.6693 180.226 46.7486 178.058 46.7486 175.684H72.2258H72.2212Z" fill="white"/>
<path d="M215.624 114.893C215.624 112.475 215.624 110.053 215.624 107.635C223.849 107.635 232.079 107.635 240.304 107.635C240.304 110.284 240.304 112.929 240.304 115.579C234.564 115.583 228.82 115.588 223.08 115.596C222.357 115.365 221.648 114.976 220.916 114.936C219.158 114.836 217.391 114.901 215.629 114.901L215.624 114.893Z" fill="white"/>
<path d="M119.712 165.592C111.328 165.592 102.949 165.592 94.5654 165.592C94.5701 163.03 94.5794 160.472 94.5841 157.91C102.958 157.91 111.328 157.91 119.702 157.915C119.702 160.472 119.707 163.034 119.712 165.592Z" fill="white"/>
<path d="M113.649 140.168C122.499 140.172 131.344 140.177 140.194 140.185C140.194 142.708 140.194 145.235 140.194 147.758C131.34 147.762 122.481 147.771 113.626 147.776C113.635 145.24 113.64 142.704 113.649 140.168Z" fill="white"/>
<path d="M140.661 19.6855C140.661 22.1777 140.661 24.6698 140.661 27.1619C131.97 27.1619 123.278 27.1619 114.587 27.1619C114.587 24.6742 114.587 22.182 114.587 19.6943C123.278 19.6943 131.97 19.6899 140.661 19.6855Z" fill="white"/>
<path d="M140.199 147.758C140.199 145.235 140.199 142.708 140.199 140.186C148.891 140.186 157.582 140.186 166.273 140.186C166.273 142.713 166.273 145.235 166.273 147.762C157.582 147.762 148.891 147.762 140.199 147.762V147.758Z" fill="white"/>
<path d="M164.893 36.401C164.884 38.1455 164.968 39.8943 164.832 41.6257C164.711 43.2172 165.238 43.7724 167.024 43.7593C176.396 43.6762 185.763 43.7156 195.136 43.7112C203.673 43.7112 212.206 43.7112 220.743 43.7156C231.146 43.7243 241.553 43.7156 251.956 43.7593C252.734 43.7593 253.513 44.0741 254.287 44.2403C253.527 44.3233 252.767 44.4763 252.012 44.4763C219.307 44.4851 186.598 44.4632 153.894 44.5244C151.73 44.5244 151.073 43.9342 151.091 41.9449C151.138 36.2786 151.063 36.2655 157.004 36.2829C159.633 36.2917 162.263 36.3616 164.898 36.401H164.893Z" fill="white"/>
<path d="M171.859 205.51C171.859 202.887 171.859 200.268 171.859 197.645C179.623 197.645 187.386 197.645 195.15 197.645C195.15 200.272 195.15 202.895 195.15 205.519C187.386 205.519 179.628 205.514 171.864 205.51H171.859Z" fill="white"/>
<path d="M241.236 19.3887C241.236 21.9814 241.236 24.574 241.231 27.1711C233.16 27.1711 225.089 27.1711 217.022 27.1711C217.022 24.5828 217.022 21.9945 217.022 19.4062C225.094 19.4018 233.165 19.3974 241.236 19.393V19.3887Z" fill="white"/>
<path d="M240.3 115.575C240.3 112.926 240.3 110.28 240.3 107.631C247.863 107.631 255.426 107.631 263.147 107.631V115.575H240.295H240.3Z" fill="white"/>
<path d="M220.745 43.7156C212.207 43.7156 203.674 43.7156 195.137 43.7113C195.137 41.2847 195.137 38.8582 195.137 36.436C201.455 36.5235 207.777 36.6371 214.095 36.6765C216.31 36.6896 218.53 36.5191 220.749 36.4316C220.749 38.8582 220.745 41.2891 220.74 43.7156H220.745Z" fill="white"/>
<path d="M114.587 19.6953C114.587 22.1831 114.587 24.6752 114.587 27.1629C106.208 27.1629 97.8243 27.1629 89.4453 27.1629C89.4453 24.6752 89.4453 22.1874 89.4453 19.6997C97.8243 19.6997 106.203 19.6997 114.587 19.6997V19.6953Z" fill="white"/>
<path d="M166.273 147.762C166.273 145.235 166.273 142.713 166.273 140.186C174.499 140.186 182.724 140.186 190.953 140.186C190.953 142.713 190.953 145.235 190.953 147.762C182.728 147.762 174.499 147.762 166.273 147.762Z" fill="white"/>
<path d="M172.363 71.9209C172.345 73.202 172.135 74.518 172.363 75.7597C172.615 77.1544 173.263 78.4835 173.739 79.8389C166.703 79.8826 159.662 79.9569 152.626 79.9088C152.127 79.9088 151.26 79.0213 151.204 78.4835C151.022 76.7565 151.027 74.9946 151.213 73.2719C151.274 72.7254 152.141 71.8247 152.645 71.8247C159.214 71.781 165.789 71.8641 172.359 71.9209H172.363Z" fill="white"/>
<path d="M171.854 165.589C171.854 163.031 171.854 160.474 171.854 157.916C179.306 157.916 186.752 157.916 194.203 157.916C194.203 160.474 194.203 163.036 194.208 165.594C186.757 165.594 179.306 165.594 171.859 165.594L171.854 165.589Z" fill="white"/>
<path d="M94.5844 157.906C94.5797 160.468 94.5704 163.025 94.5657 165.588C87.4224 165.592 80.2791 165.596 73.1357 165.601C73.1357 163.03 73.1451 160.463 73.1451 157.893C80.2884 157.893 87.4364 157.901 94.5797 157.906H94.5844Z" fill="white"/>
<path d="M217.024 19.4069C217.024 21.9952 217.024 24.5835 217.024 27.1718C210.039 27.1718 203.054 27.1718 196.069 27.1674C196.069 24.5835 196.069 21.9995 196.069 19.42C200.662 19.3763 205.26 19.3325 209.852 19.2757C210.692 19.267 211.531 19.1883 212.366 19.1445C213.918 19.232 215.471 19.3194 217.024 19.4112V19.4069Z" fill="white"/>
<path d="M119.712 165.594C119.712 163.036 119.708 160.474 119.703 157.916C126.693 157.916 133.687 157.916 140.676 157.916C140.672 160.478 140.667 163.036 140.662 165.598C133.677 165.598 126.697 165.598 119.712 165.598V165.594Z" fill="white"/>
<path d="M113.649 140.168C113.64 142.704 113.635 145.24 113.626 147.776C106.66 147.776 99.6938 147.776 92.7276 147.776C92.723 145.24 92.7136 142.704 92.709 140.164C99.6891 140.164 106.669 140.164 113.649 140.164V140.168Z" fill="white"/>
<path d="M190.953 147.762C190.953 145.235 190.953 142.713 190.953 140.186C197.821 140.186 204.694 140.186 211.786 140.186C211.786 142.498 211.884 144.597 211.707 146.678C211.67 147.115 210.621 147.815 210.028 147.819C203.673 147.867 197.313 147.802 190.958 147.767L190.953 147.762Z" fill="white"/>
<path d="M63.8471 140.176C63.8564 142.708 63.8611 145.244 63.8704 147.775C58.5502 147.854 53.2347 147.959 47.9145 147.972C47.5275 147.972 47.1218 147.329 46.7581 146.958C46.6789 146.879 46.7488 146.678 46.7348 146.533C46.2546 139.975 46.2546 139.953 53.2021 139.984C56.7504 140.002 60.2941 140.111 63.8424 140.181L63.8471 140.176Z" fill="white"/>
<path d="M194.209 165.588C194.209 163.03 194.209 160.468 194.204 157.91C199.781 157.906 205.353 157.901 210.929 157.893C210.948 160.459 210.971 163.025 210.99 165.592C205.395 165.592 199.804 165.592 194.209 165.588Z" fill="white"/>
<path d="M210.988 165.593C210.97 163.027 210.946 160.46 210.928 157.894C211.002 157.885 211.119 157.841 211.152 157.872C212.257 158.948 212.131 164.557 210.988 165.593Z" fill="white"/>
<path d="M262.662 136.045C263.431 136.006 264.205 135.927 264.975 135.927C279.704 135.918 294.434 135.918 309.164 135.923C313.374 135.923 315.155 137.545 315.155 141.401C315.16 178.473 315.16 215.548 315.155 252.62C315.155 256.45 313.43 258.076 309.397 258.076C292.34 258.076 275.284 258.076 258.228 258.072C257.533 258.072 256.834 258.019 256.139 257.993C254.735 256.393 254.707 254.517 254.684 252.559C254.665 250.976 255.313 250.604 256.852 250.644C260.307 250.727 263.767 250.705 267.222 250.639C267.875 250.626 268.518 250.211 269.166 249.983C281.551 249.983 293.94 249.983 306.455 249.983V144.142C305.401 144.142 304.492 144.142 303.578 144.142C289.776 144.112 275.979 144.081 262.177 144.046C262.336 141.379 262.494 138.717 262.653 136.05L262.662 136.045Z" fill="white"/>
<path d="M269.17 249.98C268.522 250.211 267.878 250.627 267.226 250.636C263.771 250.701 260.311 250.723 256.856 250.64C255.312 250.605 254.664 250.972 254.687 252.555C254.711 254.509 254.739 256.389 256.142 257.99C249.866 258.016 243.585 258.108 237.309 258.046C234.647 258.02 233.085 256.42 232.866 253.923C232.815 253.346 232.847 252.76 232.847 252.179C232.847 215.396 232.847 178.613 232.847 141.83C232.847 137.078 234.097 135.893 239.161 135.91C245.903 135.932 252.641 135.989 259.383 136.028C258.735 136.256 258.087 136.675 257.434 136.684C253.354 136.745 249.274 136.671 245.199 136.763C244.509 136.78 243.259 137.371 243.25 137.716C243.203 139.88 242.196 142.281 244.49 144.047C243.59 144.126 242.69 144.2 241.795 144.279V249.866C242.965 249.866 243.968 249.866 244.966 249.866C253.032 249.901 261.099 249.94 269.165 249.98H269.17Z" fill="white"/>
<path d="M244.497 144.052C242.207 142.281 243.21 139.885 243.256 137.721C243.266 137.375 244.515 136.785 245.205 136.768C249.281 136.676 253.365 136.75 257.44 136.689C258.093 136.68 258.737 136.261 259.389 136.033C260.48 136.038 261.572 136.042 262.663 136.046C262.504 138.713 262.346 141.376 262.187 144.043C256.289 144.043 250.395 144.047 244.497 144.052Z" fill="white"/>
<path d="M84.7833 205.555C93.1716 205.555 101.56 205.55 109.943 205.546C120.337 205.537 130.735 205.528 141.128 205.52C144.695 205.616 148.267 205.712 151.834 205.812C151.834 209.127 151.834 212.445 151.834 215.759C121.726 215.759 91.6142 215.759 61.5068 215.759C61.5068 212.441 61.5068 209.122 61.5068 205.804C68.1932 205.764 74.8796 205.729 81.566 205.677C82.6384 205.668 83.7109 205.594 84.7833 205.55V205.555Z" fill="white"/>
<path d="M114.587 19.6939C106.208 19.6939 97.8286 19.6939 89.445 19.6939C78.2731 19.6939 67.0964 19.6939 55.9245 19.6939C46.6549 19.6852 37.3901 19.6808 28.1205 19.6677C27.2766 19.6677 26.4279 19.5933 25.584 19.5496C26.4093 19.3223 27.2346 18.9025 28.0599 18.8982C39.2085 18.8501 50.3618 18.8588 61.5105 18.8501C87.5846 18.8501 113.659 18.8501 139.728 18.8457C146.368 18.8501 153.008 18.8457 159.647 18.8807C160.459 18.8851 161.265 19.1211 162.072 19.2523C161.265 19.3878 160.463 19.6327 159.657 19.6414C153.325 19.6852 146.993 19.6808 140.656 19.6895C131.965 19.6895 123.273 19.6895 114.582 19.6939H114.587Z" fill="white"/>
<path d="M259.407 172.737C270.052 172.693 280.697 172.645 291.342 172.623C293.104 172.623 294.872 172.745 296.634 172.815C297.035 172.977 297.436 173.139 297.837 173.305C299.884 173.83 300.294 175.382 300.299 177.026C300.332 190.356 300.369 203.687 300.229 217.018C300.215 218.229 298.956 219.427 298.276 220.629C297.884 220.813 297.492 221.001 297.1 221.185C296.877 221.241 296.658 221.346 296.434 221.346C284.091 221.333 271.744 221.311 259.402 221.289C259.519 218.426 258.381 215.168 262.204 213.472H291.379V180.524H259.421C259.416 177.926 259.411 175.329 259.407 172.732V172.737Z" fill="white"/>
<path d="M259.407 172.736C259.412 175.333 259.416 177.93 259.421 180.527C258.395 180.689 257.365 180.855 256.344 181.017V213.026C258.405 213.183 260.302 213.327 262.205 213.476C258.381 215.168 259.514 218.43 259.402 221.293C257.085 221.333 254.768 221.411 252.45 221.398C249.35 221.376 247.615 219.794 247.517 216.834C247.433 214.298 247.494 211.758 247.494 209.217C247.494 198.917 247.494 188.611 247.494 178.311C247.494 174.009 249.005 172.601 253.621 172.609C255.551 172.609 257.477 172.697 259.407 172.741V172.736Z" fill="white"/>
<path d="M297.838 173.3C297.437 173.138 297.036 172.977 296.635 172.811C297.036 172.972 297.437 173.134 297.838 173.3Z" fill="white"/>
<path d="M262.205 213.476C260.307 213.332 258.409 213.183 256.344 213.026V181.017C257.365 180.855 258.391 180.689 259.421 180.527C270.015 180.527 280.604 180.527 291.38 180.527V213.476H262.205ZM257.458 196.805C260.955 200.294 264.14 203.713 267.623 206.848C269.511 208.548 271.88 208.081 273.815 206.218C275.965 204.146 278.147 202.1 280.306 200.031C283.644 196.827 286.978 193.613 290.965 189.77C288.969 188.231 287.244 186.775 285.36 185.533C284.884 185.219 283.653 185.315 283.187 185.686C281.667 186.889 280.338 188.301 278.935 189.639C276.132 192.306 273.325 194.973 270.388 197.767C268.481 195.878 266.844 194.147 265.058 192.564C264.606 192.162 263.385 191.869 263.025 192.131C261.16 193.508 259.463 195.087 257.463 196.8L257.458 196.805Z" fill="white"/>
<path d="M257.458 196.802C259.458 195.084 261.155 193.51 263.02 192.133C263.379 191.87 264.601 192.163 265.053 192.565C266.839 194.148 268.476 195.879 270.383 197.768C273.325 194.97 276.127 192.303 278.93 189.64C280.333 188.307 281.662 186.89 283.182 185.688C283.653 185.316 284.879 185.22 285.355 185.535C287.243 186.777 288.969 188.233 290.96 189.772C286.968 193.615 283.639 196.828 280.301 200.033C278.146 202.101 275.964 204.147 273.81 206.22C271.88 208.082 269.511 208.55 267.618 206.849C264.135 203.719 260.95 200.295 257.453 196.806L257.458 196.802Z" fill="white"/>
</g>
<defs>
<filter id="filter0_d_1271_3194" x="0.590815" y="0.417969" width="327.556" height="278.99" filterUnits="userSpaceOnUse" color-interpolation-filters="sRGB">
<feFlood flood-opacity="0" result="BackgroundImageFix"/>
<feColorMatrix in="SourceAlpha" type="matrix" values="0 0 0 0 0 0 0 0 0 0 0 0 0 0 0 0 0 0 127 0" result="hardAlpha"/>
<feOffset dy="1.70313"/>
<feGaussianBlur stdDeviation="0.851565"/>
<feComposite in2="hardAlpha" operator="out"/>
<feColorMatrix type="matrix" values="0 0 0 0 0 0 0 0 0 0 0 0 0 0 0 0 0 0 0.25 0"/>
<feBlend mode="normal" in2="BackgroundImageFix" result="effect1_dropShadow_1271_3194"/>
<feBlend mode="normal" in="SourceGraphic" in2="effect1_dropShadow_1271_3194" result="shape"/>
</filter>
</defs>
</svg>
