<svg width="353" height="165" viewBox="0 0 353 165" fill="none" xmlns="http://www.w3.org/2000/svg">
<g filter="url(#filter0_d_1271_4504)">
<mask id="path-1-inside-1_1271_4504" fill="white">
<path fill-rule="evenodd" clip-rule="evenodd" d="M336.038 35.066C332.418 33.0012 328.646 31.2731 324.875 29.545C313.37 24.2731 301.867 19.0018 294.646 4.17391C294.372 4.79258 294.094 5.4096 293.816 6.02604L293.806 6.04852C293.701 6.28163 293.596 6.51466 293.492 6.74767L289.843 3.68595L290.421 2.39995L288.336 0.650391L253.975 77.2933H240.917V70.2386C240.917 67.8231 238.96 65.8658 236.544 65.8658H229.257C227.928 60.2757 225.768 54.9846 222.807 50.065L228.032 44.7535C229.706 43.0522 229.706 40.3224 228.032 38.6206L215.785 26.1687C214.963 25.3326 213.84 24.8621 212.667 24.8621C211.495 24.8621 210.372 25.3332 209.55 26.1681L204.402 31.4014C199.596 28.4268 194.426 26.2514 188.962 24.9046V17.4103C188.962 14.9948 187.005 13.0375 184.589 13.0375H167.273C164.858 13.0375 162.901 14.9948 162.901 17.4103V24.9052C157.438 26.2514 152.266 28.4268 147.457 31.4026L142.314 26.1733C141.492 25.3372 140.369 24.8667 139.197 24.8667C138.025 24.8667 136.901 25.3372 136.079 26.1727L123.831 38.6211C122.157 40.3224 122.157 43.0528 123.831 44.7541L129.056 50.065C126.095 54.984 123.936 60.2745 122.606 65.8652H115.318C112.902 65.8652 110.945 67.8225 110.945 70.238V77.2928H98.7625L64.4017 0.650405L62.3166 2.39996L62.8947 3.68596L59.2458 6.74769C59.1377 6.50699 59.0293 6.26627 58.9208 6.02546C58.6432 5.40922 58.3654 4.79239 58.0917 4.17393C50.8708 19.0018 39.3673 24.2731 27.8624 29.545C24.0913 31.2731 20.32 33.0012 16.6993 35.066C18.2474 38.5186 19.7954 41.9714 21.3435 45.4243C27.1999 58.4862 33.0566 71.5491 38.9162 84.6075C42.535 82.5442 46.3049 80.817 50.0751 79.0898C61.5783 73.8197 73.0836 68.5486 80.3059 53.7248C80.0794 53.2241 79.8553 52.7232 79.6313 52.2222C79.4072 51.7212 79.1832 51.2203 78.9567 50.7196L82.6056 47.6579L95.8928 77.2928H94.159C91.7435 77.2928 89.7862 79.25 89.7862 81.6655V158.626C89.7862 161.042 91.7435 162.999 94.159 162.999H257.703C260.118 162.999 262.076 161.042 262.076 158.626V81.6655C262.076 79.2506 260.118 77.2933 257.703 77.2933H256.844L270.132 47.6579L273.781 50.7196C273.554 51.2203 273.33 51.7212 273.106 52.2222C272.882 52.7232 272.658 53.2241 272.432 53.7248C279.654 68.5486 291.159 73.8197 302.663 79.0898C306.433 80.817 310.203 82.5441 313.821 84.6075C319.682 71.5471 325.539 58.4822 331.397 45.4182L336.038 35.066ZM305.404 21.7904C309.8 25.3164 314.636 27.8614 319.568 30.1937C318.321 32.9825 317.072 35.7701 315.822 38.5576C314.957 40.4896 314.091 42.4216 313.226 44.3537C308.295 42.0232 303.457 39.4764 299.057 35.947C299.884 34.1025 300.711 32.2581 301.537 30.4139C302.826 27.5386 304.114 24.6638 305.404 21.7904ZM270.998 45.728L288.979 5.61758L292.628 8.6793C289.118 16.513 285.606 24.3457 282.094 32.1781L282.029 32.3228L281.994 32.4022C279.545 37.8647 277.095 43.3271 274.647 48.7897L270.998 45.728ZM282.213 38.3203C282.691 37.2538 283.168 36.1874 283.646 35.121C285.234 31.5741 286.821 28.028 288.415 24.4848C291.371 29.6254 294.9 33.4863 298.771 36.5888C298.029 38.2429 297.287 39.897 296.546 41.551C295.22 44.5086 293.895 47.4658 292.567 50.4225C288.701 47.3235 285.169 43.4609 282.213 38.3203ZM299.664 74.595C294.732 72.2665 289.898 69.7194 285.499 66.1879C287.616 61.4676 289.731 56.7495 291.844 52.0296C296.238 55.5538 301.076 58.1006 306.012 60.4364C305.153 62.3515 304.295 64.2659 303.438 66.18L303.358 66.3571L303.338 66.4027C302.114 69.1339 300.89 71.8643 299.664 74.595ZM319.745 65.0096C316.861 63.4892 313.908 62.1365 310.954 60.7834C309.546 60.1382 308.137 59.4929 306.736 58.8293L307.227 57.7328C309.129 53.4849 311.031 49.2389 312.939 44.9955C314.315 45.6459 315.699 46.2799 317.082 46.9138L317.084 46.9143C320.064 48.28 323.044 49.6455 325.947 51.1741C324.109 55.2658 322.276 59.3586 320.442 63.4529L320.423 63.4961L319.745 65.0096ZM333.253 46.3358L333.251 46.3396L333.242 46.3592C333.136 46.5936 333.031 46.8279 332.926 47.0622C334.772 48.1938 336.568 49.4281 338.297 50.8148C337.241 53.1748 336.182 55.534 335.124 57.8931C334.065 60.2523 333.007 62.6114 331.95 64.9714C330.224 63.5864 328.426 62.3503 326.583 61.2222C324.603 65.646 322.62 70.0701 320.638 74.493L319.374 77.3121C321.217 78.4403 323.017 79.6781 324.742 81.0613C323.688 83.4183 322.632 85.7745 321.577 88.1307C320.518 90.4946 319.458 92.8585 318.401 95.2231C314.007 91.6951 309.167 89.1504 304.234 86.8104C304.502 86.2167 304.768 85.6249 305.033 85.0333C305.264 84.5191 305.495 84.0051 305.727 83.4901C304.326 82.8261 302.917 82.1801 301.508 81.5341L301.507 81.5337C297.759 79.8148 294.012 78.0966 290.415 76.0437C290.175 76.5785 289.936 77.1128 289.697 77.6468C289.054 79.0817 288.413 80.514 287.768 81.9455C291.388 84.0095 295.159 85.7373 298.93 87.4651C310.434 92.7358 321.938 98.0068 329.154 112.825C333.685 102.728 338.212 92.6272 342.739 82.5261C345.615 76.1098 348.491 69.6933 351.368 63.2776C346.901 54.12 340.809 48.6085 334.08 44.4884C333.807 45.1055 333.529 45.721 333.253 46.3358ZM335.821 91.5582C332.864 86.4176 329.338 82.5585 325.467 79.456L325.956 78.364L325.959 78.3577C327.861 74.1105 329.763 69.865 331.671 65.6223C335.537 68.7212 339.07 72.5856 342.022 77.7228C340.807 80.4286 339.595 83.1355 338.382 85.8426L338.364 85.8833L338.288 86.0524C337.466 87.8877 336.644 89.7231 335.821 91.5582ZM119.691 74.6114H126.175C128.306 74.6114 130.128 73.0739 130.486 70.9721C131.656 64.0963 134.26 57.708 138.223 51.9855C139.42 50.2591 139.219 47.9264 137.746 46.4292L133.082 41.6885L139.196 35.4751L143.755 40.1108C145.265 41.6453 147.667 41.8535 149.419 40.6C155.031 36.5805 161.293 33.9417 168.031 32.757C170.122 32.3891 171.646 30.5729 171.646 28.4501V21.7831H180.216V28.4495C180.216 30.5723 181.74 32.3879 183.831 32.7564C190.571 33.9429 196.833 36.5817 202.44 40.5982C204.191 41.8529 206.594 41.6442 208.104 40.1102L212.667 35.471L218.781 41.6867L214.115 46.4292C212.642 47.9264 212.442 50.2597 213.638 51.9861C217.604 57.7091 220.207 64.0969 221.375 70.9715C221.732 73.0733 223.553 74.6119 225.686 74.6119H232.171V77.2939H199.171C198.284 65.0787 188.205 55.4132 175.932 55.4132C163.658 55.4132 153.578 65.0787 152.691 77.2939H119.691V74.6114ZM161.469 77.2933C162.32 69.9074 168.479 64.1581 175.934 64.1581C183.385 64.1581 189.542 69.9074 190.393 77.2933H161.469ZM253.33 154.253H98.5319V86.0383H253.33V154.253ZM113.399 105.279H123.019C125.435 105.279 127.392 103.322 127.392 100.906C127.392 98.4909 125.435 96.5336 123.019 96.5336H113.399C110.984 96.5336 109.026 98.4909 109.026 100.906C109.026 103.321 110.984 105.279 113.399 105.279ZM151.88 105.279H142.26C139.844 105.279 137.887 103.321 137.887 100.906C137.887 98.4909 139.844 96.5336 142.26 96.5336H151.88C154.295 96.5336 156.253 98.4909 156.253 100.906C156.253 103.322 154.295 105.279 151.88 105.279ZM171.122 105.279H180.742C183.158 105.279 185.115 103.322 185.115 100.906C185.115 98.4909 183.158 96.5336 180.742 96.5336H171.122C168.706 96.5336 166.749 98.4909 166.749 100.906C166.749 103.321 168.706 105.279 171.122 105.279ZM209.602 105.279H199.981C197.566 105.279 195.608 103.321 195.608 100.906C195.608 98.4909 197.566 96.5336 199.981 96.5336H209.602C212.017 96.5336 213.974 98.4909 213.974 100.906C213.974 103.322 212.017 105.279 209.602 105.279ZM228.843 105.279H238.463C240.878 105.279 242.836 103.322 242.836 100.906C242.836 98.4909 240.878 96.5336 238.463 96.5336H228.843C226.427 96.5336 224.47 98.4909 224.47 100.906C224.47 103.321 226.427 105.279 228.843 105.279ZM123.019 143.758H113.399C110.984 143.758 109.026 141.8 109.026 139.385C109.026 136.969 110.984 135.012 113.399 135.012H123.019C125.435 135.012 127.392 136.969 127.392 139.385C127.392 141.8 125.435 143.758 123.019 143.758ZM209.601 135.012H142.114C139.699 135.012 137.741 136.969 137.741 139.385C137.741 141.8 139.699 143.758 142.114 143.758H209.601C212.017 143.758 213.974 141.8 213.974 139.385C213.974 136.969 212.017 135.012 209.601 135.012ZM228.843 135.012H238.463C240.878 135.012 242.836 136.969 242.836 139.385C242.836 141.8 240.878 143.758 238.463 143.758H228.843C226.427 143.758 224.47 141.8 224.47 139.385C224.47 136.969 226.427 135.012 228.843 135.012ZM123.457 120.147C123.457 122.562 125.414 124.519 127.83 124.519H137.45C139.866 124.519 141.823 122.562 141.823 120.147C141.823 117.731 139.866 115.774 137.45 115.774H127.83C125.414 115.774 123.457 117.731 123.457 120.147ZM156.69 124.519C154.275 124.519 152.317 122.562 152.317 120.147C152.317 117.731 154.275 115.774 156.69 115.774H166.311C168.726 115.774 170.683 117.731 170.683 120.147C170.683 122.562 168.726 124.519 166.311 124.519H156.69ZM181.178 120.147C181.178 122.562 183.135 124.519 185.551 124.519H195.171C197.586 124.519 199.544 122.562 199.544 120.147C199.544 117.731 197.586 115.774 195.171 115.774H185.551C183.135 115.774 181.178 117.731 181.178 120.147ZM214.411 124.519C211.995 124.519 210.038 122.562 210.038 120.147C210.038 117.731 211.995 115.774 214.411 115.774H224.031C226.447 115.774 228.404 117.731 228.404 120.147C228.404 122.562 226.447 124.519 224.031 124.519H214.411ZM33.1694 30.1937C38.1019 27.8614 42.9376 25.3164 47.3339 21.7904C48.6232 24.6627 49.9109 27.5362 51.1989 30.4103C52.0259 32.2557 52.853 34.1013 53.6806 35.947C49.2801 39.4764 44.4423 42.0232 39.5119 44.3538C38.645 42.4173 37.7772 40.481 36.9092 38.5447C35.6618 35.7615 34.4142 32.9781 33.1694 30.1937ZM63.7588 5.6176L81.7394 45.728L78.0906 48.7897C75.6331 43.3067 73.1747 37.8239 70.7162 32.341C67.1799 24.4542 63.6435 16.5673 60.1099 8.67932L63.7588 5.6176ZM69.0956 35.1297C69.5717 36.1932 70.0479 37.2567 70.5242 38.3203C67.5681 43.4609 64.037 47.3235 60.1706 50.4225C58.8452 47.4715 57.5223 44.5199 56.1991 41.5679C55.4552 39.9083 54.7113 38.2486 53.9669 36.5888C57.8374 33.4863 61.3664 29.6254 64.3226 24.4848C65.9175 28.0309 67.5064 31.5799 69.0956 35.1297ZM67.2384 66.1879C62.8396 69.7194 58.0057 72.2665 53.0735 74.595C51.8424 71.8534 50.6139 69.1121 49.3851 66.3699C48.499 64.3926 47.6127 62.4149 46.7251 60.4364C51.6618 58.1006 56.4995 55.5538 60.8938 52.0296C63.0067 56.7495 65.1217 61.4676 67.2384 66.1879ZM41.7832 60.7834C38.8293 62.1365 35.8762 63.4892 32.9923 65.0096L32.3061 63.4775C30.4687 59.375 28.632 55.274 26.7906 51.1741C29.6935 49.6455 32.6737 48.2799 35.6541 46.9143C37.038 46.2802 38.4219 45.6461 39.7982 44.9956C41.7063 49.2382 43.6077 53.4835 45.5099 57.7306L46.0019 58.8293C44.6004 59.4929 43.1917 60.1382 41.7832 60.7834ZM19.4873 46.3409C19.2096 45.7243 18.9317 45.1072 18.6578 44.4884C11.9282 48.6085 5.83668 54.12 1.36914 63.2776C4.24869 69.6991 7.1273 76.1213 10.0058 82.5434C14.5308 92.6388 19.0556 102.734 23.5836 112.825C30.7992 98.0068 42.3035 92.7358 53.8072 87.4651C57.5782 85.7373 61.3492 84.0095 64.9691 81.9455C64.3251 80.5151 63.6843 79.0839 63.0423 77.6501C62.8027 77.115 62.563 76.5796 62.3228 76.0437C58.7256 78.0967 54.9788 79.8148 51.2303 81.5337C49.8214 82.1798 48.4122 82.826 47.0107 83.4901C47.2427 84.0045 47.4731 84.518 47.7035 85.0316C47.9693 85.6238 48.2351 86.2162 48.5035 86.8104C43.5703 89.1504 38.7308 91.6951 34.3362 95.2231C33.2805 92.8616 32.2228 90.5009 31.1651 88.1402C30.108 85.7809 29.0509 83.4215 27.9958 81.0613C29.7202 79.6781 31.5205 78.4403 33.3631 77.3121C32.9296 76.3448 32.4961 75.3775 32.0625 74.41C30.0926 70.0148 28.1223 65.6184 26.1545 61.2222C24.3119 62.3503 22.5137 63.5864 20.7871 64.9714C19.7307 62.6116 18.6723 60.2525 17.6139 57.8935C16.5554 55.5342 15.4969 53.1749 14.4404 50.8149C16.1691 49.4281 17.9652 48.1938 19.8119 47.0622C19.704 46.8218 19.5957 46.5814 19.4873 46.3409ZM27.2705 79.456C23.4 82.5585 19.8731 86.4176 16.9169 91.5583C16.0686 89.6669 15.2213 87.7752 14.374 85.8837C13.1553 83.1629 11.9367 80.4423 10.7153 77.7228C13.6672 72.5856 17.2004 68.7212 21.0668 65.6223C22.9743 69.8635 24.875 74.1073 26.7765 78.353L27.2705 79.456Z"/>
</mask>
<path fill-rule="evenodd" clip-rule="evenodd" d="M336.038 35.066C332.418 33.0012 328.646 31.2731 324.875 29.545C313.37 24.2731 301.867 19.0018 294.646 4.17391C294.372 4.79258 294.094 5.4096 293.816 6.02604L293.806 6.04852C293.701 6.28163 293.596 6.51466 293.492 6.74767L289.843 3.68595L290.421 2.39995L288.336 0.650391L253.975 77.2933H240.917V70.2386C240.917 67.8231 238.96 65.8658 236.544 65.8658H229.257C227.928 60.2757 225.768 54.9846 222.807 50.065L228.032 44.7535C229.706 43.0522 229.706 40.3224 228.032 38.6206L215.785 26.1687C214.963 25.3326 213.84 24.8621 212.667 24.8621C211.495 24.8621 210.372 25.3332 209.55 26.1681L204.402 31.4014C199.596 28.4268 194.426 26.2514 188.962 24.9046V17.4103C188.962 14.9948 187.005 13.0375 184.589 13.0375H167.273C164.858 13.0375 162.901 14.9948 162.901 17.4103V24.9052C157.438 26.2514 152.266 28.4268 147.457 31.4026L142.314 26.1733C141.492 25.3372 140.369 24.8667 139.197 24.8667C138.025 24.8667 136.901 25.3372 136.079 26.1727L123.831 38.6211C122.157 40.3224 122.157 43.0528 123.831 44.7541L129.056 50.065C126.095 54.984 123.936 60.2745 122.606 65.8652H115.318C112.902 65.8652 110.945 67.8225 110.945 70.238V77.2928H98.7625L64.4017 0.650405L62.3166 2.39996L62.8947 3.68596L59.2458 6.74769C59.1377 6.50699 59.0293 6.26627 58.9208 6.02546C58.6432 5.40922 58.3654 4.79239 58.0917 4.17393C50.8708 19.0018 39.3673 24.2731 27.8624 29.545C24.0913 31.2731 20.32 33.0012 16.6993 35.066C18.2474 38.5186 19.7954 41.9714 21.3435 45.4243C27.1999 58.4862 33.0566 71.5491 38.9162 84.6075C42.535 82.5442 46.3049 80.817 50.0751 79.0898C61.5783 73.8197 73.0836 68.5486 80.3059 53.7248C80.0794 53.2241 79.8553 52.7232 79.6313 52.2222C79.4072 51.7212 79.1832 51.2203 78.9567 50.7196L82.6056 47.6579L95.8928 77.2928H94.159C91.7435 77.2928 89.7862 79.25 89.7862 81.6655V158.626C89.7862 161.042 91.7435 162.999 94.159 162.999H257.703C260.118 162.999 262.076 161.042 262.076 158.626V81.6655C262.076 79.2506 260.118 77.2933 257.703 77.2933H256.844L270.132 47.6579L273.781 50.7196C273.554 51.2203 273.33 51.7212 273.106 52.2222C272.882 52.7232 272.658 53.2241 272.432 53.7248C279.654 68.5486 291.159 73.8197 302.663 79.0898C306.433 80.817 310.203 82.5441 313.821 84.6075C319.682 71.5471 325.539 58.4822 331.397 45.4182L336.038 35.066ZM305.404 21.7904C309.8 25.3164 314.636 27.8614 319.568 30.1937C318.321 32.9825 317.072 35.7701 315.822 38.5576C314.957 40.4896 314.091 42.4216 313.226 44.3537C308.295 42.0232 303.457 39.4764 299.057 35.947C299.884 34.1025 300.711 32.2581 301.537 30.4139C302.826 27.5386 304.114 24.6638 305.404 21.7904ZM270.998 45.728L288.979 5.61758L292.628 8.6793C289.118 16.513 285.606 24.3457 282.094 32.1781L282.029 32.3228L281.994 32.4022C279.545 37.8647 277.095 43.3271 274.647 48.7897L270.998 45.728ZM282.213 38.3203C282.691 37.2538 283.168 36.1874 283.646 35.121C285.234 31.5741 286.821 28.028 288.415 24.4848C291.371 29.6254 294.9 33.4863 298.771 36.5888C298.029 38.2429 297.287 39.897 296.546 41.551C295.22 44.5086 293.895 47.4658 292.567 50.4225C288.701 47.3235 285.169 43.4609 282.213 38.3203ZM299.664 74.595C294.732 72.2665 289.898 69.7194 285.499 66.1879C287.616 61.4676 289.731 56.7495 291.844 52.0296C296.238 55.5538 301.076 58.1006 306.012 60.4364C305.153 62.3515 304.295 64.2659 303.438 66.18L303.358 66.3571L303.338 66.4027C302.114 69.1339 300.89 71.8643 299.664 74.595ZM319.745 65.0096C316.861 63.4892 313.908 62.1365 310.954 60.7834C309.546 60.1382 308.137 59.4929 306.736 58.8293L307.227 57.7328C309.129 53.4849 311.031 49.2389 312.939 44.9955C314.315 45.6459 315.699 46.2799 317.082 46.9138L317.084 46.9143C320.064 48.28 323.044 49.6455 325.947 51.1741C324.109 55.2658 322.276 59.3586 320.442 63.4529L320.423 63.4961L319.745 65.0096ZM333.253 46.3358L333.251 46.3396L333.242 46.3592C333.136 46.5936 333.031 46.8279 332.926 47.0622C334.772 48.1938 336.568 49.4281 338.297 50.8148C337.241 53.1748 336.182 55.534 335.124 57.8931C334.065 60.2523 333.007 62.6114 331.95 64.9714C330.224 63.5864 328.426 62.3503 326.583 61.2222C324.603 65.646 322.62 70.0701 320.638 74.493L319.374 77.3121C321.217 78.4403 323.017 79.6781 324.742 81.0613C323.688 83.4183 322.632 85.7745 321.577 88.1307C320.518 90.4946 319.458 92.8585 318.401 95.2231C314.007 91.6951 309.167 89.1504 304.234 86.8104C304.502 86.2167 304.768 85.6249 305.033 85.0333C305.264 84.5191 305.495 84.0051 305.727 83.4901C304.326 82.8261 302.917 82.1801 301.508 81.5341L301.507 81.5337C297.759 79.8148 294.012 78.0966 290.415 76.0437C290.175 76.5785 289.936 77.1128 289.697 77.6468C289.054 79.0817 288.413 80.514 287.768 81.9455C291.388 84.0095 295.159 85.7373 298.93 87.4651C310.434 92.7358 321.938 98.0068 329.154 112.825C333.685 102.728 338.212 92.6272 342.739 82.5261C345.615 76.1098 348.491 69.6933 351.368 63.2776C346.901 54.12 340.809 48.6085 334.08 44.4884C333.807 45.1055 333.529 45.721 333.253 46.3358ZM335.821 91.5582C332.864 86.4176 329.338 82.5585 325.467 79.456L325.956 78.364L325.959 78.3577C327.861 74.1105 329.763 69.865 331.671 65.6223C335.537 68.7212 339.07 72.5856 342.022 77.7228C340.807 80.4286 339.595 83.1355 338.382 85.8426L338.364 85.8833L338.288 86.0524C337.466 87.8877 336.644 89.7231 335.821 91.5582ZM119.691 74.6114H126.175C128.306 74.6114 130.128 73.0739 130.486 70.9721C131.656 64.0963 134.26 57.708 138.223 51.9855C139.42 50.2591 139.219 47.9264 137.746 46.4292L133.082 41.6885L139.196 35.4751L143.755 40.1108C145.265 41.6453 147.667 41.8535 149.419 40.6C155.031 36.5805 161.293 33.9417 168.031 32.757C170.122 32.3891 171.646 30.5729 171.646 28.4501V21.7831H180.216V28.4495C180.216 30.5723 181.74 32.3879 183.831 32.7564C190.571 33.9429 196.833 36.5817 202.44 40.5982C204.191 41.8529 206.594 41.6442 208.104 40.1102L212.667 35.471L218.781 41.6867L214.115 46.4292C212.642 47.9264 212.442 50.2597 213.638 51.9861C217.604 57.7091 220.207 64.0969 221.375 70.9715C221.732 73.0733 223.553 74.6119 225.686 74.6119H232.171V77.2939H199.171C198.284 65.0787 188.205 55.4132 175.932 55.4132C163.658 55.4132 153.578 65.0787 152.691 77.2939H119.691V74.6114ZM161.469 77.2933C162.32 69.9074 168.479 64.1581 175.934 64.1581C183.385 64.1581 189.542 69.9074 190.393 77.2933H161.469ZM253.33 154.253H98.5319V86.0383H253.33V154.253ZM113.399 105.279H123.019C125.435 105.279 127.392 103.322 127.392 100.906C127.392 98.4909 125.435 96.5336 123.019 96.5336H113.399C110.984 96.5336 109.026 98.4909 109.026 100.906C109.026 103.321 110.984 105.279 113.399 105.279ZM151.88 105.279H142.26C139.844 105.279 137.887 103.321 137.887 100.906C137.887 98.4909 139.844 96.5336 142.26 96.5336H151.88C154.295 96.5336 156.253 98.4909 156.253 100.906C156.253 103.322 154.295 105.279 151.88 105.279ZM171.122 105.279H180.742C183.158 105.279 185.115 103.322 185.115 100.906C185.115 98.4909 183.158 96.5336 180.742 96.5336H171.122C168.706 96.5336 166.749 98.4909 166.749 100.906C166.749 103.321 168.706 105.279 171.122 105.279ZM209.602 105.279H199.981C197.566 105.279 195.608 103.321 195.608 100.906C195.608 98.4909 197.566 96.5336 199.981 96.5336H209.602C212.017 96.5336 213.974 98.4909 213.974 100.906C213.974 103.322 212.017 105.279 209.602 105.279ZM228.843 105.279H238.463C240.878 105.279 242.836 103.322 242.836 100.906C242.836 98.4909 240.878 96.5336 238.463 96.5336H228.843C226.427 96.5336 224.47 98.4909 224.47 100.906C224.47 103.321 226.427 105.279 228.843 105.279ZM123.019 143.758H113.399C110.984 143.758 109.026 141.8 109.026 139.385C109.026 136.969 110.984 135.012 113.399 135.012H123.019C125.435 135.012 127.392 136.969 127.392 139.385C127.392 141.8 125.435 143.758 123.019 143.758ZM209.601 135.012H142.114C139.699 135.012 137.741 136.969 137.741 139.385C137.741 141.8 139.699 143.758 142.114 143.758H209.601C212.017 143.758 213.974 141.8 213.974 139.385C213.974 136.969 212.017 135.012 209.601 135.012ZM228.843 135.012H238.463C240.878 135.012 242.836 136.969 242.836 139.385C242.836 141.8 240.878 143.758 238.463 143.758H228.843C226.427 143.758 224.47 141.8 224.47 139.385C224.47 136.969 226.427 135.012 228.843 135.012ZM123.457 120.147C123.457 122.562 125.414 124.519 127.83 124.519H137.45C139.866 124.519 141.823 122.562 141.823 120.147C141.823 117.731 139.866 115.774 137.45 115.774H127.83C125.414 115.774 123.457 117.731 123.457 120.147ZM156.69 124.519C154.275 124.519 152.317 122.562 152.317 120.147C152.317 117.731 154.275 115.774 156.69 115.774H166.311C168.726 115.774 170.683 117.731 170.683 120.147C170.683 122.562 168.726 124.519 166.311 124.519H156.69ZM181.178 120.147C181.178 122.562 183.135 124.519 185.551 124.519H195.171C197.586 124.519 199.544 122.562 199.544 120.147C199.544 117.731 197.586 115.774 195.171 115.774H185.551C183.135 115.774 181.178 117.731 181.178 120.147ZM214.411 124.519C211.995 124.519 210.038 122.562 210.038 120.147C210.038 117.731 211.995 115.774 214.411 115.774H224.031C226.447 115.774 228.404 117.731 228.404 120.147C228.404 122.562 226.447 124.519 224.031 124.519H214.411ZM33.1694 30.1937C38.1019 27.8614 42.9376 25.3164 47.3339 21.7904C48.6232 24.6627 49.9109 27.5362 51.1989 30.4103C52.0259 32.2557 52.853 34.1013 53.6806 35.947C49.2801 39.4764 44.4423 42.0232 39.5119 44.3538C38.645 42.4173 37.7772 40.481 36.9092 38.5447C35.6618 35.7615 34.4142 32.9781 33.1694 30.1937ZM63.7588 5.6176L81.7394 45.728L78.0906 48.7897C75.6331 43.3067 73.1747 37.8239 70.7162 32.341C67.1799 24.4542 63.6435 16.5673 60.1099 8.67932L63.7588 5.6176ZM69.0956 35.1297C69.5717 36.1932 70.0479 37.2567 70.5242 38.3203C67.5681 43.4609 64.037 47.3235 60.1706 50.4225C58.8452 47.4715 57.5223 44.5199 56.1991 41.5679C55.4552 39.9083 54.7113 38.2486 53.9669 36.5888C57.8374 33.4863 61.3664 29.6254 64.3226 24.4848C65.9175 28.0309 67.5064 31.5799 69.0956 35.1297ZM67.2384 66.1879C62.8396 69.7194 58.0057 72.2665 53.0735 74.595C51.8424 71.8534 50.6139 69.1121 49.3851 66.3699C48.499 64.3926 47.6127 62.4149 46.7251 60.4364C51.6618 58.1006 56.4995 55.5538 60.8938 52.0296C63.0067 56.7495 65.1217 61.4676 67.2384 66.1879ZM41.7832 60.7834C38.8293 62.1365 35.8762 63.4892 32.9923 65.0096L32.3061 63.4775C30.4687 59.375 28.632 55.274 26.7906 51.1741C29.6935 49.6455 32.6737 48.2799 35.6541 46.9143C37.038 46.2802 38.4219 45.6461 39.7982 44.9956C41.7063 49.2382 43.6077 53.4835 45.5099 57.7306L46.0019 58.8293C44.6004 59.4929 43.1917 60.1382 41.7832 60.7834ZM19.4873 46.3409C19.2096 45.7243 18.9317 45.1072 18.6578 44.4884C11.9282 48.6085 5.83668 54.12 1.36914 63.2776C4.24869 69.6991 7.1273 76.1213 10.0058 82.5434C14.5308 92.6388 19.0556 102.734 23.5836 112.825C30.7992 98.0068 42.3035 92.7358 53.8072 87.4651C57.5782 85.7373 61.3492 84.0095 64.9691 81.9455C64.3251 80.5151 63.6843 79.0839 63.0423 77.6501C62.8027 77.115 62.563 76.5796 62.3228 76.0437C58.7256 78.0967 54.9788 79.8148 51.2303 81.5337C49.8214 82.1798 48.4122 82.826 47.0107 83.4901C47.2427 84.0045 47.4731 84.518 47.7035 85.0316C47.9693 85.6238 48.2351 86.2162 48.5035 86.8104C43.5703 89.1504 38.7308 91.6951 34.3362 95.2231C33.2805 92.8616 32.2228 90.5009 31.1651 88.1402C30.108 85.7809 29.0509 83.4215 27.9958 81.0613C29.7202 79.6781 31.5205 78.4403 33.3631 77.3121C32.9296 76.3448 32.4961 75.3775 32.0625 74.41C30.0926 70.0148 28.1223 65.6184 26.1545 61.2222C24.3119 62.3503 22.5137 63.5864 20.7871 64.9714C19.7307 62.6116 18.6723 60.2525 17.6139 57.8935C16.5554 55.5342 15.4969 53.1749 14.4404 50.8149C16.1691 49.4281 17.9652 48.1938 19.8119 47.0622C19.704 46.8218 19.5957 46.5814 19.4873 46.3409ZM27.2705 79.456C23.4 82.5585 19.8731 86.4176 16.9169 91.5583C16.0686 89.6669 15.2213 87.7752 14.374 85.8837C13.1553 83.1629 11.9367 80.4423 10.7153 77.7228C13.6672 72.5856 17.2004 68.7212 21.0668 65.6223C22.9743 69.8635 24.875 74.1073 26.7765 78.353L27.2705 79.456Z" fill="white"/>
<path d="M324.875 29.545L326.139 26.7874V26.7874L324.875 29.545ZM336.038 35.066L338.806 36.307L339.932 33.7949L337.541 32.431L336.038 35.066ZM294.646 4.17391L297.373 2.84584L294.514 -3.0241L291.872 2.94631L294.646 4.17391ZM293.816 6.02604L296.58 7.27574L296.582 7.27185L293.816 6.02604ZM293.806 6.04852L291.042 4.79882L291.04 4.80297L293.806 6.04852ZM293.492 6.74767L291.542 9.07133L294.615 11.6498L296.259 7.99067L293.492 6.74767ZM289.843 3.68595L287.076 2.44227L286.136 4.53487L287.893 6.00961L289.843 3.68595ZM290.421 2.39995L293.188 3.64362L294.128 1.55103L292.371 0.0762883L290.421 2.39995ZM288.336 0.650391L290.286 -1.67327L287.21 -4.25374L285.568 -0.590521L288.336 0.650391ZM253.975 77.2933V80.3266H255.939L256.743 78.5342L253.975 77.2933ZM240.917 77.2933H237.884V80.3266H240.917V77.2933ZM229.257 65.8658L226.306 66.5673L226.86 68.8991H229.257V65.8658ZM222.807 50.065L220.644 47.9376L218.995 49.6142L220.208 51.6293L222.807 50.065ZM228.032 44.7535L225.87 42.6261L225.87 42.6261L228.032 44.7535ZM228.032 38.6206L230.195 36.4935L230.195 36.4935L228.032 38.6206ZM215.785 26.1687L213.621 28.2946L213.622 28.2957L215.785 26.1687ZM209.55 26.1681L207.389 24.0398L207.387 24.041L209.55 26.1681ZM204.402 31.4014L202.806 33.9807L204.866 35.2556L206.565 33.5285L204.402 31.4014ZM188.962 24.9046H185.929V27.281L188.236 27.8498L188.962 24.9046ZM162.901 24.9052L163.626 27.8504L165.934 27.2817V24.9052H162.901ZM147.457 31.4026L145.295 33.5295L146.994 35.2567L149.054 33.982L147.457 31.4026ZM142.314 26.1733L140.152 28.3L140.152 28.3003L142.314 26.1733ZM136.079 26.1727L138.242 28.3001L138.242 28.2994L136.079 26.1727ZM123.831 38.6211L125.993 40.7489L125.994 40.7485L123.831 38.6211ZM123.831 44.7541L125.993 42.6267L125.993 42.6267L123.831 44.7541ZM129.056 50.065L131.655 51.6292L132.868 49.6141L131.218 47.9376L129.056 50.065ZM122.606 65.8652V68.8986H125.002L125.557 66.5672L122.606 65.8652ZM110.945 77.2928V80.3261H113.978V77.2928H110.945ZM98.7625 77.2928L95.9947 78.5337L96.7982 80.3261H98.7625V77.2928ZM64.4017 0.650405L67.1696 -0.590507L65.5272 -4.25371L62.4519 -1.67326L64.4017 0.650405ZM62.3166 2.39996L60.3669 0.0762935L58.6093 1.55105L59.55 3.64366L62.3166 2.39996ZM62.8947 3.68596L64.8445 6.00963L66.6021 4.53488L65.6613 2.44226L62.8947 3.68596ZM59.2458 6.74769L56.4789 7.99064L58.1227 11.6498L61.1956 9.07135L59.2458 6.74769ZM58.9208 6.02546L61.6865 4.77972L61.6865 4.7797L58.9208 6.02546ZM58.0917 4.17393L60.8655 2.94638L58.2233 -3.02424L55.3646 2.84585L58.0917 4.17393ZM27.8624 29.545L26.5988 26.7874L27.8624 29.545ZM16.6993 35.066L15.1966 32.431L12.8051 33.7949L13.9315 36.307L16.6993 35.066ZM21.3435 45.4243L18.5757 46.6652L21.3435 45.4243ZM38.9162 84.6075L36.1488 85.8493L37.5165 88.8973L40.4186 87.2426L38.9162 84.6075ZM50.0751 79.0898L51.3385 81.8474H51.3385L50.0751 79.0898ZM80.3059 53.7248L83.0327 55.0534L83.6567 53.7726L83.0696 52.4746L80.3059 53.7248ZM78.9567 50.7196L77.0069 48.3959L75.2451 49.8743L76.193 51.9698L78.9567 50.7196ZM82.6056 47.6579L85.3734 46.4169L83.731 42.7539L80.6558 45.3342L82.6056 47.6579ZM95.8928 77.2928V80.3261H100.577L98.6607 76.0518L95.8928 77.2928ZM256.844 77.2933L254.077 76.0523L252.16 80.3266H256.844V77.2933ZM270.132 47.6579L272.082 45.3342L269.007 42.7538L267.364 46.4169L270.132 47.6579ZM273.781 50.7196L276.545 51.9697L277.492 49.8742L275.731 48.3959L273.781 50.7196ZM273.106 52.2222L270.337 50.9837L270.337 50.9839L273.106 52.2222ZM272.432 53.7248L269.668 52.4746L269.081 53.7726L269.705 55.0533L272.432 53.7248ZM302.663 79.0898L301.399 81.8474L302.663 79.0898ZM313.821 84.6075L312.319 87.2425L315.221 88.8973L316.589 85.8493L313.821 84.6075ZM331.397 45.4182L328.629 44.1772L328.629 44.1772L331.397 45.4182ZM319.568 30.1937L322.337 31.4317L323.549 28.7208L320.865 27.4515L319.568 30.1937ZM305.404 21.7904L307.301 19.4241L304.242 16.9706L302.636 20.5482L305.404 21.7904ZM315.822 38.5576L313.055 37.3169V37.317L315.822 38.5576ZM313.226 44.3537L311.929 47.0961L314.729 48.4194L315.994 45.5931L313.226 44.3537ZM299.057 35.947L296.289 34.7058L295.329 36.8458L297.159 38.3132L299.057 35.947ZM301.537 30.4139L304.305 31.6543V31.6543L301.537 30.4139ZM288.979 5.61758L290.929 3.29392L287.853 0.713352L286.211 4.37678L288.979 5.61758ZM270.998 45.728L268.23 44.4872L267.293 46.5785L269.048 48.0517L270.998 45.728ZM292.628 8.6793L295.396 9.9194L296.333 7.8284L294.577 6.35564L292.628 8.6793ZM282.094 32.1781L284.862 33.4198L284.862 33.4192L282.094 32.1781ZM282.029 32.3228L279.262 31.0812L279.262 31.0816L282.029 32.3228ZM281.994 32.4022L279.226 31.161L279.226 31.1612L281.994 32.4022ZM274.647 48.7897L272.697 51.1134L275.773 53.6942L277.415 50.0303L274.647 48.7897ZM283.646 35.121L286.414 36.3605L286.414 36.3605L283.646 35.121ZM282.213 38.3203L279.445 37.0804L278.813 38.4918L279.584 39.8324L282.213 38.3203ZM288.415 24.4848L291.044 22.9726L288.084 17.8249L285.649 23.2406L288.415 24.4848ZM298.771 36.5888L301.538 37.8301L302.498 35.6893L300.668 34.2219L298.771 36.5888ZM296.546 41.551L293.778 40.3103V40.3103L296.546 41.551ZM292.567 50.4225L290.67 52.7893L293.728 55.2407L295.334 51.6653L292.567 50.4225ZM285.499 66.1879L282.731 64.9467L281.772 67.0856L283.6 68.5532L285.499 66.1879ZM299.664 74.595L298.369 77.338L301.165 78.6578L302.431 75.8375L299.664 74.595ZM291.844 52.0296L293.742 49.6633L290.679 47.2072L289.075 50.7902L291.844 52.0296ZM306.012 60.4364L308.78 61.6779L309.997 58.9658L307.31 57.6945L306.012 60.4364ZM303.438 66.18L300.67 64.9395L300.669 64.9395L303.438 66.18ZM303.358 66.3571L300.59 65.1167L300.59 65.1174L303.358 66.3571ZM303.338 66.4027L306.106 67.6432L306.106 67.6424L303.338 66.4027ZM310.954 60.7834L309.691 63.5412L310.954 60.7834ZM319.745 65.0096L318.331 67.6929L321.192 69.2012L322.514 66.2495L319.745 65.0096ZM306.736 58.8293L303.967 57.5894L302.753 60.2999L305.438 61.5708L306.736 58.8293ZM307.227 57.7328L309.995 58.9727V58.9727L307.227 57.7328ZM312.939 44.9955L314.236 42.2531L311.441 40.9322L310.173 43.7514L312.939 44.9955ZM317.082 46.9138L315.819 49.6714L315.843 49.6823L315.867 49.6928L317.082 46.9138ZM317.084 46.9143L318.347 44.1567L318.323 44.1458L318.299 44.1353L317.084 46.9143ZM325.947 51.1741L328.714 52.4169L329.881 49.8178L327.36 48.4902L325.947 51.1741ZM320.442 63.4529L317.674 62.2131L317.674 62.2134L320.442 63.4529ZM320.423 63.4961L323.191 64.736L323.192 64.7356L320.423 63.4961ZM333.251 46.3396L330.493 45.0769L330.488 45.0869L330.484 45.0969L333.251 46.3396ZM333.253 46.3358L336.01 47.5985L336.014 47.5901L336.018 47.5815L333.253 46.3358ZM333.242 46.3592L336.008 47.6052L336.009 47.602L333.242 46.3592ZM332.926 47.0622L330.159 45.8193L329.065 48.254L331.341 49.6485L332.926 47.0622ZM338.297 50.8148L341.066 52.0542L342.023 49.9152L340.195 48.4488L338.297 50.8148ZM331.95 64.9714L330.052 67.3375L333.115 69.7941L334.719 66.2108L331.95 64.9714ZM326.583 61.2222L328.167 58.6352L325.224 56.8336L323.814 59.9829L326.583 61.2222ZM320.638 74.493L317.87 73.2524L317.87 73.2525L320.638 74.493ZM319.374 77.3121L316.606 76.0716L315.515 78.5061L317.791 79.8991L319.374 77.3121ZM324.742 81.0613L327.511 82.2993L328.467 80.1608L326.64 78.6951L324.742 81.0613ZM321.577 88.1307L318.809 86.8905V86.8905L321.577 88.1307ZM318.401 95.2231L316.502 97.5885L319.567 100.049L321.171 96.4611L318.401 95.2231ZM304.234 86.8104L301.47 85.5618L300.244 88.2751L302.934 89.5511L304.234 86.8104ZM305.033 85.0333L302.266 83.7914L302.266 83.7915L305.033 85.0333ZM305.727 83.4901L308.492 84.737L309.716 82.0235L307.026 80.7489L305.727 83.4901ZM301.508 81.5341L302.773 78.7769L302.763 78.7727L301.508 81.5341ZM301.507 81.5337L300.243 84.2909L300.252 84.2951L301.507 81.5337ZM290.415 76.0437L291.918 73.4092L289.014 71.7518L287.647 74.8032L290.415 76.0437ZM289.697 77.6468L286.928 76.4072L286.928 76.4072L289.697 77.6468ZM287.768 81.9455L285.003 80.7003L283.871 83.2146L286.266 84.5805L287.768 81.9455ZM298.93 87.4651L300.194 84.7075L298.93 87.4651ZM329.154 112.825L326.427 114.153L329.266 119.984L331.921 114.066L329.154 112.825ZM342.739 82.5261L339.971 81.2854L342.739 82.5261ZM351.368 63.2776L354.136 64.5187L354.717 63.2234L354.095 61.9476L351.368 63.2776ZM334.08 44.4884L335.664 41.9014L332.708 40.0921L331.306 43.2608L334.08 44.4884ZM325.467 79.456L322.699 78.2161L321.74 80.3562L323.57 81.8228L325.467 79.456ZM335.821 91.5582L333.191 93.0704L336.155 98.2246L338.588 92.7996L335.821 91.5582ZM325.956 78.364L328.724 79.6039L328.728 79.5961L328.731 79.5883L325.956 78.364ZM325.959 78.3577L323.191 77.1179L323.187 77.1256L323.184 77.1334L325.959 78.3577ZM331.671 65.6223L333.568 63.2554L330.511 60.8054L328.904 64.3781L331.671 65.6223ZM342.022 77.7228L344.789 78.9655L345.423 77.5535L344.652 76.2115L342.022 77.7228ZM338.382 85.8426L341.15 87.0827V87.0826L338.382 85.8426ZM338.364 85.8833L335.595 84.6433L335.595 84.6434L338.364 85.8833ZM338.288 86.0524L341.056 87.2924L341.056 87.2922L338.288 86.0524ZM119.691 74.6114V71.578H116.657V74.6114H119.691ZM130.486 70.9721L133.476 71.4814L133.476 71.481L130.486 70.9721ZM138.223 51.9855L135.73 50.2577L135.73 50.2584L138.223 51.9855ZM137.746 46.4292L139.909 44.302L139.909 44.3019L137.746 46.4292ZM133.082 41.6885L130.92 39.5611L128.827 41.6884L130.92 43.8158L133.082 41.6885ZM139.196 35.4751L141.358 33.3482L139.196 31.1495L137.033 33.3477L139.196 35.4751ZM143.755 40.1108L141.592 42.2377L141.593 42.2388L143.755 40.1108ZM149.419 40.6L151.184 43.0669L151.185 43.066L149.419 40.6ZM168.031 32.757L168.556 35.7444L168.556 35.7444L168.031 32.757ZM171.646 21.7831V18.7497H168.613V21.7831H171.646ZM180.216 21.7831H183.25V18.7497H180.216V21.7831ZM183.831 32.7564L183.304 35.7436L183.305 35.7438L183.831 32.7564ZM202.44 40.5982L204.207 38.1326L204.207 38.1322L202.44 40.5982ZM208.104 40.1102L210.266 42.2382L210.266 42.2374L208.104 40.1102ZM212.667 35.471L214.83 33.344L212.668 31.1453L210.505 33.3438L212.667 35.471ZM218.781 41.6867L220.943 43.814L223.035 41.687L220.943 39.5598L218.781 41.6867ZM214.115 46.4292L211.953 44.3019L211.953 44.302L214.115 46.4292ZM213.638 51.9861L216.131 50.2584L216.131 50.2583L213.638 51.9861ZM221.375 70.9715L218.384 71.4792L218.384 71.48L221.375 70.9715ZM232.171 74.6119H235.205V71.5786H232.171V74.6119ZM232.171 77.2939V80.3272H235.205V77.2939H232.171ZM199.171 77.2939L196.146 77.5135L196.35 80.3272H199.171V77.2939ZM152.691 77.2939V80.3272H155.512L155.716 77.5135L152.691 77.2939ZM119.691 77.2939H116.657V80.3272H119.691V77.2939ZM161.469 77.2933L158.456 76.9463L158.066 80.3266H161.469V77.2933ZM190.393 77.2933V80.3266H193.796L193.406 76.9463L190.393 77.2933ZM98.5319 154.253H95.4986V157.287H98.5319V154.253ZM253.33 154.253V157.287H256.363V154.253H253.33ZM98.5319 86.0383V83.005H95.4986V86.0383H98.5319ZM253.33 86.0383H256.363V83.005H253.33V86.0383ZM47.3339 21.7904L50.1012 20.5482L48.4953 16.9706L45.4361 19.4241L47.3339 21.7904ZM33.1694 30.1937L31.8728 27.4515L29.1883 28.7208L30.4002 31.4317L33.1694 30.1937ZM51.1989 30.4103L48.4308 31.6508V31.6508L51.1989 30.4103ZM53.6806 35.947L55.5785 38.3132L57.408 36.8458L56.4484 34.7058L53.6806 35.947ZM39.5119 44.3538L36.7434 45.5931L38.0086 48.4195L40.8082 47.0961L39.5119 44.3538ZM36.9092 38.5447L39.6772 37.304L36.9092 38.5447ZM81.7394 45.728L83.6892 48.0517L85.4449 46.5785L84.5074 44.4872L81.7394 45.728ZM63.7588 5.6176L66.5267 4.37679L64.8844 0.713374L61.809 3.29393L63.7588 5.6176ZM78.0906 48.7897L75.3226 50.0303L76.9646 53.6942L80.0403 51.1134L78.0906 48.7897ZM70.7162 32.341L67.9484 33.582V33.582L70.7162 32.341ZM60.1099 8.67932L58.1601 6.35565L56.4049 7.82841L57.3416 9.91941L60.1099 8.67932ZM70.5242 38.3203L73.1538 39.8324L73.9247 38.4918L73.2926 37.0804L70.5242 38.3203ZM69.0956 35.1297L71.8641 33.8902L71.8641 33.8902L69.0956 35.1297ZM60.1706 50.4225L57.4036 51.6653L59.0094 55.2407L62.0677 52.7894L60.1706 50.4225ZM56.1991 41.5679L58.9671 40.3273L56.1991 41.5679ZM53.9669 36.5888L52.0697 34.222L50.2391 35.6894L51.1992 37.8301L53.9669 36.5888ZM64.3226 24.4848L67.089 23.2406L64.6533 17.8249L61.6931 22.9727L64.3226 24.4848ZM53.0735 74.595L50.3064 75.8376L51.5728 78.6578L54.3685 77.338L53.0735 74.595ZM67.2384 66.1879L69.1374 68.5532L70.9653 67.0856L70.0062 64.9467L67.2384 66.1879ZM49.3851 66.3699L52.1531 65.1294L49.3851 66.3699ZM46.7251 60.4364L45.4278 57.6945L42.7408 58.9658L43.9575 61.6779L46.7251 60.4364ZM60.8938 52.0296L63.6623 50.7902L62.0584 47.2072L58.996 49.6633L60.8938 52.0296ZM32.9923 65.0096L30.2239 66.2495L31.5459 69.2012L34.4069 67.6929L32.9923 65.0096ZM41.7832 60.7834L40.52 58.0256L41.7832 60.7834ZM32.3061 63.4775L29.5377 64.7174L29.5377 64.7174L32.3061 63.4775ZM26.7906 51.1741L25.3773 48.4902L22.8562 49.8178L24.0236 52.4169L26.7906 51.1741ZM35.6541 46.9143L36.9176 49.6719L36.9176 49.6719L35.6541 46.9143ZM39.7982 44.9956L42.5646 43.7514L41.2967 40.9322L38.502 42.2531L39.7982 44.9956ZM45.5099 57.7306L42.7415 58.9705V58.9705L45.5099 57.7306ZM46.0019 58.8293L47.3 61.5708L49.9842 60.2999L48.7703 57.5894L46.0019 58.8293ZM18.6578 44.4884L21.4316 43.2609L20.0293 40.0921L17.074 41.9014L18.6578 44.4884ZM19.4873 46.3409L16.7216 47.5866L16.7216 47.5866L19.4873 46.3409ZM1.36914 63.2776L-1.35705 61.9476L-1.97947 63.2234L-1.39863 64.5187L1.36914 63.2776ZM10.0058 82.5434L7.23786 83.7841H7.23786L10.0058 82.5434ZM23.5836 112.825L20.8162 114.066L23.4713 119.984L26.3108 114.153L23.5836 112.825ZM53.8072 87.4651L55.0707 90.2227L53.8072 87.4651ZM64.9691 81.9455L66.4716 84.5805L68.867 83.2147L67.735 80.7003L64.9691 81.9455ZM63.0423 77.6501L60.2738 78.8897L60.2738 78.8897L63.0423 77.6501ZM62.3228 76.0437L65.0909 74.8033L63.7235 71.7518L60.8193 73.4092L62.3228 76.0437ZM51.2303 81.5337L52.4947 84.2909H52.4947L51.2303 81.5337ZM47.0107 83.4901L45.7118 80.7489L43.0219 82.0235L44.2455 84.737L47.0107 83.4901ZM47.7035 85.0316L50.471 83.7898L50.471 83.7898L47.7035 85.0316ZM48.5035 86.8104L49.8035 89.5511L52.4934 88.2751L51.2679 85.5618L48.5035 86.8104ZM34.3362 95.2231L31.567 96.4611L33.1708 100.049L36.2352 97.5885L34.3362 95.2231ZM31.1651 88.1402L28.3969 89.3805L31.1651 88.1402ZM27.9958 81.0613L26.0978 78.6952L24.2706 80.1608L25.2266 82.2993L27.9958 81.0613ZM33.3631 77.3121L34.947 79.8991L37.2222 78.5061L36.1312 76.0716L33.3631 77.3121ZM32.0625 74.41L34.8305 73.1695L32.0625 74.41ZM26.1545 61.2222L28.9231 59.983L27.5134 56.8336L24.5706 58.6353L26.1545 61.2222ZM20.7871 64.9714L18.0186 66.2108L19.6227 69.7941L22.6851 67.3375L20.7871 64.9714ZM17.6139 57.8935L14.8464 59.1352L14.8464 59.1352L17.6139 57.8935ZM14.4404 50.8149L12.5424 48.4488L10.7143 49.9152L11.6719 52.0542L14.4404 50.8149ZM19.8119 47.0622L21.3968 49.6485L23.6727 48.254L22.5789 45.8192L19.8119 47.0622ZM16.9169 91.5583L14.1492 92.7996L16.5824 98.2247L19.5464 93.0704L16.9169 91.5583ZM27.2705 79.456L29.1677 81.8228L30.9974 80.3562L30.0389 78.2161L27.2705 79.456ZM14.374 85.8837L11.6057 87.1237L11.6057 87.1237L14.374 85.8837ZM10.7153 77.7228L8.08525 76.2115L7.31405 77.5535L7.94822 78.9655L10.7153 77.7228ZM21.0668 65.6223L23.8332 64.3781L22.2264 60.8054L19.1697 63.2554L21.0668 65.6223ZM26.7765 78.353L24.0082 79.5929L24.0082 79.5929L26.7765 78.353ZM323.612 32.3026C327.403 34.0398 331.051 35.7138 334.536 37.7009L337.541 32.431C333.784 30.2886 329.89 28.5063 326.139 26.7874L323.612 32.3026ZM291.919 5.50199C299.659 21.3956 312.121 27.0373 323.612 32.3026L326.139 26.7874C314.619 21.5088 304.075 16.6079 297.373 2.84584L291.919 5.50199ZM296.582 7.27185C296.859 6.65686 297.141 6.03079 297.42 5.40152L291.872 2.94631C291.603 3.55436 291.329 4.16234 291.051 4.78023L296.582 7.27185ZM296.57 7.29822L296.58 7.27574L291.053 4.77634L291.042 4.79882L296.57 7.29822ZM296.259 7.99067C296.363 7.75906 296.467 7.52716 296.572 7.29406L291.04 4.80297C290.935 5.03611 290.83 5.27026 290.725 5.50467L296.259 7.99067ZM287.893 6.00961L291.542 9.07133L295.441 4.42401L291.793 1.36229L287.893 6.00961ZM287.654 1.15627L287.076 2.44227L292.609 4.92963L293.188 3.64362L287.654 1.15627ZM286.386 2.97405L288.471 4.7236L292.371 0.0762883L290.286 -1.67327L286.386 2.97405ZM256.743 78.5342L291.104 1.8913L285.568 -0.590521L251.207 76.0524L256.743 78.5342ZM240.917 80.3266H253.975V74.26H240.917V80.3266ZM237.884 70.2386V77.2933H243.95V70.2386H237.884ZM236.544 68.8991C237.285 68.8991 237.884 69.4984 237.884 70.2386H243.95C243.95 66.1478 240.635 62.8325 236.544 62.8325V68.8991ZM229.257 68.8991H236.544V62.8325H229.257V68.8991ZM220.208 51.6293C223.008 56.2811 225.049 61.2811 226.306 66.5673L232.208 65.1644C230.807 59.2702 228.528 53.6881 225.405 48.5007L220.208 51.6293ZM225.87 42.6261L220.644 47.9376L224.969 52.1923L230.195 46.8809L225.87 42.6261ZM225.87 40.7476C226.383 41.2693 226.382 42.1055 225.87 42.6261L230.195 46.8809C233.03 43.9989 233.03 39.3756 230.195 36.4935L225.87 40.7476ZM213.622 28.2957L225.87 40.7476L230.195 36.4935L217.948 24.0416L213.622 28.2957ZM212.667 27.8954C213.028 27.8954 213.371 28.0399 213.621 28.2946L217.949 24.0427C216.556 22.6253 214.652 21.8288 212.667 21.8288V27.8954ZM211.711 28.2963C211.964 28.0395 212.309 27.8954 212.667 27.8954V21.8288C210.681 21.8288 208.78 22.6268 207.389 24.0398L211.711 28.2963ZM206.565 33.5285L211.712 28.2952L207.387 24.041L202.24 29.2743L206.565 33.5285ZM188.236 27.8498C193.391 29.1205 198.267 31.1719 202.806 33.9807L205.998 28.8221C200.924 25.6816 195.461 23.3824 189.688 21.9595L188.236 27.8498ZM185.929 17.4103V24.9046H191.995V17.4103H185.929ZM184.589 16.0708C185.33 16.0708 185.929 16.6701 185.929 17.4103H191.995C191.995 13.3195 188.68 10.0042 184.589 10.0042V16.0708ZM167.273 16.0708H184.589V10.0042H167.273V16.0708ZM165.934 17.4103C165.934 16.6701 166.533 16.0708 167.273 16.0708V10.0042C163.183 10.0042 159.867 13.3195 159.867 17.4103H165.934ZM165.934 24.9052V17.4103H159.867V24.9052H165.934ZM149.054 33.982C153.594 31.172 158.473 29.1205 163.626 27.8504L162.175 21.96C156.403 23.3824 150.938 25.6815 145.861 28.8232L149.054 33.982ZM140.152 28.3003L145.295 33.5295L149.62 29.2756L144.477 24.0463L140.152 28.3003ZM139.197 27.9C139.556 27.9 139.9 28.0441 140.152 28.3L144.477 24.0466C143.085 22.6304 141.182 21.8334 139.197 21.8334V27.9ZM138.242 28.2994C138.493 28.0448 138.837 27.9 139.197 27.9V21.8334C137.213 21.8334 135.309 22.6297 133.916 24.046L138.242 28.2994ZM125.994 40.7485L138.242 28.3001L133.917 24.0453L121.669 36.4937L125.994 40.7485ZM125.993 42.6267C125.481 42.1059 125.481 41.2697 125.993 40.7489L121.669 36.4934C118.833 39.3752 118.833 43.9997 121.669 46.8815L125.993 42.6267ZM131.218 47.9376L125.993 42.6267L121.669 46.8815L126.894 52.1923L131.218 47.9376ZM125.557 66.5672C126.814 61.2799 128.855 56.2804 131.655 51.6292L126.457 48.5007C123.335 53.6877 121.057 59.2691 119.655 65.1633L125.557 66.5672ZM115.318 68.8986H122.606V62.8319H115.318V68.8986ZM113.978 70.238C113.978 69.4978 114.577 68.8986 115.318 68.8986V62.8319C111.227 62.8319 107.912 66.1472 107.912 70.238H113.978ZM113.978 77.2928V70.238H107.912V77.2928H113.978ZM98.7625 80.3261H110.945V74.2594H98.7625V80.3261ZM61.6338 1.89132L95.9947 78.5337L101.53 76.0518L67.1696 -0.590507L61.6338 1.89132ZM64.2664 4.72363L66.3514 2.97407L62.4519 -1.67326L60.3669 0.0762935L64.2664 4.72363ZM65.6613 2.44226L65.0832 1.15626L59.55 3.64366L60.1281 4.92967L65.6613 2.44226ZM61.1956 9.07135L64.8445 6.00963L60.945 1.3623L57.2961 4.42402L61.1956 9.07135ZM56.1551 7.2712C56.2637 7.51227 56.3715 7.75158 56.4789 7.99064L62.0128 5.50473C61.9039 5.2624 61.7949 5.02027 61.6865 4.77972L56.1551 7.2712ZM55.3179 5.40148C55.5963 6.03057 55.8782 6.65648 56.1551 7.27122L61.6865 4.7797C61.4083 4.16195 61.1345 3.55421 60.8655 2.94638L55.3179 5.40148ZM29.126 32.3026C40.6163 27.0374 53.0789 21.3956 60.8188 5.502L55.3646 2.84585C48.6626 16.6079 38.1183 21.5088 26.5988 26.7874L29.126 32.3026ZM18.202 37.701C21.6865 35.7138 25.3348 34.0398 29.126 32.3026L26.5988 26.7874C22.8477 28.5063 18.9534 30.2886 15.1966 32.431L18.202 37.701ZM24.1114 44.1833C22.5633 40.7304 21.0152 37.2776 19.4671 33.825L13.9315 36.307C15.4795 39.7596 17.0276 43.2124 18.5757 46.6652L24.1114 44.1833ZM41.6837 83.3656C35.8243 70.3078 29.9678 57.2453 24.1114 44.1833L18.5757 46.6652C24.432 59.7271 30.2889 72.7905 36.1488 85.8493L41.6837 83.3656ZM48.8117 76.3321C45.0616 78.0501 41.1687 79.8315 37.4138 81.9724L40.4186 87.2426C43.9013 85.2569 47.5483 83.5839 51.3385 81.8474L48.8117 76.3321ZM77.579 52.3963C70.8759 66.1545 60.3297 71.0552 48.8117 76.3321L51.3385 81.8474C62.8269 76.5841 75.2914 70.9428 83.0327 55.0534L77.579 52.3963ZM76.8623 53.4606C77.0859 53.9606 77.3126 54.4674 77.5422 54.975L83.0696 52.4746C82.8462 51.9808 82.6247 51.4857 82.4003 50.9838L76.8623 53.4606ZM76.193 51.9698C76.4164 52.4636 76.6378 52.9587 76.8623 53.4606L82.4003 50.9838C82.1767 50.4838 81.95 49.977 81.7204 49.4694L76.193 51.9698ZM80.6558 45.3342L77.0069 48.3959L80.9064 53.0433L84.5553 49.9816L80.6558 45.3342ZM98.6607 76.0518L85.3734 46.4169L79.8377 48.8989L93.125 78.5338L98.6607 76.0518ZM94.159 80.3261H95.8928V74.2594H94.159V80.3261ZM92.8195 81.6655C92.8195 80.9253 93.4187 80.3261 94.159 80.3261V74.2594C90.0683 74.2594 86.7529 77.5747 86.7529 81.6655H92.8195ZM92.8195 158.626V81.6655H86.7529V158.626H92.8195ZM94.159 159.966C93.4187 159.966 92.8195 159.366 92.8195 158.626H86.7529C86.7529 162.717 90.0683 166.032 94.159 166.032V159.966ZM257.703 159.966H94.159V166.032H257.703V159.966ZM259.042 158.626C259.042 159.366 258.443 159.966 257.703 159.966V166.032C261.794 166.032 265.109 162.717 265.109 158.626H259.042ZM259.042 81.6655V158.626H265.109V81.6655H259.042ZM257.703 80.3266C258.444 80.3266 259.042 80.9261 259.042 81.6655H265.109C265.109 77.575 261.793 74.26 257.703 74.26V80.3266ZM256.844 80.3266H257.703V74.26H256.844V80.3266ZM267.364 46.4169L254.077 76.0523L259.612 78.5343L272.9 48.8989L267.364 46.4169ZM275.731 48.3959L272.082 45.3342L268.182 49.9815L271.831 53.0433L275.731 48.3959ZM275.875 53.4607C276.1 52.9587 276.321 52.4636 276.545 51.9697L271.017 49.4695C270.788 49.977 270.561 50.4837 270.337 50.9837L275.875 53.4607ZM275.195 54.975C275.425 54.4674 275.652 53.9605 275.875 53.4605L270.337 50.9839C270.113 51.4858 269.891 51.9808 269.668 52.4746L275.195 54.975ZM303.926 76.3321C292.408 71.0552 281.862 66.1545 275.159 52.3962L269.705 55.0533C277.446 70.9428 289.911 76.5841 301.399 81.8474L303.926 76.3321ZM315.324 81.9724C311.569 79.8314 307.676 78.0501 303.926 76.3321L301.399 81.8474C305.189 83.5839 308.836 85.2569 312.319 87.2425L315.324 81.9724ZM328.629 44.1772C322.772 57.2413 316.914 70.3058 311.054 83.3656L316.589 85.8493C322.45 72.7884 328.307 59.7231 334.165 46.6591L328.629 44.1772ZM333.27 33.825L328.629 44.1772L334.165 46.6592L338.806 36.307L333.27 33.825ZM320.865 27.4515C315.994 25.1482 311.416 22.7239 307.301 19.4241L303.506 24.1567C308.184 27.9088 313.278 30.5747 318.272 32.9359L320.865 27.4515ZM318.59 39.7983C319.84 37.011 321.09 34.222 322.337 31.4317L316.799 28.9557C315.553 31.7429 314.304 34.5292 313.055 37.3169L318.59 39.7983ZM315.994 45.5931C316.859 43.6617 317.724 41.7304 318.59 39.7983L313.055 37.317C312.189 39.2489 311.322 41.1814 310.457 43.1144L315.994 45.5931ZM297.159 38.3132C301.841 42.0688 306.937 44.7363 311.929 47.0961L314.522 41.6114C309.653 39.3101 305.073 36.8841 300.955 33.5807L297.159 38.3132ZM298.769 29.1734C297.943 31.0176 297.116 32.8617 296.289 34.7058L301.825 37.1881C302.652 35.3432 303.479 33.4985 304.305 31.6543L298.769 29.1734ZM302.636 20.5482C301.346 23.4227 300.057 26.2982 298.769 29.1734L304.305 31.6543C305.594 28.7789 306.882 25.905 308.171 23.0326L302.636 20.5482ZM286.211 4.37678L268.23 44.4872L273.766 46.9688L291.747 6.85838L286.211 4.37678ZM294.577 6.35564L290.929 3.29392L287.029 7.94124L290.678 11.003L294.577 6.35564ZM284.862 33.4192C288.374 25.5868 291.886 17.7537 295.396 9.9194L289.859 7.43921C286.35 15.2724 282.839 23.1046 279.327 30.9371L284.862 33.4192ZM284.797 33.5644L284.862 33.4198L279.327 30.9365L279.262 31.0812L284.797 33.5644ZM284.762 33.6435L284.797 33.5641L279.262 31.0816L279.226 31.161L284.762 33.6435ZM277.415 50.0303C279.863 44.568 282.312 39.1058 284.762 33.6433L279.226 31.1612C276.777 36.6236 274.327 42.0862 271.879 47.5491L277.415 50.0303ZM269.048 48.0517L272.697 51.1134L276.597 46.466L272.948 43.4043L269.048 48.0517ZM280.877 33.8815C280.4 34.9479 279.923 36.0142 279.445 37.0804L284.982 39.5601C285.459 38.4935 285.937 37.4268 286.414 36.3605L280.877 33.8815ZM285.649 23.2406C284.054 26.7865 282.465 30.335 280.877 33.8816L286.414 36.3605C288.002 32.8132 289.589 29.2694 291.181 25.729L285.649 23.2406ZM300.668 34.2219C297.069 31.3369 293.797 27.7595 291.044 22.9726L285.785 25.9969C288.945 31.4913 292.732 35.6356 296.874 38.9556L300.668 34.2219ZM299.314 42.7917C300.055 41.1376 300.797 39.4838 301.538 37.8301L296.003 35.3474C295.261 37.0019 294.519 38.6564 293.778 40.3103L299.314 42.7917ZM295.334 51.6653C296.662 48.7074 297.988 45.749 299.314 42.7917L293.778 40.3103C292.452 43.2681 291.127 46.2243 289.8 49.1797L295.334 51.6653ZM279.584 39.8324C282.743 45.3268 286.532 49.4729 290.67 52.7893L294.464 48.0556C290.869 45.1742 287.596 41.595 284.843 36.8081L279.584 39.8324ZM283.6 68.5532C288.281 72.3113 293.373 74.9793 298.369 77.338L300.959 71.852C296.091 69.5537 291.515 67.1275 287.398 63.8225L283.6 68.5532ZM289.075 50.7902C286.963 55.5092 284.848 60.2267 282.731 64.9467L288.267 67.429C290.384 62.7086 292.499 57.9897 294.612 53.2689L289.075 50.7902ZM307.31 57.6945C302.434 55.3874 297.854 52.9614 293.742 49.6633L289.946 54.3959C294.622 58.1462 299.718 60.8137 304.715 63.1782L307.31 57.6945ZM306.206 67.4204C307.063 65.5063 307.921 63.5924 308.78 61.6779L303.245 59.1948C302.385 61.1106 301.527 63.0255 300.67 64.9395L306.206 67.4204ZM306.126 67.5975L306.206 67.4204L300.669 64.9395L300.59 65.1167L306.126 67.5975ZM306.106 67.6424L306.127 67.5968L300.59 65.1174L300.569 65.163L306.106 67.6424ZM302.431 75.8375C303.658 73.1057 304.882 70.3742 306.106 67.6432L300.57 65.1622C299.346 67.8936 298.123 70.623 296.897 73.3524L302.431 75.8375ZM309.691 63.5412C312.658 64.9 315.534 66.2183 318.331 67.6929L321.16 62.3264C318.189 60.76 315.159 59.373 312.218 58.0257L309.691 63.5412ZM305.438 61.5708C306.859 62.244 308.286 62.8973 309.691 63.5412L312.218 58.0257C310.806 57.3791 309.415 56.7418 308.034 56.0878L305.438 61.5708ZM304.458 56.4929L303.967 57.5894L309.504 60.0692L309.995 58.9727L304.458 56.4929ZM310.173 43.7514C308.263 47.9972 306.361 52.2454 304.458 56.4929L309.995 58.9727C311.898 54.7244 313.798 50.4806 315.706 46.2397L310.173 43.7514ZM318.346 44.1562C316.96 43.521 315.593 42.8945 314.236 42.2531L311.643 47.738C313.038 48.3973 314.438 49.0387 315.819 49.6714L318.346 44.1562ZM318.299 44.1353L318.298 44.1349L315.867 49.6928L315.868 49.6933L318.299 44.1353ZM327.36 48.4902C324.371 46.9162 321.315 45.5166 318.347 44.1567L315.82 49.6719C318.813 51.0433 321.717 52.3748 324.534 53.858L327.36 48.4902ZM323.211 64.6928C325.045 60.5982 326.877 56.5069 328.714 52.4169L323.18 49.9314C321.341 54.0247 319.508 58.119 317.674 62.2131L323.211 64.6928ZM323.192 64.7356L323.211 64.6925L317.674 62.2134L317.655 62.2565L323.192 64.7356ZM322.514 66.2495L323.191 64.736L317.655 62.2562L316.977 63.7697L322.514 66.2495ZM336.009 47.6023L336.01 47.5985L330.495 45.0731L330.493 45.0769L336.009 47.6023ZM336.009 47.602L336.018 47.5824L330.484 45.0969L330.475 45.1165L336.009 47.602ZM335.693 48.305C335.797 48.0726 335.902 47.8399 336.008 47.6052L330.476 45.1133C330.371 45.3473 330.265 45.5832 330.159 45.8193L335.693 48.305ZM340.195 48.4488C338.352 46.9698 336.448 45.6631 334.51 44.4758L331.341 49.6485C333.097 50.7245 334.785 51.8864 336.399 53.1809L340.195 48.4488ZM337.891 59.1348C338.95 56.7758 340.009 54.4155 341.066 52.0542L335.529 49.5755C334.473 51.9341 333.415 54.2921 332.356 56.6515L337.891 59.1348ZM334.719 66.2108C335.775 63.8521 336.833 61.4941 337.891 59.1348L332.356 56.6515C331.298 59.0104 330.239 61.3707 329.182 63.732L334.719 66.2108ZM324.999 63.8092C326.75 64.8811 328.441 66.0446 330.052 67.3375L333.848 62.6053C332.007 61.1283 330.101 59.8196 328.167 58.6352L324.999 63.8092ZM323.406 75.7336C325.388 71.3108 327.371 66.8861 329.352 62.4615L323.814 59.9829C321.835 64.406 319.852 68.8294 317.87 73.2524L323.406 75.7336ZM322.142 78.5527L323.406 75.7336L317.87 73.2525L316.606 76.0716L322.142 78.5527ZM326.64 78.6951C324.801 77.22 322.893 75.9096 320.958 74.7252L317.791 79.8991C319.541 80.9709 321.234 82.1362 322.844 83.4275L326.64 78.6951ZM324.345 89.371C325.4 87.015 326.457 84.6576 327.511 82.2993L321.973 79.8233C320.919 82.179 319.864 84.5341 318.809 86.8905L324.345 89.371ZM321.171 96.4611C322.227 94.0978 323.286 91.735 324.345 89.371L318.809 86.8905C317.75 89.2542 316.69 91.6192 315.632 93.9851L321.171 96.4611ZM302.934 89.5511C307.81 91.8638 312.39 94.2874 316.502 97.5885L320.3 92.8577C315.623 89.1028 310.525 86.437 305.534 84.0698L302.934 89.5511ZM302.266 83.7915C302 84.3836 301.736 84.9721 301.47 85.5618L306.998 88.0591C307.268 87.4614 307.535 86.8662 307.801 86.2752L302.266 83.7915ZM302.962 82.2432C302.728 82.7611 302.496 83.2778 302.266 83.7914L307.801 86.2752C308.032 85.7605 308.261 85.249 308.492 84.737L302.962 82.2432ZM300.244 84.2914C301.655 84.9386 303.047 85.5768 304.428 86.2312L307.026 80.7489C305.604 80.0755 304.178 79.4215 302.773 78.7769L300.244 84.2914ZM300.252 84.2951L300.253 84.2956L302.763 78.7727L302.762 78.7722L300.252 84.2951ZM288.911 78.6782C292.645 80.8088 296.514 82.5812 300.243 84.2909L302.772 78.7764C299.003 77.0483 295.379 75.3844 291.918 73.4092L288.911 78.6782ZM292.465 78.8865C292.704 78.3524 292.943 77.8184 293.183 77.2841L287.647 74.8032C287.407 75.3385 287.167 75.8733 286.928 76.4072L292.465 78.8865ZM290.534 83.1906C291.18 81.7559 291.823 80.3209 292.465 78.8864L286.928 76.4072C286.286 77.8425 285.646 79.272 285.003 80.7003L290.534 83.1906ZM300.194 84.7075C296.403 82.9705 292.755 81.2968 289.271 79.3104L286.266 84.5805C290.022 86.7222 293.916 88.5041 297.667 90.2227L300.194 84.7075ZM331.881 111.497C324.146 95.6126 311.682 89.9712 300.194 84.7075L297.667 90.2227C309.186 95.5004 319.73 100.401 326.427 114.153L331.881 111.497ZM339.971 81.2854C335.444 91.3866 330.917 101.487 326.386 111.583L331.921 114.066C336.452 103.969 340.98 93.8678 345.507 83.7668L339.971 81.2854ZM348.601 62.0364C345.724 68.4524 342.847 74.8691 339.971 81.2854L345.507 83.7668C348.383 77.3504 351.259 70.9341 354.136 64.5187L348.601 62.0364ZM332.496 47.0754C338.84 50.9594 344.478 56.0716 348.642 64.6076L354.095 61.9476C349.324 52.1684 342.779 46.2576 335.664 41.9014L332.496 47.0754ZM336.018 47.5815C336.295 46.9681 336.576 46.3436 336.854 45.716L331.306 43.2608C331.038 43.8674 330.764 44.4738 330.487 45.0901L336.018 47.5815ZM323.57 81.8228C327.169 84.7077 330.438 88.2833 333.191 93.0704L338.45 90.0461C335.291 84.5518 331.506 80.4092 327.364 77.0892L323.57 81.8228ZM323.188 77.1241L322.699 78.2161L328.235 80.6959L328.724 79.6039L323.188 77.1241ZM323.184 77.1334L323.181 77.1396L328.731 79.5883L328.734 79.5821L323.184 77.1334ZM328.904 64.3781C326.995 68.6234 325.093 72.8709 323.191 77.1179L328.727 79.5976C330.63 75.35 332.53 71.1067 334.437 66.8664L328.904 64.3781ZM344.652 76.2115C341.497 70.7197 337.705 66.5717 333.568 63.2554L329.774 67.9891C333.369 70.8708 336.644 74.4515 339.392 79.234L344.652 76.2115ZM341.15 87.0826C342.363 84.3753 343.575 81.6697 344.789 78.9655L339.255 76.48C338.039 79.1875 336.826 81.8958 335.614 84.6027L341.15 87.0826ZM341.132 87.1233L341.15 87.0827L335.614 84.6026L335.595 84.6433L341.132 87.1233ZM341.056 87.2922L341.132 87.1232L335.595 84.6434L335.52 84.8125L341.056 87.2922ZM338.588 92.7996C339.412 90.9636 340.234 89.1276 341.056 87.2924L335.52 84.8124C334.698 86.6478 333.876 88.4825 333.053 90.3169L338.588 92.7996ZM126.175 71.578H119.691V77.6447H126.175V71.578ZM127.495 70.4628C127.386 71.1071 126.827 71.578 126.175 71.578V77.6447C129.785 77.6447 132.87 75.0407 133.476 71.4814L127.495 70.4628ZM135.73 50.2584C131.513 56.3463 128.74 63.1506 127.495 70.4631L133.476 71.481C134.572 65.042 137.006 59.0697 140.717 53.7126L135.73 50.2584ZM135.584 48.5563C136.035 49.0151 136.096 49.7294 135.73 50.2577L140.716 53.7133C142.743 50.7889 142.403 46.8377 139.909 44.302L135.584 48.5563ZM130.92 43.8158L135.584 48.5564L139.909 44.3019L135.245 39.5612L130.92 43.8158ZM137.033 33.3477L130.92 39.5611L135.245 43.8159L141.358 37.6024L137.033 33.3477ZM145.917 37.9839L141.358 33.3482L137.033 37.6019L141.592 42.2377L145.917 37.9839ZM147.654 38.133C147.116 38.5176 146.38 38.4541 145.916 37.9828L141.593 42.2388C144.15 44.8366 148.217 45.1894 151.184 43.0669L147.654 38.133ZM167.505 29.7695C160.316 31.0336 153.63 33.8524 147.653 38.1339L151.185 43.066C156.431 39.3087 162.27 36.8498 168.556 35.7444L167.505 29.7695ZM168.613 28.4501C168.613 29.1002 168.146 29.6568 167.505 29.7695L168.556 35.7444C172.097 35.1213 174.68 32.0456 174.68 28.4501H168.613ZM168.613 21.7831V28.4501H174.68V21.7831H168.613ZM180.216 18.7497H171.646V24.8164H180.216V18.7497ZM183.25 28.4495V21.7831H177.183V28.4495H183.25ZM184.357 29.7691C183.716 29.6562 183.25 29.0998 183.25 28.4495H177.183C177.183 32.0448 179.764 35.1197 183.304 35.7436L184.357 29.7691ZM204.207 38.1322C198.233 33.8534 191.548 31.0349 184.357 29.769L183.305 35.7438C189.594 36.8508 195.432 39.3099 200.674 43.0642L204.207 38.1322ZM205.942 37.9822C205.478 38.4535 204.742 38.516 204.207 38.1326L200.673 43.0638C203.64 45.1898 207.709 44.8349 210.266 42.2382L205.942 37.9822ZM210.505 33.3438L205.942 37.9831L210.266 42.2374L214.83 37.5981L210.505 33.3438ZM220.943 39.5598L214.83 33.344L210.505 37.598L216.618 43.8137L220.943 39.5598ZM216.277 48.5564L220.943 43.814L216.618 39.5595L211.953 44.3019L216.277 48.5564ZM216.131 50.2583C215.765 49.7299 215.826 49.0151 216.278 48.5563L211.953 44.302C209.458 46.8377 209.118 50.7895 211.145 53.7139L216.131 50.2583ZM224.365 70.4637C223.124 63.1515 220.351 56.3472 216.131 50.2584L211.145 53.7138C214.857 59.0711 217.291 65.0423 218.384 71.4792L224.365 70.4637ZM225.686 71.5786C225.033 71.5786 224.475 71.1072 224.365 70.463L218.384 71.48C218.99 75.0395 222.074 77.6453 225.686 77.6453V71.5786ZM232.171 71.5786H225.686V77.6453H232.171V71.5786ZM235.205 77.2939V74.6119H229.138V77.2939H235.205ZM199.171 80.3272H232.171V74.2606H199.171V80.3272ZM175.932 58.4465C186.566 58.4465 195.371 66.8349 196.146 77.5135L202.196 77.0743C201.198 63.3226 189.844 52.3798 175.932 52.3798V58.4465ZM155.716 77.5135C156.491 66.8351 165.297 58.4465 175.932 58.4465V52.3798C162.02 52.3798 150.664 63.3224 149.665 77.0743L155.716 77.5135ZM119.691 80.3272H152.691V74.2606H119.691V80.3272ZM116.657 74.6114V77.2939H122.724V74.6114H116.657ZM175.934 61.1248C166.866 61.1248 159.474 68.1018 158.456 76.9463L164.483 77.6404C165.165 71.713 170.092 67.1914 175.934 67.1914V61.1248ZM193.406 76.9463C192.388 68.1028 184.998 61.1248 175.934 61.1248V67.1914C181.771 67.1914 186.697 71.712 187.379 77.6404L193.406 76.9463ZM161.469 80.3266H190.393V74.26H161.469V80.3266ZM98.5319 157.287H253.33V151.22H98.5319V157.287ZM95.4986 86.0383V154.253H101.565V86.0383H95.4986ZM253.33 83.005H98.5319V89.0716H253.33V83.005ZM256.363 154.253V86.0383H250.297V154.253H256.363ZM123.019 102.246H113.399V108.312H123.019V102.246ZM124.359 100.906C124.359 101.647 123.76 102.246 123.019 102.246V108.312C127.11 108.312 130.426 104.997 130.426 100.906H124.359ZM123.019 99.5669C123.76 99.5669 124.359 100.166 124.359 100.906H130.426C130.426 96.8156 127.11 93.5003 123.019 93.5003V99.5669ZM113.399 99.5669H123.019V93.5003H113.399V99.5669ZM112.06 100.906C112.06 100.166 112.659 99.5669 113.399 99.5669V93.5003C109.309 93.5003 105.993 96.8156 105.993 100.906H112.06ZM113.399 102.246C112.659 102.246 112.06 101.646 112.06 100.906H105.993C105.993 104.996 109.308 108.312 113.399 108.312V102.246ZM142.26 108.312H151.88V102.246H142.26V108.312ZM134.853 100.906C134.853 104.996 138.169 108.312 142.26 108.312V102.246C141.52 102.246 140.92 101.646 140.92 100.906H134.853ZM142.26 93.5003C138.169 93.5003 134.853 96.8156 134.853 100.906H140.92C140.92 100.166 141.519 99.5669 142.26 99.5669V93.5003ZM151.88 93.5003H142.26V99.5669H151.88V93.5003ZM159.286 100.906C159.286 96.8156 155.971 93.5003 151.88 93.5003V99.5669C152.62 99.5669 153.219 100.166 153.219 100.906H159.286ZM151.88 108.312C155.971 108.312 159.286 104.997 159.286 100.906H153.219C153.219 101.647 152.62 102.246 151.88 102.246V108.312ZM180.742 102.246H171.122V108.312H180.742V102.246ZM182.082 100.906C182.082 101.647 181.482 102.246 180.742 102.246V108.312C184.833 108.312 188.148 104.997 188.148 100.906H182.082ZM180.742 99.5669C181.482 99.5669 182.082 100.166 182.082 100.906H188.148C188.148 96.8156 184.833 93.5003 180.742 93.5003V99.5669ZM171.122 99.5669H180.742V93.5003H171.122V99.5669ZM169.782 100.906C169.782 100.166 170.382 99.5669 171.122 99.5669V93.5003C167.031 93.5003 163.716 96.8156 163.716 100.906H169.782ZM171.122 102.246C170.382 102.246 169.782 101.646 169.782 100.906H163.716C163.716 104.996 167.031 108.312 171.122 108.312V102.246ZM199.981 108.312H209.602V102.246H199.981V108.312ZM192.575 100.906C192.575 104.996 195.89 108.312 199.981 108.312V102.246C199.241 102.246 198.642 101.646 198.642 100.906H192.575ZM199.981 93.5003C195.891 93.5003 192.575 96.8156 192.575 100.906H198.642C198.642 100.166 199.241 99.5669 199.981 99.5669V93.5003ZM209.602 93.5003H199.981V99.5669H209.602V93.5003ZM217.008 100.906C217.008 96.8156 213.692 93.5003 209.602 93.5003V99.5669C210.342 99.5669 210.941 100.166 210.941 100.906H217.008ZM209.602 108.312C213.692 108.312 217.008 104.997 217.008 100.906H210.941C210.941 101.647 210.342 102.246 209.602 102.246V108.312ZM238.463 102.246H228.843V108.312H238.463V102.246ZM239.802 100.906C239.802 101.647 239.203 102.246 238.463 102.246V108.312C242.554 108.312 245.869 104.997 245.869 100.906H239.802ZM238.463 99.5669C239.203 99.5669 239.802 100.166 239.802 100.906H245.869C245.869 96.8156 242.554 93.5003 238.463 93.5003V99.5669ZM228.843 99.5669H238.463V93.5003H228.843V99.5669ZM227.503 100.906C227.503 100.166 228.102 99.5669 228.843 99.5669V93.5003C224.752 93.5003 221.436 96.8156 221.436 100.906H227.503ZM228.843 102.246C228.103 102.246 227.503 101.646 227.503 100.906H221.436C221.436 104.996 224.752 108.312 228.843 108.312V102.246ZM113.399 146.791H123.019V140.724H113.399V146.791ZM105.993 139.385C105.993 143.475 109.308 146.791 113.399 146.791V140.724C112.659 140.724 112.06 140.125 112.06 139.385H105.993ZM113.399 131.979C109.309 131.979 105.993 135.294 105.993 139.385H112.06C112.06 138.645 112.659 138.045 113.399 138.045V131.979ZM123.019 131.979H113.399V138.045H123.019V131.979ZM130.426 139.385C130.426 135.294 127.11 131.979 123.019 131.979V138.045C123.76 138.045 124.359 138.645 124.359 139.385H130.426ZM123.019 146.791C127.11 146.791 130.426 143.476 130.426 139.385H124.359C124.359 140.125 123.76 140.724 123.019 140.724V146.791ZM142.114 138.045H209.601V131.979H142.114V138.045ZM140.775 139.385C140.775 138.645 141.374 138.045 142.114 138.045V131.979C138.023 131.979 134.708 135.294 134.708 139.385H140.775ZM142.114 140.724C141.374 140.724 140.775 140.125 140.775 139.385H134.708C134.708 143.476 138.023 146.791 142.114 146.791V140.724ZM209.601 140.724H142.114V146.791H209.601V140.724ZM210.941 139.385C210.941 140.125 210.342 140.724 209.601 140.724V146.791C213.692 146.791 217.008 143.476 217.008 139.385H210.941ZM209.601 138.045C210.342 138.045 210.941 138.645 210.941 139.385H217.008C217.008 135.294 213.692 131.979 209.601 131.979V138.045ZM238.463 131.979H228.843V138.045H238.463V131.979ZM245.869 139.385C245.869 135.294 242.554 131.979 238.463 131.979V138.045C239.203 138.045 239.802 138.645 239.802 139.385H245.869ZM238.463 146.791C242.554 146.791 245.869 143.476 245.869 139.385H239.802C239.802 140.125 239.203 140.724 238.463 140.724V146.791ZM228.843 146.791H238.463V140.724H228.843V146.791ZM221.436 139.385C221.436 143.476 224.752 146.791 228.843 146.791V140.724C228.102 140.724 227.503 140.125 227.503 139.385H221.436ZM228.843 131.979C224.752 131.979 221.436 135.294 221.436 139.385H227.503C227.503 138.645 228.102 138.045 228.843 138.045V131.979ZM127.83 121.486C127.09 121.486 126.49 120.887 126.49 120.147H120.424C120.424 124.237 123.739 127.553 127.83 127.553V121.486ZM137.45 121.486H127.83V127.553H137.45V121.486ZM138.79 120.147C138.79 120.887 138.19 121.486 137.45 121.486V127.553C141.541 127.553 144.856 124.237 144.856 120.147H138.79ZM137.45 118.807C138.19 118.807 138.79 119.406 138.79 120.147H144.856C144.856 116.056 141.541 112.741 137.45 112.741V118.807ZM127.83 118.807H137.45V112.741H127.83V118.807ZM126.49 120.147C126.49 119.406 127.09 118.807 127.83 118.807V112.741C123.739 112.741 120.424 116.056 120.424 120.147H126.49ZM149.284 120.147C149.284 124.237 152.6 127.553 156.69 127.553V121.486C155.95 121.486 155.351 120.887 155.351 120.147H149.284ZM156.69 112.741C152.6 112.741 149.284 116.056 149.284 120.147H155.351C155.351 119.406 155.95 118.807 156.69 118.807V112.741ZM166.311 112.741H156.69V118.807H166.311V112.741ZM173.717 120.147C173.717 116.056 170.401 112.741 166.311 112.741V118.807C167.051 118.807 167.65 119.406 167.65 120.147H173.717ZM166.311 127.553C170.401 127.553 173.717 124.237 173.717 120.147H167.65C167.65 120.887 167.051 121.486 166.311 121.486V127.553ZM156.69 127.553H166.311V121.486H156.69V127.553ZM185.551 121.486C184.81 121.486 184.211 120.887 184.211 120.147H178.144C178.144 124.237 181.46 127.553 185.551 127.553V121.486ZM195.171 121.486H185.551V127.553H195.171V121.486ZM196.51 120.147C196.51 120.887 195.911 121.486 195.171 121.486V127.553C199.262 127.553 202.577 124.237 202.577 120.147H196.51ZM195.171 118.807C195.911 118.807 196.51 119.406 196.51 120.147H202.577C202.577 116.056 199.262 112.741 195.171 112.741V118.807ZM185.551 118.807H195.171V112.741H185.551V118.807ZM184.211 120.147C184.211 119.406 184.81 118.807 185.551 118.807V112.741C181.46 112.741 178.144 116.056 178.144 120.147H184.211ZM207.005 120.147C207.005 124.237 210.32 127.553 214.411 127.553V121.486C213.671 121.486 213.071 120.887 213.071 120.147H207.005ZM214.411 112.741C210.32 112.741 207.005 116.056 207.005 120.147H213.071C213.071 119.406 213.671 118.807 214.411 118.807V112.741ZM224.031 112.741H214.411V118.807H224.031V112.741ZM231.437 120.147C231.437 116.056 228.122 112.741 224.031 112.741V118.807C224.772 118.807 225.371 119.406 225.371 120.147H231.437ZM224.031 127.553C228.122 127.553 231.437 124.237 231.437 120.147H225.371C225.371 120.887 224.772 121.486 224.031 121.486V127.553ZM214.411 127.553H224.031V121.486H214.411V127.553ZM45.4361 19.4241C41.3218 22.7239 36.744 25.1482 31.8728 27.4515L34.466 32.9359C39.4598 30.5747 44.5534 27.9088 49.2317 24.1567L45.4361 19.4241ZM53.967 29.1699C52.6791 26.2959 51.391 23.4215 50.1012 20.5482L44.5666 23.0326C45.8554 25.9038 47.1428 28.7765 48.4308 31.6508L53.967 29.1699ZM56.4484 34.7058C55.6209 32.8606 54.794 31.0153 53.967 29.1699L48.4308 31.6508C49.2578 33.4961 50.085 35.3421 50.9129 37.1881L56.4484 34.7058ZM40.8082 47.0961C45.8006 44.7363 50.8961 42.0688 55.5785 38.3132L51.7828 33.5807C47.6642 36.8841 43.0841 39.3101 38.2156 41.6114L40.8082 47.0961ZM34.1413 39.7853C35.0092 41.7218 35.8768 43.6574 36.7434 45.5931L42.2805 43.1144C41.4133 41.1771 40.5451 39.2402 39.6772 37.304L34.1413 39.7853ZM30.4002 31.4317C31.6457 34.2177 32.8939 37.0024 34.1413 39.7853L39.6772 37.304C38.4296 34.5206 37.1827 31.7386 35.9386 28.9557L30.4002 31.4317ZM84.5074 44.4872L66.5267 4.37679L60.9908 6.8584L78.9715 46.9688L84.5074 44.4872ZM80.0403 51.1134L83.6892 48.0517L79.7897 43.4043L76.1408 46.4661L80.0403 51.1134ZM67.9484 33.582C70.4069 39.065 72.8652 44.5475 75.3226 50.0303L80.8586 47.5491C78.401 42.0658 75.9425 36.5828 73.484 31.0999L67.9484 33.582ZM57.3416 9.91941C60.8755 17.808 64.4121 25.6954 67.9484 33.582L73.484 31.0999C69.9477 23.2131 66.4115 15.3267 62.8781 7.43922L57.3416 9.91941ZM61.809 3.29393L58.1601 6.35565L62.0596 11.003L65.7085 7.94126L61.809 3.29393ZM73.2926 37.0804C72.8163 36.0171 72.3403 34.9537 71.8641 33.8902L66.3271 36.3692C66.8032 37.4326 67.2794 38.4964 67.7559 39.5602L73.2926 37.0804ZM62.0677 52.7894C66.2054 49.4729 69.9942 45.3268 73.1538 39.8324L67.8947 36.8081C65.142 41.5951 61.8685 45.1742 58.2735 48.0556L62.0677 52.7894ZM53.4312 42.8086C54.7542 45.7603 56.0776 48.713 57.4036 51.6653L62.9377 49.1797C61.6128 46.2299 60.2903 43.2794 58.9671 40.3273L53.4312 42.8086ZM51.1992 37.8301C51.9435 39.4895 52.6872 41.1489 53.4312 42.8086L58.9671 40.3273C58.2233 38.6677 57.4792 37.0076 56.7346 35.3474L51.1992 37.8301ZM61.6931 22.9727C58.9403 27.7595 55.669 31.337 52.0697 34.222L55.864 38.9556C60.0059 35.6357 63.7925 31.4913 66.9521 25.9969L61.6931 22.9727ZM71.8641 33.8902C70.275 30.3408 68.6851 26.7894 67.089 23.2406L61.5562 25.729C63.1498 29.2723 64.7377 32.819 66.3271 36.3692L71.8641 33.8902ZM54.3685 77.338C59.3646 74.9794 64.4565 72.3113 69.1374 68.5532L65.3394 63.8225C61.2228 67.1275 56.6468 69.5537 51.7786 71.852L54.3685 77.338ZM46.617 67.6104C47.8458 70.3524 49.0748 73.0948 50.3064 75.8376L55.8407 73.3524C54.6101 70.6121 53.3821 67.8718 52.1531 65.1294L46.617 67.6104ZM43.9575 61.6779C44.8448 63.6558 45.7309 65.633 46.617 67.6104L52.1531 65.1294C51.2671 63.1522 50.3805 61.1739 49.4927 59.1948L43.9575 61.6779ZM58.996 49.6633C54.8837 52.9614 50.3037 55.3874 45.4278 57.6945L48.0224 63.1782C53.0198 60.8137 58.1154 58.1462 62.7916 54.3959L58.996 49.6633ZM70.0062 64.9467C67.8895 60.2267 65.7748 55.5092 63.6623 50.7902L58.1252 53.2689C60.2385 57.9897 62.3538 62.7086 64.4706 67.429L70.0062 64.9467ZM34.4069 67.6929C37.2038 66.2183 40.0799 64.9 43.0464 63.5411L40.52 58.0256C37.5787 59.3729 34.5486 60.76 31.5776 62.3264L34.4069 67.6929ZM29.5377 64.7174L30.2239 66.2495L35.7606 63.7698L35.0744 62.2377L29.5377 64.7174ZM24.0236 52.4169C25.8642 56.5151 27.7002 60.6146 29.5377 64.7174L35.0744 62.2377C33.2371 58.1354 31.3998 54.0329 29.5577 49.9314L24.0236 52.4169ZM34.3905 44.1567C31.4228 45.5165 28.3664 46.9162 25.3773 48.4902L28.204 53.8581C31.0207 52.3748 33.9246 51.0433 36.9176 49.6719L34.3905 44.1567ZM38.502 42.2531C37.1447 42.8947 35.7771 43.5213 34.3905 44.1567L36.9176 49.6719C38.2988 49.039 39.6991 48.3974 41.0944 47.738L38.502 42.2531ZM48.2782 56.4907C46.3762 52.244 44.4739 47.9965 42.5646 43.7514L37.0318 46.2397C38.9388 50.4798 40.8392 54.723 42.7415 58.9705L48.2782 56.4907ZM48.7703 57.5894L48.2782 56.4907L42.7415 58.9705L43.2336 60.0692L48.7703 57.5894ZM43.0464 63.5411C44.4521 62.8973 45.8783 62.244 47.3 61.5708L44.7038 56.0878C43.3226 56.7418 41.9314 57.3791 40.52 58.0256L43.0464 63.5411ZM15.884 45.716C16.1625 46.3454 16.4446 46.9716 16.7216 47.5866L22.253 45.0951C21.9746 44.4771 21.7008 43.869 21.4316 43.2609L15.884 45.716ZM4.09533 64.6076C8.2596 56.0717 13.8976 50.9594 20.2416 47.0754L17.074 41.9014C9.95874 46.2576 3.41376 52.1684 -1.35705 61.9476L4.09533 64.6076ZM12.7738 81.3028C9.8953 74.8807 7.01658 68.4582 4.13691 62.0364L-1.39863 64.5187C1.4808 70.9399 4.3593 77.362 7.23786 83.7841L12.7738 81.3028ZM26.3511 111.583C21.8234 101.493 17.2988 91.3982 12.7738 81.3028L7.23786 83.7841C11.7628 93.8793 16.2878 103.975 20.8162 114.066L26.3511 111.583ZM52.5437 84.7075C41.0552 89.9712 28.5912 95.6127 20.8565 111.497L26.3108 114.153C33.0072 100.401 43.5518 95.5004 55.0707 90.2227L52.5437 84.7075ZM63.4666 79.3104C59.9829 81.2969 56.3348 82.9705 52.5437 84.7075L55.0707 90.2227C58.8217 88.5041 62.7156 86.7222 66.4716 84.5805L63.4666 79.3104ZM60.2738 78.8897C60.9156 80.323 61.5577 81.757 62.2032 83.1907L67.735 80.7003C67.0925 79.2731 66.453 77.8447 65.8107 76.4105L60.2738 78.8897ZM59.5547 77.2841C59.7947 77.8195 60.0342 78.3546 60.2738 78.8897L65.8108 76.4105C65.5712 75.8755 65.3313 75.3397 65.0909 74.8033L59.5547 77.2841ZM52.4947 84.2909C56.2231 82.5812 60.0929 80.8089 63.8263 78.6782L60.8193 73.4092C57.3583 75.3845 53.7345 77.0484 49.966 78.7765L52.4947 84.2909ZM48.3096 86.2312C49.691 85.5766 51.0829 84.9383 52.4947 84.2909L49.966 78.7765C48.5599 79.4212 47.1334 80.0753 45.7118 80.7489L48.3096 86.2312ZM50.471 83.7898C50.2407 83.2766 50.0092 82.7606 49.7759 82.2431L44.2455 84.737C44.4762 85.2485 44.7054 85.7594 44.9361 86.2734L50.471 83.7898ZM51.2679 85.5618C51.0013 84.9715 50.737 84.3825 50.471 83.7898L44.9361 86.2734C45.2016 86.8651 45.4689 87.4608 45.7391 88.059L51.2679 85.5618ZM36.2352 97.5885C40.3471 94.2874 44.9277 91.8638 49.8035 89.5511L47.2035 84.0698C42.213 86.437 37.1145 89.1028 32.4373 92.8578L36.2352 97.5885ZM28.3969 89.3805C29.4547 91.7414 30.5119 94.1009 31.567 96.4611L37.1054 93.9852C36.0491 91.6223 34.9909 89.2605 33.9333 86.9L28.3969 89.3805ZM25.2266 82.2993C26.2823 84.6608 27.3399 87.0213 28.3969 89.3805L33.9333 86.9C32.8761 84.5404 31.8195 82.1822 30.765 79.8234L25.2266 82.2993ZM31.7793 74.7252C29.8447 75.9096 27.9369 77.22 26.0978 78.6952L29.8937 83.4275C31.5036 82.1362 33.1963 80.9709 34.947 79.8991L31.7793 74.7252ZM29.2945 75.6506C29.728 76.618 30.1616 77.5854 30.5951 78.5527L36.1312 76.0716C35.6977 75.1043 35.2641 74.1369 34.8305 73.1695L29.2945 75.6506ZM23.3859 62.4615C25.354 66.8584 27.3246 71.2554 29.2945 75.6506L34.8305 73.1695C32.8606 68.7741 30.8905 64.3783 28.9231 59.983L23.3859 62.4615ZM22.6851 67.3375C24.297 66.0446 25.9876 64.8811 27.7383 63.8092L24.5706 58.6353C22.6362 59.8196 20.7304 61.1283 18.8891 62.6053L22.6851 67.3375ZM14.8464 59.1352C15.9049 61.4944 16.9628 63.8523 18.0186 66.2108L23.5557 63.732C22.4987 61.3709 21.4398 59.0107 20.3815 56.6518L14.8464 59.1352ZM11.6719 52.0542C12.729 54.4156 13.788 56.7761 14.8464 59.1352L20.3815 56.6518C19.3229 54.2924 18.2649 51.9342 17.209 49.5755L11.6719 52.0542ZM18.2271 44.4758C16.2895 45.6631 14.3859 46.9698 12.5424 48.4488L16.3385 53.1809C17.9522 51.8864 19.6409 50.7245 21.3968 49.6485L18.2271 44.4758ZM16.7216 47.5866C16.8301 47.8274 16.9377 48.0664 17.045 48.3052L22.5789 45.8192C22.4702 45.5772 22.3613 45.3354 22.253 45.0951L16.7216 47.5866ZM19.5464 93.0704C22.2993 88.2833 25.5686 84.7077 29.1677 81.8228L25.3734 77.0892C21.2314 80.4092 17.4469 84.5519 14.2874 90.0461L19.5464 93.0704ZM11.6057 87.1237C12.453 89.0151 13.3006 90.9074 14.1492 92.7996L19.6846 90.3169C18.8366 88.4263 17.9896 86.5354 17.1423 84.6437L11.6057 87.1237ZM7.94822 78.9655C9.16891 81.6834 10.3869 84.4027 11.6057 87.1237L17.1423 84.6437C15.9237 81.9231 14.7044 79.2011 13.4823 76.48L7.94822 78.9655ZM19.1697 63.2554C15.0323 66.5717 11.241 70.7197 8.08525 76.2115L13.3453 79.2341C16.0935 74.4515 19.3686 70.8708 22.9639 67.9891L19.1697 63.2554ZM29.5449 77.1132C27.6435 72.8678 25.7418 68.6218 23.8332 64.3781L18.3004 66.8665C20.2067 71.1051 22.1065 75.3468 24.0082 79.5929L29.5449 77.1132ZM30.0389 78.2161L29.5448 77.1131L24.0082 79.5929L24.5022 80.6959L30.0389 78.2161Z" fill="white" mask="url(#path-1-inside-1_1271_4504)"/>
</g>
<defs>
<filter id="filter0_d_1271_4504" x="0.435814" y="0.650391" width="351.866" height="164.216" filterUnits="userSpaceOnUse" color-interpolation-filters="sRGB">
<feFlood flood-opacity="0" result="BackgroundImageFix"/>
<feColorMatrix in="SourceAlpha" type="matrix" values="0 0 0 0 0 0 0 0 0 0 0 0 0 0 0 0 0 0 127 0" result="hardAlpha"/>
<feOffset dy="0.933326"/>
<feGaussianBlur stdDeviation="0.466663"/>
<feComposite in2="hardAlpha" operator="out"/>
<feColorMatrix type="matrix" values="0 0 0 0 0 0 0 0 0 0 0 0 0 0 0 0 0 0 0.25 0"/>
<feBlend mode="normal" in2="BackgroundImageFix" result="effect1_dropShadow_1271_4504"/>
<feBlend mode="normal" in="SourceGraphic" in2="effect1_dropShadow_1271_4504" result="shape"/>
</filter>
</defs>
</svg>
