<svg width="361" height="283" viewBox="0 0 361 283" fill="none" xmlns="http://www.w3.org/2000/svg">
<g filter="url(#filter0_d_1271_4493)">
<path d="M150.141 152.561C150.242 152.581 150.356 152.607 150.465 152.639C150.519 152.655 150.604 152.682 150.7 152.723L150.704 152.725C150.76 152.749 151.013 152.858 151.241 153.101C151.372 153.24 151.602 153.538 151.655 153.99C151.714 154.495 151.522 154.907 151.309 155.165C151.002 155.537 150.611 155.654 150.556 155.67C150.554 155.67 150.553 155.671 150.552 155.671C150.354 155.733 150.166 155.749 150.103 155.755L150.1 155.755C149.773 155.783 149.216 155.776 148.612 155.758C147.337 155.72 145.426 155.619 143.533 155.502C141.639 155.384 139.741 155.249 138.488 155.143C137.881 155.091 137.373 155.042 137.101 155.001L137.1 155.001C137.048 154.993 136.916 154.973 136.784 154.934C136.745 154.923 136.67 154.9 136.58 154.86L136.576 154.859C136.524 154.836 136.272 154.725 136.045 154.473C135.913 154.326 135.703 154.033 135.656 153.602C135.605 153.132 135.773 152.743 135.967 152.489C136.255 152.113 136.63 151.986 136.684 151.967C136.686 151.967 136.688 151.966 136.689 151.966C136.869 151.902 137.029 151.885 137.062 151.881L137.066 151.881C137.127 151.874 137.182 151.871 137.224 151.869C137.306 151.865 137.4 151.863 137.496 151.863C140.233 151.842 141.087 151.719 141.818 151.458C142.136 151.345 142.447 151.199 142.902 150.976C142.291 149.976 141.831 148.905 141.443 147.846C141.414 147.765 141.384 147.683 141.355 147.601C140.046 147.582 138.843 147.556 137.89 147.526C137.064 147.5 136.388 147.47 135.992 147.436C135.894 147.427 135.784 147.416 135.683 147.4C135.635 147.393 135.555 147.379 135.466 147.356C135.422 147.344 135.346 147.322 135.257 147.286C135.195 147.26 134.991 147.175 134.787 146.988C134.567 146.787 134.118 146.222 134.336 145.427C134.502 144.826 134.951 144.556 135.037 144.504L135.037 144.503C135.27 144.363 135.495 144.315 135.533 144.307L135.537 144.306C135.673 144.276 135.813 144.261 135.901 144.252C136.94 144.153 137.38 143.921 137.822 143.632C137.924 143.566 138.038 143.486 138.166 143.397C138.536 143.138 139.024 142.797 139.671 142.457C139.15 141.03 138.554 139.758 137.728 138.689C137.181 137.981 136.759 137.359 136.497 136.812C136.268 136.332 135.97 135.522 136.319 134.683C136.69 133.79 137.518 133.502 137.908 133.397C138.316 133.286 138.794 133.237 139.161 133.198C139.18 133.196 139.199 133.194 139.217 133.192C140.082 133.102 140.849 133.009 141.528 132.68C141.603 132.644 141.678 132.604 141.752 132.56C142.289 132.121 142.723 131.66 143.014 131.033L139.594 94.3931L124.464 89.6779L122.931 89.1998L122.927 89.1987L123.46 87.6873C123.46 87.6884 123.46 87.6889 123.459 87.6888C123.456 87.6882 123.5 87.3864 122.873 86.5316C122.331 85.7925 121.563 85.0022 120.704 84.1187C120.603 84.015 120.501 83.91 120.398 83.8037C119.489 82.866 118.448 81.7728 117.838 80.7048C117.526 80.1606 117.242 79.4826 117.231 78.7304C117.218 77.9047 117.537 77.1454 118.156 76.5445C120.895 73.8844 124.299 71.6761 128.157 70.03L150.141 152.561ZM150.141 152.561C149.417 152.408 148.796 152.191 148.256 151.923M150.141 152.561L148.256 151.923M148.256 151.923C151.696 150.333 154.744 148.284 157.24 145.86C159.977 143.201 162.002 140.137 163.161 136.833C163.162 136.83 163.163 136.827 163.164 136.824L164.125 134.172H196.768L197.5 136.812L197.514 136.862L197.531 136.91C198.689 140.217 200.715 143.285 203.455 145.946C206.194 148.606 209.599 150.815 213.456 152.461M148.256 151.923L128.157 70.0297C131.929 68.4181 136.082 67.3806 140.377 66.9684C144.671 66.5562 149.035 66.7763 153.219 67.6179L153.222 67.6185C157.655 68.5188 161.809 70.0905 165.417 72.2493C168.766 74.2531 171.592 76.7307 173.72 79.5626H187.259C189.371 76.712 192.19 74.2165 195.54 72.1979C199.151 70.0221 203.315 68.4383 207.763 67.5328L207.766 67.5321C211.95 66.6905 216.314 66.4704 220.609 66.8826C224.903 67.2948 229.057 68.3324 232.829 69.9441L232.829 69.9442C236.685 71.5923 240.087 73.8012 242.826 76.4608C245.564 79.12 247.59 82.1844 248.751 85.488L248.751 85.4863L247.289 86.0073L248.753 85.4931L262.306 123.509L260.846 124.036M213.456 152.461C213.456 152.461 213.456 152.461 213.456 152.461L214.065 151.034L213.456 152.461ZM213.456 152.461C217.228 154.072 221.382 155.11 225.676 155.522C229.97 155.934 234.334 155.714 238.518 154.873L238.529 154.871C247.045 153.097 254.394 148.901 258.901 143.063C263.433 137.194 264.701 130.151 262.307 123.513L262.308 123.515L260.846 124.036M260.846 124.036C263.048 130.136 261.908 136.63 257.673 142.115C253.438 147.6 246.448 151.636 238.212 153.351L220.461 68.4273C224.606 68.8251 228.602 69.8257 232.219 71.3711C235.92 72.953 239.158 75.0614 241.745 77.574C244.332 80.0865 246.216 82.9531 247.289 86.0074L260.846 124.036ZM141.505 91.7379L127.039 87.2296C127.657 86.0566 128.502 84.9335 129.566 83.8977C131.072 82.4324 132.979 81.178 135.193 80.2243C138.039 79.0272 141.279 78.3846 144.594 78.3739C146.259 78.3772 147.916 78.5402 149.52 78.8578C152.506 79.4824 155.217 80.617 157.436 82.1441C159.658 83.6726 161.301 85.5345 162.283 87.5461L162.285 87.5519L163.682 90.3847L164.109 91.2504H165.074H195.912H196.877L197.304 90.3847L198.7 87.5519L198.705 87.542C199.677 85.5343 201.31 83.6747 203.522 82.1468C205.731 80.6201 208.433 79.4843 211.41 78.8573C213.813 78.3776 216.325 78.2513 218.799 78.4872C221.275 78.7234 223.652 79.3164 225.792 80.2239C228.004 81.1722 229.907 82.4248 231.403 83.8895C232.899 85.3537 233.95 86.9926 234.533 88.6979L234.536 88.7082L234.54 88.7185L248.097 126.661L248.1 126.671L248.104 126.68C249.356 130.047 248.784 133.661 246.391 136.799C243.973 139.97 239.866 142.409 234.874 143.462C232.472 143.941 229.96 144.068 227.486 143.832C225.01 143.596 222.635 143.003 220.495 142.096C216.014 140.155 212.919 137.055 211.688 133.605C211.688 133.604 211.687 133.603 211.687 133.602L208.14 123.521L207.775 122.484H206.676H154.31H153.216L152.848 123.513L149.241 133.6L149.238 133.608C148.638 135.317 147.571 136.958 146.066 138.423C145.47 139.003 144.811 139.55 144.096 140.057C143.184 139.306 142.383 138.484 141.711 137.607C141.384 137.18 141.307 136.954 141.291 136.871C141.324 136.82 141.455 136.647 141.924 136.295C142.059 136.194 142.219 136.082 142.397 135.958C142.751 135.711 143.178 135.413 143.619 135.051C144.631 134.373 145.503 133.336 146.055 131.793C146.055 131.792 146.056 131.79 146.056 131.789L146.172 131.47L146.171 131.465L146.139 131.123L142.588 93.0751L142.492 92.0455L141.505 91.7379ZM149.835 152.663C149.834 152.663 149.832 152.663 149.83 152.663C149.85 152.66 149.854 152.661 149.835 152.663ZM198.996 136.397L197.948 132.62H163.037L161.699 136.311L198.996 136.397ZM141.288 136.833C141.289 136.833 141.289 136.84 141.288 136.853C141.286 136.839 141.287 136.833 141.288 136.833ZM137.553 151.931C137.544 151.929 137.541 151.929 137.543 151.929C137.544 151.929 137.547 151.93 137.553 151.931Z" fill="white" stroke="white" stroke-width="3.10352"/>
<path d="M185.126 193.103V194.827H186.851H290.554C301.278 194.827 311.59 190.937 319.216 183.97C326.847 176.999 331.167 167.508 331.167 157.575V39.1505C331.167 29.2179 326.847 19.7273 319.216 12.7559C311.59 5.78911 301.278 1.89887 290.554 1.89887H83.1469C72.4234 1.89887 62.1113 5.78911 54.4854 12.7559C46.8543 19.7273 42.5339 29.2179 42.5339 39.1505V40.6427V42.8292L44.6601 42.3193C48.6697 41.3578 52.8554 40.8747 57.221 40.8747H70.184H71.9081V39.1505C71.9081 36.5198 73.0506 33.9616 75.1436 32.0496C77.2419 30.1327 80.1184 29.0322 83.1469 29.0322H290.554C293.583 29.0322 296.459 30.1327 298.558 32.0496C300.651 33.9616 301.793 36.5198 301.793 39.1505V157.575C301.793 160.206 300.651 162.764 298.558 164.676C296.459 166.593 293.583 167.694 290.554 167.694H186.851H185.126V169.418V193.103ZM185.126 240.473V242.197H186.851H342.406C346.254 242.197 349.971 240.802 352.735 238.277C355.504 235.747 357.093 232.281 357.093 228.63C357.093 224.979 355.504 221.513 352.735 218.983C349.971 216.458 346.254 215.064 342.406 215.064H186.851H185.126V216.788V240.473ZM83.1469 242.197C86.9944 242.197 90.7122 240.802 93.476 238.277C96.2451 235.747 97.8341 232.281 97.8341 228.63C97.8341 224.979 96.2451 221.513 93.476 218.983C90.7122 216.458 86.9944 215.064 83.1469 215.064C79.2994 215.064 75.5816 216.458 72.8178 218.983C70.0488 221.513 68.4598 224.979 68.4598 228.63C68.4598 232.281 70.0488 235.747 72.8178 238.277C75.5816 240.802 79.2994 242.197 83.1469 242.197ZM15.5965 71.9683C7.96541 78.9398 3.64497 88.4303 3.64497 98.3629V240.473C3.64497 250.405 7.96541 259.896 15.5965 266.867C23.2224 273.834 33.5346 277.724 44.258 277.724H122.036C132.759 277.724 143.071 273.834 150.697 266.867C158.328 259.896 162.649 250.405 162.649 240.473V98.3629C162.649 88.4303 158.328 78.9398 150.697 71.9683C143.071 65.0015 132.759 61.1113 122.036 61.1113H44.258C33.5346 61.1113 23.2224 65.0015 15.5965 71.9683ZM36.2548 91.262C38.353 89.3451 41.2295 88.2446 44.258 88.2446H122.036C125.064 88.2446 127.941 89.3451 130.039 91.262C132.132 93.1741 133.275 95.7323 133.275 98.3629V240.473C133.275 243.103 132.132 245.662 130.039 247.574C127.941 249.491 125.064 250.591 122.036 250.591H44.258C41.2295 250.591 38.353 249.491 36.2548 247.574C34.1617 245.662 33.0192 243.103 33.0192 240.473V98.3629C33.0192 95.7323 34.1617 93.1741 36.2548 91.262Z" fill="white" stroke="white" stroke-width="3.44835"/>
<path d="M215.23 98.4427C218.439 98.4427 221.04 96.5698 221.04 94.2594C221.04 91.9491 218.439 90.0762 215.23 90.0762C212.021 90.0762 209.42 91.9491 209.42 94.2594C209.42 96.5698 212.021 98.4427 215.23 98.4427Z" fill="white"/>
<path d="M215.23 115.175C218.439 115.175 221.04 113.198 221.04 110.759C221.04 108.321 218.439 106.344 215.23 106.344C212.021 106.344 209.42 108.321 209.42 110.759C209.42 113.198 212.021 115.175 215.23 115.175Z" fill="white"/>
<path d="M203.609 106.349C206.818 106.349 209.419 104.58 209.419 102.398C209.419 100.216 206.818 98.4473 203.609 98.4473C200.4 98.4473 197.799 100.216 197.799 102.398C197.799 104.58 200.4 106.349 203.609 106.349Z" fill="white"/>
<path d="M177.115 109.599C179.04 109.599 180.601 108.559 180.601 107.275C180.601 105.992 179.04 104.951 177.115 104.951C175.19 104.951 173.629 105.992 173.629 107.275C173.629 108.559 175.19 109.599 177.115 109.599Z" fill="white"/>
<path d="M227.083 106.349C230.163 106.349 232.66 104.58 232.66 102.398C232.66 100.216 230.163 98.4473 227.083 98.4473C224.002 98.4473 221.505 100.216 221.505 102.398C221.505 104.58 224.002 106.349 227.083 106.349Z" fill="white"/>
<path d="M166.679 66.1829L167.183 66.4865L167.649 66.1274C169.214 64.9226 171.157 63.9442 173.356 63.2702C175.554 62.5963 177.946 62.2458 180.37 62.2458C182.795 62.2458 185.187 62.5963 187.385 63.2702C189.584 63.9442 191.527 64.9226 193.091 66.1274L193.558 66.4865L194.062 66.1829L202.893 60.8657L203.975 60.2144L202.975 59.4441C200.119 57.2457 196.626 55.4984 192.735 54.3055C188.842 53.1123 184.628 52.4973 180.37 52.4973C176.112 52.4973 171.898 53.1123 168.006 54.3055C164.114 55.4984 160.621 57.2457 157.766 59.4441L156.766 60.2144L157.847 60.8657L166.679 66.1829Z" fill="white" stroke="white" stroke-width="1.72418"/>
<path d="M210.732 55.882L211.215 56.2778L211.741 55.9427L220.573 50.3229L221.577 49.6838L220.657 48.9289C215.592 44.7763 209.379 41.4628 202.438 39.1969C195.496 36.9309 187.974 35.761 180.369 35.761C172.764 35.761 165.242 36.9309 158.3 39.1969C151.359 41.4628 145.146 44.7763 140.081 48.9289L139.161 49.6838L140.165 50.3229L148.996 55.9427L149.523 56.2778L150.006 55.882C153.781 52.7864 158.44 50.2948 163.68 48.5844C168.919 46.8742 174.609 45.9877 180.369 45.9877C186.129 45.9877 191.819 46.8742 197.058 48.5844C202.298 50.2948 206.957 52.7864 210.732 55.882Z" fill="white" stroke="white" stroke-width="1.72418"/>
<path d="M77.379 154.889C77.5797 154.725 77.6963 154.48 77.6963 154.221C77.6963 153.962 77.5797 153.716 77.379 153.553L66.0493 144.315C65.8954 144.189 65.703 144.121 65.5045 144.121H57.9514C56.7716 144.121 55.6133 144.501 54.7361 145.216C53.8541 145.936 53.3127 146.953 53.3127 148.062V160.379C53.3127 161.488 53.8541 162.506 54.7361 163.225C55.6133 163.94 56.7716 164.321 57.9514 164.321H65.5045C65.703 164.321 65.8954 164.252 66.0493 164.127L77.379 154.889ZM91.3956 153.553C91.1948 153.716 91.0783 153.962 91.0783 154.221C91.0783 154.48 91.1948 154.725 91.3956 154.889L102.725 164.127C102.879 164.252 103.072 164.321 103.27 164.321H110.823C112.003 164.321 113.161 163.94 114.038 163.225C114.92 162.506 115.462 161.488 115.462 160.379V148.062C115.462 146.953 114.92 145.936 114.038 145.216C113.161 144.501 112.003 144.121 110.823 144.121H103.27C103.072 144.121 102.879 144.189 102.725 144.315L91.3956 153.553ZM72.5128 168.949C72.312 169.113 72.1955 169.358 72.1955 169.617V175.776C72.1955 176.885 72.7369 177.903 73.619 178.622C74.4961 179.337 75.6544 179.718 76.8342 179.718H91.9404C93.1202 179.718 94.2785 179.337 95.1556 178.622C96.0376 177.903 96.5791 176.885 96.5791 175.776V169.617C96.5791 169.358 96.4625 169.113 96.2618 168.949L84.9321 159.711C84.6149 159.453 84.1597 159.453 83.8425 159.711L72.5128 168.949ZM83.8425 148.73C84.1597 148.989 84.6149 148.989 84.9321 148.73L96.2618 139.492C96.4625 139.328 96.5791 139.083 96.5791 138.824V132.665C96.5791 131.557 96.0376 130.539 95.1556 129.82C94.2785 129.105 93.1202 128.724 91.9404 128.724H76.8342C75.6544 128.724 74.4961 129.105 73.6189 129.82C72.7369 130.539 72.1955 131.557 72.1955 132.665V138.824C72.1955 139.083 72.312 139.328 72.5128 139.492L83.8425 148.73Z" fill="white" stroke="white" stroke-width="1.72418" stroke-linecap="round" stroke-linejoin="round"/>
</g>
<defs>
<filter id="filter0_d_1271_4493" x="0.541558" y="0.173828" width="359.655" height="282.034" filterUnits="userSpaceOnUse" color-interpolation-filters="sRGB">
<feFlood flood-opacity="0" result="BackgroundImageFix"/>
<feColorMatrix in="SourceAlpha" type="matrix" values="0 0 0 0 0 0 0 0 0 0 0 0 0 0 0 0 0 0 127 0" result="hardAlpha"/>
<feOffset dy="1.37934"/>
<feGaussianBlur stdDeviation="0.68967"/>
<feComposite in2="hardAlpha" operator="out"/>
<feColorMatrix type="matrix" values="0 0 0 0 0 0 0 0 0 0 0 0 0 0 0 0 0 0 0.25 0"/>
<feBlend mode="normal" in2="BackgroundImageFix" result="effect1_dropShadow_1271_4493"/>
<feBlend mode="normal" in="SourceGraphic" in2="effect1_dropShadow_1271_4493" result="shape"/>
</filter>
</defs>
</svg>
