<svg width="352" height="250" viewBox="0 0 352 250" fill="none" xmlns="http://www.w3.org/2000/svg">
<mask id="path-1-outside-1_1271_4457" maskUnits="userSpaceOnUse" x="48.1602" y="58.8223" width="304.001" height="191" fill="black">
<rect fill="white" x="48.1602" y="58.8223" width="304.001" height="191"/>
<path fill-rule="evenodd" clip-rule="evenodd" d="M251.946 68.0138C246.14 69.0376 240.904 71.4457 236.537 74.8432C234.308 76.5777 232.476 77.2666 231.066 77.2666L169.363 77.2666C167.952 77.2666 166.121 76.5778 163.892 74.8436C159.526 71.4468 154.29 69.0391 148.484 68.0154L110.75 61.3618C91.7005 58.003 73.535 70.7226 70.1761 89.7719L50.6986 200.236C47.3397 219.285 60.0593 237.45 79.1087 240.809L116.843 247.463C135.893 250.822 154.058 238.102 157.417 219.053L158.649 212.067C158.702 212.04 158.77 212.012 158.852 211.987C159.01 211.938 159.182 211.912 159.347 211.912C175.092 211.912 188.192 200.582 190.936 185.63L215.219 185.63C217.659 198.927 228.288 209.36 241.685 211.508L243.015 219.051C246.374 238.1 264.539 250.82 283.589 247.461L321.323 240.808C340.372 237.449 353.092 219.283 349.733 200.234L330.255 89.7703C326.896 70.7209 308.73 58.0013 289.681 61.3602L251.946 68.0138ZM231.066 84.1245C234.633 84.1245 237.933 82.4464 240.748 80.2558C244.254 77.5283 248.458 75.5924 253.137 74.7674L290.872 68.1139C306.191 65.4127 320.8 75.6417 323.501 90.9611L342.979 201.425C345.681 216.744 335.452 231.353 320.132 234.054L282.398 240.707C267.078 243.409 252.47 233.18 249.768 217.86L247.631 205.737C247.561 205.341 247.211 205.057 246.808 205.057C232.857 205.057 221.548 193.748 221.548 179.797C221.548 179.238 221.103 178.772 220.544 178.772L185.609 178.772C185.051 178.772 184.607 179.237 184.607 179.795C184.607 193.745 173.298 205.054 159.347 205.054C155.92 205.054 152.553 207.147 151.958 210.522L150.663 217.862C147.962 233.181 133.354 243.41 118.034 240.709L80.2995 234.056C64.9801 231.354 54.751 216.746 57.4522 201.426L76.9298 90.9628C79.631 75.6434 94.2396 65.4143 109.559 68.1155L147.294 74.7691C151.972 75.594 156.176 77.5294 159.681 80.2565C162.497 82.4467 165.796 84.1245 169.363 84.1245L231.066 84.1245ZM246.771 194.115C254.531 194.115 260.822 187.824 260.822 180.064C260.822 172.304 254.531 166.014 246.771 166.014C239.011 166.014 232.721 172.304 232.721 180.064C232.721 187.824 239.012 194.115 246.771 194.115ZM173.361 180.064C173.361 187.824 167.071 194.115 159.311 194.115C151.551 194.115 145.26 187.824 145.26 180.064C145.26 172.304 151.551 166.014 159.311 166.014C167.071 166.014 173.361 172.304 173.361 180.064ZM162.956 128.142L177.541 136.812C177.982 137.081 178.423 137.289 178.864 137.436C179.329 137.583 179.807 137.547 180.296 137.326C180.786 137.106 181.288 136.567 181.803 135.71C182.342 134.852 182.586 134.167 182.537 133.652C182.488 133.113 182.28 132.685 181.913 132.366C181.546 132.048 181.141 131.754 180.701 131.485L170.561 125.496L180.664 119.508C181.105 119.239 181.509 118.945 181.876 118.626C182.244 118.283 182.452 117.855 182.501 117.34C182.55 116.802 182.317 116.116 181.803 115.283C181.288 114.401 180.786 113.85 180.296 113.63C179.831 113.409 179.366 113.373 178.9 113.52C178.459 113.667 178.019 113.875 177.578 114.144L162.993 122.814C162.748 122.961 162.429 123.206 162.037 123.549C161.67 123.892 161.486 124.517 161.486 125.423C161.486 126.109 161.646 126.684 161.964 127.15C162.307 127.615 162.637 127.946 162.956 128.142ZM191.552 137.326C191.772 137.865 192.446 138.404 193.572 138.943C194.699 139.408 195.544 139.567 196.107 139.42C196.695 139.298 197.222 138.71 197.687 137.657L208.672 114.842C209.015 114.132 209.21 113.556 209.259 113.115C209.308 112.65 209.161 112.246 208.819 111.903C208.5 111.536 207.937 111.156 207.129 110.764C206.418 110.421 205.806 110.225 205.292 110.176C204.802 110.127 204.373 110.25 204.006 110.544C203.663 110.838 203.32 111.328 202.977 112.013L191.956 135.048C191.49 136.053 191.356 136.812 191.552 137.326ZM221.81 137.436C222.275 137.289 222.728 137.081 223.169 136.812L237.754 128.141C238.073 127.946 238.391 127.615 238.709 127.15C239.052 126.684 239.224 126.109 239.224 125.423C239.224 124.517 239.04 123.892 238.673 123.549C238.305 123.206 237.987 122.961 237.717 122.814L223.132 114.144C222.691 113.875 222.238 113.667 221.773 113.52C221.332 113.373 220.867 113.409 220.377 113.63C219.911 113.85 219.422 114.401 218.907 115.283C218.417 116.116 218.185 116.802 218.209 117.34C218.258 117.855 218.466 118.283 218.834 118.626C219.201 118.945 219.605 119.239 220.046 119.508L230.149 125.496L220.01 131.485C219.569 131.754 219.165 132.048 218.797 132.366C218.43 132.685 218.222 133.113 218.173 133.652C218.124 134.167 218.369 134.852 218.907 135.71C219.446 136.567 219.948 137.106 220.414 137.326C220.903 137.547 221.369 137.583 221.81 137.436Z"/>
</mask>
<path fill-rule="evenodd" clip-rule="evenodd" d="M251.946 68.0138C246.14 69.0376 240.904 71.4457 236.537 74.8432C234.308 76.5777 232.476 77.2666 231.066 77.2666L169.363 77.2666C167.952 77.2666 166.121 76.5778 163.892 74.8436C159.526 71.4468 154.29 69.0391 148.484 68.0154L110.75 61.3618C91.7005 58.003 73.535 70.7226 70.1761 89.7719L50.6986 200.236C47.3397 219.285 60.0593 237.45 79.1087 240.809L116.843 247.463C135.893 250.822 154.058 238.102 157.417 219.053L158.649 212.067C158.702 212.04 158.77 212.012 158.852 211.987C159.01 211.938 159.182 211.912 159.347 211.912C175.092 211.912 188.192 200.582 190.936 185.63L215.219 185.63C217.659 198.927 228.288 209.36 241.685 211.508L243.015 219.051C246.374 238.1 264.539 250.82 283.589 247.461L321.323 240.808C340.372 237.449 353.092 219.283 349.733 200.234L330.255 89.7703C326.896 70.7209 308.73 58.0013 289.681 61.3602L251.946 68.0138ZM231.066 84.1245C234.633 84.1245 237.933 82.4464 240.748 80.2558C244.254 77.5283 248.458 75.5924 253.137 74.7674L290.872 68.1139C306.191 65.4127 320.8 75.6417 323.501 90.9611L342.979 201.425C345.681 216.744 335.452 231.353 320.132 234.054L282.398 240.707C267.078 243.409 252.47 233.18 249.768 217.86L247.631 205.737C247.561 205.341 247.211 205.057 246.808 205.057C232.857 205.057 221.548 193.748 221.548 179.797C221.548 179.238 221.103 178.772 220.544 178.772L185.609 178.772C185.051 178.772 184.607 179.237 184.607 179.795C184.607 193.745 173.298 205.054 159.347 205.054C155.92 205.054 152.553 207.147 151.958 210.522L150.663 217.862C147.962 233.181 133.354 243.41 118.034 240.709L80.2995 234.056C64.9801 231.354 54.751 216.746 57.4522 201.426L76.9298 90.9628C79.631 75.6434 94.2396 65.4143 109.559 68.1155L147.294 74.7691C151.972 75.594 156.176 77.5294 159.681 80.2565C162.497 82.4467 165.796 84.1245 169.363 84.1245L231.066 84.1245ZM246.771 194.115C254.531 194.115 260.822 187.824 260.822 180.064C260.822 172.304 254.531 166.014 246.771 166.014C239.011 166.014 232.721 172.304 232.721 180.064C232.721 187.824 239.012 194.115 246.771 194.115ZM173.361 180.064C173.361 187.824 167.071 194.115 159.311 194.115C151.551 194.115 145.26 187.824 145.26 180.064C145.26 172.304 151.551 166.014 159.311 166.014C167.071 166.014 173.361 172.304 173.361 180.064ZM162.956 128.142L177.541 136.812C177.982 137.081 178.423 137.289 178.864 137.436C179.329 137.583 179.807 137.547 180.296 137.326C180.786 137.106 181.288 136.567 181.803 135.71C182.342 134.852 182.586 134.167 182.537 133.652C182.488 133.113 182.28 132.685 181.913 132.366C181.546 132.048 181.141 131.754 180.701 131.485L170.561 125.496L180.664 119.508C181.105 119.239 181.509 118.945 181.876 118.626C182.244 118.283 182.452 117.855 182.501 117.34C182.55 116.802 182.317 116.116 181.803 115.283C181.288 114.401 180.786 113.85 180.296 113.63C179.831 113.409 179.366 113.373 178.9 113.52C178.459 113.667 178.019 113.875 177.578 114.144L162.993 122.814C162.748 122.961 162.429 123.206 162.037 123.549C161.67 123.892 161.486 124.517 161.486 125.423C161.486 126.109 161.646 126.684 161.964 127.15C162.307 127.615 162.637 127.946 162.956 128.142ZM191.552 137.326C191.772 137.865 192.446 138.404 193.572 138.943C194.699 139.408 195.544 139.567 196.107 139.42C196.695 139.298 197.222 138.71 197.687 137.657L208.672 114.842C209.015 114.132 209.21 113.556 209.259 113.115C209.308 112.65 209.161 112.246 208.819 111.903C208.5 111.536 207.937 111.156 207.129 110.764C206.418 110.421 205.806 110.225 205.292 110.176C204.802 110.127 204.373 110.25 204.006 110.544C203.663 110.838 203.32 111.328 202.977 112.013L191.956 135.048C191.49 136.053 191.356 136.812 191.552 137.326ZM221.81 137.436C222.275 137.289 222.728 137.081 223.169 136.812L237.754 128.141C238.073 127.946 238.391 127.615 238.709 127.15C239.052 126.684 239.224 126.109 239.224 125.423C239.224 124.517 239.04 123.892 238.673 123.549C238.305 123.206 237.987 122.961 237.717 122.814L223.132 114.144C222.691 113.875 222.238 113.667 221.773 113.52C221.332 113.373 220.867 113.409 220.377 113.63C219.911 113.85 219.422 114.401 218.907 115.283C218.417 116.116 218.185 116.802 218.209 117.34C218.258 117.855 218.466 118.283 218.834 118.626C219.201 118.945 219.605 119.239 220.046 119.508L230.149 125.496L220.01 131.485C219.569 131.754 219.165 132.048 218.797 132.366C218.43 132.685 218.222 133.113 218.173 133.652C218.124 134.167 218.369 134.852 218.907 135.71C219.446 136.567 219.948 137.106 220.414 137.326C220.903 137.547 221.369 137.583 221.81 137.436Z" fill="white"/>
<path d="M236.537 74.8432L235.484 73.49L235.484 73.49L236.537 74.8432ZM251.946 68.0138L252.244 69.7022L251.946 68.0138ZM163.892 74.8436L164.945 73.4904L164.945 73.4904L163.892 74.8436ZM148.484 68.0154L148.187 69.7038L148.484 68.0154ZM110.75 61.3618L111.048 59.6734L110.75 61.3618ZM70.1761 89.7719L71.8645 90.0696L70.1761 89.7719ZM50.6986 200.236L49.0101 199.938H49.0101L50.6986 200.236ZM79.1087 240.809L79.4064 239.121L79.1087 240.809ZM116.843 247.463L116.546 249.151L116.843 247.463ZM157.417 219.053L155.729 218.755L157.417 219.053ZM158.649 212.067L157.895 210.527L157.112 210.91L156.96 211.769L158.649 212.067ZM158.852 211.987L158.346 210.349L158.346 210.349L158.852 211.987ZM190.936 185.63L190.936 183.916L189.507 183.916L189.25 185.321L190.936 185.63ZM215.219 185.63L216.905 185.321L216.647 183.916L215.219 183.916L215.219 185.63ZM241.685 211.508L243.373 211.21L243.161 210.008L241.956 209.815L241.685 211.508ZM243.015 219.051L244.703 218.753L243.015 219.051ZM283.589 247.461L283.291 245.773L283.589 247.461ZM321.323 240.808L321.621 242.496L321.323 240.808ZM349.733 200.234L348.045 200.532L349.733 200.234ZM330.255 89.7703L328.566 90.068L328.566 90.068L330.255 89.7703ZM289.681 61.3602L289.383 59.6718L289.681 61.3602ZM240.748 80.2558L239.695 78.9027L239.695 78.9027L240.748 80.2558ZM253.137 74.7674L253.435 76.4558L253.137 74.7674ZM290.872 68.1139L291.169 69.8023L290.872 68.1139ZM323.501 90.9611L321.813 91.2588L321.813 91.2588L323.501 90.9611ZM342.979 201.425L341.291 201.722L342.979 201.425ZM320.132 234.054L320.43 235.742L320.132 234.054ZM282.398 240.707L282.1 239.019L282.398 240.707ZM249.768 217.86L248.08 218.158L249.768 217.86ZM247.631 205.737L249.319 205.44L249.319 205.44L247.631 205.737ZM220.544 178.772L220.544 180.487L220.544 178.772ZM185.609 178.772L185.609 177.058L185.609 178.772ZM151.958 210.522L153.646 210.82L151.958 210.522ZM150.663 217.862L152.352 218.16L150.663 217.862ZM118.034 240.709L117.736 242.398L118.034 240.709ZM80.2995 234.056L80.5972 232.367L80.2995 234.056ZM57.4522 201.426L55.7638 201.129L57.4522 201.426ZM76.9298 90.9628L78.6182 91.2605L76.9298 90.9628ZM109.559 68.1155L109.857 66.4271L109.559 68.1155ZM147.294 74.7691L146.996 76.4575L147.294 74.7691ZM159.681 80.2565L158.629 81.6097L159.681 80.2565ZM177.541 136.812L178.435 135.349L178.426 135.343L178.417 135.338L177.541 136.812ZM162.956 128.142L162.057 129.602L162.069 129.609L162.08 129.615L162.956 128.142ZM178.864 137.436L178.322 139.063L178.334 139.067L178.347 139.071L178.864 137.436ZM180.296 137.326L179.593 135.763L179.593 135.763L180.296 137.326ZM181.803 135.71L180.351 134.797L180.342 134.812L180.333 134.828L181.803 135.71ZM182.537 133.652L180.83 133.807L180.831 133.815L182.537 133.652ZM180.701 131.485L181.595 130.022L181.584 130.015L181.572 130.008L180.701 131.485ZM170.561 125.496L169.687 124.021L167.194 125.499L169.689 126.973L170.561 125.496ZM180.664 119.508L181.538 120.983L181.548 120.977L181.558 120.971L180.664 119.508ZM181.876 118.626L182.999 119.922L183.023 119.901L183.046 119.88L181.876 118.626ZM182.501 117.34L184.207 117.503L184.208 117.496L182.501 117.34ZM181.803 115.283L180.322 116.147L180.333 116.166L180.344 116.184L181.803 115.283ZM180.296 113.63L179.562 115.179L179.578 115.186L179.593 115.193L180.296 113.63ZM178.9 113.52L178.384 111.885L178.371 111.889L178.358 111.893L178.9 113.52ZM177.578 114.144L178.454 115.618L178.463 115.613L178.472 115.607L177.578 114.144ZM162.993 122.814L162.117 121.341L162.11 121.344L162.993 122.814ZM162.037 123.549L160.908 122.259L160.888 122.277L160.868 122.296L162.037 123.549ZM161.964 127.15L160.549 128.118L160.566 128.142L160.584 128.167L161.964 127.15ZM193.572 138.943L192.832 140.489L192.875 140.509L192.918 140.527L193.572 138.943ZM191.552 137.326L189.949 137.936L189.957 137.956L189.965 137.975L191.552 137.326ZM196.107 139.42L195.757 137.742L195.716 137.75L195.674 137.761L196.107 139.42ZM197.687 137.657L196.142 136.913L196.13 136.938L196.119 136.964L197.687 137.657ZM208.672 114.842L207.128 114.097L207.127 114.098L208.672 114.842ZM209.259 113.115L210.963 113.305L210.964 113.295L209.259 113.115ZM208.819 111.903L207.523 113.026L207.563 113.072L207.606 113.115L208.819 111.903ZM207.129 110.764L207.877 109.222L207.874 109.22L207.129 110.764ZM205.292 110.176L205.121 111.882L205.129 111.883L205.292 110.176ZM204.006 110.544L202.935 109.205L202.912 109.223L202.89 109.242L204.006 110.544ZM202.977 112.013L201.444 111.247L201.437 111.26L201.431 111.273L202.977 112.013ZM191.956 135.048L190.409 134.308L190.405 134.318L190.4 134.327L191.956 135.048ZM223.169 136.812L222.293 135.338L222.284 135.343L222.275 135.349L223.169 136.812ZM221.81 137.436L221.293 135.801L221.28 135.806L221.268 135.81L221.81 137.436ZM237.754 128.141L238.63 129.615L238.641 129.609L238.653 129.602L237.754 128.141ZM238.709 127.15L237.329 126.133L237.311 126.157L237.294 126.181L238.709 127.15ZM238.673 123.549L237.503 124.803L237.503 124.803L238.673 123.549ZM237.717 122.814L236.841 124.288L236.869 124.304L236.896 124.32L237.717 122.814ZM223.132 114.144L222.238 115.607L222.247 115.613L222.256 115.618L223.132 114.144ZM221.773 113.52L221.231 115.146L221.244 115.15L221.257 115.154L221.773 113.52ZM220.377 113.63L219.673 112.066L219.658 112.073L219.643 112.08L220.377 113.63ZM218.907 115.283L220.385 116.152L220.388 116.147L218.907 115.283ZM218.209 117.34L216.497 117.418L216.499 117.461L216.503 117.503L218.209 117.34ZM218.834 118.626L217.664 119.88L217.687 119.901L217.711 119.922L218.834 118.626ZM220.046 119.508L219.152 120.971L219.162 120.977L219.172 120.983L220.046 119.508ZM230.149 125.496L231.021 126.973L233.516 125.499L231.023 124.021L230.149 125.496ZM220.01 131.485L219.138 130.008L219.127 130.015L219.115 130.022L220.01 131.485ZM218.173 133.652L219.879 133.815L219.88 133.808L218.173 133.652ZM218.907 135.71L217.456 136.622L217.456 136.622L218.907 135.71ZM220.414 137.326L219.68 138.876L219.695 138.883L219.71 138.89L220.414 137.326ZM237.59 76.1964C241.741 72.9663 246.719 70.6763 252.244 69.7022L251.649 66.3253C245.56 67.3988 240.066 69.9251 235.484 73.49L237.59 76.1964ZM231.066 78.9811C233.014 78.9811 235.212 78.0465 237.59 76.1964L235.484 73.49C233.404 75.1089 231.939 75.5522 231.066 75.5522L231.066 78.9811ZM169.363 78.9811L231.066 78.9811L231.066 75.5522L169.363 75.5522L169.363 78.9811ZM162.839 76.1969C165.217 78.0466 167.415 78.9811 169.363 78.9811L169.363 75.5522C168.49 75.5522 167.025 75.1089 164.945 73.4904L162.839 76.1969ZM148.187 69.7038C153.711 70.6778 158.688 72.9674 162.839 76.1969L164.945 73.4904C160.363 69.9262 154.87 67.4004 148.782 66.327L148.187 69.7038ZM110.452 63.0503L148.187 69.7038L148.782 66.327L111.048 59.6734L110.452 63.0503ZM71.8645 90.0696C75.059 71.9528 92.3352 59.8558 110.452 63.0503L111.048 59.6734C91.0657 56.1501 72.011 69.4924 68.4877 89.4742L71.8645 90.0696ZM52.387 200.533L71.8645 90.0696L68.4877 89.4742L49.0101 199.938L52.387 200.533ZM79.4064 239.121C61.2895 235.926 49.1925 218.65 52.387 200.533L49.0101 199.938C45.4868 219.92 58.8291 238.974 78.811 242.498L79.4064 239.121ZM117.141 245.774L79.4064 239.121L78.811 242.498L116.546 249.151L117.141 245.774ZM155.729 218.755C152.534 236.872 135.258 248.969 117.141 245.774L116.546 249.151C136.527 252.674 155.582 239.332 159.105 219.35L155.729 218.755ZM156.96 211.769L155.729 218.755L159.105 219.35L160.337 212.364L156.96 211.769ZM158.346 210.349C158.178 210.401 158.028 210.462 157.895 210.527L159.403 213.607C159.377 213.619 159.362 213.624 159.357 213.626L158.346 210.349ZM159.347 210.198C159.009 210.198 158.667 210.25 158.346 210.349L159.357 213.626C159.354 213.626 159.353 213.627 159.353 213.627C159.353 213.627 159.353 213.627 159.354 213.627C159.354 213.626 159.355 213.626 159.354 213.627C159.353 213.627 159.351 213.627 159.347 213.627L159.347 210.198ZM189.25 185.321C186.652 199.474 174.25 210.198 159.347 210.198L159.347 213.627C175.935 213.627 189.731 201.691 192.622 185.94L189.25 185.321ZM215.219 183.916L190.936 183.916L190.936 187.345L215.219 187.345L215.219 183.916ZM241.956 209.815C229.278 207.783 219.214 197.905 216.905 185.321L213.533 185.94C216.103 199.949 227.298 210.938 241.413 213.201L241.956 209.815ZM244.703 218.753L243.373 211.21L239.996 211.806L241.326 219.349L244.703 218.753ZM283.291 245.773C265.174 248.967 247.898 236.87 244.703 218.753L241.326 219.349C244.85 239.331 263.904 252.673 283.886 249.149L283.291 245.773ZM321.025 239.119L283.291 245.773L283.886 249.149L321.621 242.496L321.025 239.119ZM348.045 200.532C351.239 218.648 339.142 235.925 321.025 239.119L321.621 242.496C341.603 238.973 354.945 219.918 351.421 199.936L348.045 200.532ZM328.566 90.068L348.045 200.532L351.421 199.936L331.943 89.4725L328.566 90.068ZM289.979 63.0486C308.095 59.8542 325.372 71.9511 328.566 90.068L331.943 89.4725C328.42 69.4907 309.365 56.1485 289.383 59.6718L289.979 63.0486ZM252.244 69.7022L289.979 63.0486L289.383 59.6718L251.649 66.3253L252.244 69.7022ZM239.695 78.9027C237.026 80.9792 234.094 82.41 231.066 82.41L231.066 85.8389C235.173 85.8389 238.839 83.9136 241.801 81.609L239.695 78.9027ZM252.839 73.079C247.879 73.9537 243.416 76.0076 239.695 78.9027L241.801 81.609C245.092 79.0489 249.038 77.2312 253.435 76.4558L252.839 73.079ZM290.574 66.4254L252.839 73.079L253.435 76.4558L291.169 69.8023L290.574 66.4254ZM325.189 90.6634C322.324 74.4115 306.826 63.5598 290.574 66.4254L291.169 69.8023C305.556 67.2655 319.276 76.8719 321.813 91.2588L325.189 90.6634ZM344.668 201.127L325.189 90.6634L321.813 91.2588L341.291 201.722L344.668 201.127ZM320.43 235.742C336.682 232.877 347.533 217.379 344.668 201.127L341.291 201.722C343.828 216.109 334.221 229.829 319.835 232.365L320.43 235.742ZM282.695 242.396L320.43 235.742L319.835 232.365L282.1 239.019L282.695 242.396ZM248.08 218.158C250.946 234.41 266.444 245.261 282.695 242.396L282.1 239.019C267.713 241.556 253.994 231.949 251.457 217.562L248.08 218.158ZM245.942 206.035L248.08 218.158L251.457 217.562L249.319 205.44L245.942 206.035ZM246.808 206.771C246.407 206.771 246.022 206.486 245.942 206.035L249.319 205.44C249.1 204.196 248.014 203.342 246.808 203.342L246.808 206.771ZM219.834 179.797C219.834 194.694 231.911 206.771 246.808 206.771L246.808 203.342C233.804 203.342 223.263 192.801 223.263 179.797L219.834 179.797ZM220.544 180.487C220.112 180.487 219.834 180.14 219.834 179.797L223.263 179.797C223.263 178.336 222.094 177.058 220.544 177.058L220.544 180.487ZM185.609 180.487L220.544 180.487L220.544 177.058L185.609 177.058L185.609 180.487ZM186.321 179.795C186.321 180.139 186.042 180.487 185.609 180.487L185.609 177.058C184.06 177.058 182.892 178.335 182.892 179.795L186.321 179.795ZM159.347 206.769C174.245 206.769 186.321 194.692 186.321 179.795L182.892 179.795C182.892 192.799 172.351 203.34 159.347 203.34L159.347 206.769ZM153.646 210.82C154.055 208.502 156.484 206.769 159.347 206.769L159.347 203.34C155.356 203.34 151.051 205.791 150.269 210.224L153.646 210.82ZM152.352 218.16L153.646 210.82L150.269 210.224L148.975 217.564L152.352 218.16ZM117.736 242.398C133.988 245.263 149.486 234.411 152.352 218.16L148.975 217.564C146.438 231.951 132.719 241.557 118.332 239.021L117.736 242.398ZM80.0018 235.744L117.736 242.398L118.332 239.021L80.5972 232.367L80.0018 235.744ZM55.7638 201.129C52.8982 217.381 63.7499 232.878 80.0018 235.744L80.5972 232.367C66.2103 229.83 56.6038 216.111 59.1406 201.724L55.7638 201.129ZM75.2414 90.665L55.7638 201.129L59.1406 201.724L78.6182 91.2605L75.2414 90.665ZM109.857 66.4271C93.6048 63.5615 78.107 74.4132 75.2414 90.665L78.6182 91.2605C81.155 76.8736 94.8744 67.2671 109.261 69.8039L109.857 66.4271ZM147.591 73.0807L109.857 66.4271L109.261 69.8039L146.996 76.4575L147.591 73.0807ZM160.734 78.9033C157.013 76.0088 152.552 73.9553 147.591 73.0807L146.996 76.4575C151.393 77.2327 155.338 79.0501 158.629 81.6097L160.734 78.9033ZM169.363 82.41C166.335 82.41 163.403 80.9795 160.734 78.9033L158.629 81.6097C161.591 83.9139 165.256 85.8389 169.363 85.8389L169.363 82.41ZM231.066 82.41L169.363 82.41L169.363 85.8389L231.066 85.8389L231.066 82.41ZM259.108 180.064C259.108 186.877 253.585 192.4 246.771 192.4L246.771 195.829C255.478 195.829 262.537 188.771 262.537 180.064L259.108 180.064ZM246.771 167.728C253.584 167.728 259.108 173.251 259.108 180.064L262.537 180.064C262.536 171.358 255.478 164.299 246.771 164.299L246.771 167.728ZM234.435 180.064C234.435 173.251 239.958 167.728 246.771 167.728L246.771 164.299C238.065 164.299 231.006 171.358 231.006 180.064L234.435 180.064ZM246.771 192.4C239.958 192.4 234.435 186.877 234.435 180.064L231.006 180.064C231.006 188.771 238.065 195.829 246.771 195.829L246.771 192.4ZM159.311 195.829C168.018 195.829 175.076 188.771 175.076 180.064L171.647 180.064C171.647 186.877 166.124 192.4 159.311 192.4L159.311 195.829ZM143.546 180.064C143.546 188.771 150.604 195.829 159.311 195.829L159.311 192.4C152.498 192.4 146.975 186.877 146.975 180.064L143.546 180.064ZM159.311 164.299C150.604 164.299 143.546 171.358 143.546 180.064L146.975 180.064C146.975 173.251 152.498 167.728 159.311 167.728L159.311 164.299ZM175.076 180.064C175.076 171.358 168.018 164.299 159.311 164.299L159.311 167.728C166.124 167.728 171.647 173.251 171.647 180.064L175.076 180.064ZM178.417 135.338L163.832 126.668L162.08 129.615L176.665 138.285L178.417 135.338ZM179.406 135.81C179.101 135.708 178.777 135.558 178.435 135.349L176.647 138.275C177.186 138.604 177.745 138.871 178.322 139.063L179.406 135.81ZM179.593 135.763C179.445 135.829 179.402 135.808 179.38 135.801L178.347 139.071C179.256 139.358 180.168 139.264 181 138.89L179.593 135.763ZM180.333 134.828C180.117 135.187 179.932 135.431 179.786 135.588C179.636 135.748 179.568 135.774 179.593 135.763L181 138.89C181.983 138.447 182.712 137.527 183.273 136.592L180.333 134.828ZM180.831 133.815C180.824 133.741 180.846 133.779 180.776 133.976C180.708 134.166 180.578 134.437 180.351 134.797L183.254 136.622C183.831 135.705 184.35 134.602 184.244 133.49L180.831 133.815ZM180.79 133.662C180.794 133.666 180.797 133.668 180.798 133.67C180.8 133.671 180.8 133.672 180.801 133.672C180.801 133.672 180.801 133.673 180.801 133.673C180.801 133.673 180.802 133.674 180.802 133.676C180.805 133.68 180.822 133.717 180.83 133.807L184.245 133.497C184.161 132.571 183.777 131.713 183.036 131.071L180.79 133.662ZM179.807 132.948C180.172 133.171 180.499 133.409 180.79 133.662L183.036 131.071C182.593 130.687 182.111 130.337 181.595 130.022L179.807 132.948ZM169.689 126.973L179.829 132.961L181.572 130.008L171.433 124.02L169.689 126.973ZM179.79 118.033L169.687 124.021L171.435 126.971L181.538 120.983L179.79 118.033ZM180.753 117.331C180.462 117.583 180.135 117.822 179.77 118.045L181.558 120.971C182.074 120.655 182.556 120.306 182.999 119.922L180.753 117.331ZM180.794 117.178C180.783 117.288 180.758 117.324 180.706 117.373L183.046 119.88C183.729 119.242 184.12 118.421 184.207 117.503L180.794 117.178ZM180.344 116.184C180.555 116.526 180.676 116.787 180.739 116.973C180.803 117.162 180.79 117.221 180.793 117.185L184.208 117.496C184.309 116.391 183.832 115.306 183.261 114.382L180.344 116.184ZM179.593 115.193C179.558 115.178 179.623 115.198 179.773 115.363C179.919 115.524 180.105 115.775 180.322 116.147L183.284 114.419C182.727 113.466 181.998 112.516 181 112.066L179.593 115.193ZM179.417 115.154C179.435 115.149 179.446 115.147 179.451 115.146C179.456 115.146 179.46 115.146 179.463 115.146C179.468 115.146 179.499 115.149 179.562 115.179L181.03 112.08C180.198 111.686 179.286 111.6 178.384 111.885L179.417 115.154ZM178.472 115.607C178.814 115.398 179.138 115.248 179.442 115.146L178.358 111.893C177.781 112.085 177.223 112.352 176.684 112.681L178.472 115.607ZM163.869 124.288L178.454 115.618L176.702 112.67L162.117 121.341L163.869 124.288ZM163.166 124.839C163.533 124.519 163.761 124.353 163.875 124.285L162.11 121.344C161.734 121.57 161.325 121.894 160.908 122.259L163.166 124.839ZM163.201 125.423C163.201 125.075 163.237 124.866 163.269 124.759C163.299 124.656 163.305 124.711 163.207 124.803L160.868 122.296C159.96 123.143 159.772 124.393 159.772 125.423L163.201 125.423ZM163.379 126.181C163.294 126.058 163.201 125.839 163.201 125.423L159.772 125.423C159.772 126.378 159.997 127.311 160.549 128.118L163.379 126.181ZM163.854 126.681C163.797 126.646 163.62 126.507 163.344 126.133L160.584 128.167C160.993 128.723 161.478 129.245 162.057 129.602L163.854 126.681ZM194.312 137.396C193.819 137.16 193.493 136.956 193.293 136.796C193.082 136.627 193.098 136.577 193.138 136.677L189.965 137.975C190.226 138.614 190.688 139.103 191.151 139.473C191.624 139.852 192.199 140.186 192.832 140.489L194.312 137.396ZM195.674 137.761C195.726 137.748 195.651 137.779 195.368 137.726C195.098 137.675 194.723 137.563 194.227 137.358L192.918 140.527C194.081 141.008 195.39 141.379 196.54 141.079L195.674 137.761ZM196.119 136.964C195.929 137.394 195.768 137.63 195.666 137.744C195.57 137.85 195.595 137.776 195.757 137.742L196.457 141.099C197.925 140.793 198.758 139.475 199.255 138.35L196.119 136.964ZM207.127 114.098L196.142 136.913L199.232 138.401L210.216 115.586L207.127 114.098ZM207.555 112.926C207.538 113.079 207.441 113.447 207.128 114.097L210.216 115.588C210.588 114.816 210.882 114.034 210.963 113.305L207.555 112.926ZM207.606 113.115C207.623 113.132 207.597 113.111 207.575 113.049C207.564 113.021 207.558 112.993 207.556 112.97C207.553 112.947 207.555 112.935 207.554 112.936L210.964 113.295C211.07 112.294 210.724 111.384 210.031 110.691L207.606 113.115ZM206.381 112.307C207.127 112.669 207.436 112.926 207.523 113.026L210.114 110.78C209.564 110.146 208.747 109.643 207.877 109.222L206.381 112.307ZM205.129 111.883C205.364 111.905 205.77 112.012 206.383 112.308L207.874 109.22C207.067 108.831 206.248 108.545 205.454 108.47L205.129 111.883ZM205.077 111.883C205.087 111.875 205.09 111.873 205.088 111.875C205.085 111.876 205.08 111.878 205.074 111.88C205.068 111.882 205.067 111.881 205.073 111.881C205.078 111.88 205.094 111.88 205.121 111.882L205.462 108.47C204.549 108.379 203.67 108.617 202.935 109.205L205.077 111.883ZM204.511 112.78C204.813 112.176 205.033 111.922 205.122 111.846L202.89 109.242C202.293 109.754 201.827 110.479 201.444 111.247L204.511 112.78ZM193.502 135.788L204.524 112.753L201.431 111.273L190.409 134.308L193.502 135.788ZM193.154 136.716C193.202 136.842 193.16 136.861 193.194 136.67C193.227 136.484 193.316 136.19 193.511 135.769L190.4 134.327C189.911 135.383 189.486 136.72 189.949 137.936L193.154 136.716ZM222.275 135.349C221.946 135.55 221.619 135.699 221.293 135.801L222.326 139.071C222.931 138.88 223.511 138.612 224.063 138.275L222.275 135.349ZM236.878 126.668L222.293 135.338L224.045 138.285L238.63 129.615L236.878 126.668ZM237.294 126.181C237.049 126.54 236.892 126.659 236.856 126.681L238.653 129.602C239.253 129.232 239.733 128.69 240.124 128.118L237.294 126.181ZM237.509 125.423C237.509 125.813 237.417 126.014 237.329 126.133L240.09 128.167C240.688 127.355 240.938 126.404 240.938 125.423L237.509 125.423ZM237.503 124.803C237.405 124.711 237.411 124.656 237.441 124.759C237.473 124.866 237.509 125.075 237.509 125.423L240.938 125.423C240.938 124.393 240.75 123.143 239.842 122.296L237.503 124.803ZM236.896 124.32C236.985 124.368 237.183 124.504 237.503 124.803L239.842 122.296C239.427 121.909 238.989 121.555 238.538 121.309L236.896 124.32ZM222.256 115.618L236.841 124.288L238.593 121.341L224.008 112.67L222.256 115.618ZM221.257 115.154C221.582 115.257 221.909 115.406 222.238 115.607L224.026 112.681C223.474 112.344 222.894 112.076 222.289 111.885L221.257 115.154ZM221.08 115.193C221.172 115.152 221.219 115.147 221.228 115.146C221.233 115.146 221.233 115.146 221.231 115.146C221.228 115.145 221.227 115.145 221.231 115.146L222.315 111.893C221.402 111.589 220.49 111.699 219.673 112.066L221.08 115.193ZM220.388 116.147C220.608 115.77 220.795 115.513 220.942 115.347C221.095 115.176 221.156 115.158 221.111 115.179L219.643 112.08C218.682 112.536 217.973 113.483 217.426 114.419L220.388 116.147ZM219.922 117.263C219.922 117.266 219.919 117.179 219.989 116.973C220.058 116.77 220.181 116.499 220.385 116.152L217.43 114.414C216.887 115.336 216.449 116.376 216.497 117.418L219.922 117.263ZM220.004 117.373C219.952 117.324 219.926 117.288 219.916 117.178L216.503 117.503C216.59 118.421 216.981 119.242 217.664 119.88L220.004 117.373ZM220.94 118.045C220.575 117.822 220.248 117.583 219.957 117.331L217.711 119.922C218.154 120.306 218.636 120.655 219.152 120.971L220.94 118.045ZM231.023 124.021L220.92 118.033L219.172 120.983L229.275 126.971L231.023 124.021ZM220.881 132.961L231.021 126.973L229.277 124.02L219.138 130.008L220.881 132.961ZM219.92 133.662C220.212 133.409 220.538 133.171 220.904 132.948L219.115 130.022C218.599 130.337 218.118 130.687 217.674 131.071L219.92 133.662ZM219.88 133.808C219.888 133.717 219.905 133.68 219.908 133.676C219.909 133.674 219.909 133.673 219.909 133.673C219.909 133.673 219.909 133.672 219.91 133.672C219.91 133.672 219.91 133.671 219.912 133.67C219.913 133.668 219.916 133.666 219.92 133.662L217.674 131.071C216.933 131.713 216.549 132.571 216.465 133.497L219.88 133.808ZM220.359 134.797C220.132 134.437 220.002 134.166 219.934 133.976C219.864 133.779 219.886 133.741 219.879 133.815L216.466 133.49C216.36 134.602 216.879 135.705 217.456 136.622L220.359 134.797ZM221.148 135.777C221.176 135.79 221.104 135.761 220.942 135.588C220.787 135.421 220.59 135.166 220.359 134.797L217.456 136.622C218.029 137.534 218.749 138.435 219.68 138.876L221.148 135.777ZM221.268 135.81C221.264 135.811 221.265 135.811 221.267 135.81C221.27 135.81 221.27 135.81 221.265 135.81C221.256 135.809 221.209 135.804 221.117 135.763L219.71 138.89C220.527 139.257 221.439 139.367 222.352 139.063L221.268 135.81Z" fill="white" mask="url(#path-1-outside-1_1271_4457)"/>
<mask id="path-3-outside-2_1271_4457" maskUnits="userSpaceOnUse" x="-3.76684" y="26.6125" width="122.112" height="122.111" fill="black">
<rect fill="white" x="-3.76684" y="26.6125" width="122.112" height="122.111"/>
<path fill-rule="evenodd" clip-rule="evenodd" d="M91.9391 99.067C94.9076 100.687 96.0012 104.406 94.3815 107.375L93.9923 108.088C92.3726 111.057 88.6531 112.15 85.6845 110.531L83.1001 109.121C80.6481 107.783 77.612 108.387 75.4235 110.122C73.2072 111.88 71.9913 114.714 72.7892 117.428L73.5964 120.174C74.5503 123.418 72.6935 126.821 69.4491 127.775L68.6692 128.005C65.4249 128.958 62.0215 127.102 61.0677 123.857L60.143 120.712C59.3858 118.137 56.9877 116.477 54.3201 116.177C51.6185 115.874 48.8082 116.97 47.5061 119.356L45.9485 122.211C44.3289 125.18 40.6093 126.273 37.6407 124.654L36.9272 124.264C33.9586 122.645 32.8651 118.925 34.4847 115.957L36.0858 113.022C37.3814 110.647 36.7994 107.707 35.1073 105.597C33.4108 103.481 30.6903 102.335 28.0883 103.1L24.7203 104.091C21.4759 105.044 18.0726 103.188 17.1187 99.9432L16.8895 99.1634C15.9356 95.919 17.7925 92.5157 21.0369 91.5618L24.3427 90.5899C26.9694 89.8177 28.6498 87.3557 28.9308 84.6323C29.2104 81.9219 28.101 79.1138 25.709 77.8087L22.8019 76.2226C19.8333 74.603 18.7397 70.8835 20.3594 67.915L20.7487 67.2015C22.3683 64.2329 26.0878 63.1393 29.0564 64.759L31.9149 66.3186C34.3009 67.6203 37.2568 67.0213 39.3639 65.3045C41.4446 63.6091 42.5625 60.9157 41.8055 58.3408L40.8626 55.1336C39.9087 51.8893 41.7655 48.4859 45.0099 47.5321L45.7898 47.3028C49.0341 46.349 52.4374 48.2058 53.3913 51.4501L54.2169 54.2581C55.0147 56.9717 57.5704 58.6962 60.3851 58.9747C63.1643 59.2497 66.0434 58.1144 67.381 55.6627L68.7929 53.075C70.4126 50.1064 74.1321 49.0128 77.1007 50.6325L77.8142 51.0218C80.7828 52.6414 81.8763 56.3609 80.2567 59.3295L78.8894 61.8356C77.5448 64.3 78.1663 67.3528 79.928 69.5387C81.6852 71.719 84.4916 72.9064 87.1782 72.1165L89.7611 71.3571C93.0055 70.4033 96.4088 72.2601 97.3627 75.5045L97.592 76.2843C98.5458 79.5286 96.689 82.932 93.4446 83.8858L90.7997 84.6634C88.1377 85.446 86.4331 87.9368 86.1352 90.6954C85.8358 93.4668 86.9581 96.3495 89.4051 97.6846L91.9391 99.067ZM48.1385 104.564C38.7935 99.4652 35.351 87.7565 40.4496 78.4115C45.5482 69.0665 57.2571 65.6242 66.6022 70.7227C75.9472 75.8213 79.3897 87.53 74.2911 96.875C69.1925 106.22 57.4836 109.662 48.1385 104.564ZM42.5997 79.5845C38.149 87.7421 41.154 97.963 49.3116 102.414C57.4692 106.864 67.6903 103.859 72.141 95.702C76.5917 87.5444 73.5867 77.3235 65.4291 72.8728C57.2715 68.4221 47.0504 71.427 42.5997 79.5845Z"/>
</mask>
<path fill-rule="evenodd" clip-rule="evenodd" d="M91.9391 99.067C94.9076 100.687 96.0012 104.406 94.3815 107.375L93.9923 108.088C92.3726 111.057 88.6531 112.15 85.6845 110.531L83.1001 109.121C80.6481 107.783 77.612 108.387 75.4235 110.122C73.2072 111.88 71.9913 114.714 72.7892 117.428L73.5964 120.174C74.5503 123.418 72.6935 126.821 69.4491 127.775L68.6692 128.005C65.4249 128.958 62.0215 127.102 61.0677 123.857L60.143 120.712C59.3858 118.137 56.9877 116.477 54.3201 116.177C51.6185 115.874 48.8082 116.97 47.5061 119.356L45.9485 122.211C44.3289 125.18 40.6093 126.273 37.6407 124.654L36.9272 124.264C33.9586 122.645 32.8651 118.925 34.4847 115.957L36.0858 113.022C37.3814 110.647 36.7994 107.707 35.1073 105.597C33.4108 103.481 30.6903 102.335 28.0883 103.1L24.7203 104.091C21.4759 105.044 18.0726 103.188 17.1187 99.9432L16.8895 99.1634C15.9356 95.919 17.7925 92.5157 21.0369 91.5618L24.3427 90.5899C26.9694 89.8177 28.6498 87.3557 28.9308 84.6323C29.2104 81.9219 28.101 79.1138 25.709 77.8087L22.8019 76.2226C19.8333 74.603 18.7397 70.8835 20.3594 67.915L20.7487 67.2015C22.3683 64.2329 26.0878 63.1393 29.0564 64.759L31.9149 66.3186C34.3009 67.6203 37.2568 67.0213 39.3639 65.3045C41.4446 63.6091 42.5625 60.9157 41.8055 58.3408L40.8626 55.1336C39.9087 51.8893 41.7655 48.4859 45.0099 47.5321L45.7898 47.3028C49.0341 46.349 52.4374 48.2058 53.3913 51.4501L54.2169 54.2581C55.0147 56.9717 57.5704 58.6962 60.3851 58.9747C63.1643 59.2497 66.0434 58.1144 67.381 55.6627L68.7929 53.075C70.4126 50.1064 74.1321 49.0128 77.1007 50.6325L77.8142 51.0218C80.7828 52.6414 81.8763 56.3609 80.2567 59.3295L78.8894 61.8356C77.5448 64.3 78.1663 67.3528 79.928 69.5387C81.6852 71.719 84.4916 72.9064 87.1782 72.1165L89.7611 71.3571C93.0055 70.4033 96.4088 72.2601 97.3627 75.5045L97.592 76.2843C98.5458 79.5286 96.689 82.932 93.4446 83.8858L90.7997 84.6634C88.1377 85.446 86.4331 87.9368 86.1352 90.6954C85.8358 93.4668 86.9581 96.3495 89.4051 97.6846L91.9391 99.067ZM48.1385 104.564C38.7935 99.4652 35.351 87.7565 40.4496 78.4115C45.5482 69.0665 57.2571 65.6242 66.6022 70.7227C75.9472 75.8213 79.3897 87.53 74.2911 96.875C69.1925 106.22 57.4836 109.662 48.1385 104.564ZM42.5997 79.5845C38.149 87.7421 41.154 97.963 49.3116 102.414C57.4692 106.864 67.6903 103.859 72.141 95.702C76.5917 87.5444 73.5867 77.3235 65.4291 72.8728C57.2715 68.4221 47.0504 71.427 42.5997 79.5845Z" fill="white"/>
<path d="M89.4051 97.6846L90.4609 95.7495L89.4051 97.6846ZM90.7997 84.6634L91.4214 86.7782L90.7997 84.6634ZM97.592 76.2843L99.7068 75.6625L97.592 76.2843ZM93.4446 83.8858L92.8228 81.771L93.4446 83.8858ZM89.7611 71.3571L90.3829 73.4719L89.7611 71.3571ZM97.3627 75.5045L95.2479 76.1262L97.3627 75.5045ZM87.1782 72.1165L86.5565 70.0017L87.1782 72.1165ZM78.8894 61.8356L80.8244 62.8913L78.8894 61.8356ZM77.8142 51.0218L78.87 49.0868L77.8142 51.0218ZM80.2567 59.3295L78.3217 58.2737L80.2567 59.3295ZM68.7929 53.075L66.8579 52.0192L68.7929 53.075ZM77.1007 50.6325L76.0449 52.5675L77.1007 50.6325ZM67.381 55.6627L69.3161 56.7185L67.381 55.6627ZM54.2169 54.2581L56.3317 53.6364L54.2169 54.2581ZM45.7898 47.3028L45.168 45.188L45.7898 47.3028ZM53.3913 51.4501L51.2765 52.0719L53.3913 51.4501ZM40.8626 55.1336L42.9774 54.5119L40.8626 55.1336ZM45.0099 47.5321L45.6317 49.6469L45.0099 47.5321ZM41.8055 58.3408L39.6907 58.9625L41.8055 58.3408ZM31.9149 66.3186L32.9707 64.3835L31.9149 66.3186ZM20.7487 67.2015L22.6837 68.2572L20.7487 67.2015ZM29.0564 64.759L28.0007 66.694L29.0564 64.759ZM22.8019 76.2226L23.8576 74.2876L22.8019 76.2226ZM20.3594 67.915L18.4243 66.8592L20.3594 67.915ZM25.709 77.8087L24.6532 79.7438L25.709 77.8087ZM24.3427 90.5899L23.721 88.4751L24.3427 90.5899ZM16.8895 99.1634L19.0043 98.5416L16.8895 99.1634ZM21.0369 91.5618L21.6586 93.6766L21.0369 91.5618ZM24.7203 104.091L24.0985 101.976L24.7203 104.091ZM17.1187 99.9432L15.0039 100.565L17.1187 99.9432ZM28.0883 103.1L28.71 105.215L28.0883 103.1ZM36.0858 113.022L34.1508 111.966L36.0858 113.022ZM36.9272 124.264L37.9829 122.329L36.9272 124.264ZM34.4847 115.957L36.4197 117.012L34.4847 115.957ZM45.9485 122.211L44.0135 121.156L45.9485 122.211ZM37.6407 124.654L36.585 126.589L37.6407 124.654ZM47.5061 119.356L49.4411 120.412L47.5061 119.356ZM60.143 120.712L58.0282 121.334L60.143 120.712ZM68.6692 128.005L68.0475 125.89L68.6692 128.005ZM61.0677 123.857L63.1825 123.235L61.0677 123.857ZM73.5964 120.174L71.4816 120.795L73.5964 120.174ZM69.4491 127.775L70.0708 129.89L69.4491 127.775ZM72.7892 117.428L74.904 116.806L72.7892 117.428ZM83.1001 109.121L82.0444 111.056L83.1001 109.121ZM94.3815 107.375L92.4465 106.319L94.3815 107.375ZM91.9391 99.067L90.8833 101.002L91.9391 99.067ZM93.9923 108.088L95.9273 109.144L93.9923 108.088ZM85.6845 110.531L86.7402 108.596L85.6845 110.531ZM48.1385 104.564L49.1943 102.629L48.1385 104.564ZM66.6022 70.7227L67.6579 68.7877L66.6022 70.7227ZM49.3116 102.414L50.3673 100.479L49.3116 102.414ZM72.141 95.702L74.0761 96.7577L72.141 95.702ZM95.9273 109.144L96.3166 108.43L92.4465 106.319L92.0572 107.032L95.9273 109.144ZM82.0444 111.056L84.6287 112.466L86.7402 108.596L84.1559 107.186L82.0444 111.056ZM75.7112 119.552L74.904 116.806L70.6743 118.05L71.4816 120.795L75.7112 119.552ZM69.291 130.119L70.0708 129.89L68.8273 125.66L68.0475 125.89L69.291 130.119ZM58.0282 121.334L58.9529 124.479L63.1825 123.235L62.2578 120.09L58.0282 121.334ZM47.8836 123.267L49.4411 120.412L45.5711 118.301L44.0135 121.156L47.8836 123.267ZM35.8714 126.199L36.585 126.589L38.6965 122.719L37.9829 122.329L35.8714 126.199ZM34.1508 111.966L32.5497 114.901L36.4197 117.012L38.0209 114.078L34.1508 111.966ZM25.342 106.205L28.71 105.215L27.4665 100.986L24.0985 101.976L25.342 106.205ZM14.7747 99.7851L15.0039 100.565L19.2336 99.3214L19.0043 98.5416L14.7747 99.7851ZM23.721 88.4751L20.4151 89.4471L21.6586 93.6766L24.9645 92.7047L23.721 88.4751ZM21.7461 78.1577L24.6532 79.7438L26.7647 75.8737L23.8576 74.2876L21.7461 78.1577ZM18.8136 66.1457L18.4243 66.8592L22.2944 68.9707L22.6837 68.2572L18.8136 66.1457ZM32.9707 64.3835L30.1122 62.824L28.0007 66.694L30.8592 68.2536L32.9707 64.3835ZM38.7478 55.7554L39.6907 58.9625L43.9203 57.719L42.9774 54.5119L38.7478 55.7554ZM45.168 45.188L44.3882 45.4173L45.6317 49.6469L46.4115 49.4176L45.168 45.188ZM56.3317 53.6364L55.5061 50.8284L51.2765 52.0719L52.1021 54.8799L56.3317 53.6364ZM66.8579 52.0192L65.446 54.607L69.3161 56.7185L70.7279 54.1307L66.8579 52.0192ZM78.87 49.0868L78.1564 48.6975L76.0449 52.5675L76.7585 52.9568L78.87 49.0868ZM80.8244 62.8913L82.1917 60.3852L78.3217 58.2737L76.9543 60.7799L80.8244 62.8913ZM89.1394 69.2424L86.5565 70.0017L87.8 74.2313L90.3829 73.4719L89.1394 69.2424ZM99.7068 75.6625L99.4775 74.8827L95.2479 76.1262L95.4772 76.906L99.7068 75.6625ZM91.4214 86.7782L94.0663 86.0006L92.8228 81.771L90.178 82.5486L91.4214 86.7782ZM92.9948 97.132L90.4609 95.7495L88.3494 99.6196L90.8833 101.002L92.9948 97.132ZM83.9436 90.4587C83.5736 93.8845 84.9322 97.7552 88.3494 99.6196L90.4609 95.7495C88.984 94.9437 88.0981 93.0492 88.3267 90.9321L83.9436 90.4587ZM90.178 82.5486C86.4842 83.6345 84.3157 87.0134 83.9436 90.4587L88.3267 90.9321C88.5505 88.8602 89.7912 87.2575 91.4214 86.7782L90.178 82.5486ZM95.4772 76.906C96.0876 78.9824 94.8992 81.1606 92.8228 81.771L94.0663 86.0006C98.4787 84.7034 101.004 80.0748 99.7068 75.6625L95.4772 76.906ZM90.3829 73.4719C92.4593 72.8615 94.6374 74.0498 95.2479 76.1262L99.4775 74.8827C98.1803 70.4704 93.5517 67.9451 89.1394 69.2424L90.3829 73.4719ZM78.2116 70.9219C80.4015 73.6391 84.079 75.3253 87.8 74.2313L86.5565 70.0017C84.9042 70.4875 82.9688 69.799 81.6443 68.1555L78.2116 70.9219ZM76.9543 60.7799C75.0802 64.2148 76.0386 68.2256 78.2116 70.9219L81.6443 68.1555C80.2941 66.4801 80.0093 64.3852 80.8244 62.8913L76.9543 60.7799ZM76.7585 52.9568C78.6584 53.9934 79.3582 56.3739 78.3217 58.2737L82.1917 60.3852C84.3945 56.348 82.9073 51.2895 78.87 49.0868L76.7585 52.9568ZM70.7279 54.1307C71.7645 52.2308 74.145 51.5309 76.0449 52.5675L78.1564 48.6975C74.1191 46.4947 69.0606 47.982 66.8579 52.0192L70.7279 54.1307ZM60.168 61.1683C63.5958 61.5074 67.453 60.1332 69.3161 56.7185L65.446 54.607C64.6338 56.0956 62.7328 56.9919 60.6021 56.7811L60.168 61.1683ZM52.1021 54.8799C53.2066 58.6367 56.6643 60.8216 60.168 61.1683L60.6021 56.7811C58.4765 56.5708 56.8227 55.3066 56.3317 53.6364L52.1021 54.8799ZM46.4115 49.4176C48.4879 48.8072 50.666 49.9955 51.2765 52.0719L55.5061 50.8284C54.2089 46.4161 49.5804 43.8908 45.168 45.188L46.4115 49.4176ZM42.9774 54.5119C42.3669 52.4355 43.5553 50.2573 45.6317 49.6469L44.3882 45.4173C39.9758 46.7145 37.4505 51.343 38.7478 55.7554L42.9774 54.5119ZM40.7563 67.0133C43.3757 64.8791 44.9779 61.3163 43.9203 57.719L39.6907 58.9625C40.1472 60.5152 39.5136 62.3391 37.9715 63.5956L40.7563 67.0133ZM30.8592 68.2536C34.2142 70.0841 38.1318 69.1517 40.7563 67.0133L37.9715 63.5956C36.3817 64.891 34.3877 65.1566 32.9707 64.3835L30.8592 68.2536ZM22.6837 68.2572C23.7203 66.3573 26.1008 65.6574 28.0007 66.694L30.1122 62.824C26.0749 60.6212 21.0163 62.1085 18.8136 66.1457L22.6837 68.2572ZM23.8576 74.2876C21.9577 73.251 21.2578 70.8706 22.2944 68.9707L18.4243 66.8592C16.2216 70.8965 17.7088 75.955 21.7461 78.1577L23.8576 74.2876ZM31.1234 84.8585C31.4708 81.4909 30.1188 77.7036 26.7647 75.8737L24.6532 79.7438C26.0832 80.5239 26.9499 82.3528 26.7381 84.4061L31.1234 84.8585ZM24.9645 92.7047C28.625 91.6285 30.771 88.2748 31.1234 84.8585L26.7381 84.4061C26.5286 86.4366 25.3138 88.0069 23.721 88.4751L24.9645 92.7047ZM19.0043 98.5416C18.3938 96.4652 19.5822 94.2871 21.6586 93.6766L20.4151 89.4471C16.0027 90.7443 13.4774 95.3728 14.7747 99.7851L19.0043 98.5416ZM24.0985 101.976C22.0221 102.586 19.844 101.398 19.2336 99.3214L15.0039 100.565C16.3012 104.977 20.9297 107.503 25.342 106.205L24.0985 101.976ZM36.8271 104.218C34.6941 101.558 31.0997 99.9174 27.4665 100.986L28.71 105.215C30.2808 104.753 32.1275 105.404 33.3875 106.976L36.8271 104.218ZM38.0209 114.078C39.8412 110.741 38.9341 106.846 36.8271 104.218L33.3875 106.976C34.6648 108.569 34.9217 110.553 34.1508 111.966L38.0209 114.078ZM37.9829 122.329C36.083 121.293 35.3832 118.912 36.4197 117.012L32.5497 114.901C30.3469 118.938 31.8341 123.997 35.8714 126.199L37.9829 122.329ZM44.0135 121.156C42.9769 123.055 40.5964 123.755 38.6965 122.719L36.585 126.589C40.6223 128.791 45.6808 127.304 47.8836 123.267L44.0135 121.156ZM54.5661 113.987C51.2014 113.609 47.4019 114.945 45.5711 118.301L49.4411 120.412C50.2145 118.995 52.0356 118.139 54.0741 118.368L54.5661 113.987ZM62.2578 120.09C61.2001 116.493 57.9242 114.364 54.5661 113.987L54.0741 118.368C56.0513 118.59 57.5716 119.781 58.0282 121.334L62.2578 120.09ZM68.0475 125.89C65.9711 126.5 63.793 125.312 63.1825 123.235L58.9529 124.479C60.2501 128.891 64.8786 131.417 69.291 130.119L68.0475 125.89ZM71.4816 120.795C72.0921 122.872 70.9037 125.05 68.8273 125.66L70.0708 129.89C74.4832 128.593 77.0085 123.964 75.7112 119.552L71.4816 120.795ZM74.0537 108.395C71.295 110.583 69.5697 114.292 70.6743 118.05L74.904 116.806C74.4128 115.136 75.1194 113.177 76.7933 111.849L74.0537 108.395ZM84.1559 107.186C80.7407 105.322 76.7529 106.255 74.0537 108.395L76.7933 111.849C78.4712 110.519 80.5554 110.243 82.0444 111.056L84.1559 107.186ZM96.3166 108.43C98.5193 104.393 97.0321 99.3347 92.9948 97.132L90.8833 101.002C92.7832 102.039 93.4831 104.419 92.4465 106.319L96.3166 108.43ZM92.0572 107.032C91.0206 108.932 88.6401 109.632 86.7402 108.596L84.6287 112.466C88.666 114.668 93.7246 113.181 95.9273 109.144L92.0572 107.032ZM38.5146 77.3558C32.8329 87.7694 36.6691 100.817 47.0828 106.499L49.1943 102.629C40.9179 98.1132 37.8692 87.7435 42.3847 79.4672L38.5146 77.3558ZM67.6579 68.7877C57.2442 63.1061 44.1963 66.9421 38.5146 77.3558L42.3847 79.4672C46.9002 71.191 57.27 68.1423 65.5464 72.6578L67.6579 68.7877ZM76.2261 97.9307C81.9078 87.5171 78.0716 74.4693 67.6579 68.7877L65.5464 72.6578C73.8228 77.1733 76.8715 87.543 72.356 95.8193L76.2261 97.9307ZM47.0828 106.499C57.4965 112.18 70.5444 108.344 76.2261 97.9307L72.356 95.8193C67.8405 104.096 57.4707 107.144 49.1943 102.629L47.0828 106.499ZM50.3673 100.479C43.2784 96.6111 40.6671 87.7291 44.5347 80.6403L40.6646 78.5288C35.6308 87.755 39.0296 99.315 48.2558 104.349L50.3673 100.479ZM70.206 94.6462C66.3383 101.735 57.4563 104.346 50.3673 100.479L48.2558 104.349C57.4821 109.383 69.0423 105.984 74.0761 96.7577L70.206 94.6462ZM64.3733 74.8078C71.4623 78.6754 74.0736 87.5574 70.206 94.6462L74.0761 96.7577C79.1099 87.5315 75.7111 75.9715 66.4848 70.9377L64.3733 74.8078ZM44.5347 80.6403C48.4024 73.5515 57.2844 70.9402 64.3733 74.8078L66.4848 70.9377C57.2585 65.904 45.6984 69.3026 40.6646 78.5288L44.5347 80.6403Z" fill="white" mask="url(#path-3-outside-2_1271_4457)"/>
<mask id="path-5-outside-3_1271_4457" maskUnits="userSpaceOnUse" x="65.6416" y="-3.3216" width="89.0408" height="89.0399" fill="black">
<rect fill="white" x="65.6416" y="-3.3216" width="89.0408" height="89.0399"/>
<path fill-rule="evenodd" clip-rule="evenodd" d="M130.722 54.4087C132.521 56.0854 132.62 58.9029 130.944 60.7018C129.267 62.5008 126.449 62.5999 124.65 60.9232L123.385 59.7442C121.992 58.4455 119.884 58.3306 118.145 59.107C116.384 59.8931 115.101 61.5592 115.169 63.4868L115.228 65.1605C115.314 67.6181 113.392 69.6805 110.934 69.767C108.477 69.8534 106.414 67.9312 106.328 65.4736L106.259 63.5185C106.195 61.6885 104.891 60.1855 103.179 59.536C101.445 58.8782 99.402 59.1268 98.1376 60.4834L96.8141 61.9035C95.1374 63.7024 92.3198 63.8015 90.5209 62.1249C88.7219 60.4482 88.6228 57.6307 90.2995 55.8317L91.6662 54.3654C92.9239 53.0159 93.0371 50.9751 92.2764 49.2944C91.5138 47.6093 89.9103 46.3921 88.0617 46.4571L85.9482 46.5315C83.4906 46.6179 81.4282 44.6957 81.3417 42.2381C81.2552 39.7805 83.1774 37.7181 85.6351 37.6317L87.7058 37.5588C89.5715 37.4932 91.0981 36.1513 91.7446 34.4C92.388 32.6568 92.1304 30.614 90.7711 29.3471L89.3212 27.9958C87.5222 26.3191 87.4231 23.5016 89.0997 21.7026C90.7764 19.9037 93.594 19.8046 95.3929 21.4812L96.8154 22.807C98.1714 24.0708 100.225 24.1754 101.908 23.3978C103.57 22.6299 104.764 21.0397 104.7 19.2103L104.63 17.2091C104.543 14.7515 106.465 12.6891 108.923 12.6027C111.381 12.5162 113.443 14.4384 113.53 16.896L113.59 18.6158C113.658 20.5428 115.054 22.114 116.865 22.7741C118.654 23.4259 120.748 23.1632 122.046 21.7704L123.227 20.503C124.904 18.704 127.721 18.6049 129.52 20.2816C131.319 21.9582 131.418 24.7758 129.742 26.5747L128.605 27.7948C127.299 29.1952 127.193 31.317 127.987 33.0591C128.779 34.7966 130.432 36.0557 132.34 35.9886L133.9 35.9337C136.358 35.8472 138.42 37.7694 138.507 40.227C138.593 42.6847 136.671 44.747 134.213 44.8335L132.611 44.8899C130.719 44.9564 129.172 46.3136 128.508 48.0857C127.841 49.8659 128.095 51.9601 129.486 53.2562L130.722 54.4087ZM100.528 51.3915C94.9023 46.1486 94.5923 37.3383 99.8352 31.713C105.078 26.0878 113.889 25.7778 119.514 31.0207C125.139 36.2636 125.449 45.074 120.206 50.6992C114.963 56.3244 106.153 56.6344 100.528 51.3915ZM101.627 33.3829C97.3062 38.0186 97.5617 45.2792 102.197 49.5998C106.833 53.9205 114.094 53.665 118.415 49.0293C122.735 44.3936 122.48 37.133 117.844 32.8124C113.208 28.4918 105.948 28.7472 101.627 33.3829Z"/>
</mask>
<path fill-rule="evenodd" clip-rule="evenodd" d="M130.722 54.4087C132.521 56.0854 132.62 58.9029 130.944 60.7018C129.267 62.5008 126.449 62.5999 124.65 60.9232L123.385 59.7442C121.992 58.4455 119.884 58.3306 118.145 59.107C116.384 59.8931 115.101 61.5592 115.169 63.4868L115.228 65.1605C115.314 67.6181 113.392 69.6805 110.934 69.767C108.477 69.8534 106.414 67.9312 106.328 65.4736L106.259 63.5185C106.195 61.6885 104.891 60.1855 103.179 59.536C101.445 58.8782 99.402 59.1268 98.1376 60.4834L96.8141 61.9035C95.1374 63.7024 92.3198 63.8015 90.5209 62.1249C88.7219 60.4482 88.6228 57.6307 90.2995 55.8317L91.6662 54.3654C92.9239 53.0159 93.0371 50.9751 92.2764 49.2944C91.5138 47.6093 89.9103 46.3921 88.0617 46.4571L85.9482 46.5315C83.4906 46.6179 81.4282 44.6957 81.3417 42.2381C81.2552 39.7805 83.1774 37.7181 85.6351 37.6317L87.7058 37.5588C89.5715 37.4932 91.0981 36.1513 91.7446 34.4C92.388 32.6568 92.1304 30.614 90.7711 29.3471L89.3212 27.9958C87.5222 26.3191 87.4231 23.5016 89.0997 21.7026C90.7764 19.9037 93.594 19.8046 95.3929 21.4812L96.8154 22.807C98.1714 24.0708 100.225 24.1754 101.908 23.3978C103.57 22.6299 104.764 21.0397 104.7 19.2103L104.63 17.2091C104.543 14.7515 106.465 12.6891 108.923 12.6027C111.381 12.5162 113.443 14.4384 113.53 16.896L113.59 18.6158C113.658 20.5428 115.054 22.114 116.865 22.7741C118.654 23.4259 120.748 23.1632 122.046 21.7704L123.227 20.503C124.904 18.704 127.721 18.6049 129.52 20.2816C131.319 21.9582 131.418 24.7758 129.742 26.5747L128.605 27.7948C127.299 29.1952 127.193 31.317 127.987 33.0591C128.779 34.7966 130.432 36.0557 132.34 35.9886L133.9 35.9337C136.358 35.8472 138.42 37.7694 138.507 40.227C138.593 42.6847 136.671 44.747 134.213 44.8335L132.611 44.8899C130.719 44.9564 129.172 46.3136 128.508 48.0857C127.841 49.8659 128.095 51.9601 129.486 53.2562L130.722 54.4087ZM100.528 51.3915C94.9023 46.1486 94.5923 37.3383 99.8352 31.713C105.078 26.0878 113.889 25.7778 119.514 31.0207C125.139 36.2636 125.449 45.074 120.206 50.6992C114.963 56.3244 106.153 56.6344 100.528 51.3915ZM101.627 33.3829C97.3062 38.0186 97.5617 45.2792 102.197 49.5998C106.833 53.9205 114.094 53.665 118.415 49.0293C122.735 44.3936 122.48 37.133 117.844 32.8124C113.208 28.4918 105.948 28.7472 101.627 33.3829Z" fill="white"/>
<path d="M129.486 53.2562L127.983 54.8687L129.486 53.2562ZM132.611 44.8899L132.688 47.0928L132.611 44.8899ZM134.213 44.8335L134.136 42.6306L134.213 44.8335ZM133.9 35.9337L133.823 33.7307L133.9 35.9337ZM132.34 35.9886L132.418 38.1915L132.34 35.9886ZM128.605 27.7948L130.217 29.2977L128.605 27.7948ZM129.742 26.5747L128.129 25.0718L129.742 26.5747ZM123.227 20.503L121.615 19.0001L123.227 20.503ZM122.046 21.7704L123.658 23.2733L122.046 21.7704ZM113.59 18.6158L115.793 18.5383L113.59 18.6158ZM113.53 16.896L111.327 16.9735L113.53 16.896ZM104.63 17.2091L106.833 17.1316L104.63 17.2091ZM104.7 19.2103L102.497 19.2878L104.7 19.2103ZM96.8154 22.807L95.3125 24.4195L96.8154 22.807ZM95.3929 21.4812L96.8959 19.8687L95.3929 21.4812ZM89.3212 27.9958L90.8241 26.3833L89.3212 27.9958ZM90.7711 29.3471L89.2682 30.9596L90.7711 29.3471ZM87.7058 37.5588L87.6283 35.3559L87.7058 37.5588ZM85.6351 37.6317L85.7126 39.8346L85.6351 37.6317ZM85.9482 46.5315L86.0257 48.7344L85.9482 46.5315ZM88.0617 46.4571L87.9842 44.2542L88.0617 46.4571ZM91.6662 54.3654L90.0537 52.8624L91.6662 54.3654ZM90.2995 55.8317L91.912 57.3346L90.2995 55.8317ZM96.8141 61.9035L95.2015 60.4006L96.8141 61.9035ZM98.1376 60.4834L99.7501 61.9863L98.1376 60.4834ZM106.259 63.5185L108.462 63.441L106.259 63.5185ZM106.328 65.4736L104.125 65.5511L106.328 65.4736ZM115.228 65.1605L117.431 65.083L115.228 65.1605ZM115.169 63.4868L112.966 63.5643L115.169 63.4868ZM123.385 59.7442L121.882 61.3567L123.385 59.7442ZM130.722 54.4087L132.225 52.7962L130.722 54.4087ZM124.65 60.9232L126.153 59.3107L124.65 60.9232ZM99.8352 31.713L98.2227 30.2101L99.8352 31.713ZM121.882 61.3567L123.148 62.5358L126.153 59.3107L124.888 58.1317L121.882 61.3567ZM117.431 65.083L117.372 63.4093L112.966 63.5643L113.025 65.238L117.431 65.083ZM104.056 63.596L104.125 65.5511L108.531 65.3961L108.462 63.441L104.056 63.596ZM98.4266 63.4064L99.7501 61.9863L96.5251 58.9805L95.2015 60.4006L98.4266 63.4064ZM90.0537 52.8624L88.6869 54.3288L91.912 57.3346L93.2787 55.8683L90.0537 52.8624ZM86.0257 48.7344L88.1392 48.6601L87.9842 44.2542L85.8707 44.3286L86.0257 48.7344ZM87.6283 35.3559L85.5576 35.4287L85.7126 39.8346L87.7833 39.7617L87.6283 35.3559ZM87.8182 29.6083L89.2682 30.9596L92.274 27.7346L90.8241 26.3833L87.8182 29.6083ZM98.3183 21.1945L96.8959 19.8687L93.89 23.0937L95.3125 24.4195L98.3183 21.1945ZM102.427 17.2867L102.497 19.2878L106.903 19.1328L106.833 17.1316L102.427 17.2867ZM115.793 18.5383L115.732 16.8185L111.327 16.9735L111.387 18.6933L115.793 18.5383ZM121.615 19.0001L120.433 20.2675L123.658 23.2733L124.84 22.0059L121.615 19.0001ZM130.217 29.2977L131.354 28.0776L128.129 25.0718L126.992 26.2919L130.217 29.2977ZM133.823 33.7307L132.263 33.7856L132.418 38.1915L133.978 38.1366L133.823 33.7307ZM132.688 47.0928L134.291 47.0364L134.136 42.6306L132.533 42.687L132.688 47.0928ZM132.225 52.7962L130.989 51.6437L127.983 54.8687L129.219 56.0212L132.225 52.7962ZM126.444 47.3126C125.546 49.7092 125.784 52.8192 127.983 54.8687L130.989 51.6437C130.406 51.1011 130.137 50.0227 130.572 48.8588L126.444 47.3126ZM132.533 42.687C129.567 42.7913 127.35 44.8937 126.444 47.3126L130.572 48.8588C130.994 47.7335 131.872 47.1215 132.688 47.0928L132.533 42.687ZM136.304 40.3045C136.347 41.5455 135.377 42.5869 134.136 42.6306L134.291 47.0364C137.965 46.9072 140.839 43.8238 140.71 40.1495L136.304 40.3045ZM133.978 38.1366C135.219 38.0929 136.26 39.0636 136.304 40.3045L140.71 40.1495C140.58 36.4753 137.497 33.6015 133.823 33.7307L133.978 38.1366ZM125.981 33.9731C127.059 36.3381 129.432 38.2965 132.418 38.1915L132.263 33.7856C131.432 33.8149 130.499 33.2551 129.993 32.145L125.981 33.9731ZM126.992 26.2919C124.933 28.5011 124.916 31.6345 125.981 33.9731L129.993 32.145C129.471 30.9996 129.666 29.8893 130.217 29.2977L126.992 26.2919ZM128.017 21.8941C128.926 22.7407 128.976 24.1634 128.129 25.0718L131.354 28.0776C133.861 25.3881 133.713 21.1758 131.023 18.6691L128.017 21.8941ZM124.84 22.0059C125.686 21.0975 127.109 21.0475 128.017 21.8941L131.023 18.6691C128.334 16.1624 124.121 16.3106 121.615 19.0001L124.84 22.0059ZM116.111 24.8452C118.512 25.7202 121.612 25.4686 123.658 23.2733L120.433 20.2675C119.883 20.8578 118.797 21.1317 117.62 20.703L116.111 24.8452ZM111.387 18.6933C111.493 21.7069 113.649 23.948 116.111 24.8452L117.62 20.703C116.459 20.28 115.823 19.3786 115.793 18.5383L111.387 18.6933ZM109.001 14.8056C110.242 14.762 111.283 15.7326 111.327 16.9735L115.732 16.8185C115.603 13.1443 112.52 10.2705 108.846 10.3997L109.001 14.8056ZM106.833 17.1316C106.789 15.8907 107.76 14.8493 109.001 14.8056L108.846 10.3997C105.171 10.529 102.297 13.6124 102.427 17.2867L106.833 17.1316ZM102.833 25.3988C105.125 24.3395 107.005 22.0271 106.903 19.1328L102.497 19.2878C102.524 20.0522 102.014 20.9204 100.983 21.3968L102.833 25.3988ZM95.3125 24.4195C97.476 26.4359 100.544 26.4562 102.833 25.3988L100.983 21.3968C99.9065 21.8945 98.8668 21.7057 98.3183 21.1945L95.3125 24.4195ZM90.7123 23.2055C91.5589 22.2972 92.9816 22.2471 93.89 23.0937L96.8959 19.8687C94.2063 17.362 89.9939 17.5102 87.4872 20.1997L90.7123 23.2055ZM90.8241 26.3833C89.9157 25.5366 89.8656 24.1139 90.7123 23.2055L87.4872 20.1997C84.9805 22.8892 85.1287 27.1016 87.8182 29.6083L90.8241 26.3833ZM93.8125 35.1633C94.6847 32.8003 94.435 29.7488 92.274 27.7346L89.2682 30.9596C89.8257 31.4793 90.0913 32.5133 89.6766 33.6367L93.8125 35.1633ZM87.7833 39.7617C90.7259 39.6582 92.9248 37.5681 93.8125 35.1633L89.6766 33.6367C89.2714 34.7345 88.4171 35.3281 87.6283 35.3559L87.7833 39.7617ZM83.5446 42.1606C83.501 40.9196 84.4716 39.8782 85.7126 39.8346L85.5576 35.4287C81.8833 35.558 79.0095 38.6414 79.1387 42.3156L83.5446 42.1606ZM85.8707 44.3286C84.6297 44.3722 83.5883 43.4016 83.5446 42.1606L79.1387 42.3156C79.268 45.9899 82.3514 48.8637 86.0257 48.7344L85.8707 44.3286ZM94.2846 48.3856C93.2343 46.0648 90.907 44.1514 87.9842 44.2542L88.1392 48.6601C88.9135 48.6328 89.7933 49.1539 90.2682 50.2033L94.2846 48.3856ZM93.2787 55.8683C95.2834 53.7174 95.3187 50.6703 94.2846 48.3856L90.2682 50.2033C90.7554 51.2798 90.5645 52.3143 90.0537 52.8624L93.2787 55.8683ZM92.0238 60.5124C91.1154 59.6657 91.0653 58.243 91.912 57.3346L88.6869 54.3288C86.1802 57.0183 86.3284 61.2307 89.018 63.7374L92.0238 60.5124ZM95.2015 60.4006C94.3549 61.3089 92.9322 61.359 92.0238 60.5124L89.018 63.7374C91.7075 66.2441 95.9199 66.0959 98.4266 63.4064L95.2015 60.4006ZM103.96 57.4751C101.603 56.5806 98.5422 56.8163 96.5251 58.9805L99.7501 61.9863C100.262 61.4373 101.287 61.1759 102.397 61.597L103.96 57.4751ZM108.462 63.441C108.36 60.546 106.322 58.371 103.96 57.4751L102.397 61.597C103.459 62.0001 104.029 62.8309 104.056 63.596L108.462 63.441ZM110.857 67.564C109.616 67.6077 108.574 66.6371 108.531 65.3961L104.125 65.5511C104.254 69.2254 107.337 72.0992 111.012 71.9699L110.857 67.564ZM113.025 65.238C113.068 66.479 112.098 67.5204 110.857 67.564L111.012 71.9699C114.686 71.8406 117.56 68.7573 117.431 65.083L113.025 65.238ZM117.246 57.0941C114.853 58.1625 112.86 60.55 112.966 63.5643L117.372 63.4093C117.342 62.5684 117.914 61.6238 119.043 61.1199L117.246 57.0941ZM124.888 58.1317C122.692 56.0849 119.581 56.0521 117.246 57.0941L119.043 61.1199C120.188 60.6092 121.292 60.8061 121.882 61.3567L124.888 58.1317ZM132.556 62.2047C135.063 59.5152 134.915 55.3029 132.225 52.7962L129.219 56.0212C130.128 56.8679 130.178 58.2906 129.331 59.1989L132.556 62.2047ZM129.331 59.1989C128.484 60.1073 127.062 60.1574 126.153 59.3107L123.148 62.5358C125.837 65.0424 130.049 64.8942 132.556 62.2047L129.331 59.1989ZM98.2227 30.2101C92.1497 36.7259 92.5088 46.9311 99.0247 53.004L102.03 49.779C97.2958 45.3661 97.0348 37.9506 101.448 33.2159L98.2227 30.2101ZM121.017 29.4082C114.501 23.3353 104.296 23.6943 98.2227 30.2101L101.448 33.2159C105.861 28.4813 113.276 28.2204 118.011 32.6332L121.017 29.4082ZM121.819 52.2021C127.892 45.6863 127.533 35.4811 121.017 29.4082L118.011 32.6332C122.746 37.0461 123.007 44.4616 118.594 49.1963L121.819 52.2021ZM99.0247 53.004C105.541 59.0769 115.746 58.7179 121.819 52.2021L118.594 49.1963C114.181 53.931 106.765 54.1918 102.03 49.779L99.0247 53.004ZM103.7 47.9873C99.9552 44.4967 99.7488 38.631 103.239 34.8858L100.014 31.88C94.8637 37.4063 95.1682 46.0617 100.695 51.2123L103.7 47.9873ZM116.802 47.5264C113.311 51.2716 107.446 51.4779 103.7 47.9873L100.695 51.2123C106.221 56.363 114.876 56.0585 120.027 50.5322L116.802 47.5264ZM116.341 34.4249C120.086 37.9155 120.293 43.7812 116.802 47.5264L120.027 50.5322C125.178 45.0059 124.873 36.3505 119.347 31.1999L116.341 34.4249ZM103.239 34.8858C106.73 31.1407 112.596 30.9343 116.341 34.4249L119.347 31.1999C113.821 26.0492 105.165 26.3537 100.014 31.88L103.239 34.8858Z" fill="white" mask="url(#path-5-outside-3_1271_4457)"/>
<mask id="path-7-outside-4_1271_4457" maskUnits="userSpaceOnUse" x="31.6776" y="-2.36193" width="60.7734" height="60.7727" fill="black">
<rect fill="white" x="31.6776" y="-2.36193" width="60.7734" height="60.7727"/>
<path fill-rule="evenodd" clip-rule="evenodd" d="M74.7797 37.5152C75.8671 38.6824 75.8023 40.5102 74.635 41.5976C73.4677 42.6849 71.6399 42.6201 70.5526 41.4529L69.7862 40.6302C68.9443 39.7265 67.5864 39.5556 66.4258 39.9781C65.2503 40.4059 64.3442 41.4251 64.2999 42.6753L64.2614 43.7609C64.2049 45.3552 62.8667 46.6018 61.2724 46.5453C59.6781 46.4888 58.4315 45.1506 58.488 43.5563L58.533 42.287C58.575 41.1004 57.8005 40.0686 56.7228 39.5702C55.6314 39.0654 54.2987 39.1328 53.4188 39.9524L52.4958 40.8123C51.3285 41.8996 49.5007 41.8348 48.4134 40.6676C47.326 39.5003 47.3908 37.6725 48.558 36.5852L49.5115 35.697C50.3864 34.882 50.5529 33.5676 50.1377 32.4462C49.7216 31.3222 48.7406 30.4623 47.5428 30.4199L46.1666 30.3711C44.5723 30.3146 43.3257 28.9763 43.3822 27.3821C43.4387 25.7878 44.7769 24.5412 46.3712 24.5977L47.7136 24.6453C48.9247 24.6882 49.9746 23.889 50.4731 22.7844C50.9691 21.6855 50.8957 20.3516 50.0739 19.4695L49.1979 18.529C48.1105 17.3618 48.1753 15.534 49.3426 14.4467C50.5098 13.3593 52.3376 13.4241 53.425 14.5913L54.2831 15.5125C55.1031 16.3928 56.4282 16.5543 57.5531 16.1279C58.6637 15.7068 59.5096 14.7321 59.5516 13.5451L59.5976 12.2469C59.6542 10.6526 60.9924 9.406 62.5867 9.4625C64.181 9.51901 65.4276 10.8572 65.3711 12.4515L65.3316 13.5661C65.2873 14.8167 66.1191 15.8978 67.2617 16.408C68.3899 16.9118 69.7571 16.8376 70.6612 15.9954L71.482 15.2308C72.6493 14.1434 74.4771 14.2082 75.5645 15.3755C76.6519 16.5427 76.5871 18.3705 75.4198 19.4579L74.63 20.1935C73.7207 21.0406 73.5549 22.4099 73.989 23.5744C74.4222 24.7363 75.4351 25.6279 76.6743 25.6718L77.681 25.7075C79.2753 25.764 80.5219 27.1022 80.4654 28.6965C80.4089 30.2907 79.0706 31.5373 77.4764 31.4808L76.4358 31.444C75.2099 31.4005 74.1469 32.2071 73.6364 33.3226C73.1234 34.4437 73.1915 35.8103 74.0319 36.7124L74.7797 37.5152ZM55.2883 34.2613C51.8408 30.5605 52.0462 24.7657 55.747 21.3183C59.4479 17.8708 65.2428 18.0762 68.6903 21.777C72.1378 25.4779 71.9324 31.2727 68.2315 34.7201C64.5307 38.1676 58.7358 37.9622 55.2883 34.2613ZM56.9157 22.5728C53.9076 25.3748 53.7407 30.0848 56.5428 33.0928C59.3449 36.1007 64.0549 36.2677 67.0629 33.4656C70.0709 30.6636 70.2379 25.9536 67.4358 22.9456C64.6337 19.9376 59.9237 19.7707 56.9157 22.5728Z"/>
</mask>
<path fill-rule="evenodd" clip-rule="evenodd" d="M74.7797 37.5152C75.8671 38.6824 75.8023 40.5102 74.635 41.5976C73.4677 42.6849 71.6399 42.6201 70.5526 41.4529L69.7862 40.6302C68.9443 39.7265 67.5864 39.5556 66.4258 39.9781C65.2503 40.4059 64.3442 41.4251 64.2999 42.6753L64.2614 43.7609C64.2049 45.3552 62.8667 46.6018 61.2724 46.5453C59.6781 46.4888 58.4315 45.1506 58.488 43.5563L58.533 42.287C58.575 41.1004 57.8005 40.0686 56.7228 39.5702C55.6314 39.0654 54.2987 39.1328 53.4188 39.9524L52.4958 40.8123C51.3285 41.8996 49.5007 41.8348 48.4134 40.6676C47.326 39.5003 47.3908 37.6725 48.558 36.5852L49.5115 35.697C50.3864 34.882 50.5529 33.5676 50.1377 32.4462C49.7216 31.3222 48.7406 30.4623 47.5428 30.4199L46.1666 30.3711C44.5723 30.3146 43.3257 28.9763 43.3822 27.3821C43.4387 25.7878 44.7769 24.5412 46.3712 24.5977L47.7136 24.6453C48.9247 24.6882 49.9746 23.889 50.4731 22.7844C50.9691 21.6855 50.8957 20.3516 50.0739 19.4695L49.1979 18.529C48.1105 17.3618 48.1753 15.534 49.3426 14.4467C50.5098 13.3593 52.3376 13.4241 53.425 14.5913L54.2831 15.5125C55.1031 16.3928 56.4282 16.5543 57.5531 16.1279C58.6637 15.7068 59.5096 14.7321 59.5516 13.5451L59.5976 12.2469C59.6542 10.6526 60.9924 9.406 62.5867 9.4625C64.181 9.51901 65.4276 10.8572 65.3711 12.4515L65.3316 13.5661C65.2873 14.8167 66.1191 15.8978 67.2617 16.408C68.3899 16.9118 69.7571 16.8376 70.6612 15.9954L71.482 15.2308C72.6493 14.1434 74.4771 14.2082 75.5645 15.3755C76.6519 16.5427 76.5871 18.3705 75.4198 19.4579L74.63 20.1935C73.7207 21.0406 73.5549 22.4099 73.989 23.5744C74.4222 24.7363 75.4351 25.6279 76.6743 25.6718L77.681 25.7075C79.2753 25.764 80.5219 27.1022 80.4654 28.6965C80.4089 30.2907 79.0706 31.5373 77.4764 31.4808L76.4358 31.444C75.2099 31.4005 74.1469 32.2071 73.6364 33.3226C73.1234 34.4437 73.1915 35.8103 74.0319 36.7124L74.7797 37.5152ZM55.2883 34.2613C51.8408 30.5605 52.0462 24.7657 55.747 21.3183C59.4479 17.8708 65.2428 18.0762 68.6903 21.777C72.1378 25.4779 71.9324 31.2727 68.2315 34.7201C64.5307 38.1676 58.7358 37.9622 55.2883 34.2613ZM56.9157 22.5728C53.9076 25.3748 53.7407 30.0848 56.5428 33.0928C59.3449 36.1007 64.0549 36.2677 67.0629 33.4656C70.0709 30.6636 70.2379 25.9536 67.4358 22.9456C64.6337 19.9376 59.9237 19.7707 56.9157 22.5728Z" fill="white"/>
<path d="M74.0319 36.7124L75.6448 35.2099L74.0319 36.7124ZM76.4358 31.444L76.5139 29.241L76.4358 31.444ZM77.4764 31.4808L77.3983 33.6837L77.4764 31.4808ZM77.681 25.7075L77.759 23.5046L77.681 25.7075ZM76.6743 25.6718L76.5962 27.8747L76.6743 25.6718ZM74.63 20.1935L76.1325 21.8064L74.63 20.1935ZM75.4198 19.4579L73.9173 17.845L75.4198 19.4579ZM71.482 15.2308L72.9846 16.8437L71.482 15.2308ZM70.6612 15.9954L69.1587 14.3825L70.6612 15.9954ZM65.3316 13.5661L67.5345 13.6442L65.3316 13.5661ZM65.3711 12.4515L63.1681 12.3734L65.3711 12.4515ZM59.5976 12.2469L61.8006 12.325L59.5976 12.2469ZM59.5516 13.5451L57.3487 13.4671L59.5516 13.5451ZM54.2831 15.5125L52.6702 17.015L54.2831 15.5125ZM53.425 14.5913L55.0379 13.0889L53.425 14.5913ZM49.1979 18.529L47.5849 20.0315L49.1979 18.529ZM50.0739 19.4695L51.6868 17.967L50.0739 19.4695ZM47.7136 24.6453L47.7917 22.4424L47.7136 24.6453ZM46.3712 24.5977L46.2931 26.8006L46.3712 24.5977ZM46.1666 30.3711L46.0885 32.574L46.1666 30.3711ZM47.5428 30.4199L47.6209 28.2169L47.5428 30.4199ZM49.5115 35.697L48.009 34.0841L49.5115 35.697ZM48.558 36.5852L50.0605 38.1981L48.558 36.5852ZM52.4958 40.8123L53.9983 42.4252L52.4958 40.8123ZM53.4188 39.9524L51.9163 38.3395L53.4188 39.9524ZM58.533 42.287L60.7359 42.3651L58.533 42.287ZM58.488 43.5563L56.285 43.4782L58.488 43.5563ZM64.2614 43.7609L66.4644 43.839L64.2614 43.7609ZM64.2999 42.6753L62.097 42.5972L64.2999 42.6753ZM69.7862 40.6302L68.1733 42.1327L69.7862 40.6302ZM74.7797 37.5152L73.1668 39.0177L74.7797 37.5152ZM70.5526 41.4529L72.1655 39.9504L70.5526 41.4529ZM68.6903 21.777L70.3032 20.2746L68.6903 21.777ZM56.5428 33.0928L58.1557 31.5903L56.5428 33.0928ZM68.1733 42.1327L68.9396 42.9553L72.1655 39.9504L71.3991 39.1277L68.1733 42.1327ZM66.4644 43.839L66.5028 42.7534L62.097 42.5972L62.0585 43.6829L66.4644 43.839ZM56.33 42.2089L56.285 43.4782L60.6909 43.6344L60.7359 42.3651L56.33 42.2089ZM53.9983 42.4252L54.9213 41.5653L51.9163 38.3395L50.9933 39.1994L53.9983 42.4252ZM48.009 34.0841L47.0555 34.9723L50.0605 38.1981L51.014 37.3099L48.009 34.0841ZM46.0885 32.574L47.4647 32.6228L47.6209 28.2169L46.2447 28.1682L46.0885 32.574ZM47.7917 22.4424L46.4493 22.3948L46.2931 26.8006L47.6355 26.8482L47.7917 22.4424ZM47.5849 20.0315L48.461 20.9719L51.6868 17.967L50.8108 17.0266L47.5849 20.0315ZM55.896 14.01L55.0379 13.0889L51.8121 16.0938L52.6702 17.015L55.896 14.01ZM57.3947 12.1688L57.3487 13.4671L61.7546 13.6232L61.8006 12.325L57.3947 12.1688ZM67.5345 13.6442L67.574 12.5296L63.1681 12.3734L63.1286 13.4881L67.5345 13.6442ZM69.9795 13.6179L69.1587 14.3825L72.1637 17.6083L72.9846 16.8437L69.9795 13.6179ZM76.1325 21.8064L76.9223 21.0708L73.9173 17.845L73.1275 18.5806L76.1325 21.8064ZM77.759 23.5046L76.7524 23.4689L76.5962 27.8747L77.6029 27.9104L77.759 23.5046ZM76.3578 33.6469L77.3983 33.6837L77.5544 29.2779L76.5139 29.241L76.3578 33.6469ZM76.3926 36.0127L75.6448 35.2099L72.419 38.2149L73.1668 39.0177L76.3926 36.0127ZM71.632 32.4054C70.845 34.1251 70.8252 36.504 72.419 38.2149L75.6448 35.2099C75.5943 35.1558 75.5375 35.0603 75.5205 34.8858C75.5026 34.7015 75.5362 34.4684 75.6408 34.2398L71.632 32.4054ZM76.5139 29.241C74.2135 29.1595 72.4298 30.6618 71.632 32.4054L75.6408 34.2398C75.7422 34.0184 75.8874 33.855 76.0261 33.7585C76.1566 33.6678 76.2663 33.6436 76.3578 33.6469L76.5139 29.241ZM78.2624 28.6184C78.2491 28.996 77.9321 29.2913 77.5544 29.2779L77.3983 33.6837C80.2092 33.7834 82.5687 31.5855 82.6683 28.7745L78.2624 28.6184ZM77.6029 27.9104C77.9805 27.9238 78.2758 28.2407 78.2624 28.6184L82.6683 28.7745C82.7679 25.9636 80.57 23.6042 77.759 23.5046L77.6029 27.9104ZM71.9235 24.3443C72.5975 26.1522 74.2792 27.7926 76.5962 27.8747L76.7524 23.4689C76.5909 23.4631 76.2468 23.3203 76.0545 22.8044L71.9235 24.3443ZM73.1275 18.5806C71.4092 20.1813 71.2605 22.5658 71.9235 24.3443L76.0545 22.8044C75.9645 22.5631 75.947 22.3221 75.9789 22.1341C76.0092 21.9558 76.0749 21.8601 76.1325 21.8064L73.1275 18.5806ZM73.9516 16.878C74.2091 17.1544 74.1938 17.5874 73.9173 17.845L76.9223 21.0708C78.9804 19.1536 79.0946 15.9311 77.1774 13.873L73.9516 16.878ZM72.9846 16.8437C73.261 16.5861 73.694 16.6015 73.9516 16.878L77.1774 13.873C75.2602 11.8149 72.0376 11.7007 69.9795 13.6179L72.9846 16.8437ZM66.3629 18.4207C68.0862 19.1903 70.4569 19.1983 72.1637 17.6083L69.1587 14.3825C69.1008 14.4365 69.0006 14.4953 68.8215 14.5136C68.6328 14.5328 68.3948 14.4999 68.1605 14.3953L66.3629 18.4207ZM63.1286 13.4881C63.0458 15.8254 64.5881 17.6282 66.3629 18.4207L68.1605 14.3953C67.9289 14.2918 67.7564 14.1412 67.654 13.9957C67.5574 13.8586 67.531 13.7421 67.5345 13.6442L63.1286 13.4881ZM62.5086 11.6654C62.8862 11.6788 63.1815 11.9958 63.1681 12.3734L67.574 12.5296C67.6736 9.71869 65.4757 7.35923 62.6647 7.2596L62.5086 11.6654ZM61.8006 12.325C61.814 11.9473 62.131 11.652 62.5086 11.6654L62.6647 7.2596C59.8538 7.15996 57.4943 9.35788 57.3947 12.1688L61.8006 12.325ZM58.3346 18.189C60.0947 17.5216 61.6748 15.8751 61.7546 13.6232L57.3487 13.4671C57.346 13.5434 57.3199 13.6366 57.2314 13.7471C57.137 13.8653 56.9805 13.9876 56.7716 14.0667L58.3346 18.189ZM52.6702 17.015C54.2428 18.7031 56.5858 18.852 58.3346 18.189L56.7716 14.0667C56.554 14.1493 56.3375 14.1649 56.1712 14.1368C56.0146 14.1103 55.9368 14.0538 55.896 14.01L52.6702 17.015ZM50.8451 16.0596C51.1216 15.802 51.5545 15.8173 51.8121 16.0938L55.0379 13.0889C53.1207 11.0308 49.8981 10.9166 47.84 12.8337L50.8451 16.0596ZM50.8108 17.0266C50.5532 16.7501 50.5686 16.3171 50.8451 16.0596L47.84 12.8337C45.782 14.7509 45.6678 17.9735 47.5849 20.0315L50.8108 17.0266ZM52.4823 23.6912C53.2499 21.9903 53.2555 19.6509 51.6868 17.967L48.461 20.9719C48.5053 21.0195 48.5581 21.1058 48.5747 21.2686C48.5922 21.4409 48.5619 21.6607 48.4639 21.8776L52.4823 23.6912ZM47.6355 26.8482C49.9238 26.9293 51.6972 25.4307 52.4823 23.6912L48.4639 21.8776C48.368 22.0901 48.2297 22.2463 48.0985 22.3379C47.9755 22.4238 47.8742 22.4453 47.7917 22.4424L47.6355 26.8482ZM45.5851 27.4602C45.5985 27.0825 45.9155 26.7872 46.2931 26.8006L46.4493 22.3948C43.6383 22.2952 41.2789 24.4931 41.1792 27.304L45.5851 27.4602ZM46.2447 28.1682C45.867 28.1548 45.5717 27.8378 45.5851 27.4602L41.1792 27.304C41.0796 30.1149 43.2776 32.4744 46.0885 32.574L46.2447 28.1682ZM52.2049 31.6809C51.5465 29.9024 49.8926 28.2975 47.6209 28.2169L47.4647 32.6228C47.5422 32.6255 47.6368 32.6522 47.7489 32.7427C47.8687 32.8394 47.992 32.9993 48.0705 33.2115L52.2049 31.6809ZM51.014 37.3099C52.6905 35.7482 52.8504 33.4244 52.2049 31.6809L48.0705 33.2115C48.151 33.4289 48.1653 33.6442 48.1366 33.8094C48.1095 33.9651 48.053 34.0431 48.009 34.0841L51.014 37.3099ZM50.0263 39.1651C49.7687 38.8886 49.784 38.4556 50.0605 38.1981L47.0555 34.9723C44.9975 36.8894 44.8832 40.112 46.8004 42.17L50.0263 39.1651ZM50.9933 39.1994C50.7168 39.4569 50.2838 39.4416 50.0263 39.1651L46.8004 42.17C48.7176 44.2281 51.9402 44.3423 53.9983 42.4252L50.9933 39.1994ZM57.6482 37.5695C55.9511 36.7846 53.604 36.7674 51.9163 38.3395L54.9213 41.5653C54.9649 41.5247 55.0464 41.4739 55.2043 41.4586C55.3719 41.4424 55.5864 41.4732 55.7975 41.5708L57.6482 37.5695ZM60.7359 42.3651C60.8157 40.1136 59.3565 38.3596 57.6482 37.5695L55.7975 41.5708C56 41.6645 56.1473 41.7974 56.233 41.9218C56.3133 42.0382 56.3327 42.1328 56.33 42.2089L60.7359 42.3651ZM61.3505 44.3424C60.9728 44.329 60.6775 44.012 60.6909 43.6344L56.285 43.4782C56.1854 46.2891 58.3834 48.6486 61.1943 48.7482L61.3505 44.3424ZM62.0585 43.6829C62.0451 44.0605 61.7281 44.3558 61.3505 44.3424L61.1943 48.7482C64.0053 48.8479 66.3647 46.6499 66.4644 43.839L62.0585 43.6829ZM65.6718 37.9067C63.8456 38.5714 62.1798 40.2603 62.097 42.5972L66.5028 42.7534C66.5063 42.6557 66.5408 42.5415 66.6467 42.4117C66.7591 42.274 66.9416 42.1361 67.1797 42.0494L65.6718 37.9067ZM71.3991 39.1277C69.8095 37.4213 67.4449 37.2613 65.6718 37.9067L67.1797 42.0494C67.4206 41.9617 67.6601 41.9458 67.8468 41.9783C68.0239 42.0092 68.1194 42.0749 68.1733 42.1327L71.3991 39.1277ZM76.1375 43.2105C78.1956 41.2933 78.3098 38.0708 76.3926 36.0127L73.1668 39.0177C73.4243 39.2941 73.409 39.7271 73.1325 39.9847L76.1375 43.2105ZM73.1325 39.9847C72.856 40.2422 72.4231 40.2269 72.1655 39.9504L68.9396 42.9553C70.8568 45.0134 74.0794 45.1276 76.1375 43.2105L73.1325 39.9847ZM54.2445 19.7054C49.6529 23.9826 49.3981 31.1722 53.6754 35.7638L56.9012 32.7589C54.2835 29.9488 54.4395 25.5488 57.2495 22.9312L54.2445 19.7054ZM70.3032 20.2746C66.0259 15.683 58.8362 15.4281 54.2445 19.7054L57.2495 22.9312C60.0596 20.3135 64.4597 20.4695 67.0773 23.2795L70.3032 20.2746ZM69.734 36.333C74.3257 32.0558 74.5805 24.8662 70.3032 20.2746L67.0773 23.2795C69.695 26.0895 69.5391 30.4896 66.729 33.1072L69.734 36.333ZM53.6754 35.7638C57.9527 40.3554 65.1424 40.6103 69.734 36.333L66.729 33.1072C63.919 35.7249 59.5189 35.5689 56.9012 32.7589L53.6754 35.7638ZM58.1557 31.5903C56.1834 29.4731 56.3009 26.1579 58.4182 24.1857L55.4132 20.9598C51.5144 24.5917 51.298 30.6965 54.9299 34.5952L58.1557 31.5903ZM65.5604 31.8527C63.4432 33.825 60.128 33.7075 58.1557 31.5903L54.9299 34.5952C58.5618 38.494 64.6666 38.7104 68.5654 35.0785L65.5604 31.8527ZM65.8229 24.4481C67.7951 26.5653 67.6776 29.8805 65.5604 31.8527L68.5654 35.0785C72.4642 31.4467 72.6806 25.3419 69.0487 21.4431L65.8229 24.4481ZM58.4182 24.1857C60.5354 22.2134 63.8506 22.3309 65.8229 24.4481L69.0487 21.4431C65.4168 17.5444 59.312 17.328 55.4132 20.9598L58.4182 24.1857Z" fill="white" mask="url(#path-7-outside-4_1271_4457)"/>
</svg>
