<svg width="376" height="434" viewBox="0 0 376 434" fill="none" xmlns="http://www.w3.org/2000/svg">
<g filter="url(#filter0_f_669_100)">
<path fill-rule="evenodd" clip-rule="evenodd" d="M197.889 151.954C193.744 159.638 182.721 159.638 178.576 151.954L132.627 66.7631C130.712 63.2131 127.004 61 122.97 61H74.7562C66.2743 61 61.0003 70.2133 65.2955 77.5273L143.169 210.133C145.191 213.577 145.183 217.847 143.147 221.282L63.0498 356.435C58.7154 363.748 63.9867 373 72.4882 373H121.285C125.303 373 129 370.803 130.921 367.274L178.597 279.7C182.753 272.066 193.713 272.066 197.869 279.7L245.544 367.274C247.465 370.803 251.162 373 255.18 373H303.571C312.068 373 317.339 363.758 313.015 356.444L233.091 221.273C231.062 217.842 231.054 213.581 233.068 210.143L310.77 77.5175C315.055 70.2035 309.78 61 301.303 61H253.495C249.461 61 245.753 63.2131 243.838 66.7631L197.889 151.954Z" fill="url(#paint0_linear_669_100)"/>
</g>
<path fill-rule="evenodd" clip-rule="evenodd" d="M197.078 146.704C193.354 153.608 183.45 153.608 179.727 146.704L138.444 70.1651C136.724 66.9756 133.392 64.9873 129.768 64.9873H86.4509C78.8304 64.9873 74.0921 73.2649 77.9511 79.836L147.916 198.974C149.733 202.068 149.725 205.904 147.896 208.991L75.9334 330.417C72.0393 336.988 76.7752 345.3 84.4132 345.3H128.254C131.864 345.3 135.185 343.326 136.911 340.156L179.745 261.476C183.479 254.617 193.326 254.617 197.06 261.476L239.893 340.156C241.619 343.326 244.941 345.3 248.551 345.3H292.027C299.66 345.3 304.397 336.997 300.512 330.426L228.705 208.982C226.882 205.9 226.874 202.072 228.684 198.983L298.494 79.8273C302.344 73.256 297.605 64.9873 289.989 64.9873H247.036C243.413 64.9873 240.081 66.9756 238.361 70.1651L197.078 146.704Z" fill="url(#paint1_linear_669_100)"/>
<defs>
<filter id="filter0_f_669_100" x="0.5625" y="0.0625" width="374.935" height="433.875" filterUnits="userSpaceOnUse" color-interpolation-filters="sRGB">
<feFlood flood-opacity="0" result="BackgroundImageFix"/>
<feBlend mode="normal" in="SourceGraphic" in2="BackgroundImageFix" result="shape"/>
<feGaussianBlur stdDeviation="30.4688" result="effect1_foregroundBlur_669_100"/>
</filter>
<linearGradient id="paint0_linear_669_100" x1="188.03" y1="61" x2="188.03" y2="373" gradientUnits="userSpaceOnUse">
<stop stop-color="#435ECF"/>
<stop offset="0.355" stop-color="#E24BB3"/>
<stop offset="1" stop-color="#FF9433"/>
</linearGradient>
<linearGradient id="paint1_linear_669_100" x1="188.22" y1="64.9873" x2="188.22" y2="345.3" gradientUnits="userSpaceOnUse">
<stop stop-color="#435ECF"/>
<stop offset="0.355" stop-color="#E24BB3"/>
<stop offset="1" stop-color="#FF9433"/>
</linearGradient>
</defs>
</svg>
