<svg width="299" height="190" viewBox="0 0 299 190" fill="none" xmlns="http://www.w3.org/2000/svg">
<g filter="url(#filter0_d_1271_4340)">
<path fill-rule="evenodd" clip-rule="evenodd" d="M217.418 67.2553H233.773C267.116 67.2553 294.145 94.2851 294.145 127.628C294.145 160.971 267.116 188.001 233.773 188.001H61.7417C28.3989 188.001 1.36914 160.971 1.36914 127.628C1.36914 94.2851 28.3989 67.2553 61.7418 67.2553H82.3284C83.673 30.3114 113.399 0.783203 149.873 0.783203C186.347 0.783203 216.074 30.3114 217.418 67.2553Z" fill="white"/>
<g filter="url(#filter1_d_1271_4340)">
<rect x="131.824" y="54.5586" width="4.82609" height="17.6787" rx="2.41305" fill="url(#paint0_linear_1271_4340)"/>
<rect x="145.286" y="54.5586" width="4.82609" height="17.6787" rx="2.41305" fill="url(#paint1_linear_1271_4340)"/>
<rect x="158.749" y="54.5586" width="4.82609" height="17.6787" rx="2.41305" fill="url(#paint2_linear_1271_4340)"/>
<rect x="132.322" y="116.799" width="4.82609" height="17.6787" rx="2.41305" fill="url(#paint3_linear_1271_4340)"/>
<rect x="145.784" y="116.799" width="4.82609" height="17.6787" rx="2.41305" fill="url(#paint4_linear_1271_4340)"/>
<rect x="159.247" y="116.799" width="4.82609" height="17.6787" rx="2.41305" fill="url(#paint5_linear_1271_4340)"/>
<rect x="170.413" y="110.209" width="4.82609" height="17.6787" rx="2.41305" transform="rotate(-90 170.413 110.209)" fill="url(#paint6_linear_1271_4340)"/>
<rect x="170.413" y="96.7461" width="4.82609" height="17.6787" rx="2.41305" transform="rotate(-90 170.413 96.7461)" fill="url(#paint7_linear_1271_4340)"/>
<rect x="170.413" y="83.2852" width="4.82609" height="17.6787" rx="2.41305" transform="rotate(-90 170.413 83.2852)" fill="url(#paint8_linear_1271_4340)"/>
<rect x="108.173" y="110.209" width="4.82609" height="17.6787" rx="2.41305" transform="rotate(-90 108.173 110.209)" fill="url(#paint9_linear_1271_4340)"/>
<rect x="108.173" y="96.7461" width="4.82609" height="17.6787" rx="2.41305" transform="rotate(-90 108.173 96.7461)" fill="url(#paint10_linear_1271_4340)"/>
<rect x="108.173" y="83.2852" width="4.82609" height="17.6787" rx="2.41305" transform="rotate(-90 108.173 83.2852)" fill="url(#paint11_linear_1271_4340)"/>
<rect x="120.046" y="66.0625" width="56.4182" height="56.7968" rx="12.448" fill="url(#paint12_linear_1271_4340)"/>
<rect x="123.359" y="69.2461" width="49.7919" height="50.126" rx="12.448" fill="url(#paint13_linear_1271_4340)"/>
<rect x="129.832" y="75.7188" width="37.3439" height="37.5945" rx="12.448" fill="url(#paint14_linear_1271_4340)"/>
</g>
<g filter="url(#filter2_d_1271_4340)">
<path d="M229.019 24.4596C237.071 16.7341 247.994 11.9844 260.038 11.9844C272.081 11.9844 283.004 16.7341 291.056 24.4596C292.55 25.8833 294.907 25.8367 296.331 24.3546C297.755 22.8725 297.708 20.5035 296.226 19.0797C286.843 10.0589 274.088 4.51563 260.038 4.51563C245.987 4.51562 233.232 10.0589 223.837 19.0681C222.355 20.5035 222.309 22.8608 223.732 24.3546C225.156 25.8483 227.525 25.895 229.007 24.4596H229.019ZM260.038 30.6563C266.666 30.6563 272.711 33.1187 277.332 37.1915C278.885 38.5569 281.242 38.4052 282.607 36.8648C283.973 35.3243 283.821 32.9553 282.28 31.5899C276.352 26.3618 268.557 23.1876 260.038 23.1876C251.518 23.1876 243.723 26.3618 237.806 31.5899C236.254 32.9553 236.114 35.3127 237.479 36.8648C238.845 38.4169 241.202 38.5569 242.754 37.1915C247.364 33.1187 253.409 30.6563 260.049 30.6563H260.038ZM267.506 49.3283C267.506 47.3475 266.719 45.4477 265.319 44.0471C263.918 42.6464 262.018 41.8595 260.038 41.8595C258.057 41.8595 256.157 42.6464 254.756 44.0471C253.356 45.4477 252.569 47.3475 252.569 49.3283C252.569 51.3091 253.356 53.2089 254.756 54.6095C256.157 56.0102 258.057 56.7971 260.038 56.7971C262.018 56.7971 263.918 56.0102 265.319 54.6095C266.719 53.2089 267.506 51.3091 267.506 49.3283Z" fill="white"/>
</g>
<g filter="url(#filter3_d_1271_4340)">
<path fill-rule="evenodd" clip-rule="evenodd" d="M206.014 162.083C207.925 161.192 209.25 159.252 209.25 157.004C209.25 153.91 206.742 151.402 203.648 151.402C200.555 151.402 198.047 153.91 198.047 157.004C198.047 159.252 199.372 161.192 201.283 162.083V187.999H206.014V162.083Z" fill="white"/>
</g>
<g filter="url(#filter4_d_1271_4340)">
<path fill-rule="evenodd" clip-rule="evenodd" d="M65.8495 162.083C67.7612 161.192 69.086 159.252 69.086 157.004C69.086 153.91 66.5781 151.402 63.4844 151.402C60.3907 151.402 57.8828 153.91 57.8828 157.004C57.8828 159.252 59.2076 161.192 61.1193 162.083V187.999H65.8495V162.083Z" fill="white"/>
</g>
<g filter="url(#filter5_d_1271_4340)">
<path fill-rule="evenodd" clip-rule="evenodd" d="M220.702 150.382C222.614 149.49 223.939 147.551 223.939 145.303C223.939 142.209 221.431 139.701 218.337 139.701C215.243 139.701 212.735 142.209 212.735 145.303C212.735 147.551 214.06 149.49 215.972 150.382V187.999H220.702V150.382Z" fill="white"/>
</g>
<g filter="url(#filter6_d_1271_4340)">
<path fill-rule="evenodd" clip-rule="evenodd" d="M80.538 150.382C82.4496 149.49 83.7745 147.551 83.7745 145.303C83.7745 142.209 81.2665 139.701 78.1729 139.701C75.0792 139.701 72.5713 142.209 72.5713 145.303C72.5713 147.551 73.8961 149.49 75.8078 150.382V187.999H80.538V150.382Z" fill="white"/>
</g>
<g filter="url(#filter7_d_1271_4340)">
<path fill-rule="evenodd" clip-rule="evenodd" d="M235.391 169.552C237.302 168.66 238.627 166.721 238.627 164.473C238.627 161.379 236.119 158.871 233.025 158.871C229.932 158.871 227.424 161.379 227.424 164.473C227.424 166.721 228.749 168.66 230.66 169.552L230.66 187.999H235.391V169.552Z" fill="white"/>
</g>
<g filter="url(#filter8_d_1271_4340)">
<path fill-rule="evenodd" clip-rule="evenodd" d="M95.2265 169.552C97.1381 168.66 98.4629 166.721 98.4629 164.473C98.4629 161.379 95.955 158.871 92.8613 158.871C89.7677 158.871 87.2598 161.379 87.2598 164.473C87.2598 166.721 88.5846 168.66 90.4962 169.552V187.999H95.2265V169.552Z" fill="white"/>
</g>
<g filter="url(#filter9_d_1271_4340)">
<path d="M130.945 177.715C129.974 177.715 129.284 177.575 128.874 177.294C128.464 176.992 128.216 176.615 128.129 176.162C128.043 175.687 128 175.212 128 174.738V158.005C128 157.53 128.043 157.066 128.129 156.613C128.216 156.16 128.464 155.793 128.874 155.513C129.284 155.211 129.985 155.06 130.978 155.06C131.97 155.06 132.66 155.211 133.049 155.513C133.459 155.793 133.707 156.16 133.793 156.613C133.88 157.066 133.923 157.541 133.923 158.037V174.77C133.923 175.245 133.88 175.708 133.793 176.162C133.707 176.615 133.459 176.992 133.049 177.294C132.639 177.575 131.938 177.715 130.945 177.715ZM143.899 178.006C142.907 178.006 141.904 177.812 140.889 177.424C139.875 177.014 138.937 176.442 138.074 175.708C137.232 174.953 136.553 174.058 136.035 173.022C135.538 171.965 135.29 170.789 135.29 169.494C135.29 168.308 135.517 167.197 135.97 166.161C136.423 165.125 137.038 164.219 137.815 163.442C138.613 162.644 139.519 162.018 140.533 161.565C141.569 161.112 142.67 160.885 143.835 160.885C145.431 160.885 146.877 161.274 148.172 162.051C149.466 162.806 150.502 163.831 151.279 165.125C152.055 166.42 152.444 167.865 152.444 169.462C152.444 170.821 152.185 172.03 151.667 173.087C151.149 174.144 150.469 175.04 149.628 175.773C148.786 176.507 147.859 177.057 146.845 177.424C145.852 177.812 144.87 178.006 143.899 178.006ZM143.835 172.084C144.158 172.084 144.525 172.008 144.935 171.857C145.367 171.684 145.733 171.404 146.035 171.016C146.359 170.627 146.521 170.099 146.521 169.43C146.521 168.89 146.402 168.426 146.165 168.038C145.949 167.65 145.636 167.348 145.226 167.132C144.816 166.916 144.342 166.808 143.802 166.808C143.328 166.808 142.896 166.927 142.508 167.164C142.119 167.38 141.806 167.693 141.569 168.103C141.332 168.491 141.213 168.944 141.213 169.462C141.213 170.109 141.364 170.627 141.666 171.016C141.968 171.404 142.324 171.684 142.734 171.857C143.144 172.008 143.511 172.084 143.835 172.084ZM166.765 155.027C167.175 155.027 167.563 155.06 167.93 155.125C168.297 155.189 168.599 155.394 168.836 155.739C169.095 156.085 169.225 156.678 169.225 157.52C169.225 158.339 169.095 158.933 168.836 159.3C168.599 159.645 168.286 159.85 167.898 159.915C167.531 159.979 167.143 160.012 166.733 160.012H162.266V174.835C162.266 175.309 162.223 175.773 162.137 176.226C162.051 176.658 161.802 177.014 161.393 177.294C161.004 177.575 160.314 177.715 159.321 177.715C158.372 177.715 157.692 177.575 157.282 177.294C156.872 176.992 156.624 176.625 156.538 176.194C156.473 175.741 156.441 175.277 156.441 174.802V160.012H151.942C151.554 160.012 151.165 159.979 150.777 159.915C150.41 159.828 150.097 159.612 149.838 159.267C149.601 158.922 149.482 158.329 149.482 157.487C149.482 156.667 149.601 156.085 149.838 155.739C150.097 155.394 150.421 155.189 150.809 155.125C151.198 155.06 151.586 155.027 151.974 155.027H166.765Z" fill="url(#paint15_linear_1271_4340)"/>
</g>
</g>
<defs>
<filter id="filter0_d_1271_4340" x="0.373303" y="0.783203" width="297.992" height="189.208" filterUnits="userSpaceOnUse" color-interpolation-filters="sRGB">
<feFlood flood-opacity="0" result="BackgroundImageFix"/>
<feColorMatrix in="SourceAlpha" type="matrix" values="0 0 0 0 0 0 0 0 0 0 0 0 0 0 0 0 0 0 127 0" result="hardAlpha"/>
<feOffset dy="0.995837"/>
<feGaussianBlur stdDeviation="0.497919"/>
<feComposite in2="hardAlpha" operator="out"/>
<feColorMatrix type="matrix" values="0 0 0 0 0 0 0 0 0 0 0 0 0 0 0 0 0 0 0.25 0"/>
<feBlend mode="normal" in2="BackgroundImageFix" result="effect1_dropShadow_1271_4340"/>
<feBlend mode="normal" in="SourceGraphic" in2="effect1_dropShadow_1271_4340" result="shape"/>
</filter>
<filter id="filter1_d_1271_4340" x="107.177" y="54.5586" width="81.9106" height="81.9116" filterUnits="userSpaceOnUse" color-interpolation-filters="sRGB">
<feFlood flood-opacity="0" result="BackgroundImageFix"/>
<feColorMatrix in="SourceAlpha" type="matrix" values="0 0 0 0 0 0 0 0 0 0 0 0 0 0 0 0 0 0 127 0" result="hardAlpha"/>
<feOffset dy="0.995837"/>
<feGaussianBlur stdDeviation="0.497919"/>
<feComposite in2="hardAlpha" operator="out"/>
<feColorMatrix type="matrix" values="0 0 0 0 0 0 0 0 0 0 0 0 0 0 0 0 0 0 0.25 0"/>
<feBlend mode="normal" in2="BackgroundImageFix" result="effect1_dropShadow_1271_4340"/>
<feBlend mode="normal" in="SourceGraphic" in2="effect1_dropShadow_1271_4340" result="shape"/>
</filter>
<filter id="filter2_d_1271_4340" x="221.698" y="4.51562" width="76.6665" height="54.2729" filterUnits="userSpaceOnUse" color-interpolation-filters="sRGB">
<feFlood flood-opacity="0" result="BackgroundImageFix"/>
<feColorMatrix in="SourceAlpha" type="matrix" values="0 0 0 0 0 0 0 0 0 0 0 0 0 0 0 0 0 0 127 0" result="hardAlpha"/>
<feOffset dy="0.995837"/>
<feGaussianBlur stdDeviation="0.497919"/>
<feComposite in2="hardAlpha" operator="out"/>
<feColorMatrix type="matrix" values="0 0 0 0 0 0 0 0 0 0 0 0 0 0 0 0 0 0 0.25 0"/>
<feBlend mode="normal" in2="BackgroundImageFix" result="effect1_dropShadow_1271_4340"/>
<feBlend mode="normal" in="SourceGraphic" in2="effect1_dropShadow_1271_4340" result="shape"/>
</filter>
<filter id="filter3_d_1271_4340" x="197.051" y="150.407" width="13.1948" height="38.5893" filterUnits="userSpaceOnUse" color-interpolation-filters="sRGB">
<feFlood flood-opacity="0" result="BackgroundImageFix"/>
<feColorMatrix in="SourceAlpha" type="matrix" values="0 0 0 0 0 0 0 0 0 0 0 0 0 0 0 0 0 0 127 0" result="hardAlpha"/>
<feOffset/>
<feGaussianBlur stdDeviation="0.497919"/>
<feComposite in2="hardAlpha" operator="out"/>
<feColorMatrix type="matrix" values="0 0 0 0 0 0 0 0 0 0 0 0 0 0 0 0 0 0 0.25 0"/>
<feBlend mode="normal" in2="BackgroundImageFix" result="effect1_dropShadow_1271_4340"/>
<feBlend mode="normal" in="SourceGraphic" in2="effect1_dropShadow_1271_4340" result="shape"/>
</filter>
<filter id="filter4_d_1271_4340" x="56.887" y="150.407" width="13.1948" height="38.5893" filterUnits="userSpaceOnUse" color-interpolation-filters="sRGB">
<feFlood flood-opacity="0" result="BackgroundImageFix"/>
<feColorMatrix in="SourceAlpha" type="matrix" values="0 0 0 0 0 0 0 0 0 0 0 0 0 0 0 0 0 0 127 0" result="hardAlpha"/>
<feOffset/>
<feGaussianBlur stdDeviation="0.497919"/>
<feComposite in2="hardAlpha" operator="out"/>
<feColorMatrix type="matrix" values="0 0 0 0 0 0 0 0 0 0 0 0 0 0 0 0 0 0 0.25 0"/>
<feBlend mode="normal" in2="BackgroundImageFix" result="effect1_dropShadow_1271_4340"/>
<feBlend mode="normal" in="SourceGraphic" in2="effect1_dropShadow_1271_4340" result="shape"/>
</filter>
<filter id="filter5_d_1271_4340" x="211.74" y="138.705" width="13.1948" height="50.2905" filterUnits="userSpaceOnUse" color-interpolation-filters="sRGB">
<feFlood flood-opacity="0" result="BackgroundImageFix"/>
<feColorMatrix in="SourceAlpha" type="matrix" values="0 0 0 0 0 0 0 0 0 0 0 0 0 0 0 0 0 0 127 0" result="hardAlpha"/>
<feOffset/>
<feGaussianBlur stdDeviation="0.497919"/>
<feComposite in2="hardAlpha" operator="out"/>
<feColorMatrix type="matrix" values="0 0 0 0 0 0 0 0 0 0 0 0 0 0 0 0 0 0 0.25 0"/>
<feBlend mode="normal" in2="BackgroundImageFix" result="effect1_dropShadow_1271_4340"/>
<feBlend mode="normal" in="SourceGraphic" in2="effect1_dropShadow_1271_4340" result="shape"/>
</filter>
<filter id="filter6_d_1271_4340" x="71.5755" y="138.705" width="13.1948" height="50.2905" filterUnits="userSpaceOnUse" color-interpolation-filters="sRGB">
<feFlood flood-opacity="0" result="BackgroundImageFix"/>
<feColorMatrix in="SourceAlpha" type="matrix" values="0 0 0 0 0 0 0 0 0 0 0 0 0 0 0 0 0 0 127 0" result="hardAlpha"/>
<feOffset/>
<feGaussianBlur stdDeviation="0.497919"/>
<feComposite in2="hardAlpha" operator="out"/>
<feColorMatrix type="matrix" values="0 0 0 0 0 0 0 0 0 0 0 0 0 0 0 0 0 0 0.25 0"/>
<feBlend mode="normal" in2="BackgroundImageFix" result="effect1_dropShadow_1271_4340"/>
<feBlend mode="normal" in="SourceGraphic" in2="effect1_dropShadow_1271_4340" result="shape"/>
</filter>
<filter id="filter7_d_1271_4340" x="226.428" y="157.875" width="13.1948" height="31.1206" filterUnits="userSpaceOnUse" color-interpolation-filters="sRGB">
<feFlood flood-opacity="0" result="BackgroundImageFix"/>
<feColorMatrix in="SourceAlpha" type="matrix" values="0 0 0 0 0 0 0 0 0 0 0 0 0 0 0 0 0 0 127 0" result="hardAlpha"/>
<feOffset/>
<feGaussianBlur stdDeviation="0.497919"/>
<feComposite in2="hardAlpha" operator="out"/>
<feColorMatrix type="matrix" values="0 0 0 0 0 0 0 0 0 0 0 0 0 0 0 0 0 0 0.25 0"/>
<feBlend mode="normal" in2="BackgroundImageFix" result="effect1_dropShadow_1271_4340"/>
<feBlend mode="normal" in="SourceGraphic" in2="effect1_dropShadow_1271_4340" result="shape"/>
</filter>
<filter id="filter8_d_1271_4340" x="86.2639" y="157.875" width="13.1948" height="31.1206" filterUnits="userSpaceOnUse" color-interpolation-filters="sRGB">
<feFlood flood-opacity="0" result="BackgroundImageFix"/>
<feColorMatrix in="SourceAlpha" type="matrix" values="0 0 0 0 0 0 0 0 0 0 0 0 0 0 0 0 0 0 127 0" result="hardAlpha"/>
<feOffset/>
<feGaussianBlur stdDeviation="0.497919"/>
<feComposite in2="hardAlpha" operator="out"/>
<feColorMatrix type="matrix" values="0 0 0 0 0 0 0 0 0 0 0 0 0 0 0 0 0 0 0.25 0"/>
<feBlend mode="normal" in2="BackgroundImageFix" result="effect1_dropShadow_1271_4340"/>
<feBlend mode="normal" in="SourceGraphic" in2="effect1_dropShadow_1271_4340" result="shape"/>
</filter>
<filter id="filter9_d_1271_4340" x="127.004" y="155.027" width="43.2163" height="24.9702" filterUnits="userSpaceOnUse" color-interpolation-filters="sRGB">
<feFlood flood-opacity="0" result="BackgroundImageFix"/>
<feColorMatrix in="SourceAlpha" type="matrix" values="0 0 0 0 0 0 0 0 0 0 0 0 0 0 0 0 0 0 127 0" result="hardAlpha"/>
<feOffset dy="0.995837"/>
<feGaussianBlur stdDeviation="0.497919"/>
<feComposite in2="hardAlpha" operator="out"/>
<feColorMatrix type="matrix" values="0 0 0 0 0 0 0 0 0 0 0 0 0 0 0 0 0 0 0.25 0"/>
<feBlend mode="normal" in2="BackgroundImageFix" result="effect1_dropShadow_1271_4340"/>
<feBlend mode="normal" in="SourceGraphic" in2="effect1_dropShadow_1271_4340" result="shape"/>
</filter>
<linearGradient id="paint0_linear_1271_4340" x1="134.237" y1="54.5586" x2="134.237" y2="72.2373" gradientUnits="userSpaceOnUse">
<stop stop-color="#F77F5A"/>
<stop offset="1" stop-color="#FFC291"/>
</linearGradient>
<linearGradient id="paint1_linear_1271_4340" x1="147.699" y1="54.5586" x2="147.699" y2="72.2373" gradientUnits="userSpaceOnUse">
<stop stop-color="#F77F5A"/>
<stop offset="1" stop-color="#FFC291"/>
</linearGradient>
<linearGradient id="paint2_linear_1271_4340" x1="161.162" y1="54.5586" x2="161.162" y2="72.2373" gradientUnits="userSpaceOnUse">
<stop stop-color="#F77F5A"/>
<stop offset="1" stop-color="#FFC291"/>
</linearGradient>
<linearGradient id="paint3_linear_1271_4340" x1="134.735" y1="116.799" x2="134.735" y2="134.478" gradientUnits="userSpaceOnUse">
<stop stop-color="#F77F5A"/>
<stop offset="1" stop-color="#FFC291"/>
</linearGradient>
<linearGradient id="paint4_linear_1271_4340" x1="148.197" y1="116.799" x2="148.197" y2="134.478" gradientUnits="userSpaceOnUse">
<stop stop-color="#F77F5A"/>
<stop offset="1" stop-color="#FFC291"/>
</linearGradient>
<linearGradient id="paint5_linear_1271_4340" x1="161.66" y1="116.799" x2="161.66" y2="134.478" gradientUnits="userSpaceOnUse">
<stop stop-color="#F77F5A"/>
<stop offset="1" stop-color="#FFC291"/>
</linearGradient>
<linearGradient id="paint6_linear_1271_4340" x1="172.826" y1="110.209" x2="172.826" y2="127.888" gradientUnits="userSpaceOnUse">
<stop stop-color="#F77F5A"/>
<stop offset="1" stop-color="#FFC291"/>
</linearGradient>
<linearGradient id="paint7_linear_1271_4340" x1="172.826" y1="96.7461" x2="172.826" y2="114.425" gradientUnits="userSpaceOnUse">
<stop stop-color="#F77F5A"/>
<stop offset="1" stop-color="#FFC291"/>
</linearGradient>
<linearGradient id="paint8_linear_1271_4340" x1="172.826" y1="83.2852" x2="172.826" y2="100.964" gradientUnits="userSpaceOnUse">
<stop stop-color="#F77F5A"/>
<stop offset="1" stop-color="#FFC291"/>
</linearGradient>
<linearGradient id="paint9_linear_1271_4340" x1="110.586" y1="110.209" x2="110.586" y2="127.888" gradientUnits="userSpaceOnUse">
<stop stop-color="#F77F5A"/>
<stop offset="1" stop-color="#FFC291"/>
</linearGradient>
<linearGradient id="paint10_linear_1271_4340" x1="110.586" y1="96.7461" x2="110.586" y2="114.425" gradientUnits="userSpaceOnUse">
<stop stop-color="#F77F5A"/>
<stop offset="1" stop-color="#FFC291"/>
</linearGradient>
<linearGradient id="paint11_linear_1271_4340" x1="110.586" y1="83.2852" x2="110.586" y2="100.964" gradientUnits="userSpaceOnUse">
<stop stop-color="#F77F5A"/>
<stop offset="1" stop-color="#FFC291"/>
</linearGradient>
<linearGradient id="paint12_linear_1271_4340" x1="148.255" y1="66.0625" x2="148.255" y2="122.859" gradientUnits="userSpaceOnUse">
<stop stop-color="#F77F5A"/>
<stop offset="1" stop-color="#FFC291"/>
</linearGradient>
<linearGradient id="paint13_linear_1271_4340" x1="148.255" y1="69.2461" x2="148.255" y2="119.372" gradientUnits="userSpaceOnUse">
<stop stop-color="#F77F5A"/>
<stop offset="1" stop-color="#FFC291"/>
</linearGradient>
<linearGradient id="paint14_linear_1271_4340" x1="148.504" y1="75.7188" x2="148.504" y2="113.313" gradientUnits="userSpaceOnUse">
<stop stop-color="#F77F5A"/>
<stop offset="1" stop-color="#FFC291"/>
</linearGradient>
<linearGradient id="paint15_linear_1271_4340" x1="148.594" y1="146.424" x2="148.594" y2="185.424" gradientUnits="userSpaceOnUse">
<stop stop-color="#F77F5A"/>
<stop offset="1" stop-color="#FFC291"/>
</linearGradient>
</defs>
</svg>
