<svg width="364" height="251" viewBox="0 0 364 251" fill="none" xmlns="http://www.w3.org/2000/svg">
<g filter="url(#filter0_d_1271_4326)">
<g filter="url(#filter1_d_1271_4326)">
<path d="M112.941 232.869C103.611 230.299 94.2478 227.813 84.9516 225.135C70.8328 221.069 58.7933 213.733 48.9269 203.257C44.3861 198.433 41.4685 192.671 39.5234 186.459C34.9625 169.97 33.7217 153.224 35.6467 136.292C37.1894 122.72 38.9535 109.173 40.7443 95.6321C41.2809 91.5789 42.2199 87.5771 42.9712 83.5496C46.9821 72.3472 52.3949 61.7485 59.5985 52.1841C63.2473 47.3472 68.1369 43.2683 72.899 39.3308C81.9069 31.8796 91.5251 25.2314 102.438 20.4395C115.423 14.7355 128.864 10.5025 142.869 7.72756C163.031 3.73219 183.462 4.66358 203.697 5.47936C223.47 6.27586 242.458 11.6908 260.608 19.6494C272.178 24.7239 282.353 31.5713 291.831 39.5235C295.727 42.793 300.06 45.8441 303.045 49.7881C307.854 56.1409 311.979 63.014 315.869 69.9384C318.284 74.2357 319.726 79.034 321.604 83.601C321.637 84.4168 321.564 85.2518 321.731 86.0419C322.496 89.5941 323.609 93.0948 324.092 96.6727C325.863 109.783 327.453 122.919 329.082 136.055C330.86 150.372 330.216 164.581 326.99 178.674C326.399 181.263 325.984 183.896 325.487 186.504L325.501 186.414C325.266 186.665 325.031 186.915 324.796 187.166C323.401 192.908 320.725 198.182 316.466 202.299C310.939 207.637 305.164 212.905 298.752 217.183C293.93 220.401 288.094 222.463 282.433 224.235C272.278 227.409 261.916 229.978 251.64 232.798C250.312 232.843 248.977 232.843 247.656 232.939C236.529 233.755 225.422 235.078 214.281 235.316C195.413 235.721 176.532 235.611 157.658 235.38C146.839 235.245 136.027 234.494 125.222 233.928C121.124 233.71 117.032 233.222 112.941 232.856L112.941 232.869ZM298.705 154.914C297.632 141.861 296.753 127.441 295.177 113.091C293.373 96.6791 286.478 82.4512 273.734 71.0368C258.556 57.4448 240.54 48.4585 220.955 42.6838C198.989 36.209 176.325 36.209 153.929 40.3264C132.292 44.3025 113.042 53.8156 95.8713 67.0222C82.497 77.3125 73.5428 90.3777 70.7324 106.745C69.23 115.487 68.5257 124.358 67.647 133.183C66.1379 148.343 65.8561 163.515 67.7811 178.668C68.2975 182.714 69.7731 186.067 73.12 188.977C84.3547 198.728 97.5814 205.036 111.539 210.136C129.152 216.579 147.557 219.065 166.284 220.015C190.504 221.242 214.563 220.388 238.139 214.607C257.818 209.783 276.129 202.049 291.622 189.022C294.54 186.568 296.438 183.716 296.733 179.978C297.364 172.097 297.974 164.209 298.705 154.907L298.705 154.914Z" fill="white"/>
</g>
<g filter="url(#filter2_d_1271_4326)">
<path d="M35.1673 89.9758H33.3379L33.3379 90.464H26.9268C26.0995 90.464 25.4168 90.4847 24.6642 90.5075C24.1758 90.5223 23.658 90.538 23.052 90.5495C22.3914 90.5621 21.6779 90.567 20.9283 90.5441C21.056 91.4565 21.2092 92.6817 21.2177 93.9436C21.2177 93.9454 21.2177 93.9471 21.2177 93.9489L14.8068 93.99C14.8499 99.3398 14.8246 104.69 14.7993 110.039C14.7891 112.179 14.779 114.319 14.7732 116.459L35.1673 89.9758ZM35.1673 89.9758C34.8682 91.5785 34.5918 93.2046 34.3815 94.793L34.381 94.7969C32.5972 108.334 30.8194 121.934 29.2695 135.57C27.5568 150.635 28.237 165.585 31.4146 180.349C28.2428 180.468 25.1003 180.576 21.9392 180.639C21.8673 174.856 21.8675 169.097 21.8676 163.291C21.8677 161.022 21.8678 158.746 21.8635 156.459C21.8694 156.438 21.8751 156.419 21.8805 156.399C22.0113 155.939 22.2909 154.911 22.2771 153.657L22.277 153.65L22.2769 153.642C22.1226 142.14 21.9548 130.629 21.7398 119.114L21.7397 119.104L21.7394 119.095C21.7141 117.931 21.4925 116.933 21.3468 116.333C21.2715 116.023 21.2223 115.832 21.1865 115.697L35.1673 89.9758ZM20.6483 87.706C20.6484 87.7061 20.648 87.7099 20.6469 87.7172C20.6477 87.7096 20.6483 87.7059 20.6483 87.706Z" stroke="white" stroke-width="12.8221" shape-rendering="crispEdges"/>
</g>
<g filter="url(#filter3_d_1271_4326)">
<path d="M333.183 180.354C336.324 180.454 339.472 180.558 342.616 180.673C342.594 174.683 342.803 168.643 343.006 162.747C343.077 160.679 343.148 158.629 343.208 156.605C342.998 156.012 342.684 154.948 342.699 153.664L342.699 153.655L342.699 153.647C342.835 143.949 343 134.245 343.164 124.554C343.211 121.8 343.257 119.048 343.303 116.297L343.309 115.934L343.356 115.574C343.497 114.499 343.608 113.87 343.688 113.417C343.785 112.868 343.837 112.577 343.839 112.064L343.839 112.052C343.886 104.889 343.882 97.7165 343.866 90.53C342.989 90.566 342.161 90.5605 341.411 90.5441C340.718 90.5289 340.159 90.5086 339.648 90.49C338.93 90.4639 338.306 90.4412 337.54 90.4412H331.129L331.129 90.0173H329.29C329.723 91.7894 330.167 93.7583 330.445 95.8202L333.183 180.354ZM333.183 180.354C333.2 180.276 333.218 180.198 333.236 180.12L333.239 180.109C336.636 165.261 337.311 150.3 335.444 135.27L333.183 180.354ZM334.555 128.087C334.851 130.484 335.147 132.878 335.444 135.27L334.555 128.087ZM334.555 128.087C333.229 117.354 331.898 106.579 330.445 95.8204L334.555 128.087ZM343.849 87.1387C343.849 87.1386 343.849 87.1415 343.85 87.1475C343.849 87.1417 343.849 87.1387 343.849 87.1387ZM343.781 180.629C343.781 180.629 343.779 180.629 343.775 180.63C343.779 180.629 343.781 180.629 343.781 180.629Z" stroke="white" stroke-width="12.8221" shape-rendering="crispEdges"/>
</g>
<path d="M119.314 239.918C121.161 240.088 123.038 240.241 124.88 240.339L124.883 240.339C127.252 240.465 129.64 240.6 132.041 240.736C140.451 241.212 149.028 241.698 157.579 241.799L119.314 239.918ZM119.314 239.918C119.29 241.098 119.246 242.294 119.162 243.463C161.337 243.501 203.506 243.52 245.683 243.533C245.672 242.218 245.623 240.899 245.558 239.539C243.028 239.741 240.453 239.967 237.849 240.195C230.16 240.87 222.217 241.568 214.417 241.734L214.415 241.734C195.441 242.135 176.477 242.031 157.581 241.799L119.314 239.918ZM246.694 243.42C246.694 243.42 246.69 243.425 246.679 243.435C246.688 243.425 246.693 243.421 246.694 243.42ZM119.023 246.04C119.023 246.04 119.023 246.039 119.023 246.039L119.023 246.04Z" stroke="white" stroke-width="12.8221"/>
<path d="M37.6517 38.0241C34.0767 37.9855 30.495 37.9534 26.9201 37.9149C23.9354 36.399 20.6823 35.217 18.0129 33.29C12.5465 29.346 11.3794 18.4583 13.3447 12.0606C17.4764 -1.3515 37.9603 -3.34276 46.8541 5.07835C52.2266 10.1657 53.2595 16.7818 51.9784 23.732C50.543 31.5364 45.2644 35.8722 37.6517 38.0241Z" fill="white"/>
<path d="M337.54 41.2538C334.186 41.0804 330.833 40.9005 327.479 40.7271C315.158 38.4982 311.503 25.3559 314.42 15.6693C318.767 1.24233 339.834 -0.32499 348.607 8.87335C354.389 14.9371 354.805 22.446 352.343 29.9165C350.13 36.629 344.73 40.1683 337.547 41.2538H337.54Z" fill="white"/>
<path d="M14.7742 116.45C14.9687 117.375 15.3175 118.293 15.3309 119.225C15.5455 130.723 15.7198 142.221 15.8674 153.718C15.8741 154.329 15.5991 154.945 15.4515 155.556C7.6577 153.384 2.58032 147.115 1.46023 139.041C0.548055 132.463 1.64135 126.425 6.36998 121.582C8.56996 119.334 11.9303 118.126 14.7608 116.443L14.7742 116.45Z" fill="white"/>
<path d="M349.647 155.494C349.459 154.903 349.097 154.318 349.104 153.727C349.278 141.285 349.499 128.837 349.707 116.395C358.93 119.015 363.678 126.203 363.571 135.421C363.464 144.638 357.85 153.458 349.647 155.494Z" fill="white"/>
<g filter="url(#filter4_d_1271_4326)">
<path d="M120.352 105.497C131.225 105.619 139.91 113.983 139.723 124.138C139.535 134.056 130.762 142.226 120.379 142.143C109.828 142.059 101.169 133.555 101.404 123.508C101.632 113.648 110.331 105.388 120.352 105.497Z" fill="white"/>
</g>
<g filter="url(#filter5_d_1271_4326)">
<path d="M263.202 123.937C263.202 133.99 254.758 142.097 244.261 142.129C233.865 142.161 225.192 133.964 225.105 124.021C225.011 113.686 233.778 105.464 244.865 105.477C254.845 105.489 263.209 113.904 263.209 123.931L263.202 123.937Z" fill="white"/>
</g>
<g filter="url(#filter6_d_1271_4326)">
<path d="M182.387 182.194C174.083 181.051 165.887 179.971 158.865 175.25C155.524 173.002 152.674 170.317 151.554 166.379C150.621 163.11 152.03 159.93 154.974 158.485C157.885 157.059 161.36 157.586 163.285 160.425C166.062 164.523 170.146 166.418 174.768 166.707C180.496 167.06 186.317 166.835 192.032 166.277C195.855 165.904 199.048 163.906 201.322 160.605C203.361 157.644 206.801 157.02 209.887 158.549C212.811 160.001 214.293 163.63 213.1 166.848C211.564 170.972 208.404 173.818 204.628 176.053C197.794 180.106 190.06 181.173 182.38 182.194H182.387Z" fill="white"/>
</g>
</g>
<defs>
<filter id="filter0_d_1271_4326" x="0.953517" y="0.0351562" width="362.832" height="250.39" filterUnits="userSpaceOnUse" color-interpolation-filters="sRGB">
<feFlood flood-opacity="0" result="BackgroundImageFix"/>
<feColorMatrix in="SourceAlpha" type="matrix" values="0 0 0 0 0 0 0 0 0 0 0 0 0 0 0 0 0 0 127 0" result="hardAlpha"/>
<feOffset dy="0.212499"/>
<feGaussianBlur stdDeviation="0.106249"/>
<feComposite in2="hardAlpha" operator="out"/>
<feColorMatrix type="matrix" values="0 0 0 0 0 0 0 0 0 0 0 0 0 0 0 0 0 0 0.25 0"/>
<feBlend mode="normal" in2="BackgroundImageFix" result="effect1_dropShadow_1271_4326"/>
<feBlend mode="normal" in="SourceGraphic" in2="effect1_dropShadow_1271_4326" result="shape"/>
</filter>
<filter id="filter1_d_1271_4326" x="30.4994" y="4.76367" width="303.827" height="239.37" filterUnits="userSpaceOnUse" color-interpolation-filters="sRGB">
<feFlood flood-opacity="0" result="BackgroundImageFix"/>
<feColorMatrix in="SourceAlpha" type="matrix" values="0 0 0 0 0 0 0 0 0 0 0 0 0 0 0 0 0 0 127 0" result="hardAlpha"/>
<feOffset dy="4.27403"/>
<feGaussianBlur stdDeviation="2.13701"/>
<feComposite in2="hardAlpha" operator="out"/>
<feColorMatrix type="matrix" values="0 0 0 0 0 0 0 0 0 0 0 0 0 0 0 0 0 0 0.25 0"/>
<feBlend mode="normal" in2="BackgroundImageFix" result="effect1_dropShadow_1271_4326"/>
<feBlend mode="normal" in="SourceGraphic" in2="effect1_dropShadow_1271_4326" result="shape"/>
</filter>
<filter id="filter2_d_1271_4326" x="9.95351" y="37.9199" width="37.2912" height="157.687" filterUnits="userSpaceOnUse" color-interpolation-filters="sRGB">
<feFlood flood-opacity="0" result="BackgroundImageFix"/>
<feColorMatrix in="SourceAlpha" type="matrix" values="0 0 0 0 0 0 0 0 0 0 0 0 0 0 0 0 0 0 127 0" result="hardAlpha"/>
<feOffset dy="4.27403"/>
<feGaussianBlur stdDeviation="2.13701"/>
<feComposite in2="hardAlpha" operator="out"/>
<feColorMatrix type="matrix" values="0 0 0 0 0 0 0 0 0 0 0 0 0 0 0 0 0 0 0.25 0"/>
<feBlend mode="normal" in2="BackgroundImageFix" result="effect1_dropShadow_1271_4326"/>
<feBlend mode="normal" in="SourceGraphic" in2="effect1_dropShadow_1271_4326" result="shape"/>
</filter>
<filter id="filter3_d_1271_4326" x="317.329" y="40.7363" width="37.2326" height="154.913" filterUnits="userSpaceOnUse" color-interpolation-filters="sRGB">
<feFlood flood-opacity="0" result="BackgroundImageFix"/>
<feColorMatrix in="SourceAlpha" type="matrix" values="0 0 0 0 0 0 0 0 0 0 0 0 0 0 0 0 0 0 127 0" result="hardAlpha"/>
<feOffset dy="4.27403"/>
<feGaussianBlur stdDeviation="2.13701"/>
<feComposite in2="hardAlpha" operator="out"/>
<feColorMatrix type="matrix" values="0 0 0 0 0 0 0 0 0 0 0 0 0 0 0 0 0 0 0.25 0"/>
<feBlend mode="normal" in2="BackgroundImageFix" result="effect1_dropShadow_1271_4326"/>
<feBlend mode="normal" in="SourceGraphic" in2="effect1_dropShadow_1271_4326" result="shape"/>
</filter>
<filter id="filter4_d_1271_4326" x="97.1254" y="105.496" width="46.8742" height="45.1945" filterUnits="userSpaceOnUse" color-interpolation-filters="sRGB">
<feFlood flood-opacity="0" result="BackgroundImageFix"/>
<feColorMatrix in="SourceAlpha" type="matrix" values="0 0 0 0 0 0 0 0 0 0 0 0 0 0 0 0 0 0 127 0" result="hardAlpha"/>
<feOffset dy="4.27403"/>
<feGaussianBlur stdDeviation="2.13701"/>
<feComposite in2="hardAlpha" operator="out"/>
<feColorMatrix type="matrix" values="0 0 0 0 0 0 0 0 0 0 0 0 0 0 0 0 0 0 0.25 0"/>
<feBlend mode="normal" in2="BackgroundImageFix" result="effect1_dropShadow_1271_4326"/>
<feBlend mode="normal" in="SourceGraphic" in2="effect1_dropShadow_1271_4326" result="shape"/>
</filter>
<filter id="filter5_d_1271_4326" x="220.83" y="105.477" width="46.6525" height="45.2004" filterUnits="userSpaceOnUse" color-interpolation-filters="sRGB">
<feFlood flood-opacity="0" result="BackgroundImageFix"/>
<feColorMatrix in="SourceAlpha" type="matrix" values="0 0 0 0 0 0 0 0 0 0 0 0 0 0 0 0 0 0 127 0" result="hardAlpha"/>
<feOffset dy="4.27403"/>
<feGaussianBlur stdDeviation="2.13701"/>
<feComposite in2="hardAlpha" operator="out"/>
<feColorMatrix type="matrix" values="0 0 0 0 0 0 0 0 0 0 0 0 0 0 0 0 0 0 0.25 0"/>
<feBlend mode="normal" in2="BackgroundImageFix" result="effect1_dropShadow_1271_4326"/>
<feBlend mode="normal" in="SourceGraphic" in2="effect1_dropShadow_1271_4326" result="shape"/>
</filter>
<filter id="filter6_d_1271_4326" x="146.995" y="157.721" width="70.7932" height="33.0207" filterUnits="userSpaceOnUse" color-interpolation-filters="sRGB">
<feFlood flood-opacity="0" result="BackgroundImageFix"/>
<feColorMatrix in="SourceAlpha" type="matrix" values="0 0 0 0 0 0 0 0 0 0 0 0 0 0 0 0 0 0 127 0" result="hardAlpha"/>
<feOffset dy="4.27403"/>
<feGaussianBlur stdDeviation="2.13701"/>
<feComposite in2="hardAlpha" operator="out"/>
<feColorMatrix type="matrix" values="0 0 0 0 0 0 0 0 0 0 0 0 0 0 0 0 0 0 0.25 0"/>
<feBlend mode="normal" in2="BackgroundImageFix" result="effect1_dropShadow_1271_4326"/>
<feBlend mode="normal" in="SourceGraphic" in2="effect1_dropShadow_1271_4326" result="shape"/>
</filter>
</defs>
</svg>
