
<svg width="188" height="230" viewBox="0 0 188 230" fill="none" xmlns="http://www.w3.org/2000/svg">
<path fill-rule="evenodd" clip-rule="evenodd" d="M101.506 67.0495C98.4507 72.7141 90.3244 72.714 87.2691 67.0495L53.3961 4.24842C51.9846 1.63146 49.251 0 46.2776 0H10.7351C4.48241 0 0.594559 6.79187 3.76089 12.1836L61.1678 109.938C62.6585 112.476 62.6523 115.624 61.1513 118.157L2.10535 217.789C-1.08983 223.18 2.79605 230 9.06315 230H45.0352C47.9972 230 50.7224 228.381 52.1387 225.779L87.2841 161.221C90.3478 155.594 98.4273 155.594 101.491 161.221L136.636 225.779C138.053 228.381 140.778 230 143.74 230H179.413C185.676 230 189.562 223.187 186.375 217.796L127.456 118.15C125.961 115.621 125.954 112.48 127.44 109.945L184.719 12.1764C187.878 6.78461 183.99 0 177.741 0H142.498C139.524 0 136.791 1.63146 135.379 4.24842L101.506 67.0495Z" fill="url(#paint0_linear_315_226)"/>
<defs>
<linearGradient id="paint0_linear_315_226" x1="94.2379" y1="0" x2="94.2379" y2="230" gradientUnits="userSpaceOnUse">
<stop stop-color="white" stop-opacity="0.49"/>
<stop offset="1" stop-color="white" stop-opacity="0"/>
</linearGradient>
</defs>
</svg>