<svg width="582" height="564" viewBox="0 0 582 564" fill="none" xmlns="http://www.w3.org/2000/svg">
<g style="mix-blend-mode:screen" opacity="0.5">
<path fill-rule="evenodd" clip-rule="evenodd" d="M581.881 6.1138H429.232L382.462 52.8844H455.701C457.065 47.4396 461.991 43.4073 467.859 43.4073C474.781 43.4073 480.392 49.0186 480.392 55.9406C480.392 62.8625 474.781 68.4739 467.859 68.4739C461.992 68.4739 457.066 64.4423 455.701 58.9982H375.082H299.314L330.953 90.6371H430.598C431.908 85.1152 436.871 81.0073 442.793 81.0073C449.715 81.0073 455.327 86.6186 455.327 93.5406C455.327 100.463 449.715 106.074 442.793 106.074C436.981 106.074 432.093 102.118 430.675 96.7509H329.687H328.421L327.525 95.8556L290.668 58.9982H251.779L185.597 125.18H279.518C280.714 119.505 285.75 115.245 291.781 115.245C298.703 115.245 304.315 120.857 304.315 127.779C304.315 134.701 298.703 140.312 291.781 140.312C286.08 140.312 281.268 136.505 279.748 131.294H178.217H81.5098L146.705 196.489C148.684 195.18 151.057 194.418 153.608 194.418C160.53 194.418 166.141 200.03 166.141 206.952C166.141 213.874 160.53 219.485 153.608 219.485C146.686 219.485 141.074 213.874 141.074 206.952C141.074 204.799 141.617 202.773 142.573 201.003L72.8636 131.294H1.22266V125.18H74.1298H176.951L248.352 53.7797L249.247 52.8844H250.513H291.934H373.816L425.805 0.895346L426.7 0H427.966H581.881V6.1138ZM580.353 557.886H427.704L380.933 511.115H453.524C455.186 516.089 459.882 519.674 465.415 519.674C472.336 519.674 477.948 514.063 477.948 507.141C477.948 500.219 472.336 494.608 465.415 494.608C459.222 494.608 454.078 499.098 453.063 505.001H373.553H297.786L329.425 473.362H428.046C429.264 479.032 434.316 483.273 440.347 483.25C447.269 483.223 452.859 477.591 452.833 470.669C452.806 463.747 447.174 458.157 440.252 458.183C434.55 458.205 429.751 462.031 428.252 467.248H328.158H326.892L325.997 468.144L289.139 505.001H250.251L184.069 438.819H276.912C278.33 444.186 283.218 448.142 289.03 448.142C295.952 448.142 301.563 442.53 301.563 435.608C301.563 428.686 295.952 423.075 289.03 423.075C283.107 423.075 278.144 427.183 276.834 432.705H176.689H79.9814L147.67 365.017L143.347 360.694L71.3352 432.705H0V438.819H72.6014H175.423L246.823 510.22L247.718 511.115H248.985H290.406H372.287L424.276 563.104L425.172 563.999H426.438H580.353V557.886ZM147.188 206.952C147.188 203.406 150.062 200.532 153.608 200.532C157.153 200.532 160.027 203.406 160.027 206.952C160.027 210.497 157.153 213.371 153.608 213.371C150.062 213.371 147.188 210.497 147.188 206.952ZM442.793 87.1211C439.248 87.1211 436.374 89.9952 436.374 93.5406C436.374 97.086 439.248 99.9601 442.793 99.9601C446.339 99.9601 449.213 97.086 449.213 93.5406C449.213 89.9952 446.339 87.1211 442.793 87.1211ZM461.439 55.9406C461.439 52.3952 464.313 49.5211 467.859 49.5211C471.404 49.5211 474.278 52.3952 474.278 55.9406C474.278 59.486 471.404 62.3601 467.859 62.3601C464.313 62.3601 461.439 59.486 461.439 55.9406ZM196.842 193.939L113.52 277.262H11.9214V283.376H113.52L187.672 357.527L188.567 358.422H189.833H260.251L320.035 418.207L320.931 419.102H322.197H419.629C420.994 424.546 425.919 428.578 431.787 428.578C438.709 428.578 444.32 422.967 444.32 416.045C444.32 409.123 438.709 403.512 431.787 403.512C425.919 403.512 420.993 407.544 419.629 412.988H323.463L268.897 358.422H432.245V352.309H261.517H191.099L122.166 283.376H456.395V277.262H122.166L200.27 199.158H230.261H260.251L301.388 240.295L302.284 241.19H303.55H377.001C378.139 246.941 383.211 251.278 389.296 251.278C396.218 251.278 401.829 245.666 401.829 238.744C401.829 231.823 396.218 226.211 389.296 226.211C383.65 226.211 378.876 229.944 377.308 235.076H304.816L268.897 199.158H289.958C291.827 203.73 296.32 206.952 301.565 206.952C308.487 206.952 314.098 201.341 314.098 194.419C314.098 187.497 308.487 181.885 301.565 181.885C295.107 181.885 289.79 186.769 289.106 193.044H261.517H237.641L272.566 158.119H429.43C430.822 163.524 435.728 167.518 441.568 167.518C448.49 167.518 454.101 161.906 454.101 154.984C454.101 148.062 448.49 142.451 441.568 142.451C435.673 142.451 430.728 146.521 429.391 152.005H271.3H270.033L269.138 152.9L228.994 193.044H199.004H197.738L196.842 193.939ZM425.367 416.045C425.367 412.499 428.241 409.625 431.787 409.625C435.332 409.625 438.206 412.499 438.206 416.045C438.206 419.59 435.332 422.464 431.787 422.464C428.241 422.464 425.367 419.59 425.367 416.045ZM440.275 464.297C436.73 464.311 433.866 467.196 433.88 470.741C433.893 474.286 436.778 477.149 440.324 477.136C443.869 477.123 446.732 474.238 446.719 470.692C446.705 467.147 443.82 464.284 440.275 464.297ZM458.995 507.141C458.995 503.595 461.869 500.721 465.415 500.721C468.96 500.721 471.834 503.595 471.834 507.141C471.834 510.686 468.96 513.56 465.415 513.56C461.869 513.56 458.995 510.686 458.995 507.141ZM289.03 429.189C285.485 429.189 282.61 432.063 282.61 435.608C282.61 439.154 285.485 442.028 289.03 442.028C292.575 442.028 295.449 439.154 295.449 435.608C295.449 432.063 292.575 429.189 289.03 429.189ZM382.876 238.744C382.876 235.199 385.751 232.325 389.296 232.325C392.841 232.325 395.715 235.199 395.715 238.744C395.715 242.29 392.841 245.164 389.296 245.164C385.751 245.164 382.876 242.29 382.876 238.744ZM301.565 187.999C298.019 187.999 295.145 190.873 295.145 194.419C295.145 197.964 298.019 200.838 301.565 200.838C305.11 200.838 307.984 197.964 307.984 194.419C307.984 190.873 305.11 187.999 301.565 187.999ZM285.362 127.779C285.362 124.233 288.236 121.359 291.781 121.359C295.327 121.359 298.201 124.233 298.201 127.779C298.201 131.324 295.327 134.198 291.781 134.198C288.236 134.198 285.362 131.324 285.362 127.779ZM441.568 148.565C438.023 148.565 435.149 151.439 435.149 154.984C435.149 158.53 438.023 161.404 441.568 161.404C445.113 161.404 447.988 158.53 447.988 154.984C447.988 151.439 445.113 148.565 441.568 148.565Z" fill="url(#paint0_linear_2311_897)"/>
</g>
<defs>
<linearGradient id="paint0_linear_2311_897" x1="-0.118652" y1="282" x2="759.381" y2="274.5" gradientUnits="userSpaceOnUse">
<stop stop-color="#FD874E"/>
<stop offset="1" stop-color="#97512F" stop-opacity="0"/>
</linearGradient>
</defs>
</svg>
