<svg width="582" height="564" viewBox="0 0 582 564" fill="none" xmlns="http://www.w3.org/2000/svg">
<g style="mix-blend-mode:screen" opacity="0.5">
<path fill-rule="evenodd" clip-rule="evenodd" d="M-0.000427246 6.1138H152.648L199.419 52.8844H126.18C124.816 47.4396 119.89 43.4072 114.022 43.4072C107.1 43.4072 101.489 49.0186 101.489 55.9405C101.489 62.8625 107.1 68.4738 114.022 68.4738C119.889 68.4738 124.815 64.4422 126.18 58.9982H206.799H282.567L250.928 90.6371H151.283C149.973 85.1152 145.01 81.0073 139.088 81.0073C132.166 81.0073 126.554 86.6186 126.554 93.5406C126.554 100.463 132.166 106.074 139.088 106.074C144.9 106.074 149.788 102.118 151.206 96.7509H252.194H253.46L254.356 95.8556L291.213 58.9982H330.102L396.284 125.18H302.363C301.167 119.505 296.13 115.245 290.099 115.245C283.177 115.245 277.566 120.857 277.566 127.779C277.566 134.701 283.177 140.312 290.099 140.312C295.801 140.312 300.613 136.505 302.133 131.294H403.664H500.371L435.176 196.489C433.196 195.18 430.824 194.418 428.273 194.418C421.351 194.418 415.74 200.03 415.74 206.952C415.74 213.874 421.351 219.485 428.273 219.485C435.195 219.485 440.806 213.874 440.806 206.952C440.806 204.799 440.264 202.773 439.308 201.003L509.017 131.294H580.658V125.18H507.751H404.93L333.529 53.7797L332.634 52.8844H331.368H289.947H208.065L156.076 0.895346L155.181 0H153.915H-0.000427246V6.1138ZM1.52802 557.886H154.177L200.947 511.115H128.356C126.695 516.089 121.999 519.674 116.466 519.674C109.544 519.674 103.933 514.063 103.933 507.141C103.933 500.219 109.544 494.607 116.466 494.607C122.659 494.607 127.802 499.098 128.818 505.001H208.327H284.095L252.456 473.362H153.835C152.617 479.032 147.565 483.273 141.534 483.25C134.612 483.223 129.022 477.591 129.048 470.669C129.075 463.747 134.707 458.157 141.629 458.183C147.331 458.205 152.129 462.031 153.629 467.248H253.722H254.989L255.884 468.144L292.741 505.001H331.63L397.812 438.819H304.969C303.551 444.185 298.663 448.141 292.851 448.141C285.929 448.141 280.318 442.53 280.318 435.608C280.318 428.686 285.929 423.075 292.851 423.075C298.774 423.075 303.737 427.183 305.046 432.705H405.192H501.899L434.211 365.017L438.534 360.694L510.546 432.705H581.881V438.819H509.279H406.458L335.058 510.22L334.162 511.115H332.896H291.475H209.594L157.605 563.104L156.709 563.999H155.443H1.52802V557.886ZM434.693 206.952C434.693 203.406 431.819 200.532 428.273 200.532C424.728 200.532 421.854 203.406 421.854 206.952C421.854 210.497 424.728 213.371 428.273 213.371C431.819 213.371 434.693 210.497 434.693 206.952ZM139.088 87.1211C142.633 87.1211 145.507 89.9952 145.507 93.5406C145.507 97.086 142.633 99.9601 139.088 99.9601C135.542 99.9601 132.668 97.086 132.668 93.5406C132.668 89.9952 135.542 87.1211 139.088 87.1211ZM120.442 55.9405C120.442 52.3951 117.567 49.521 114.022 49.521C110.477 49.521 107.603 52.3951 107.603 55.9405C107.603 59.4859 110.477 62.36 114.022 62.36C117.567 62.36 120.442 59.4859 120.442 55.9405ZM385.039 193.939L468.361 277.262H569.96V283.376H468.361L394.209 357.527L393.314 358.422H392.048H321.63L261.845 418.207L260.95 419.102H259.684H162.252C160.887 424.546 155.961 428.578 150.094 428.578C143.172 428.578 137.561 422.967 137.561 416.045C137.561 409.123 143.172 403.512 150.094 403.512C155.962 403.512 160.887 407.544 162.252 412.988H258.418L312.983 358.422H149.635V352.309H320.363H390.782L459.715 283.376H125.486V277.262H459.715L381.611 199.158H351.62H321.63L280.493 240.295L279.597 241.19H278.331H204.88C203.742 246.941 198.67 251.278 192.585 251.278C185.663 251.278 180.052 245.666 180.052 238.744C180.052 231.823 185.663 226.211 192.585 226.211C198.231 226.211 203.004 229.944 204.573 235.076H277.065L312.983 199.158H291.923C290.054 203.73 285.561 206.952 280.316 206.952C273.394 206.952 267.783 201.341 267.783 194.419C267.783 187.497 273.394 181.885 280.316 181.885C286.774 181.885 292.09 186.769 292.775 193.044H320.363H344.24L309.315 158.119H152.451C151.059 163.524 146.152 167.518 140.313 167.518C133.391 167.518 127.78 161.906 127.78 154.984C127.78 148.062 133.391 142.451 140.313 142.451C146.208 142.451 151.153 146.521 152.49 152.005H310.581H311.848L312.743 152.9L352.886 193.044H382.877H384.143L385.039 193.939ZM156.513 416.045C156.513 412.499 153.639 409.625 150.094 409.625C146.549 409.625 143.674 412.499 143.674 416.045C143.674 419.59 146.549 422.464 150.094 422.464C153.639 422.464 156.513 419.59 156.513 416.045ZM141.606 464.297C145.151 464.311 148.014 467.196 148.001 470.741C147.988 474.286 145.103 477.149 141.557 477.136C138.012 477.123 135.149 474.238 135.162 470.692C135.176 467.147 138.061 464.284 141.606 464.297ZM122.886 507.141C122.886 503.595 120.012 500.721 116.466 500.721C112.921 500.721 110.047 503.595 110.047 507.141C110.047 510.686 112.921 513.56 116.466 513.56C120.012 513.56 122.886 510.686 122.886 507.141ZM292.851 429.189C296.396 429.189 299.27 432.063 299.27 435.608C299.27 439.154 296.396 442.028 292.851 442.028C289.306 442.028 286.431 439.154 286.431 435.608C286.431 432.063 289.306 429.189 292.851 429.189ZM199.004 238.744C199.004 235.199 196.13 232.325 192.585 232.325C189.039 232.325 186.165 235.199 186.165 238.744C186.165 242.29 189.039 245.164 192.585 245.164C196.13 245.164 199.004 242.29 199.004 238.744ZM280.316 187.999C283.862 187.999 286.736 190.873 286.736 194.419C286.736 197.964 283.862 200.838 280.316 200.838C276.771 200.838 273.897 197.964 273.897 194.419C273.897 190.873 276.771 187.999 280.316 187.999ZM296.519 127.779C296.519 124.233 293.645 121.359 290.099 121.359C286.554 121.359 283.68 124.233 283.68 127.779C283.68 131.324 286.554 134.198 290.099 134.198C293.645 134.198 296.519 131.324 296.519 127.779ZM140.313 148.565C143.858 148.565 146.732 151.439 146.732 154.984C146.732 158.53 143.858 161.404 140.313 161.404C136.767 161.404 133.893 158.53 133.893 154.984C133.893 151.439 136.767 148.565 140.313 148.565Z" fill="url(#paint0_linear_2311_882)"/>
</g>
<defs>
<linearGradient id="paint0_linear_2311_882" x1="582" y1="282" x2="-177.5" y2="274.5" gradientUnits="userSpaceOnUse">
<stop stop-color="#FD874E"/>
<stop offset="1" stop-color="#97512F" stop-opacity="0"/>
</linearGradient>
</defs>
</svg>
