<svg width="217" height="298" viewBox="0 0 217 298" fill="none" xmlns="http://www.w3.org/2000/svg">
<g filter="url(#filter0_d_777_730)">
<path d="M3.08093 43.7105C20.1578 46.3771 38.0428 48.1818 56.7897 49.0168C57.7054 49.0706 58.6212 49.0706 59.564 49.0437C72.843 48.8013 83.4824 42.8217 83.3477 35.6838C83.3208 33.9061 82.6205 32.29 81.3815 30.7816C79.0381 27.8996 77.7722 24.5866 77.7722 20.9773C77.7722 9.82611 90.4856 0.775879 106.189 0.775879C121.892 0.775879 134.605 9.82611 134.605 20.9773C134.605 24.5596 133.339 27.8996 130.996 30.7816C129.757 32.317 129.057 33.9061 129.03 35.6838C128.895 42.8217 139.535 48.8013 152.814 49.0437C153.756 49.0437 154.457 49.0437 155.372 49.0437C174.227 48.2356 192.3 46.5118 209.297 43.7105C211.963 60.6797 213.768 78.6724 214.576 97.4192C214.603 98.335 214.63 99.2509 214.603 100.194C214.36 113.473 208.381 124.112 201.243 123.977C199.465 123.95 197.849 123.25 196.341 122.011C193.459 119.641 190.146 118.402 186.563 118.402C175.412 118.402 166.389 131.115 166.389 146.818C166.389 162.522 175.412 175.235 186.563 175.235C190.146 175.235 193.459 173.969 196.341 171.626C197.876 170.387 199.465 169.686 201.243 169.659C208.381 169.525 214.36 180.164 214.603 193.443C214.603 194.386 214.603 195.086 214.603 195.975C213.795 214.83 212.098 232.903 209.297 249.926C192.3 247.125 174.254 245.266 155.399 244.431C154.484 244.404 153.783 244.404 152.84 244.431C139.561 244.674 128.922 250.653 129.057 257.791C129.084 259.569 129.784 261.185 131.023 262.693C133.366 265.576 134.632 268.889 134.632 272.498C134.632 283.649 121.919 292.699 106.216 292.699C90.5125 292.699 77.7991 283.649 77.7991 272.498C77.7991 268.915 79.065 265.576 81.4084 262.693C82.6474 261.158 83.3477 259.569 83.3747 257.791C83.5093 250.653 72.8699 244.674 59.5909 244.431C58.6482 244.431 57.7324 244.431 56.8166 244.458C38.0697 245.266 20.077 247.26 3.00012 249.926L3.10786 43.7914L3.08093 43.7105Z" fill="url(#paint0_linear_777_730)"/>
<path d="M3.78092 44.4099C20.7231 47.0495 38.5004 48.8542 57.1126 49.6622C58.0014 49.6891 58.9441 49.7161 59.8599 49.6892C73.0312 49.4468 84.1285 43.3055 84.0208 36.2216C84.0208 34.1476 83.3743 32.4237 82.1623 30.8884C79.8997 27.9525 78.5529 24.8549 78.5529 21.2726C78.5529 10.3907 90.566 1.60989 106.161 1.60989C121.757 1.60989 133.77 10.3907 133.77 21.2726C133.77 24.8549 132.45 27.9255 130.188 30.8615C129.003 32.3968 128.329 34.2284 128.302 36.2216C128.194 43.3055 139.292 49.4467 152.463 49.7161C153.406 49.7161 154.079 49.7161 154.995 49.7161C173.715 48.9081 191.681 47.1842 208.542 44.4099C211.182 61.2713 212.986 78.3212 213.794 97.1759C213.821 98.0917 213.848 99.0074 213.821 99.9502C213.579 113.283 207.949 123.411 201.243 123.303C199.465 123.276 197.633 122.468 196.125 121.175C193.243 118.751 189.553 117.674 185.97 117.674C174.9 117.674 165.634 131.006 165.634 146.79C165.634 162.574 174.9 175.934 185.97 175.934C189.526 175.934 193.351 174.776 196.206 172.352C197.714 171.059 199.276 170.305 201.054 170.278C207.761 170.17 213.579 179.948 213.821 193.119C213.821 194.035 213.821 194.735 213.821 195.651C213.013 214.398 211.316 232.337 208.569 249.225C191.681 246.451 173.742 244.592 155.022 243.757C154.106 243.73 153.433 243.73 152.49 243.757C139.319 243.999 128.491 250.114 128.383 257.171C128.356 259.11 128.868 260.807 130.215 262.531C132.504 265.413 133.824 268.618 133.824 272.201C133.824 283.002 121.811 291.863 106.215 291.863C90.6199 291.863 78.6068 283.002 78.6068 272.201C78.6068 268.618 79.8997 265.44 82.1892 262.558C83.509 260.888 84.0208 259.029 84.0208 257.198C83.9939 250.141 73.0851 244.026 59.9138 243.784C58.998 243.784 58.0553 243.784 57.1664 243.811C38.5542 244.619 20.6693 246.612 3.72705 249.252L3.80786 44.4907L3.78092 44.4099Z" fill="url(#paint1_linear_777_730)"/>
<path d="M4.48046 45.1088C21.288 47.7215 38.9575 49.5262 57.4619 50.3342C58.3508 50.3612 59.2666 50.3881 60.1824 50.3612C73.2729 50.1188 84.8011 43.789 84.7203 36.7589C84.7203 34.4156 84.1278 32.557 82.9695 30.9948C80.7878 28.0319 79.3602 25.1229 79.3602 21.5405C79.3602 10.955 90.673 2.41656 106.161 2.41656C121.648 2.41656 132.961 10.955 132.961 21.5405C132.961 25.1229 131.588 27.9511 129.406 30.914C128.248 32.4762 127.601 34.5233 127.601 36.7319C127.52 43.762 139.049 50.0918 152.139 50.3342C153.055 50.3342 153.755 50.3342 154.644 50.3342C173.229 49.5262 191.087 47.8293 207.841 45.0819C210.454 61.8355 212.258 77.9428 213.039 96.8782C213.066 97.794 213.093 98.7367 213.066 99.6795C212.824 113.093 207.572 122.709 201.242 122.601C199.464 122.601 197.417 121.659 195.882 120.339C193 117.834 188.906 116.945 185.377 116.945C174.388 116.945 164.879 130.897 164.879 146.762C164.879 162.627 174.388 176.633 185.377 176.633C188.906 176.633 193.215 175.556 196.07 173.051C197.579 171.731 199.114 170.869 200.892 170.842C207.168 170.761 212.824 179.65 213.066 192.74C213.066 193.656 213.066 194.357 213.066 195.245C212.258 213.858 210.588 231.689 207.841 248.469C191.06 245.722 173.256 243.863 154.644 243.055C153.755 243.028 153.055 243.028 152.139 243.055C139.049 243.298 128.032 249.547 127.682 256.55C127.574 258.651 127.897 260.456 129.352 262.341C131.588 265.223 132.934 268.294 132.934 271.876C132.934 282.327 121.622 291 106.134 291C90.6461 291 79.3333 282.3 79.3333 271.876C79.3333 268.294 80.6801 265.277 82.9157 262.395C84.2894 260.59 84.6665 258.462 84.6126 256.577C84.3971 249.574 73.2459 243.325 60.1555 243.082C59.2397 243.082 58.3239 243.082 57.435 243.109C38.9575 243.917 21.1803 245.884 4.39966 248.496L4.45353 45.1088H4.48046Z" fill="url(#paint2_linear_777_730)"/>
<path d="M5.18538 45.7861C21.8583 48.3988 39.4469 50.1766 57.8167 50.9846C58.7056 51.0116 59.6214 51.0385 60.5372 51.0115C73.5468 50.7691 85.5061 44.2777 85.4522 37.3015C85.4522 34.6888 84.9135 32.6956 83.8091 31.1064C81.7082 28.0897 80.2268 25.3962 80.2268 21.8138C80.2268 11.4977 90.8392 3.2016 106.219 3.2016C121.599 3.2016 132.212 11.4977 132.212 21.8138C132.212 25.3693 130.784 27.955 128.71 30.9717C127.606 32.5609 126.986 34.8235 126.959 37.2477C126.905 44.2239 138.892 50.7422 151.874 50.9846C152.79 50.9846 153.49 50.9846 154.379 50.9846C172.857 50.1766 190.553 48.5066 207.226 45.7592C209.839 62.3782 211.59 77.5966 212.398 96.6128C212.425 97.5286 212.452 98.4713 212.425 99.414C212.182 112.882 207.307 121.986 201.381 121.932C199.603 121.932 197.314 120.881 195.806 119.535C192.95 116.976 188.452 116.249 184.924 116.249C173.988 116.249 164.264 130.82 164.264 146.766C164.264 162.712 174.015 177.364 184.924 177.364C188.452 177.364 193.22 176.368 196.075 173.809C197.583 172.462 199.065 171.52 200.842 171.493C206.687 171.439 212.182 179.438 212.425 192.448C212.425 193.364 212.425 194.037 212.425 194.926C211.617 213.404 209.973 231.127 207.226 247.773C190.58 245.026 172.884 243.194 154.406 242.386C153.517 242.359 152.817 242.359 151.901 242.386C138.892 242.628 127.66 249.012 127.094 255.934C126.905 258.197 127.067 260.082 128.629 262.156C130.811 265.038 132.212 267.974 132.212 271.557C132.212 281.63 121.599 290.169 106.219 290.169C90.8392 290.169 80.2268 281.657 80.2268 271.557C80.2268 268.001 81.6274 265.119 83.7822 262.21C85.2367 260.271 85.4522 257.874 85.3445 255.934C84.9943 249.012 73.5468 242.628 60.5372 242.386C59.6214 242.386 58.7056 242.386 57.8167 242.413C39.4469 243.221 21.8313 245.16 5.15845 247.773L5.21232 45.7592L5.18538 45.7861Z" fill="url(#paint3_linear_777_730)"/>
<path d="M5.85193 46.4834C22.3901 49.0692 39.871 50.8469 58.1062 51.628C58.995 51.655 59.8839 51.6819 60.7997 51.655C73.7016 51.4126 86.1187 44.7596 86.0918 37.8103C86.0918 34.9013 85.6339 32.8273 84.5565 31.2112C82.5633 28.1675 80.9741 25.6626 80.9741 22.1071C80.9741 12.0603 90.8863 4.0336 106.159 4.0336C121.431 4.0336 131.343 12.0872 131.343 22.1071C131.343 25.6626 129.861 28.0059 127.868 31.0496C126.818 32.6657 126.225 35.1437 126.198 37.7834C126.171 44.7326 138.588 51.4126 151.517 51.655C152.433 51.655 153.107 51.655 153.995 51.655C172.338 50.8469 189.927 49.1769 206.465 46.4565C209.051 62.9677 210.802 77.2434 211.61 96.3673C211.637 97.2831 211.664 98.2259 211.637 99.1955C211.394 112.744 206.869 121.309 201.347 121.282C199.57 121.282 197.065 120.124 195.556 118.724C192.701 116.084 187.826 115.545 184.324 115.545C173.469 115.545 163.503 130.764 163.503 146.763C163.503 162.763 173.469 178.062 184.324 178.062C187.826 178.062 193.078 177.146 195.933 174.506C197.442 173.106 198.869 172.082 200.647 172.082C206.061 172.055 211.394 179.193 211.637 192.095C211.637 193.011 211.637 193.684 211.637 194.573C210.829 212.943 209.186 230.531 206.465 247.07C189.927 244.349 172.338 242.518 153.995 241.736C153.107 241.71 152.433 241.71 151.517 241.736C138.615 241.979 127.114 248.524 126.387 255.366C126.117 257.763 126.091 259.756 127.787 262.046C129.915 264.928 131.37 267.756 131.37 271.311C131.37 281.035 121.458 289.385 106.185 289.385C90.9132 289.385 81.0011 281.035 81.0011 271.311C81.0011 267.756 82.4286 265.035 84.5296 262.126C86.0379 260.052 86.1187 257.386 85.9571 255.393C85.4454 248.524 73.7286 242.006 60.8266 241.763C59.9108 241.763 59.022 241.763 58.1331 241.79C39.898 242.571 22.3901 244.538 5.85193 247.123V46.4834Z" fill="url(#paint4_linear_777_730)"/>
<path d="M6.55518 47.1611C22.9587 49.7469 40.3319 51.4977 58.4593 52.2788C59.3481 52.3057 60.237 52.3326 61.1258 52.3057C73.947 52.0633 86.7951 45.2487 86.7951 38.3533C86.7951 35.175 86.391 32.9663 85.3944 31.3232C83.482 28.2257 81.8121 25.9362 81.8121 22.3808C81.8121 12.6302 91.0239 4.81903 106.188 4.81903C121.353 4.81903 130.565 12.6033 130.565 22.3808C130.565 25.9362 129.029 28.0371 127.117 31.1077C126.093 32.7508 125.528 35.4443 125.528 38.2994C125.528 45.1948 138.403 52.0364 151.224 52.2788C152.14 52.2788 152.813 52.2788 153.675 52.2788C171.883 51.4977 189.364 49.8277 205.795 47.1342C208.354 63.5377 210.104 76.8706 210.885 96.1023C210.912 97.0181 210.939 97.9878 210.912 98.9305C210.67 112.56 206.522 120.586 201.404 120.586C199.653 120.586 196.906 119.32 195.398 117.893C192.543 115.199 187.29 114.822 183.816 114.822C173.042 114.822 162.833 130.66 162.833 146.74C162.833 162.821 173.042 178.766 183.816 178.766C187.29 178.766 193.027 177.958 195.883 175.238C197.391 173.81 198.792 172.706 200.542 172.706C205.525 172.706 210.697 178.955 210.939 191.803C210.939 192.692 210.939 193.392 210.939 194.254C210.158 212.489 208.515 229.97 205.822 246.401C189.391 243.707 171.937 241.875 153.729 241.094C152.84 241.067 152.167 241.067 151.278 241.094C138.457 241.337 126.713 247.99 125.797 254.777C125.447 257.336 125.258 259.41 127.036 261.888C129.137 264.77 130.619 267.464 130.619 271.019C130.619 280.393 121.407 288.581 106.242 288.581C91.0778 288.581 81.8659 280.393 81.8659 271.019C81.8659 267.464 83.3474 264.905 85.3944 261.969C86.9567 259.76 86.9028 256.824 86.6873 254.777C86.0139 247.963 74.0278 241.337 61.2067 241.094C60.3178 241.094 59.402 241.094 58.5401 241.121C40.4396 241.902 23.0395 243.842 6.63598 246.401V47.1342L6.55518 47.1611Z" fill="url(#paint5_linear_777_730)"/>
</g>
<defs>
<filter id="filter0_d_777_730" x="0.671702" y="0.775391" width="216.271" height="296.581" filterUnits="userSpaceOnUse" color-interpolation-filters="sRGB">
<feFlood flood-opacity="0" result="BackgroundImageFix"/>
<feColorMatrix in="SourceAlpha" type="matrix" values="0 0 0 0 0 0 0 0 0 0 0 0 0 0 0 0 0 0 127 0" result="hardAlpha"/>
<feOffset dy="2.32842"/>
<feGaussianBlur stdDeviation="1.16421"/>
<feComposite in2="hardAlpha" operator="out"/>
<feColorMatrix type="matrix" values="0 0 0 0 0 0 0 0 0 0 0 0 0 0 0 0 0 0 0.25 0"/>
<feBlend mode="normal" in2="BackgroundImageFix" result="effect1_dropShadow_777_730"/>
<feBlend mode="normal" in="SourceGraphic" in2="effect1_dropShadow_777_730" result="shape"/>
</filter>
<linearGradient id="paint0_linear_777_730" x1="108.807" y1="292.699" x2="108.807" y2="0.775879" gradientUnits="userSpaceOnUse">
<stop stop-color="#6F56B4"/>
<stop offset="1" stop-color="#493187"/>
</linearGradient>
<linearGradient id="paint1_linear_777_730" x1="108.78" y1="291.863" x2="108.78" y2="1.60989" gradientUnits="userSpaceOnUse">
<stop stop-color="#6F56B4"/>
<stop offset="1" stop-color="#493187"/>
</linearGradient>
<linearGradient id="paint2_linear_777_730" x1="108.739" y1="291" x2="108.739" y2="2.41656" gradientUnits="userSpaceOnUse">
<stop stop-color="#6F56B4"/>
<stop offset="1" stop-color="#493187"/>
</linearGradient>
<linearGradient id="paint3_linear_777_730" x1="108.797" y1="290.169" x2="108.797" y2="3.2016" gradientUnits="userSpaceOnUse">
<stop stop-color="#6F56B4"/>
<stop offset="1" stop-color="#493187"/>
</linearGradient>
<linearGradient id="paint4_linear_777_730" x1="108.75" y1="289.385" x2="108.75" y2="4.0336" gradientUnits="userSpaceOnUse">
<stop stop-color="#6F56B4"/>
<stop offset="1" stop-color="#493187"/>
</linearGradient>
<linearGradient id="paint5_linear_777_730" x1="108.747" y1="288.581" x2="108.747" y2="4.81903" gradientUnits="userSpaceOnUse">
<stop stop-color="#6F56B4"/>
<stop offset="1" stop-color="#493187"/>
</linearGradient>
</defs>
</svg>
