<svg width="406" height="300" viewBox="0 0 406 300" fill="none" xmlns="http://www.w3.org/2000/svg">
<path d="M60.1867 7.34051C83.661 3.49226 108.598 1.14485 134.65 0.0288619C135.92 -0.00962063 136.882 -0.00962063 138.152 0.0288619C156.47 0.375204 165.398 7.76385 165.398 14.8831C165.398 17.3845 163.82 19.3855 161.78 21.5406C157.932 25.6197 156.739 33.8165 156.739 38.7807C156.739 54.1737 179.482 68.7586 202.495 68.7586C225.507 68.7586 248.097 54.1737 248.097 38.7807C248.097 33.8165 247.596 26.3124 243.71 22.2333C241.67 20.0783 239.861 16.153 239.861 13.6516C239.861 6.33997 251.329 0.375183 270.801 0.0673232C272.187 0.0673232 273.534 0.0673608 274.842 0.105843C302.318 1.22184 321.367 3.72318 344.803 7.41749C340.955 30.8918 338.569 55.867 337.453 81.8811C337.415 83.1511 337.415 84.1131 337.453 85.383C337.799 103.701 347.574 122.095 357.425 122.095C361.505 122.095 365.391 121.287 367.7 119.825C372.087 117.093 375.089 114.899 380.169 114.899C394.099 114.899 405.221 128.06 405.221 149.726C405.221 171.391 394.099 184.552 380.169 184.552C375.127 184.552 371.818 182.167 367.392 179.434C365.045 177.972 361.889 177.433 357.348 177.433C347.497 177.433 337.761 195.789 337.415 214.107C337.415 215.415 337.415 216.685 337.453 217.917C338.569 243.816 341.07 268.637 344.765 292.073C321.329 295.767 302.318 298.23 274.842 299.384C273.534 299.423 272.148 299.461 270.801 299.423C251.368 299.076 239.861 292.38 239.861 285.915C239.861 283.375 241.324 281.105 243.094 278.719C246.942 273.447 248.097 267.097 248.097 262.172C248.097 244.893 225.507 230.655 202.495 230.655C179.482 230.655 156.739 245.586 156.739 262.595C156.739 267.559 157.894 273.716 161.78 278.719C163.589 281.067 165.013 283.375 165.013 285.915C165.013 292.226 156.47 299.076 138.152 299.423C136.882 299.423 135.882 299.423 134.65 299.423C108.598 298.307 83.661 295.959 60.1867 292.073C63.8425 268.637 66.6131 243.777 67.7291 217.917C67.7676 216.647 67.8061 215.377 67.7676 214.107C67.4213 195.789 57.9545 178.626 48.2184 177.664C45.2938 177.395 41.0993 177.279 37.9437 179.511C33.7876 182.436 30.0934 184.552 25.0521 184.552C11.6602 184.552 0 171.391 0 149.726C0 128.06 11.6987 114.899 25.0521 114.899C30.1318 114.899 33.9799 117.016 38.0975 120.017C41.5994 122.557 44.6011 122.326 48.257 121.787C57.9161 120.441 67.4598 103.701 67.8061 85.3446C67.8061 84.0361 67.8061 83.0741 67.8061 81.8426C66.6902 55.79 64.0732 30.8534 60.225 7.37903L60.1867 7.34051Z" fill="url(#paint0_linear_775_129)"/>
<defs>
<linearGradient id="paint0_linear_775_129" x1="202.61" y1="0" x2="202.61" y2="299.439" gradientUnits="userSpaceOnUse">
<stop stop-color="#1E1E1E"/>
<stop offset="1" stop-color="#9E9E9E"/>
</linearGradient>
</defs>
</svg>
