<svg width="262" height="224" viewBox="0 0 262 224" fill="none" xmlns="http://www.w3.org/2000/svg">
<g filter="url(#filter0_d_2311_816)">
<path d="M4.10954 215.054H213.596C210.885 197.802 208.858 179.701 208.037 160.642C208.009 159.711 207.982 158.78 208.009 157.822C208.256 144.321 214.335 133.505 221.592 133.642C223.399 133.669 225.042 134.381 226.576 135.641C229.506 138.05 232.874 139.31 236.543 139.31C247.88 139.31 257.054 126.385 257.054 110.42C257.054 94.4554 247.88 81.5303 236.543 81.5303C232.901 81.5303 229.506 82.8173 226.576 85.1997C225.042 86.4594 223.399 87.1713 221.592 87.1987C214.335 87.3356 208.256 76.519 208.009 63.0188C208.009 62.0604 208.009 61.3484 208.009 60.4174C208.831 41.2487 210.748 22.8742 213.596 5.595C196.316 2.74709 177.942 1.04929 158.773 0.200378C157.842 0.145615 157.13 0.173004 156.199 0.200378C142.699 0.446838 131.882 6.52605 132.019 13.7827C132.047 15.5901 132.759 17.2331 134.018 18.7666C136.401 21.6967 137.688 25.0649 137.688 28.7343C137.688 40.0712 124.763 49.2722 108.798 49.2722C92.8331 49.2722 79.9079 40.0712 79.9079 28.7343C79.9079 25.0923 81.1949 21.6967 83.5773 18.7666C84.837 17.2057 85.549 15.5901 85.5763 13.7827C85.7133 6.52605 74.8967 0.446838 61.3964 0.200378C60.438 0.200378 59.507 0.200394 58.5759 0.227768C39.5168 1.04929 21.2244 2.884 4 5.595V215.054H4.10954Z" fill="#FFE1CA"/>
<path d="M4.82141 214.396H212.911C210.227 197.254 208.201 179.263 207.379 160.313C207.352 159.41 207.325 158.451 207.352 157.52C207.598 144.129 213.815 133.039 220.989 132.984C222.851 132.984 224.768 133.504 226.439 134.846C229.369 137.174 232.6 138.488 236.242 138.488C247.223 138.488 256.232 126.275 256.232 110.42C256.232 94.5647 247.223 82.3515 236.242 82.3515C232.6 82.3515 229.369 83.6933 226.411 86.021C224.686 87.3902 222.933 87.9104 220.962 87.8831C213.787 87.7735 207.571 76.7652 207.325 63.3472C207.325 62.3887 207.325 61.7041 207.325 60.7731C208.146 41.714 210.063 23.4763 212.884 6.30667C195.714 3.48615 177.476 1.78835 158.445 0.939453C157.541 0.884689 156.829 0.912064 155.87 0.939453C142.48 1.18591 132.539 7.10083 132.649 13.9194C132.649 15.7267 133.471 17.315 134.758 18.8759C137.222 21.8059 138.4 25.6671 138.4 29.2817C138.4 40.5365 124.817 49.9839 108.798 49.9839C92.7782 49.9839 79.1958 40.5638 79.1958 29.2817C79.1958 25.6671 80.2912 21.8881 82.7557 18.958C84.0701 17.4245 84.8643 15.5624 84.919 13.7551C85.0286 6.90912 74.7323 1.2133 61.1773 0.966843C60.2188 0.966843 59.2878 0.966843 58.3567 0.994232C39.2155 1.81575 21.8541 3.65045 4.73926 6.33406V214.396H4.82141Z" fill="#FFE1CA"/>
<path d="M5.53133 213.738H212.224C209.568 196.705 207.569 178.796 206.748 159.984C206.72 159.08 206.693 158.149 206.72 157.218C206.967 143.909 213.32 132.545 220.439 132.353C222.356 132.299 224.547 132.682 226.354 134.079C229.312 136.351 232.379 137.721 235.993 137.721C246.591 137.721 255.436 126.219 255.436 110.474C255.436 94.728 246.591 83.2268 235.993 83.2268C232.351 83.2268 229.257 84.596 226.3 86.8963C224.383 88.375 222.548 88.7036 220.412 88.594C213.32 88.2381 206.939 77.0381 206.693 63.7296C206.693 62.7985 206.693 62.0865 206.693 61.1829C207.514 42.2607 209.404 24.1326 212.197 7.09985C195.137 4.3067 177.036 2.60892 158.114 1.78741C157.21 1.76003 156.498 1.76003 155.567 1.78741C142.259 2.03386 133.222 7.78445 133.304 14.1649C133.304 15.9722 134.208 17.5057 135.55 19.0666C138.096 21.9966 139.192 26.3507 139.192 29.938C139.192 41.1379 124.952 50.8044 108.85 50.8044C92.7487 50.8044 78.5365 41.1379 78.5365 29.938C78.5365 26.3507 79.4402 22.1609 81.9869 19.2583C83.3287 17.7248 84.2598 15.6162 84.2871 13.8089C84.3693 7.3737 74.6207 2.03386 60.9835 1.78741C60.0251 1.78741 59.0667 1.7874 58.1356 1.81477C38.8848 2.63629 22.4819 4.44362 5.47656 7.09985V213.738H5.53133Z" fill="#FFE1CA"/>
<path d="M6.21395 213.055H211.51C208.854 196.131 206.882 178.305 206.061 159.629C206.034 158.725 206.006 157.794 206.034 156.863C206.28 143.637 212.77 131.999 219.808 131.643C221.779 131.533 224.216 131.78 226.188 133.231C229.145 135.422 232.048 136.846 235.69 136.846C245.932 136.846 254.612 126.056 254.612 110.42C254.612 94.784 245.959 83.9948 235.69 83.9948C232.076 83.9948 229.091 85.4188 226.133 87.6369C224.025 89.2251 222.08 89.3894 219.808 89.1977C212.77 88.6227 206.28 77.2036 206.034 63.9773C206.034 63.0462 206.034 62.3342 206.034 61.4306C206.855 42.6453 208.717 24.6541 211.51 7.70355C194.587 4.9104 176.569 3.23999 157.783 2.41847C156.88 2.39108 156.168 2.39108 155.237 2.41847C142.01 2.66492 133.877 8.25122 133.932 14.1935C133.932 16.0008 134.918 17.5069 136.287 19.0404C138.888 21.9431 139.902 26.8174 139.902 30.3773C139.902 41.4952 125.005 51.4081 108.821 51.4081C92.6372 51.4081 77.7952 41.4952 77.7952 30.3773C77.7952 26.7901 78.5346 22.2443 81.136 19.3143C82.5052 17.7808 83.5732 15.4532 83.5732 13.6458C83.628 7.62138 74.3996 2.63754 60.7077 2.41847C59.7493 2.41847 58.7909 2.41847 57.8598 2.44586C38.4995 3.26738 23.055 5.04732 6.15918 7.70355V213.055H6.21395Z" fill="#FFE1CA"/>
<path d="M6.92883 212.396H210.829C208.2 195.61 206.228 177.838 205.407 159.299C205.379 158.396 205.352 157.492 205.379 156.561C205.626 143.417 212.225 131.505 219.208 130.984C221.234 130.82 223.945 130.902 226.054 132.436C229.011 134.572 231.777 136.023 235.392 136.023C245.277 136.023 253.766 125.946 253.766 110.419C253.766 94.8926 245.277 84.8154 235.392 84.8154C231.777 84.8154 228.929 86.2941 225.972 88.4574C223.672 90.1552 221.645 90.1278 219.208 89.8814C212.253 89.1146 205.598 77.4491 205.379 64.3049C205.379 63.3739 205.379 62.6893 205.379 61.7856C206.201 43.1098 208.063 25.2556 210.801 8.41457C193.988 5.6488 176.106 3.97839 157.458 3.15688C156.554 3.1295 155.869 3.1295 154.938 3.15688C141.821 3.40334 134.565 8.82532 134.592 14.3295C134.592 16.1368 135.633 17.5881 137.057 19.1216C139.74 22.0243 140.644 27.3642 140.644 30.9241C140.644 41.9597 125.117 52.0917 108.824 52.0917C92.5306 52.0917 77.0861 41.9597 77.0861 30.9241C77.0861 27.3642 77.6338 22.4077 80.3174 19.505C81.7414 17.9715 82.8915 15.4248 82.9189 13.6175C82.9463 8.00381 74.2382 3.40334 60.4642 3.15688C59.5057 3.15688 58.5473 3.15686 57.5889 3.18425C38.1464 3.97838 23.633 5.78572 6.84668 8.41457V212.396H6.92883Z" fill="#FFE1CA"/>
<path d="M7.60942 211.739H210.113C207.511 195.062 205.54 177.372 204.745 158.97C204.718 158.066 204.691 157.163 204.718 156.259C204.964 143.224 211.701 131.011 218.629 130.326C220.71 130.135 223.695 130.053 225.94 131.641C228.898 133.722 231.527 135.228 235.114 135.228C244.644 135.228 252.941 125.863 252.941 110.446C252.941 95.0288 244.616 85.6635 235.114 85.6635C231.499 85.6635 228.761 87.1696 225.831 89.3055C223.339 91.1129 221.203 90.9212 218.602 90.5652C211.728 89.6068 204.937 77.6948 204.691 64.6327C204.691 63.7017 204.691 63.0171 204.691 62.1408C205.485 43.602 207.347 25.8573 210.085 9.15315C193.381 6.41476 175.636 4.74437 157.098 3.95024C156.194 3.92287 155.509 3.92287 154.606 3.95024C141.571 4.1967 135.218 9.45438 135.218 14.5204C135.218 16.3003 136.341 17.7243 137.792 19.2578C140.53 22.1605 141.379 27.9932 141.379 31.5257C141.379 42.4792 125.195 52.8577 108.82 52.8577C92.4444 52.8577 76.3701 42.4792 76.3701 31.5257C76.3701 27.9932 76.7535 22.626 79.4919 19.7507C80.9432 18.2172 82.2303 15.424 82.2303 13.6441C82.2303 8.44116 74.0699 4.1967 60.2137 3.95024C59.2279 3.95024 58.2695 3.95023 57.3384 3.97762C37.7864 4.77174 24.2314 6.55168 7.58203 9.15315V211.739H7.60942Z" fill="#FFE1CA"/>
</g>
<defs>
<filter id="filter0_d_2311_816" x="0" y="0.168823" width="261.054" height="222.885" filterUnits="userSpaceOnUse" color-interpolation-filters="sRGB">
<feFlood flood-opacity="0" result="BackgroundImageFix"/>
<feColorMatrix in="SourceAlpha" type="matrix" values="0 0 0 0 0 0 0 0 0 0 0 0 0 0 0 0 0 0 127 0" result="hardAlpha"/>
<feOffset dy="4"/>
<feGaussianBlur stdDeviation="2"/>
<feComposite in2="hardAlpha" operator="out"/>
<feColorMatrix type="matrix" values="0 0 0 0 0 0 0 0 0 0 0 0 0 0 0 0 0 0 0.25 0"/>
<feBlend mode="normal" in2="BackgroundImageFix" result="effect1_dropShadow_2311_816"/>
<feBlend mode="normal" in="SourceGraphic" in2="effect1_dropShadow_2311_816" result="shape"/>
</filter>
</defs>
</svg>
