<svg width="229" height="305" viewBox="0 0 229 305" fill="none" xmlns="http://www.w3.org/2000/svg">
<g filter="url(#filter0_d_2311_851)">
<path d="M219.027 253.16C221.875 235.881 223.573 217.507 224.422 198.338C224.449 197.407 224.449 196.695 224.422 195.764C224.175 182.264 218.096 171.447 210.839 171.612C209.032 171.639 207.389 172.351 205.856 173.611C202.926 175.993 199.557 177.28 195.888 177.28C184.551 177.28 175.35 164.355 175.35 148.39C175.35 132.425 184.524 119.528 195.888 119.528C199.53 119.528 202.926 120.815 205.856 123.197C207.417 124.457 209.032 125.169 210.839 125.196C218.096 125.333 224.175 114.516 224.422 101.016C224.422 100.058 224.422 99.1267 224.394 98.1956C223.573 79.1365 221.738 60.8716 219.027 43.6198C201.748 46.4677 183.374 48.1928 164.205 49.0417C163.274 49.0691 162.562 49.0691 161.631 49.0417C148.131 48.7952 137.314 42.716 137.451 35.4593C137.478 33.6519 138.19 32.0091 139.45 30.4756C141.832 27.5455 143.119 24.1772 143.119 20.5078C143.119 9.17093 130.194 -0.00262451 114.229 -0.00262451C98.2647 -0.00262451 85.3395 9.1983 85.3395 20.5078C85.3395 24.1499 86.5992 27.5181 89.0089 30.4756C90.2686 32.0091 90.9806 33.6519 91.0079 35.4593C91.1449 42.716 80.3283 48.7952 66.8281 49.0417C65.8696 49.0417 64.9386 49.0417 64.0075 49.0143C44.9484 48.1928 26.656 46.3308 9.40422 43.6472C6.69322 60.899 4.85849 79.1639 4.03697 98.1956C4.0096 99.1267 3.98222 100.058 4.00961 101.016C4.25606 114.516 10.3353 125.333 17.5919 125.196C19.3993 125.169 21.0423 124.457 22.5758 123.197C25.5059 120.815 28.8741 119.528 32.5435 119.528C43.8804 119.528 53.0814 132.453 53.0814 148.39C53.0814 164.328 43.8804 177.28 32.5435 177.28C28.9015 177.28 25.5059 175.993 22.5758 173.611C21.015 172.351 19.3993 171.639 17.5919 171.612C10.3353 171.475 4.25606 182.291 4.00961 195.764C4.00961 196.723 4.00961 197.435 4.00961 198.338C4.83113 217.507 6.5563 235.881 9.40422 253.133C26.656 250.422 44.9484 248.396 64.0075 247.574C64.9386 247.547 65.8696 247.519 66.8281 247.547C80.3283 247.793 91.1449 253.873 91.0079 261.129C90.9806 262.937 90.2686 264.58 89.0089 266.113C86.5992 269.043 85.3395 272.411 85.3395 276.081C85.3395 287.418 98.2647 296.591 114.229 296.591C130.194 296.591 143.119 287.418 143.119 276.081C143.119 272.439 141.832 269.043 139.45 266.113C138.19 264.552 137.478 262.937 137.451 261.129C137.314 253.873 148.131 247.793 161.631 247.547C162.589 247.547 163.301 247.547 164.205 247.547C183.374 248.368 201.748 250.285 219.027 253.133V253.16Z" fill="#FFE1CA"/>
<path d="M218.344 252.478C221.164 235.308 222.862 217.071 223.711 198.039C223.738 197.135 223.738 196.423 223.711 195.465C223.464 182.074 217.55 172.134 210.731 172.243C208.924 172.243 207.335 173.065 205.775 174.352C202.844 176.817 198.983 177.994 195.369 177.994C184.114 177.994 174.694 164.412 174.694 148.392C174.694 132.373 184.114 118.79 195.369 118.79C198.983 118.79 202.762 119.886 205.692 122.35C207.226 123.665 209.088 124.459 210.895 124.513C217.741 124.623 223.437 114.327 223.684 100.772C223.684 99.8133 223.684 98.8821 223.656 97.9511C222.835 78.8098 221 61.476 218.316 44.3337C201.147 47.1543 182.882 48.8793 163.85 49.7008C162.919 49.7282 162.234 49.7282 161.276 49.7008C147.885 49.4544 136.603 43.1835 136.713 36.0089C136.74 33.9825 137.425 32.1205 138.629 30.5596C140.93 27.5747 142.271 24.453 142.271 20.8109C142.271 9.77527 130.058 0.820801 114.203 0.820801C98.3479 0.820801 86.1347 9.74789 86.1347 20.8109C86.1347 24.453 87.5039 27.6295 89.8041 30.587C91.0364 32.1479 91.6662 33.9004 91.6936 36.0089C91.8031 43.2109 80.5484 49.4544 67.1303 49.7008C66.1719 49.7008 65.2408 49.7008 64.3372 49.6734C45.415 48.8519 27.2321 47.0173 10.0899 44.3337C7.40625 61.476 5.57155 78.7824 4.75003 97.9237C4.72264 98.8547 4.69524 99.7859 4.72263 100.744C4.96907 114.299 10.8018 124.596 17.5108 124.486C19.3182 124.459 20.9612 123.692 22.5221 122.432C25.6165 119.968 29.2311 118.79 32.8458 118.79C44.3744 118.79 53.7397 132.345 53.7397 148.392C53.7397 164.439 44.2648 177.994 32.7637 177.994C29.149 177.994 25.5617 176.817 22.4947 174.352C20.9339 173.092 19.2908 172.326 17.4835 172.298C10.7745 172.189 4.94171 182.047 4.69525 195.465C4.69525 196.396 4.69525 197.108 4.69525 198.039C5.51677 217.071 7.24193 235.308 10.0625 252.478C27.2047 249.794 45.3602 247.768 64.3098 246.946C65.2409 246.919 66.1445 246.892 67.1029 246.919C80.4936 247.166 91.6115 253.382 91.6388 260.556C91.6388 262.418 91.0912 264.335 89.7767 266.005C87.4491 268.936 86.1347 272.167 86.1347 275.809C86.1347 286.79 98.3479 295.799 114.203 295.799C130.058 295.799 142.271 286.79 142.271 275.809C142.271 272.167 140.93 268.936 138.602 265.978C137.233 264.253 136.713 262.5 136.74 260.529C136.849 253.354 147.858 247.138 161.276 246.892C162.207 246.892 162.919 246.892 163.85 246.892C182.909 247.713 201.147 249.63 218.316 252.423L218.344 252.478Z" fill="#FFE1CA"/>
<path d="M217.633 251.764C220.426 234.731 222.124 216.603 222.945 197.681C222.973 196.777 222.973 196.065 222.945 195.134C222.699 181.825 216.948 172.789 210.568 172.871C208.76 172.871 207.227 173.775 205.666 175.116C202.763 177.663 198.382 178.758 194.795 178.758C183.595 178.758 173.956 164.519 173.956 148.417C173.956 132.315 183.622 118.103 194.795 118.103C198.382 118.103 202.572 119.007 205.474 121.554C207.008 122.895 209.116 123.827 210.924 123.854C217.359 123.936 222.699 114.187 222.945 100.55C222.945 99.5919 222.945 98.6335 222.918 97.7025C222.096 78.4517 220.289 62.076 217.633 45.0433C200.573 47.8365 182.445 49.5617 163.522 50.3832C162.619 50.4106 161.907 50.4106 160.976 50.3832C147.667 50.1367 135.92 43.7016 136.002 36.5544C136.002 34.3089 136.686 32.2278 137.836 30.6396C140.055 27.6273 141.451 24.7519 141.451 21.1099C141.451 10.3481 129.95 1.66745 114.204 1.66745C98.4585 1.66745 86.9573 10.3481 86.9573 21.1099C86.9573 24.7519 88.4087 27.7094 90.6267 30.7216C91.8042 32.3099 92.3793 34.1994 92.4067 36.5818C92.4888 43.729 80.7686 50.1641 67.4601 50.4106C66.529 50.4106 65.598 50.4106 64.6943 50.3832C45.8816 49.5617 27.8357 47.7543 10.8303 45.0707C8.17409 62.0761 6.3394 78.4517 5.5179 97.7025C5.49051 98.6335 5.4631 99.5919 5.49048 100.55C5.73694 114.187 11.2959 123.936 17.4846 123.854C19.2919 123.854 20.9076 122.978 22.5232 121.718C25.7819 119.171 29.6156 118.103 33.2029 118.103C44.9232 118.103 54.4801 132.288 54.4801 148.417C54.4801 164.546 44.7041 178.758 33.066 178.758C29.4787 178.758 25.6724 177.663 22.4958 175.116C20.9076 173.829 19.2646 173.008 17.4572 172.981C11.3233 172.898 5.70956 181.825 5.46312 195.134C5.46312 196.065 5.46312 196.777 5.46312 197.681C6.28462 216.603 7.98244 234.704 10.7756 251.764C27.8083 249.108 45.8542 247.109 64.6395 246.287C65.5432 246.26 66.4742 246.232 67.4053 246.26C80.7138 246.506 92.0781 252.859 92.2698 259.979C92.3245 261.896 91.9412 264.059 90.5446 265.894C88.2717 268.851 86.9025 271.918 86.9025 275.533C86.9025 286.13 98.4037 294.975 114.149 294.975C129.895 294.975 141.396 286.13 141.396 275.533C141.396 271.891 140.027 268.796 137.754 265.839C136.276 263.922 135.947 262.087 136.029 259.952C136.385 252.859 147.585 246.479 160.894 246.232C161.825 246.232 162.537 246.232 163.44 246.232C182.362 247.054 200.491 248.943 217.523 251.736L217.633 251.764Z" fill="#FFE1CA"/>
<path d="M216.943 251.078C219.737 234.154 221.407 216.136 222.228 197.35C222.256 196.447 222.256 195.762 222.228 194.831C221.982 181.605 216.396 173.472 210.453 173.527C208.646 173.527 207.14 174.512 205.607 175.882C202.704 178.483 197.83 179.496 194.27 179.496C183.152 179.496 173.266 164.599 173.266 148.416C173.266 132.232 183.179 117.39 194.27 117.39C197.857 117.39 202.403 118.129 205.333 120.731C206.866 122.1 209.194 123.168 211.001 123.168C217.026 123.223 221.982 113.994 222.228 100.302C222.228 99.3439 222.229 98.3853 222.201 97.4543C221.38 78.0939 219.6 62.6768 216.943 45.7537C200.02 48.5468 182.002 50.2446 163.216 51.0661C162.313 51.0935 161.601 51.0935 160.67 51.0661C147.443 50.8197 135.258 44.2202 135.312 37.1005C135.312 34.6359 135.942 32.3356 137.065 30.72C139.201 27.6804 140.625 25.0241 140.625 21.4094C140.625 10.9214 129.836 2.48727 114.199 2.48727C98.5632 2.48727 87.774 10.9214 87.774 21.4094C87.774 25.0241 89.3075 27.7899 91.4161 30.8295C92.5388 32.4451 93.0591 34.4442 93.0865 37.1005C93.1413 44.1929 80.9828 50.7923 67.7565 51.0387C66.8254 51.0387 65.8944 51.0389 64.9907 51.0115C46.315 50.19 28.3785 48.3825 11.4827 45.7263C8.82651 62.6221 7.01918 78.0391 6.22505 97.3995C6.19766 98.3305 6.17029 99.2891 6.19768 100.247C6.44414 113.939 11.7292 123.168 17.3976 123.113C19.205 123.113 20.8206 122.182 22.4636 120.922C25.8866 118.321 29.9394 117.335 33.5267 117.335C45.4387 117.335 55.1873 132.15 55.1873 148.361C55.1873 164.572 45.1374 179.441 33.335 179.441C29.7477 179.441 25.7771 178.428 22.4636 175.827C20.848 174.54 19.205 173.663 17.3976 173.636C11.8113 173.581 6.44414 181.55 6.19768 194.776C6.19768 195.708 6.19768 196.419 6.19768 197.296C7.0192 216.081 8.68959 234.072 11.4827 250.995C28.3785 248.339 46.315 246.367 64.9907 245.546C65.8944 245.519 66.8254 245.491 67.7565 245.519C80.9828 245.765 92.621 252.255 92.9769 259.293C93.0865 261.264 92.84 263.701 91.3887 265.673C89.198 268.63 87.774 271.533 87.774 275.175C87.774 285.417 98.5632 294.097 114.199 294.097C129.836 294.097 140.625 285.444 140.625 275.175C140.625 271.561 139.201 268.576 136.983 265.618C135.394 263.51 135.23 261.566 135.422 259.293C135.997 252.255 147.416 245.765 160.642 245.519C161.573 245.519 162.285 245.519 163.189 245.519C181.974 246.34 199.965 248.202 216.916 250.995L216.943 251.078Z" fill="#FFE1CA"/>
<path d="M216.233 250.371C218.998 233.557 220.669 215.675 221.49 197.027C221.518 196.123 221.518 195.439 221.49 194.508C221.244 181.364 215.822 174.134 210.318 174.162C208.51 174.162 207.059 175.202 205.525 176.626C202.623 179.31 197.283 180.214 193.723 180.214C182.687 180.214 172.555 164.687 172.555 148.394C172.555 132.1 182.687 116.656 193.723 116.656C197.283 116.656 202.239 117.203 205.142 119.887C206.676 121.311 209.222 122.461 211.03 122.488C216.643 122.516 221.244 113.808 221.49 100.034C221.49 99.0752 221.49 98.1168 221.463 97.1584C220.669 77.7159 218.861 63.2024 216.233 46.4161C199.419 49.1819 181.51 50.8799 162.861 51.7014C161.958 51.7287 161.273 51.7287 160.342 51.7014C147.198 51.4549 134.574 44.6637 134.601 37.6261C134.601 34.9424 135.204 32.4231 136.299 30.7801C138.353 27.6857 139.832 25.3033 139.832 21.6887C139.832 11.5019 129.754 3.31406 114.228 3.31406C98.7012 3.31406 88.624 11.5019 88.624 21.6887C88.624 25.3033 90.2396 27.85 92.266 30.9444C93.334 32.5874 93.7995 34.7234 93.8269 37.6535C93.8543 44.7185 81.2304 51.4549 68.1135 51.7014C67.1825 51.7014 66.2788 51.7013 65.3752 51.674C46.8363 50.8798 29.0368 49.0724 12.2232 46.4436C9.59435 63.2298 7.787 77.7159 6.99287 97.1584C6.9655 98.0895 6.93813 99.0479 6.96552 100.034C7.21196 113.808 12.2505 122.516 17.3713 122.488C19.1786 122.488 20.7943 121.503 22.4647 120.243C26.052 117.559 30.3239 116.656 33.8838 116.656C45.9874 116.656 55.9277 132.1 55.9277 148.394C55.9277 164.687 45.5766 180.214 33.6373 180.214C30.0774 180.214 25.8877 179.282 22.4647 176.626C20.8217 175.339 19.1786 174.381 17.3713 174.381C12.3327 174.353 7.23935 181.364 6.96552 194.508C6.96552 195.439 6.96552 196.123 6.96552 197.027C7.78702 215.675 9.45743 233.557 12.2232 250.371C29.0095 247.742 46.8089 245.77 65.3752 244.949C66.2788 244.921 67.1825 244.894 68.1135 244.921C81.2578 245.168 93.1697 251.767 93.69 258.75C93.8543 260.777 93.7721 263.488 92.2386 265.596C90.1027 268.554 88.6514 271.319 88.6514 274.934C88.6514 284.82 98.7286 293.309 114.255 293.309C129.782 293.309 139.859 284.82 139.859 274.934C139.859 271.319 138.408 268.444 136.217 265.514C134.519 263.214 134.519 261.187 134.793 258.75C135.56 251.795 147.225 245.168 160.37 244.921C161.301 244.921 161.985 244.921 162.889 244.921C181.565 245.743 199.419 247.578 216.26 250.343L216.233 250.371Z" fill="#FFE1CA"/>
<path d="M215.549 249.661C218.287 232.957 219.958 215.212 220.752 196.673C220.779 195.77 220.779 195.085 220.752 194.181C220.505 181.147 215.248 174.794 210.182 174.794C208.402 174.794 206.978 175.916 205.444 177.368C202.542 180.106 196.709 180.955 193.176 180.955C182.223 180.955 171.844 164.771 171.844 148.396C171.844 132.02 182.223 115.946 193.176 115.946C196.709 115.946 202.049 116.302 204.951 119.068C206.485 120.519 209.278 121.806 211.058 121.806C216.261 121.806 220.505 113.646 220.725 99.7895C220.725 98.8037 220.725 97.8452 220.697 96.9141C219.903 77.3621 218.123 63.8071 215.494 47.1304C198.79 49.8688 181.018 51.5666 162.507 52.3608C161.603 52.3882 160.918 52.3882 160.015 52.3608C146.98 52.1143 133.891 45.1588 133.891 38.1486C133.891 35.2459 134.466 32.48 135.506 30.837C137.45 27.7152 139.011 25.5793 139.011 21.9647C139.011 12.0517 129.646 4.13776 114.229 4.13776C98.8119 4.13776 89.4466 12.0517 89.4466 21.9647C89.4466 25.5519 91.1444 27.907 93.0887 31.0561C94.1292 32.7265 94.5126 34.9719 94.5126 38.2032C94.5126 45.2135 81.4506 52.1417 68.4159 52.3882C67.4848 52.3882 66.5811 52.3882 65.7049 52.3608C47.2756 51.5666 29.613 49.7866 12.9363 47.1578C10.3074 63.8345 8.55489 77.3621 7.73337 96.9141C7.6786 97.8452 7.67857 98.8311 7.70595 99.7895C7.95241 113.618 12.7172 121.806 17.3177 121.806C19.125 121.806 20.7407 120.765 22.4384 119.506C26.19 116.767 30.7084 115.946 34.2135 115.946C46.5088 115.946 56.6408 132.02 56.6408 148.396C56.6408 164.771 46.0159 180.955 33.9123 180.955C30.3798 180.955 25.9984 180.133 22.4384 177.368C20.768 176.081 19.125 175.068 17.3177 175.068C12.8268 175.068 7.95241 181.147 7.70595 194.181C7.70595 195.085 7.70595 195.797 7.70595 196.673C8.50009 215.212 10.1705 232.957 12.9089 249.661C29.5856 247.06 47.2756 245.088 65.6775 244.294C66.5812 244.266 67.4848 244.239 68.3885 244.266C81.4232 244.513 93.6363 251.249 94.3209 258.177C94.5126 260.259 94.5948 263.243 93.0065 265.489C90.9254 268.446 89.4192 271.075 89.4192 274.662C89.4192 284.192 98.7845 292.517 114.202 292.517C129.619 292.517 138.984 284.192 138.984 274.662C138.984 271.048 137.478 268.309 135.342 265.379C133.535 262.887 133.699 260.751 134.082 258.15C135.041 251.277 146.953 244.486 160.015 244.239C160.946 244.239 161.63 244.239 162.507 244.239C181.045 245.033 198.79 246.895 215.494 249.634L215.549 249.661Z" fill="#FFE1CA"/>
</g>
<defs>
<filter id="filter0_d_2311_851" x="-0.00195312" y="-0.00268555" width="228.444" height="304.594" filterUnits="userSpaceOnUse" color-interpolation-filters="sRGB">
<feFlood flood-opacity="0" result="BackgroundImageFix"/>
<feColorMatrix in="SourceAlpha" type="matrix" values="0 0 0 0 0 0 0 0 0 0 0 0 0 0 0 0 0 0 127 0" result="hardAlpha"/>
<feOffset dy="4"/>
<feGaussianBlur stdDeviation="2"/>
<feComposite in2="hardAlpha" operator="out"/>
<feColorMatrix type="matrix" values="0 0 0 0 0 0 0 0 0 0 0 0 0 0 0 0 0 0 0.25 0"/>
<feBlend mode="normal" in2="BackgroundImageFix" result="effect1_dropShadow_2311_851"/>
<feBlend mode="normal" in="SourceGraphic" in2="effect1_dropShadow_2311_851" result="shape"/>
</filter>
</defs>
</svg>
