<svg width="305" height="231" viewBox="0 0 305 231" fill="none" xmlns="http://www.w3.org/2000/svg">
<g filter="url(#filter0_d_2311_802)">
<path d="M254.351 222.228C252.086 204.912 250.72 186.77 250.39 167.696C250.387 166.765 250.384 165.833 250.436 164.876C251.03 151.387 257.387 140.73 264.638 141.055C266.444 141.129 268.068 141.883 269.568 143.182C272.436 145.639 275.77 147.012 279.438 147.107C290.771 147.4 300.275 134.716 300.687 118.756C301.099 102.797 292.235 89.6385 280.929 89.3466C277.288 89.2526 273.888 90.4522 270.87 92.7575C269.277 93.9764 267.644 94.6465 265.836 94.6272C258.579 94.5768 252.781 83.6068 252.883 70.1048C252.907 69.1467 252.926 68.4349 252.95 67.5042C254.293 48.3638 256.492 30.0399 259.785 12.84C242.609 9.68462 224.398 7.37906 205.366 6.06587C204.436 6.01446 203.506 5.96304 202.547 5.96568C189.045 5.86358 178.075 11.6616 178.025 18.9194C178.005 20.7268 178.675 22.3877 179.894 23.9532C182.2 26.9438 183.4 30.3441 183.305 34.0123C183.013 45.3454 169.854 54.2096 153.895 53.7976C137.935 53.3855 125.252 43.854 125.545 32.5208C125.639 28.88 127.013 25.5188 129.47 22.6512C130.77 21.1233 131.523 19.5266 131.597 17.7206C131.921 10.4698 121.265 4.11345 107.776 3.51861C106.818 3.49387 106.106 3.4755 105.203 3.45217C86.0192 3.77861 67.6063 5.02894 50.2593 7.42989C52.6603 24.7768 54.0749 43.194 54.4287 62.3782C54.432 63.3096 54.4137 64.0214 54.3615 64.9788C53.7667 78.4681 47.4103 89.1242 40.1596 88.8C38.3536 88.726 36.7294 87.9719 35.229 86.673C32.3614 84.2158 29.0275 82.8423 25.3867 82.7483C14.0536 82.4556 4.54943 95.1397 4.13735 111.099C3.72526 127.059 12.5621 140.216 23.8952 140.509C27.5361 140.603 30.9638 139.404 33.927 137.097C35.5199 135.878 37.1534 135.208 38.9608 135.227C46.2186 135.278 52.0166 146.248 51.9145 159.75C51.8897 160.708 51.8657 161.639 51.8143 162.569C50.5011 181.6 48.0081 199.643 44.8527 216.819L254.269 222.226L254.351 222.228Z" fill="#FFC290"/>
<path d="M253.681 221.553C251.441 204.347 250.072 186.287 249.739 167.35C249.735 166.446 249.733 165.487 249.784 164.557C250.377 151.15 256.909 140.06 264.105 140.355C266.213 140.41 267.948 141.112 269.477 142.384C272.401 144.76 275.514 146.21 279.155 146.305C290.187 146.589 299.454 134.611 299.863 118.761C300.272 102.912 291.663 90.472 280.604 90.1864C276.963 90.0924 273.808 91.3532 270.764 93.5756C269.172 94.7672 267.294 95.3761 265.267 95.3512C258.065 95.2748 252.115 83.8352 252.214 70.4427C252.239 69.4846 252.256 68.8002 252.281 67.8694C253.593 48.8652 255.789 30.6509 259.052 13.5598C241.985 10.4346 224.731 8.15374 205.59 6.83772C204.66 6.78631 203.73 6.7349 202.771 6.73754C189.214 6.63402 178.774 12.0896 178.707 18.9087C178.688 20.7161 179.461 22.5988 180.735 24.1931C183.123 27.1858 184.12 30.9918 184.027 34.6052C183.737 45.8562 169.942 54.9506 153.901 54.5364C137.859 54.1222 124.552 44.3554 124.843 33.077C124.936 29.4636 126.214 25.6068 128.752 22.7687C130.106 21.2696 130.913 19.7017 130.988 17.8683C131.274 11.0548 121.517 4.88601 108.11 4.29329C107.179 4.26926 106.467 4.25088 105.536 4.22685C86.4897 4.55683 68.1862 5.80998 50.9769 8.18709C53.3533 25.4238 54.7714 43.7041 55.1007 62.7781C55.1041 63.7095 55.0864 64.3939 55.0343 65.3513C54.4423 78.7312 47.944 89.5753 40.7683 89.527C38.7966 89.5035 37.0855 88.9389 35.3689 87.5249C32.4998 85.1224 29.2769 83.6969 25.6361 83.6029C14.6588 83.3195 5.33726 95.296 4.928 111.146C4.51874 126.996 13.2098 139.438 24.1871 139.721C27.8279 139.815 31.092 138.584 34.0812 136.333C35.813 135.036 37.716 134.537 39.5768 134.612C46.7482 134.825 52.676 146.072 52.5761 159.492C52.552 160.423 52.5273 161.381 52.4766 162.284C51.1669 181.178 48.7035 199.139 45.5509 216.206L253.571 221.577L253.681 221.553Z" fill="#FFC290"/>
<path d="M252.987 220.851C250.772 203.755 249.4 185.805 249.064 166.977C249.06 166.073 249.057 165.142 249.108 164.212C249.698 150.914 256.406 139.363 263.576 139.63C265.958 139.692 267.831 140.343 269.389 141.561C272.343 143.856 275.262 145.383 278.902 145.477C289.661 145.755 298.635 134.482 299.042 118.741C299.448 103.001 291.067 91.2795 280.309 91.0017C276.668 90.9077 273.758 92.2296 270.689 94.3692C269.071 95.5053 266.974 96.1086 264.729 96.0507C257.582 95.9483 251.452 84.0658 251.549 70.7554C251.573 69.8246 251.591 69.1129 251.615 68.2095C252.924 49.3148 255.117 31.2373 258.349 14.255C241.419 11.1333 225.068 8.90319 205.845 7.58505C204.915 7.53364 203.957 7.48152 202.999 7.48416C189.36 7.37852 179.476 12.465 179.392 18.9001C179.346 20.7069 180.25 22.8121 181.551 24.4071C184.021 27.4019 184.817 31.5862 184.725 35.1723C184.436 46.3685 170.006 55.6656 153.882 55.2493C137.759 54.833 123.801 44.8028 124.09 33.6066C124.183 30.0205 125.391 25.6689 128.011 22.8329C129.392 21.3345 130.309 19.7968 130.383 17.9908C130.629 11.6146 121.744 5.63263 108.446 5.04275C107.516 5.01871 106.804 5.00034 105.901 4.97701C86.9635 5.30981 68.7977 6.53914 51.6985 8.89169C54.0504 26.0182 55.472 44.1617 55.8048 63.0988C55.8088 64.0028 55.7904 64.7146 55.739 65.6446C55.1491 78.9423 48.5085 90.002 41.3826 90.1467C39.2445 90.2011 37.4189 89.8252 35.5416 88.2701C32.6711 85.9224 29.5857 84.4731 25.9449 84.3791C15.3509 84.1055 6.212 95.3746 5.80557 111.115C5.39914 126.855 13.9443 138.581 24.5383 138.855C28.1791 138.949 31.2804 137.659 34.2682 135.463C36.1383 134.114 38.3108 133.786 40.2256 133.891C47.3374 134.293 53.3957 145.791 53.2986 159.101C53.2745 160.032 53.2505 160.963 53.1998 161.865C51.8929 180.65 49.4316 198.529 46.3373 215.46L252.961 220.796L252.987 220.851Z" fill="#FFC290"/>
<path d="M252.318 220.175C250.099 203.189 248.753 185.322 248.413 166.631C248.409 165.727 248.406 164.795 248.457 163.865C249.045 150.65 255.956 138.666 263.045 138.904C265.7 138.972 267.685 139.571 269.271 140.735C272.281 142.95 274.98 144.526 278.594 144.619C289.078 144.89 297.761 134.321 298.164 118.69C298.568 103.059 290.415 92.0561 279.958 91.7861C276.344 91.6928 273.679 93.0758 270.558 95.1045C268.914 96.1852 266.599 96.7554 264.134 96.7192C257.043 96.5909 250.733 84.2381 250.828 71.0098C250.852 70.079 250.87 69.3673 250.893 68.4639C252.2 49.7061 254.362 31.7374 257.591 14.8919C240.769 11.8005 225.377 9.59507 206.043 8.30147C205.113 8.25006 204.156 8.19794 203.197 8.20058C189.503 8.09352 180.15 12.8101 180.049 18.834C180.003 20.6407 181.01 22.9951 182.339 24.5634C184.865 27.5323 185.486 32.123 185.393 35.7091C185.107 46.8232 170.041 56.3504 153.835 55.932C137.629 55.5135 123.021 45.2201 123.308 34.106C123.4 30.5199 124.538 25.7007 127.214 22.8661C128.622 21.3685 129.619 19.8876 129.693 18.0816C129.901 12.1427 121.915 6.34834 108.7 5.76058C107.769 5.73655 107.084 5.71887 106.181 5.69555C87.3808 6.0319 69.3526 7.23736 52.3356 9.59205C54.6902 26.6091 56.0873 44.6423 56.4237 63.4425C56.4277 64.3466 56.4093 65.0583 56.3579 65.9884C55.7702 79.204 48.9876 90.4517 41.9375 90.8449C39.6331 90.9772 37.7211 90.7634 35.6542 89.1213C32.7824 86.8283 29.8353 85.3278 26.1945 85.2338C15.9564 84.9694 7.0001 95.531 6.59649 111.162C6.19289 126.793 14.5648 137.802 24.8303 138.067C28.4438 138.16 31.4096 136.812 34.4226 134.699C36.4318 133.271 38.8737 133.115 40.8419 133.276C47.868 133.813 54.0554 145.615 53.9603 158.843C53.9363 159.774 53.9123 160.705 53.8616 161.607C52.5583 180.256 50.1264 198.053 47.035 214.875L252.263 220.174L252.318 220.175Z" fill="#FFC290"/>
<path d="M251.628 219.497C249.434 202.649 248.086 184.836 247.77 166.283C247.766 165.379 247.762 164.475 247.813 163.545C248.399 150.411 255.486 137.993 262.52 138.202C265.449 138.278 267.573 138.799 269.187 139.936C272.228 142.042 274.732 143.722 278.346 143.816C288.529 144.079 296.974 134.216 297.375 118.695C297.776 103.173 289.851 92.888 279.667 92.625C276.054 92.5317 273.633 93.9759 270.488 95.9217C268.818 96.9469 266.284 97.4841 263.6 97.4422C256.537 97.2872 250.075 84.4648 250.194 71.3467C250.218 70.416 250.236 69.7316 250.259 68.8282C251.562 50.2073 253.721 32.3481 256.92 15.6114C240.207 12.5502 225.772 10.3969 206.33 9.07308C205.4 9.02167 204.442 8.96955 203.456 8.97148C189.68 8.86231 180.856 13.2365 180.739 18.849C180.692 20.6557 181.804 23.232 183.188 24.8017C185.795 27.7727 186.215 32.7416 186.123 36.3003C185.838 47.3323 170.137 57.0623 153.849 56.6418C137.561 56.2212 122.302 45.6644 122.586 34.6598C122.678 31.1011 123.747 25.7871 126.477 22.9539C127.94 21.4577 129.019 20.0063 129.065 18.2269C129.234 12.7253 122.12 7.11783 109.014 6.53289C108.083 6.50886 107.398 6.49119 106.495 6.46786C87.8317 6.80774 69.9129 8.01606 53.0335 10.3469C55.3643 27.2263 56.7642 45.1501 57.076 63.8401C57.08 64.7442 57.0624 65.4285 57.011 66.3586C56.4253 79.492 49.4996 90.9826 42.5266 91.5696C40.0832 91.7804 38.0568 91.7555 35.8018 89.9715C32.9286 87.7333 30.0924 86.1808 26.4789 86.0875C16.5967 85.8323 7.85042 95.6871 7.44965 111.209C7.04887 126.73 15.2749 137.023 25.1571 137.278C28.7706 137.371 31.5729 135.992 34.5845 133.933C36.7319 132.455 39.4442 132.442 41.4656 132.659C48.4328 133.359 54.7225 145.438 54.6296 158.584C54.6056 159.515 54.5823 160.418 54.5316 161.321C53.2592 179.833 50.8295 197.548 47.7409 214.26L251.573 219.523L251.628 219.497Z" fill="#FFC290"/>
<path d="M250.963 218.796C248.765 202.057 247.442 184.327 247.124 165.911C247.119 165.007 247.115 164.103 247.166 163.2C247.749 150.176 255.012 137.297 262.02 137.478C265.25 137.562 267.484 138.03 269.128 139.086C272.226 141.111 274.509 142.869 278.122 142.962C288.032 143.218 296.185 134.06 296.583 118.648C296.981 103.236 289.311 93.6696 279.402 93.4137C275.788 93.3204 273.613 94.8256 270.442 96.6886C268.745 97.6858 265.993 98.1899 263.091 98.115C256.083 97.9341 249.468 84.6694 249.558 71.6327C249.582 70.702 249.6 70.0176 249.622 69.1416C250.895 50.6295 253.05 32.9345 256.219 16.2793C239.615 13.2482 226.111 11.119 206.613 9.82112C205.683 9.76971 204.698 9.71688 203.739 9.71952C189.909 9.60894 181.615 13.6133 181.48 18.8419C181.434 20.6212 182.648 23.4466 184.06 25.0171C186.722 27.9895 186.967 33.3648 186.876 36.8688C186.594 47.8187 170.257 57.7787 153.887 57.3561C137.517 56.9334 121.606 46.1406 121.889 35.1908C121.98 31.6594 122.952 25.8498 125.792 23.0195C127.282 21.524 128.441 20.1295 128.487 18.3501C128.618 13.2858 122.403 7.86589 109.379 7.28305C108.475 7.25973 107.764 7.24135 106.888 7.21873C88.3339 7.56145 70.5527 8.7459 53.7834 11.0522C56.0897 27.8214 57.4932 45.6083 57.8085 64.1614C57.8126 65.0655 57.7949 65.7499 57.7442 66.6525C57.1614 79.6765 50.0916 91.4373 43.1684 92.2173C40.5586 92.506 38.4459 92.6432 35.9741 90.7714C33.1001 88.5606 30.4015 86.9843 26.788 86.891C17.2616 86.645 8.72543 95.793 8.32748 111.205C7.92953 126.617 16.0096 136.194 25.5087 136.439C29.1221 136.532 31.7616 135.094 34.7718 133.09C37.0575 131.56 40.04 131.692 42.1148 131.965C49.0229 132.828 55.4425 145.183 55.3517 158.248C55.3284 159.151 55.3043 160.082 55.2543 160.957C53.9848 179.36 51.5579 196.965 48.5268 213.569L250.963 218.796Z" fill="#FFC290"/>
</g>
<defs>
<filter id="filter0_d_2311_802" x="0.123535" y="3.45215" width="304.578" height="226.776" filterUnits="userSpaceOnUse" color-interpolation-filters="sRGB">
<feFlood flood-opacity="0" result="BackgroundImageFix"/>
<feColorMatrix in="SourceAlpha" type="matrix" values="0 0 0 0 0 0 0 0 0 0 0 0 0 0 0 0 0 0 127 0" result="hardAlpha"/>
<feOffset dy="4"/>
<feGaussianBlur stdDeviation="2"/>
<feComposite in2="hardAlpha" operator="out"/>
<feColorMatrix type="matrix" values="0 0 0 0 0 0 0 0 0 0 0 0 0 0 0 0 0 0 0.25 0"/>
<feBlend mode="normal" in2="BackgroundImageFix" result="effect1_dropShadow_2311_802"/>
<feBlend mode="normal" in="SourceGraphic" in2="effect1_dropShadow_2311_802" result="shape"/>
</filter>
</defs>
</svg>
