<svg width="305" height="224" viewBox="0 0 305 224" fill="none" xmlns="http://www.w3.org/2000/svg">
<g filter="url(#filter0_d_2311_830)">
<path d="M257.221 215.084C254.51 197.832 252.675 179.731 251.853 160.645C251.799 159.714 251.799 158.783 251.826 157.824C252.072 144.324 258.152 133.507 265.408 133.644C267.216 133.672 268.859 134.384 270.392 135.643C273.322 138.026 276.691 139.313 280.36 139.313C291.697 139.313 300.87 126.388 300.87 110.423C300.87 94.4581 291.669 81.5329 280.36 81.5329C276.718 81.5329 273.35 82.8199 270.392 85.2023C268.831 86.462 267.216 87.174 265.408 87.2014C258.152 87.3383 252.072 76.5217 251.826 63.0215C251.826 62.063 251.826 61.351 251.826 60.42C252.647 41.2513 254.4 22.8768 257.248 5.59763C239.996 2.88663 221.731 1.05191 202.672 0.230392C201.741 0.203018 200.81 0.175629 199.852 0.203003C186.351 0.449463 175.535 6.52866 175.672 13.7854C175.699 15.5927 176.411 17.2357 177.671 18.7692C180.053 21.6993 181.34 25.0675 181.34 28.7369C181.34 40.0738 168.415 49.2748 152.45 49.2748C136.485 49.2748 123.588 40.0738 123.588 28.7369C123.588 25.0949 124.875 21.6993 127.257 18.7692C128.517 17.2083 129.229 15.5927 129.256 13.7854C129.393 6.52866 118.576 0.449463 105.076 0.203003C104.118 0.203003 103.406 0.203003 102.502 0.203003C83.3335 1.02452 64.9589 2.74971 47.6797 5.59763C50.5276 22.8768 52.4172 41.2513 53.2661 60.42C53.2935 61.351 53.2935 62.063 53.2661 63.0215C53.0196 76.5217 46.9404 87.3383 39.6837 87.2014C37.8763 87.174 36.2333 86.462 34.6998 85.2023C31.7697 82.8199 28.4015 81.5329 24.7595 81.5329C13.4226 81.5329 4.24902 94.4581 4.24902 110.423C4.24902 126.388 13.45 139.313 24.7595 139.313C28.4015 139.313 31.7697 138.026 34.6998 135.643C36.2607 134.384 37.8763 133.672 39.6837 133.644C46.9404 133.507 53.0196 144.324 53.2661 157.824C53.2661 158.783 53.2661 159.714 53.2387 160.645C52.4172 179.704 50.3907 197.832 47.6797 215.084H257.166H257.221Z" fill="#FFC290"/>
<path d="M256.507 214.425C253.823 197.283 251.988 179.265 251.167 160.315C251.139 159.411 251.112 158.453 251.139 157.522C251.386 144.104 257.629 132.849 264.831 132.959C266.94 132.959 268.692 133.616 270.253 134.848C273.238 137.148 276.387 138.518 280.029 138.518C291.065 138.518 300.019 126.304 300.019 110.449C300.019 94.594 291.092 82.3808 280.029 82.3808C276.387 82.3808 273.265 83.7226 270.281 86.0228C268.72 87.2551 266.858 87.9123 264.831 87.9397C257.629 88.0492 251.386 76.7671 251.139 63.3764C251.139 62.418 251.139 61.7334 251.139 60.8024C251.961 41.7706 253.686 23.5056 256.507 6.33598C239.364 3.65237 222.058 1.81767 202.889 0.996155C201.958 0.968765 201.027 0.941376 200.069 0.968765C186.514 1.21523 176.217 6.93845 176.327 13.757C176.354 15.5643 177.176 17.4264 178.49 18.9873C180.955 21.9174 182.05 25.6964 182.05 29.311C182.05 40.5658 168.495 50.0132 152.448 50.0132C136.401 50.0132 122.846 40.5931 122.846 29.311C122.846 25.6964 124.024 21.8078 126.488 18.9052C127.803 17.3717 128.569 15.7834 128.597 13.9487C128.706 7.13013 118.793 1.21523 105.375 0.968765C104.444 0.968765 103.732 0.968765 102.801 0.968765C83.7695 1.79028 65.5045 3.51546 48.3622 6.33598C51.1827 23.5056 53.0723 41.7432 53.9212 60.8024C53.9486 61.7334 53.9486 62.418 53.9212 63.3764C53.6747 76.7671 47.4585 87.7754 40.284 87.9123C38.3123 87.9397 36.5872 87.4194 34.8346 86.0502C31.9045 83.7226 28.646 82.3808 25.0313 82.3808C14.0504 82.3808 5.04102 94.594 5.04102 110.449C5.04102 126.304 14.0504 138.518 25.0313 138.518C28.6734 138.518 31.9045 137.203 34.8346 134.876C36.5324 133.534 38.4219 132.986 40.284 133.013C47.4585 133.041 53.6747 144.131 53.9212 157.549C53.9212 158.48 53.9212 159.439 53.8938 160.342C53.0723 179.265 51.0458 197.311 48.3622 214.453H256.452L256.507 214.425Z" fill="#FFC290"/>
<path d="M255.796 213.742C253.14 196.709 251.305 178.773 250.484 159.96C250.456 159.057 250.429 158.126 250.456 157.195C250.703 143.886 257.111 132.166 264.258 132.248C266.64 132.248 268.53 132.85 270.118 134.028C273.13 136.246 276.087 137.697 279.73 137.697C290.491 137.697 299.172 126.196 299.172 110.451C299.172 94.7048 290.491 83.2036 279.73 83.2036C276.087 83.2036 273.212 84.6002 270.2 86.8183C268.612 87.9958 266.531 88.653 264.285 88.653C257.138 88.7352 250.703 77.0149 250.456 63.7064C250.456 62.7753 250.456 62.0633 250.456 61.1597C251.278 42.2375 253.003 24.1094 255.796 7.04926C238.791 4.36565 222.388 2.55832 203.137 1.76419C202.206 1.7368 201.248 1.70941 200.289 1.7368C186.652 1.98325 176.903 7.3231 176.986 13.7583C176.986 15.5656 177.944 17.6468 179.286 19.2077C181.832 22.1377 182.736 26.3001 182.736 29.8874C182.736 41.06 168.551 50.7538 152.422 50.7538C136.293 50.7538 122.081 41.0873 122.081 29.8874C122.081 26.3001 123.176 21.9187 125.723 19.016C127.065 17.4825 127.941 15.9216 127.969 14.1143C128.051 7.73386 119.014 1.98325 105.705 1.7368C104.774 1.7368 104.062 1.7368 103.159 1.7368C84.2366 2.5583 66.1085 4.25612 49.0758 7.04926C51.869 24.1094 53.7585 42.2101 54.58 61.1323C54.6074 62.0359 54.6074 62.7479 54.58 63.679C54.3335 76.9875 47.9805 88.2149 40.8607 88.5435C38.7247 88.653 36.89 88.3244 34.9731 86.8457C32.043 84.5728 28.9214 83.2036 25.3067 83.2036C14.7092 83.2036 5.86426 94.7048 5.86426 110.451C5.86426 126.196 14.7092 137.697 25.3067 137.697C28.9487 137.697 32.0158 136.328 34.9458 134.055C36.7806 132.659 38.9438 132.275 40.8607 132.33C47.9805 132.549 54.3335 143.886 54.58 157.195C54.58 158.126 54.58 159.057 54.5526 159.96C53.7311 178.773 51.732 196.709 49.0758 213.715H255.769L255.796 213.742Z" fill="#FFC290"/>
<path d="M255.111 213.084C252.455 196.161 250.648 178.334 249.854 159.658C249.826 158.755 249.799 157.824 249.826 156.893C250.073 143.666 256.672 131.508 263.765 131.563C266.421 131.563 268.42 132.11 270.036 133.233C273.103 135.369 275.841 136.875 279.456 136.875C289.944 136.875 298.378 126.086 298.378 110.45C298.378 94.8136 289.944 84.0244 279.456 84.0244C275.841 84.0244 273.212 85.4757 270.145 87.5843C268.529 88.707 266.229 89.3368 263.765 89.3642C256.672 89.419 250.045 77.2332 249.799 64.0068C249.799 63.0757 249.799 62.3638 249.799 61.4601C250.62 42.6748 252.318 24.6563 255.111 7.73309C238.216 5.07686 222.771 3.26953 203.411 2.4754C202.48 2.44801 201.521 2.42062 200.563 2.44801C186.871 2.69446 177.643 7.65092 177.697 13.6754C177.697 15.4827 178.765 17.8103 180.134 19.3438C182.736 22.2465 183.475 26.8196 183.475 30.4069C183.475 41.5247 168.661 51.4376 152.449 51.4376C136.238 51.4376 121.369 41.5247 121.369 30.4069C121.369 26.8196 122.382 21.9727 124.984 19.07C126.353 17.5365 127.311 16.0304 127.339 14.2231C127.393 8.28076 119.26 2.69446 106.034 2.44801C105.103 2.44801 104.418 2.44801 103.515 2.44801C84.7293 3.26953 66.7382 4.93994 49.7876 7.73309C52.5808 24.6837 54.4429 42.6748 55.2644 61.4601C55.2918 62.3638 55.2918 63.0757 55.2644 64.0068C55.0179 77.2332 48.5279 88.6522 41.4903 89.2273C39.19 89.419 37.2732 89.2547 35.1646 87.6664C32.2345 85.4483 29.2497 84.0244 25.6077 84.0244C15.3661 84.0244 6.68555 94.8136 6.68555 110.45C6.68555 126.086 15.3388 136.875 25.6077 136.875C29.2223 136.875 32.1525 135.451 35.1099 133.26C37.0816 131.782 39.5186 131.563 41.4903 131.672C48.5279 132.028 55.0179 143.666 55.2644 156.893C55.2644 157.824 55.2644 158.755 55.237 159.658C54.4155 178.334 52.4439 196.188 49.7876 213.084H255.084H255.111Z" fill="#FFC290"/>
<path d="M254.396 212.399C251.767 195.613 249.96 177.841 249.166 159.302C249.139 158.398 249.111 157.494 249.139 156.563C249.385 143.419 256.149 130.823 263.186 130.85C266.116 130.85 268.252 131.315 269.895 132.411C272.99 134.437 275.537 136.053 279.151 136.053C289.338 136.053 297.526 125.976 297.526 110.449C297.526 94.9224 289.338 84.8451 279.151 84.8451C275.537 84.8451 273.154 86.3513 270.06 88.3777C268.417 89.4456 265.897 90.0481 263.214 90.0755C256.149 90.1028 249.385 77.4515 249.139 64.3347C249.139 63.4036 249.139 62.719 249.139 61.8154C249.96 43.167 251.658 25.258 254.396 8.44435C237.61 5.81551 223.124 4.03555 203.681 3.21404C202.75 3.18665 201.792 3.15929 200.806 3.18666C187.032 3.43312 178.324 8.0336 178.351 13.6473C178.351 15.4546 179.529 18.0013 180.953 19.5348C183.637 22.4375 184.184 27.394 184.184 30.9538C184.184 41.9895 168.74 52.1215 152.446 52.1215C136.153 52.1215 120.626 41.9621 120.626 30.9538C120.626 27.394 121.557 22.0541 124.241 19.1514C125.665 17.6179 126.705 16.1666 126.705 14.3592C126.733 8.8551 119.476 3.43312 106.359 3.18666C105.428 3.18666 104.744 3.18666 103.84 3.18666C85.1917 4.00818 67.3101 5.67859 50.4964 8.44435C53.2622 25.258 55.1243 43.1396 55.9184 61.8154C55.9458 62.719 55.9458 63.4036 55.9184 64.3347C55.6719 77.4789 49.0451 89.1444 42.0896 89.9112C39.6524 90.185 37.6259 90.2124 35.3257 88.4872C32.3956 86.3239 29.5203 84.8451 25.9057 84.8451C16.0201 84.8451 7.53125 94.9224 7.53125 110.449C7.53125 125.976 16.0201 136.053 25.9057 136.053C29.5203 136.053 32.2862 134.602 35.2436 132.466C37.3522 130.932 40.0632 130.85 42.0896 131.014C49.0725 131.535 55.6993 143.446 55.9184 156.591C55.9184 157.522 55.9184 158.425 55.891 159.329C55.0968 177.868 53.1253 195.64 50.469 212.426H254.369L254.396 212.399Z" fill="#FFC290"/>
<path d="M253.719 211.741C251.118 195.064 249.31 177.374 248.516 158.972C248.489 158.069 248.461 157.165 248.489 156.261C248.735 143.227 255.663 130.165 262.674 130.165C265.905 130.165 268.15 130.575 269.821 131.589C272.97 133.533 275.298 135.231 278.912 135.231C288.825 135.231 296.739 125.865 296.739 110.448C296.739 95.0312 288.825 85.6659 278.912 85.6659C275.298 85.6659 273.162 87.2268 270.04 89.171C268.397 90.2116 265.631 90.7867 262.728 90.7867C255.718 90.7867 248.763 77.6972 248.516 64.6625C248.516 63.7315 248.516 63.0469 248.516 62.1706C249.31 43.6317 251.008 25.8871 253.746 9.15555C237.07 6.55409 223.515 4.77414 203.99 3.98001C203.059 3.95262 202.073 3.92523 201.115 3.95262C187.286 4.19908 179.098 8.41618 179.098 13.6465C179.098 15.4264 180.385 18.2196 181.837 19.7531C184.575 22.6557 184.958 28.023 184.958 31.5281C184.958 42.4816 168.884 52.8601 152.509 52.8601C136.133 52.8601 119.949 42.4816 119.949 31.5281C119.949 27.9956 120.771 22.1628 123.537 19.2602C124.988 17.7267 126.111 16.3027 126.111 14.5228C126.111 9.45677 119.758 4.19908 106.723 3.95262C105.819 3.95262 105.107 3.95262 104.231 3.95262C85.6922 4.77414 67.9474 6.41716 51.2432 9.18292C53.9816 25.887 55.8438 43.6317 56.6379 62.1706C56.6653 63.0742 56.6653 63.7589 56.6379 64.6625C56.3915 77.6972 49.6276 89.6365 42.7269 90.595C40.1255 90.951 38.0169 91.1427 35.4976 89.3353C32.5675 87.1994 29.8292 85.6933 26.2146 85.6933C16.685 85.6933 8.3877 95.0585 8.3877 110.476C8.3877 125.893 16.7124 135.258 26.2146 135.258C29.8292 135.258 32.4306 133.752 35.3881 131.671C37.6336 130.082 40.6183 130.137 42.6995 130.356C49.6276 131.041 56.3641 143.227 56.6105 156.289C56.6105 157.192 56.6105 158.123 56.5831 159C55.789 177.429 53.8175 195.092 51.216 211.768H253.719V211.741Z" fill="#FFC290"/>
</g>
<defs>
<filter id="filter0_d_2311_830" x="0.249023" y="0.19165" width="304.622" height="222.892" filterUnits="userSpaceOnUse" color-interpolation-filters="sRGB">
<feFlood flood-opacity="0" result="BackgroundImageFix"/>
<feColorMatrix in="SourceAlpha" type="matrix" values="0 0 0 0 0 0 0 0 0 0 0 0 0 0 0 0 0 0 127 0" result="hardAlpha"/>
<feOffset dy="4"/>
<feGaussianBlur stdDeviation="2"/>
<feComposite in2="hardAlpha" operator="out"/>
<feColorMatrix type="matrix" values="0 0 0 0 0 0 0 0 0 0 0 0 0 0 0 0 0 0 0.25 0"/>
<feBlend mode="normal" in2="BackgroundImageFix" result="effect1_dropShadow_2311_830"/>
<feBlend mode="normal" in="SourceGraphic" in2="effect1_dropShadow_2311_830" result="shape"/>
</filter>
</defs>
</svg>
