<svg width="241" height="279" viewBox="0 0 241 279" fill="none" xmlns="http://www.w3.org/2000/svg">
<g filter="url(#filter0_d_2311_865)">
<path d="M214.447 270.092C218.684 253.1 221.848 235.114 224.245 216.077C224.348 215.151 224.406 214.441 224.454 213.511C225.301 200.035 220.117 188.762 212.873 188.311C211.069 188.192 209.374 188.769 207.744 189.9C204.628 192.065 201.169 193.048 197.539 192.753C186.239 191.836 178.142 178.21 179.434 162.298C180.726 146.386 190.916 134.245 202.216 135.163C205.846 135.458 209.126 137.015 211.826 139.625C213.28 141.007 214.833 141.847 216.632 142.021C223.854 142.745 230.789 132.456 232.127 119.02C232.204 118.064 232.28 117.136 232.328 116.206C233.052 97.1429 232.701 78.7894 231.395 61.3748C213.981 62.6805 195.627 63.0309 176.562 62.3344C175.632 62.2864 174.702 62.2383 173.748 62.1334C160.313 60.7951 150.023 53.8604 150.747 46.6386C150.921 44.8394 151.763 43.2594 153.143 41.8329C155.755 39.1053 157.31 35.8522 157.607 32.1949C158.525 20.8952 146.387 10.6783 130.474 9.38612C114.562 8.09397 100.935 16.2186 100.017 27.5183C99.7222 31.1484 100.73 34.637 102.868 37.7503C103.997 39.408 104.576 41.076 104.457 42.8796C104.006 50.1236 92.7326 55.3074 79.2568 54.4604C78.3015 54.3828 77.5919 54.3252 76.6912 54.252C57.6519 51.8817 39.4795 48.6477 22.4875 44.4106C18.3891 61.3864 15.0798 79.4703 12.7184 98.4004C12.6157 99.3262 12.5131 100.252 12.4628 101.209C11.6158 114.685 16.7996 125.958 24.0436 126.409C25.8472 126.528 27.5425 125.952 29.1729 124.82C32.2862 122.683 35.7475 121.673 39.4049 121.97C50.7046 122.887 58.8019 136.512 57.5098 152.425C56.2176 168.337 46.028 180.477 34.7283 179.56C31.0982 179.265 27.8179 177.707 25.0903 175.096C23.6638 173.716 22.0838 172.873 20.2846 172.7C13.0628 171.976 6.12807 182.265 4.78975 195.701C4.71218 196.656 4.65455 197.366 4.58141 198.267C3.84877 217.439 4.09662 235.702 5.53666 253.155L214.363 270.112L214.447 270.092Z" fill="#FD874E"/>
<path d="M213.788 269.378C217.989 252.493 221.147 234.589 223.533 215.688C223.633 214.79 223.691 214.08 223.741 213.123C224.58 199.756 219.566 189.431 212.87 188.997C211.066 188.878 209.367 189.509 207.709 190.638C204.48 192.849 200.809 193.732 197.179 193.437C185.743 192.509 177.399 178.204 178.697 162.21C179.996 146.215 190.428 133.463 201.918 134.396C205.521 134.689 209.029 136.155 211.914 138.862C213.395 140.246 214.943 141.141 216.742 141.314C223.42 141.967 230.067 132.176 231.41 118.685C231.488 117.73 231.563 116.802 231.611 115.872C232.344 96.6997 231.916 79.3015 230.628 61.9982C213.325 63.2856 195.081 63.6449 176.154 62.9322C175.251 62.8863 174.294 62.836 173.368 62.7334C160.041 61.4039 149.301 54.2677 149.993 47.0983C150.164 44.9967 150.961 43.3031 152.316 41.847C154.848 39.0855 156.469 36.0302 156.764 32.4001C157.66 21.3733 146.209 11.487 130.406 10.2037C114.603 8.92042 101.707 16.8298 100.812 27.8565C100.517 31.4866 101.601 34.7067 103.653 37.8679C104.727 39.5212 105.259 41.4326 105.122 43.4546C104.648 50.6418 92.8958 55.9789 79.5291 55.1408C78.5738 55.0632 77.8914 55.0078 76.9634 54.9324C58.0606 52.5732 39.9952 49.3754 23.1374 45.1767C19.0752 62.0455 15.8435 79.1741 13.4755 98.186C13.3728 99.1118 13.2702 100.038 13.2199 100.995C12.3684 114.526 17.2395 125.251 24.0446 125.694C25.8482 125.813 27.7707 125.145 29.4055 123.959C32.5254 121.74 36.3807 120.954 39.9835 121.246C51.2013 122.157 59.4933 136.43 58.1945 152.424C56.8957 168.419 46.4073 181.194 35.1894 180.283C31.5866 179.991 27.8062 178.502 25.1125 175.811C23.6904 174.377 22.1694 173.484 20.3703 173.31C13.5829 172.649 6.88291 182.078 5.55346 195.405C5.47588 196.36 5.42047 197.043 5.34512 197.971C4.62134 217.034 4.87581 235.215 6.29743 252.556L213.732 269.401L213.788 269.378Z" fill="#FD874E"/>
<path d="M213.159 268.668C217.324 251.89 220.472 234.096 222.822 215.302C222.923 214.404 222.98 213.694 223.029 212.764C223.86 199.479 218.987 190.127 212.867 189.712C211.066 189.566 209.359 190.279 207.672 191.433C204.3 193.714 200.444 194.5 196.842 194.208C185.242 193.266 176.678 178.284 177.983 162.208C179.288 146.132 189.962 132.767 201.644 133.715C205.219 134.006 208.952 135.408 211.996 138.183C213.504 139.569 215.046 140.546 216.845 140.719C223.007 141.302 229.337 132.035 230.686 118.463C230.764 117.508 230.841 116.552 230.889 115.622C231.629 96.3681 231.153 79.9 229.884 62.7082C212.692 63.9771 194.584 64.3474 175.767 63.6436C174.864 63.5978 173.933 63.5497 173.008 63.4471C159.763 62.1242 148.602 54.7616 149.262 47.6445C149.455 45.2699 150.208 43.4354 151.51 41.9476C153.965 39.1248 155.651 36.2945 155.946 32.6644C156.817 21.9379 146.056 12.3549 130.362 11.0804C114.668 9.80603 102.502 17.5273 101.631 28.2539C101.336 31.884 102.495 34.8629 104.462 38.0447C105.507 39.7231 105.994 41.8506 105.812 44.0887C105.316 51.2191 93.113 56.6846 79.8282 55.8531C78.9002 55.7777 78.1906 55.7201 77.2899 55.6469C58.5236 53.2988 40.5946 50.1121 23.8165 45.9473C19.7904 62.7091 16.6363 78.8824 14.2867 98.0058C14.184 98.9316 14.0792 99.8846 14.0289 100.842C13.1708 114.454 17.7019 124.631 24.1248 125.042C25.9262 125.189 28.0781 124.402 29.7425 123.191C32.8418 120.887 37.0909 120.326 40.6664 120.616C51.8023 121.52 60.289 136.441 58.9836 152.517C57.6781 168.593 46.8908 182.004 35.7549 181.099C32.1794 180.809 27.901 179.363 25.214 176.589C23.7941 175.128 22.3093 174.128 20.5101 173.955C14.1573 173.356 7.69413 181.898 6.37132 195.143C6.29597 196.071 6.23834 196.78 6.1652 197.681C5.45251 216.608 5.68636 234.705 7.08955 251.935L213.132 268.666L213.159 268.668Z" fill="#FD874E"/>
<path d="M212.51 267.928C216.664 251.286 219.781 233.544 222.12 214.887C222.22 213.988 222.276 213.306 222.326 212.349C223.151 199.146 218.446 190.769 212.874 190.371C211.072 190.225 209.362 190.993 207.647 192.145C204.161 194.472 200.094 195.158 196.519 194.868C184.783 193.914 175.971 178.253 177.283 162.095C178.596 145.937 189.511 131.96 201.384 132.924C204.932 133.212 208.892 134.523 212.093 137.393C213.629 138.781 215.166 139.813 216.965 139.986C222.583 140.498 228.625 131.73 229.981 118.075C230.059 117.12 230.137 116.165 230.185 115.234C230.933 95.8711 230.407 80.3605 229.129 63.2779C212.073 64.5579 194.077 64.9098 175.396 64.217C174.493 64.1712 173.563 64.1231 172.637 64.0205C159.474 62.7043 147.89 55.1424 148.518 48.0777C148.733 45.4302 149.443 43.4547 150.693 41.9353C153.068 39.0785 154.793 36.4437 155.085 32.8409C155.934 22.3873 145.863 13.1075 130.278 11.842C114.693 10.5764 103.257 18.1097 102.408 28.5633C102.116 32.1661 103.349 34.9038 105.203 38.1314C106.191 39.8326 106.633 42.1763 106.433 44.6327C105.914 51.7063 93.2314 57.3252 80.0558 56.5025C79.1278 56.4272 78.4181 56.3695 77.5174 56.2964C58.8603 53.9572 41.0656 50.8088 24.3967 46.6528C20.3817 63.2782 17.3302 78.5257 14.9717 97.7583C14.8691 98.6841 14.7642 99.6372 14.714 100.595C13.8492 114.289 18.0425 123.888 24.0516 124.321C25.853 124.467 28.2594 123.591 29.8987 122.351C33.0024 119.993 37.6203 119.626 41.1958 119.916C52.2772 120.816 60.929 136.41 59.6191 152.54C58.3093 168.671 47.2209 182.744 36.1669 181.846C32.5914 181.556 27.8423 180.154 25.1597 177.326C23.7421 175.837 22.3185 174.76 20.5193 174.586C14.6009 174.051 8.37475 181.705 7.05859 194.868C6.98324 195.796 6.92783 196.478 6.85247 197.406C6.15086 216.197 6.36405 234.209 7.77609 251.33L212.426 267.949L212.51 267.928Z" fill="#FD874E"/>
<path d="M211.845 267.214C215.962 250.679 219.072 233.018 221.401 214.498C221.501 213.599 221.556 212.917 221.604 211.987C222.423 198.866 217.886 191.464 212.862 191.083C211.06 190.937 209.345 191.759 207.603 192.909C203.974 195.307 199.723 195.896 196.175 195.608C184.275 194.641 175.244 178.303 176.562 162.063C177.881 145.823 189.012 131.232 201.076 132.211C204.624 132.499 208.809 133.746 212.167 136.711C213.73 138.102 215.26 139.215 217.062 139.361C222.164 139.803 227.89 131.531 229.251 117.823C229.329 116.867 229.406 115.912 229.456 114.954C230.241 95.4842 229.609 80.9267 228.35 63.9554C211.406 65.217 193.519 65.5778 174.977 64.8688C174.074 64.823 173.171 64.7771 172.245 64.6745C159.191 63.3672 147.156 55.6038 147.755 48.5642C147.994 45.6164 148.631 43.5252 149.854 42.0035C152.124 39.0833 153.941 36.6757 154.233 33.0729C155.06 22.8923 145.676 13.9431 130.2 12.6864C114.725 11.4297 104.018 18.775 103.193 28.9283C102.901 32.5311 104.209 35.0276 105.978 38.2758C106.91 39.9999 107.307 42.5597 107.117 45.2367C106.572 52.2808 93.4399 58.0279 80.3188 57.2097C79.3908 57.1344 78.7085 57.079 77.8078 57.0058C59.2871 54.6777 41.6016 51.5381 25.0669 47.4206C21.0881 63.939 18.1393 78.2608 15.7468 97.573C15.6442 98.4988 15.5393 99.4518 15.4868 100.437C14.6176 114.185 18.4982 123.237 24.0957 123.664C25.8971 123.811 28.5307 122.843 30.1744 121.548C33.2848 119.108 38.2693 118.963 41.8176 119.251C52.817 120.145 61.6635 136.386 60.347 152.598C59.0305 168.811 47.6706 183.521 36.6711 182.628C33.1229 182.34 27.876 180.98 25.2 178.07C23.7868 176.527 22.4244 175.372 20.623 175.226C15.1392 174.753 9.14762 181.547 7.84033 194.601C7.76497 195.529 7.70956 196.211 7.63642 197.112C6.94367 215.793 7.16574 233.696 8.55936 250.706L211.817 267.211L211.845 267.214Z" fill="#FD874E"/>
<path d="M211.194 266.505C215.275 250.077 218.377 232.526 220.669 214.112C220.769 213.214 220.824 212.531 220.87 211.628C221.68 198.616 217.313 192.163 212.837 191.799C211.036 191.653 209.316 192.53 207.547 193.677C203.804 196.121 199.341 196.61 195.82 196.324C183.756 195.345 174.478 178.327 175.802 162.032C177.125 145.738 188.5 130.507 200.755 131.502C204.275 131.788 208.687 132.943 212.203 136.003C213.793 137.396 215.319 138.564 217.121 138.71C221.706 139.083 227.116 131.335 228.483 117.544C228.563 116.561 228.64 115.606 228.688 114.676C229.479 95.1235 228.8 81.4962 227.529 64.6615C210.695 65.9319 192.946 66.2765 174.513 65.5764C173.637 65.5327 172.707 65.4847 171.809 65.3842C158.837 64.0836 146.378 56.121 146.945 49.1338C147.207 45.9131 147.798 43.7082 148.943 42.1253C151.134 39.1711 153.017 36.9613 153.309 33.3585C154.111 23.4781 145.42 14.8048 130.053 13.557C114.687 12.3092 104.709 19.4664 103.907 29.3468C103.615 32.9496 104.997 35.2049 106.683 38.4738C107.585 40.2229 107.936 42.9989 107.701 45.892C107.134 52.8793 93.5244 58.7525 80.5125 57.9432C79.5845 57.8678 78.9021 57.8124 78.0287 57.7415C59.6423 55.4517 42.0659 52.3211 25.6382 48.2397C21.6955 64.6511 18.8243 78.0176 16.4503 97.4412C16.3454 98.3942 16.2406 99.3473 16.1903 100.305C15.3144 114.136 18.8572 122.61 24.0431 123.032C25.8172 123.176 28.7053 122.119 30.3513 120.796C33.4661 118.302 38.8467 118.354 42.3403 118.638C53.2579 119.524 62.2991 136.413 60.9759 152.708C59.6527 169.002 47.9963 184.32 37.0787 183.434C33.5578 183.148 27.8106 181.857 25.1413 178.865C23.7303 177.295 22.4019 176.06 20.6278 175.916C15.5784 175.506 9.82377 181.413 8.52091 194.412C8.44555 195.34 8.39014 196.023 8.31922 196.896C7.61026 215.438 7.83679 233.287 9.2142 250.158L211.08 266.55L211.194 266.505Z" fill="#FD874E"/>
</g>
<defs>
<filter id="filter0_d_2311_865" x="0.181152" y="9.2511" width="236.517" height="268.861" filterUnits="userSpaceOnUse" color-interpolation-filters="sRGB">
<feFlood flood-opacity="0" result="BackgroundImageFix"/>
<feColorMatrix in="SourceAlpha" type="matrix" values="0 0 0 0 0 0 0 0 0 0 0 0 0 0 0 0 0 0 127 0" result="hardAlpha"/>
<feOffset dy="4"/>
<feGaussianBlur stdDeviation="2"/>
<feComposite in2="hardAlpha" operator="out"/>
<feColorMatrix type="matrix" values="0 0 0 0 0 0 0 0 0 0 0 0 0 0 0 0 0 0 0.25 0"/>
<feBlend mode="normal" in2="BackgroundImageFix" result="effect1_dropShadow_2311_865"/>
<feBlend mode="normal" in="SourceGraphic" in2="effect1_dropShadow_2311_865" result="shape"/>
</filter>
</defs>
</svg>
