<svg width="330" height="268" viewBox="0 0 330 268" fill="none" xmlns="http://www.w3.org/2000/svg">
<g filter="url(#filter0_d_2311_823)">
<path d="M44.3062 219.871C60.8614 225.581 78.6895 230.342 97.4431 234.399C98.3563 234.582 99.0582 234.702 99.9806 234.831C113.33 236.856 125.014 232.68 126.072 225.499C126.348 223.713 125.922 221.974 124.938 220.25C123.082 216.962 122.379 213.425 122.996 209.808C124.9 198.632 139.187 191.733 154.925 194.415C170.663 197.097 181.836 208.307 179.927 219.51C179.315 223.1 177.476 226.231 174.635 228.72C173.131 230.047 172.158 231.52 171.828 233.297C170.473 240.427 180.115 248.237 193.382 250.748C194.327 250.909 195.245 251.066 196.167 251.195C215.093 253.587 233.407 254.847 250.869 255.072C250.964 237.56 252.351 219.157 254.734 200.118C254.863 199.196 254.983 198.494 255.166 197.581C257.677 184.314 265.487 174.672 272.618 176.026C274.395 176.357 275.895 177.335 277.195 178.834C279.683 181.675 282.787 183.51 286.405 184.126C297.58 186.031 308.795 174.83 311.477 159.092C314.159 143.355 307.26 129.067 296.111 127.167C292.521 126.556 288.989 127.231 285.669 129.11C283.945 130.094 282.206 130.52 280.42 130.243C273.243 129.159 269.068 117.475 271.093 104.126C271.254 103.181 271.41 102.263 271.594 101.35C275.605 82.6994 280.514 64.9798 286.058 48.424C269.506 42.8534 251.809 37.9763 233.186 33.9692C232.273 33.7858 231.359 33.6024 230.41 33.4684C217.06 31.4434 205.376 35.6191 204.292 42.7957C204.015 44.5819 204.441 46.3212 205.425 48.0445C207.282 51.3331 207.985 54.8697 207.368 58.487C205.464 69.6628 191.176 76.5616 175.466 73.8842C159.755 71.2068 148.532 59.9607 150.437 48.7849C151.048 45.1946 152.888 42.0635 155.728 39.5753C157.232 38.2482 158.206 36.7752 158.536 34.9981C159.89 27.8675 150.249 20.0576 137.009 17.5513C136.064 17.3903 135.362 17.2707 134.471 17.1188C115.437 14.7085 97.0337 13.3223 79.5487 13.2315C79.3229 30.6936 78.2475 49.0664 75.8555 67.9927C75.7261 68.9151 75.5967 69.8375 75.4087 70.7777C72.8978 84.0447 65.0879 93.6863 57.9573 92.3322C56.1802 92.0016 54.6801 91.0237 53.3801 89.5243C50.8965 86.6566 47.7877 84.849 44.1705 84.2325C32.9947 82.328 21.7802 93.5284 19.0982 109.266C16.4162 125.004 23.288 139.287 34.4638 141.191C38.0541 141.803 41.6176 141.105 44.9063 139.248C46.6566 138.269 48.3689 137.838 50.1551 138.115C57.3317 139.199 61.5073 150.883 59.4823 164.233C59.3213 165.178 59.2017 165.88 59.0499 166.771C54.9928 185.524 50.0434 203.32 44.3332 219.875L44.3062 219.871Z" fill="#FFE1CA"/>
<path d="M45.1272 219.29C61.579 224.955 79.2722 229.692 97.8909 233.727C98.7771 233.905 99.479 234.025 100.428 234.159C113.67 236.166 124.463 232.005 125.5 225.265C125.804 223.483 125.261 221.779 124.254 220.024C122.317 216.722 121.805 212.718 122.412 209.155C124.303 198.06 139.275 191.055 155.067 193.747C170.859 196.438 182.665 208.006 180.775 219.1C180.167 222.664 178.453 226.205 175.531 228.679C173.978 229.97 172.882 231.672 172.524 233.445C171.266 240.175 180.459 247.52 193.78 250.04C194.725 250.201 195.643 250.357 196.565 250.487C215.573 252.893 232.969 253.996 250.318 254.23C250.422 236.831 251.79 218.536 254.177 199.636C254.306 198.714 254.421 198.039 254.609 197.099C257.102 183.94 265.179 173.871 272.233 175.185C274.226 175.552 275.947 176.54 277.283 177.99C279.839 180.759 282.691 182.606 286.281 183.218C297.16 185.072 308.039 174.536 310.703 158.907C313.366 143.277 306.618 129.737 295.712 127.879C292.122 127.267 288.76 128.083 285.459 129.854C283.713 130.806 281.879 131.133 279.796 130.806C272.678 129.704 268.414 117.56 270.425 104.291C270.586 103.346 270.743 102.429 270.922 101.542C274.91 83.0271 279.774 65.4109 285.299 48.9631C268.851 43.4379 252.099 38.7218 233.367 34.6963C232.454 34.5129 231.541 34.3295 230.592 34.1955C217.188 32.1613 206.058 36.1814 205.039 42.8135C204.762 44.5997 205.242 46.3482 206.222 48.0985C208.131 51.563 208.685 55.3241 208.078 58.8874C206.141 70.2521 191.205 77.2071 175.386 74.5113C159.568 71.8155 147.797 60.1982 149.729 48.8605C150.336 45.2972 152.1 41.9587 155.044 39.3493C156.548 38.0223 157.58 36.5314 157.911 34.7543C159.146 28.1591 150.408 20.7531 137.222 18.256C136.304 18.0996 135.602 17.98 134.684 17.8235C115.785 15.4362 97.5168 14.073 80.1173 13.969C79.883 31.3185 78.8306 49.5563 76.457 68.3746C76.3276 69.297 76.2028 70.1925 76.0148 71.1327C73.5222 84.2917 65.5267 94.2072 58.4495 93.0289C56.6139 92.7161 54.8117 91.8812 53.3904 90.2778C50.893 87.491 47.9285 85.6525 44.3382 85.0406C33.5133 83.1959 22.5804 93.722 19.9168 109.352C17.2532 124.982 24.0827 138.535 34.9075 140.38C38.4978 140.991 41.9086 140.212 45.2151 138.414C47.1457 137.354 48.9608 137.135 50.8998 137.494C57.954 138.807 62.2324 150.703 60.2212 163.972C60.0648 164.89 59.9452 165.591 59.7888 166.509C55.7771 185.16 50.8237 202.816 45.1858 219.272L45.1272 219.29Z" fill="#FFE1CA"/>
<path d="M45.9182 218.731C62.2397 224.346 79.8249 229.065 98.3402 233.054C99.2264 233.233 99.9282 233.352 100.851 233.482C114.011 235.475 123.886 231.324 124.877 225.02C125.18 223.239 124.547 221.575 123.486 219.811C121.464 216.522 121.12 212.019 121.723 208.482C123.604 197.442 139.261 190.332 155.133 193.037C171.006 195.742 183.393 207.658 181.516 218.672C180.913 222.208 179.318 226.187 176.32 228.62C174.74 229.907 173.468 231.829 173.137 233.606C171.975 239.936 180.688 246.837 194.09 249.371C195.035 249.532 195.98 249.693 196.902 249.823C216.017 252.247 232.464 253.216 249.701 253.459C249.813 236.172 251.158 218.012 253.527 199.221C253.652 198.325 253.771 197.624 253.955 196.71C256.433 183.632 264.751 173.133 271.783 174.414C273.996 174.792 275.933 175.816 277.305 177.217C279.902 179.909 282.502 181.769 286.092 182.381C296.701 184.189 307.19 174.309 309.836 158.787C312.481 143.266 305.856 130.47 295.247 128.662C291.656 128.05 288.497 128.984 285.155 130.664C283.392 131.558 281.432 131.808 279.079 131.434C272.02 130.315 267.645 117.68 269.638 104.519C269.794 103.601 269.951 102.683 270.13 101.797C274.1 83.3899 278.913 65.9041 284.415 49.5913C268.098 44.116 252.263 39.5563 233.424 35.5125C232.511 35.3291 231.571 35.141 230.621 35.007C217.137 32.959 206.593 36.8012 205.634 42.9158C205.33 44.6974 205.923 46.4373 206.893 48.2416C208.856 51.8818 209.265 55.8405 208.662 59.3768C206.693 70.9305 191.105 77.9686 175.205 75.259C159.305 72.5494 146.937 60.5248 148.892 49.0521C149.495 45.5158 151.214 41.9475 154.258 39.244C155.794 37.8945 156.88 36.4129 157.21 34.6358C158.322 28.6028 150.464 21.5692 137.386 19.0905C136.469 18.9341 135.767 18.8145 134.876 18.6627C116.085 16.2937 97.956 14.9265 80.6691 14.814C80.4262 32.0509 79.3652 50.1762 77.0192 68.8325C76.8944 69.7279 76.7649 70.6503 76.5815 71.5635C74.1028 84.6415 65.9309 94.777 58.8801 93.7699C56.9813 93.5019 54.9131 92.7605 53.3391 91.0755C50.8055 88.3382 48.0122 86.4732 44.4489 85.8659C34.002 84.0856 23.3505 93.9375 20.7054 109.459C18.0602 124.981 24.8473 137.805 35.2942 139.585C38.8845 140.197 42.1649 139.367 45.4622 137.623C47.6002 136.488 49.464 136.472 51.5558 136.912C58.4876 138.454 62.8958 150.567 60.903 163.728C60.7466 164.646 60.627 165.347 60.4752 166.238C56.4865 184.754 51.5785 202.307 45.9636 218.628L45.9182 218.731Z" fill="#FFE1CA"/>
<path d="M46.7432 218.147C62.9566 223.743 80.4385 228.417 98.8188 232.382C99.705 232.561 100.407 232.681 101.302 232.806C114.382 234.785 123.338 230.644 124.282 224.777C124.586 222.995 123.867 221.345 122.775 219.603C120.698 216.305 120.518 211.33 121.116 207.82C122.984 196.86 139.33 189.618 155.284 192.337C171.237 195.056 184.203 207.321 182.34 218.254C181.737 221.79 180.245 226.147 177.188 228.598C175.581 229.88 174.137 231.995 173.833 233.777C172.767 239.706 181.032 246.143 194.488 248.686C195.433 248.847 196.377 249.008 197.3 249.137C216.523 251.58 232.02 252.415 249.149 252.64C249.238 235.488 250.592 217.44 252.938 198.784C253.063 197.888 253.182 197.187 253.366 196.273C255.831 183.276 264.383 172.372 271.393 173.623C273.822 174.037 275.984 175.044 277.388 176.422C280.026 179.038 282.405 180.888 285.968 181.495C296.307 183.257 306.434 174.038 309.061 158.625C311.688 143.211 305.186 131.158 294.847 129.396C291.284 128.789 288.3 129.836 284.949 131.404C283.168 132.239 281.11 132.416 278.486 131.997C271.486 130.859 267.023 117.765 269.002 104.685C269.158 103.767 269.314 102.85 269.493 101.963C273.44 83.6911 278.235 66.3132 283.692 50.1038C267.483 44.6469 252.588 40.2753 233.637 36.24C232.723 36.0566 231.783 35.8685 230.834 35.7345C217.295 33.6773 207.31 37.337 206.412 42.9341C206.108 44.7157 206.754 46.4648 207.72 48.2961C209.71 52.1075 210.001 56.2683 209.398 59.8046C207.397 71.5473 191.155 78.6685 175.174 75.9451C159.193 73.2217 146.224 60.8168 148.206 49.1821C148.809 45.6458 150.475 41.9018 153.596 39.0724C155.136 37.696 156.276 36.2235 156.607 34.4465C157.599 28.9488 150.645 22.3191 137.648 19.8542C136.73 19.6978 136.029 19.5782 135.165 19.431C116.508 17.085 98.4924 15.7093 81.3404 15.6197C81.1205 32.7216 80.0509 50.7343 77.7233 69.2826C77.5985 70.1781 77.4691 71.1005 77.2857 72.0137C74.8208 85.0107 66.4679 95.3932 59.4705 94.5618C57.5085 94.3386 55.1474 93.6862 53.4476 91.9242C50.9002 89.2678 48.278 87.3765 44.6877 86.7646C34.5917 85.0441 24.2219 94.2217 21.5951 109.636C18.9683 125.05 25.6861 137.139 35.8091 138.864C39.3724 139.471 42.554 138.569 45.842 136.879C48.1874 135.668 50.1316 135.833 52.34 136.403C59.181 138.153 63.6604 150.5 61.6814 163.579C61.525 164.497 61.4054 165.199 61.2536 166.09C57.2879 184.47 52.4298 201.893 46.8288 218.133L46.7432 218.147Z" fill="#FFE1CA"/>
<path d="M47.5313 217.585C63.6413 223.136 80.9882 227.787 99.2336 231.73C100.12 231.908 100.795 232.023 101.717 232.153C114.716 234.118 122.753 229.988 123.651 224.557C123.955 222.775 123.173 221.17 122.027 219.419C119.869 216.107 119.875 210.691 120.473 207.182C122.327 196.303 139.335 188.923 155.397 191.66C171.459 194.398 184.981 206.98 183.127 217.859C182.529 221.368 181.157 226.162 178.024 228.573C176.362 229.845 174.801 232.163 174.47 233.94C173.5 239.469 181.312 245.467 194.849 248.024C195.793 248.185 196.738 248.346 197.688 248.48C216.987 250.963 231.598 251.62 248.587 251.848C248.685 234.809 250.02 216.869 252.343 198.348C252.468 197.453 252.583 196.778 252.767 195.865C255.218 182.949 264.033 171.645 270.966 172.854C273.612 173.305 275.994 174.322 277.43 175.678C280.135 178.222 282.235 180.08 285.798 180.688C295.84 182.399 305.605 173.84 308.213 158.534C310.821 143.228 304.443 131.919 294.401 130.208C290.838 129.6 288.056 130.765 284.665 132.243C282.866 133.02 280.682 133.12 277.789 132.655C270.82 131.495 266.3 117.919 268.26 104.947C268.417 104.029 268.569 103.138 268.747 102.252C272.645 84.1099 277.417 66.867 282.833 50.734C266.727 45.3225 252.75 41.1072 233.717 37.0582C232.804 36.8748 231.864 36.6868 230.887 36.5482C217.268 34.4771 207.837 37.9813 207.004 43.0339C206.7 44.8155 207.401 46.5738 208.362 48.4321C210.404 52.4192 210.551 56.7776 209.953 60.2869C207.919 72.2185 191.024 79.423 174.963 76.6858C158.901 73.9486 145.334 61.1362 147.339 49.3666C147.938 45.8573 149.559 41.8835 152.753 38.9554C154.297 37.552 155.518 36.0933 155.822 34.3116C156.695 29.3492 150.645 23.1235 137.729 20.6724C136.811 20.516 136.136 20.401 135.246 20.2492C116.724 17.9262 98.8161 16.5689 81.7767 16.4707C81.5482 33.4601 80.5016 51.3378 78.1924 69.7782C78.0676 70.6736 77.9428 71.569 77.7594 72.4822C75.3083 85.3982 66.8015 96.0322 59.8304 95.372C57.8052 95.1936 55.1465 94.6572 53.3256 92.7912C50.769 90.1888 48.2863 88.2935 44.723 87.6862C34.978 86.0255 24.9168 94.5334 22.3084 109.839C19.7 125.145 26.3754 136.505 36.1204 138.166C39.6837 138.773 42.762 137.826 46.0184 136.158C48.5712 134.871 50.5688 135.212 52.9253 135.891C59.6531 137.815 64.2261 150.428 62.2609 163.427C62.1045 164.345 61.9895 165.02 61.8377 165.911C57.8904 184.183 53.0823 201.475 47.5267 217.612L47.5313 217.585Z" fill="#FFE1CA"/>
<path d="M48.3461 217.031C64.3528 222.537 81.5647 227.164 99.7066 231.062C100.593 231.24 101.268 231.355 102.163 231.48C115.054 233.427 122.2 229.311 123.051 224.317C123.35 222.563 122.483 220.97 121.309 219.215C119.098 215.893 119.241 210.001 119.834 206.519C121.674 195.721 139.372 188.209 155.514 190.96C171.657 193.711 185.759 206.642 183.919 217.44C183.326 220.922 182.078 226.126 178.864 228.523C177.175 229.791 175.437 232.328 175.138 234.083C174.264 239.212 181.596 244.767 195.218 247.311C196.19 247.476 197.135 247.637 198.057 247.767C217.465 250.268 231.126 250.791 248.008 251.001C248.114 234.074 249.426 216.27 251.753 197.888C251.878 196.992 251.993 196.318 252.172 195.431C254.605 182.623 263.66 170.888 270.571 172.066C273.432 172.554 276.062 173.585 277.507 174.887C280.258 177.328 282.101 179.226 285.664 179.833C295.436 181.498 304.811 173.595 307.401 158.397C309.991 143.199 303.763 132.638 293.991 130.973C290.455 130.37 287.848 131.648 284.417 133.035C282.595 133.781 280.317 133.781 277.132 133.239C270.221 132.061 265.586 118.021 267.533 105.13C267.689 104.212 267.841 103.321 268.015 102.462C271.894 84.4279 276.616 67.3153 282.009 51.3172C266.011 45.9242 252.97 41.9239 233.834 37.8295C232.921 37.6461 231.954 37.4535 231.004 37.3195C217.33 35.2392 208.459 38.5608 207.686 43.0959C207.382 44.8775 208.136 46.645 209.093 48.5303C211.162 52.6886 211.213 57.2807 210.624 60.736C208.559 72.8566 191.011 80.1443 174.868 77.3933C158.725 74.6423 144.556 61.4495 146.59 49.5179C147.183 46.0356 148.729 41.8545 152.053 38.8098C153.603 37.3794 154.878 35.9299 155.181 34.1483C155.936 29.7211 150.762 23.8948 137.954 21.4621C137.063 21.3103 136.361 21.1907 135.497 21.0435C117.088 18.7119 99.3153 17.3776 82.3839 17.2978C82.1468 34.1746 81.1186 51.9443 78.81 70.2181C78.6852 71.1135 78.5604 72.009 78.3816 72.8952C75.9489 85.7032 67.2565 96.6112 60.3118 96.1221C58.2281 95.9615 55.2718 95.541 53.3251 93.5981C50.7593 91.0497 48.4208 89.1233 44.8845 88.5207C35.4904 86.9198 25.7377 94.7581 23.1477 109.956C20.5578 125.154 27.1908 135.785 36.5579 137.381C40.1212 137.988 43.0737 136.964 46.321 135.35C49.0811 133.987 51.1591 134.508 53.6591 135.323C60.2738 137.422 64.9673 150.306 63.0159 163.224C62.8595 164.142 62.7445 164.816 62.5973 165.68C58.7 183.822 53.8834 201.002 48.3777 217.009L48.3461 217.031Z" fill="#FFE1CA"/>
</g>
<defs>
<filter id="filter0_d_2311_823" x="14.5181" y="13.2316" width="301.538" height="249.841" filterUnits="userSpaceOnUse" color-interpolation-filters="sRGB">
<feFlood flood-opacity="0" result="BackgroundImageFix"/>
<feColorMatrix in="SourceAlpha" type="matrix" values="0 0 0 0 0 0 0 0 0 0 0 0 0 0 0 0 0 0 127 0" result="hardAlpha"/>
<feOffset dy="4"/>
<feGaussianBlur stdDeviation="2"/>
<feComposite in2="hardAlpha" operator="out"/>
<feColorMatrix type="matrix" values="0 0 0 0 0 0 0 0 0 0 0 0 0 0 0 0 0 0 0.25 0"/>
<feBlend mode="normal" in2="BackgroundImageFix" result="effect1_dropShadow_2311_823"/>
<feBlend mode="normal" in="SourceGraphic" in2="effect1_dropShadow_2311_823" result="shape"/>
</filter>
</defs>
</svg>
