<svg width="262" height="229" viewBox="0 0 262 229" fill="none" xmlns="http://www.w3.org/2000/svg">
<g filter="url(#filter0_d_2311_858)">
<path d="M257.079 5.41252C239.799 2.56461 221.617 0.866806 202.421 0.0179138C201.489 -0.00947571 200.777 -0.00947571 199.846 0.0179138C186.346 0.264374 175.53 6.34355 175.667 13.6003C175.694 15.4076 176.406 17.0506 177.666 18.5841C180.075 21.5142 181.335 24.8824 181.335 28.5518C181.335 39.8887 168.41 49.0622 152.445 49.0622C136.48 49.0622 123.555 39.8887 123.555 28.5518C123.555 24.9097 124.842 21.5142 127.225 18.5841C128.484 17.0233 129.196 15.4076 129.224 13.6003C129.361 6.37093 118.544 0.264374 105.044 0.0179138C104.085 0.0179138 103.154 0.0178528 102.223 0.0452423C83.164 0.86676 64.899 2.70154 47.6472 5.41252C50.3582 22.6643 52.1929 40.9293 53.0418 59.9884C53.0692 60.9195 53.0966 61.8505 53.0692 62.8089C52.8228 76.3092 46.7436 87.1257 39.4869 86.9888C37.6795 86.9614 36.0365 86.2495 34.503 84.9899C31.5729 82.6075 28.2047 81.3203 24.5353 81.3203C13.1984 81.3203 3.99745 94.2455 3.99745 110.21C3.99745 126.175 13.1984 139.1 24.5353 139.1C28.1774 139.1 31.5729 137.813 34.503 135.431C36.0639 134.171 37.6795 133.459 39.4869 133.432C46.7436 133.295 52.8228 144.111 53.0692 157.612C53.0692 158.57 53.0692 159.282 53.0692 160.186C52.2477 179.354 50.4951 197.729 47.6472 215.008C64.899 217.719 83.1914 219.554 102.251 220.375C103.182 220.403 104.113 220.43 105.071 220.403C118.571 220.156 129.388 214.077 129.251 206.82C129.224 205.013 128.512 203.37 127.252 201.836C124.87 198.906 123.583 195.538 123.583 191.896C123.583 180.559 136.508 171.386 152.472 171.386C168.437 171.386 181.362 180.587 181.362 191.896C181.362 195.538 180.075 198.906 177.693 201.836C176.433 203.37 175.721 205.013 175.694 206.82C175.557 214.077 186.374 220.156 199.874 220.403C200.832 220.403 201.544 220.403 202.448 220.403C221.617 219.581 239.827 217.856 257.106 215.008L257.106 5.49467L257.079 5.41252Z" fill="#FFE1CA"/>
<path d="M256.42 6.12454C239.251 3.30402 221.15 1.60623 202.091 0.757339C201.187 0.72995 200.475 0.72995 199.517 0.757339C186.126 1.0038 176.241 6.8365 176.35 13.5455C176.378 15.3529 177.144 16.9959 178.404 18.5568C180.868 21.5964 182.046 25.1837 182.046 28.8257C182.046 40.2995 168.464 49.7743 152.417 49.7743C136.37 49.7743 122.815 40.4091 122.815 28.8805C122.815 25.2658 123.992 21.6512 126.457 18.5568C127.717 16.9686 128.483 15.3529 128.511 13.5455C128.62 6.8365 118.324 1.0038 104.769 0.757339C103.81 0.757339 102.879 0.75737 101.948 0.784744C82.7797 1.60626 65.4731 3.44093 48.3309 6.12454C51.0145 23.2668 52.8492 41.4223 53.6707 60.3445C53.6981 61.2482 53.7255 62.2066 53.6981 63.1376C53.4517 76.5283 47.2081 87.8105 40.0062 87.7009C37.8977 87.6735 36.1451 87.0437 34.5842 85.8114C31.6268 83.5112 28.4502 82.142 24.8082 82.142C13.7451 82.142 4.81801 94.3552 4.81801 110.21C4.81801 126.066 13.7451 138.279 24.8082 138.279C28.4502 138.279 31.572 136.937 34.5568 134.637C36.1177 133.404 37.9798 132.747 40.0062 132.72C47.2081 132.61 53.479 143.892 53.7255 157.283C53.7255 158.242 53.7255 158.926 53.7255 159.857C52.904 178.889 51.1788 197.154 48.3583 214.296C65.5005 216.98 82.8345 218.815 101.976 219.636C102.907 219.663 103.838 219.691 104.796 219.663C118.351 219.417 128.648 213.721 128.538 206.875C128.538 205.068 127.689 203.206 126.375 201.672C123.91 198.742 122.815 194.963 122.815 191.349C122.815 180.094 136.37 170.674 152.417 170.674C168.464 170.674 182.046 180.094 182.046 191.349C182.046 194.963 180.868 198.852 178.404 201.754C177.09 203.288 176.323 204.876 176.295 206.684C176.186 213.502 186.126 219.417 199.517 219.663C200.448 219.663 201.16 219.663 202.091 219.663C221.15 218.842 239.251 217.117 256.42 214.296L256.42 6.17937V6.12454Z" fill="#FFE1CA"/>
<path d="M255.764 6.84085C238.704 4.04771 220.686 2.3499 201.763 1.5284C200.86 1.50101 200.148 1.50101 199.217 1.5284C185.908 1.77484 176.981 7.38853 177.063 13.5225C177.063 15.3298 177.912 16.9729 179.199 18.5611C181.746 21.7376 182.841 25.5166 182.841 29.1312C182.841 40.7693 168.602 50.518 152.472 50.518C136.343 50.518 122.159 40.9611 122.159 29.2408C122.159 25.6535 123.254 21.8198 125.773 18.5611C127.033 16.9455 127.882 15.3298 127.909 13.5225C127.991 7.33377 118.243 1.77484 104.606 1.5284C103.647 1.5284 102.689 1.52841 101.758 1.5558C82.5068 2.37732 66.1313 4.18466 49.0986 6.86827C51.7549 23.901 53.5896 41.9195 54.4111 60.7321C54.4384 61.6358 54.4658 62.5669 54.4385 63.4979C54.192 76.8065 47.7568 88.5267 40.6096 88.4445C38.2272 88.4445 36.3378 87.8421 34.7495 86.6646C31.7373 84.4465 28.7798 82.9952 25.1378 82.9952C14.376 82.9952 5.69528 94.4964 5.69528 110.242C5.69528 125.988 14.376 137.489 25.1378 137.489C28.7798 137.489 31.6551 136.092 34.6673 133.874C36.2556 132.697 38.3368 132.04 40.5823 132.04C47.7294 131.957 54.1646 143.678 54.4111 156.986C54.4111 157.917 54.4111 158.629 54.4111 159.533C53.5896 178.428 51.8644 196.556 49.0712 213.616C66.104 216.272 82.4795 218.107 101.73 218.901C102.661 218.928 103.62 218.956 104.578 218.928C118.215 218.682 127.991 213.342 127.882 206.907C127.882 205.1 126.923 203.018 125.582 201.458C123.035 198.527 122.131 194.365 122.131 190.778C122.131 179.605 136.316 169.939 152.445 169.939C168.574 169.939 182.814 179.605 182.814 190.778C182.814 194.365 181.718 198.746 179.172 201.649C177.83 203.183 176.954 204.744 176.926 206.551C176.844 212.931 185.881 218.682 199.189 218.928C200.12 218.928 200.832 218.928 201.736 218.928C220.658 218.107 238.677 216.409 255.737 213.616L255.737 6.8956L255.764 6.84085Z" fill="#FFE1CA"/>
<path d="M255.079 7.52095C238.155 4.72781 220.219 3.05742 201.434 2.2359C200.53 2.20851 199.818 2.20851 198.887 2.2359C185.661 2.48236 177.692 7.84956 177.747 13.4359C177.747 15.2432 178.65 16.8862 179.937 18.5019C182.539 21.7879 183.552 25.786 183.552 29.3733C183.552 41.1483 168.655 51.1981 152.444 51.1981C136.233 51.1981 121.418 41.4495 121.418 29.5376C121.418 25.9503 122.404 21.8974 125.005 18.4745C126.265 16.8315 127.169 15.2158 127.196 13.4085C127.251 7.7674 118.023 2.45494 104.303 2.2085C103.345 2.2085 102.386 2.20851 101.455 2.2359C82.0951 3.05742 66.678 4.83731 49.7548 7.49355C52.411 24.3893 54.2184 42.2983 55.0399 60.9741C55.0673 61.8778 55.0947 62.8088 55.0673 63.7399C54.8208 76.9663 48.2213 89.1247 41.1289 89.0699C38.4727 89.0699 36.4463 88.5222 34.8306 87.3994C31.791 85.2635 29.0253 83.7574 25.4106 83.7574C14.9226 83.7574 6.48837 94.5466 6.48837 110.183C6.48837 125.819 14.9226 136.608 25.4106 136.608C29.0253 136.608 31.6541 135.157 34.7211 133.048C36.3367 131.926 38.637 131.296 41.1015 131.268C48.1939 131.214 54.8208 143.399 55.0673 156.598C55.0673 157.529 55.0673 158.241 55.0673 159.145C54.2457 177.93 52.5479 195.921 49.7548 212.872C66.6506 215.528 82.0951 217.308 101.455 218.13C102.386 218.157 103.345 218.184 104.303 218.157C118.023 217.911 127.251 212.954 127.196 206.93C127.196 205.122 126.128 202.795 124.759 201.261C122.158 198.359 121.418 193.786 121.418 190.198C121.418 179.108 136.26 169.195 152.444 169.195C168.628 169.195 183.552 179.108 183.552 190.198C183.552 193.758 182.539 198.633 179.937 201.535C178.568 203.069 177.61 204.575 177.582 206.382C177.528 212.324 185.661 217.911 198.887 218.157C199.818 218.157 200.503 218.157 201.434 218.157C220.219 217.336 238.155 215.665 255.106 212.872L255.106 7.54837L255.079 7.52095Z" fill="#FFE1CA"/>
<path d="M254.42 8.2393C237.607 5.47354 219.753 3.80309 201.104 2.98157C200.2 2.95419 199.516 2.95419 198.585 2.98157C185.441 3.22803 178.43 8.34877 178.458 13.3874C178.458 15.1947 179.416 16.8378 180.703 18.4808C183.387 21.9038 184.318 26.0935 184.318 29.6534C184.318 41.5927 168.764 51.9164 152.471 51.9164C136.177 51.9164 120.733 42.0034 120.733 29.8998C120.733 26.3399 121.636 22.0681 124.32 18.4808C125.58 16.8104 126.565 15.1947 126.565 13.3874C126.593 8.26662 117.885 3.22803 104.111 2.98157C103.152 2.98157 102.194 2.9816 101.235 3.00899C81.7655 3.80312 67.3069 5.61046 50.4932 8.2393C53.1221 25.0256 54.9294 42.825 55.7236 61.3639C55.7509 62.2675 55.7783 63.1712 55.7509 64.1022C55.5045 77.2191 48.7407 89.843 41.6756 89.8156C38.7182 89.8156 36.6096 89.3501 34.9666 88.2548C31.8723 86.2284 29.3256 84.6127 25.7109 84.6127C15.4967 84.6127 7.33638 94.6899 7.33638 110.217C7.33638 125.743 15.5241 135.82 25.7109 135.82C29.3256 135.82 31.708 134.314 34.8023 132.288C36.4454 131.22 38.9647 130.618 41.6483 130.59C48.7133 130.563 55.5045 143.187 55.7509 156.331C55.7509 157.262 55.7509 157.947 55.7509 158.85C54.9294 177.499 53.2316 195.38 50.4659 212.194C67.2521 214.823 81.7655 216.603 101.208 217.424C102.139 217.452 103.098 217.479 104.083 217.452C117.857 217.205 126.565 212.605 126.538 206.991C126.538 205.184 125.361 202.637 123.937 201.103C121.253 198.201 120.705 193.244 120.705 189.684C120.705 178.649 136.177 168.517 152.443 168.517C168.709 168.517 184.29 178.649 184.29 189.684C184.29 193.244 183.359 198.584 180.676 201.487C179.252 203.02 178.211 204.472 178.211 206.279C178.184 211.783 185.441 217.205 198.557 217.452C199.488 217.452 200.173 217.452 201.077 217.452C219.753 216.63 237.579 214.96 254.42 212.194L254.42 8.26663V8.2393Z" fill="#FFE1CA"/>
<path d="M253.767 8.94778C237.063 6.2094 219.318 4.539 200.779 3.74487C199.876 3.7175 199.191 3.7175 198.287 3.74487C185.253 3.99133 179.174 8.86568 179.174 13.3566C179.174 15.164 180.187 16.807 181.474 18.4774C184.212 22.0099 185.061 26.4187 185.061 29.9512C185.061 42.0275 168.85 52.6524 152.502 52.6524C136.154 52.6524 120.052 42.5477 120.052 30.2524C120.052 26.7199 120.846 22.229 123.612 18.4774C124.871 16.7796 125.912 15.164 125.912 13.3566C125.912 8.75613 117.752 3.99133 103.895 3.74487C102.91 3.74487 101.951 3.7449 101.02 3.77229C81.4681 4.56642 67.9405 6.34634 51.2638 8.97519C53.8926 25.6519 55.6726 43.3145 56.4667 61.7437C56.4941 62.62 56.5215 63.5511 56.4941 64.4548C56.2476 77.4895 49.3195 90.5516 42.3093 90.5516C39.078 90.5516 36.8325 90.1408 35.1621 89.1275C32.0403 87.1833 29.6853 85.4855 26.0707 85.4855C16.1577 85.4855 8.21645 94.8508 8.21645 110.241C8.21645 125.63 16.1577 135.023 26.0707 135.023C29.6853 135.023 31.8213 133.462 34.943 131.518C36.6134 130.477 39.3518 129.902 42.2545 129.902C49.2648 129.902 56.2202 142.992 56.4667 156.026C56.4667 156.957 56.4667 157.642 56.4667 158.518C55.6726 177.03 53.9748 194.802 51.2364 211.506C67.9131 214.107 81.4681 215.887 101.02 216.681C101.979 216.709 102.937 216.736 103.895 216.709C117.752 216.462 125.912 212.245 125.912 207.042C125.912 205.262 124.625 202.469 123.174 200.936C120.435 198.033 120.052 192.666 120.052 189.161C120.052 178.207 136.154 167.829 152.502 167.829C168.85 167.829 185.061 178.207 185.061 189.161C185.061 192.693 184.24 198.526 181.474 201.429C180.022 202.962 178.9 204.386 178.9 206.166C178.9 211.232 185.253 216.49 198.315 216.736C199.246 216.736 199.93 216.736 200.807 216.736C219.346 215.942 237.118 214.272 253.822 211.533L253.822 9.00261L253.767 8.94778Z" fill="#FFE1CA"/>
</g>
<defs>
<filter id="filter0_d_2311_858" x="-0.00244141" y="-0.00268555" width="261.108" height="228.417" filterUnits="userSpaceOnUse" color-interpolation-filters="sRGB">
<feFlood flood-opacity="0" result="BackgroundImageFix"/>
<feColorMatrix in="SourceAlpha" type="matrix" values="0 0 0 0 0 0 0 0 0 0 0 0 0 0 0 0 0 0 127 0" result="hardAlpha"/>
<feOffset dy="4"/>
<feGaussianBlur stdDeviation="2"/>
<feComposite in2="hardAlpha" operator="out"/>
<feColorMatrix type="matrix" values="0 0 0 0 0 0 0 0 0 0 0 0 0 0 0 0 0 0 0.25 0"/>
<feBlend mode="normal" in2="BackgroundImageFix" result="effect1_dropShadow_2311_858"/>
<feBlend mode="normal" in="SourceGraphic" in2="effect1_dropShadow_2311_858" result="shape"/>
</filter>
</defs>
</svg>
