<svg width="256" height="297" viewBox="0 0 256 297" fill="none" xmlns="http://www.w3.org/2000/svg">
<g filter="url(#filter0_d_2311_879)">
<path d="M4.00515 67.1355C5.11661 84.326 7.53169 102.331 10.985 120.868C11.1649 121.77 11.3217 122.449 11.5559 123.339C14.7864 136.207 21.4551 141.302 26.4783 140.141C28.2432 139.734 29.398 138.294 30.5861 136.504C32.8369 133.124 38.426 130.946 41.9287 130.136C52.7897 127.627 66.7881 141.297 70.5396 157.534C74.291 173.771 67.6826 192.087 56.8215 194.597C53.3188 195.406 47.9425 196.276 44.4307 194.199C42.5777 193.111 39.5132 192.475 37.7483 192.883C32.5893 194.075 30.2564 203.166 33.2072 216.928C33.433 217.905 33.6526 218.856 33.893 219.773C39.1596 238.978 44.0298 252.01 50.4297 267.951C66.3656 261.409 83.5715 255.66 101.772 250.625C102.662 250.391 103.341 250.234 104.243 250.055C117.224 247.313 131.796 251.211 133.402 258.162C134.067 261.04 134.131 263.914 133.475 265.782C132.263 269.323 131.211 271.825 132.032 275.382C134.303 285.212 145.409 290.941 160.696 287.409C175.983 283.877 183.45 273.857 181.179 264.028C180.351 260.444 178.134 258.525 175.485 255.847C174.076 254.457 173.176 252.291 172.435 249.087C170.829 242.136 182.194 232.274 195.062 229.043C195.986 228.83 196.882 228.623 197.757 228.449C216.212 225.015 234.134 222.733 251.272 221.52C250.031 204.388 248.697 190.567 245.026 170.964C244.84 170.035 244.641 169.051 244.394 168.107C240.976 154.424 234.382 147.424 229.82 148.478C228.028 148.892 226.692 150.288 225.27 151.932C222.177 155.507 217.912 157.35 214.409 158.159C202.218 160.976 188.51 147.325 184.765 131.115C181.019 114.905 187.841 96.3964 199.842 93.6236C203.345 92.8143 207.878 92.6251 212.041 94.552C213.992 95.4455 215.854 96.0738 217.646 95.6598C222.099 94.631 225.539 87.4864 222.798 74.5052C222.584 73.5821 222.427 72.9033 222.227 72.0344C217.192 53.8339 211.471 36.6217 204.929 20.6858C188.989 27.0858 171.927 33.0871 153.835 38.0965C152.945 38.3306 152.056 38.5648 151.153 38.7447C138.172 41.4864 124.519 37.6047 122.28 30.8857C121.613 28.866 120.848 25.9251 121.908 23.3348C123.294 19.9255 124.186 16.9738 123.364 13.4168C121.181 3.96767 109.987 -2.14125 94.7004 1.39063C79.4134 4.9225 72.0343 15.3224 74.2174 24.7715C75.0455 28.3557 77.1662 30.7259 79.9554 33.1419C82.3183 35.1988 82.6176 37.3606 82.8605 40.0216C83.4911 47.0837 73.2292 56.5193 60.361 59.7498C59.4378 59.9631 58.7589 60.1199 57.89 60.3206C39.3258 63.7803 21.3042 65.999 4.11377 67.1104L4.00515 67.1355Z" fill="#FFC290"/>
</g>
<defs>
<filter id="filter0_d_2311_879" x="0.00537109" y="0.377563" width="255.267" height="296.08" filterUnits="userSpaceOnUse" color-interpolation-filters="sRGB">
<feFlood flood-opacity="0" result="BackgroundImageFix"/>
<feColorMatrix in="SourceAlpha" type="matrix" values="0 0 0 0 0 0 0 0 0 0 0 0 0 0 0 0 0 0 127 0" result="hardAlpha"/>
<feOffset dy="4"/>
<feGaussianBlur stdDeviation="2"/>
<feComposite in2="hardAlpha" operator="out"/>
<feColorMatrix type="matrix" values="0 0 0 0 0 0 0 0 0 0 0 0 0 0 0 0 0 0 0.25 0"/>
<feBlend mode="normal" in2="BackgroundImageFix" result="effect1_dropShadow_2311_879"/>
<feBlend mode="normal" in="SourceGraphic" in2="effect1_dropShadow_2311_879" result="shape"/>
</filter>
</defs>
</svg>
