<svg width="305" height="230" viewBox="0 0 305 230" fill="none" xmlns="http://www.w3.org/2000/svg">
<g filter="url(#filter0_d_3_142)">
<path d="M47.4228 215.977C64.702 218.825 83.0764 220.523 102.245 221.372C103.176 221.399 103.888 221.399 104.819 221.372C118.319 221.125 129.136 215.046 128.972 207.789C128.944 205.982 128.232 204.339 126.973 202.806C124.59 199.876 123.303 196.507 123.303 192.838C123.303 181.501 136.228 172.3 152.193 172.3C168.158 172.3 181.056 181.474 181.056 192.838C181.056 196.48 179.769 199.876 177.386 202.806C176.127 204.367 175.415 205.982 175.387 207.789C175.25 215.046 186.067 221.125 199.567 221.372C200.526 221.372 201.457 221.372 202.388 221.344C221.447 220.523 239.712 218.688 256.964 215.977C254.116 198.698 252.39 180.324 251.542 161.155C251.514 160.224 251.514 159.512 251.542 158.581C251.788 145.081 257.867 134.264 265.124 134.401C266.931 134.428 268.574 135.14 270.108 136.4C273.038 138.782 276.406 140.069 280.076 140.069C291.412 140.069 300.586 127.144 300.586 111.179C300.586 95.2147 291.385 82.2895 280.076 82.2895C276.434 82.2895 273.065 83.5492 270.108 85.959C268.574 87.2186 266.931 87.9306 265.124 87.958C257.867 88.0949 251.788 77.2783 251.542 63.7781C251.542 62.8196 251.542 61.8886 251.569 60.9576C252.391 41.8984 254.253 23.606 256.936 6.35423C239.684 3.64323 221.419 1.8085 202.388 0.986984C201.457 0.95961 200.526 0.932236 199.567 0.959625C186.067 1.20607 175.25 7.28529 175.387 14.542C175.415 16.3493 176.127 17.9923 177.386 19.5258C179.769 22.4559 181.056 25.8241 181.056 29.4935C181.056 40.8304 168.131 50.0314 152.193 50.0314C136.256 50.0314 123.303 40.8304 123.303 29.4935C123.303 25.8515 124.59 22.4559 126.973 19.5258C128.232 17.965 128.944 16.3493 128.972 14.542C129.109 7.28529 118.292 1.20607 104.819 0.959625C103.861 0.959625 103.149 0.959625 102.245 0.959625C83.0764 1.78114 64.7019 3.50632 47.4501 6.35423C50.1611 23.606 52.1875 41.8984 53.009 60.9576C53.0364 61.8886 53.0638 62.8196 53.0364 63.7781C52.79 77.2783 46.7108 88.0949 39.4541 87.958C37.6467 87.9306 36.0037 87.2186 34.4702 85.959C31.5401 83.5492 28.1719 82.2895 24.5025 82.2895C13.1656 82.2895 3.99207 95.2147 3.99207 111.179C3.99207 127.144 13.1656 140.069 24.5025 140.069C28.1446 140.069 31.5401 138.782 34.4702 136.4C36.0311 135.14 37.6467 134.428 39.4541 134.401C46.7108 134.264 52.79 145.081 53.0364 158.581C53.0364 159.539 53.0364 160.251 53.0364 161.155C52.1875 180.324 50.2981 198.698 47.4501 215.977H47.4228Z" fill="#FFE1CA"/>
<path d="M48.1346 215.267C65.3042 218.087 83.5418 219.785 102.574 220.634C103.477 220.662 104.189 220.662 105.148 220.634C118.538 220.388 128.479 214.473 128.369 207.654C128.369 205.847 127.548 204.259 126.261 202.698C123.796 199.768 122.619 195.907 122.619 192.292C122.619 181.037 136.201 171.617 152.22 171.617C168.24 171.617 181.822 181.037 181.822 192.292C181.822 195.907 180.727 199.686 178.262 202.616C176.948 204.149 176.154 206.011 176.099 207.819C175.99 214.664 186.286 220.36 199.841 220.607C200.799 220.607 201.73 220.607 202.661 220.579C221.803 219.758 239.137 217.923 256.279 215.24C253.458 198.07 251.733 179.805 250.912 160.773C250.884 159.842 250.884 159.157 250.912 158.199C251.158 144.808 257.429 133.526 264.604 133.636C266.63 133.663 268.492 134.348 270.053 135.553C273.038 137.853 276.16 139.195 279.802 139.195C290.837 139.195 299.792 126.982 299.792 111.126C299.792 95.2711 290.865 83.0579 279.802 83.0579C276.16 83.0579 272.983 84.4271 270.026 86.7273C268.465 87.9596 266.712 88.5894 264.604 88.6168C257.402 88.7263 251.158 77.4716 250.912 64.0535C250.912 63.0951 250.912 62.1641 250.939 61.2604C251.761 42.3382 253.595 24.1553 256.279 7.01308C239.137 4.32947 221.83 2.49472 202.689 1.6732C201.758 1.64583 200.827 1.61845 199.868 1.64584C186.313 1.89229 176.017 7.72504 176.126 14.4341C176.154 16.2414 176.921 17.8844 178.18 19.4453C180.645 22.5397 181.822 26.1544 181.822 29.769C181.822 41.2976 168.267 50.6628 152.22 50.6628C136.174 50.6628 122.619 41.1881 122.619 29.6869C122.619 26.0722 123.796 22.4849 126.261 19.4179C127.52 17.8571 128.287 16.214 128.314 14.4067C128.424 7.69768 118.566 1.86493 105.148 1.61847C104.217 1.61847 103.505 1.61847 102.574 1.61847C83.5418 2.43999 65.3042 4.16515 48.1346 6.98567C50.8182 24.1279 52.8446 42.2834 53.6661 61.233C53.6935 62.164 53.7208 63.0677 53.6935 64.0261C53.447 77.4168 47.2309 88.5346 40.0563 88.562C38.1942 88.562 36.2774 88.0417 34.6069 86.6999C31.6769 84.3723 28.4456 83.0579 24.8035 83.0579C13.8226 83.0579 4.81335 95.2711 4.81335 111.126C4.81335 126.982 13.8226 139.195 24.8035 139.195C28.4456 139.195 31.6769 137.853 34.6344 135.525C36.3595 134.156 38.1121 133.636 40.0837 133.663C47.2583 133.773 53.4744 144.781 53.7208 158.199C53.7208 159.13 53.7208 159.842 53.7208 160.773C52.8993 179.832 50.9825 198.07 48.1893 215.24L48.1346 215.267Z" fill="#FFE1CA"/>
<path d="M48.8205 214.583C65.8532 217.376 83.9813 219.074 102.903 219.896C103.807 219.923 104.519 219.923 105.45 219.896C118.759 219.649 127.795 213.899 127.713 207.518C127.713 205.711 126.81 204.177 125.468 202.616C122.921 199.714 121.826 195.332 121.826 191.745C121.826 180.545 136.065 170.906 152.167 170.906C168.269 170.906 182.481 180.573 182.481 191.745C182.481 195.332 181.577 199.522 179.03 202.425C177.689 203.958 176.758 206.067 176.73 207.874C176.648 214.309 186.397 219.649 200.034 219.896C200.992 219.896 201.951 219.896 202.882 219.868C222.133 219.047 238.508 217.239 255.541 214.583C252.748 197.523 251.023 179.395 250.201 160.473C250.174 159.569 250.174 158.857 250.201 157.926C250.447 144.618 256.883 132.87 264.03 132.952C266.275 132.952 268.356 133.637 269.945 134.787C272.957 137.005 275.832 138.401 279.474 138.401C290.236 138.401 298.917 126.9 298.917 111.155C298.917 95.4089 290.236 83.9077 279.474 83.9077C275.832 83.9077 272.875 85.359 269.863 87.5771C268.274 88.7546 266.385 89.3297 264.002 89.3571C256.855 89.4392 250.42 77.7189 250.174 64.4104C250.174 63.4794 250.174 62.5483 250.201 61.6447C251.023 42.832 252.83 24.7861 255.513 7.78073C238.508 5.12451 222.133 3.28978 202.882 2.46828C201.951 2.44089 200.992 2.41348 200.034 2.44086C186.397 2.68732 176.648 8.24625 176.73 14.435C176.73 16.2423 177.606 17.8579 178.866 19.4736C181.413 22.7323 182.481 26.566 182.481 30.1533C182.481 41.8736 168.296 51.4305 152.167 51.4305C136.038 51.4305 121.826 41.6545 121.826 30.0164C121.826 26.4291 122.921 22.6227 125.468 19.4462C126.755 17.858 127.576 16.215 127.604 14.4076C127.686 8.27364 118.759 2.65994 105.45 2.4135C104.519 2.4135 103.807 2.4135 102.903 2.4135C83.9813 3.235 65.8806 4.93282 48.8205 7.72595C51.4767 24.7587 53.4757 42.8046 54.2972 61.5899C54.3246 62.4936 54.352 63.4246 54.3246 64.3557C54.0781 77.6642 47.7251 89.0285 40.6053 89.2202C38.6885 89.2749 36.5251 88.8915 34.6904 87.495C31.733 85.2221 28.666 83.8529 25.0513 83.8529C14.4538 83.8529 5.60883 95.3541 5.60883 111.1C5.60883 126.846 14.4538 138.347 25.0513 138.347C28.6934 138.347 31.7877 136.978 34.7452 134.705C36.6621 133.226 38.4968 132.897 40.6327 132.979C47.7251 133.335 54.1056 144.535 54.352 157.844C54.352 158.775 54.352 159.487 54.352 160.391C53.5305 179.313 51.641 197.441 48.8478 214.474L48.8205 214.583Z" fill="#FFE1CA"/>
<path d="M49.5356 213.868C66.4588 216.661 84.4774 218.332 103.263 219.153C104.166 219.181 104.878 219.181 105.782 219.153C119.008 218.907 127.141 213.32 127.087 207.378C127.087 205.571 126.101 204.065 124.732 202.531C122.13 199.629 121.117 194.754 121.117 191.194C121.117 180.076 136.014 170.191 152.198 170.191C168.381 170.191 183.223 180.104 183.223 191.194C183.223 194.782 182.484 199.327 179.883 202.257C178.513 203.791 177.445 206.118 177.445 207.926C177.391 213.95 186.619 218.907 200.311 219.153C201.269 219.153 202.228 219.153 203.159 219.126C222.519 218.304 237.936 216.524 254.859 213.868C252.066 196.945 250.368 178.926 249.547 160.141C249.52 159.237 249.52 158.525 249.547 157.594C249.793 144.368 256.393 132.182 263.513 132.237C265.977 132.237 268.277 132.867 269.893 133.99C272.933 136.125 275.589 137.549 279.204 137.549C289.692 137.549 298.126 126.76 298.126 111.124C298.126 95.4879 289.692 84.6987 279.204 84.6987C275.589 84.6987 272.823 86.2322 269.784 88.3407C268.168 89.4635 266.169 89.9837 263.513 90.0111C256.42 90.0659 249.821 77.9075 249.574 64.6811C249.574 63.7501 249.574 62.819 249.602 61.9153C250.423 43.2396 252.231 25.3032 254.887 8.40741C237.991 5.75119 222.574 3.94386 203.214 3.14973C202.283 3.12234 201.324 3.09494 200.366 3.12231C186.674 3.36877 177.445 8.65388 177.5 14.3223C177.5 16.1297 178.431 17.7453 179.691 19.3883C182.292 22.8113 183.278 26.8641 183.278 30.4514C183.278 42.3633 168.463 52.1119 152.252 52.1119C136.041 52.1119 121.172 42.0621 121.172 30.2597C121.172 26.6724 122.185 22.7018 124.786 19.3883C126.073 17.7727 126.95 16.1297 126.977 14.3223C127.032 8.73602 119.063 3.36877 105.837 3.12231C104.906 3.12231 104.194 3.12231 103.317 3.12231C84.5321 3.94383 66.541 5.61427 49.6178 8.40741C52.274 25.3032 54.2456 43.2396 55.0672 61.9153C55.0945 62.819 55.1219 63.7501 55.0945 64.6811C54.8481 77.9075 48.3581 89.5456 41.3205 89.9016C39.3488 90.0112 36.9117 89.7647 34.94 88.3134C31.9826 86.1227 29.08 84.6987 25.4379 84.6987C15.1964 84.6987 6.51569 95.4879 6.51569 111.124C6.51569 126.76 15.169 137.549 25.4379 137.549C29.0526 137.549 32.0374 136.125 34.9948 133.907C37.1034 132.319 39.0476 132.155 41.3205 132.347C48.3581 132.922 54.8481 144.341 55.0945 157.567C55.0945 158.498 55.0945 159.21 55.0945 160.114C54.273 178.899 52.4109 196.89 49.6178 213.841L49.5356 213.868Z" fill="#FFE1CA"/>
<path d="M50.2181 213.182C67.0317 215.948 84.9134 217.619 103.562 218.44C104.465 218.467 105.15 218.467 106.081 218.44C119.225 218.194 126.455 212.772 126.427 207.267C126.427 205.46 125.387 204.009 123.963 202.475C121.279 199.573 120.375 194.233 120.375 190.673C120.375 179.637 135.902 169.505 152.195 169.505C168.489 169.505 183.933 179.637 183.933 190.673C183.933 194.233 183.386 199.189 180.702 202.092C179.278 203.625 178.128 206.172 178.1 207.979C178.073 213.593 186.781 218.194 200.555 218.44C201.514 218.44 202.472 218.44 203.43 218.413C222.873 217.619 237.386 215.811 254.173 213.182C251.407 196.369 249.709 178.46 248.888 159.811C248.86 158.908 248.86 158.223 248.888 157.292C249.134 144.148 255.925 131.524 262.963 131.551C265.646 131.551 268.166 132.154 269.809 133.249C272.903 135.303 275.286 136.782 278.9 136.782C289.087 136.782 297.275 126.704 297.275 111.178C297.275 95.6511 289.087 85.5739 278.9 85.5739C275.286 85.5739 272.739 87.1895 269.645 89.2159C268.002 90.2839 265.866 90.7494 262.935 90.7768C255.87 90.8042 249.134 78.1803 248.888 65.0634C248.888 64.1324 248.888 63.2287 248.915 62.3251C249.709 43.7862 251.516 25.9867 254.145 9.17308C237.359 6.54424 222.873 4.73689 203.43 3.94276C202.499 3.91539 201.541 3.88802 200.555 3.91541C186.781 4.16185 178.073 9.20049 178.1 14.3213C178.1 16.1286 179.086 17.7442 180.346 19.4146C183.03 23.0019 183.906 27.2738 183.906 30.8337C183.906 42.9373 168.461 52.8777 152.168 52.8777C135.875 52.8777 120.348 42.5266 120.348 30.5872C120.348 27.0273 121.279 22.8376 123.935 19.4146C125.222 17.7716 126.181 16.1286 126.181 14.3213C126.208 9.28264 119.198 4.16185 106.054 3.91541C105.123 3.91541 104.438 3.91541 103.534 3.91541C84.886 4.73691 67.0044 6.40732 50.1907 9.17308C52.8196 25.9594 54.7912 43.7588 55.6127 62.3251C55.6401 63.2287 55.6675 64.1324 55.6401 65.0634C55.3937 78.2077 48.7941 90.1196 41.8113 90.6399C39.7849 90.8042 37.0739 90.7221 34.9653 89.1886C32.0079 87.0526 29.2421 85.6013 25.6274 85.6013C15.7419 85.6013 7.25293 95.6785 7.25293 111.205C7.25293 126.732 15.7419 136.809 25.6274 136.809C29.2421 136.809 32.1174 135.358 35.0475 133.167C37.3477 131.469 39.3741 131.469 41.8113 131.743C48.7668 132.51 55.3937 144.175 55.6401 157.319C55.6401 158.25 55.6401 158.935 55.6401 159.839C54.8186 178.515 52.9838 196.369 50.2181 213.21V213.182Z" fill="#FFE1CA"/>
<path d="M50.9285 212.499C67.6326 215.237 85.3773 216.908 103.916 217.702C104.82 217.729 105.504 217.729 106.408 217.702C119.443 217.456 125.796 212.198 125.796 207.132C125.796 205.352 124.673 203.928 123.222 202.394C120.483 199.492 119.634 193.659 119.634 190.127C119.634 179.173 135.818 168.795 152.194 168.795C168.569 168.795 184.644 179.173 184.644 190.127C184.644 193.659 184.288 198.999 181.522 201.902C180.07 203.435 178.783 206.228 178.783 208.008C178.783 213.211 186.944 217.456 200.8 217.675C201.786 217.675 202.744 217.675 203.675 217.647C223.227 216.853 236.782 215.073 253.459 212.444C250.721 195.74 249.023 177.968 248.229 159.457C248.201 158.553 248.201 157.868 248.229 156.965C248.475 143.93 255.431 130.841 262.441 130.841C265.344 130.841 268.109 131.416 269.752 132.456C272.874 134.4 275.01 135.961 278.625 135.961C288.538 135.961 296.452 126.596 296.452 111.179C296.452 95.7619 288.538 86.3967 278.625 86.3967C275.038 86.3967 272.683 88.0945 269.533 90.0387C267.863 91.0793 265.617 91.4627 262.386 91.4627C255.376 91.4627 248.448 78.4006 248.201 65.3659C248.201 64.4349 248.201 63.5312 248.229 62.6549C249.023 44.2256 250.803 26.563 253.432 9.88631C236.755 7.25746 223.227 5.50491 203.675 4.6834C202.744 4.65602 201.758 4.62865 200.8 4.65604C186.971 4.90248 178.783 9.66725 178.783 14.2677C178.783 16.0751 179.824 17.6907 181.084 19.3885C183.822 23.1401 184.644 27.6584 184.644 31.1635C184.644 43.4589 168.569 53.5909 152.194 53.5909C135.818 53.5909 119.634 42.9659 119.634 30.8623C119.634 27.3298 120.456 22.9484 123.222 19.3885C124.509 17.7181 125.522 16.0751 125.522 14.2677C125.522 9.77678 119.443 4.90248 106.408 4.65604C105.504 4.65604 104.792 4.65604 103.916 4.65604C85.3773 5.45016 67.6326 7.12054 50.9285 9.88631C53.5299 26.563 55.5016 44.253 56.2957 62.6549C56.3231 63.5586 56.3505 64.4622 56.3231 65.3659C56.0766 78.4006 49.3402 90.6138 42.4121 91.2984C40.331 91.49 37.3461 91.5722 35.1007 89.9839C32.1432 87.9028 29.5143 86.3967 25.9271 86.3967C16.3975 86.3967 8.10022 95.7619 8.10022 111.179C8.10022 126.596 16.4249 135.961 25.9271 135.961C29.5417 135.961 32.2801 134.455 35.2102 132.319C37.7021 130.512 39.838 130.676 42.4395 131.06C49.3128 132.018 56.104 143.93 56.3505 156.992C56.3505 157.923 56.3505 158.608 56.3505 159.484C55.5563 178.023 53.6942 195.768 50.9559 212.472L50.9285 212.499Z" fill="#FFE1CA"/>
</g>
<defs>
<filter id="filter0_d_3_142" x="-0.00793457" y="0.948303" width="304.594" height="228.444" filterUnits="userSpaceOnUse" color-interpolation-filters="sRGB">
<feFlood flood-opacity="0" result="BackgroundImageFix"/>
<feColorMatrix in="SourceAlpha" type="matrix" values="0 0 0 0 0 0 0 0 0 0 0 0 0 0 0 0 0 0 127 0" result="hardAlpha"/>
<feOffset dy="4"/>
<feGaussianBlur stdDeviation="2"/>
<feComposite in2="hardAlpha" operator="out"/>
<feColorMatrix type="matrix" values="0 0 0 0 0 0 0 0 0 0 0 0 0 0 0 0 0 0 0.25 0"/>
<feBlend mode="normal" in2="BackgroundImageFix" result="effect1_dropShadow_3_142"/>
<feBlend mode="normal" in="SourceGraphic" in2="effect1_dropShadow_3_142" result="shape"/>
</filter>
</defs>
</svg>
