<svg width="224" height="306" viewBox="0 0 224 306" fill="none" xmlns="http://www.w3.org/2000/svg">
<g filter="url(#filter0_d_2311_872)">
<path d="M219.799 44.2323C202.548 46.9433 184.283 48.778 165.223 49.6269C164.292 49.6543 163.361 49.6816 162.403 49.6543C148.903 49.4078 138.086 43.3286 138.223 36.0719C138.25 34.2646 138.962 32.6215 140.222 31.088C142.604 28.158 143.892 24.7898 143.892 21.1203C143.892 9.78345 130.966 0.582489 115.002 0.582489C99.0368 0.582489 86.139 9.78345 86.139 21.1203C86.139 24.7624 87.4262 28.158 89.8086 31.088C91.0682 32.6489 91.7801 34.2646 91.8075 36.0719C91.9444 43.3286 81.1278 49.4078 67.6276 49.6543C66.6691 49.6543 65.9572 49.6543 65.0535 49.6543C45.8848 48.8327 27.5104 47.0802 10.2312 44.2323C7.52023 61.4841 5.68546 79.7765 4.86394 98.8356C4.83656 99.7666 4.80915 100.698 4.83653 101.656C5.08299 115.156 11.1623 125.973 18.419 125.836C20.2263 125.809 21.8693 125.097 23.4028 123.837C26.3329 121.427 29.7011 120.168 33.3432 120.168C44.6801 120.168 53.8536 133.093 53.8536 149.057C53.8536 165.022 44.6801 177.947 33.3432 177.947C29.7011 177.947 26.3329 176.66 23.4028 174.278C21.8693 173.018 20.2263 172.306 18.419 172.279C11.1623 172.142 5.08299 182.959 4.83653 196.459C4.83653 197.417 4.83653 198.129 4.83653 199.033C5.65805 218.202 7.38331 236.576 10.2312 253.883C27.5104 251.035 45.8574 249.145 65.0261 248.296C65.9571 248.269 66.6691 248.269 67.6002 248.296C81.1004 248.543 91.917 254.622 91.7801 261.879C91.7527 263.686 91.0408 265.329 89.7811 266.863C87.3988 269.793 86.1116 273.161 86.1116 276.83C86.1116 288.167 99.0369 297.368 114.974 297.368C130.912 297.368 143.864 288.167 143.864 276.83C143.864 273.188 142.577 269.793 140.195 266.863C138.935 265.302 138.223 263.686 138.196 261.879C138.059 254.622 148.875 248.543 162.376 248.296C163.334 248.296 164.265 248.296 165.196 248.324C184.255 249.145 202.548 251.172 219.772 253.883V44.3144L219.799 44.2323Z" fill="#FFC290"/>
<path d="M219.087 44.9157C201.945 47.5993 183.79 49.4341 164.867 50.2556C163.936 50.2829 163.005 50.3103 162.074 50.2829C148.683 50.0365 137.401 43.793 137.511 36.591C137.511 34.4825 138.168 32.7299 139.4 31.169C141.701 28.1842 143.07 25.0351 143.07 21.393C143.07 10.33 130.857 1.40286 115.001 1.40286C99.1461 1.40286 86.9604 10.33 86.9604 21.393C86.9604 25.0351 88.3022 28.1568 90.6025 31.1417C91.8347 32.7025 92.492 34.5646 92.5194 36.591C92.6289 43.793 81.3467 50.0365 67.956 50.3103C66.9976 50.3103 66.313 50.3103 65.3819 50.3103C46.3502 49.4888 28.0852 47.7363 10.9429 44.9157C8.2593 62.058 6.42471 79.3919 5.6032 98.5606C5.57582 99.4916 5.54841 100.423 5.57579 101.381C5.82224 114.936 11.518 125.232 18.364 125.123C20.1713 125.095 22.0335 124.274 23.567 122.96C26.497 120.495 30.2759 119.4 33.8905 119.4C45.1453 119.4 54.5655 132.955 54.5655 149.002C54.5655 165.048 45.1453 178.631 33.8905 178.631C30.2759 178.631 26.3874 177.453 23.4847 174.989C21.9512 173.674 20.363 172.908 18.5557 172.88C11.7371 172.771 5.82224 182.711 5.57579 196.102C5.57579 197.033 5.57579 197.745 5.57579 198.676C6.3973 217.735 8.09513 235.973 10.9157 253.142C28.0853 250.322 46.3229 248.432 65.3547 247.583C66.2857 247.556 66.9702 247.556 67.9286 247.583C81.3193 247.83 92.3276 254.046 92.4371 261.22C92.4645 263.192 91.9716 264.917 90.5751 266.67C88.2474 269.6 86.9057 272.859 86.9057 276.501C86.9057 287.481 99.1189 296.491 114.947 296.491C130.775 296.491 143.015 287.481 143.015 276.501C143.015 272.859 141.701 269.627 139.373 266.697C138.031 264.999 137.484 263.11 137.511 261.248C137.538 254.073 148.629 247.857 162.019 247.611C162.951 247.611 163.881 247.611 164.812 247.638C183.735 248.46 201.89 250.486 219.033 253.17V44.9979L219.087 44.9157Z" fill="#FFC290"/>
<path d="M218.409 45.6265C201.404 48.2828 183.358 50.1175 164.546 50.939C163.642 50.9664 162.711 50.9937 161.78 50.9664C148.471 50.7199 136.751 44.2847 136.833 37.1376C136.833 34.7552 137.436 32.8657 138.613 31.2774C140.831 28.2652 142.282 25.3077 142.282 21.6657C142.282 10.9039 130.781 2.22324 115.036 2.22324C99.2899 2.22324 87.7886 10.9039 87.7886 21.6657C87.7886 25.3077 89.1852 28.183 91.4033 31.1953C92.5808 32.7835 93.2382 34.8647 93.2382 37.1102C93.3203 44.2573 81.5999 50.6925 68.2914 50.939C67.3603 50.939 66.6484 50.939 65.7447 50.939C46.8499 50.1175 28.7218 48.3923 11.6617 45.5992C9.00546 62.6319 7.17077 79.0074 6.37664 98.2582C6.34925 99.1893 6.32184 100.148 6.34923 101.106C6.59568 114.743 11.9356 124.519 18.3708 124.41C20.1781 124.41 22.2592 123.451 23.8201 122.109C26.7502 119.563 30.9126 118.659 34.4999 118.659C45.6725 118.659 55.3389 132.844 55.3389 148.973C55.3389 165.102 45.6725 179.342 34.4999 179.342C30.9126 179.342 26.5311 178.246 23.6284 175.7C22.0949 174.358 20.5341 173.482 18.7268 173.454C12.3463 173.372 6.59568 182.409 6.34923 195.717C6.34923 196.648 6.34923 197.36 6.34923 198.264C7.17074 217.186 8.86854 235.314 11.6617 252.374C28.7218 249.581 46.8225 247.692 65.7447 246.87C66.6484 246.843 67.3603 246.843 68.2914 246.87C81.5999 247.117 92.7999 253.47 93.1559 260.589C93.2655 262.725 92.9369 264.56 91.4581 266.477C89.1853 269.407 87.816 272.529 87.816 276.171C87.816 286.796 99.3173 295.613 115.063 295.613C130.809 295.613 142.31 286.768 142.31 276.171C142.31 272.529 140.941 269.462 138.668 266.532C137.271 264.697 136.888 262.534 136.943 260.617C137.162 253.497 148.499 247.144 161.807 246.897C162.738 246.897 163.669 246.897 164.573 246.925C183.358 247.746 201.404 249.745 218.409 252.402V45.6265Z" fill="#FFC290"/>
<path d="M217.693 46.3419C200.798 48.9982 182.889 50.8055 164.213 51.627C163.309 51.6544 162.378 51.6817 161.447 51.6543C148.221 51.4079 136.062 44.8084 136.117 37.716C136.117 35.0598 136.665 33.0334 137.788 31.4177C139.924 28.3507 141.43 25.6124 141.43 21.9703C141.43 11.4823 130.64 3.0481 115.004 3.0481C99.3681 3.0481 88.5789 11.4823 88.5789 21.9703C88.5789 25.585 90.0303 28.2138 92.1388 31.2808C93.2616 32.8965 93.8914 35.1967 93.9188 37.6612C93.9736 44.7536 81.7878 51.3805 68.5888 51.627C67.6578 51.627 66.9732 51.627 66.0421 51.627C47.2568 50.8055 29.2655 49.1077 12.3149 46.3145C9.65872 63.2103 7.85143 78.6822 7.0573 98.0152C7.02992 98.9462 7.00251 99.9046 7.02989 100.863C7.27635 114.555 12.2329 123.811 18.2574 123.756C20.0647 123.756 22.3923 122.688 23.9258 121.319C26.8285 118.717 31.4015 117.978 34.9888 117.978C46.1066 117.978 55.9922 132.793 55.9922 149.004C55.9922 165.215 46.0793 180.112 34.9888 180.112C31.4015 180.112 26.5546 179.099 23.6519 176.497C22.1184 175.128 20.6124 174.17 18.8051 174.142C12.8628 174.087 7.27635 182.22 7.02989 195.447C7.02989 196.378 7.02989 197.062 7.02989 197.966C7.85141 216.751 9.5218 234.77 12.3149 251.693C29.2381 248.9 47.2294 247.038 66.0147 246.216C66.9184 246.189 67.6303 246.189 68.5614 246.216C81.7878 246.463 93.2067 252.953 93.7818 259.99C93.9735 262.291 93.8093 264.207 92.221 266.316C90.003 269.246 88.5789 272.231 88.5789 275.873C88.5789 286.115 99.3681 294.795 115.004 294.795C130.64 294.795 141.43 286.142 141.43 275.873C141.43 272.258 140.033 269.328 137.815 266.371C136.364 264.399 136.117 261.962 136.227 259.99C136.583 252.953 148.221 246.463 161.447 246.216C162.378 246.216 163.309 246.216 164.213 246.244C182.889 247.065 200.798 249.037 217.693 251.693V46.3145V46.3419Z" fill="#FFC290"/>
<path d="M216.981 47.0251C200.194 49.6539 182.395 51.4612 163.856 52.2554C162.952 52.2827 162.049 52.3102 161.117 52.2828C148.001 52.0363 135.377 45.2725 135.404 38.2075C135.404 35.2501 135.87 33.1414 136.965 31.4984C138.991 28.4041 140.607 25.8574 140.607 22.2427C140.607 12.0286 130.53 3.86819 115.003 3.86819C99.4765 3.86819 89.3993 12.056 89.3993 22.2427C89.3993 25.8574 90.9053 28.2398 92.9317 31.3341C93.9997 32.9772 94.6021 35.4965 94.6295 38.1801C94.6569 45.2451 82.0331 52.0363 68.8889 52.2828C67.9578 52.2828 67.2733 52.2828 66.3696 52.2828C47.7212 51.4613 29.8395 49.7634 13.0258 46.9977C10.397 63.7839 8.6171 78.2973 7.79558 97.7399C7.7682 98.6709 7.74079 99.6293 7.76817 100.615C8.01463 114.389 12.6151 123.097 18.2288 123.07C20.0361 123.07 22.5827 121.892 24.1162 120.468C27.0189 117.785 31.9755 117.237 35.5354 117.237C46.5711 117.237 56.703 132.709 56.703 148.975C56.703 165.241 46.5711 180.795 35.5354 180.795C31.9755 180.795 26.6357 179.864 23.733 177.18C22.1995 175.756 20.7481 174.716 18.9408 174.716C13.4641 174.688 8.01463 181.945 7.76817 195.062C7.76817 195.993 7.76817 196.678 7.76817 197.581C8.58969 216.257 10.2601 234.139 13.0258 250.952C29.8395 248.186 47.7212 246.324 66.3696 245.53C67.2733 245.503 67.9578 245.503 68.8889 245.53C82.0057 245.777 93.6985 252.431 94.4652 259.386C94.7391 261.824 94.7666 263.85 93.0414 266.178C90.8781 269.108 89.3993 271.983 89.3993 275.598C89.3993 285.483 99.4765 293.972 115.003 293.972C130.53 293.972 140.607 285.483 140.607 275.598C140.607 271.983 139.156 269.217 137.02 266.26C135.486 264.151 135.404 261.44 135.568 259.414C136.089 252.431 148.001 245.804 161.117 245.558C162.049 245.558 162.952 245.558 163.856 245.585C182.395 246.379 200.194 248.378 216.981 251.007V47.0251Z" fill="#FFC290"/>
<path d="M216.291 47.7404C199.615 50.3692 181.952 52.1492 163.523 52.9433C162.619 52.9707 161.715 52.9981 160.812 52.9707C147.777 52.7242 134.715 45.7961 134.715 38.7859C134.715 35.5546 135.126 33.3091 136.139 31.6387C138.083 28.4896 139.781 26.162 139.781 22.5473C139.781 12.6344 130.416 4.69305 114.998 4.69305C99.5813 4.69305 90.2161 12.607 90.2161 22.5473C90.2161 26.162 91.7771 28.2979 93.7213 31.4196C94.7619 33.09 95.3369 35.8284 95.3369 38.7311C95.3369 45.7413 82.2475 52.6968 69.2128 52.9433C68.2817 52.9433 67.5972 52.9433 66.7209 52.9433C48.2095 52.1492 30.4373 50.4514 13.7332 47.713C11.1317 64.3898 9.35171 77.9447 8.55758 97.4967C8.5302 98.4278 8.50296 99.4136 8.53034 100.372C8.77679 114.228 12.9938 122.389 18.1967 122.389C19.9767 122.389 22.7698 121.102 24.3033 119.65C27.206 116.912 32.5733 116.528 36.0784 116.528C47.032 116.528 57.4104 132.63 57.4104 148.978C57.4104 165.326 47.032 181.538 36.0784 181.538C32.5459 181.538 26.7131 180.716 23.8104 177.95C22.2769 176.499 20.853 175.376 19.073 175.376C14.0344 175.376 8.74938 181.729 8.50293 194.791C8.50293 195.695 8.50293 196.407 8.50293 197.283C9.32444 215.822 10.9674 233.594 13.7058 250.298C30.4099 247.56 48.1547 245.698 66.6661 244.904C67.5698 244.876 68.2543 244.876 69.158 244.904C82.1927 245.15 94.132 251.914 95.0631 258.815C95.4191 261.416 95.6107 263.525 93.8034 266.044C91.6674 268.974 90.1615 271.713 90.1615 275.327C90.1615 284.857 99.5267 293.181 114.944 293.181C130.361 293.181 139.726 284.857 139.726 275.327C139.726 271.713 138.247 269.111 136.139 266.126C134.551 263.881 134.605 260.896 134.824 258.815C135.509 251.887 147.695 245.15 160.729 244.904C161.633 244.904 162.564 244.904 163.44 244.931C181.842 245.725 199.532 247.697 216.182 250.298V47.713L216.291 47.7404Z" fill="#FFC290"/>
</g>
<defs>
<filter id="filter0_d_2311_872" x="0.825195" y="0.58252" width="222.974" height="304.786" filterUnits="userSpaceOnUse" color-interpolation-filters="sRGB">
<feFlood flood-opacity="0" result="BackgroundImageFix"/>
<feColorMatrix in="SourceAlpha" type="matrix" values="0 0 0 0 0 0 0 0 0 0 0 0 0 0 0 0 0 0 127 0" result="hardAlpha"/>
<feOffset dy="4"/>
<feGaussianBlur stdDeviation="2"/>
<feComposite in2="hardAlpha" operator="out"/>
<feColorMatrix type="matrix" values="0 0 0 0 0 0 0 0 0 0 0 0 0 0 0 0 0 0 0.25 0"/>
<feBlend mode="normal" in2="BackgroundImageFix" result="effect1_dropShadow_2311_872"/>
<feBlend mode="normal" in="SourceGraphic" in2="effect1_dropShadow_2311_872" result="shape"/>
</filter>
</defs>
</svg>
