<svg width="224" height="306" viewBox="0 0 224 306" fill="none" xmlns="http://www.w3.org/2000/svg">
<g filter="url(#filter0_d_2311_809)">
<path d="M4.08215 44.0553C21.4435 46.7663 39.6263 48.601 58.6855 49.45C59.6165 49.5047 60.5476 49.5047 61.506 49.4773C75.0062 49.2309 85.8228 43.1516 85.6859 35.8949C85.6585 34.0876 84.9465 32.4446 83.6869 30.9111C81.3045 27.981 80.0174 24.6128 80.0174 20.9434C80.0174 9.60651 92.9426 0.405548 108.907 0.405548C124.872 0.405548 137.797 9.60651 137.797 20.9434C137.797 24.5854 136.51 27.981 134.128 30.9111C132.868 32.472 132.156 34.0876 132.129 35.8949C131.992 43.1516 142.809 49.2309 156.309 49.4773C157.267 49.4773 157.979 49.4773 158.91 49.4773C178.079 48.6558 196.453 46.9032 213.733 44.0553C216.444 61.3071 218.278 79.5995 219.1 98.6586C219.127 99.5896 219.155 100.521 219.127 101.479C218.881 114.979 212.801 125.796 205.545 125.659C203.737 125.632 202.094 124.92 200.561 123.66C197.631 121.25 194.263 119.991 190.621 119.991C179.284 119.991 170.11 132.916 170.11 148.88C170.11 164.845 179.284 177.77 190.621 177.77C194.263 177.77 197.631 176.483 200.561 174.101C202.122 172.841 203.737 172.129 205.545 172.102C212.801 171.965 218.881 182.782 219.127 196.282C219.127 197.24 219.127 197.952 219.127 198.856C218.306 218.025 216.58 236.399 213.733 253.706C196.453 250.858 178.106 248.968 158.938 248.119C158.007 248.092 157.295 248.092 156.336 248.119C142.836 248.366 132.019 254.445 132.156 261.702C132.184 263.509 132.896 265.152 134.155 266.686C136.538 269.616 137.825 272.984 137.825 276.653C137.825 287.99 124.899 297.191 108.935 297.191C92.97 297.191 80.0448 287.99 80.0448 276.653C80.0448 273.011 81.3319 269.616 83.7142 266.686C84.9739 265.125 85.6859 263.509 85.7133 261.702C85.8502 254.445 75.0336 248.366 61.5334 248.119C60.5749 248.119 59.6439 248.119 58.7128 248.147C39.6537 248.968 21.3613 250.995 4 253.706L4.10954 44.1375L4.08215 44.0553Z" fill="#FD874E"/>
<path d="M4.79403 44.7661C22.0184 47.4497 40.0917 49.2844 59.0139 50.1059C59.9176 50.1333 60.876 50.1607 61.8071 50.1333C75.1978 49.8869 86.4799 43.6434 86.3704 36.4414C86.3704 34.3329 85.7132 32.5803 84.4809 31.0194C82.1806 28.0345 80.8114 24.8854 80.8114 21.2434C80.8114 10.1803 93.0246 1.2532 108.88 1.2532C124.735 1.2532 136.948 10.1803 136.948 21.2434C136.948 24.8854 135.606 28.0072 133.306 30.992C132.101 32.5529 131.417 34.415 131.389 36.4414C131.28 43.6434 142.562 49.8868 155.953 50.1607C156.911 50.1607 157.596 50.1607 158.527 50.1607C177.558 49.3392 195.823 47.5866 212.966 44.7661C215.649 61.9083 217.484 79.2423 218.306 98.4109C218.333 99.342 218.36 100.273 218.333 101.231C218.086 114.786 212.363 125.083 205.545 124.973C203.737 124.946 201.875 124.124 200.342 122.81C197.412 120.345 193.66 119.25 190.018 119.25C178.763 119.25 169.343 132.805 169.343 148.852C169.343 164.899 178.763 178.481 190.018 178.481C193.633 178.481 197.521 177.304 200.424 174.839C201.957 173.525 203.546 172.758 205.353 172.731C212.172 172.621 218.086 182.561 218.333 195.952C218.333 196.883 218.333 197.595 218.333 198.526C217.511 217.585 215.786 235.823 212.993 252.993C195.823 250.172 177.586 248.282 158.554 247.434C157.623 247.406 156.938 247.406 155.98 247.434C142.589 247.68 131.581 253.896 131.471 261.071C131.444 263.042 131.964 264.768 133.334 266.52C135.661 269.45 137.003 272.709 137.003 276.351C137.003 287.332 124.79 296.341 108.935 296.341C93.0794 296.341 80.8662 287.332 80.8662 276.351C80.8662 272.709 82.1806 269.478 84.5083 266.547C85.8501 264.85 86.3704 262.96 86.3704 261.098C86.343 253.924 75.2525 247.707 61.8619 247.461C60.9308 247.461 59.9724 247.461 59.0687 247.488C40.1465 248.31 21.9637 250.336 4.73926 253.02L4.82141 44.8482L4.79403 44.7661Z" fill="#FD874E"/>
<path d="M5.50598 45.4771C22.5935 48.1333 40.5572 49.968 59.3699 50.7895C60.2736 50.8169 61.2046 50.8443 62.1357 50.817C75.4442 50.5705 87.1645 44.1353 87.0823 36.9881C87.0823 34.6057 86.4799 32.7162 85.3024 31.128C83.0843 28.1158 81.6329 25.1583 81.6329 21.5162C81.6329 10.7544 93.1341 2.07376 108.88 2.07376C124.626 2.07376 136.127 10.7544 136.127 21.5162C136.127 25.1583 134.73 28.0336 132.512 31.0458C131.335 32.6341 130.677 34.7152 130.677 36.9607C130.595 44.1079 142.315 50.5431 155.624 50.7895C156.555 50.7895 157.267 50.7895 158.171 50.7895C177.065 49.968 195.221 48.2429 212.254 45.4497C214.91 62.4824 216.745 78.8579 217.539 98.1087C217.566 99.0398 217.594 99.9983 217.566 100.957C217.32 114.594 211.98 124.37 205.545 124.26C203.737 124.26 201.656 123.302 200.095 121.96C197.165 119.413 193.003 118.51 189.416 118.51C178.243 118.51 168.577 132.695 168.577 148.824C168.577 164.953 178.243 179.192 189.416 179.192C193.003 179.192 197.384 178.097 200.287 175.55C201.82 174.208 203.381 173.332 205.189 173.305C211.569 173.223 217.32 182.259 217.566 195.568C217.566 196.499 217.566 197.211 217.566 198.114C216.745 217.037 215.047 235.165 212.254 252.225C195.194 249.432 177.093 247.542 158.171 246.721C157.267 246.693 156.555 246.693 155.624 246.721C142.315 246.967 131.115 253.32 130.759 260.44C130.65 262.576 130.979 264.411 132.457 266.328C134.73 269.258 136.099 272.379 136.099 276.021C136.099 286.646 124.598 295.464 108.852 295.464C93.1068 295.464 81.6056 286.619 81.6056 276.021C81.6056 272.379 82.9747 269.312 85.2476 266.382C86.6442 264.548 87.0275 262.384 86.9728 260.467C86.7537 253.348 75.4168 246.995 62.1083 246.748C61.1772 246.748 60.2462 246.748 59.3425 246.775C40.5572 247.597 22.4839 249.596 5.42383 252.252L5.4786 45.4771H5.50598Z" fill="#FD874E"/>
<path d="M6.22074 46.1651C23.1713 48.8214 41.0529 50.6287 59.7287 51.4502C60.6324 51.4776 61.5634 51.505 62.4945 51.4776C75.7208 51.2311 87.8792 44.6316 87.8245 37.5392C87.8245 34.883 87.2768 32.8566 86.1541 31.241C84.0181 28.174 82.512 25.4356 82.512 21.7935C82.512 11.3055 93.3012 2.87134 108.937 2.87134C124.574 2.87134 135.363 11.3055 135.363 21.7935C135.363 25.4082 133.911 28.037 131.803 31.104C130.68 32.7197 130.05 35.0199 130.023 37.4845C129.968 44.5769 142.154 51.2038 155.353 51.4502C156.284 51.4502 156.996 51.4502 157.9 51.4502C176.685 50.6287 194.676 48.9309 211.627 46.1378C214.283 63.0336 216.063 78.5054 216.884 97.8384C216.912 98.7694 216.939 99.7279 216.912 100.686C216.665 114.378 211.709 123.634 205.684 123.579C203.877 123.579 201.549 122.511 200.016 121.142C197.113 118.541 192.54 117.801 188.953 117.801C177.835 117.801 167.949 132.616 167.949 148.827C167.949 165.038 177.862 179.935 188.953 179.935C192.54 179.935 197.387 178.922 200.29 176.32C201.823 174.951 203.329 173.993 205.137 173.965C211.079 173.911 216.665 182.044 216.912 195.27C216.912 196.201 216.912 196.886 216.912 197.789C216.09 216.575 214.42 234.593 211.627 251.516C194.703 248.723 176.712 246.861 157.927 246.04C157.023 246.012 156.311 246.012 155.38 246.04C142.154 246.286 130.735 252.776 130.16 259.814C129.968 262.114 130.132 264.031 131.721 266.139C133.939 269.069 135.363 272.054 135.363 275.696C135.363 285.938 124.574 294.618 108.937 294.618C93.3012 294.618 82.512 285.965 82.512 275.696C82.512 272.082 83.936 269.151 86.1267 266.194C87.6054 264.222 87.8245 261.785 87.7149 259.814C87.3589 252.776 75.7208 246.286 62.4945 246.04C61.5634 246.04 60.6324 246.04 59.7287 246.067C41.0529 246.888 23.1439 248.86 6.19336 251.516L6.24813 46.1378L6.22074 46.1651Z" fill="#FD874E"/>
<path d="M6.90039 46.8737C23.714 49.5026 41.4861 51.3099 60.025 52.104C60.9286 52.1314 61.8323 52.1588 62.7633 52.1314C75.8802 51.8849 88.5041 45.1212 88.4767 38.0561C88.4767 35.0987 88.0112 32.9901 86.9159 31.3471C84.8895 28.2527 83.2738 25.706 83.2738 22.0914C83.2738 11.8772 93.3511 3.71683 108.878 3.71683C124.404 3.71683 134.482 11.9046 134.482 22.0914C134.482 25.706 132.975 28.0884 130.949 31.1828C129.881 32.8258 129.279 35.3451 129.251 38.0287C129.224 45.0937 141.848 51.8849 154.992 52.1314C155.923 52.1314 156.608 52.1314 157.511 52.1314C176.16 51.3099 194.041 49.6121 210.855 46.8463C213.484 63.6326 215.264 78.146 216.085 97.5885C216.113 98.5195 216.14 99.478 216.113 100.464C215.866 114.238 211.266 122.946 205.652 122.919C203.845 122.919 201.298 121.741 199.765 120.317C196.862 117.633 191.905 117.086 188.345 117.086C177.31 117.086 167.178 132.558 167.178 148.824C167.178 165.09 177.31 180.644 188.345 180.644C191.905 180.644 197.245 179.713 200.148 177.029C201.681 175.605 203.133 174.564 204.94 174.564C210.444 174.537 215.866 181.794 216.113 194.911C216.113 195.842 216.113 196.526 216.113 197.43C215.291 216.106 213.621 233.987 210.855 250.801C194.041 248.035 176.16 246.173 157.511 245.379C156.608 245.351 155.923 245.351 154.992 245.379C141.875 245.625 130.182 252.28 129.443 259.235C129.169 261.672 129.142 263.699 130.867 266.026C133.03 268.956 134.509 271.832 134.509 275.446C134.509 285.332 124.432 293.821 108.905 293.821C93.3784 293.821 83.3012 285.332 83.3012 275.446C83.3012 271.832 84.7525 269.066 86.8885 266.108C88.422 264 88.5041 261.289 88.3398 259.262C87.8195 252.28 75.9076 245.653 62.7907 245.406C61.8597 245.406 60.956 245.406 60.0523 245.434C41.5135 246.228 23.714 248.227 6.90039 250.856V46.8737Z" fill="#FD874E"/>
<path d="M7.61523 47.5634C24.292 50.1922 41.9545 51.9722 60.3838 52.7663C61.2875 52.7937 62.1912 52.821 63.0948 52.7937C76.1295 52.5472 89.1916 45.6191 89.1916 38.6089C89.1916 35.3776 88.7808 33.1321 87.7676 31.4617C85.8234 28.3126 84.1256 25.985 84.1256 22.3703C84.1256 12.4574 93.4909 4.51605 108.908 4.51605C124.325 4.51605 133.69 12.43 133.69 22.3703C133.69 25.985 132.129 28.1209 130.185 31.2426C129.145 32.913 128.57 35.6514 128.57 38.5541C128.57 45.5643 141.659 52.5198 154.694 52.7663C155.625 52.7663 156.309 52.7663 157.186 52.7663C175.697 51.9722 193.469 50.2744 210.173 47.536C212.775 64.2127 214.555 77.7677 215.349 97.3197C215.376 98.2508 215.404 99.2366 215.376 100.195C215.13 114.051 210.913 122.212 205.71 122.212C203.93 122.212 201.137 120.925 199.603 119.473C196.7 116.735 191.361 116.351 187.828 116.351C176.875 116.351 166.496 132.453 166.496 148.801C166.496 165.149 176.875 181.361 187.828 181.361C191.361 181.361 197.193 180.539 200.096 177.773C201.63 176.322 203.053 175.199 204.833 175.199C209.899 175.199 215.157 181.552 215.404 194.614C215.404 195.518 215.404 196.23 215.404 197.106C214.609 215.645 212.939 233.417 210.201 250.121C193.497 247.383 175.752 245.521 157.24 244.727C156.337 244.699 155.652 244.699 154.748 244.727C141.714 244.973 129.774 251.737 128.843 258.638C128.487 261.239 128.296 263.348 130.103 265.867C132.239 268.797 133.745 271.535 133.745 275.15C133.745 284.68 124.38 293.004 108.963 293.004C93.5456 293.004 84.1804 284.68 84.1804 275.15C84.1804 271.535 85.6865 268.934 87.7676 265.949C89.3559 263.704 89.3011 260.719 89.0821 258.638C88.3975 251.71 76.2117 244.973 63.177 244.727C62.2733 244.727 61.3423 244.727 60.466 244.754C42.0641 245.548 24.3741 247.52 7.69739 250.121V47.536L7.61523 47.5634Z" fill="#FD874E"/>
</g>
<defs>
<filter id="filter0_d_2311_809" x="0" y="0.405518" width="223.139" height="304.786" filterUnits="userSpaceOnUse" color-interpolation-filters="sRGB">
<feFlood flood-opacity="0" result="BackgroundImageFix"/>
<feColorMatrix in="SourceAlpha" type="matrix" values="0 0 0 0 0 0 0 0 0 0 0 0 0 0 0 0 0 0 127 0" result="hardAlpha"/>
<feOffset dy="4"/>
<feGaussianBlur stdDeviation="2"/>
<feComposite in2="hardAlpha" operator="out"/>
<feColorMatrix type="matrix" values="0 0 0 0 0 0 0 0 0 0 0 0 0 0 0 0 0 0 0.25 0"/>
<feBlend mode="normal" in2="BackgroundImageFix" result="effect1_dropShadow_2311_809"/>
<feBlend mode="normal" in="SourceGraphic" in2="effect1_dropShadow_2311_809" result="shape"/>
</filter>
</defs>
</svg>
