<svg width="256" height="297" viewBox="0 0 256 297" fill="none" xmlns="http://www.w3.org/2000/svg">
<g filter="url(#filter0_d_2311_880)">
<path d="M251.996 66.95C250.885 84.1404 248.47 102.145 245.016 120.682C244.837 121.585 244.68 122.263 244.446 123.153C241.215 136.021 234.546 141.116 229.523 139.956C227.758 139.548 226.603 138.109 225.415 136.318C223.165 132.938 217.575 130.76 214.073 129.951C203.212 127.441 189.213 141.111 185.462 157.348C181.71 173.586 188.319 191.902 199.18 194.411C202.683 195.22 208.059 196.091 211.571 194.013C213.424 192.926 216.488 192.289 218.253 192.697C223.412 193.889 225.745 202.98 222.794 216.742C222.568 217.72 222.349 218.67 222.108 219.587C216.842 238.792 211.972 251.825 205.572 267.765C189.636 261.223 172.43 255.474 154.229 250.44C153.34 250.206 152.661 250.049 151.759 249.869C138.777 247.127 124.205 251.025 122.599 257.977C121.934 260.855 121.871 263.729 122.526 265.596C123.739 269.137 124.791 271.64 123.969 275.197C121.698 285.026 110.593 290.755 95.3057 287.223C80.0187 283.691 72.5518 273.671 74.8227 263.842C75.6508 260.258 77.8675 258.339 80.5168 255.662C81.925 254.271 82.8258 252.105 83.5661 248.901C85.172 241.95 73.8073 232.088 60.9391 228.858C60.0159 228.644 59.1199 228.437 58.2447 228.264C39.7891 224.829 21.8678 222.548 4.72961 221.334C5.97054 204.202 7.30461 190.381 10.9755 170.779C11.1616 169.849 11.3603 168.865 11.607 167.921C15.0257 154.238 21.6197 147.239 26.1813 148.292C27.9734 148.707 29.3099 150.102 30.7319 151.746C33.8245 155.321 38.0894 157.165 41.5921 157.974C53.7836 160.79 67.4917 147.14 71.2368 130.929C74.982 114.719 68.1606 96.2108 56.1591 93.438C52.6564 92.6288 48.1238 92.4396 43.9603 94.3665C42.0091 95.26 40.1479 95.8883 38.3558 95.4742C33.9027 94.4454 30.4622 87.3008 33.204 74.3197C33.4172 73.3965 33.5741 72.7177 33.7748 71.8488C38.8093 53.6484 44.5307 36.4361 51.0727 20.5003C67.0127 26.9003 84.0746 32.9016 102.166 37.9109C103.056 38.1451 103.946 38.3793 104.848 38.5591C117.829 41.3008 131.483 37.4192 133.722 30.7001C134.388 28.6804 135.154 25.7396 134.093 23.1492C132.707 19.74 131.816 16.7883 132.638 13.2313C134.821 3.78212 146.014 -2.3268 161.301 1.20508C176.588 4.73695 183.967 15.1368 181.784 24.586C180.956 28.1701 178.835 30.5404 176.046 32.9564C173.683 35.0132 173.384 37.175 173.141 39.8361C172.51 46.8981 182.772 56.3337 195.641 59.5642C196.564 59.7775 197.243 59.9344 198.111 60.1351C216.676 63.5947 234.697 65.8134 251.888 66.9249L251.996 66.95Z" fill="#FD874E"/>
</g>
<defs>
<filter id="filter0_d_2311_880" x="0.729492" y="0.192017" width="255.267" height="296.08" filterUnits="userSpaceOnUse" color-interpolation-filters="sRGB">
<feFlood flood-opacity="0" result="BackgroundImageFix"/>
<feColorMatrix in="SourceAlpha" type="matrix" values="0 0 0 0 0 0 0 0 0 0 0 0 0 0 0 0 0 0 127 0" result="hardAlpha"/>
<feOffset dy="4"/>
<feGaussianBlur stdDeviation="2"/>
<feComposite in2="hardAlpha" operator="out"/>
<feColorMatrix type="matrix" values="0 0 0 0 0 0 0 0 0 0 0 0 0 0 0 0 0 0 0.25 0"/>
<feBlend mode="normal" in2="BackgroundImageFix" result="effect1_dropShadow_2311_880"/>
<feBlend mode="normal" in="SourceGraphic" in2="effect1_dropShadow_2311_880" result="shape"/>
</filter>
</defs>
</svg>
