<svg width="38" height="38" viewBox="0 0 38 38" fill="none" xmlns="http://www.w3.org/2000/svg">
<path d="M18.75 21.0938C17.5911 21.0938 16.4583 20.7501 15.4947 20.1063C14.5311 19.4624 13.7801 18.5473 13.3366 17.4767C12.8932 16.406 12.7771 15.2279 13.0032 14.0913C13.2293 12.9547 13.7874 11.9106 14.6068 11.0912C15.4262 10.2717 16.4703 9.71367 17.6069 9.48759C18.7435 9.2615 19.9216 9.37754 20.9923 9.82102C22.063 10.2645 22.9781 11.0155 23.6219 11.9791C24.2657 12.9427 24.6094 14.0755 24.6094 15.2344C24.6075 16.7878 23.9896 18.2771 22.8912 19.3755C21.7927 20.474 20.3034 21.0919 18.75 21.0938ZM18.75 11.7188C18.0547 11.7188 17.375 11.9249 16.7968 12.3112C16.2187 12.6975 15.7681 13.2466 15.502 13.889C15.2359 14.5314 15.1663 15.2383 15.3019 15.9202C15.4376 16.6022 15.7724 17.2286 16.2641 17.7203C16.7557 18.212 17.3822 18.5468 18.0641 18.6825C18.7461 18.8181 19.453 18.7485 20.0954 18.4824C20.7378 18.2163 21.2868 17.7657 21.6731 17.1876C22.0594 16.6094 22.2656 15.9297 22.2656 15.2344C22.2647 14.3023 21.894 13.4086 21.2349 12.7495C20.5758 12.0904 19.6821 11.7197 18.75 11.7188Z" fill="#F77F5A"/>
<path d="M18.75 35.1562L8.86407 23.4973C8.7267 23.3222 8.59076 23.146 8.45626 22.9688C6.76842 20.7438 5.85624 18.0271 5.85938 15.2344C5.85938 11.8156 7.2175 8.53679 9.63496 6.11933C12.0524 3.70187 15.3312 2.34375 18.75 2.34375C22.1688 2.34375 25.4476 3.70187 27.8651 6.11933C30.2825 8.53679 31.6406 11.8156 31.6406 15.2344C31.6433 18.0257 30.7316 20.7411 29.0449 22.9652L29.0438 22.9688C29.0438 22.9688 28.6922 23.4305 28.6395 23.4926L18.75 35.1562ZM10.3277 21.5566C10.3277 21.5566 10.6008 21.9176 10.6629 21.9949L18.75 31.5328L26.8477 21.982C26.8992 21.9176 27.1734 21.5543 27.1746 21.5531C28.5542 19.7357 29.2997 17.5161 29.2969 15.2344C29.2969 12.4372 28.1857 9.75453 26.2078 7.77661C24.2299 5.79869 21.5472 4.6875 18.75 4.6875C15.9528 4.6875 13.2702 5.79869 11.2922 7.77661C9.31432 9.75453 8.20313 12.4372 8.20313 15.2344C8.20024 17.5175 8.94663 19.7386 10.3277 21.5566Z" fill="#F77F5A"/>
</svg>
