<svg width="26" height="42" viewBox="0 0 26 42" fill="none" xmlns="http://www.w3.org/2000/svg">
<path fill-rule="evenodd" clip-rule="evenodd" d="M23.9652 23.9666C24.7845 23.1463 25.2446 22.0343 25.2446 20.8749C25.2446 19.7156 24.7845 18.6036 23.9652 17.7833L7.4685 1.28077C6.64776 0.460419 5.53476 -0.000293732 4.37434 -1.90735e-05C3.21392 0.000255585 2.10114 0.461491 1.28079 1.28223C0.460441 2.10296 -0.000273369 3.21596 1.21693e-07 4.37638C0.000273612 5.5368 0.461511 6.64959 1.28225 7.46993L14.6872 20.8749L1.28225 34.2799C0.484907 35.1047 0.0434037 36.2096 0.0528273 37.3567C0.0622509 38.5039 0.521847 39.6014 1.33263 40.4129C2.14341 41.2245 3.2405 41.6851 4.38761 41.6956C5.53472 41.7061 6.64007 41.2657 7.46558 40.4691L23.9681 23.9695L23.9652 23.9666Z" fill="white"/>
</svg>
