<svg width="32" height="32" viewBox="0 0 32 32" fill="none" xmlns="http://www.w3.org/2000/svg">
<path d="M15.75 0.125C24.3797 0.125 31.375 7.12031 31.375 15.75C31.375 24.3797 24.3797 31.375 15.75 31.375C7.12031 31.375 0.125 24.3797 0.125 15.75C0.125 7.12031 7.12031 0.125 15.75 0.125ZM15.75 3.25C12.4348 3.25 9.25537 4.56696 6.91117 6.91117C4.56696 9.25537 3.25 12.4348 3.25 15.75C3.25 19.0652 4.56696 22.2446 6.91117 24.5888C9.25537 26.933 12.4348 28.25 15.75 28.25C19.0652 28.25 22.2446 26.933 24.5888 24.5888C26.933 22.2446 28.25 19.0652 28.25 15.75C28.25 12.4348 26.933 9.25537 24.5888 6.91117C22.2446 4.56696 19.0652 3.25 15.75 3.25ZM15.75 6.375C16.1327 6.37505 16.5021 6.51556 16.7881 6.76987C17.0741 7.02418 17.2568 7.37461 17.3016 7.75469L17.3125 7.9375V15.1031L21.5422 19.3328C21.8224 19.614 21.9851 19.9913 21.9972 20.3881C22.0093 20.7849 21.87 21.1714 21.6074 21.4692C21.3449 21.7669 20.9788 21.9536 20.5836 21.9912C20.1884 22.0289 19.7937 21.9147 19.4797 21.6719L19.3328 21.5422L14.6453 16.8547C14.4025 16.6116 14.2465 16.2953 14.2016 15.9547L14.1875 15.75V7.9375C14.1875 7.5231 14.3521 7.12567 14.6451 6.83265C14.9382 6.53962 15.3356 6.375 15.75 6.375Z" fill="#6F56B4"/>
</svg>
