<svg width="38" height="38" viewBox="0 0 38 38" fill="none" xmlns="http://www.w3.org/2000/svg">
<g clip-path="url(#clip0_1661_946)">
<path d="M18.75 3.375C27.3797 3.375 34.375 10.3703 34.375 19C34.375 27.6297 27.3797 34.625 18.75 34.625C10.1203 34.625 3.125 27.6297 3.125 19C3.125 10.3703 10.1203 3.375 18.75 3.375ZM18.75 6.5C15.4348 6.5 12.2554 7.81696 9.91117 10.1612C7.56696 12.5054 6.25 15.6848 6.25 19C6.25 22.3152 7.56696 25.4946 9.91117 27.8388C12.2554 30.183 15.4348 31.5 18.75 31.5C22.0652 31.5 25.2446 30.183 27.5888 27.8388C29.933 25.4946 31.25 22.3152 31.25 19C31.25 15.6848 29.933 12.5054 27.5888 10.1612C25.2446 7.81696 22.0652 6.5 18.75 6.5ZM18.75 9.625C19.1327 9.62505 19.5021 9.76556 19.7881 10.0199C20.0741 10.2742 20.2568 10.6246 20.3016 11.0047L20.3125 11.1875V18.3531L24.5422 22.5828C24.8224 22.864 24.9851 23.2413 24.9972 23.6381C25.0093 24.0349 24.87 24.4214 24.6074 24.7192C24.3449 25.0169 23.9788 25.2036 23.5836 25.2412C23.1884 25.2789 22.7937 25.1647 22.4797 24.9219L22.3328 24.7922L17.6453 20.1047C17.4025 19.8616 17.2465 19.5453 17.2016 19.2047L17.1875 19V11.1875C17.1875 10.7731 17.3521 10.3757 17.6451 10.0826C17.9382 9.78962 18.3356 9.625 18.75 9.625Z" fill="#F77F5A"/>
</g>
<defs>
<clipPath id="clip0_1661_946">
<rect width="37.5" height="37.5" fill="white" transform="translate(0 0.25)"/>
</clipPath>
</defs>
</svg>
