<svg width="1731" height="327" viewBox="0 0 1731 327" fill="none" xmlns="http://www.w3.org/2000/svg">
<g filter="url(#filter0_d_1661_640)">
<path d="M1409.55 212.834C1423.93 222.829 1439.79 232.255 1456.73 241.256C1457.56 241.681 1458.21 241.987 1459.06 242.362C1471.36 247.939 1483.73 247.096 1486.7 240.472C1487.46 238.829 1487.52 237.039 1487.04 235.113C1486.15 231.444 1486.43 227.849 1488.01 224.536C1492.88 214.298 1508.5 211.542 1522.92 218.4C1537.34 225.258 1545.04 239.083 1540.16 249.345C1538.6 252.634 1535.97 255.147 1532.56 256.77C1530.76 257.638 1529.42 258.791 1528.62 260.412C1525.38 266.906 1532.53 277.042 1544.62 283.064C1545.48 283.476 1546.32 283.876 1547.18 284.251C1564.74 291.697 1582.02 297.886 1598.77 302.849C1603.62 286.022 1609.95 268.688 1617.42 251.014C1617.8 250.161 1618.1 249.518 1618.53 248.689C1624.55 236.604 1634.68 229.448 1641.18 232.689C1642.8 233.49 1643.98 234.839 1644.82 236.635C1646.44 240.045 1648.93 242.654 1652.25 244.23C1662.48 249.101 1676.32 241.37 1683.18 226.953C1690.04 212.536 1687.28 196.912 1677.07 192.054C1673.78 190.489 1670.2 190.18 1666.49 191.085C1664.56 191.564 1662.77 191.501 1661.13 190.75C1654.52 187.756 1653.68 175.377 1659.25 163.08C1659.66 162.214 1660.06 161.373 1660.49 160.544C1669.42 143.686 1678.96 127.968 1688.79 113.542C1674.38 103.683 1658.67 94.1794 1641.84 85.2619C1641.01 84.8372 1640.18 84.4126 1639.3 84.0256C1627.01 78.4487 1614.63 79.2918 1611.63 85.9036C1610.88 87.5474 1610.82 89.337 1611.3 91.2629C1612.19 94.9322 1611.91 98.5267 1610.33 101.84C1605.46 112.078 1589.83 114.834 1575.44 107.988C1561.05 101.141 1553.31 87.2685 1558.18 77.031C1559.74 73.7421 1562.36 71.2287 1565.77 69.6062C1567.58 68.7378 1568.92 67.5847 1569.72 65.9643C1572.96 59.4702 1565.8 49.3339 1553.74 43.3236C1552.88 42.9119 1552.23 42.6061 1551.42 42.2179C1533.76 34.7252 1516.42 28.3898 1499.62 23.5505C1494.66 40.2939 1488.63 57.683 1481.18 75.2469C1480.81 76.0994 1480.43 76.9519 1480 77.8056C1473.97 89.8909 1463.84 97.047 1457.34 93.806C1455.72 93.0049 1454.55 91.6561 1453.7 89.8599C1452.09 86.4251 1449.59 83.8407 1446.28 82.2644C1436.04 77.3943 1422.2 85.1252 1415.34 99.5419C1408.49 113.958 1411.22 129.571 1421.46 134.441C1424.74 136.006 1428.36 136.302 1432.03 135.41C1433.98 134.943 1435.75 134.994 1437.39 135.745C1444 138.739 1444.85 151.118 1439.27 163.415C1438.86 164.281 1438.55 164.924 1438.17 165.74C1429.19 182.697 1419.56 198.466 1409.57 212.846L1409.55 212.834Z" fill="#713E79"/>
<path d="M1410.45 212.51C1424.75 222.433 1440.49 231.801 1457.31 240.743C1458.11 241.156 1458.76 241.462 1459.63 241.849C1471.83 247.379 1483.35 246.307 1486.18 240.103C1486.96 238.471 1486.9 236.684 1486.4 234.721C1485.44 231.017 1486.03 227.024 1487.59 223.76C1492.42 213.597 1508.73 210.925 1523.2 217.807C1537.66 224.688 1545.88 239.029 1541.05 249.193C1539.5 252.457 1536.88 255.399 1533.4 256.986C1531.55 257.806 1530.04 259.147 1529.21 260.755C1526.17 266.89 1533.02 276.457 1545.16 282.502C1546.02 282.914 1546.86 283.314 1547.71 283.689C1565.35 291.17 1581.79 296.96 1598.43 301.9C1603.26 285.184 1609.54 267.949 1616.98 250.41C1617.35 249.557 1617.65 248.939 1618.08 248.086C1624.06 236.099 1634.57 228.605 1641 231.786C1642.82 232.681 1644.21 234.099 1645.1 235.858C1646.8 239.217 1649.05 241.77 1652.34 243.335C1662.3 248.075 1675.63 240.893 1682.45 226.575C1689.26 212.258 1686.44 197.394 1676.45 192.641C1673.16 191.077 1669.71 190.949 1666.05 191.755C1664.11 192.198 1662.25 192.014 1660.34 191.133C1653.79 188.138 1652.98 175.292 1658.53 163.069C1658.94 162.204 1659.34 161.363 1659.75 160.559C1668.62 143.825 1678.09 128.193 1687.88 113.866C1673.55 104.079 1658.71 94.9872 1641.78 86.0227C1640.95 85.598 1640.12 85.1732 1639.24 84.7862C1626.9 79.1858 1615.09 80.0299 1612.31 86.1354C1611.56 87.7792 1611.54 89.5923 1612.01 91.5429C1612.91 95.396 1612.42 99.1659 1610.86 102.43C1605.91 112.841 1589.65 115.475 1575.16 108.581C1560.67 101.688 1552.5 87.309 1557.44 76.9231C1558.99 73.6589 1561.59 70.9253 1565.14 69.2145C1566.95 68.3461 1568.34 67.1918 1569.14 65.5715C1572.13 59.5601 1565.73 50.058 1553.72 44.0713C1552.88 43.6714 1552.23 43.3656 1551.39 42.9656C1533.85 35.5318 1516.64 29.2552 1499.93 24.4264C1494.99 41.0592 1489.02 58.3246 1481.62 75.7895C1481.24 76.642 1480.88 77.4698 1480.44 78.3236C1474.47 90.3098 1464.08 97.6793 1457.59 94.6219C1455.91 93.822 1454.41 92.504 1453.47 90.5995C1451.82 87.2389 1449.47 84.6638 1446.18 83.0992C1436.26 78.382 1422.88 85.5407 1416.07 99.8584C1409.26 114.176 1412.15 129.075 1422.07 133.792C1425.35 135.357 1428.85 135.533 1432.52 134.702C1434.67 134.207 1436.47 134.49 1438.24 135.361C1444.67 138.542 1445.56 151.153 1440.01 163.376C1439.61 164.217 1439.31 164.86 1438.91 165.701C1429.98 182.559 1420.41 198.204 1410.52 212.509L1410.45 212.51Z" fill="#713E79"/>
<path d="M1411.41 212.175C1425.59 222.014 1441.23 231.335 1457.96 240.205C1458.77 240.618 1459.41 240.924 1460.26 241.299C1472.39 246.794 1483.02 245.483 1485.68 239.686C1486.46 238.054 1486.3 236.281 1485.76 234.295C1484.71 230.58 1485.6 226.153 1487.14 222.913C1491.95 212.799 1508.95 210.212 1523.49 217.129C1538.03 224.046 1546.71 238.88 1541.92 248.969C1540.37 252.209 1537.76 255.604 1534.21 257.131C1532.34 257.94 1530.59 259.444 1529.79 261.064C1526.95 266.84 1533.46 275.85 1545.67 281.931C1546.54 282.342 1547.4 282.754 1548.26 283.129C1565.99 290.657 1581.56 296.06 1598.08 300.978C1602.89 284.372 1609.12 267.261 1616.5 249.821C1616.87 248.993 1617.17 248.35 1617.6 247.521C1623.54 235.609 1634.39 227.765 1640.81 230.91C1642.84 231.874 1644.43 233.386 1645.37 235.107C1647.13 238.404 1649.13 240.901 1652.42 242.465C1662.14 247.088 1674.92 240.431 1681.68 226.213C1688.44 211.994 1685.55 197.879 1675.83 193.256C1672.54 191.691 1669.24 191.731 1665.57 192.44C1663.63 192.821 1661.68 192.529 1659.52 191.53C1653.03 188.534 1652.25 175.186 1657.74 163.062C1658.14 162.221 1658.54 161.381 1658.96 160.576C1667.78 143.941 1677.16 128.421 1686.89 114.218C1672.68 104.514 1658.68 95.8226 1641.65 86.811C1640.82 86.3863 1639.96 85.9498 1639.09 85.5628C1626.67 79.9271 1615.48 80.7592 1612.89 86.3831C1612.11 88.0151 1612.21 89.8506 1612.66 91.8507C1613.56 95.8873 1612.87 99.8081 1611.33 103.047C1606.3 113.631 1589.38 116.168 1574.82 109.239C1560.25 102.31 1551.62 87.3771 1556.62 76.8676C1558.16 73.6282 1560.78 70.6615 1564.45 68.887C1566.29 68.0056 1567.74 66.8748 1568.54 65.2545C1571.25 59.7507 1565.6 50.8465 1553.69 44.9068C1552.85 44.5069 1552.2 44.2009 1551.39 43.8127C1533.95 36.426 1516.87 30.1834 1500.27 25.377C1495.35 41.8991 1489.4 59.0539 1482.07 76.3704C1481.71 77.1982 1481.34 78.0507 1480.91 78.8797C1474.97 90.7918 1464.35 98.325 1457.84 95.4395C1456.09 94.6655 1454.3 93.3901 1453.24 91.3408C1451.55 88.0178 1449.36 85.4639 1446.1 83.9111C1436.53 79.3586 1423.6 85.9449 1416.84 100.164C1410.07 114.383 1413.12 128.568 1422.69 133.121C1425.98 134.685 1429.36 134.778 1433.01 133.996C1435.38 133.484 1437.17 133.975 1439.07 134.967C1445.32 138.335 1446.27 151.19 1440.77 163.314C1440.37 164.155 1440.07 164.798 1439.68 165.614C1430.81 182.348 1421.32 197.907 1411.48 212.088L1411.41 212.175Z" fill="#713E79"/>
<path d="M1412.32 211.847C1426.4 221.639 1441.96 230.888 1458.57 239.7C1459.37 240.113 1459.99 240.407 1460.84 240.782C1472.89 246.241 1482.64 244.691 1485.14 239.301C1485.92 237.669 1485.67 235.885 1485.1 233.912C1483.99 230.174 1485.17 225.337 1486.7 222.122C1491.48 212.082 1509.18 209.555 1523.79 216.507C1538.41 223.459 1547.55 238.787 1542.79 248.802C1541.24 252.041 1538.62 255.829 1535.02 257.357C1533.12 258.154 1531.16 259.797 1530.38 261.429C1527.74 266.845 1533.95 275.286 1546.21 281.39C1547.07 281.802 1547.94 282.213 1548.79 282.589C1566.62 290.164 1581.31 295.179 1597.73 300.05C1602.48 283.568 1608.69 266.568 1616.02 249.251C1616.38 248.423 1616.69 247.78 1617.11 246.951C1623.02 235.114 1634.21 226.944 1640.62 230.052C1642.84 231.111 1644.65 232.668 1645.62 234.376C1647.45 237.611 1649.24 240.037 1652.5 241.59C1661.97 246.096 1674.23 239.976 1680.94 225.856C1687.66 211.736 1684.68 198.37 1675.21 193.865C1671.94 192.312 1668.79 192.508 1665.14 193.107C1663.19 193.427 1661.17 193.038 1658.76 191.921C1652.33 188.924 1651.59 175.11 1657.05 163.06C1657.45 162.219 1657.85 161.378 1658.26 160.574C1667.03 144.062 1676.36 128.642 1686.02 114.525C1671.91 104.869 1658.76 96.6136 1641.62 87.5796C1640.79 87.1549 1639.93 86.7185 1639.06 86.3315C1626.59 80.6723 1615.98 81.4805 1613.6 86.6228C1612.82 88.2549 1612.97 90.1138 1613.4 92.1386C1614.28 96.3472 1613.43 100.43 1611.89 103.67C1606.77 114.427 1589.2 116.866 1574.56 109.902C1559.93 102.938 1550.82 87.475 1555.89 76.8171C1557.43 73.5776 1560.05 70.4273 1563.82 68.5527C1565.68 67.6466 1567.17 66.5393 1567.97 64.919C1570.42 59.898 1565.53 51.628 1553.7 45.7237C1552.85 45.3237 1552.21 45.0179 1551.42 44.6414C1534.1 37.3135 1517.14 31.0933 1500.66 26.3457C1495.8 42.7441 1489.87 59.7882 1482.59 77.0058C1482.23 77.8336 1481.85 78.6862 1481.43 79.5152C1475.52 91.3531 1464.66 99.0746 1458.16 96.3729C1456.33 95.6248 1454.23 94.3553 1453.08 92.1978C1451.35 88.949 1449.34 86.4162 1446.05 84.8516C1436.8 80.4521 1424.33 86.466 1417.61 100.586C1410.89 114.706 1414.07 128.166 1423.35 132.577C1426.61 134.13 1429.92 134.126 1433.54 133.394C1436.13 132.865 1437.95 133.552 1439.92 134.702C1446.03 138.244 1446.99 151.344 1441.53 163.394C1441.13 164.234 1440.82 164.877 1440.43 165.693C1431.62 182.304 1422.21 197.751 1412.41 211.858L1412.32 211.847Z" fill="#713E79"/>
<path d="M1413.26 211.509C1427.26 221.229 1442.69 230.419 1459.18 239.172C1459.98 239.585 1460.6 239.879 1461.45 240.254C1473.43 245.678 1482.29 243.888 1484.62 238.906C1485.4 237.273 1485.08 235.516 1484.46 233.519C1483.28 229.745 1484.76 224.535 1486.29 221.32C1491.03 211.355 1509.4 208.875 1524.12 215.875C1538.83 222.874 1548.42 238.658 1543.68 248.624C1542.15 251.838 1539.53 256.079 1535.86 257.547C1533.92 258.32 1531.78 260.126 1530.98 261.746C1528.55 266.804 1534.43 274.699 1546.76 280.839C1547.63 281.25 1548.5 281.662 1549.37 282.049C1567.27 289.684 1581.15 294.287 1597.44 299.124C1602.17 282.753 1608.33 265.851 1615.6 248.658C1615.96 247.83 1616.25 247.212 1616.68 246.383C1622.55 234.619 1634.1 226.137 1640.45 229.185C1642.87 230.338 1644.89 231.964 1645.9 233.659C1647.81 236.843 1649.33 239.201 1652.59 240.754C1661.79 245.13 1673.51 239.548 1680.18 225.527C1686.85 211.506 1683.79 198.888 1674.59 194.512C1671.33 192.959 1668.33 193.324 1664.67 193.825C1662.72 194.084 1660.6 193.586 1657.94 192.352C1651.55 189.342 1650.89 175.049 1656.3 163.098C1656.7 162.257 1657.09 161.441 1657.5 160.637C1666.18 144.237 1675.46 128.94 1685.06 114.886C1671.03 105.301 1658.72 97.4459 1641.51 88.3766C1640.68 87.9519 1639.82 87.5155 1638.92 87.1167C1626.38 81.4222 1616.35 82.2314 1614.17 86.8674C1613.4 88.4994 1613.59 90.3819 1614.01 92.4314C1614.9 96.8237 1613.88 101.07 1612.35 104.284C1607.15 115.214 1588.93 117.556 1574.22 110.557C1559.5 103.557 1549.93 87.54 1555.06 76.7584C1556.59 73.5437 1559.23 70.1602 1563.1 68.2103C1564.97 67.2795 1566.54 66.2075 1567.31 64.5754C1569.5 60.0372 1565.36 52.4263 1553.61 46.5325C1552.77 46.1325 1552.15 45.8385 1551.33 45.4503C1534.14 38.1811 1517.27 32.0079 1500.9 27.2826C1496.07 43.5704 1490.2 60.4909 1482.97 77.6096C1482.6 78.4374 1482.24 79.2652 1481.81 80.0942C1475.95 91.8579 1464.87 99.7797 1458.34 97.2499C1456.44 96.5277 1454.03 95.2889 1452.78 92.9983C1451.03 89.7991 1449.15 87.3004 1445.89 85.7476C1436.96 81.501 1424.97 86.9543 1418.3 100.975C1411.63 114.996 1414.97 127.743 1423.89 131.99C1427.16 133.542 1430.38 133.467 1433.96 132.747C1436.77 132.202 1438.6 133.073 1440.68 134.367C1446.63 138.047 1447.61 151.428 1442.18 163.404C1441.78 164.245 1441.49 164.863 1441.1 165.679C1432.34 182.191 1423.01 197.526 1413.28 211.545L1413.26 211.509Z" fill="#713E79"/>
<path d="M1414.2 211.197C1428.11 220.845 1443.41 229.977 1459.81 238.658C1460.62 239.071 1461.24 239.365 1462.06 239.728C1473.94 245.105 1481.94 243.086 1484.11 238.512C1484.88 236.904 1484.47 235.136 1483.82 233.128C1482.6 229.33 1484.34 223.699 1485.85 220.509C1490.56 210.617 1509.63 208.197 1524.42 215.232C1539.21 222.267 1549.26 238.544 1544.56 248.435C1543.04 251.625 1540.43 256.294 1536.68 257.727C1534.71 258.489 1532.35 260.458 1531.59 262.065C1529.35 266.764 1534.9 274.102 1547.31 280.252C1548.2 280.676 1549.07 281.088 1549.92 281.463C1567.92 289.145 1580.92 293.361 1597.11 298.151C1601.82 281.89 1607.92 265.112 1615.15 248.054C1615.52 247.227 1615.81 246.608 1616.22 245.804C1622.05 234.139 1633.95 225.307 1640.28 228.319C1642.9 229.566 1645.15 231.273 1646.19 232.918C1648.17 236.015 1649.43 238.342 1652.69 239.895C1661.65 244.154 1672.82 239.096 1679.44 225.174C1686.06 211.252 1682.94 199.395 1673.99 195.137C1670.75 193.596 1667.89 194.117 1664.21 194.52C1662.26 194.742 1660.06 194.124 1657.15 192.736C1650.82 189.724 1650.17 174.953 1655.55 163.076C1655.95 162.235 1656.34 161.419 1656.74 160.64C1665.37 144.339 1674.57 129.154 1684.1 115.223C1670.17 105.685 1658.71 98.2916 1641.41 89.1505C1640.59 88.7011 1639.7 88.2776 1638.82 87.8906C1626.23 82.1725 1616.79 82.958 1614.81 87.1124C1614.04 88.7444 1614.28 90.6505 1614.69 92.7247C1615.55 97.2889 1614.35 101.722 1612.85 104.887C1607.56 115.99 1588.7 118.234 1573.91 111.2C1559.12 104.165 1549.07 87.6184 1554.27 76.6885C1555.79 73.4985 1558.41 69.8949 1562.44 67.8683C1564.32 66.9128 1565.94 65.8643 1566.72 64.2322C1568.64 60.1768 1565.25 53.1636 1553.58 47.3416C1552.77 46.9534 1552.13 46.6476 1551.33 46.2712C1534.25 39.0244 1517.51 32.91 1501.25 28.2071C1496.43 44.3842 1490.62 61.2057 1483.43 78.1643C1483.06 78.9921 1482.7 79.8199 1482.29 80.6241C1476.47 92.289 1465.14 100.424 1458.59 98.066C1456.62 97.3451 1453.89 96.137 1452.55 93.7382C1450.77 90.5884 1449.04 88.099 1445.81 86.5579C1437.2 82.4642 1425.66 87.3452 1419.04 101.267C1412.41 115.189 1415.91 127.223 1424.51 131.316C1427.78 132.869 1430.9 132.685 1434.46 132.015C1437.49 131.454 1439.35 132.52 1441.53 133.983C1447.33 137.801 1448.34 151.476 1442.95 163.377C1442.55 164.218 1442.26 164.836 1441.88 165.627C1433.2 182.027 1423.9 197.251 1414.25 211.159L1414.2 211.197Z" fill="#713E79"/>
</g>
<g filter="url(#filter1_d_1661_640)">
<path d="M106.728 17.477C104.15 34.7491 100.432 52.7256 95.5359 71.1647C95.2833 72.0612 95.0307 72.9578 94.7176 73.8641C90.4406 86.6713 81.402 95.1716 74.5191 92.8684C72.8029 92.3012 71.4483 91.13 70.3623 89.469C68.2799 86.3187 65.4515 84.0822 61.9504 82.9836C51.1335 79.5895 38.4849 89.1672 33.7053 104.4C28.9256 119.632 33.8431 134.693 44.66 138.087C48.135 139.177 51.7601 138.966 55.2691 137.57C57.1355 136.836 58.8902 136.64 60.6228 137.155C67.5876 139.197 70.1496 151.337 66.3429 164.292C66.056 165.207 65.8428 165.886 65.5723 166.748C59.0496 184.792 51.8763 201.799 43.9858 217.433C59.6347 225.184 76.5387 232.411 94.4777 238.901C95.3578 239.206 96.2379 239.511 97.1606 239.772C110.115 243.579 122.256 241.016 124.298 234.052C124.813 232.319 124.625 230.538 123.883 228.698C122.461 225.181 122.267 221.59 123.358 218.115C126.752 207.298 141.83 202.415 157.063 207.195C172.295 211.974 181.881 224.597 178.487 235.414C177.397 238.889 175.16 241.717 172.01 243.799C170.349 244.885 169.178 246.24 168.61 247.956C166.307 254.839 174.808 263.878 187.615 268.155C188.529 268.442 189.209 268.655 190.071 268.925C208.606 273.88 226.654 277.735 244.02 280.2C246.476 262.86 250.166 244.789 255.095 226.246C255.347 225.349 255.561 224.67 255.865 223.79C260.142 210.982 269.181 202.482 276.064 204.785C277.78 205.352 279.135 206.524 280.221 208.185C282.303 211.335 285.131 213.571 288.633 214.67C299.449 218.064 312.098 208.486 316.87 193.28C321.641 178.074 316.74 162.961 305.923 159.566C302.448 158.476 298.823 158.688 295.314 160.083C293.448 160.818 291.693 161.014 289.96 160.499C282.995 158.457 280.433 146.316 284.24 133.361C284.527 132.447 284.806 131.559 285.111 130.678C291.601 112.74 299.011 95.8929 306.754 80.2702L106.798 17.5278L106.728 17.477Z" fill="#1B181F"/>
<path d="M107.167 18.3611C104.595 35.5205 100.91 53.3925 96.0292 71.6927C95.7766 72.5892 95.5239 73.4858 95.2191 74.366C90.9749 87.0686 81.6401 95.964 74.8013 93.7033C72.7894 93.072 71.314 91.9202 70.1937 90.2772C68.0344 87.1888 65.4396 84.9397 61.9646 83.8493C51.409 80.5372 39.2349 89.5175 34.488 104.645C29.7411 119.773 34.6105 134.073 45.1661 137.385C48.6411 138.475 52.0214 138.13 55.558 136.829C57.4162 136.12 59.3896 136.051 61.3313 136.631C68.2357 138.683 70.8151 151.317 67.0673 164.175C66.7804 165.09 66.5754 165.743 66.2967 166.631C59.8149 184.544 52.6744 201.447 44.8511 216.958C60.4036 224.651 76.3932 231.591 94.4367 238.114C95.3168 238.418 96.1969 238.723 97.1196 238.984C110.127 242.807 121.656 240.455 123.601 233.891C124.116 232.158 123.89 230.135 123.095 228.279C121.62 224.745 121.707 220.812 122.789 217.363C126.158 206.624 141.912 201.694 157.223 206.499C172.534 211.303 182.673 224.357 179.303 235.096C178.221 238.545 175.933 241.902 172.713 243.934C170.999 245.004 169.792 246.289 169.225 248.006C167.079 254.479 174.793 263.098 187.495 267.342C188.384 267.621 189.063 267.834 189.951 268.113C208.382 273.035 226.292 276.875 243.518 279.325C245.967 262.098 249.625 244.131 254.513 225.719C254.765 224.822 254.97 224.169 255.283 223.263C259.528 210.56 268.754 201.918 275.633 203.961C277.522 204.525 279.02 205.512 280.274 207.369C282.373 210.467 285.081 212.723 288.556 213.814C299.033 217.101 311.286 208.145 316.024 193.044C320.763 177.942 315.832 163.565 305.354 160.278C301.879 159.187 298.403 159.474 294.91 160.818C292.889 161.59 290.922 161.547 289.153 160.963C282.316 158.789 279.705 146.346 283.479 133.496C283.758 132.607 284.037 131.719 284.342 130.839C290.79 113.031 298.16 96.3146 305.852 80.7621L107.229 18.4379L107.167 18.3611Z" fill="#1B181F"/>
<path d="M107.642 19.2207C105.086 36.2413 101.433 54.0088 96.5849 72.2045C96.3405 73.0749 96.0878 73.9714 95.783 74.8516C91.5634 87.4759 81.9145 96.7319 75.1198 94.5137C72.8466 93.8005 71.2242 92.6599 70.0613 91.0609C67.8514 88.0427 65.464 85.7726 61.989 84.6822C51.7208 81.4603 39.995 89.8351 35.281 104.859C30.5669 119.882 35.406 133.455 45.6742 136.676C49.1492 137.767 52.3107 137.295 55.8488 136.081C57.7168 135.433 59.8993 135.429 62.0418 136.101C68.8857 138.162 71.5168 151.272 67.7675 164.044C67.4888 164.932 67.2756 165.611 67.0051 166.473C60.5643 184.256 53.4909 201.036 45.7183 216.477C61.1745 224.111 76.2496 230.764 94.3797 237.285C95.2598 237.59 96.1661 237.903 97.0887 238.164C110.174 242.012 121.1 239.843 122.923 233.671C123.464 231.946 123.172 229.674 122.359 227.783C120.807 224.224 121.191 219.982 122.265 216.56C125.61 205.9 142.038 200.923 157.427 205.752C172.816 210.581 183.509 224.067 180.164 234.727C179.09 238.15 176.733 242.003 173.434 244.01C171.695 245.071 170.391 246.298 169.824 248.014C167.835 254.078 174.736 262.27 187.36 266.489C188.248 266.768 188.928 266.981 189.79 267.252C208.09 272.133 225.895 275.941 243.009 278.383C245.451 261.269 249.068 243.433 253.949 225.133C254.193 224.263 254.407 223.583 254.711 222.703C258.931 210.079 268.346 201.295 275.246 203.086C277.316 203.621 278.969 204.484 280.355 206.469C282.47 209.515 285.039 211.756 288.514 212.846C298.651 216.027 310.508 207.693 315.222 192.67C319.936 177.647 314.94 164.025 304.828 160.852C301.353 159.762 298.017 160.15 294.541 161.441C292.372 162.224 290.194 161.943 288.381 161.316C281.653 158.976 278.986 146.257 282.735 133.485C283.014 132.597 283.293 131.708 283.589 130.854C289.997 113.177 297.307 96.557 304.933 81.1269L107.642 19.2207Z" fill="#1B181F"/>
<path d="M108.111 20.1178C105.587 37.0338 101.949 54.6624 97.1419 72.7275C96.8975 73.5979 96.6448 74.4945 96.34 75.3746C92.145 87.9205 82.2081 97.5454 75.4574 95.3698C72.923 94.5745 71.1535 93.4453 69.9481 91.8904C67.6613 88.9342 65.4995 86.6773 62.0245 85.5869C52.0175 82.4469 40.74 90.2162 36.0587 105.135C31.3774 120.054 36.1946 132.873 46.2016 136.013C49.6504 137.096 52.5932 136.498 56.1508 135.404C58.0285 134.817 60.4118 134.904 62.7714 135.616C69.5549 137.687 72.2296 151.298 68.5131 163.966C68.2343 164.854 68.0294 165.507 67.7506 166.395C61.3427 184.073 54.3364 200.731 46.5965 216.068C61.9221 223.66 76.1432 230.017 94.3516 236.563C95.2318 236.868 96.138 237.181 97.0607 237.442C110.198 241.306 120.513 239.347 122.265 233.583C122.806 231.858 122.484 229.318 121.637 227.445C120.023 223.896 120.687 219.312 121.761 215.889C125.09 205.281 142.184 200.284 157.652 205.138C173.12 209.991 184.365 223.909 181.045 234.491C179.971 237.914 177.553 242.235 174.202 244.226C172.436 245.279 171.071 246.429 170.504 248.145C168.673 253.799 174.76 261.564 187.306 265.759C188.194 266.038 188.847 266.243 189.71 266.513C207.879 271.353 225.571 275.154 242.555 277.556C244.956 260.573 248.566 242.849 253.406 224.679C253.651 223.809 253.864 223.13 254.169 222.25C258.364 209.704 267.975 200.751 274.862 202.31C277.114 202.816 278.893 203.546 280.43 205.693C282.561 208.686 284.983 210.939 288.458 212.029C298.23 215.095 309.742 207.4 314.424 192.481C319.105 177.562 314.079 164.677 304.281 161.603C300.832 160.52 297.618 160.976 294.132 162.207C291.817 163.001 289.417 162.507 287.569 161.812C280.961 159.365 278.253 146.318 281.978 133.624C282.256 132.736 282.535 131.848 282.832 130.994C289.207 113.42 296.45 96.9232 304.043 81.5976L108.085 20.1096L108.111 20.1178Z" fill="#1B181F"/>
<path d="M108.549 21.0026C106.032 37.806 102.427 55.3302 97.6345 73.2564C97.3901 74.1268 97.1457 74.9972 96.8408 75.8774C92.6786 88.3188 82.4456 98.3387 75.7129 96.1974C72.8911 95.312 71.0186 94.2365 69.7788 92.6995C67.4331 89.8396 65.4869 87.5356 62.0381 86.4534C52.2924 83.3954 41.4893 90.5674 36.8408 105.382C32.1923 120.196 36.9876 132.262 46.7071 135.312C50.1559 136.394 52.8799 135.671 56.439 134.664C58.3264 134.137 60.9105 134.316 63.4793 135.093C70.2284 137.182 72.9287 151.26 69.2286 163.876C68.9498 164.764 68.7449 165.417 68.4744 166.279C62.1074 183.826 55.1339 200.38 47.4612 215.594C62.6904 223.128 76.0052 229.171 94.31 235.776C95.1901 236.081 96.0964 236.394 97.0452 236.663C110.261 240.552 119.947 238.769 121.602 233.405C122.143 231.68 121.782 228.898 120.882 227.009C119.191 223.436 120.152 218.542 121.218 215.146C124.522 204.616 142.317 199.581 157.837 204.451C173.357 209.321 185.164 223.645 181.86 234.174C180.795 237.571 178.308 242.387 174.878 244.353C173.06 245.39 171.633 246.463 171.092 248.188C169.426 253.405 174.718 260.777 187.16 264.939C188.048 265.218 188.701 265.423 189.564 265.693C207.629 270.501 225.19 274.261 242.061 276.656C244.455 259.785 248.032 242.166 252.858 224.135C253.102 223.265 253.307 222.612 253.612 221.732C257.774 209.29 267.624 200.126 274.49 201.477C276.897 201.945 278.839 202.526 280.543 204.869C282.691 207.81 284.992 210.082 288.441 211.164C297.873 214.124 308.99 207.05 313.638 192.236C318.287 177.421 313.204 165.265 303.772 162.305C300.323 161.223 297.25 161.78 293.788 162.932C291.317 163.764 288.706 163.031 286.822 162.267C280.315 159.68 277.558 146.331 281.25 133.742C281.529 132.853 281.8 131.991 282.096 131.137C288.404 113.686 295.641 97.3018 303.175 82.0725L108.549 21.0026Z" fill="#1B181F"/>
<path d="M109.025 21.8745C106.54 38.5733 102.951 55.9587 98.191 73.7804C97.9465 74.6508 97.7022 75.5212 97.4055 76.3752C93.2679 88.7382 82.7469 99.1271 76.0582 97.0283C72.9751 96.0609 70.9556 94.9966 69.6652 93.5298C67.2426 90.7319 65.53 88.4151 62.0812 87.3329C52.623 84.3651 42.242 90.9233 37.6263 105.633C33.0106 120.343 37.7577 131.648 47.2421 134.624C50.6909 135.706 53.1962 134.857 56.7568 133.936C58.6622 133.443 61.4471 133.715 64.2166 134.584C70.9053 136.682 73.6229 151.254 69.9557 163.764C69.6769 164.653 69.472 165.306 69.2096 166.142C62.9098 183.567 55.9691 200.015 48.3553 215.133C63.4883 222.608 75.8886 228.365 94.306 234.976C95.1862 235.281 96.1186 235.602 97.0413 235.863C110.336 239.776 119.384 238.196 120.942 233.231C121.475 231.533 121.083 228.483 120.157 226.585C118.414 222.996 119.655 217.76 120.704 214.416C123.984 203.964 142.454 198.883 158.052 203.777C173.65 208.672 186.011 223.427 182.731 233.879C181.674 237.249 179.144 242.568 175.636 244.51C173.792 245.539 172.294 246.561 171.762 248.259C170.253 253.067 174.732 260.011 187.122 264.157C187.984 264.428 188.663 264.641 189.499 264.903C207.434 269.67 224.882 273.423 241.64 275.811C244.028 259.053 247.564 241.565 252.349 223.665C252.593 222.795 252.798 222.141 253.095 221.287C257.232 208.924 267.26 199.558 274.123 200.735C276.712 201.175 278.781 201.623 280.644 204.102C282.8 207.017 284.962 209.274 288.411 210.356C297.503 213.209 308.25 206.765 312.866 192.056C317.481 177.346 312.342 165.918 303.25 163.065C299.801 161.982 296.876 162.615 293.397 163.733C290.779 164.576 287.948 163.63 286.027 162.798C279.622 160.07 276.843 146.427 280.51 133.916C280.781 133.054 281.059 132.166 281.348 131.338C287.615 114.018 294.792 97.7295 302.259 82.6227L108.966 21.9709L109.025 21.8745Z" fill="#1B181F"/>
</g>
<defs>
<filter id="filter0_d_1661_640" x="1405.55" y="23.5505" width="287.246" height="287.298" filterUnits="userSpaceOnUse" color-interpolation-filters="sRGB">
<feFlood flood-opacity="0" result="BackgroundImageFix"/>
<feColorMatrix in="SourceAlpha" type="matrix" values="0 0 0 0 0 0 0 0 0 0 0 0 0 0 0 0 0 0 127 0" result="hardAlpha"/>
<feOffset dy="4"/>
<feGaussianBlur stdDeviation="2"/>
<feComposite in2="hardAlpha" operator="out"/>
<feColorMatrix type="matrix" values="0 0 0 0 0 0 0 0 0 0 0 0 0 0 0 0 0 0 0.25 0"/>
<feBlend mode="normal" in2="BackgroundImageFix" result="effect1_dropShadow_1661_640"/>
<feBlend mode="normal" in="SourceGraphic" in2="effect1_dropShadow_1661_640" result="shape"/>
</filter>
<filter id="filter1_d_1661_640" x="27.877" y="17.477" width="294.819" height="270.723" filterUnits="userSpaceOnUse" color-interpolation-filters="sRGB">
<feFlood flood-opacity="0" result="BackgroundImageFix"/>
<feColorMatrix in="SourceAlpha" type="matrix" values="0 0 0 0 0 0 0 0 0 0 0 0 0 0 0 0 0 0 127 0" result="hardAlpha"/>
<feOffset dy="4"/>
<feGaussianBlur stdDeviation="2"/>
<feComposite in2="hardAlpha" operator="out"/>
<feColorMatrix type="matrix" values="0 0 0 0 0 0 0 0 0 0 0 0 0 0 0 0 0 0 0.25 0"/>
<feBlend mode="normal" in2="BackgroundImageFix" result="effect1_dropShadow_1661_640"/>
<feBlend mode="normal" in="SourceGraphic" in2="effect1_dropShadow_1661_640" result="shape"/>
</filter>
</defs>
</svg>
