<svg width="271" height="271" viewBox="0 0 271 271" fill="none" xmlns="http://www.w3.org/2000/svg">
<path d="M0.199291 183.197C14.1072 192.845 29.4137 201.977 45.8137 210.658C46.618 211.071 47.2361 211.365 48.0639 211.728C59.9405 217.105 67.9361 215.086 70.1123 210.512C70.877 208.904 70.4748 207.136 69.823 205.128C68.5971 201.33 70.3361 195.699 71.8536 192.509C76.5591 182.617 95.6318 180.197 110.419 187.232C125.207 194.267 135.264 210.544 130.559 220.435C129.041 223.625 126.426 228.294 122.681 229.727C120.712 230.489 118.35 232.458 117.585 234.065C115.35 238.764 120.896 246.102 133.314 252.252C134.204 252.676 135.07 253.088 135.923 253.463C153.92 261.145 166.925 265.361 183.114 270.151C187.817 253.89 193.918 237.112 201.153 220.054C201.517 219.227 201.811 218.608 202.224 217.804C208.046 206.139 219.95 197.307 226.28 200.319C228.901 201.566 231.152 203.273 232.189 204.918C234.172 208.015 235.431 210.342 238.695 211.895C247.646 216.154 258.816 211.096 265.439 197.174C272.062 183.252 268.938 171.395 259.987 167.137C256.747 165.596 253.891 166.117 250.212 166.52C248.257 166.742 246.065 166.124 243.147 164.736C236.816 161.724 236.171 146.953 241.548 135.076C241.948 134.235 242.336 133.419 242.737 132.64C251.371 116.339 260.566 101.154 270.104 87.2233C256.174 77.6853 244.711 70.2916 227.408 61.1505C226.59 60.7011 225.7 60.2776 224.823 59.8906C212.229 54.1725 202.789 54.958 200.812 59.1124C200.036 60.7444 200.282 62.6505 200.69 64.7247C201.551 69.2889 200.352 73.7219 198.846 76.8872C193.564 87.9902 174.696 90.2345 159.909 83.1998C145.121 76.1652 135.071 59.6184 140.27 48.6885C141.788 45.4985 144.412 41.8949 148.439 39.8683C150.319 38.9128 151.939 37.8643 152.716 36.2322C154.645 32.1768 151.249 25.1636 139.584 19.3416C138.768 18.9534 138.125 18.6476 137.334 18.2712C120.252 11.0244 103.51 4.90999 87.2496 0.207067C82.4348 16.3842 76.616 33.2057 69.428 50.1643C69.0645 50.9921 68.7011 51.8199 68.2882 52.6241C62.4662 64.289 51.1364 72.424 44.5861 70.066C42.6244 69.3451 39.8937 68.137 38.5483 65.7382C36.7716 62.5884 35.0446 60.099 31.8052 58.5579C23.1998 54.4642 11.6593 59.3452 5.03642 73.2673C-1.58647 87.1894 1.90772 99.2225 10.5132 103.316C13.7773 104.869 16.8972 104.685 20.4607 104.015C23.4874 103.454 25.3456 104.52 27.5301 105.983C33.3252 109.801 34.3406 123.476 28.9519 135.377C28.552 136.218 28.2579 136.836 27.8815 137.627C19.2004 154.027 9.89618 169.251 0.247577 183.159L0.199291 183.197Z" fill="#713E79"/>
</svg>
