<svg width="349" height="295" viewBox="0 0 349 295" fill="none" xmlns="http://www.w3.org/2000/svg">
<g filter="url(#filter0_d_1661_648)">
<path d="M106.728 13.477C104.15 30.7491 100.432 48.7256 95.5359 67.1647C95.2833 68.0612 95.0307 68.9578 94.7176 69.8641C90.4406 82.6713 81.402 91.1716 74.5191 88.8684C72.8029 88.3012 71.4483 87.13 70.3623 85.469C68.2799 82.3187 65.4515 80.0822 61.9504 78.9836C51.1335 75.5895 38.4849 85.1672 33.7053 100.4C28.9256 115.632 33.8431 130.693 44.66 134.087C48.135 135.177 51.7601 134.966 55.2691 133.57C57.1355 132.836 58.8902 132.64 60.6228 133.155C67.5876 135.197 70.1496 147.337 66.3429 160.292C66.056 161.207 65.8428 161.886 65.5723 162.748C59.0496 180.792 51.8763 197.799 43.9858 213.433C59.6347 221.184 76.5387 228.411 94.4777 234.901C95.3578 235.206 96.2379 235.511 97.1606 235.772C110.115 239.579 122.256 237.016 124.298 230.052C124.813 228.319 124.625 226.538 123.883 224.698C122.461 221.181 122.267 217.59 123.358 214.115C126.752 203.298 141.83 198.415 157.063 203.195C172.295 207.974 181.881 220.597 178.487 231.414C177.397 234.889 175.16 237.717 172.01 239.799C170.349 240.885 169.178 242.24 168.61 243.956C166.307 250.839 174.808 259.878 187.615 264.155C188.529 264.442 189.209 264.655 190.071 264.925C208.606 269.88 226.654 273.735 244.02 276.2C246.476 258.86 250.166 240.789 255.095 222.246C255.347 221.349 255.561 220.67 255.865 219.79C260.142 206.982 269.181 198.482 276.064 200.785C277.78 201.352 279.135 202.524 280.221 204.185C282.303 207.335 285.131 209.571 288.633 210.67C299.449 214.064 312.098 204.486 316.87 189.28C321.641 174.074 316.74 158.961 305.923 155.566C302.448 154.476 298.823 154.688 295.314 156.083C293.448 156.818 291.693 157.014 289.96 156.499C282.995 154.457 280.433 142.316 284.24 129.361C284.527 128.447 284.806 127.559 285.111 126.678C291.601 108.74 299.011 91.8929 306.754 76.2702L106.798 13.5278L106.728 13.477Z" fill="#1B181F"/>
<path d="M107.167 14.3611C104.595 31.5205 100.91 49.3925 96.0292 67.6927C95.7766 68.5892 95.5239 69.4858 95.2191 70.366C90.9749 83.0686 81.6401 91.964 74.8013 89.7033C72.7894 89.072 71.314 87.9202 70.1937 86.2772C68.0344 83.1888 65.4396 80.9397 61.9646 79.8493C51.409 76.5372 39.2349 85.5175 34.488 100.645C29.7411 115.773 34.6105 130.073 45.1661 133.385C48.6411 134.475 52.0214 134.13 55.558 132.829C57.4162 132.12 59.3896 132.051 61.3313 132.631C68.2357 134.683 70.8151 147.317 67.0673 160.175C66.7804 161.09 66.5754 161.743 66.2967 162.631C59.8149 180.544 52.6744 197.447 44.8511 212.958C60.4036 220.651 76.3932 227.591 94.4367 234.114C95.3168 234.418 96.1969 234.723 97.1196 234.984C110.127 238.807 121.656 236.455 123.601 229.891C124.116 228.158 123.89 226.135 123.095 224.279C121.62 220.745 121.707 216.812 122.789 213.363C126.158 202.624 141.912 197.694 157.223 202.499C172.534 207.303 182.673 220.357 179.303 231.096C178.221 234.545 175.933 237.902 172.713 239.934C170.999 241.004 169.792 242.289 169.225 244.006C167.079 250.479 174.793 259.098 187.495 263.342C188.384 263.621 189.063 263.834 189.951 264.113C208.382 269.035 226.292 272.875 243.518 275.325C245.967 258.098 249.625 240.131 254.513 221.719C254.765 220.822 254.97 220.169 255.283 219.263C259.528 206.56 268.754 197.918 275.633 199.961C277.522 200.525 279.02 201.512 280.274 203.369C282.373 206.467 285.081 208.723 288.556 209.814C299.033 213.101 311.286 204.145 316.024 189.044C320.763 173.942 315.832 159.565 305.354 156.278C301.879 155.187 298.403 155.474 294.91 156.818C292.889 157.59 290.922 157.547 289.153 156.963C282.316 154.789 279.705 142.346 283.479 129.496C283.758 128.607 284.037 127.719 284.342 126.839C290.79 109.031 298.16 92.3146 305.852 76.7621L107.229 14.4379L107.167 14.3611Z" fill="#1B181F"/>
<path d="M107.642 15.2207C105.086 32.2413 101.433 50.0088 96.5849 68.2045C96.3405 69.0749 96.0878 69.9714 95.783 70.8516C91.5634 83.4759 81.9145 92.7319 75.1198 90.5137C72.8466 89.8005 71.2242 88.6599 70.0613 87.0609C67.8514 84.0427 65.464 81.7726 61.989 80.6822C51.7208 77.4603 39.995 85.8351 35.281 100.859C30.5669 115.882 35.406 129.455 45.6742 132.676C49.1492 133.767 52.3107 133.295 55.8488 132.081C57.7168 131.433 59.8993 131.429 62.0418 132.101C68.8857 134.162 71.5168 147.272 67.7675 160.044C67.4888 160.932 67.2756 161.611 67.0051 162.473C60.5643 180.256 53.4909 197.036 45.7183 212.477C61.1745 220.111 76.2496 226.764 94.3797 233.285C95.2598 233.59 96.1661 233.903 97.0887 234.164C110.174 238.012 121.1 235.843 122.923 229.671C123.464 227.946 123.172 225.674 122.359 223.783C120.807 220.224 121.191 215.982 122.265 212.56C125.61 201.9 142.038 196.923 157.427 201.752C172.816 206.581 183.509 220.067 180.164 230.727C179.09 234.15 176.733 238.003 173.434 240.01C171.695 241.071 170.391 242.298 169.824 244.014C167.835 250.078 174.736 258.27 187.36 262.489C188.248 262.768 188.928 262.981 189.79 263.252C208.09 268.133 225.895 271.941 243.009 274.383C245.451 257.269 249.068 239.433 253.949 221.133C254.193 220.263 254.407 219.583 254.711 218.703C258.931 206.079 268.346 197.295 275.246 199.086C277.316 199.621 278.969 200.484 280.355 202.469C282.47 205.515 285.039 207.756 288.514 208.846C298.651 212.027 310.508 203.693 315.222 188.67C319.936 173.647 314.94 160.025 304.828 156.852C301.353 155.762 298.017 156.15 294.541 157.441C292.372 158.224 290.194 157.943 288.381 157.316C281.653 154.976 278.986 142.257 282.735 129.485C283.014 128.597 283.293 127.708 283.589 126.854C289.997 109.177 297.307 92.557 304.933 77.1269L107.642 15.2207Z" fill="#1B181F"/>
<path d="M108.111 16.1178C105.587 33.0338 101.949 50.6624 97.1419 68.7275C96.8975 69.5979 96.6448 70.4945 96.34 71.3746C92.145 83.9205 82.2081 93.5454 75.4574 91.3698C72.923 90.5745 71.1535 89.4453 69.9481 87.8904C67.6613 84.9342 65.4995 82.6773 62.0245 81.5869C52.0175 78.4469 40.74 86.2162 36.0587 101.135C31.3774 116.054 36.1946 128.873 46.2016 132.013C49.6504 133.096 52.5932 132.498 56.1508 131.404C58.0285 130.817 60.4118 130.904 62.7714 131.616C69.5549 133.687 72.2296 147.298 68.5131 159.966C68.2343 160.854 68.0294 161.507 67.7506 162.395C61.3427 180.073 54.3364 196.731 46.5965 212.068C61.9221 219.66 76.1432 226.017 94.3516 232.563C95.2318 232.868 96.138 233.181 97.0607 233.442C110.198 237.306 120.513 235.347 122.265 229.583C122.806 227.858 122.484 225.318 121.637 223.445C120.023 219.896 120.687 215.312 121.761 211.889C125.09 201.281 142.184 196.284 157.652 201.138C173.12 205.991 184.365 219.909 181.045 230.491C179.971 233.914 177.553 238.235 174.202 240.226C172.436 241.279 171.071 242.429 170.504 244.145C168.673 249.799 174.76 257.564 187.306 261.759C188.194 262.038 188.847 262.243 189.71 262.513C207.879 267.353 225.571 271.154 242.555 273.556C244.956 256.573 248.566 238.849 253.406 220.679C253.651 219.809 253.864 219.13 254.169 218.25C258.364 205.704 267.975 196.751 274.862 198.31C277.114 198.816 278.893 199.546 280.43 201.693C282.561 204.686 284.983 206.939 288.458 208.029C298.23 211.095 309.742 203.4 314.424 188.481C319.105 173.562 314.079 160.677 304.281 157.603C300.832 156.52 297.618 156.976 294.132 158.207C291.817 159.001 289.417 158.507 287.569 157.812C280.961 155.365 278.253 142.318 281.978 129.624C282.256 128.736 282.535 127.848 282.832 126.994C289.207 109.42 296.45 92.9232 304.043 77.5976L108.085 16.1096L108.111 16.1178Z" fill="#1B181F"/>
<path d="M108.549 17.0026C106.032 33.806 102.427 51.3302 97.6345 69.2564C97.3901 70.1268 97.1457 70.9972 96.8408 71.8774C92.6786 84.3188 82.4456 94.3387 75.7129 92.1974C72.8911 91.312 71.0186 90.2365 69.7788 88.6995C67.4331 85.8396 65.4869 83.5356 62.0381 82.4534C52.2924 79.3954 41.4893 86.5674 36.8408 101.382C32.1923 116.196 36.9876 128.262 46.7071 131.312C50.1559 132.394 52.8799 131.671 56.439 130.664C58.3264 130.137 60.9105 130.316 63.4793 131.093C70.2284 133.182 72.9287 147.26 69.2286 159.876C68.9498 160.764 68.7449 161.417 68.4744 162.279C62.1074 179.826 55.1339 196.38 47.4612 211.594C62.6904 219.128 76.0052 225.171 94.31 231.776C95.1901 232.081 96.0964 232.394 97.0452 232.663C110.261 236.552 119.947 234.769 121.602 229.405C122.143 227.68 121.782 224.898 120.882 223.009C119.191 219.436 120.152 214.542 121.218 211.146C124.522 200.616 142.317 195.581 157.837 200.451C173.357 205.321 185.164 219.645 181.86 230.174C180.795 233.571 178.308 238.387 174.878 240.353C173.06 241.39 171.633 242.463 171.092 244.188C169.426 249.405 174.718 256.777 187.16 260.939C188.048 261.218 188.701 261.423 189.564 261.693C207.629 266.501 225.19 270.261 242.061 272.656C244.455 255.785 248.032 238.166 252.858 220.135C253.102 219.265 253.307 218.612 253.612 217.732C257.774 205.29 267.624 196.126 274.49 197.477C276.897 197.945 278.839 198.526 280.543 200.869C282.691 203.81 284.992 206.082 288.441 207.164C297.873 210.124 308.99 203.05 313.638 188.236C318.287 173.421 313.204 161.265 303.772 158.305C300.323 157.223 297.25 157.78 293.788 158.932C291.317 159.764 288.706 159.031 286.822 158.267C280.315 155.68 277.558 142.331 281.25 129.742C281.529 128.853 281.8 127.991 282.096 127.137C288.404 109.686 295.641 93.3018 303.175 78.0725L108.549 17.0026Z" fill="#1B181F"/>
<path d="M109.025 17.8745C106.54 34.5733 102.951 51.9587 98.191 69.7804C97.9465 70.6508 97.7022 71.5212 97.4055 72.3752C93.2679 84.7382 82.7469 95.1271 76.0582 93.0283C72.9751 92.0609 70.9556 90.9966 69.6652 89.5298C67.2426 86.7319 65.53 84.4151 62.0812 83.3329C52.623 80.3651 42.242 86.9233 37.6263 101.633C33.0106 116.343 37.7577 127.648 47.2421 130.624C50.6909 131.706 53.1962 130.857 56.7568 129.936C58.6622 129.443 61.4471 129.715 64.2166 130.584C70.9053 132.682 73.6229 147.254 69.9557 159.764C69.6769 160.653 69.472 161.306 69.2096 162.142C62.9098 179.567 55.9691 196.015 48.3553 211.133C63.4883 218.608 75.8886 224.365 94.306 230.976C95.1862 231.281 96.1186 231.602 97.0413 231.863C110.336 235.776 119.384 234.196 120.942 229.231C121.475 227.533 121.083 224.483 120.157 222.585C118.414 218.996 119.655 213.76 120.704 210.416C123.984 199.964 142.454 194.883 158.052 199.777C173.65 204.672 186.011 219.427 182.731 229.879C181.674 233.249 179.144 238.568 175.636 240.51C173.792 241.539 172.294 242.561 171.762 244.259C170.253 249.067 174.732 256.011 187.122 260.157C187.984 260.428 188.663 260.641 189.499 260.903C207.434 265.67 224.882 269.423 241.64 271.811C244.028 255.053 247.564 237.565 252.349 219.665C252.593 218.795 252.798 218.141 253.095 217.287C257.232 204.924 267.26 195.558 274.123 196.735C276.712 197.175 278.781 197.623 280.644 200.102C282.8 203.017 284.962 205.274 288.411 206.356C297.503 209.209 308.25 202.765 312.866 188.056C317.481 173.346 312.342 161.918 303.25 159.065C299.801 157.982 296.876 158.615 293.397 159.733C290.779 160.576 287.948 159.63 286.027 158.798C279.622 156.07 276.843 142.427 280.51 129.916C280.781 129.054 281.059 128.166 281.348 127.338C287.615 110.018 294.792 93.7295 302.259 78.6227L108.966 17.9709L109.025 17.8745Z" fill="#1B181F"/>
</g>
<defs>
<filter id="filter0_d_1661_648" x="27.877" y="13.477" width="294.819" height="270.723" filterUnits="userSpaceOnUse" color-interpolation-filters="sRGB">
<feFlood flood-opacity="0" result="BackgroundImageFix"/>
<feColorMatrix in="SourceAlpha" type="matrix" values="0 0 0 0 0 0 0 0 0 0 0 0 0 0 0 0 0 0 127 0" result="hardAlpha"/>
<feOffset dy="4"/>
<feGaussianBlur stdDeviation="2"/>
<feComposite in2="hardAlpha" operator="out"/>
<feColorMatrix type="matrix" values="0 0 0 0 0 0 0 0 0 0 0 0 0 0 0 0 0 0 0.25 0"/>
<feBlend mode="normal" in2="BackgroundImageFix" result="effect1_dropShadow_1661_648"/>
<feBlend mode="normal" in="SourceGraphic" in2="effect1_dropShadow_1661_648" result="shape"/>
</filter>
</defs>
</svg>
