<svg width="112" height="123" viewBox="0 0 112 123" fill="none" xmlns="http://www.w3.org/2000/svg">
<path d="M21.3463 96.8493C24.1376 103.944 27.1337 110.641 30.3681 116.823C36.4327 113.543 42.9788 110.479 49.9193 107.69L49.93 107.686L49.9407 107.682C50.3285 107.533 50.6347 107.426 51.0385 107.298C53.8964 106.36 56.7609 106.128 59.1139 106.581C61.4105 107.023 63.5803 108.215 64.3096 110.445C64.6773 111.56 64.5798 112.67 64.217 113.706C63.796 114.927 63.7817 116.121 64.174 117.254C64.776 118.994 66.3175 120.352 68.5539 121.037C70.7896 121.722 73.6171 121.689 76.4795 120.688C79.341 119.688 81.5778 117.948 82.9076 116.015C84.2384 114.08 84.6078 112.054 84.008 110.32C83.6154 109.186 82.8657 108.258 81.78 107.563L81.7755 107.56C80.8626 106.971 80.1006 106.178 79.6976 105.068C78.8905 102.864 79.8561 100.575 81.3845 98.7954C82.9512 96.9709 85.3433 95.3649 88.1667 94.3177L88.1799 94.3128L88.1933 94.3081L88.2024 94.3049C88.5719 94.1758 88.9556 94.0416 89.3468 93.9181L89.3569 93.9149L89.367 93.9118C96.4106 91.7959 103.282 90.2074 109.94 88.9741L81.673 7.31029C75.6843 10.487 69.3044 13.4563 62.477 16.1895C62.0709 16.3592 61.6667 16.4998 61.267 16.6266C58.4089 17.5645 55.5444 17.7964 53.1912 17.3434C50.8946 16.9012 48.7249 15.7096 47.9955 13.4794C47.628 12.3649 47.7252 11.2554 48.0878 10.2198C48.5087 8.99969 48.5239 7.80495 48.1273 6.65906C47.5253 4.91976 45.9838 3.56197 43.7474 2.87658C41.5117 2.1914 38.6842 2.22459 35.8217 3.22529C32.9603 4.22566 30.7235 5.96545 29.3936 7.89888C28.0629 9.83359 27.6934 11.8599 28.2933 13.593C28.6856 14.7263 29.4356 15.657 30.5308 16.3652C31.4432 16.9542 32.2047 17.7472 32.6076 18.8561C33.4146 21.0606 32.449 23.3493 30.9207 25.1292C29.354 26.9537 26.9619 28.5597 24.1385 29.6069L24.1252 29.6118L24.1119 29.6164L24.1097 29.6172L24.1075 29.618L24.1053 29.6188L24.1031 29.6195L24.1009 29.6203L24.0987 29.6211L24.0965 29.6218L24.0943 29.6226L24.0921 29.6233L24.0899 29.6241L24.0878 29.6249L24.0856 29.6256L24.0834 29.6264L24.0812 29.6272L24.0791 29.6279L24.0769 29.6287L24.0747 29.6294L24.0726 29.6302L24.0704 29.6309L24.0682 29.6317L24.0661 29.6325L24.0639 29.6332L24.0618 29.634L24.0596 29.6347L24.0575 29.6355L24.0553 29.6362L24.0532 29.637L24.051 29.6377L24.0489 29.6385L24.0467 29.6392L24.0446 29.64L24.0425 29.6407L24.0403 29.6415L24.0382 29.6422L24.0361 29.643L24.0339 29.6437L24.0318 29.6444L24.0297 29.6452L24.0276 29.6459L24.0254 29.6467L24.0233 29.6474L24.0212 29.6481L24.0191 29.6489L24.017 29.6496L24.0149 29.6504L24.0127 29.6511L24.0106 29.6518L24.0085 29.6526L24.0064 29.6533L24.0043 29.654L24.0022 29.6548L24.0001 29.6555L23.998 29.6563L23.9959 29.657L23.9938 29.6577L23.9917 29.6584L23.9896 29.6592L23.9876 29.6599L23.9855 29.6606L23.9834 29.6614L23.9813 29.6621L23.9792 29.6628L23.9771 29.6636L23.9751 29.6643L23.973 29.665L23.9709 29.6657L23.9688 29.6665L23.9668 29.6672L23.9647 29.6679L23.9626 29.6686L23.9605 29.6693L23.9585 29.6701L23.9564 29.6708L23.9544 29.6715L23.9523 29.6722L23.9502 29.673L23.9482 29.6737L23.9461 29.6744L23.9441 29.6751L23.942 29.6758L23.94 29.6765L23.9379 29.6773L23.9359 29.678L23.9338 29.6787L23.9318 29.6794L23.9297 29.6801L23.9277 29.6808L23.9256 29.6816L23.9236 29.6823L23.9216 29.683L23.9195 29.6837L23.9175 29.6844L23.9155 29.6851L23.9134 29.6858L23.9114 29.6865L23.9094 29.6872L23.9073 29.6879L23.9053 29.6887L23.9033 29.6894L23.9013 29.6901L23.8993 29.6908L23.8972 29.6915L23.8952 29.6922L23.8932 29.6929L23.8912 29.6936L23.8892 29.6943L23.8871 29.695L23.8851 29.6957L23.8831 29.6964L23.8811 29.6971L23.8791 29.6978L23.8771 29.6985L23.8751 29.6992L23.8731 29.6999L23.8711 29.7006L23.8691 29.7013L23.8671 29.702L23.8651 29.7027L23.8631 29.7034L23.8611 29.7041L23.8591 29.7048L23.8571 29.7055L23.8551 29.7062L23.8531 29.7069L23.8511 29.7076L23.8491 29.7083L23.8471 29.709L23.8452 29.7097L23.8432 29.7104L23.8412 29.7111L23.8392 29.7118L23.8372 29.7125L23.8352 29.7132L23.8333 29.7138L23.8313 29.7145L23.8293 29.7152L23.8273 29.7159L23.8254 29.7166L23.8234 29.7173L23.8214 29.718L23.8194 29.7187L23.8175 29.7194L23.8155 29.7201L23.8135 29.7208L23.8115 29.7214L23.8096 29.7221L23.8076 29.7228L23.8057 29.7235L23.8037 29.7242L23.8017 29.7249L23.7998 29.7256L23.7978 29.7262L23.7958 29.7269L23.7939 29.7276L23.7919 29.7283L23.79 29.729L23.788 29.7297L23.7861 29.7304L23.7841 29.731L23.7821 29.7317L23.7802 29.7324L23.7782 29.7331L23.7763 29.7338L23.7743 29.7344L23.7724 29.7351L23.7704 29.7358L23.7685 29.7365L23.7665 29.7372L23.7646 29.7379L23.7627 29.7385L23.7607 29.7392L23.7588 29.7399L23.7568 29.7406L23.7549 29.7413L23.7529 29.7419L23.751 29.7426L23.7491 29.7433L23.7471 29.744L23.7452 29.7446L23.7432 29.7453L23.7413 29.746L23.7394 29.7467L23.7374 29.7473L23.7355 29.748L23.7336 29.7487L23.7316 29.7494L23.7297 29.7501L23.7278 29.7507L23.7258 29.7514L23.7239 29.7521L23.722 29.7528L23.7201 29.7534L23.7181 29.7541L23.7162 29.7548L23.7143 29.7554L23.7123 29.7561L23.7104 29.7568L23.7085 29.7575L23.7066 29.7581L23.7046 29.7588L23.7027 29.7595L23.7008 29.7602L23.6989 29.7608L23.697 29.7615L23.695 29.7622L23.6931 29.7628L23.6912 29.7635L23.6893 29.7642L23.6874 29.7649L23.6854 29.7655L23.6835 29.7662L23.6816 29.7669L23.6797 29.7675L23.6778 29.7682L23.6758 29.7689L23.6739 29.7695L23.672 29.7702L23.6701 29.7709L23.6682 29.7716L23.6663 29.7722L23.6644 29.7729L23.6624 29.7736L23.6605 29.7742L23.6586 29.7749L23.6567 29.7756L23.6548 29.7762L23.6529 29.7769L23.651 29.7776L23.6491 29.7782L23.6472 29.7789L23.6452 29.7796L23.6433 29.7802L23.6414 29.7809L23.6395 29.7816L23.6376 29.7822L23.6357 29.7829L23.6338 29.7836L23.6319 29.7842L23.63 29.7849L23.6281 29.7856L23.6262 29.7862L23.6243 29.7869L23.6224 29.7876L23.6204 29.7882L23.6185 29.7889L23.6166 29.7896L23.6147 29.7902L23.6128 29.7909L23.6109 29.7916L23.609 29.7922L23.6071 29.7929L23.6052 29.7936L23.6033 29.7942L23.6014 29.7949L23.5995 29.7956L23.5976 29.7962L23.5957 29.7969L23.5938 29.7976L23.5919 29.7982L23.59 29.7989L23.5881 29.7996L23.5862 29.8002L23.5843 29.8009L23.5824 29.8016L23.5805 29.8022L23.5786 29.8029L23.5766 29.8036L23.5747 29.8042L23.5728 29.8049L23.5709 29.8056L23.569 29.8062L23.5671 29.8069L23.5652 29.8076L23.5633 29.8082L23.5614 29.8089L23.5595 29.8095L23.5576 29.8102L23.5557 29.8109L23.5538 29.8115L23.5519 29.8122L23.55 29.8129L23.5481 29.8135L23.5462 29.8142L23.5443 29.8149L23.5424 29.8155L23.5405 29.8162L23.5386 29.8169L23.5367 29.8175L23.5348 29.8182L23.5329 29.8189L23.531 29.8195L23.5291 29.8202L23.5272 29.8209L23.5252 29.8215L23.5233 29.8222L23.5214 29.8229L23.5195 29.8235L23.5176 29.8242L23.5157 29.8249L23.5138 29.8255L23.5119 29.8262L23.51 29.8269L23.5081 29.8275L23.5062 29.8282L23.5043 29.8289L23.5024 29.8295L23.5005 29.8302L23.4986 29.8309L23.4966 29.8315L23.4947 29.8322L23.4928 29.8329L23.4909 29.8335L23.489 29.8342L23.4871 29.8349L23.4852 29.8355L23.4833 29.8362L23.4814 29.8369L23.4795 29.8375L23.4775 29.8382L23.4756 29.8389L23.4737 29.8395L23.4718 29.8402L23.4699 29.8409L23.468 29.8416L23.4661 29.8422L23.4641 29.8429L23.4622 29.8436L23.4603 29.8442L23.4584 29.8449L23.4565 29.8456L23.4546 29.8462L23.4526 29.8469L23.4507 29.8476L23.4488 29.8483L23.4469 29.8489L23.445 29.8496L23.443 29.8503L23.4411 29.8509L23.4392 29.8516L23.4373 29.8523L23.4354 29.853L23.4334 29.8536L23.4315 29.8543L23.4296 29.855L23.4277 29.8556L23.4257 29.8563L23.4238 29.857L23.4219 29.8577L23.42 29.8583L23.418 29.859L23.4161 29.8597L23.4142 29.8604L23.4122 29.861L23.4103 29.8617L23.4084 29.8624L23.4064 29.8631L23.4045 29.8637L23.4026 29.8644L23.4006 29.8651L23.3987 29.8658L23.3968 29.8664L23.3948 29.8671L23.3929 29.8678L23.391 29.8685L23.389 29.8692L23.3871 29.8698L23.3851 29.8705L23.3832 29.8712L23.3813 29.8719L23.3793 29.8725L23.3774 29.8732L23.3754 29.8739L23.3735 29.8746L23.3715 29.8753L23.3696 29.8759L23.3676 29.8766L23.3657 29.8773L23.3637 29.878L23.3618 29.8787L23.3598 29.8794L23.3579 29.88L23.3559 29.8807L23.354 29.8814L23.352 29.8821L23.3501 29.8828L23.3481 29.8835L23.3462 29.8841L23.3442 29.8848L23.3422 29.8855L23.3403 29.8862L23.3383 29.8869L23.3364 29.8876L23.3344 29.8883L23.3324 29.8889L23.3305 29.8896L23.3285 29.8903L23.3265 29.891L23.3246 29.8917L23.3226 29.8924L23.3206 29.8931L23.3187 29.8938L23.3167 29.8944L23.3147 29.8951L23.3127 29.8958L23.3108 29.8965L23.3088 29.8972L23.3068 29.8979L23.3048 29.8986L23.3028 29.8993L23.3009 29.9L23.2989 29.9007L23.2969 29.9014L23.2949 29.9021L23.2929 29.9028L23.2909 29.9034L23.2889 29.9041L23.287 29.9048L23.285 29.9055L23.283 29.9062L23.281 29.9069L23.279 29.9076L23.277 29.9083L23.275 29.909L23.273 29.9097L23.271 29.9104L23.269 29.9111L23.267 29.9118L23.265 29.9125L23.263 29.9132L23.261 29.9139L23.259 29.9146L23.257 29.9153L23.255 29.916L23.253 29.9167L23.2509 29.9174L23.2489 29.9181L23.2469 29.9188L23.2449 29.9195L23.2429 29.9202L23.2409 29.921L23.2388 29.9217L23.2368 29.9224L23.2348 29.9231L23.2328 29.9238L23.2307 29.9245L23.2287 29.9252L23.2267 29.9259L23.2247 29.9266L23.2226 29.9273L23.2206 29.928L23.2186 29.9287L23.2165 29.9295L23.2145 29.9302L23.2124 29.9309L23.2104 29.9316L23.2084 29.9323L23.2063 29.933L23.2043 29.9337L23.2022 29.9345L23.2002 29.9352L23.1981 29.9359L23.1961 29.9366L23.194 29.9373L23.192 29.938L23.1899 29.9388L23.1879 29.9395L23.1858 29.9402L23.1837 29.9409L23.1817 29.9416L23.1796 29.9424L23.1775 29.9431L23.1755 29.9438L23.1734 29.9445L23.1713 29.9453L23.1693 29.946L23.1672 29.9467L23.1651 29.9474L23.163 29.9482L23.161 29.9489L23.1589 29.9496L23.1568 29.9503L23.1547 29.9511L23.1526 29.9518L23.1505 29.9525L23.1485 29.9533L23.1464 29.954L23.1443 29.9547L23.1422 29.9555L23.1401 29.9562L23.138 29.9569L23.1359 29.9576L23.1338 29.9584L23.1317 29.9591L23.1296 29.9599L23.1275 29.9606L23.1254 29.9613L23.1232 29.9621L23.1211 29.9628L23.119 29.9635L23.1169 29.9643L23.1148 29.965L23.1127 29.9658L23.1105 29.9665L23.1084 29.9672L23.1063 29.968L23.1042 29.9687L23.102 29.9695L23.0999 29.9702L23.0978 29.971L23.0956 29.9717L23.0935 29.9725L23.0914 29.9732L23.06 29.9842L23.0283 29.9937C15.8767 32.1441 8.87061 33.8739 2.08872 35.0923C3.40595 41.9425 5.14402 49.0407 7.32203 56.3002C7.44258 56.6835 7.54971 57.0222 7.67668 57.3587L7.67933 57.3657L7.6819 57.3727C8.61223 59.9142 9.96611 61.9431 11.3321 63.1869C12.7584 64.4857 13.8554 64.6606 14.4791 64.4288L14.4845 64.4269C14.7879 64.3154 15.0876 64.0806 15.3815 63.5815L15.3854 63.575C16.362 61.9357 17.7698 60.7011 19.5761 60.0696C22.3992 59.0826 25.3782 59.9076 27.838 61.7144C30.3042 63.5258 32.3877 66.4045 33.5948 69.892C34.802 73.3796 34.9452 76.934 34.1287 79.8902C33.3143 82.8392 31.4864 85.3401 28.6645 86.3266C26.8712 86.9536 24.9953 86.8687 23.2166 86.1929C22.6521 85.981 22.2818 85.986 21.9814 86.0858L21.9759 86.0875C21.3437 86.2948 20.5916 87.1162 20.2752 89.0243C19.9728 90.8486 20.163 93.2789 20.9995 95.8474L20.9999 95.8484L21.0007 95.8507L21.0014 95.8529L21.0022 95.8552L21.003 95.8574L21.0038 95.8597L21.0046 95.862L21.0053 95.8642L21.0061 95.8665L21.0069 95.8687L21.0077 95.8709L21.0084 95.8732L21.0092 95.8754L21.01 95.8777L21.0108 95.8799L21.0115 95.8821L21.0123 95.8844L21.0131 95.8866L21.0139 95.8888L21.0146 95.891L21.0154 95.8933L21.0162 95.8955L21.0169 95.8977L21.0177 95.8999L21.0185 95.9021L21.0192 95.9043L21.02 95.9065L21.0208 95.9087L21.0215 95.911L21.0223 95.9132L21.023 95.9154L21.0238 95.9176L21.0246 95.9198L21.0253 95.9219L21.0261 95.9241L21.0268 95.9263L21.0276 95.9285L21.0284 95.9307L21.0291 95.9329L21.0299 95.9351L21.0306 95.9373L21.0314 95.9394L21.0321 95.9416L21.0329 95.9438L21.0336 95.946L21.0344 95.9481L21.0351 95.9503L21.0359 95.9525L21.0366 95.9546L21.0374 95.9568L21.0381 95.959L21.0389 95.9611L21.0396 95.9633L21.0404 95.9655L21.0411 95.9676L21.0419 95.9698L21.0426 95.9719L21.0434 95.9741L21.0441 95.9762L21.0448 95.9784L21.0456 95.9805L21.0463 95.9826L21.0471 95.9848L21.0478 95.9869L21.0486 95.9891L21.0493 95.9912L21.05 95.9933L21.0508 95.9955L21.0515 95.9976L21.0522 95.9997L21.053 96.0019L21.0537 96.004L21.0545 96.0061L21.0552 96.0082L21.0559 96.0103L21.0567 96.0125L21.0574 96.0146L21.0581 96.0167L21.0589 96.0188L21.0596 96.0209L21.0603 96.023L21.061 96.0251L21.0618 96.0273L21.0625 96.0294L21.0632 96.0315L21.064 96.0336L21.0647 96.0357L21.0654 96.0378L21.0661 96.0399L21.0669 96.042L21.0676 96.0441L21.0683 96.0462L21.069 96.0482L21.0698 96.0503L21.0705 96.0524L21.0712 96.0545L21.0719 96.0566L21.0727 96.0587L21.0734 96.0608L21.0741 96.0629L21.0748 96.0649L21.0755 96.067L21.0763 96.0691L21.077 96.0712L21.0777 96.0732L21.0784 96.0753L21.0791 96.0774L21.0798 96.0795L21.0806 96.0815L21.0813 96.0836L21.082 96.0857L21.0827 96.0877L21.0834 96.0898L21.0841 96.0918L21.0848 96.0939L21.0856 96.096L21.0863 96.098L21.087 96.1001L21.0877 96.1021L21.0884 96.1042L21.0891 96.1062L21.0898 96.1083L21.0905 96.1103L21.0912 96.1124L21.092 96.1144L21.0927 96.1165L21.0934 96.1185L21.0941 96.1206L21.0948 96.1226L21.0955 96.1247L21.0962 96.1267L21.0969 96.1287L21.0976 96.1308L21.0983 96.1328L21.099 96.1349L21.0997 96.1369L21.1004 96.1389L21.1011 96.141L21.1018 96.143L21.1025 96.145L21.1032 96.147L21.1039 96.1491L21.1046 96.1511L21.1053 96.1531L21.106 96.1551L21.1067 96.1572L21.1074 96.1592L21.1081 96.1612L21.1088 96.1632L21.1095 96.1653L21.1102 96.1673L21.1109 96.1693L21.1116 96.1713L21.1123 96.1733L21.113 96.1753L21.1137 96.1773L21.1144 96.1794L21.1151 96.1814L21.1158 96.1834L21.1165 96.1854L21.1172 96.1874L21.1179 96.1894L21.1186 96.1914L21.1193 96.1934L21.12 96.1954L21.1207 96.1974L21.1214 96.1994L21.1221 96.2014L21.1228 96.2034L21.1234 96.2054L21.1241 96.2074L21.1248 96.2094L21.1255 96.2114L21.1262 96.2134L21.1269 96.2154L21.1276 96.2174L21.1283 96.2194L21.129 96.2214L21.1297 96.2234L21.1303 96.2254L21.131 96.2274L21.1317 96.2293L21.1324 96.2313L21.1331 96.2333L21.1338 96.2353L21.1345 96.2373L21.1352 96.2393L21.1358 96.2413L21.1365 96.2432L21.1372 96.2452L21.1379 96.2472L21.1386 96.2492L21.1393 96.2512L21.14 96.2532L21.1407 96.2551L21.1413 96.2571L21.142 96.2591L21.1427 96.2611L21.1434 96.263L21.1441 96.265L21.1448 96.267L21.1454 96.269L21.1461 96.2709L21.1468 96.2729L21.1475 96.2749L21.1482 96.2769L21.1489 96.2788L21.1495 96.2808L21.1502 96.2828L21.1509 96.2847L21.1516 96.2867L21.1523 96.2887L21.1529 96.2906L21.1536 96.2926L21.1543 96.2946L21.155 96.2965L21.1557 96.2985L21.1563 96.3005L21.157 96.3024L21.1577 96.3044L21.1584 96.3064L21.1591 96.3083L21.1597 96.3103L21.1604 96.3123L21.1611 96.3142L21.1618 96.3162L21.1625 96.3181L21.1631 96.3201L21.1638 96.3221L21.1645 96.324L21.1652 96.326L21.1659 96.3279L21.1665 96.3299L21.1672 96.3319L21.1679 96.3338L21.1686 96.3358L21.1692 96.3377L21.1699 96.3397L21.1706 96.3416L21.1713 96.3436L21.1719 96.3456L21.1726 96.3475L21.1733 96.3495L21.174 96.3514L21.1747 96.3534L21.1753 96.3553L21.176 96.3573L21.1767 96.3592L21.1774 96.3612L21.178 96.3631L21.1787 96.3651L21.1794 96.367L21.1801 96.369L21.1807 96.3709L21.1814 96.3729L21.1821 96.3748L21.1828 96.3768L21.1834 96.3787L21.1841 96.3807L21.1848 96.3826L21.1855 96.3846L21.1861 96.3865L21.1868 96.3885L21.1875 96.3904L21.1882 96.3924L21.1888 96.3943L21.1895 96.3963L21.1902 96.3982L21.1909 96.4002L21.1915 96.4021L21.1922 96.4041L21.1929 96.406L21.1936 96.408L21.1942 96.4099L21.1949 96.4119L21.1956 96.4138L21.1963 96.4158L21.1969 96.4177L21.1976 96.4197L21.1983 96.4216L21.199 96.4236L21.1996 96.4255L21.2003 96.4275L21.201 96.4294L21.2017 96.4314L21.2023 96.4333L21.203 96.4353L21.2037 96.4372L21.2043 96.4392L21.205 96.4411L21.2057 96.4431L21.2064 96.445L21.207 96.447L21.2077 96.4489L21.2084 96.4508L21.2091 96.4528L21.2097 96.4547L21.2104 96.4567L21.2111 96.4586L21.2118 96.4606L21.2124 96.4625L21.2131 96.4645L21.2138 96.4664L21.2145 96.4684L21.2151 96.4703L21.2158 96.4723L21.2165 96.4742L21.2172 96.4762L21.2178 96.4781L21.2185 96.4801L21.2192 96.482L21.2199 96.484L21.2205 96.4859L21.2212 96.4879L21.2219 96.4899L21.2226 96.4918L21.2232 96.4938L21.2239 96.4957L21.2246 96.4977L21.2253 96.4996L21.226 96.5016L21.2266 96.5035L21.2273 96.5055L21.228 96.5074L21.2287 96.5094L21.2293 96.5113L21.23 96.5133L21.2307 96.5153L21.2314 96.5172L21.232 96.5192L21.2327 96.5211L21.2334 96.5231L21.2341 96.525L21.2348 96.527L21.2354 96.529L21.2361 96.5309L21.2368 96.5329L21.2375 96.5348L21.2381 96.5368L21.2388 96.5388L21.2395 96.5407L21.2402 96.5427L21.2409 96.5446L21.2415 96.5466L21.2422 96.5486L21.2429 96.5505L21.2436 96.5525L21.2443 96.5545L21.2449 96.5564L21.2456 96.5584L21.2463 96.5604L21.247 96.5623L21.2477 96.5643L21.2483 96.5663L21.249 96.5682L21.2497 96.5702L21.2504 96.5722L21.2511 96.5741L21.2518 96.5761L21.2524 96.5781L21.2531 96.5801L21.2538 96.582L21.2545 96.584L21.2552 96.586L21.2558 96.5879L21.2565 96.5899L21.2572 96.5919L21.2579 96.5939L21.2586 96.5959L21.2593 96.5978L21.26 96.5998L21.2606 96.6018L21.2613 96.6038L21.262 96.6057L21.2627 96.6077L21.2634 96.6097L21.2641 96.6117L21.2648 96.6137L21.2654 96.6157L21.2661 96.6176L21.2668 96.6196L21.2675 96.6216L21.2682 96.6236L21.2689 96.6256L21.2696 96.6276L21.2703 96.6296L21.2709 96.6316L21.2716 96.6336L21.2723 96.6355L21.273 96.6375L21.2737 96.6395L21.2744 96.6415L21.2751 96.6435L21.2758 96.6455L21.2765 96.6475L21.2772 96.6495L21.2779 96.6515L21.2785 96.6535L21.2792 96.6555L21.2799 96.6575L21.2806 96.6595L21.2813 96.6615L21.282 96.6635L21.2827 96.6655L21.2834 96.6675L21.2841 96.6696L21.2848 96.6716L21.2855 96.6736L21.2862 96.6756L21.2869 96.6776L21.2876 96.6796L21.2883 96.6816L21.289 96.6836L21.2897 96.6857L21.2904 96.6877L21.2911 96.6897L21.2918 96.6917L21.2925 96.6937L21.2932 96.6957L21.2939 96.6978L21.2946 96.6998L21.2953 96.7018L21.296 96.7038L21.2967 96.7059L21.2974 96.7079L21.2981 96.7099L21.2988 96.712L21.2995 96.714L21.3002 96.716L21.3009 96.7181L21.3016 96.7201L21.3023 96.7221L21.303 96.7242L21.3037 96.7262L21.3044 96.7282L21.3051 96.7303L21.3058 96.7323L21.3065 96.7344L21.3072 96.7364L21.3079 96.7385L21.3086 96.7405L21.3094 96.7425L21.3101 96.7446L21.3108 96.7466L21.3115 96.7487L21.3122 96.7507L21.3129 96.7528L21.3136 96.7549L21.3143 96.7569L21.315 96.759L21.3158 96.761L21.3165 96.7631L21.3172 96.7652L21.3179 96.7672L21.3186 96.7693L21.3193 96.7714L21.32 96.7734L21.3208 96.7755L21.3215 96.7776L21.3222 96.7796L21.3229 96.7817L21.3236 96.7838L21.3244 96.7859L21.3251 96.7879L21.3258 96.79L21.3265 96.7921L21.3272 96.7942L21.328 96.7963L21.3287 96.7983L21.3294 96.8004L21.3301 96.8025L21.3308 96.8046L21.3316 96.8067L21.3323 96.8088L21.333 96.8109L21.3337 96.813L21.3345 96.8151L21.3352 96.8172L21.3359 96.8193L21.3366 96.8214L21.3374 96.8235L21.3381 96.8256L21.3388 96.8277L21.3396 96.8298L21.3403 96.8319L21.341 96.834L21.3418 96.8361L21.3425 96.8382L21.3432 96.8404L21.3439 96.8425L21.3447 96.8446L21.3454 96.8467L21.3462 96.8488L21.3463 96.8493Z" stroke="url(#paint0_linear_2795_6545)" stroke-width="3"/>
<defs>
<linearGradient id="paint0_linear_2795_6545" x1="97.2071" y1="47.6035" x2="12.8188" y2="76.813" gradientUnits="userSpaceOnUse">
<stop stop-color="#FFE1C9"/>
<stop offset="1" stop-color="#FFC291"/>
</linearGradient>
</defs>
</svg>
