<svg width="112" height="123" viewBox="0 0 112 123" fill="none" xmlns="http://www.w3.org/2000/svg">
<path d="M21.2567 26.3736C24.048 19.2787 27.0441 12.5814 30.2785 6.40023C36.3431 9.68024 42.8892 12.7442 49.8297 15.5325L49.8404 15.5368L49.8511 15.5409C50.2389 15.6898 50.5451 15.7969 50.9489 15.925C53.8068 16.8628 56.6713 17.0947 59.0243 16.6416C61.3209 16.1995 63.4907 15.0079 64.22 12.7776C64.5877 11.6628 64.4902 10.5529 64.1274 9.51694C63.7064 8.29589 63.6921 7.10163 64.0844 5.96843C64.6864 4.22914 66.2279 2.87134 68.4643 2.18595C70.7 1.50078 73.5275 1.53396 76.3899 2.53466C79.2514 3.53503 81.4882 5.27482 82.818 7.20826C84.1488 9.14297 84.5182 11.1692 83.9184 12.9024C83.5258 14.0366 82.7761 14.9647 81.6904 15.6598L81.6859 15.6627C80.773 16.2518 80.011 17.045 79.608 18.1544C78.8009 20.3588 79.7665 22.6475 81.2949 24.4274C82.8616 26.2519 85.2537 27.8579 88.0771 28.9051L88.0903 28.91L88.1037 28.9147L88.1128 28.9179C88.4823 29.0471 88.866 29.1812 89.2572 29.3048L89.2673 29.308L89.2774 29.311C96.321 31.4269 103.193 33.0154 109.85 34.2487L81.5834 115.913C75.5947 112.736 69.2148 109.767 62.3874 107.033C61.9813 106.864 61.5771 106.723 61.1774 106.596C58.3193 105.658 55.4548 105.426 53.1016 105.879C50.805 106.322 48.6353 107.513 47.9059 109.743C47.5384 110.858 47.6356 111.967 47.9982 113.003C48.4191 114.223 48.4343 115.418 48.0377 116.564C47.4357 118.303 45.8942 119.661 43.6578 120.346C41.4221 121.031 38.5946 120.998 35.7321 119.998C32.8707 118.997 30.6339 117.257 29.304 115.324C27.9733 113.389 27.6038 111.363 28.2037 109.63C28.596 108.497 29.346 107.566 30.4412 106.858C31.3536 106.269 32.1151 105.476 32.518 104.367C33.325 102.162 32.3594 99.8736 30.8311 98.0937C29.2644 96.2692 26.8723 94.6632 24.0489 93.616L24.0356 93.6111L24.0223 93.6064L24.0201 93.6056L24.0179 93.6049L24.0157 93.6041L24.0135 93.6033L24.0113 93.6026L24.0091 93.6018L24.0069 93.601L24.0047 93.6003L24.0025 93.5995L24.0003 93.5987L23.9982 93.598L23.996 93.5972L23.9938 93.5965L23.9916 93.5957L23.9895 93.5949L23.9873 93.5942L23.9851 93.5934L23.983 93.5927L23.9808 93.5919L23.9786 93.5912L23.9765 93.5904L23.9743 93.5896L23.9722 93.5889L23.97 93.5881L23.9679 93.5874L23.9657 93.5866L23.9636 93.5859L23.9614 93.5851L23.9593 93.5844L23.9571 93.5836L23.955 93.5829L23.9529 93.5821L23.9507 93.5814L23.9486 93.5806L23.9465 93.5799L23.9443 93.5792L23.9422 93.5784L23.9401 93.5777L23.938 93.5769L23.9358 93.5762L23.9337 93.5754L23.9316 93.5747L23.9295 93.574L23.9274 93.5732L23.9253 93.5725L23.9231 93.5718L23.921 93.571L23.9189 93.5703L23.9168 93.5695L23.9147 93.5688L23.9126 93.5681L23.9105 93.5673L23.9084 93.5666L23.9063 93.5659L23.9042 93.5651L23.9021 93.5644L23.9 93.5637L23.898 93.5629L23.8959 93.5622L23.8938 93.5615L23.8917 93.5608L23.8896 93.56L23.8875 93.5593L23.8855 93.5586L23.8834 93.5578L23.8813 93.5571L23.8792 93.5564L23.8772 93.5557L23.8751 93.555L23.873 93.5542L23.8709 93.5535L23.8689 93.5528L23.8668 93.5521L23.8648 93.5513L23.8627 93.5506L23.8606 93.5499L23.8586 93.5492L23.8565 93.5485L23.8545 93.5477L23.8524 93.547L23.8504 93.5463L23.8483 93.5456L23.8463 93.5449L23.8442 93.5442L23.8422 93.5434L23.8401 93.5427L23.8381 93.542L23.836 93.5413L23.834 93.5406L23.832 93.5399L23.8299 93.5392L23.8279 93.5385L23.8259 93.5377L23.8238 93.537L23.8218 93.5363L23.8198 93.5356L23.8177 93.5349L23.8157 93.5342L23.8137 93.5335L23.8117 93.5328L23.8097 93.5321L23.8076 93.5314L23.8056 93.5307L23.8036 93.53L23.8016 93.5293L23.7996 93.5285L23.7975 93.5278L23.7955 93.5271L23.7935 93.5264L23.7915 93.5257L23.7895 93.525L23.7875 93.5243L23.7855 93.5236L23.7835 93.5229L23.7815 93.5222L23.7795 93.5215L23.7775 93.5208L23.7755 93.5201L23.7735 93.5194L23.7715 93.5187L23.7695 93.518L23.7675 93.5173L23.7655 93.5166L23.7635 93.5159L23.7615 93.5153L23.7595 93.5146L23.7575 93.5139L23.7556 93.5132L23.7536 93.5125L23.7516 93.5118L23.7496 93.5111L23.7476 93.5104L23.7456 93.5097L23.7437 93.509L23.7417 93.5083L23.7397 93.5076L23.7377 93.5069L23.7358 93.5062L23.7338 93.5055L23.7318 93.5049L23.7298 93.5042L23.7279 93.5035L23.7259 93.5028L23.7239 93.5021L23.7219 93.5014L23.72 93.5007L23.718 93.5L23.7161 93.4994L23.7141 93.4987L23.7121 93.498L23.7102 93.4973L23.7082 93.4966L23.7062 93.4959L23.7043 93.4952L23.7023 93.4946L23.7004 93.4939L23.6984 93.4932L23.6965 93.4925L23.6945 93.4918L23.6925 93.4911L23.6906 93.4905L23.6886 93.4898L23.6867 93.4891L23.6847 93.4884L23.6828 93.4877L23.6808 93.487L23.6789 93.4864L23.6769 93.4857L23.675 93.485L23.6731 93.4843L23.6711 93.4836L23.6692 93.483L23.6672 93.4823L23.6653 93.4816L23.6633 93.4809L23.6614 93.4802L23.6595 93.4796L23.6575 93.4789L23.6556 93.4782L23.6536 93.4775L23.6517 93.4769L23.6498 93.4762L23.6478 93.4755L23.6459 93.4748L23.644 93.4742L23.642 93.4735L23.6401 93.4728L23.6382 93.4721L23.6362 93.4715L23.6343 93.4708L23.6324 93.4701L23.6305 93.4694L23.6285 93.4688L23.6266 93.4681L23.6247 93.4674L23.6227 93.4667L23.6208 93.4661L23.6189 93.4654L23.617 93.4647L23.615 93.464L23.6131 93.4634L23.6112 93.4627L23.6093 93.462L23.6074 93.4614L23.6054 93.4607L23.6035 93.46L23.6016 93.4593L23.5997 93.4587L23.5978 93.458L23.5958 93.4573L23.5939 93.4567L23.592 93.456L23.5901 93.4553L23.5882 93.4546L23.5863 93.454L23.5843 93.4533L23.5824 93.4526L23.5805 93.452L23.5786 93.4513L23.5767 93.4506L23.5748 93.45L23.5728 93.4493L23.5709 93.4486L23.569 93.448L23.5671 93.4473L23.5652 93.4466L23.5633 93.4459L23.5614 93.4453L23.5595 93.4446L23.5576 93.4439L23.5556 93.4433L23.5537 93.4426L23.5518 93.4419L23.5499 93.4413L23.548 93.4406L23.5461 93.4399L23.5442 93.4393L23.5423 93.4386L23.5404 93.4379L23.5385 93.4373L23.5366 93.4366L23.5347 93.4359L23.5328 93.4353L23.5308 93.4346L23.5289 93.4339L23.527 93.4333L23.5251 93.4326L23.5232 93.4319L23.5213 93.4313L23.5194 93.4306L23.5175 93.4299L23.5156 93.4293L23.5137 93.4286L23.5118 93.4279L23.5099 93.4273L23.508 93.4266L23.5061 93.4259L23.5042 93.4253L23.5023 93.4246L23.5004 93.424L23.4985 93.4233L23.4966 93.4226L23.4947 93.422L23.4928 93.4213L23.4909 93.4206L23.489 93.42L23.4871 93.4193L23.4851 93.4186L23.4832 93.418L23.4813 93.4173L23.4794 93.4166L23.4775 93.416L23.4756 93.4153L23.4737 93.4146L23.4718 93.414L23.4699 93.4133L23.468 93.4126L23.4661 93.412L23.4642 93.4113L23.4623 93.4106L23.4604 93.41L23.4585 93.4093L23.4566 93.4086L23.4547 93.408L23.4528 93.4073L23.4509 93.4067L23.449 93.406L23.4471 93.4053L23.4452 93.4047L23.4433 93.404L23.4414 93.4033L23.4395 93.4027L23.4376 93.402L23.4356 93.4013L23.4337 93.4007L23.4318 93.4L23.4299 93.3993L23.428 93.3987L23.4261 93.398L23.4242 93.3973L23.4223 93.3967L23.4204 93.396L23.4185 93.3953L23.4166 93.3947L23.4147 93.394L23.4128 93.3933L23.4109 93.3927L23.409 93.392L23.407 93.3913L23.4051 93.3907L23.4032 93.39L23.4013 93.3893L23.3994 93.3887L23.3975 93.388L23.3956 93.3873L23.3937 93.3867L23.3918 93.386L23.3899 93.3853L23.3879 93.3846L23.386 93.384L23.3841 93.3833L23.3822 93.3826L23.3803 93.382L23.3784 93.3813L23.3765 93.3806L23.3745 93.38L23.3726 93.3793L23.3707 93.3786L23.3688 93.378L23.3669 93.3773L23.365 93.3766L23.363 93.3759L23.3611 93.3753L23.3592 93.3746L23.3573 93.3739L23.3554 93.3733L23.3534 93.3726L23.3515 93.3719L23.3496 93.3712L23.3477 93.3706L23.3458 93.3699L23.3438 93.3692L23.3419 93.3686L23.34 93.3679L23.3381 93.3672L23.3361 93.3665L23.3342 93.3659L23.3323 93.3652L23.3304 93.3645L23.3284 93.3638L23.3265 93.3632L23.3246 93.3625L23.3226 93.3618L23.3207 93.3611L23.3188 93.3605L23.3168 93.3598L23.3149 93.3591L23.313 93.3584L23.311 93.3578L23.3091 93.3571L23.3072 93.3564L23.3052 93.3557L23.3033 93.3551L23.3014 93.3544L23.2994 93.3537L23.2975 93.353L23.2955 93.3523L23.2936 93.3517L23.2917 93.351L23.2897 93.3503L23.2878 93.3496L23.2858 93.3489L23.2839 93.3483L23.2819 93.3476L23.28 93.3469L23.278 93.3462L23.2761 93.3455L23.2741 93.3449L23.2722 93.3442L23.2702 93.3435L23.2683 93.3428L23.2663 93.3421L23.2644 93.3415L23.2624 93.3408L23.2605 93.3401L23.2585 93.3394L23.2566 93.3387L23.2546 93.338L23.2526 93.3373L23.2507 93.3367L23.2487 93.336L23.2468 93.3353L23.2448 93.3346L23.2428 93.3339L23.2409 93.3332L23.2389 93.3325L23.2369 93.3319L23.235 93.3312L23.233 93.3305L23.231 93.3298L23.2291 93.3291L23.2271 93.3284L23.2251 93.3277L23.2231 93.327L23.2212 93.3263L23.2192 93.3256L23.2172 93.325L23.2152 93.3243L23.2132 93.3236L23.2113 93.3229L23.2093 93.3222L23.2073 93.3215L23.2053 93.3208L23.2033 93.3201L23.2013 93.3194L23.1993 93.3187L23.1974 93.318L23.1954 93.3173L23.1934 93.3166L23.1914 93.3159L23.1894 93.3152L23.1874 93.3145L23.1854 93.3138L23.1834 93.3131L23.1814 93.3124L23.1794 93.3117L23.1774 93.311L23.1754 93.3103L23.1734 93.3096L23.1714 93.3089L23.1694 93.3082L23.1674 93.3075L23.1654 93.3068L23.1634 93.3061L23.1613 93.3054L23.1593 93.3047L23.1573 93.304L23.1553 93.3033L23.1533 93.3026L23.1513 93.3019L23.1492 93.3012L23.1472 93.3005L23.1452 93.2998L23.1432 93.2991L23.1411 93.2984L23.1391 93.2977L23.1371 93.2969L23.1351 93.2962L23.133 93.2955L23.131 93.2948L23.129 93.2941L23.1269 93.2934L23.1249 93.2927L23.1228 93.292L23.1208 93.2913L23.1188 93.2905L23.1167 93.2898L23.1147 93.2891L23.1126 93.2884L23.1106 93.2877L23.1085 93.287L23.1065 93.2862L23.1044 93.2855L23.1024 93.2848L23.1003 93.2841L23.0983 93.2834L23.0962 93.2827L23.0941 93.2819L23.0921 93.2812L23.09 93.2805L23.0879 93.2798L23.0859 93.279L23.0838 93.2783L23.0817 93.2776L23.0797 93.2769L23.0776 93.2762L23.0755 93.2754L23.0734 93.2747L23.0714 93.274L23.0693 93.2732L23.0672 93.2725L23.0651 93.2718L23.063 93.2711L23.0609 93.2703L23.0589 93.2696L23.0568 93.2689L23.0547 93.2681L23.0526 93.2674L23.0505 93.2667L23.0484 93.2659L23.0463 93.2652L23.0442 93.2645L23.0421 93.2637L23.04 93.263L23.0379 93.2623L23.0358 93.2615L23.0337 93.2608L23.0315 93.26L23.0294 93.2593L23.0273 93.2586L23.0252 93.2578L23.0231 93.2571L23.0209 93.2563L23.0188 93.2556L23.0167 93.2549L23.0146 93.2541L23.0124 93.2534L23.0103 93.2526L23.0082 93.2519L23.006 93.2511L23.0039 93.2504L23.0018 93.2496L22.9704 93.2387L22.9387 93.2291C15.7871 91.0788 8.78101 89.349 1.99912 88.1305C3.31635 81.2804 5.05442 74.1821 7.23243 66.9226C7.35298 66.5394 7.46011 66.2006 7.58709 65.8642L7.58973 65.8572L7.5923 65.8502C8.52263 63.3086 9.87651 61.2798 11.2425 60.036C12.6688 58.7371 13.7658 58.5622 14.3895 58.794L14.3949 58.796C14.6983 58.9074 14.998 59.1422 15.2919 59.6414L15.2958 59.6479C16.2724 61.2872 17.6802 62.5218 19.4865 63.1533C22.3096 64.1402 25.2886 63.3152 27.7484 61.5085C30.2146 59.6971 32.2981 56.8183 33.5052 53.3308C34.7124 49.8432 34.8556 46.2889 34.0391 43.3326C33.2247 40.3837 31.3968 37.8828 28.5749 36.8962C26.7816 36.2693 24.9057 36.3541 23.127 37.03C22.5625 37.2419 22.1922 37.2369 21.8918 37.1371L21.8863 37.1353C21.2541 36.928 20.502 36.1067 20.1856 34.1986C19.8832 32.3743 20.0734 29.9439 20.9099 27.3754L20.9103 27.3744L20.9111 27.3722L20.9118 27.3699L20.9126 27.3677L20.9134 27.3654L20.9142 27.3632L20.915 27.3609L20.9157 27.3587L20.9165 27.3564L20.9173 27.3542L20.9181 27.3519L20.9188 27.3497L20.9196 27.3474L20.9204 27.3452L20.9212 27.343L20.9219 27.3407L20.9227 27.3385L20.9235 27.3363L20.9243 27.3341L20.925 27.3318L20.9258 27.3296L20.9266 27.3274L20.9273 27.3252L20.9281 27.323L20.9289 27.3207L20.9296 27.3185L20.9304 27.3163L20.9312 27.3141L20.9319 27.3119L20.9327 27.3097L20.9334 27.3075L20.9342 27.3053L20.935 27.3031L20.9357 27.3009L20.9365 27.2987L20.9372 27.2965L20.938 27.2943L20.9388 27.2921L20.9395 27.29L20.9403 27.2878L20.941 27.2856L20.9418 27.2834L20.9425 27.2812L20.9433 27.2791L20.944 27.2769L20.9448 27.2747L20.9455 27.2725L20.9463 27.2704L20.947 27.2682L20.9478 27.266L20.9485 27.2639L20.9493 27.2617L20.95 27.2596L20.9508 27.2574L20.9515 27.2552L20.9523 27.2531L20.953 27.2509L20.9538 27.2488L20.9545 27.2466L20.9552 27.2445L20.956 27.2424L20.9567 27.2402L20.9575 27.2381L20.9582 27.2359L20.959 27.2338L20.9597 27.2317L20.9604 27.2295L20.9612 27.2274L20.9619 27.2253L20.9626 27.2231L20.9634 27.221L20.9641 27.2189L20.9649 27.2168L20.9656 27.2146L20.9663 27.2125L20.9671 27.2104L20.9678 27.2083L20.9685 27.2062L20.9693 27.204L20.97 27.2019L20.9707 27.1998L20.9714 27.1977L20.9722 27.1956L20.9729 27.1935L20.9736 27.1914L20.9744 27.1893L20.9751 27.1872L20.9758 27.1851L20.9765 27.183L20.9773 27.1809L20.978 27.1788L20.9787 27.1767L20.9794 27.1746L20.9802 27.1725L20.9809 27.1704L20.9816 27.1683L20.9823 27.1663L20.9831 27.1642L20.9838 27.1621L20.9845 27.16L20.9852 27.1579L20.9859 27.1558L20.9867 27.1538L20.9874 27.1517L20.9881 27.1496L20.9888 27.1475L20.9895 27.1455L20.9902 27.1434L20.991 27.1413L20.9917 27.1393L20.9924 27.1372L20.9931 27.1351L20.9938 27.1331L20.9945 27.131L20.9952 27.1289L20.996 27.1269L20.9967 27.1248L20.9974 27.1228L20.9981 27.1207L20.9988 27.1187L20.9995 27.1166L21.0002 27.1146L21.0009 27.1125L21.0016 27.1105L21.0024 27.1084L21.0031 27.1064L21.0038 27.1043L21.0045 27.1023L21.0052 27.1002L21.0059 27.0982L21.0066 27.0961L21.0073 27.0941L21.008 27.0921L21.0087 27.09L21.0094 27.088L21.0101 27.086L21.0108 27.0839L21.0115 27.0819L21.0122 27.0799L21.0129 27.0778L21.0136 27.0758L21.0143 27.0738L21.015 27.0718L21.0157 27.0697L21.0164 27.0677L21.0171 27.0657L21.0178 27.0637L21.0185 27.0616L21.0192 27.0596L21.0199 27.0576L21.0206 27.0556L21.0213 27.0536L21.022 27.0515L21.0227 27.0495L21.0234 27.0475L21.0241 27.0455L21.0248 27.0435L21.0255 27.0415L21.0262 27.0395L21.0269 27.0375L21.0276 27.0355L21.0283 27.0335L21.029 27.0314L21.0297 27.0294L21.0304 27.0274L21.0311 27.0254L21.0318 27.0234L21.0325 27.0214L21.0332 27.0194L21.0338 27.0174L21.0345 27.0154L21.0352 27.0134L21.0359 27.0114L21.0366 27.0094L21.0373 27.0075L21.038 27.0055L21.0387 27.0035L21.0394 27.0015L21.0401 26.9995L21.0407 26.9975L21.0414 26.9955L21.0421 26.9935L21.0428 26.9915L21.0435 26.9895L21.0442 26.9875L21.0449 26.9856L21.0456 26.9836L21.0462 26.9816L21.0469 26.9796L21.0476 26.9776L21.0483 26.9756L21.049 26.9737L21.0497 26.9717L21.0504 26.9697L21.0511 26.9677L21.0517 26.9657L21.0524 26.9638L21.0531 26.9618L21.0538 26.9598L21.0545 26.9578L21.0552 26.9559L21.0558 26.9539L21.0565 26.9519L21.0572 26.9499L21.0579 26.948L21.0586 26.946L21.0593 26.944L21.0599 26.9421L21.0606 26.9401L21.0613 26.9381L21.062 26.9361L21.0627 26.9342L21.0633 26.9322L21.064 26.9302L21.0647 26.9283L21.0654 26.9263L21.0661 26.9243L21.0667 26.9224L21.0674 26.9204L21.0681 26.9184L21.0688 26.9165L21.0695 26.9145L21.0701 26.9126L21.0708 26.9106L21.0715 26.9086L21.0722 26.9067L21.0729 26.9047L21.0735 26.9028L21.0742 26.9008L21.0749 26.8988L21.0756 26.8969L21.0763 26.8949L21.0769 26.893L21.0776 26.891L21.0783 26.889L21.079 26.8871L21.0796 26.8851L21.0803 26.8832L21.081 26.8812L21.0817 26.8793L21.0823 26.8773L21.083 26.8754L21.0837 26.8734L21.0844 26.8714L21.0851 26.8695L21.0857 26.8675L21.0864 26.8656L21.0871 26.8636L21.0878 26.8617L21.0884 26.8597L21.0891 26.8578L21.0898 26.8558L21.0905 26.8539L21.0911 26.8519L21.0918 26.85L21.0925 26.848L21.0932 26.8461L21.0938 26.8441L21.0945 26.8422L21.0952 26.8402L21.0959 26.8383L21.0965 26.8363L21.0972 26.8344L21.0979 26.8324L21.0986 26.8305L21.0992 26.8285L21.0999 26.8266L21.1006 26.8246L21.1013 26.8227L21.1019 26.8207L21.1026 26.8188L21.1033 26.8168L21.104 26.8149L21.1046 26.8129L21.1053 26.811L21.106 26.809L21.1067 26.8071L21.1073 26.8051L21.108 26.8032L21.1087 26.8012L21.1094 26.7993L21.11 26.7973L21.1107 26.7954L21.1114 26.7934L21.1121 26.7915L21.1127 26.7895L21.1134 26.7876L21.1141 26.7856L21.1147 26.7837L21.1154 26.7817L21.1161 26.7798L21.1168 26.7778L21.1174 26.7759L21.1181 26.774L21.1188 26.772L21.1195 26.7701L21.1201 26.7681L21.1208 26.7662L21.1215 26.7642L21.1222 26.7623L21.1228 26.7603L21.1235 26.7584L21.1242 26.7564L21.1249 26.7545L21.1255 26.7525L21.1262 26.7506L21.1269 26.7486L21.1276 26.7467L21.1282 26.7447L21.1289 26.7428L21.1296 26.7408L21.1303 26.7389L21.1309 26.7369L21.1316 26.735L21.1323 26.733L21.133 26.731L21.1336 26.7291L21.1343 26.7271L21.135 26.7252L21.1357 26.7232L21.1364 26.7213L21.137 26.7193L21.1377 26.7174L21.1384 26.7154L21.1391 26.7135L21.1397 26.7115L21.1404 26.7096L21.1411 26.7076L21.1418 26.7056L21.1424 26.7037L21.1431 26.7017L21.1438 26.6998L21.1445 26.6978L21.1452 26.6959L21.1458 26.6939L21.1465 26.6919L21.1472 26.69L21.1479 26.688L21.1485 26.6861L21.1492 26.6841L21.1499 26.6821L21.1506 26.6802L21.1513 26.6782L21.1519 26.6762L21.1526 26.6743L21.1533 26.6723L21.154 26.6704L21.1547 26.6684L21.1553 26.6664L21.156 26.6645L21.1567 26.6625L21.1574 26.6605L21.1581 26.6586L21.1587 26.6566L21.1594 26.6546L21.1601 26.6527L21.1608 26.6507L21.1615 26.6487L21.1622 26.6467L21.1628 26.6448L21.1635 26.6428L21.1642 26.6408L21.1649 26.6389L21.1656 26.6369L21.1662 26.6349L21.1669 26.6329L21.1676 26.631L21.1683 26.629L21.169 26.627L21.1697 26.625L21.1704 26.623L21.171 26.6211L21.1717 26.6191L21.1724 26.6171L21.1731 26.6151L21.1738 26.6131L21.1745 26.6112L21.1752 26.6092L21.1758 26.6072L21.1765 26.6052L21.1772 26.6032L21.1779 26.6012L21.1786 26.5992L21.1793 26.5973L21.18 26.5953L21.1807 26.5933L21.1813 26.5913L21.182 26.5893L21.1827 26.5873L21.1834 26.5853L21.1841 26.5833L21.1848 26.5813L21.1855 26.5793L21.1862 26.5773L21.1869 26.5753L21.1876 26.5733L21.1883 26.5713L21.1889 26.5693L21.1896 26.5673L21.1903 26.5653L21.191 26.5633L21.1917 26.5613L21.1924 26.5593L21.1931 26.5573L21.1938 26.5553L21.1945 26.5533L21.1952 26.5513L21.1959 26.5493L21.1966 26.5473L21.1973 26.5453L21.198 26.5432L21.1987 26.5412L21.1994 26.5392L21.2001 26.5372L21.2008 26.5352L21.2015 26.5332L21.2022 26.5312L21.2029 26.5291L21.2036 26.5271L21.2043 26.5251L21.205 26.5231L21.2057 26.521L21.2064 26.519L21.2071 26.517L21.2078 26.515L21.2085 26.5129L21.2092 26.5109L21.2099 26.5089L21.2106 26.5068L21.2113 26.5048L21.212 26.5028L21.2127 26.5007L21.2134 26.4987L21.2141 26.4967L21.2148 26.4946L21.2155 26.4926L21.2162 26.4905L21.2169 26.4885L21.2176 26.4865L21.2183 26.4844L21.2191 26.4824L21.2198 26.4803L21.2205 26.4783L21.2212 26.4762L21.2219 26.4742L21.2226 26.4721L21.2233 26.4701L21.224 26.468L21.2247 26.4659L21.2254 26.4639L21.2262 26.4618L21.2269 26.4598L21.2276 26.4577L21.2283 26.4556L21.229 26.4536L21.2297 26.4515L21.2304 26.4494L21.2312 26.4474L21.2319 26.4453L21.2326 26.4432L21.2333 26.4412L21.234 26.4391L21.2348 26.437L21.2355 26.4349L21.2362 26.4328L21.2369 26.4308L21.2376 26.4287L21.2384 26.4266L21.2391 26.4245L21.2398 26.4224L21.2405 26.4203L21.2412 26.4183L21.242 26.4162L21.2427 26.4141L21.2434 26.412L21.2441 26.4099L21.2449 26.4078L21.2456 26.4057L21.2463 26.4036L21.247 26.4015L21.2478 26.3994L21.2485 26.3973L21.2492 26.3952L21.25 26.3931L21.2507 26.391L21.2514 26.3888L21.2522 26.3867L21.2529 26.3846L21.2536 26.3825L21.2543 26.3804L21.2551 26.3783L21.2558 26.3761L21.2566 26.374L21.2567 26.3736Z" stroke="url(#paint0_linear_2811_4181)" stroke-width="3"/>
<defs>
<linearGradient id="paint0_linear_2811_4181" x1="97.1175" y1="75.6194" x2="12.7292" y2="46.4098" gradientUnits="userSpaceOnUse">
<stop stop-color="#435ECF"/>
<stop offset="0.355" stop-color="#E24BB3"/>
<stop offset="1" stop-color="#FF9433"/>
</linearGradient>
</defs>
</svg>
