<svg width="110" height="118" viewBox="0 0 110 118" fill="none" xmlns="http://www.w3.org/2000/svg">
<path d="M18.5973 28.8583C21.0836 21.6952 23.8321 14.9221 26.7762 8.598C32.9697 11.554 39.6014 14.2952 46.6115 16.7645L46.6225 16.7684L46.6336 16.7721L46.6502 16.7777C47.0047 16.8964 47.4049 17.0304 47.8302 17.1453C50.7265 17.9577 53.6003 18.0651 55.9345 17.5106C58.2127 16.9695 60.3331 15.6858 60.9706 13.4277C61.2925 12.2985 61.1494 11.1944 60.7437 10.1756C60.2734 8.97641 60.2093 7.78489 60.5586 6.62424C61.0893 4.86104 62.5763 3.43567 64.7855 2.65174C66.9938 1.86815 69.8225 1.77628 72.7246 2.65086C75.6267 3.52545 77.9343 5.16524 79.3428 7.03877C80.7519 8.91314 81.205 10.9232 80.6743 12.6864C80.3276 13.8384 79.6112 14.8079 78.5566 15.5473L78.5521 15.5504C77.6635 16.1782 76.9344 17.0031 76.577 18.1281C75.8607 20.3638 76.9201 22.6068 78.5214 24.3175C80.1628 26.0711 82.6206 27.5707 85.4866 28.4937L85.5001 28.4981L85.5136 28.5022L85.5159 28.5028L85.5181 28.5035L85.5203 28.5042L85.5226 28.5049L85.5248 28.5055L85.527 28.5062L85.5292 28.5069L85.5315 28.5075L85.5337 28.5082L85.5359 28.5089L85.5381 28.5095L85.5403 28.5102L85.5425 28.5109L85.5447 28.5115L85.5469 28.5122L85.5491 28.5129L85.5513 28.5135L85.5535 28.5142L85.5557 28.5148L85.5579 28.5155L85.5601 28.5162L85.5623 28.5168L85.5645 28.5175L85.5666 28.5181L85.5688 28.5188L85.571 28.5194L85.5732 28.5201L85.5754 28.5208L85.5775 28.5214L85.5797 28.5221L85.5819 28.5227L85.584 28.5234L85.5862 28.524L85.5884 28.5247L85.5905 28.5253L85.5927 28.526L85.5948 28.5266L85.597 28.5273L85.5992 28.5279L85.6013 28.5286L85.6035 28.5292L85.6056 28.5299L85.6078 28.5305L85.6099 28.5312L85.612 28.5318L85.6142 28.5325L85.6163 28.5331L85.6185 28.5337L85.6206 28.5344L85.6227 28.535L85.6248 28.5357L85.627 28.5363L85.6291 28.537L85.6312 28.5376L85.6334 28.5382L85.6355 28.5389L85.6376 28.5395L85.6397 28.5402L85.6418 28.5408L85.6439 28.5414L85.6461 28.5421L85.6482 28.5427L85.6503 28.5433L85.6524 28.544L85.6545 28.5446L85.6566 28.5452L85.6587 28.5459L85.6608 28.5465L85.6629 28.5471L85.665 28.5478L85.6671 28.5484L85.6692 28.549L85.6713 28.5497L85.6734 28.5503L85.6755 28.5509L85.6775 28.5516L85.6796 28.5522L85.6817 28.5528L85.6838 28.5534L85.6859 28.5541L85.688 28.5547L85.69 28.5553L85.6921 28.5559L85.6942 28.5566L85.6963 28.5572L85.6983 28.5578L85.7004 28.5584L85.7025 28.5591L85.7045 28.5597L85.7066 28.5603L85.7087 28.5609L85.7107 28.5616L85.7128 28.5622L85.7148 28.5628L85.7169 28.5634L85.7189 28.564L85.721 28.5647L85.7231 28.5653L85.7251 28.5659L85.7272 28.5665L85.7292 28.5671L85.7312 28.5677L85.7333 28.5684L85.7353 28.569L85.7374 28.5696L85.7394 28.5702L85.7415 28.5708L85.7435 28.5714L85.7455 28.572L85.7476 28.5727L85.7496 28.5733L85.7516 28.5739L85.7537 28.5745L85.7557 28.5751L85.7577 28.5757L85.7598 28.5763L85.7618 28.5769L85.7638 28.5776L85.7658 28.5782L85.7678 28.5788L85.7699 28.5794L85.7719 28.58L85.7739 28.5806L85.7759 28.5812L85.7779 28.5818L85.78 28.5824L85.782 28.583L85.784 28.5836L85.786 28.5842L85.788 28.5848L85.79 28.5854L85.792 28.5861L85.794 28.5867L85.796 28.5873L85.798 28.5879L85.8 28.5885L85.802 28.5891L85.804 28.5897L85.806 28.5903L85.808 28.5909L85.81 28.5915L85.812 28.5921L85.814 28.5927L85.816 28.5933L85.818 28.5939L85.82 28.5945L85.822 28.5951L85.824 28.5957L85.8259 28.5963L85.8279 28.5969L85.8299 28.5975L85.8319 28.5981L85.8339 28.5987L85.8359 28.5993L85.8378 28.5999L85.8398 28.6005L85.8418 28.6011L85.8438 28.6017L85.8458 28.6022L85.8477 28.6028L85.8497 28.6034L85.8517 28.604L85.8536 28.6046L85.8556 28.6052L85.8576 28.6058L85.8596 28.6064L85.8615 28.607L85.8635 28.6076L85.8655 28.6082L85.8674 28.6088L85.8694 28.6094L85.8714 28.61L85.8733 28.6106L85.8753 28.6111L85.8772 28.6117L85.8792 28.6123L85.8812 28.6129L85.8831 28.6135L85.8851 28.6141L85.887 28.6147L85.889 28.6153L85.8909 28.6159L85.8929 28.6165L85.8949 28.617L85.8968 28.6176L85.8988 28.6182L85.9007 28.6188L85.9027 28.6194L85.9046 28.62L85.9066 28.6206L85.9085 28.6212L85.9105 28.6217L85.9124 28.6223L85.9143 28.6229L85.9163 28.6235L85.9182 28.6241L85.9202 28.6247L85.9221 28.6253L85.9241 28.6258L85.926 28.6264L85.928 28.627L85.9299 28.6276L85.9318 28.6282L85.9338 28.6288L85.9357 28.6294L85.9376 28.6299L85.9396 28.6305L85.9415 28.6311L85.9435 28.6317L85.9454 28.6323L85.9473 28.6329L85.9493 28.6334L85.9512 28.634L85.9531 28.6346L85.9551 28.6352L85.957 28.6358L85.9589 28.6364L85.9609 28.6369L85.9628 28.6375L85.9647 28.6381L85.9666 28.6387L85.9686 28.6393L85.9705 28.6398L85.9724 28.6404L85.9743 28.641L85.9763 28.6416L85.9782 28.6422L85.9801 28.6427L85.9821 28.6433L85.984 28.6439L85.9859 28.6445L85.9878 28.6451L85.9897 28.6456L85.9917 28.6462L85.9936 28.6468L85.9955 28.6474L85.9974 28.648L85.9994 28.6485L86.0013 28.6491L86.0032 28.6497L86.0051 28.6503L86.007 28.6509L86.009 28.6514L86.0109 28.652L86.0128 28.6526L86.0147 28.6532L86.0166 28.6537L86.0185 28.6543L86.0205 28.6549L86.0224 28.6555L86.0243 28.6561L86.0262 28.6566L86.0281 28.6572L86.03 28.6578L86.032 28.6584L86.0339 28.6589L86.0358 28.6595L86.0377 28.6601L86.0396 28.6607L86.0415 28.6612L86.0434 28.6618L86.0454 28.6624L86.0473 28.663L86.0492 28.6636L86.0511 28.6641L86.053 28.6647L86.0549 28.6653L86.0568 28.6659L86.0588 28.6664L86.0607 28.667L86.0626 28.6676L86.0645 28.6682L86.0664 28.6687L86.0683 28.6693L86.0702 28.6699L86.0721 28.6705L86.0741 28.671L86.076 28.6716L86.0779 28.6722L86.0798 28.6728L86.0817 28.6734L86.0836 28.6739L86.0855 28.6745L86.0874 28.6751L86.0893 28.6757L86.0913 28.6762L86.0932 28.6768L86.0951 28.6774L86.097 28.678L86.0989 28.6785L86.1008 28.6791L86.1027 28.6797L86.1046 28.6803L86.1065 28.6808L86.1085 28.6814L86.1104 28.682L86.1123 28.6826L86.1142 28.6831L86.1161 28.6837L86.118 28.6843L86.1199 28.6849L86.1218 28.6854L86.1237 28.686L86.1257 28.6866L86.1276 28.6872L86.1295 28.6878L86.1314 28.6883L86.1333 28.6889L86.1352 28.6895L86.1371 28.6901L86.139 28.6906L86.141 28.6912L86.1429 28.6918L86.1448 28.6924L86.1467 28.6929L86.1486 28.6935L86.1505 28.6941L86.1524 28.6947L86.1544 28.6952L86.1563 28.6958L86.1582 28.6964L86.1601 28.697L86.162 28.6976L86.1639 28.6981L86.1659 28.6987L86.1678 28.6993L86.1697 28.6999L86.1716 28.7004L86.1735 28.701L86.1754 28.7016L86.1774 28.7022L86.1793 28.7028L86.1812 28.7033L86.1831 28.7039L86.185 28.7045L86.187 28.7051L86.1889 28.7057L86.1908 28.7062L86.1927 28.7068L86.1946 28.7074L86.1966 28.708L86.1985 28.7085L86.2004 28.7091L86.2023 28.7097L86.2042 28.7103L86.2062 28.7109L86.2081 28.7114L86.21 28.712L86.2119 28.7126L86.2139 28.7132L86.2158 28.7138L86.2177 28.7143L86.2197 28.7149L86.2216 28.7155L86.2235 28.7161L86.2254 28.7167L86.2274 28.7173L86.2293 28.7178L86.2312 28.7184L86.2332 28.719L86.2351 28.7196L86.237 28.7202L86.239 28.7207L86.2409 28.7213L86.2428 28.7219L86.2448 28.7225L86.2467 28.7231L86.2486 28.7237L86.2506 28.7242L86.2525 28.7248L86.2544 28.7254L86.2564 28.726L86.2583 28.7266L86.2603 28.7272L86.2622 28.7277L86.2641 28.7283L86.2661 28.7289L86.268 28.7295L86.27 28.7301L86.2719 28.7307L86.2739 28.7313L86.2758 28.7318L86.2777 28.7324L86.2797 28.733L86.2816 28.7336L86.2836 28.7342L86.2855 28.7348L86.2875 28.7354L86.2894 28.736L86.2914 28.7365L86.2933 28.7371L86.2953 28.7377L86.2972 28.7383L86.2992 28.7389L86.3012 28.7395L86.3031 28.7401L86.3051 28.7407L86.307 28.7413L86.309 28.7418L86.3109 28.7424L86.3129 28.743L86.3149 28.7436L86.3168 28.7442L86.3188 28.7448L86.3208 28.7454L86.3227 28.746L86.3247 28.7466L86.3267 28.7472L86.3286 28.7478L86.3306 28.7484L86.3326 28.749L86.3345 28.7495L86.3365 28.7501L86.3385 28.7507L86.3404 28.7513L86.3424 28.7519L86.3444 28.7525L86.3464 28.7531L86.3484 28.7537L86.3503 28.7543L86.3523 28.7549L86.3543 28.7555L86.3563 28.7561L86.3583 28.7567L86.3602 28.7573L86.3622 28.7579L86.3642 28.7585L86.3662 28.7591L86.3682 28.7597L86.3702 28.7603L86.3722 28.7609L86.3742 28.7615L86.3761 28.7621L86.3781 28.7627L86.3801 28.7633L86.3821 28.7639L86.3841 28.7645L86.3861 28.7651L86.3881 28.7657L86.3901 28.7663L86.3921 28.7669L86.3941 28.7675L86.3961 28.7681L86.3981 28.7687L86.4001 28.7693L86.4022 28.7699L86.4042 28.7705L86.4062 28.7711L86.4082 28.7717L86.4102 28.7724L86.4122 28.773L86.4142 28.7736L86.4162 28.7742L86.4183 28.7748L86.4203 28.7754L86.4223 28.776L86.4243 28.7766L86.4263 28.7772L86.4284 28.7778L86.4304 28.7784L86.4324 28.779L86.4345 28.7797L86.4365 28.7803L86.4385 28.7809L86.4405 28.7815L86.4426 28.7821L86.4446 28.7827L86.4467 28.7833L86.4487 28.784L86.4507 28.7846L86.4528 28.7852L86.4548 28.7858L86.4569 28.7864L86.4589 28.787L86.4609 28.7876L86.463 28.7883L86.465 28.7889L86.4671 28.7895L86.4691 28.7901L86.4712 28.7907L86.4733 28.7914L86.4753 28.792L86.4774 28.7926L86.4794 28.7932L86.4815 28.7938L86.4836 28.7945L86.4856 28.7951L86.4877 28.7957L86.4898 28.7963L86.4918 28.797L86.4939 28.7976L86.496 28.7982L86.498 28.7988L86.5001 28.7994L86.5022 28.8001L86.5043 28.8007L86.5064 28.8013L86.5084 28.802L86.5105 28.8026L86.5126 28.8032L86.5147 28.8038L86.5168 28.8045L86.5189 28.8051L86.521 28.8057L86.5231 28.8064L86.5252 28.807L86.5273 28.8076L86.5293 28.8083L86.5315 28.8089L86.5336 28.8095L86.5357 28.8102L86.5378 28.8108L86.5695 28.8204L86.6017 28.8285C93.8405 30.6651 100.917 32.0882 107.747 33.0105C106.711 39.9078 105.262 47.0796 103.383 54.4219C103.278 54.8097 103.185 55.1527 103.072 55.4942L103.069 55.5013L103.067 55.5084C102.241 58.0862 100.971 60.1705 99.6563 61.4715C98.2834 62.8302 97.1939 63.0523 96.5609 62.848L96.5554 62.8463C96.2475 62.7482 95.9383 62.5269 95.6239 62.0413L95.6198 62.035C94.5768 60.442 93.119 59.2695 91.2964 58.7203C88.4326 57.8572 85.4902 58.8115 83.1076 60.7232C80.7192 62.6397 78.7576 65.6048 77.6942 69.138C76.6306 72.6722 76.6327 76.229 77.5676 79.1466C78.4999 82.056 80.4258 84.4782 83.2848 85.3398C85.1074 85.889 86.9698 85.7171 88.7184 84.9655L88.7254 84.9624C89.2554 84.7314 89.6354 84.7177 89.9462 84.8061L89.9517 84.8077C90.5922 84.9871 91.378 85.7744 91.7727 87.6658C92.15 89.474 92.0597 91.9088 91.3288 94.5094L91.3285 94.5103L91.3278 94.5126L91.3271 94.5149L91.3264 94.5172L91.3258 94.5195L91.3251 94.5217L91.3244 94.524L91.3237 94.5263L91.323 94.5286L91.3223 94.5309L91.3216 94.5331L91.321 94.5354L91.3203 94.5377L91.3196 94.5399L91.3189 94.5422L91.3182 94.5445L91.3175 94.5467L91.3169 94.549L91.3162 94.5512L91.3155 94.5535L91.3148 94.5557L91.3142 94.558L91.3135 94.5602L91.3128 94.5625L91.3121 94.5647L91.3115 94.567L91.3108 94.5692L91.3101 94.5714L91.3094 94.5737L91.3088 94.5759L91.3081 94.5781L91.3074 94.5804L91.3068 94.5826L91.3061 94.5848L91.3054 94.587L91.3047 94.5893L91.3041 94.5915L91.3034 94.5937L91.3027 94.5959L91.3021 94.5981L91.3014 94.6003L91.3007 94.6026L91.3001 94.6048L91.2994 94.607L91.2988 94.6092L91.2981 94.6114L91.2974 94.6136L91.2968 94.6158L91.2961 94.618L91.2954 94.6202L91.2948 94.6223L91.2941 94.6245L91.2935 94.6267L91.2928 94.6289L91.2922 94.6311L91.2915 94.6333L91.2908 94.6355L91.2902 94.6376L91.2895 94.6398L91.2889 94.642L91.2882 94.6442L91.2876 94.6463L91.2869 94.6485L91.2863 94.6507L91.2856 94.6528L91.285 94.655L91.2843 94.6572L91.2837 94.6593L91.283 94.6615L91.2824 94.6636L91.2817 94.6658L91.2811 94.668L91.2804 94.6701L91.2798 94.6723L91.2791 94.6744L91.2785 94.6766L91.2778 94.6787L91.2772 94.6808L91.2765 94.683L91.2759 94.6851L91.2752 94.6873L91.2746 94.6894L91.274 94.6915L91.2733 94.6937L91.2727 94.6958L91.272 94.6979L91.2714 94.7001L91.2708 94.7022L91.2701 94.7043L91.2695 94.7064L91.2688 94.7086L91.2682 94.7107L91.2676 94.7128L91.2669 94.7149L91.2663 94.7171L91.2656 94.7192L91.265 94.7213L91.2644 94.7234L91.2637 94.7255L91.2631 94.7276L91.2625 94.7297L91.2618 94.7318L91.2612 94.7339L91.2606 94.736L91.2599 94.7381L91.2593 94.7402L91.2587 94.7423L91.258 94.7444L91.2574 94.7465L91.2568 94.7486L91.2562 94.7507L91.2555 94.7528L91.2549 94.7549L91.2543 94.757L91.2536 94.7591L91.253 94.7612L91.2524 94.7633L91.2518 94.7653L91.2511 94.7674L91.2505 94.7695L91.2499 94.7716L91.2492 94.7737L91.2486 94.7757L91.248 94.7778L91.2474 94.7799L91.2467 94.782L91.2461 94.784L91.2455 94.7861L91.2449 94.7882L91.2443 94.7903L91.2436 94.7923L91.243 94.7944L91.2424 94.7965L91.2418 94.7985L91.2411 94.8006L91.2405 94.8026L91.2399 94.8047L91.2393 94.8068L91.2387 94.8088L91.238 94.8109L91.2374 94.8129L91.2368 94.815L91.2362 94.817L91.2356 94.8191L91.235 94.8211L91.2343 94.8232L91.2337 94.8252L91.2331 94.8273L91.2325 94.8293L91.2319 94.8314L91.2313 94.8334L91.2306 94.8355L91.23 94.8375L91.2294 94.8396L91.2288 94.8416L91.2282 94.8436L91.2276 94.8457L91.227 94.8477L91.2263 94.8498L91.2257 94.8518L91.2251 94.8538L91.2245 94.8559L91.2239 94.8579L91.2233 94.8599L91.2227 94.862L91.2221 94.864L91.2215 94.866L91.2208 94.868L91.2202 94.8701L91.2196 94.8721L91.219 94.8741L91.2184 94.8761L91.2178 94.8782L91.2172 94.8802L91.2166 94.8822L91.216 94.8842L91.2154 94.8862L91.2148 94.8883L91.2141 94.8903L91.2135 94.8923L91.2129 94.8943L91.2123 94.8963L91.2117 94.8984L91.2111 94.9004L91.2105 94.9024L91.2099 94.9044L91.2093 94.9064L91.2087 94.9084L91.2081 94.9104L91.2075 94.9124L91.2069 94.9144L91.2063 94.9164L91.2057 94.9185L91.2051 94.9205L91.2045 94.9225L91.2039 94.9245L91.2033 94.9265L91.2027 94.9285L91.202 94.9305L91.2014 94.9325L91.2008 94.9345L91.2002 94.9365L91.1996 94.9385L91.199 94.9405L91.1984 94.9425L91.1978 94.9445L91.1972 94.9465L91.1966 94.9485L91.196 94.9505L91.1954 94.9525L91.1948 94.9545L91.1942 94.9565L91.1936 94.9585L91.193 94.9605L91.1924 94.9624L91.1918 94.9644L91.1912 94.9664L91.1906 94.9684L91.19 94.9704L91.1894 94.9724L91.1888 94.9744L91.1882 94.9764L91.1876 94.9784L91.187 94.9804L91.1864 94.9823L91.1858 94.9843L91.1852 94.9863L91.1846 94.9883L91.184 94.9903L91.1835 94.9923L91.1829 94.9943L91.1823 94.9962L91.1817 94.9982L91.1811 95.0002L91.1805 95.0022L91.1799 95.0042L91.1793 95.0062L91.1787 95.0082L91.1781 95.0101L91.1775 95.0121L91.1769 95.0141L91.1763 95.0161L91.1757 95.0181L91.1751 95.02L91.1745 95.022L91.1739 95.024L91.1733 95.026L91.1727 95.028L91.1721 95.0299L91.1715 95.0319L91.1709 95.0339L91.1703 95.0359L91.1697 95.0379L91.1691 95.0398L91.1685 95.0418L91.168 95.0438L91.1674 95.0458L91.1668 95.0477L91.1662 95.0497L91.1656 95.0517L91.165 95.0537L91.1644 95.0556L91.1638 95.0576L91.1632 95.0596L91.1626 95.0616L91.162 95.0635L91.1614 95.0655L91.1608 95.0675L91.1602 95.0695L91.1596 95.0714L91.159 95.0734L91.1584 95.0754L91.1578 95.0774L91.1572 95.0793L91.1567 95.0813L91.1561 95.0833L91.1555 95.0853L91.1549 95.0872L91.1543 95.0892L91.1537 95.0912L91.1531 95.0932L91.1525 95.0951L91.1519 95.0971L91.1513 95.0991L91.1507 95.1011L91.1501 95.103L91.1495 95.105L91.1489 95.107L91.1483 95.109L91.1477 95.1109L91.1471 95.1129L91.1466 95.1149L91.146 95.1169L91.1454 95.1188L91.1448 95.1208L91.1442 95.1228L91.1436 95.1248L91.143 95.1267L91.1424 95.1287L91.1418 95.1307L91.1412 95.1327L91.1406 95.1346L91.14 95.1366L91.1394 95.1386L91.1388 95.1406L91.1382 95.1425L91.1376 95.1445L91.137 95.1465L91.1364 95.1485L91.1358 95.1504L91.1353 95.1524L91.1347 95.1544L91.1341 95.1564L91.1335 95.1584L91.1329 95.1603L91.1323 95.1623L91.1317 95.1643L91.1311 95.1663L91.1305 95.1682L91.1299 95.1702L91.1293 95.1722L91.1287 95.1742L91.1281 95.1762L91.1275 95.1781L91.1269 95.1801L91.1263 95.1821L91.1257 95.1841L91.1251 95.1861L91.1245 95.1881L91.1239 95.19L91.1233 95.192L91.1227 95.194L91.1221 95.196L91.1215 95.198L91.1209 95.2L91.1203 95.2019L91.1198 95.2039L91.1192 95.2059L91.1186 95.2079L91.118 95.2099L91.1174 95.2119L91.1168 95.2139L91.1162 95.2159L91.1156 95.2178L91.115 95.2198L91.1144 95.2218L91.1138 95.2238L91.1132 95.2258L91.1126 95.2278L91.112 95.2298L91.1114 95.2318L91.1108 95.2338L91.1102 95.2358L91.1096 95.2378L91.109 95.2398L91.1084 95.2418L91.1078 95.2437L91.1072 95.2457L91.1066 95.2477L91.106 95.2497L91.1054 95.2517L91.1048 95.2537L91.1042 95.2557L91.1036 95.2577L91.103 95.2597L91.1024 95.2617L91.1018 95.2637L91.1011 95.2657L91.1005 95.2677L91.0999 95.2697L91.0993 95.2718L91.0987 95.2738L91.0981 95.2758L91.0975 95.2778L91.0969 95.2798L91.0963 95.2818L91.0957 95.2838L91.0951 95.2858L91.0945 95.2878L91.0939 95.2898L91.0933 95.2918L91.0927 95.2939L91.0921 95.2959L91.0915 95.2979L91.0909 95.2999L91.0903 95.3019L91.0897 95.3039L91.089 95.306L91.0884 95.308L91.0878 95.31L91.0872 95.312L91.0866 95.314L91.086 95.3161L91.0854 95.3181L91.0848 95.3201L91.0842 95.3221L91.0836 95.3242L91.083 95.3262L91.0823 95.3282L91.0817 95.3302L91.0811 95.3323L91.0805 95.3343L91.0799 95.3363L91.0793 95.3384L91.0787 95.3404L91.0781 95.3424L91.0775 95.3445L91.0768 95.3465L91.0762 95.3485L91.0756 95.3506L91.075 95.3526L91.0744 95.3547L91.0738 95.3567L91.0732 95.3587L91.0725 95.3608L91.0719 95.3628L91.0713 95.3649L91.0707 95.3669L91.0701 95.369L91.0695 95.371L91.0688 95.3731L91.0682 95.3751L91.0676 95.3772L91.067 95.3792L91.0664 95.3813L91.0658 95.3833L91.0651 95.3854L91.0645 95.3875L91.0639 95.3895L91.0633 95.3916L91.0627 95.3936L91.062 95.3957L91.0614 95.3978L91.0608 95.3998L91.0602 95.4019L91.0595 95.404L91.0589 95.406L91.0583 95.4081L91.0577 95.4102L91.0571 95.4123L91.0564 95.4143L91.0558 95.4164L91.0552 95.4185L91.0546 95.4206L91.0539 95.4226L91.0533 95.4247L91.0527 95.4268L91.052 95.4289L91.0514 95.431L91.0508 95.433L91.0502 95.4351L91.0495 95.4372L91.0489 95.4393L91.0483 95.4414L91.0476 95.4435L91.047 95.4456L91.0464 95.4477L91.0458 95.4498L91.0451 95.4519L91.0445 95.454L91.0439 95.4561L91.0432 95.4582L91.0426 95.4603L91.042 95.4624L91.0413 95.4645L91.0407 95.4666L91.0401 95.4687L91.0394 95.4708L91.0388 95.4729L91.0381 95.4751L91.0375 95.4772L91.0369 95.4793L91.0362 95.4814L91.0356 95.4835L91.035 95.4857L91.0343 95.4878L91.0337 95.4899L91.033 95.492L91.0324 95.4942L91.0318 95.4963L91.0311 95.4984L91.0305 95.5005L91.0298 95.5027L91.0292 95.5048L91.0285 95.507L91.0279 95.5091L91.0273 95.5112L91.0266 95.5134L91.026 95.5155L91.0253 95.5177L91.0247 95.5198L91.024 95.522L91.0234 95.5241L91.0232 95.5246C88.4968 102.807 85.7621 109.634 82.7455 115.997L1.81857 91.6087C2.81684 84.6295 4.31323 77.4281 6.2231 69.9334C6.31869 69.5801 6.39813 69.3165 6.51408 68.9676L6.51665 68.9599L6.51911 68.9522C7.3449 66.3744 8.61524 64.2901 9.92989 62.989C11.3028 61.6304 12.3923 61.4083 13.0253 61.6126L13.0308 61.6143C13.3386 61.7123 13.6476 61.9335 13.9618 62.4185C15.0079 64.0361 16.4748 65.1934 18.3006 65.7436C21.1645 66.6067 24.1069 65.6523 26.4894 63.7406C28.8779 61.8242 30.8395 58.8591 31.9028 55.3259C32.9662 51.7926 32.9673 48.2367 32.0337 45.3191C31.1025 42.4088 29.1761 39.9872 26.3123 39.1241C24.4931 38.5759 22.6207 38.7421 20.8699 39.4942C20.3146 39.73 19.9443 39.741 19.64 39.6545L19.6344 39.6529C19.0003 39.4752 18.2139 38.6892 17.8174 36.7952C17.4388 34.9861 17.5268 32.5508 18.2574 29.9513C18.3745 29.5623 18.4816 29.2071 18.5973 28.8583Z" stroke="url(#paint0_linear_2811_4183)" stroke-width="3"/>
<defs>
<linearGradient id="paint0_linear_2811_4183" x1="41.847" y1="105.238" x2="73.1928" y2="1.22532" gradientUnits="userSpaceOnUse">
<stop stop-color="#435ECF"/>
<stop offset="0.355" stop-color="#E24BB3"/>
<stop offset="1" stop-color="#FF9433"/>
</linearGradient>
</defs>
</svg>
