<svg width="110" height="118" viewBox="0 0 110 118" fill="none" xmlns="http://www.w3.org/2000/svg">
<path d="M18.8458 89.322C21.3321 96.485 24.0806 103.258 27.0247 109.582C33.2182 106.626 39.85 103.885 46.86 101.416L46.871 101.412L46.8821 101.408L46.8987 101.403C47.2532 101.284 47.6534 101.15 48.0787 101.035C50.975 100.223 53.8488 100.115 56.1831 100.67C58.4613 101.211 60.5816 102.494 61.2192 104.753C61.5411 105.882 61.3979 106.986 60.9923 108.005C60.522 109.204 60.4579 110.395 60.8072 111.556C61.3378 113.319 62.8248 114.745 65.0341 115.529C67.2423 116.312 70.0711 116.404 72.9732 115.529C75.8752 114.655 78.1828 113.015 79.5913 111.141C81.0005 109.267 81.4535 107.257 80.9229 105.494C80.5761 104.342 79.8598 103.372 78.8051 102.633L78.8006 102.63C77.9121 102.002 77.1829 101.177 76.8255 100.052C76.1092 97.8165 77.1686 95.5735 78.7699 93.8627C80.4114 92.1092 82.8692 90.6095 85.7352 89.6865L85.7486 89.6822L85.7622 89.6781L85.7644 89.6774L85.7666 89.6767L85.7689 89.6761L85.7711 89.6754L85.7733 89.6747L85.7755 89.6741L85.7778 89.6734L85.78 89.6727L85.7822 89.6721L85.7844 89.6714L85.7866 89.6707L85.7888 89.6701L85.791 89.6694L85.7932 89.6687L85.7954 89.6681L85.7976 89.6674L85.7998 89.6667L85.802 89.6661L85.8042 89.6654L85.8064 89.6648L85.8086 89.6641L85.8108 89.6634L85.813 89.6628L85.8152 89.6621L85.8174 89.6615L85.8195 89.6608L85.8217 89.6601L85.8239 89.6595L85.8261 89.6588L85.8282 89.6582L85.8304 89.6575L85.8326 89.6569L85.8347 89.6562L85.8369 89.6556L85.8391 89.6549L85.8412 89.6543L85.8434 89.6536L85.8455 89.653L85.8477 89.6523L85.8498 89.6517L85.852 89.651L85.8541 89.6504L85.8563 89.6497L85.8584 89.6491L85.8606 89.6484L85.8627 89.6478L85.8649 89.6471L85.867 89.6465L85.8691 89.6459L85.8713 89.6452L85.8734 89.6446L85.8755 89.6439L85.8776 89.6433L85.8798 89.6426L85.8819 89.642L85.884 89.6414L85.8861 89.6407L85.8882 89.6401L85.8904 89.6395L85.8925 89.6388L85.8946 89.6382L85.8967 89.6375L85.8988 89.6369L85.9009 89.6363L85.903 89.6356L85.9051 89.635L85.9072 89.6344L85.9093 89.6337L85.9114 89.6331L85.9135 89.6325L85.9156 89.6318L85.9177 89.6312L85.9198 89.6306L85.9219 89.63L85.924 89.6293L85.9261 89.6287L85.9282 89.6281L85.9302 89.6274L85.9323 89.6268L85.9344 89.6262L85.9365 89.6256L85.9386 89.6249L85.9406 89.6243L85.9427 89.6237L85.9448 89.6231L85.9469 89.6224L85.9489 89.6218L85.951 89.6212L85.9531 89.6206L85.9551 89.6199L85.9572 89.6193L85.9592 89.6187L85.9613 89.6181L85.9634 89.6175L85.9654 89.6168L85.9675 89.6162L85.9695 89.6156L85.9716 89.615L85.9736 89.6144L85.9757 89.6137L85.9777 89.6131L85.9798 89.6125L85.9818 89.6119L85.9839 89.6113L85.9859 89.6107L85.988 89.61L85.99 89.6094L85.992 89.6088L85.9941 89.6082L85.9961 89.6076L85.9981 89.607L86.0002 89.6064L86.0022 89.6058L86.0042 89.6051L86.0063 89.6045L86.0083 89.6039L86.0103 89.6033L86.0123 89.6027L86.0144 89.6021L86.0164 89.6015L86.0184 89.6009L86.0204 89.6003L86.0224 89.5997L86.0245 89.599L86.0265 89.5984L86.0285 89.5978L86.0305 89.5972L86.0325 89.5966L86.0345 89.596L86.0365 89.5954L86.0385 89.5948L86.0405 89.5942L86.0425 89.5936L86.0446 89.593L86.0466 89.5924L86.0486 89.5918L86.0506 89.5912L86.0526 89.5906L86.0546 89.59L86.0566 89.5894L86.0585 89.5888L86.0605 89.5882L86.0625 89.5876L86.0645 89.587L86.0665 89.5864L86.0685 89.5858L86.0705 89.5852L86.0725 89.5846L86.0745 89.584L86.0765 89.5834L86.0784 89.5828L86.0804 89.5822L86.0824 89.5816L86.0844 89.581L86.0864 89.5804L86.0884 89.5798L86.0903 89.5792L86.0923 89.5786L86.0943 89.578L86.0963 89.5774L86.0982 89.5768L86.1002 89.5762L86.1022 89.5756L86.1042 89.575L86.1061 89.5744L86.1081 89.5738L86.1101 89.5732L86.112 89.5727L86.114 89.5721L86.116 89.5715L86.1179 89.5709L86.1199 89.5703L86.1219 89.5697L86.1238 89.5691L86.1258 89.5685L86.1277 89.5679L86.1297 89.5673L86.1317 89.5667L86.1336 89.5661L86.1356 89.5656L86.1375 89.565L86.1395 89.5644L86.1414 89.5638L86.1434 89.5632L86.1453 89.5626L86.1473 89.562L86.1492 89.5614L86.1512 89.5609L86.1531 89.5603L86.1551 89.5597L86.157 89.5591L86.159 89.5585L86.1609 89.5579L86.1629 89.5573L86.1648 89.5567L86.1668 89.5562L86.1687 89.5556L86.1707 89.555L86.1726 89.5544L86.1745 89.5538L86.1765 89.5532L86.1784 89.5526L86.1804 89.5521L86.1823 89.5515L86.1842 89.5509L86.1862 89.5503L86.1881 89.5497L86.1901 89.5491L86.192 89.5486L86.1939 89.548L86.1959 89.5474L86.1978 89.5468L86.1997 89.5462L86.2017 89.5456L86.2036 89.5451L86.2055 89.5445L86.2075 89.5439L86.2094 89.5433L86.2113 89.5427L86.2132 89.5422L86.2152 89.5416L86.2171 89.541L86.219 89.5404L86.221 89.5398L86.2229 89.5392L86.2248 89.5387L86.2267 89.5381L86.2287 89.5375L86.2306 89.5369L86.2325 89.5363L86.2344 89.5358L86.2364 89.5352L86.2383 89.5346L86.2402 89.534L86.2421 89.5334L86.244 89.5329L86.246 89.5323L86.2479 89.5317L86.2498 89.5311L86.2517 89.5306L86.2537 89.53L86.2556 89.5294L86.2575 89.5288L86.2594 89.5282L86.2613 89.5277L86.2632 89.5271L86.2652 89.5265L86.2671 89.5259L86.269 89.5253L86.2709 89.5248L86.2728 89.5242L86.2747 89.5236L86.2767 89.523L86.2786 89.5225L86.2805 89.5219L86.2824 89.5213L86.2843 89.5207L86.2862 89.5202L86.2882 89.5196L86.2901 89.519L86.292 89.5184L86.2939 89.5178L86.2958 89.5173L86.2977 89.5167L86.2996 89.5161L86.3016 89.5155L86.3035 89.515L86.3054 89.5144L86.3073 89.5138L86.3092 89.5132L86.3111 89.5127L86.313 89.5121L86.3149 89.5115L86.3168 89.5109L86.3188 89.5104L86.3207 89.5098L86.3226 89.5092L86.3245 89.5086L86.3264 89.508L86.3283 89.5075L86.3302 89.5069L86.3321 89.5063L86.3341 89.5057L86.336 89.5052L86.3379 89.5046L86.3398 89.504L86.3417 89.5034L86.3436 89.5029L86.3455 89.5023L86.3474 89.5017L86.3493 89.5011L86.3513 89.5006L86.3532 89.5L86.3551 89.4994L86.357 89.4988L86.3589 89.4983L86.3608 89.4977L86.3627 89.4971L86.3646 89.4965L86.3665 89.496L86.3685 89.4954L86.3704 89.4948L86.3723 89.4942L86.3742 89.4936L86.3761 89.4931L86.378 89.4925L86.3799 89.4919L86.3818 89.4913L86.3838 89.4908L86.3857 89.4902L86.3876 89.4896L86.3895 89.489L86.3914 89.4885L86.3933 89.4879L86.3952 89.4873L86.3971 89.4867L86.3991 89.4862L86.401 89.4856L86.4029 89.485L86.4048 89.4844L86.4067 89.4838L86.4086 89.4833L86.4106 89.4827L86.4125 89.4821L86.4144 89.4815L86.4163 89.481L86.4182 89.4804L86.4201 89.4798L86.4221 89.4792L86.424 89.4786L86.4259 89.4781L86.4278 89.4775L86.4297 89.4769L86.4316 89.4763L86.4336 89.4758L86.4355 89.4752L86.4374 89.4746L86.4393 89.474L86.4412 89.4734L86.4432 89.4729L86.4451 89.4723L86.447 89.4717L86.4489 89.4711L86.4509 89.4705L86.4528 89.47L86.4547 89.4694L86.4566 89.4688L86.4586 89.4682L86.4605 89.4676L86.4624 89.4671L86.4643 89.4665L86.4663 89.4659L86.4682 89.4653L86.4701 89.4647L86.472 89.4642L86.474 89.4636L86.4759 89.463L86.4778 89.4624L86.4798 89.4618L86.4817 89.4613L86.4836 89.4607L86.4856 89.4601L86.4875 89.4595L86.4894 89.4589L86.4914 89.4583L86.4933 89.4578L86.4952 89.4572L86.4972 89.4566L86.4991 89.456L86.501 89.4554L86.503 89.4548L86.5049 89.4543L86.5069 89.4537L86.5088 89.4531L86.5107 89.4525L86.5127 89.4519L86.5146 89.4513L86.5166 89.4507L86.5185 89.4502L86.5204 89.4496L86.5224 89.449L86.5243 89.4484L86.5263 89.4478L86.5282 89.4472L86.5302 89.4466L86.5321 89.4461L86.5341 89.4455L86.536 89.4449L86.538 89.4443L86.5399 89.4437L86.5419 89.4431L86.5438 89.4425L86.5458 89.4419L86.5477 89.4413L86.5497 89.4408L86.5516 89.4402L86.5536 89.4396L86.5556 89.439L86.5575 89.4384L86.5595 89.4378L86.5614 89.4372L86.5634 89.4366L86.5654 89.436L86.5673 89.4354L86.5693 89.4349L86.5713 89.4343L86.5732 89.4337L86.5752 89.4331L86.5772 89.4325L86.5791 89.4319L86.5811 89.4313L86.5831 89.4307L86.585 89.4301L86.587 89.4295L86.589 89.4289L86.591 89.4283L86.5929 89.4277L86.5949 89.4271L86.5969 89.4265L86.5989 89.4259L86.6008 89.4253L86.6028 89.4247L86.6048 89.4241L86.6068 89.4236L86.6088 89.423L86.6108 89.4224L86.6127 89.4218L86.6147 89.4212L86.6167 89.4206L86.6187 89.42L86.6207 89.4194L86.6227 89.4188L86.6247 89.4182L86.6267 89.4176L86.6287 89.417L86.6307 89.4164L86.6327 89.4158L86.6347 89.4152L86.6367 89.4145L86.6387 89.4139L86.6407 89.4133L86.6427 89.4127L86.6447 89.4121L86.6467 89.4115L86.6487 89.4109L86.6507 89.4103L86.6527 89.4097L86.6547 89.4091L86.6567 89.4085L86.6587 89.4079L86.6607 89.4073L86.6628 89.4067L86.6648 89.4061L86.6668 89.4055L86.6688 89.4049L86.6708 89.4042L86.6729 89.4036L86.6749 89.403L86.6769 89.4024L86.6789 89.4018L86.681 89.4012L86.683 89.4006L86.685 89.4L86.687 89.3994L86.6891 89.3988L86.6911 89.3981L86.6931 89.3975L86.6952 89.3969L86.6972 89.3963L86.6993 89.3957L86.7013 89.3951L86.7033 89.3945L86.7054 89.3938L86.7074 89.3932L86.7095 89.3926L86.7115 89.392L86.7136 89.3914L86.7156 89.3908L86.7177 89.3901L86.7197 89.3895L86.7218 89.3889L86.7239 89.3883L86.7259 89.3877L86.728 89.387L86.73 89.3864L86.7321 89.3858L86.7342 89.3852L86.7362 89.3845L86.7383 89.3839L86.7404 89.3833L86.7424 89.3827L86.7445 89.382L86.7466 89.3814L86.7487 89.3808L86.7507 89.3802L86.7528 89.3795L86.7549 89.3789L86.757 89.3783L86.7591 89.3777L86.7611 89.377L86.7632 89.3764L86.7653 89.3758L86.7674 89.3751L86.7695 89.3745L86.7716 89.3739L86.7737 89.3733L86.7758 89.3726L86.7779 89.372L86.78 89.3714L86.7821 89.3707L86.7842 89.3701L86.7863 89.3695L86.8181 89.3599L86.8502 89.3517C94.0891 87.5151 101.165 86.092 107.996 85.1698C106.96 78.2725 105.511 71.1006 103.631 63.7584C103.527 63.3705 103.433 63.0276 103.32 62.6861L103.318 62.679L103.316 62.6718C102.49 60.0941 101.219 58.0098 99.9048 56.7087C98.532 55.35 97.4424 55.1279 96.8094 55.3322L96.8039 55.334C96.496 55.4321 96.1868 55.6534 95.8724 56.139L95.8683 56.1453C94.8254 57.7382 93.3675 58.9107 91.545 59.46C88.6811 60.3231 85.7387 59.3687 83.3562 57.457C80.9677 55.5405 79.0062 52.5755 77.9428 49.0422C76.8791 45.5081 76.8813 41.9512 77.8162 39.0337C78.7485 36.1242 80.6743 33.7021 83.5334 32.8405C85.3559 32.2912 87.2184 32.4631 88.967 33.2148L88.9739 33.2178C89.504 33.4489 89.8839 33.4625 90.1947 33.3741L90.2003 33.3726C90.8407 33.1931 91.6265 32.4058 92.0212 30.5145C92.3986 28.7062 92.3083 26.2715 91.5773 23.6708L91.577 23.6699L91.5764 23.6677L91.5757 23.6654L91.575 23.6631L91.5743 23.6608L91.5736 23.6585L91.5729 23.6562L91.5722 23.6539L91.5715 23.6517L91.5709 23.6494L91.5702 23.6471L91.5695 23.6448L91.5688 23.6426L91.5681 23.6403L91.5674 23.638L91.5668 23.6358L91.5661 23.6335L91.5654 23.6313L91.5647 23.629L91.564 23.6268L91.5634 23.6245L91.5627 23.6223L91.562 23.62L91.5613 23.6178L91.5607 23.6155L91.56 23.6133L91.5593 23.611L91.5586 23.6088L91.558 23.6066L91.5573 23.6043L91.5566 23.6021L91.556 23.5999L91.5553 23.5976L91.5546 23.5954L91.5539 23.5932L91.5533 23.591L91.5526 23.5888L91.5519 23.5865L91.5513 23.5843L91.5506 23.5821L91.5499 23.5799L91.5493 23.5777L91.5486 23.5755L91.548 23.5733L91.5473 23.5711L91.5466 23.5689L91.546 23.5667L91.5453 23.5645L91.5446 23.5623L91.544 23.5601L91.5433 23.5579L91.5427 23.5557L91.542 23.5535L91.5413 23.5513L91.5407 23.5492L91.54 23.547L91.5394 23.5448L91.5387 23.5426L91.5381 23.5404L91.5374 23.5383L91.5368 23.5361L91.5361 23.5339L91.5355 23.5317L91.5348 23.5296L91.5341 23.5274L91.5335 23.5252L91.5328 23.5231L91.5322 23.5209L91.5315 23.5188L91.5309 23.5166L91.5302 23.5144L91.5296 23.5123L91.5289 23.5101L91.5283 23.508L91.5277 23.5058L91.527 23.5037L91.5264 23.5015L91.5257 23.4994L91.5251 23.4973L91.5244 23.4951L91.5238 23.493L91.5231 23.4908L91.5225 23.4887L91.5219 23.4866L91.5212 23.4844L91.5206 23.4823L91.5199 23.4802L91.5193 23.4781L91.5187 23.4759L91.518 23.4738L91.5174 23.4717L91.5167 23.4696L91.5161 23.4674L91.5155 23.4653L91.5148 23.4632L91.5142 23.4611L91.5135 23.459L91.5129 23.4569L91.5123 23.4547L91.5116 23.4526L91.511 23.4505L91.5104 23.4484L91.5097 23.4463L91.5091 23.4442L91.5085 23.4421L91.5078 23.44L91.5072 23.4379L91.5066 23.4358L91.5059 23.4337L91.5053 23.4316L91.5047 23.4295L91.5041 23.4274L91.5034 23.4253L91.5028 23.4233L91.5022 23.4212L91.5015 23.4191L91.5009 23.417L91.5003 23.4149L91.4997 23.4128L91.499 23.4107L91.4984 23.4087L91.4978 23.4066L91.4972 23.4045L91.4965 23.4024L91.4959 23.4003L91.4953 23.3983L91.4947 23.3962L91.494 23.3941L91.4934 23.3921L91.4928 23.39L91.4922 23.3879L91.4915 23.3859L91.4909 23.3838L91.4903 23.3817L91.4897 23.3797L91.4891 23.3776L91.4884 23.3755L91.4878 23.3735L91.4872 23.3714L91.4866 23.3694L91.486 23.3673L91.4853 23.3653L91.4847 23.3632L91.4841 23.3612L91.4835 23.3591L91.4829 23.3571L91.4823 23.355L91.4816 23.353L91.481 23.3509L91.4804 23.3489L91.4798 23.3468L91.4792 23.3448L91.4786 23.3427L91.4779 23.3407L91.4773 23.3386L91.4767 23.3366L91.4761 23.3346L91.4755 23.3325L91.4749 23.3305L91.4743 23.3285L91.4737 23.3264L91.473 23.3244L91.4724 23.3224L91.4718 23.3203L91.4712 23.3183L91.4706 23.3163L91.47 23.3142L91.4694 23.3122L91.4688 23.3102L91.4682 23.3082L91.4675 23.3061L91.4669 23.3041L91.4663 23.3021L91.4657 23.3001L91.4651 23.298L91.4645 23.296L91.4639 23.294L91.4633 23.292L91.4627 23.29L91.4621 23.2879L91.4615 23.2859L91.4609 23.2839L91.4603 23.2819L91.4596 23.2799L91.459 23.2779L91.4584 23.2759L91.4578 23.2738L91.4572 23.2718L91.4566 23.2698L91.456 23.2678L91.4554 23.2658L91.4548 23.2638L91.4542 23.2618L91.4536 23.2598L91.453 23.2578L91.4524 23.2558L91.4518 23.2538L91.4512 23.2518L91.4506 23.2498L91.45 23.2478L91.4494 23.2458L91.4488 23.2438L91.4482 23.2418L91.4476 23.2398L91.447 23.2378L91.4464 23.2358L91.4458 23.2338L91.4452 23.2318L91.4446 23.2298L91.444 23.2278L91.4434 23.2258L91.4428 23.2238L91.4422 23.2218L91.4416 23.2198L91.441 23.2178L91.4404 23.2158L91.4398 23.2138L91.4392 23.2118L91.4386 23.2098L91.438 23.2078L91.4374 23.2059L91.4368 23.2039L91.4362 23.2019L91.4356 23.1999L91.435 23.1979L91.4344 23.1959L91.4338 23.1939L91.4332 23.1919L91.4326 23.19L91.432 23.188L91.4314 23.186L91.4308 23.184L91.4302 23.182L91.4296 23.18L91.429 23.178L91.4284 23.1761L91.4278 23.1741L91.4272 23.1721L91.4266 23.1701L91.426 23.1681L91.4254 23.1662L91.4248 23.1642L91.4242 23.1622L91.4236 23.1602L91.423 23.1582L91.4224 23.1562L91.4218 23.1543L91.4212 23.1523L91.4207 23.1503L91.4201 23.1483L91.4195 23.1464L91.4189 23.1444L91.4183 23.1424L91.4177 23.1404L91.4171 23.1384L91.4165 23.1365L91.4159 23.1345L91.4153 23.1325L91.4147 23.1305L91.4141 23.1286L91.4135 23.1266L91.4129 23.1246L91.4123 23.1226L91.4117 23.1207L91.4111 23.1187L91.4105 23.1167L91.4099 23.1147L91.4093 23.1128L91.4088 23.1108L91.4082 23.1088L91.4076 23.1068L91.407 23.1049L91.4064 23.1029L91.4058 23.1009L91.4052 23.0989L91.4046 23.097L91.404 23.095L91.4034 23.093L91.4028 23.091L91.4022 23.0891L91.4016 23.0871L91.401 23.0851L91.4004 23.0831L91.3998 23.0812L91.3992 23.0792L91.3987 23.0772L91.3981 23.0752L91.3975 23.0733L91.3969 23.0713L91.3963 23.0693L91.3957 23.0673L91.3951 23.0654L91.3945 23.0634L91.3939 23.0614L91.3933 23.0594L91.3927 23.0575L91.3921 23.0555L91.3915 23.0535L91.3909 23.0515L91.3903 23.0496L91.3897 23.0476L91.3891 23.0456L91.3885 23.0436L91.388 23.0417L91.3874 23.0397L91.3868 23.0377L91.3862 23.0357L91.3856 23.0338L91.385 23.0318L91.3844 23.0298L91.3838 23.0278L91.3832 23.0259L91.3826 23.0239L91.382 23.0219L91.3814 23.0199L91.3808 23.0179L91.3802 23.016L91.3796 23.014L91.379 23.012L91.3784 23.01L91.3778 23.008L91.3772 23.0061L91.3766 23.0041L91.376 23.0021L91.3755 23.0001L91.3749 22.9981L91.3743 22.9962L91.3737 22.9942L91.3731 22.9922L91.3725 22.9902L91.3719 22.9882L91.3713 22.9862L91.3707 22.9843L91.3701 22.9823L91.3695 22.9803L91.3689 22.9783L91.3683 22.9763L91.3677 22.9743L91.3671 22.9723L91.3665 22.9704L91.3659 22.9684L91.3653 22.9664L91.3647 22.9644L91.3641 22.9624L91.3635 22.9604L91.3629 22.9584L91.3623 22.9564L91.3617 22.9544L91.3611 22.9525L91.3605 22.9505L91.3599 22.9485L91.3593 22.9465L91.3587 22.9445L91.3581 22.9425L91.3575 22.9405L91.3569 22.9385L91.3563 22.9365L91.3557 22.9345L91.3551 22.9325L91.3545 22.9305L91.3539 22.9285L91.3533 22.9265L91.3527 22.9245L91.3521 22.9225L91.3515 22.9205L91.3509 22.9185L91.3503 22.9165L91.3497 22.9145L91.3491 22.9125L91.3485 22.9105L91.3479 22.9085L91.3473 22.9065L91.3467 22.9045L91.3461 22.9025L91.3455 22.9005L91.3449 22.8985L91.3442 22.8964L91.3436 22.8944L91.343 22.8924L91.3424 22.8904L91.3418 22.8884L91.3412 22.8864L91.3406 22.8844L91.34 22.8824L91.3394 22.8803L91.3388 22.8783L91.3382 22.8763L91.3376 22.8743L91.337 22.8723L91.3364 22.8703L91.3358 22.8682L91.3351 22.8662L91.3345 22.8642L91.3339 22.8622L91.3333 22.8601L91.3327 22.8581L91.3321 22.8561L91.3315 22.8541L91.3309 22.852L91.3303 22.85L91.3297 22.848L91.329 22.8459L91.3284 22.8439L91.3278 22.8419L91.3272 22.8398L91.3266 22.8378L91.326 22.8358L91.3254 22.8337L91.3248 22.8317L91.3241 22.8297L91.3235 22.8276L91.3229 22.8256L91.3223 22.8235L91.3217 22.8215L91.3211 22.8195L91.3205 22.8174L91.3198 22.8154L91.3192 22.8133L91.3186 22.8113L91.318 22.8092L91.3174 22.8072L91.3168 22.8051L91.3161 22.8031L91.3155 22.801L91.3149 22.799L91.3143 22.7969L91.3137 22.7948L91.313 22.7928L91.3124 22.7907L91.3118 22.7887L91.3112 22.7866L91.3106 22.7845L91.3099 22.7825L91.3093 22.7804L91.3087 22.7783L91.3081 22.7763L91.3075 22.7742L91.3068 22.7721L91.3062 22.7701L91.3056 22.768L91.305 22.7659L91.3043 22.7638L91.3037 22.7618L91.3031 22.7597L91.3025 22.7576L91.3018 22.7555L91.3012 22.7535L91.3006 22.7514L91.3 22.7493L91.2993 22.7472L91.2987 22.7451L91.2981 22.743L91.2974 22.7409L91.2968 22.7388L91.2962 22.7367L91.2956 22.7347L91.2949 22.7326L91.2943 22.7305L91.2937 22.7284L91.293 22.7263L91.2924 22.7242L91.2918 22.7221L91.2911 22.72L91.2905 22.7179L91.2899 22.7157L91.2892 22.7136L91.2886 22.7115L91.288 22.7094L91.2873 22.7073L91.2867 22.7052L91.286 22.7031L91.2854 22.701L91.2848 22.6988L91.2841 22.6967L91.2835 22.6946L91.2829 22.6925L91.2822 22.6903L91.2816 22.6882L91.2809 22.6861L91.2803 22.684L91.2797 22.6818L91.279 22.6797L91.2784 22.6776L91.2777 22.6754L91.2771 22.6733L91.2764 22.6712L91.2758 22.669L91.2752 22.6669L91.2745 22.6647L91.2739 22.6626L91.2732 22.6604L91.2726 22.6583L91.2719 22.6561L91.2718 22.6557C88.7453 15.3733 86.0106 8.54622 82.994 2.18309L2.06711 26.5715C3.06537 33.5508 4.56177 40.7522 6.47163 48.2469C6.56722 48.6001 6.64667 48.8637 6.76262 49.2127L6.76518 49.2204L6.76765 49.2281C7.59343 51.8059 8.86377 53.8902 10.1784 55.1912C11.5513 56.5499 12.6409 56.772 13.2738 56.5677L13.2793 56.5659C13.5871 56.4679 13.8961 56.2468 14.2104 55.7617C15.2564 54.1441 16.7234 52.9869 18.5492 52.4366C21.4131 51.5736 24.3554 52.5279 26.738 54.4396C29.1264 56.3561 31.088 59.3212 32.1514 62.8544C33.2148 66.3876 33.2158 69.9435 32.2823 72.8611C31.351 75.7715 29.4247 78.1931 26.5608 79.0562C24.7416 79.6044 22.8693 79.4381 21.1185 78.686C20.5631 78.4502 20.1929 78.4392 19.8885 78.5258L19.8829 78.5274C19.2488 78.705 18.4624 79.491 18.066 81.3851C17.6873 83.1941 17.7753 85.6294 18.5059 88.229C18.623 88.618 18.7301 88.9732 18.8458 89.322Z" stroke="url(#paint0_linear_2795_6547)" stroke-width="3"/>
<defs>
<linearGradient id="paint0_linear_2795_6547" x1="42.0955" y1="12.9418" x2="73.4413" y2="116.955" gradientUnits="userSpaceOnUse">
<stop stop-color="#FFE1C9"/>
<stop offset="1" stop-color="#FFC291"/>
</linearGradient>
</defs>
</svg>
