<svg width="50" height="50" viewBox="0 0 50 50" fill="none" xmlns="http://www.w3.org/2000/svg">
<path d="M14.4583 4.16666C15.325 4.16666 16.0271 4.84166 16.0271 5.67499V8.71666C17.4188 8.69166 18.9792 8.69166 20.7354 8.69166H29.1C30.8542 8.69166 32.4146 8.69166 33.8063 8.71874V5.67707C33.8063 4.84374 34.5083 4.16666 35.375 4.16666C36.2417 4.16666 36.9438 4.84166 36.9438 5.67499V8.85416C39.9542 9.08541 41.9313 9.65416 43.3813 11.0521C44.8354 12.4479 45.4271 14.3479 45.6667 17.2437L45.8333 18.75H4.16667V17.2417C4.40834 14.3458 5 12.4458 6.45209 11.05C7.90417 9.65416 9.87917 9.08332 12.8896 8.85207V5.67499C12.8896 4.84166 13.5917 4.16666 14.4583 4.16666Z" fill="white"/>
<path opacity="0.5" d="M45.8333 29.1667V25C45.8333 23.2521 45.825 20.1354 45.7979 18.75H4.1875C4.16042 20.1354 4.16667 23.2521 4.16667 25V29.1667C4.16667 37.0229 4.16667 40.9521 6.60834 43.3917C9.04792 45.8333 12.975 45.8333 20.8333 45.8333H29.1667C37.0208 45.8333 40.95 45.8333 43.3917 43.3917C45.8333 40.9542 45.8333 37.025 45.8333 29.1667Z" fill="white"/>
<path d="M37.5 35.4167C37.5 35.9692 37.2805 36.4991 36.8898 36.8898C36.4991 37.2805 35.9692 37.5 35.4167 37.5C34.8641 37.5 34.3342 37.2805 33.9435 36.8898C33.5528 36.4991 33.3333 35.9692 33.3333 35.4167C33.3333 34.8641 33.5528 34.3342 33.9435 33.9435C34.3342 33.5528 34.8641 33.3333 35.4167 33.3333C35.9692 33.3333 36.4991 33.5528 36.8898 33.9435C37.2805 34.3342 37.5 34.8641 37.5 35.4167ZM37.5 27.0833C37.5 27.6359 37.2805 28.1658 36.8898 28.5565C36.4991 28.9472 35.9692 29.1667 35.4167 29.1667C34.8641 29.1667 34.3342 28.9472 33.9435 28.5565C33.5528 28.1658 33.3333 27.6359 33.3333 27.0833C33.3333 26.5308 33.5528 26.0009 33.9435 25.6102C34.3342 25.2195 34.8641 25 35.4167 25C35.9692 25 36.4991 25.2195 36.8898 25.6102C37.2805 26.0009 37.5 26.5308 37.5 27.0833ZM27.0833 35.4167C27.0833 35.9692 26.8638 36.4991 26.4731 36.8898C26.0824 37.2805 25.5525 37.5 25 37.5C24.4475 37.5 23.9176 37.2805 23.5269 36.8898C23.1362 36.4991 22.9167 35.9692 22.9167 35.4167C22.9167 34.8641 23.1362 34.3342 23.5269 33.9435C23.9176 33.5528 24.4475 33.3333 25 33.3333C25.5525 33.3333 26.0824 33.5528 26.4731 33.9435C26.8638 34.3342 27.0833 34.8641 27.0833 35.4167ZM27.0833 27.0833C27.0833 27.6359 26.8638 28.1658 26.4731 28.5565C26.0824 28.9472 25.5525 29.1667 25 29.1667C24.4475 29.1667 23.9176 28.9472 23.5269 28.5565C23.1362 28.1658 22.9167 27.6359 22.9167 27.0833C22.9167 26.5308 23.1362 26.0009 23.5269 25.6102C23.9176 25.2195 24.4475 25 25 25C25.5525 25 26.0824 25.2195 26.4731 25.6102C26.8638 26.0009 27.0833 26.5308 27.0833 27.0833ZM16.6667 35.4167C16.6667 35.9692 16.4472 36.4991 16.0565 36.8898C15.6658 37.2805 15.1359 37.5 14.5833 37.5C14.0308 37.5 13.5009 37.2805 13.1102 36.8898C12.7195 36.4991 12.5 35.9692 12.5 35.4167C12.5 34.8641 12.7195 34.3342 13.1102 33.9435C13.5009 33.5528 14.0308 33.3333 14.5833 33.3333C15.1359 33.3333 15.6658 33.5528 16.0565 33.9435C16.4472 34.3342 16.6667 34.8641 16.6667 35.4167ZM16.6667 27.0833C16.6667 27.6359 16.4472 28.1658 16.0565 28.5565C15.6658 28.9472 15.1359 29.1667 14.5833 29.1667C14.0308 29.1667 13.5009 28.9472 13.1102 28.5565C12.7195 28.1658 12.5 27.6359 12.5 27.0833C12.5 26.5308 12.7195 26.0009 13.1102 25.6102C13.5009 25.2195 14.0308 25 14.5833 25C15.1359 25 15.6658 25.2195 16.0565 25.6102C16.4472 26.0009 16.6667 26.5308 16.6667 27.0833Z" fill="white"/>
</svg>
