<svg width="12" height="12" viewBox="0 0 12 12" fill="none" xmlns="http://www.w3.org/2000/svg">
<path opacity="0.5" d="M11 5H1V9.5C1 9.89782 1.15804 10.2794 1.43934 10.5607C1.72064 10.842 2.10218 11 2.5 11H9.5C9.89782 11 10.2794 10.842 10.5607 10.5607C10.842 10.2794 11 9.89782 11 9.5V5ZM3.5 4C3.36739 4 3.24021 3.94732 3.14645 3.85355C3.05268 3.75979 3 3.63261 3 3.5V1.5C3 1.36739 3.05268 1.24021 3.14645 1.14645C3.24021 1.05268 3.36739 1 3.5 1C3.63261 1 3.75979 1.05268 3.85355 1.14645C3.94732 1.24021 4 1.36739 4 1.5V3.5C4 3.63261 3.94732 3.75979 3.85355 3.85355C3.75979 3.94732 3.63261 4 3.5 4ZM8.5 4C8.36739 4 8.24021 3.94732 8.14645 3.85355C8.05268 3.75979 8 3.63261 8 3.5V1.5C8 1.36739 8.05268 1.24021 8.14645 1.14645C8.24021 1.05268 8.36739 1 8.5 1C8.63261 1 8.75979 1.05268 8.85355 1.14645C8.94732 1.24021 9 1.36739 9 1.5V3.5C9 3.63261 8.94732 3.75979 8.85355 3.85355C8.75979 3.94732 8.63261 4 8.5 4Z" fill="#1E1E1E"/>
<path d="M9.5 2H9V3.5C9 3.63261 8.94732 3.75979 8.85355 3.85355C8.75979 3.94732 8.63261 4 8.5 4C8.36739 4 8.24021 3.94732 8.14645 3.85355C8.05268 3.75979 8 3.63261 8 3.5V2H4V3.5C4 3.63261 3.94732 3.75979 3.85355 3.85355C3.75979 3.94732 3.63261 4 3.5 4C3.36739 4 3.24021 3.94732 3.14645 3.85355C3.05268 3.75979 3 3.63261 3 3.5V2H2.5C2.10218 2 1.72064 2.15804 1.43934 2.43934C1.15804 2.72064 1 3.10218 1 3.5V5H11V3.5C11 3.10218 10.842 2.72064 10.5607 2.43934C10.2794 2.15804 9.89782 2 9.5 2Z" fill="#1E1E1E"/>
</svg>
