<svg width="14" height="13" viewBox="0 0 14 13" fill="none" xmlns="http://www.w3.org/2000/svg">
<g clip-path="url(#clip0_3179_1637)">
<mask id="mask0_3179_1637" style="mask-type:luminance" maskUnits="userSpaceOnUse" x="0" y="0" width="13" height="13">
<path d="M6.74998 11.9166C7.46145 11.9175 8.16608 11.7778 8.82338 11.5056C9.48068 11.2333 10.0777 10.8338 10.5801 10.33C11.0839 9.82763 11.4833 9.23062 11.7556 8.57332C12.0279 7.91601 12.1676 7.21138 12.1667 6.49992C12.1676 5.78846 12.0279 5.08384 11.7556 4.42654C11.4833 3.76924 11.0838 3.17222 10.5801 2.6698C10.0777 2.16606 9.48068 1.76657 8.82338 1.4943C8.16608 1.22202 7.46145 1.08233 6.74998 1.08326C6.03853 1.08235 5.3339 1.22205 4.6766 1.49432C4.0193 1.76659 3.42228 2.16607 2.91986 2.6698C2.41613 3.17222 2.01665 3.76924 1.74438 4.42654C1.47211 5.08384 1.33241 5.78846 1.33332 6.49992C1.3324 7.21138 1.47209 7.91601 1.74436 8.57332C2.01663 9.23062 2.41612 9.82763 2.91986 10.33C3.42228 10.8338 4.0193 11.2333 4.6766 11.5055C5.3339 11.7778 6.03853 11.9175 6.74998 11.9166Z" fill="white" stroke="white" stroke-width="0.833333" stroke-linejoin="round"/>
<path d="M4.58331 6.5L6.20831 8.125L9.45831 4.875" stroke="black" stroke-width="0.833333" stroke-linecap="round" stroke-linejoin="round"/>
</mask>
<g mask="url(#mask0_3179_1637)">
<path d="M0.25 0H13.25V13H0.25V0Z" fill="#383838"/>
</g>
</g>
<defs>
<clipPath id="clip0_3179_1637">
<rect width="13" height="13" fill="white" transform="translate(0.25)"/>
</clipPath>
</defs>
</svg>
