<svg width="44" height="44" viewBox="0 0 44 44" fill="none" xmlns="http://www.w3.org/2000/svg">
<rect width="44" height="44" rx="17" fill="#FF4646"/>
<path d="M15.824 13.632L22 19.808L28.144 13.664C28.2797 13.5195 28.4432 13.4039 28.6246 13.3242C28.8061 13.2445 29.0018 13.2022 29.2 13.2C29.6243 13.2 30.0313 13.3685 30.3313 13.6686C30.6314 13.9686 30.8 14.3756 30.8 14.8C30.8037 14.9961 30.7673 15.191 30.693 15.3726C30.6187 15.5542 30.5081 15.7186 30.368 15.856L24.144 22L30.368 28.224C30.6317 28.4819 30.7863 28.8313 30.8 29.2C30.8 29.6243 30.6314 30.0313 30.3313 30.3313C30.0313 30.6314 29.6243 30.8 29.2 30.8C28.9961 30.8084 28.7926 30.7744 28.6026 30.7C28.4125 30.6256 28.24 30.5126 28.096 30.368L22 24.192L15.84 30.352C15.7048 30.4916 15.5433 30.6031 15.3648 30.68C15.1863 30.7569 14.9943 30.7976 14.8 30.8C14.3756 30.8 13.9687 30.6314 13.6686 30.3313C13.3685 30.0313 13.2 29.6243 13.2 29.2C13.1962 29.0038 13.2326 28.8089 13.3069 28.6273C13.3812 28.4458 13.4918 28.2813 13.632 28.144L19.856 22L13.632 15.776C13.3683 15.518 13.2136 15.1686 13.2 14.8C13.2 14.3756 13.3685 13.9686 13.6686 13.6686C13.9687 13.3685 14.3756 13.2 14.8 13.2C15.184 13.2048 15.552 13.36 15.824 13.632Z" fill="white"/>
</svg>
