<svg width="23" height="24" viewBox="0 0 23 24" fill="none" xmlns="http://www.w3.org/2000/svg">
<path d="M9.44748 0.96593C9.95703 0.532762 10.604 0.294922 11.2728 0.294922C11.9416 0.294922 12.5886 0.532762 13.0981 0.96593L21.5527 8.15191C21.8639 8.41646 22.1139 8.74549 22.2853 9.11622C22.4568 9.48694 22.5456 9.8905 22.5456 10.2989V21.5371C22.5456 22.112 22.3172 22.6634 21.9107 23.07C21.5041 23.4765 20.9527 23.7049 20.3778 23.7049H16.9092C16.3343 23.7049 15.7829 23.4765 15.3763 23.07C14.9698 22.6634 14.7414 22.112 14.7414 21.5371V15.9007C14.7414 15.4421 14.5597 15.0021 14.2362 14.6771C13.9126 14.3521 13.4735 14.1685 13.0149 14.1664H9.52986C9.0714 14.1687 8.63251 14.3524 8.30914 14.6774C7.98577 15.0024 7.80424 15.4422 7.80425 15.9007V21.5371C7.80425 21.8218 7.74818 22.1037 7.63923 22.3667C7.53029 22.6297 7.37061 22.8687 7.1693 23.07C6.968 23.2713 6.72902 23.431 6.466 23.5399C6.20299 23.6488 5.92109 23.7049 5.6364 23.7049H2.16785C1.5929 23.7049 1.0415 23.4765 0.634948 23.07C0.228398 22.6634 0 22.112 0 21.5371V10.2989C2.28152e-05 9.8905 0.0888284 9.48694 0.260267 9.11622C0.431705 8.74549 0.681678 8.41646 0.992874 8.15191L9.44748 0.96593Z" fill="white"/>
</svg>
