<svg width="116" height="74" viewBox="0 0 116 74" fill="none" xmlns="http://www.w3.org/2000/svg">
<g filter="url(#filter0_d_24_273)">
<path fill-rule="evenodd" clip-rule="evenodd" d="M84.438 25.825H90.7919C103.746 25.825 114.247 36.3264 114.247 49.2806C114.247 62.2347 103.746 72.7362 90.7919 72.7362H23.9556C11.0014 72.7362 0.5 62.2347 0.5 49.2806C0.5 36.3264 11.0014 25.825 23.9556 25.825H31.9538C32.4763 11.4719 44.0254 0 58.1959 0C72.3664 0 83.9154 11.4719 84.438 25.825Z" fill="white"/>
<g filter="url(#filter1_d_24_273)">
<rect x="51.1835" y="20.8922" width="1.875" height="6.86842" rx="0.937501" fill="url(#paint0_linear_24_273)"/>
<rect x="56.4138" y="20.8923" width="1.875" height="6.86842" rx="0.937501" fill="url(#paint1_linear_24_273)"/>
<rect x="61.644" y="20.8923" width="1.875" height="6.86842" rx="0.937501" fill="url(#paint2_linear_24_273)"/>
<rect x="51.3769" y="45.0729" width="1.875" height="6.86842" rx="0.937501" fill="url(#paint3_linear_24_273)"/>
<rect x="56.6071" y="45.0731" width="1.875" height="6.86842" rx="0.937501" fill="url(#paint4_linear_24_273)"/>
<rect x="61.8374" y="45.0731" width="1.875" height="6.86842" rx="0.937501" fill="url(#paint5_linear_24_273)"/>
<rect x="66.1757" y="42.5132" width="1.875" height="6.86842" rx="0.937501" transform="rotate(-90 66.1757 42.5132)" fill="url(#paint6_linear_24_273)"/>
<rect x="66.1756" y="37.2828" width="1.875" height="6.86842" rx="0.937501" transform="rotate(-90 66.1756 37.2828)" fill="url(#paint7_linear_24_273)"/>
<rect x="66.1756" y="32.0526" width="1.875" height="6.86842" rx="0.937501" transform="rotate(-90 66.1756 32.0526)" fill="url(#paint8_linear_24_273)"/>
<rect x="41.9946" y="42.5132" width="1.875" height="6.86842" rx="0.937501" transform="rotate(-90 41.9946 42.5132)" fill="url(#paint9_linear_24_273)"/>
<rect x="41.9947" y="37.2828" width="1.875" height="6.86842" rx="0.937501" transform="rotate(-90 41.9947 37.2828)" fill="url(#paint10_linear_24_273)"/>
<rect x="41.9947" y="32.0526" width="1.875" height="6.86842" rx="0.937501" transform="rotate(-90 41.9947 32.0526)" fill="url(#paint11_linear_24_273)"/>
<rect x="46.6076" y="25.3619" width="21.9192" height="22.0663" rx="4.8362" fill="url(#paint12_linear_24_273)"/>
<rect x="47.8948" y="26.5988" width="19.3448" height="19.4746" rx="4.8362" fill="url(#paint13_linear_24_273)"/>
<rect x="50.4097" y="29.1132" width="14.5086" height="14.606" rx="4.8362" fill="url(#paint14_linear_24_273)"/>
</g>
<g filter="url(#filter2_d_24_273)">
<path d="M88.945 9.19836C92.0734 6.19689 96.3172 4.35158 100.996 4.35158C105.675 4.35158 109.919 6.19689 113.047 9.19836C113.628 9.7515 114.544 9.73337 115.097 9.15756C115.65 8.58175 115.632 7.66136 115.056 7.10821C111.411 3.60348 106.455 1.44986 100.996 1.44986C95.5373 1.44986 90.5817 3.60348 86.9319 7.10368C86.3561 7.66136 86.338 8.57721 86.8911 9.15756C87.4442 9.7379 88.3646 9.75604 88.9404 9.19836H88.945ZM100.996 11.6059C103.571 11.6059 105.92 12.5625 107.715 14.1449C108.318 14.6754 109.234 14.6164 109.765 14.0179C110.295 13.4195 110.236 12.4991 109.638 11.9686C107.335 9.93739 104.306 8.70416 100.996 8.70416C97.6864 8.70416 94.6577 9.93739 92.359 11.9686C91.756 12.4991 91.7016 13.4149 92.2321 14.0179C92.7625 14.621 93.6784 14.6754 94.2814 14.1449C96.0723 12.5625 98.4209 11.6059 101.001 11.6059H100.996ZM103.898 18.8602C103.898 18.0906 103.592 17.3525 103.048 16.8084C102.504 16.2642 101.766 15.9585 100.996 15.9585C100.227 15.9585 99.4885 16.2642 98.9444 16.8084C98.4002 17.3525 98.0945 18.0906 98.0945 18.8602C98.0945 19.6298 98.4002 20.3678 98.9444 20.912C99.4885 21.4562 100.227 21.7619 100.996 21.7619C101.766 21.7619 102.504 21.4562 103.048 20.912C103.592 20.3678 103.898 19.6298 103.898 18.8602Z" fill="white"/>
</g>
<g filter="url(#filter3_d_24_273)">
<path fill-rule="evenodd" clip-rule="evenodd" d="M80.0072 62.6671C80.7498 62.3207 81.2645 61.5673 81.2645 60.6938C81.2645 59.4918 80.2902 58.5175 79.0882 58.5175C77.8863 58.5175 76.912 59.4918 76.912 60.6938C76.912 61.5674 77.4267 62.3207 78.1694 62.6672L78.1694 72.7357H80.0072V62.6671Z" fill="white"/>
</g>
<g filter="url(#filter4_d_24_273)">
<path fill-rule="evenodd" clip-rule="evenodd" d="M25.5514 62.6672C26.2942 62.3207 26.8089 61.5674 26.8089 60.6938C26.8089 59.4918 25.8345 58.5175 24.6326 58.5175C23.4307 58.5175 22.4563 59.4918 22.4563 60.6938C22.4563 61.5673 22.971 62.3207 23.7137 62.6671V72.7357H25.5514V62.6672Z" fill="white"/>
</g>
<g filter="url(#filter5_d_24_273)">
<path fill-rule="evenodd" clip-rule="evenodd" d="M85.7138 58.1209C86.4566 57.7745 86.9713 57.0211 86.9713 56.1475C86.9713 54.9456 85.9969 53.9713 84.795 53.9713C83.5931 53.9713 82.6187 54.9456 82.6187 56.1475C82.6187 57.0211 83.1334 57.7745 83.8761 58.1209V72.7353H85.7138V58.1209Z" fill="white"/>
</g>
<g filter="url(#filter6_d_24_273)">
<path fill-rule="evenodd" clip-rule="evenodd" d="M31.2582 58.1209C32.0009 57.7745 32.5156 57.0211 32.5156 56.1475C32.5156 54.9456 31.5413 53.9713 30.3393 53.9713C29.1374 53.9713 28.1631 54.9456 28.1631 56.1475C28.1631 57.0211 28.6778 57.7745 29.4204 58.1209V72.7353H31.2582V58.1209Z" fill="white"/>
</g>
<g filter="url(#filter7_d_24_273)">
<path fill-rule="evenodd" clip-rule="evenodd" d="M91.4207 65.5686C92.1633 65.2222 92.678 64.4689 92.678 63.5953C92.678 62.3934 91.7037 61.419 90.5017 61.419C89.2998 61.419 88.3254 62.3934 88.3254 63.5953C88.3254 64.4689 88.8402 65.2223 89.5829 65.5687V72.7358H91.4207V65.5686Z" fill="white"/>
</g>
<g filter="url(#filter8_d_24_273)">
<path fill-rule="evenodd" clip-rule="evenodd" d="M36.9649 65.5687C37.7076 65.2223 38.2224 64.4689 38.2224 63.5953C38.2224 62.3934 37.248 61.419 36.0461 61.419C34.8441 61.419 33.8698 62.3934 33.8698 63.5953C33.8698 64.4689 34.3845 65.2222 35.1271 65.5686V72.7358H36.9649V65.5687Z" fill="white"/>
</g>
<g filter="url(#filter9_d_24_273)">
<path d="M50.842 68.6962C50.4647 68.6962 50.1965 68.6417 50.0372 68.5327C49.8779 68.4154 49.7815 68.2687 49.748 68.0926C49.7145 67.9082 49.6977 67.7238 49.6977 67.5394V61.0386C49.6977 60.8541 49.7145 60.6739 49.748 60.4979C49.7815 60.3218 49.8779 60.1793 50.0372 60.0704C50.1965 59.953 50.4689 59.8943 50.8545 59.8943C51.2401 59.8943 51.5084 59.953 51.6593 60.0704C51.8186 60.1793 51.915 60.3218 51.9485 60.4979C51.982 60.6739 51.9988 60.8583 51.9988 61.0511V67.552C51.9988 67.7364 51.982 67.9166 51.9485 68.0926C51.915 68.2687 51.8186 68.4154 51.6593 68.5327C51.5 68.6417 51.2276 68.6962 50.842 68.6962ZM55.8749 68.8094C55.4892 68.8094 55.0995 68.7339 54.7055 68.583C54.3115 68.4238 53.9468 68.2016 53.6115 67.9166C53.2846 67.6232 53.0205 67.2753 52.8193 66.873C52.6265 66.4622 52.5301 66.0053 52.5301 65.5024C52.5301 65.0413 52.6182 64.6096 52.7942 64.2072C52.9702 63.8049 53.2091 63.4528 53.5109 63.151C53.8211 62.8409 54.1732 62.5978 54.5671 62.4217C54.9695 62.2457 55.397 62.1577 55.8497 62.1577C56.47 62.1577 57.0317 62.3085 57.5346 62.6103C58.0376 62.9037 58.44 63.3019 58.7418 63.8049C59.0435 64.3078 59.1944 64.8695 59.1944 65.4898C59.1944 66.0179 59.0938 66.4874 58.8926 66.8981C58.6915 67.3089 58.4274 67.6567 58.1005 67.9418C57.7735 68.2268 57.4131 68.4405 57.0191 68.583C56.6335 68.7339 56.2521 68.8094 55.8749 68.8094ZM55.8497 66.5083C55.9754 66.5083 56.118 66.479 56.2772 66.4203C56.4449 66.3532 56.5874 66.2443 56.7047 66.0934C56.8305 65.9425 56.8934 65.7371 56.8934 65.4772C56.8934 65.2677 56.8473 65.0874 56.755 64.9365C56.6712 64.7857 56.5497 64.6683 56.3904 64.5845C56.2311 64.5006 56.0467 64.4587 55.8371 64.4587C55.6527 64.4587 55.4851 64.5048 55.3342 64.597C55.1833 64.6809 55.0617 64.8024 54.9695 64.9617C54.8773 65.1126 54.8312 65.2886 54.8312 65.4898C54.8312 65.7413 54.8899 65.9425 55.0072 66.0934C55.1246 66.2443 55.2629 66.3532 55.4222 66.4203C55.5815 66.479 55.724 66.5083 55.8497 66.5083ZM64.7585 59.8817C64.9177 59.8817 65.0686 59.8943 65.2111 59.9195C65.3536 59.9446 65.471 60.0242 65.5632 60.1584C65.6638 60.2925 65.7141 60.523 65.7141 60.85C65.7141 61.1685 65.6638 61.399 65.5632 61.5415C65.471 61.6757 65.3495 61.7553 65.1986 61.7804C65.0561 61.8056 64.9052 61.8182 64.7459 61.8182H63.0107V67.5771C63.0107 67.7615 62.9939 67.9418 62.9604 68.1178C62.9268 68.2854 62.8304 68.4238 62.6712 68.5327C62.5203 68.6417 62.252 68.6962 61.8664 68.6962C61.4976 68.6962 61.2335 68.6417 61.0743 68.5327C60.915 68.4154 60.8186 68.2729 60.7851 68.1052C60.7599 67.9292 60.7473 67.749 60.7473 67.5645V61.8182H58.9995C58.8486 61.8182 58.6977 61.8056 58.5469 61.7804C58.4043 61.7469 58.2828 61.6631 58.1822 61.529C58.09 61.3948 58.0439 61.1643 58.0439 60.8374C58.0439 60.5188 58.09 60.2925 58.1822 60.1584C58.2828 60.0242 58.4085 59.9446 58.5594 59.9195C58.7103 59.8943 58.8612 59.8817 59.0121 59.8817H64.7585Z" fill="url(#paint15_linear_24_273)" shape-rendering="crispEdges"/>
</g>
</g>
<defs>
<filter id="filter0_d_24_273" x="0.113104" y="0" width="115.774" height="73.5099" filterUnits="userSpaceOnUse" color-interpolation-filters="sRGB">
<feFlood flood-opacity="0" result="BackgroundImageFix"/>
<feColorMatrix in="SourceAlpha" type="matrix" values="0 0 0 0 0 0 0 0 0 0 0 0 0 0 0 0 0 0 127 0" result="hardAlpha"/>
<feOffset dy="0.386896"/>
<feGaussianBlur stdDeviation="0.193448"/>
<feComposite in2="hardAlpha" operator="out"/>
<feColorMatrix type="matrix" values="0 0 0 0 0 0 0 0 0 0 0 0 0 0 0 0 0 0 0.25 0"/>
<feBlend mode="normal" in2="BackgroundImageFix" result="effect1_dropShadow_24_273"/>
<feBlend mode="normal" in="SourceGraphic" in2="effect1_dropShadow_24_273" result="shape"/>
</filter>
<filter id="filter1_d_24_273" x="41.6077" y="20.8922" width="31.8233" height="31.8231" filterUnits="userSpaceOnUse" color-interpolation-filters="sRGB">
<feFlood flood-opacity="0" result="BackgroundImageFix"/>
<feColorMatrix in="SourceAlpha" type="matrix" values="0 0 0 0 0 0 0 0 0 0 0 0 0 0 0 0 0 0 127 0" result="hardAlpha"/>
<feOffset dy="0.386896"/>
<feGaussianBlur stdDeviation="0.193448"/>
<feComposite in2="hardAlpha" operator="out"/>
<feColorMatrix type="matrix" values="0 0 0 0 0 0 0 0 0 0 0 0 0 0 0 0 0 0 0.25 0"/>
<feBlend mode="normal" in2="BackgroundImageFix" result="effect1_dropShadow_24_273"/>
<feBlend mode="normal" in="SourceGraphic" in2="effect1_dropShadow_24_273" result="shape"/>
</filter>
<filter id="filter2_d_24_273" x="86.101" y="1.44986" width="29.7859" height="21.0858" filterUnits="userSpaceOnUse" color-interpolation-filters="sRGB">
<feFlood flood-opacity="0" result="BackgroundImageFix"/>
<feColorMatrix in="SourceAlpha" type="matrix" values="0 0 0 0 0 0 0 0 0 0 0 0 0 0 0 0 0 0 127 0" result="hardAlpha"/>
<feOffset dy="0.386896"/>
<feGaussianBlur stdDeviation="0.193448"/>
<feComposite in2="hardAlpha" operator="out"/>
<feColorMatrix type="matrix" values="0 0 0 0 0 0 0 0 0 0 0 0 0 0 0 0 0 0 0.25 0"/>
<feBlend mode="normal" in2="BackgroundImageFix" result="effect1_dropShadow_24_273"/>
<feBlend mode="normal" in="SourceGraphic" in2="effect1_dropShadow_24_273" result="shape"/>
</filter>
<filter id="filter3_d_24_273" x="76.5251" y="58.1306" width="5.12636" height="14.992" filterUnits="userSpaceOnUse" color-interpolation-filters="sRGB">
<feFlood flood-opacity="0" result="BackgroundImageFix"/>
<feColorMatrix in="SourceAlpha" type="matrix" values="0 0 0 0 0 0 0 0 0 0 0 0 0 0 0 0 0 0 127 0" result="hardAlpha"/>
<feOffset/>
<feGaussianBlur stdDeviation="0.193448"/>
<feComposite in2="hardAlpha" operator="out"/>
<feColorMatrix type="matrix" values="0 0 0 0 0 0 0 0 0 0 0 0 0 0 0 0 0 0 0.25 0"/>
<feBlend mode="normal" in2="BackgroundImageFix" result="effect1_dropShadow_24_273"/>
<feBlend mode="normal" in="SourceGraphic" in2="effect1_dropShadow_24_273" result="shape"/>
</filter>
<filter id="filter4_d_24_273" x="22.0694" y="58.1306" width="5.12636" height="14.992" filterUnits="userSpaceOnUse" color-interpolation-filters="sRGB">
<feFlood flood-opacity="0" result="BackgroundImageFix"/>
<feColorMatrix in="SourceAlpha" type="matrix" values="0 0 0 0 0 0 0 0 0 0 0 0 0 0 0 0 0 0 127 0" result="hardAlpha"/>
<feOffset/>
<feGaussianBlur stdDeviation="0.193448"/>
<feComposite in2="hardAlpha" operator="out"/>
<feColorMatrix type="matrix" values="0 0 0 0 0 0 0 0 0 0 0 0 0 0 0 0 0 0 0.25 0"/>
<feBlend mode="normal" in2="BackgroundImageFix" result="effect1_dropShadow_24_273"/>
<feBlend mode="normal" in="SourceGraphic" in2="effect1_dropShadow_24_273" result="shape"/>
</filter>
<filter id="filter5_d_24_273" x="82.2318" y="53.5844" width="5.12636" height="19.5378" filterUnits="userSpaceOnUse" color-interpolation-filters="sRGB">
<feFlood flood-opacity="0" result="BackgroundImageFix"/>
<feColorMatrix in="SourceAlpha" type="matrix" values="0 0 0 0 0 0 0 0 0 0 0 0 0 0 0 0 0 0 127 0" result="hardAlpha"/>
<feOffset/>
<feGaussianBlur stdDeviation="0.193448"/>
<feComposite in2="hardAlpha" operator="out"/>
<feColorMatrix type="matrix" values="0 0 0 0 0 0 0 0 0 0 0 0 0 0 0 0 0 0 0.25 0"/>
<feBlend mode="normal" in2="BackgroundImageFix" result="effect1_dropShadow_24_273"/>
<feBlend mode="normal" in="SourceGraphic" in2="effect1_dropShadow_24_273" result="shape"/>
</filter>
<filter id="filter6_d_24_273" x="27.7762" y="53.5844" width="5.12636" height="19.5378" filterUnits="userSpaceOnUse" color-interpolation-filters="sRGB">
<feFlood flood-opacity="0" result="BackgroundImageFix"/>
<feColorMatrix in="SourceAlpha" type="matrix" values="0 0 0 0 0 0 0 0 0 0 0 0 0 0 0 0 0 0 127 0" result="hardAlpha"/>
<feOffset/>
<feGaussianBlur stdDeviation="0.193448"/>
<feComposite in2="hardAlpha" operator="out"/>
<feColorMatrix type="matrix" values="0 0 0 0 0 0 0 0 0 0 0 0 0 0 0 0 0 0 0.25 0"/>
<feBlend mode="normal" in2="BackgroundImageFix" result="effect1_dropShadow_24_273"/>
<feBlend mode="normal" in="SourceGraphic" in2="effect1_dropShadow_24_273" result="shape"/>
</filter>
<filter id="filter7_d_24_273" x="87.9385" y="61.0321" width="5.12636" height="12.0906" filterUnits="userSpaceOnUse" color-interpolation-filters="sRGB">
<feFlood flood-opacity="0" result="BackgroundImageFix"/>
<feColorMatrix in="SourceAlpha" type="matrix" values="0 0 0 0 0 0 0 0 0 0 0 0 0 0 0 0 0 0 127 0" result="hardAlpha"/>
<feOffset/>
<feGaussianBlur stdDeviation="0.193448"/>
<feComposite in2="hardAlpha" operator="out"/>
<feColorMatrix type="matrix" values="0 0 0 0 0 0 0 0 0 0 0 0 0 0 0 0 0 0 0.25 0"/>
<feBlend mode="normal" in2="BackgroundImageFix" result="effect1_dropShadow_24_273"/>
<feBlend mode="normal" in="SourceGraphic" in2="effect1_dropShadow_24_273" result="shape"/>
</filter>
<filter id="filter8_d_24_273" x="33.4829" y="61.0321" width="5.12636" height="12.0906" filterUnits="userSpaceOnUse" color-interpolation-filters="sRGB">
<feFlood flood-opacity="0" result="BackgroundImageFix"/>
<feColorMatrix in="SourceAlpha" type="matrix" values="0 0 0 0 0 0 0 0 0 0 0 0 0 0 0 0 0 0 127 0" result="hardAlpha"/>
<feOffset/>
<feGaussianBlur stdDeviation="0.193448"/>
<feComposite in2="hardAlpha" operator="out"/>
<feColorMatrix type="matrix" values="0 0 0 0 0 0 0 0 0 0 0 0 0 0 0 0 0 0 0.25 0"/>
<feBlend mode="normal" in2="BackgroundImageFix" result="effect1_dropShadow_24_273"/>
<feBlend mode="normal" in="SourceGraphic" in2="effect1_dropShadow_24_273" result="shape"/>
</filter>
<filter id="filter9_d_24_273" x="49.3108" y="59.8817" width="16.7902" height="9.7014" filterUnits="userSpaceOnUse" color-interpolation-filters="sRGB">
<feFlood flood-opacity="0" result="BackgroundImageFix"/>
<feColorMatrix in="SourceAlpha" type="matrix" values="0 0 0 0 0 0 0 0 0 0 0 0 0 0 0 0 0 0 127 0" result="hardAlpha"/>
<feOffset dy="0.386896"/>
<feGaussianBlur stdDeviation="0.193448"/>
<feComposite in2="hardAlpha" operator="out"/>
<feColorMatrix type="matrix" values="0 0 0 0 0 0 0 0 0 0 0 0 0 0 0 0 0 0 0.25 0"/>
<feBlend mode="normal" in2="BackgroundImageFix" result="effect1_dropShadow_24_273"/>
<feBlend mode="normal" in="SourceGraphic" in2="effect1_dropShadow_24_273" result="shape"/>
</filter>
<linearGradient id="paint0_linear_24_273" x1="52.121" y1="20.8922" x2="52.121" y2="27.7606" gradientUnits="userSpaceOnUse">
<stop stop-color="white" stop-opacity="0.49"/>
<stop offset="1" stop-color="white" stop-opacity="0"/>
</linearGradient>
<linearGradient id="paint1_linear_24_273" x1="57.3513" y1="20.8923" x2="57.3513" y2="27.7608" gradientUnits="userSpaceOnUse">
<stop stop-color="white" stop-opacity="0.49"/>
<stop offset="1" stop-color="white" stop-opacity="0"/>
</linearGradient>
<linearGradient id="paint2_linear_24_273" x1="62.5815" y1="20.8923" x2="62.5815" y2="27.7608" gradientUnits="userSpaceOnUse">
<stop stop-color="white" stop-opacity="0.49"/>
<stop offset="1" stop-color="white" stop-opacity="0"/>
</linearGradient>
<linearGradient id="paint3_linear_24_273" x1="52.3144" y1="45.0729" x2="52.3144" y2="51.9414" gradientUnits="userSpaceOnUse">
<stop stop-color="white" stop-opacity="0.49"/>
<stop offset="1" stop-color="white" stop-opacity="0"/>
</linearGradient>
<linearGradient id="paint4_linear_24_273" x1="57.5446" y1="45.0731" x2="57.5446" y2="51.9415" gradientUnits="userSpaceOnUse">
<stop stop-color="white" stop-opacity="0.49"/>
<stop offset="1" stop-color="white" stop-opacity="0"/>
</linearGradient>
<linearGradient id="paint5_linear_24_273" x1="62.7749" y1="45.0731" x2="62.7749" y2="51.9415" gradientUnits="userSpaceOnUse">
<stop stop-color="white" stop-opacity="0.49"/>
<stop offset="1" stop-color="white" stop-opacity="0"/>
</linearGradient>
<linearGradient id="paint6_linear_24_273" x1="67.1132" y1="42.5132" x2="67.1132" y2="49.3817" gradientUnits="userSpaceOnUse">
<stop stop-color="white" stop-opacity="0.49"/>
<stop offset="1" stop-color="white" stop-opacity="0"/>
</linearGradient>
<linearGradient id="paint7_linear_24_273" x1="67.1131" y1="37.2828" x2="67.1131" y2="44.1513" gradientUnits="userSpaceOnUse">
<stop stop-color="white" stop-opacity="0.49"/>
<stop offset="1" stop-color="white" stop-opacity="0"/>
</linearGradient>
<linearGradient id="paint8_linear_24_273" x1="67.1131" y1="32.0526" x2="67.1131" y2="38.921" gradientUnits="userSpaceOnUse">
<stop stop-color="white" stop-opacity="0.49"/>
<stop offset="1" stop-color="white" stop-opacity="0"/>
</linearGradient>
<linearGradient id="paint9_linear_24_273" x1="42.9321" y1="42.5132" x2="42.9321" y2="49.3817" gradientUnits="userSpaceOnUse">
<stop stop-color="white" stop-opacity="0.49"/>
<stop offset="1" stop-color="white" stop-opacity="0"/>
</linearGradient>
<linearGradient id="paint10_linear_24_273" x1="42.9322" y1="37.2828" x2="42.9322" y2="44.1513" gradientUnits="userSpaceOnUse">
<stop stop-color="white" stop-opacity="0.49"/>
<stop offset="1" stop-color="white" stop-opacity="0"/>
</linearGradient>
<linearGradient id="paint11_linear_24_273" x1="42.9322" y1="32.0526" x2="42.9322" y2="38.921" gradientUnits="userSpaceOnUse">
<stop stop-color="white" stop-opacity="0.49"/>
<stop offset="1" stop-color="white" stop-opacity="0"/>
</linearGradient>
<linearGradient id="paint12_linear_24_273" x1="57.5672" y1="25.3619" x2="57.5672" y2="47.4282" gradientUnits="userSpaceOnUse">
<stop stop-color="white" stop-opacity="0.49"/>
<stop offset="1" stop-color="white" stop-opacity="0"/>
</linearGradient>
<linearGradient id="paint13_linear_24_273" x1="57.5672" y1="26.5988" x2="57.5672" y2="46.0735" gradientUnits="userSpaceOnUse">
<stop stop-color="white" stop-opacity="0.49"/>
<stop offset="1" stop-color="white" stop-opacity="0"/>
</linearGradient>
<linearGradient id="paint14_linear_24_273" x1="57.664" y1="29.1132" x2="57.664" y2="43.7192" gradientUnits="userSpaceOnUse">
<stop stop-color="white" stop-opacity="0.49"/>
<stop offset="1" stop-color="white" stop-opacity="0"/>
</linearGradient>
<linearGradient id="paint15_linear_24_273" x1="57.6512" y1="56.583" x2="57.6512" y2="71.9164" gradientUnits="userSpaceOnUse">
<stop stop-color="white" stop-opacity="0.49"/>
<stop offset="1" stop-color="white" stop-opacity="0"/>
</linearGradient>
</defs>
</svg>
