<svg width="26" height="42" viewBox="0 0 26 42" fill="none" xmlns="http://www.w3.org/2000/svg">
<path fill-rule="evenodd" clip-rule="evenodd" d="M1.27999 23.9666C0.46069 23.1463 0.000499725 22.0343 0.000499725 20.8749C0.000499725 19.7156 0.46069 18.6036 1.27999 17.7833L17.7767 1.28077C18.5974 0.460419 19.7104 -0.000293732 20.8708 -1.90735e-05C22.0312 0.000255585 23.144 0.461491 23.9644 1.28223C24.7847 2.10296 25.2454 3.21596 25.2451 4.37638C25.2449 5.5368 24.7836 6.64959 23.9629 7.46993L10.5579 20.8749L23.9629 34.2799C24.7602 35.1047 25.2017 36.2096 25.1923 37.3567C25.1829 38.5039 24.7233 39.6014 23.9125 40.4129C23.1017 41.2245 22.0046 41.6851 20.8575 41.6956C19.7104 41.7061 18.6051 41.2657 17.7796 40.4691L1.27706 23.9695L1.27999 23.9666Z" fill="white"/>
</svg>
