<svg width="15" height="15" viewBox="0 0 15 15" fill="none" xmlns="http://www.w3.org/2000/svg">
<path d="M8.75233 14.5271C10.6406 12.8818 14 9.52029 14 6.43553C14 4.72872 13.3152 3.09182 12.0962 1.88492C10.8772 0.678026 9.22391 0 7.5 0C5.77609 0 4.12279 0.678026 2.90381 1.88492C1.68482 3.09182 1 4.72872 1 6.43553C1 9.52029 4.35833 12.8818 6.24767 14.5271C6.59229 14.8317 7.03807 15 7.5 15C7.96193 15 8.40771 14.8317 8.75233 14.5271ZM5.33333 6.43553C5.33333 5.86659 5.56161 5.32096 5.96794 4.91866C6.37426 4.51636 6.92536 4.29035 7.5 4.29035C8.07464 4.29035 8.62574 4.51636 9.03206 4.91866C9.43839 5.32096 9.66667 5.86659 9.66667 6.43553C9.66667 7.00446 9.43839 7.55009 9.03206 7.95239C8.62574 8.35469 8.07464 8.5807 7.5 8.5807C6.92536 8.5807 6.37426 8.35469 5.96794 7.95239C5.56161 7.55009 5.33333 7.00446 5.33333 6.43553Z" fill="#2D8CFE"/>
</svg>
