<svg width="92" height="72" viewBox="0 0 92 72" fill="none" xmlns="http://www.w3.org/2000/svg">
<g filter="url(#filter0_d_24_323)">
<path d="M34.9773 38.5178C34.2497 38.5185 38.8492 38.8289 38.1468 38.6891C36.0385 38.2456 36.4361 35.8923 35.3508 34.4872C34.2655 33.082 36.243 34.3868 36.8008 32.8228L35.8876 23.0389L31.7432 21.7473C32.0183 20.9617 29.6149 19.6835 30.2802 19.0373C30.9455 18.3912 31.7785 17.8492 32.7307 17.4429C33.6607 17.0455 34.6885 16.7882 35.7543 16.6859C36.8201 16.5836 37.9029 16.6383 38.9398 16.8469C40.0395 17.0702 41.0645 17.4591 41.9503 17.989C42.8361 18.519 43.5635 19.1786 44.0867 19.9262H47.9768C48.4952 19.1737 49.2207 18.5092 50.1069 17.9752C50.9931 17.4412 52.0206 17.0494 53.1237 16.8248C54.1606 16.6162 55.2434 16.5615 56.3092 16.6638C57.375 16.7661 58.4028 17.0234 59.3328 17.4208C60.2844 17.8276 61.117 18.3697 61.7822 19.0158C62.4475 19.6619 62.9321 20.399 63.2079 21.1844L66.694 30.9632C67.2601 32.5317 66.967 34.2016 65.878 35.6121C64.789 37.0226 62.9915 38.0604 60.8739 38.5014C59.8369 38.71 58.7542 38.7647 57.6884 38.6624C56.6225 38.5601 55.5948 38.3028 54.6647 37.9054C53.7126 37.4992 52.8796 36.9571 52.2143 36.311C51.549 35.6648 51.0647 34.9275 50.7896 34.1418L50.5203 33.1706H41.5432L41.1991 34.1198C40.924 34.9054 40.4397 35.6428 39.7744 36.2889C39.1091 36.9351 38.2761 37.4771 37.3239 37.8834C36.1083 38.4006 36.3806 38.5068 34.9773 38.5178ZM36.8003 18.8225C35.8975 18.8253 35.011 19.0002 34.2268 19.3302C33.6174 19.5926 33.0843 19.9412 32.6581 20.356C32.2319 20.7708 31.9209 21.2436 31.7432 21.7473L35.8876 23.0389L36.8008 32.8228C36.436 33.8279 35.0488 33.7895 35.7426 34.6955C36.4364 35.6015 37.5844 36.2706 38.9398 36.5589C39.5944 36.6906 33.9305 36.6233 34.6033 36.5589C35.2762 36.4945 35.3003 36.2246 35.8876 35.974C36.4975 35.7121 37.0311 35.3636 37.4573 34.9488C37.8836 34.5339 38.1943 34.0608 38.3713 33.5569L39.2989 30.9632H52.7646L53.6772 33.5569C54.0393 34.5731 54.9323 35.4422 56.1609 35.974C56.7511 36.2243 57.4025 36.3863 58.0777 36.4507C58.7529 36.5151 59.4388 36.4806 60.0959 36.3492C61.4529 36.0636 62.6023 35.3944 63.2943 34.4872C63.9862 33.5799 64.1649 32.5079 63.7915 31.504L60.3053 21.7473C60.1332 21.2433 59.8261 20.7698 59.4021 20.3547C58.9782 19.9396 58.4459 19.5913 57.8366 19.3302C57.2464 19.0798 56.595 18.9178 55.9198 18.8534C55.2446 18.7891 54.5588 18.8235 53.9017 18.9549C53.089 19.1258 52.3434 19.4373 51.7266 19.8634C51.1099 20.2896 50.6399 20.8181 50.3557 21.4052L49.9966 22.1336H42.0668L41.7078 21.4052C41.421 20.8173 40.9484 20.2884 40.3291 19.8623C39.7098 19.4362 38.9617 19.1251 38.1468 18.9549C37.7077 18.8679 37.255 18.8233 36.8003 18.8225Z" fill="white"/>
<path d="M11 9.13563C11 6.71271 12.0536 4.38903 13.9289 2.67576C15.8043 0.962502 18.3478 0 21 0H74.3333C76.9855 0 79.529 0.962502 81.4044 2.67576C83.2798 4.38903 84.3333 6.71271 84.3333 9.13563V39.5877C84.3333 42.0107 83.2798 44.3343 81.4044 46.0476C79.529 47.7609 76.9855 48.7234 74.3333 48.7234H47.6667V42.6329H74.3333C75.2174 42.6329 76.0652 42.3121 76.6904 41.741C77.3155 41.1699 77.6667 40.3954 77.6667 39.5877V9.13563C77.6667 8.32799 77.3155 7.55343 76.6904 6.98234C76.0652 6.41126 75.2174 6.09042 74.3333 6.09042H21C20.1159 6.09042 19.2681 6.41126 18.643 6.98234C18.0179 7.55343 17.6667 8.32799 17.6667 9.13563H14.3333C13.1778 9.13563 12.0667 9.26353 11 9.51933V9.13563ZM87.6667 60.9042H47.6667V54.8138H87.6667C88.5507 54.8138 89.3986 55.1346 90.0237 55.7057C90.6488 56.2768 91 57.0514 91 57.859C91 58.6666 90.6488 59.4412 90.0237 60.0123C89.3986 60.5834 88.5507 60.9042 87.6667 60.9042ZM21 60.9042C21.8841 60.9042 22.7319 60.5834 23.357 60.0123C23.9821 59.4412 24.3333 58.6666 24.3333 57.859C24.3333 57.0514 23.9821 56.2768 23.357 55.7057C22.7319 55.1346 21.8841 54.8138 21 54.8138C20.1159 54.8138 19.2681 55.1346 18.643 55.7057C18.0179 56.2768 17.6667 57.0514 17.6667 57.859C17.6667 58.6666 18.0179 59.4412 18.643 60.0123C19.2681 60.5834 20.1159 60.9042 21 60.9042ZM1 24.3617C1 21.9388 2.05357 19.6151 3.92893 17.9018C5.8043 16.1886 8.34784 15.2261 11 15.2261H31C33.6522 15.2261 36.1957 16.1886 38.0711 17.9018C39.9464 19.6151 41 21.9388 41 24.3617V60.9042C41 63.3271 39.9464 65.6508 38.0711 67.3641C36.1957 69.0773 33.6522 70.0398 31 70.0398H11C8.34784 70.0398 5.8043 69.0773 3.92893 67.3641C2.05357 65.6508 1 63.3271 1 60.9042V24.3617ZM11 21.3165C10.1159 21.3165 9.2681 21.6373 8.64298 22.2084C8.01786 22.7795 7.66667 23.554 7.66667 24.3617V60.9042C7.66667 61.7118 8.01786 62.4864 8.64298 63.0575C9.2681 63.6286 10.1159 63.9494 11 63.9494H31C31.8841 63.9494 32.7319 63.6286 33.357 63.0575C33.9821 62.4864 34.3333 61.7118 34.3333 60.9042V24.3617C34.3333 23.554 33.9821 22.7795 33.357 22.2084C32.7319 21.6373 31.8841 21.3165 31 21.3165H11Z" fill="white"/>
<path d="M54.9641 24.3824C55.7892 24.3824 56.4581 23.9008 56.4581 23.3067C56.4581 22.7126 55.7892 22.231 54.9641 22.231C54.139 22.231 53.4701 22.7126 53.4701 23.3067C53.4701 23.9008 54.139 24.3824 54.9641 24.3824Z" fill="white"/>
<path d="M54.9641 28.685C55.7892 28.685 56.4581 28.1766 56.4581 27.5495C56.4581 26.9224 55.7892 26.414 54.9641 26.414C54.139 26.414 53.4701 26.9224 53.4701 27.5495C53.4701 28.1766 54.139 28.685 54.9641 28.685Z" fill="white"/>
<path d="M51.9762 26.4145C52.8013 26.4145 53.4702 25.9596 53.4702 25.3986C53.4702 24.8375 52.8013 24.3826 51.9762 24.3826C51.1511 24.3826 50.4822 24.8375 50.4822 25.3986C50.4822 25.9596 51.1511 26.4145 51.9762 26.4145Z" fill="white"/>
<path d="M45.1633 27.2511C45.6584 27.2511 46.0598 26.9835 46.0598 26.6535C46.0598 26.3234 45.6584 26.0559 45.1633 26.0559C44.6683 26.0559 44.2669 26.3234 44.2669 26.6535C44.2669 26.9835 44.6683 27.2511 45.1633 27.2511Z" fill="white"/>
<path d="M58.0119 26.4145C58.8041 26.4145 59.4462 25.9596 59.4462 25.3986C59.4462 24.8375 58.8041 24.3826 58.0119 24.3826C57.2198 24.3826 56.5777 24.8375 56.5777 25.3986C56.5777 25.9596 57.2198 26.4145 58.0119 26.4145Z" fill="white"/>
<path d="M42.5936 15.8967L40.3227 14.5294C41.0331 13.9824 41.9067 13.5444 42.8855 13.2443C43.8644 12.9443 44.9261 12.7891 46 12.7891C47.074 12.7891 48.1356 12.9443 49.1145 13.2443C50.0933 13.5444 50.9669 13.9824 51.6773 14.5294L49.4064 15.8967C48.9802 15.5685 48.456 15.3057 47.8687 15.1257C47.2814 14.9456 46.6444 14.8525 46 14.8525C45.3556 14.8525 44.7186 14.9456 44.1313 15.1257C43.544 15.3057 43.0199 15.5685 42.5936 15.8967Z" fill="white"/>
<path d="M53.9481 13.2668C52.9536 12.4514 51.7306 11.7983 50.3602 11.351C48.9898 10.9037 47.5035 10.6723 45.9999 10.6723C44.4964 10.6723 43.01 10.9037 41.6397 11.351C40.2693 11.7983 39.0462 12.4514 38.0517 13.2668L35.7808 11.8217C37.0594 10.7733 38.6319 9.93367 40.3939 9.35853C42.1558 8.7834 44.0668 8.48595 45.9999 8.48595C47.933 8.48595 49.844 8.7834 51.606 9.35853C53.3679 9.93367 54.9404 10.7733 56.219 11.8217L53.9481 13.2668Z" fill="white"/>
<path d="M19.3765 38.7249L16.4631 36.3494H14.5209C14.2634 36.3494 14.0163 36.4328 13.8342 36.5813C13.6521 36.7298 13.5498 36.9312 13.5498 37.1412V40.3086C13.5498 40.5186 13.6521 40.72 13.8342 40.8685C14.0163 41.017 14.2634 41.1004 14.5209 41.1004H16.4631L19.3765 38.7249ZM23.261 38.7249L26.1743 36.3494H28.1165C28.3741 36.3494 28.6211 36.4328 28.8032 36.5813C28.9853 36.7298 29.0876 36.9312 29.0876 37.1412V40.3086C29.0876 40.5186 28.9853 40.72 28.8032 40.8685C28.6211 41.017 28.3741 41.1004 28.1165 41.1004H26.1743L23.261 38.7249ZM21.3187 40.3086L18.4054 42.6841V44.2677C18.4054 44.4777 18.5077 44.6791 18.6898 44.8276C18.8719 44.9761 19.1189 45.0596 19.3765 45.0596H23.261C23.5185 45.0596 23.7655 44.9761 23.9476 44.8276C24.1298 44.6791 24.2321 44.4777 24.2321 44.2677V42.6841L21.3187 40.3086ZM21.3187 37.1412L18.4054 34.7657V33.1821C18.4054 32.9721 18.5077 32.7707 18.6898 32.6222C18.8719 32.4737 19.1189 32.3902 19.3765 32.3902H23.261C23.5185 32.3902 23.7655 32.4737 23.9476 32.6222C24.1298 32.7707 24.2321 32.9721 24.2321 33.1821V34.7657L21.3187 37.1412Z" fill="white"/>
</g>
<defs>
<filter id="filter0_d_24_323" x="0.488055" y="0" width="91.0239" height="71.0637" filterUnits="userSpaceOnUse" color-interpolation-filters="sRGB">
<feFlood flood-opacity="0" result="BackgroundImageFix"/>
<feColorMatrix in="SourceAlpha" type="matrix" values="0 0 0 0 0 0 0 0 0 0 0 0 0 0 0 0 0 0 127 0" result="hardAlpha"/>
<feOffset dy="0.511945"/>
<feGaussianBlur stdDeviation="0.255973"/>
<feComposite in2="hardAlpha" operator="out"/>
<feColorMatrix type="matrix" values="0 0 0 0 0 0 0 0 0 0 0 0 0 0 0 0 0 0 0.25 0"/>
<feBlend mode="normal" in2="BackgroundImageFix" result="effect1_dropShadow_24_323"/>
<feBlend mode="normal" in="SourceGraphic" in2="effect1_dropShadow_24_323" result="shape"/>
</filter>
</defs>
</svg>
