<svg width="7" height="7" viewBox="0 0 7 7" fill="none" xmlns="http://www.w3.org/2000/svg">
<g clip-path="url(#clip0_1_1808)">
<path fill-rule="evenodd" clip-rule="evenodd" d="M1.94444 1.55556C1.94444 1.143 2.10833 0.747335 2.40006 0.455612C2.69178 0.163888 3.08744 0 3.5 0C3.91256 0 4.30822 0.163888 4.59994 0.455612C4.89167 0.747335 5.05556 1.143 5.05556 1.55556C5.05556 1.96811 4.89167 2.36378 4.59994 2.6555C4.30822 2.94722 3.91256 3.11111 3.5 3.11111C3.08744 3.11111 2.69178 2.94722 2.40006 2.6555C2.10833 2.36378 1.94444 1.96811 1.94444 1.55556ZM1.94444 3.88889C1.42875 3.88889 0.934169 4.09375 0.569515 4.4584C0.204861 4.82306 0 5.31763 0 5.83333C0 6.14275 0.122916 6.4395 0.341709 6.65829C0.560501 6.87708 0.857247 7 1.16667 7H5.83333C6.14275 7 6.4395 6.87708 6.65829 6.65829C6.87708 6.4395 7 6.14275 7 5.83333C7 5.31763 6.79514 4.82306 6.43049 4.4584C6.06583 4.09375 5.57125 3.88889 5.05556 3.88889H1.94444Z" fill="#1E1E1E"/>
</g>
<defs>
<clipPath id="clip0_1_1808">
<rect width="7" height="7" fill="white"/>
</clipPath>
</defs>
</svg>
