<svg width="24" height="24" viewBox="0 0 24 24" fill="none" xmlns="http://www.w3.org/2000/svg">
<rect width="24" height="24" rx="12" fill="white"/>
<path d="M10.62 17.644C10.236 17.644 9.95867 17.6013 9.788 17.516C9.61733 17.4413 9.51067 17.324 9.468 17.164C9.42533 17.004 9.404 16.8227 9.404 16.62C9.404 16.044 9.47867 15.4787 9.628 14.924C9.788 14.3693 9.99067 13.8413 10.236 13.34C10.492 12.828 10.764 12.3427 11.052 11.884C11.34 11.4253 11.612 11.0093 11.868 10.636C12.1347 10.252 12.3533 9.916 12.524 9.628C12.7053 9.32933 12.812 9.084 12.844 8.892H8.988C8.78533 8.892 8.588 8.87067 8.396 8.828C8.21467 8.78533 8.06533 8.67867 7.948 8.508C7.84133 8.33733 7.788 8.06 7.788 7.676C7.788 7.28133 7.84133 7.004 7.948 6.844C8.05467 6.67333 8.19333 6.572 8.364 6.54C8.53467 6.49733 8.716 6.476 8.908 6.476H14.54C14.9347 6.476 15.212 6.53467 15.372 6.652C15.5427 6.76933 15.644 6.924 15.676 7.116C15.7187 7.308 15.74 7.516 15.74 7.74C15.74 8.16667 15.644 8.62 15.452 9.1C15.2707 9.56933 15.0307 10.0547 14.732 10.556C14.444 11.0573 14.1293 11.564 13.788 12.076C13.4573 12.588 13.1427 13.1053 12.844 13.628C12.556 14.14 12.316 14.652 12.124 15.164C11.9427 15.6653 11.852 16.1613 11.852 16.652C11.852 16.844 11.8253 17.02 11.772 17.18C11.7293 17.3293 11.6227 17.4413 11.452 17.516C11.2813 17.6013 11.004 17.644 10.62 17.644Z" fill="#132777"/>
</svg>
