<svg width="24" height="24" viewBox="0 0 24 24" fill="none" xmlns="http://www.w3.org/2000/svg">
<path d="M11 5H21M11 9H16" stroke="white" stroke-width="2" stroke-linecap="round" stroke-linejoin="round"/>
<path d="M6 5H4C3.44772 5 3 5.44772 3 6V8C3 8.55228 3.44772 9 4 9H6C6.55228 9 7 8.55228 7 8V6C7 5.44772 6.55228 5 6 5Z" fill="white" stroke="white" stroke-width="2" stroke-linecap="round" stroke-linejoin="round"/>
<path d="M11 15H21M11 19H16" stroke="white" stroke-width="2" stroke-linecap="round" stroke-linejoin="round"/>
<path d="M6 15H4C3.44772 15 3 15.4477 3 16V18C3 18.5523 3.44772 19 4 19H6C6.55228 19 7 18.5523 7 18V16C7 15.4477 6.55228 15 6 15Z" fill="white" stroke="white" stroke-width="2" stroke-linecap="round" stroke-linejoin="round"/>
</svg>
