<svg width="12" height="12" viewBox="0 0 12 12" fill="none" xmlns="http://www.w3.org/2000/svg">
<path d="M7.50001 2.69995C7.50001 3.09778 7.34198 3.47931 7.06067 3.76061C6.77937 4.04192 6.39784 4.19995 6.00001 4.19995C5.60219 4.19995 5.22066 4.04192 4.93935 3.76061C4.65805 3.47931 4.50001 3.09778 4.50001 2.69995C4.50001 2.30213 4.65805 1.9206 4.93935 1.63929C5.22066 1.35799 5.60219 1.19995 6.00001 1.19995C6.39784 1.19995 6.77937 1.35799 7.06067 1.63929C7.34198 1.9206 7.50001 2.30213 7.50001 2.69995ZM10.5 2.99995C10.5 3.31821 10.3736 3.62344 10.1485 3.84848C9.9235 4.07352 9.61827 4.19995 9.30001 4.19995C8.98175 4.19995 8.67653 4.07352 8.45148 3.84848C8.22644 3.62344 8.10001 3.31821 8.10001 2.99995C8.10001 2.68169 8.22644 2.37647 8.45148 2.15142C8.67653 1.92638 8.98175 1.79995 9.30001 1.79995C9.61827 1.79995 9.9235 1.92638 10.1485 2.15142C10.3736 2.37647 10.5 2.68169 10.5 2.99995ZM2.70001 4.19995C3.01827 4.19995 3.3235 4.07352 3.54854 3.84848C3.77358 3.62344 3.90001 3.31821 3.90001 2.99995C3.90001 2.68169 3.77358 2.37647 3.54854 2.15142C3.3235 1.92638 3.01827 1.79995 2.70001 1.79995C2.38175 1.79995 2.07653 1.92638 1.85148 2.15142C1.62644 2.37647 1.50001 2.68169 1.50001 2.99995C1.50001 3.31821 1.62644 3.62344 1.85148 3.84848C2.07653 4.07352 2.38175 4.19995 2.70001 4.19995ZM3.60001 5.54995C3.60001 5.13595 3.93601 4.79995 4.35001 4.79995H7.65001C8.06401 4.79995 8.40001 5.13595 8.40001 5.54995V8.39995C8.40001 9.03647 8.14716 9.64692 7.69707 10.097C7.24698 10.5471 6.63653 10.8 6.00001 10.8C5.36349 10.8 4.75304 10.5471 4.30296 10.097C3.85287 9.64692 3.60001 9.03647 3.60001 8.39995V5.54995ZM3.00001 5.54995C3.00001 5.27215 3.08401 5.01475 3.22741 4.79995H1.95001C1.53601 4.79995 1.20001 5.13595 1.20001 5.54995V7.79995C1.19998 8.05682 1.25494 8.31073 1.36117 8.5446C1.46741 8.77847 1.62247 8.9869 1.81595 9.15587C2.00942 9.32485 2.23681 9.45045 2.48285 9.52425C2.72889 9.59806 2.98788 9.61834 3.24241 9.58375C3.08216 9.20968 2.99968 8.80691 3.00001 8.39995V5.54995ZM9.00001 8.39995C9.00001 8.81995 8.91361 9.22075 8.75761 9.58375C8.83681 9.59455 8.91761 9.59995 9.00001 9.59995C9.4774 9.59995 9.93524 9.41031 10.2728 9.07274C10.6104 8.73518 10.8 8.27734 10.8 7.79995V5.54995C10.8 5.13595 10.464 4.79995 10.05 4.79995H8.77261C8.91661 5.01475 9.00001 5.27215 9.00001 5.54995V8.39995Z" fill="#1E1E1E"/>
</svg>
