<svg width="24" height="24" viewBox="0 0 24 24" fill="none" xmlns="http://www.w3.org/2000/svg">
<rect width="24" height="24" rx="12" fill="white"/>
<path d="M11.56 17.804C10.9947 17.804 10.4613 17.708 9.96 17.516C9.45867 17.3347 9.016 17.084 8.632 16.764C8.248 16.444 7.944 16.0813 7.72 15.676C7.50667 15.26 7.39467 14.828 7.384 14.38C7.384 13.804 7.82667 13.516 8.712 13.516C8.968 13.516 9.16 13.5427 9.288 13.596C9.42667 13.6387 9.53333 13.724 9.608 13.852C9.68267 13.9693 9.76267 14.14 9.848 14.364C9.88 14.4707 9.96 14.6093 10.088 14.78C10.216 14.9507 10.3973 15.1053 10.632 15.244C10.8773 15.372 11.192 15.436 11.576 15.436C11.9387 15.436 12.248 15.3827 12.504 15.276C12.7707 15.1587 12.9733 15.004 13.112 14.812C13.2613 14.6093 13.336 14.3853 13.336 14.14C13.336 13.8627 13.2667 13.628 13.128 13.436C12.9893 13.244 12.7973 13.1 12.552 13.004C12.3173 12.908 12.04 12.86 11.72 12.86C11.5067 12.86 11.304 12.844 11.112 12.812C10.92 12.78 10.7653 12.684 10.648 12.524C10.5307 12.364 10.472 12.0867 10.472 11.692C10.472 11.2973 10.5307 11.0253 10.648 10.876C10.7653 10.716 10.92 10.6253 11.112 10.604C11.304 10.572 11.512 10.556 11.736 10.556C12.024 10.556 12.264 10.524 12.456 10.46C12.648 10.396 12.792 10.3053 12.888 10.188C12.9947 10.06 13.048 9.90533 13.048 9.724C13.048 9.5 12.9893 9.308 12.872 9.148C12.7653 8.97733 12.6107 8.84933 12.408 8.764C12.216 8.67867 11.9867 8.636 11.72 8.636C11.432 8.636 11.192 8.67333 11 8.748C10.8187 8.812 10.664 8.908 10.536 9.036C10.4187 9.164 10.312 9.30267 10.216 9.452C10.0347 9.82533 9.80533 10.0493 9.528 10.124C9.26133 10.1987 8.93067 10.124 8.536 9.9C8.17333 9.676 7.96 9.44133 7.896 9.196C7.84267 8.95067 7.896 8.65733 8.056 8.316C8.07733 8.29467 8.12533 8.21467 8.2 8.076C8.27467 7.92667 8.392 7.756 8.552 7.564C8.72267 7.36133 8.94133 7.164 9.208 6.972C9.47467 6.78 9.8 6.62 10.184 6.492C10.5787 6.364 11.048 6.3 11.592 6.3C12.2213 6.3 12.776 6.40133 13.256 6.604C13.7467 6.796 14.1573 7.05733 14.488 7.388C14.8187 7.708 15.0693 8.06533 15.24 8.46C15.4107 8.85467 15.496 9.25467 15.496 9.66C15.496 10.044 15.4267 10.3747 15.288 10.652C15.16 10.9293 15 11.1587 14.808 11.34C14.616 11.5107 14.44 11.6333 14.28 11.708C14.44 11.7827 14.6053 11.8947 14.776 12.044C14.9573 12.1933 15.1173 12.3747 15.256 12.588C15.4053 12.7907 15.528 13.02 15.624 13.276C15.72 13.532 15.768 13.8093 15.768 14.108C15.768 14.812 15.5867 15.4413 15.224 15.996C14.8613 16.5507 14.3653 16.9933 13.736 17.324C13.1067 17.644 12.3813 17.804 11.56 17.804Z" fill="#132777"/>
</svg>
