<svg width="84" height="89" viewBox="0 0 84 89" fill="none" xmlns="http://www.w3.org/2000/svg">
<g filter="url(#filter0_d_24_404)">
<rect x="19.3854" y="2.75726" width="47.2665" height="75.2325" rx="6.20373" fill="url(#paint0_linear_24_404)"/>
<mask id="path-2-inside-1_24_404" fill="white">
<path fill-rule="evenodd" clip-rule="evenodd" d="M57.7837 3.15143H62.6147C64.3006 3.15143 65.6673 4.51814 65.6673 6.20406V74.7963C65.6673 76.4822 64.3006 77.8489 62.6147 77.8489H23.3244C21.6385 77.8489 20.2718 76.4822 20.2718 74.7963V6.20406C20.2718 4.51814 21.6385 3.15143 23.3244 3.15143H28.2538C28.3404 4.39345 29.3754 5.37413 30.6394 5.37413H55.3981C56.6621 5.37413 57.6971 4.39345 57.7837 3.15143ZM17.1207 6.20406C17.1207 2.77783 19.8982 0.000335693 23.3244 0.000335693H62.6147C66.0409 0.000335693 68.8184 2.77784 68.8184 6.20406V74.7963C68.8184 78.2225 66.0409 81 62.6147 81H23.3244C19.8982 81 17.1207 78.2225 17.1207 74.7963V6.20406Z"/>
</mask>
<path fill-rule="evenodd" clip-rule="evenodd" d="M57.7837 3.15143H62.6147C64.3006 3.15143 65.6673 4.51814 65.6673 6.20406V74.7963C65.6673 76.4822 64.3006 77.8489 62.6147 77.8489H23.3244C21.6385 77.8489 20.2718 76.4822 20.2718 74.7963V6.20406C20.2718 4.51814 21.6385 3.15143 23.3244 3.15143H28.2538C28.3404 4.39345 29.3754 5.37413 30.6394 5.37413H55.3981C56.6621 5.37413 57.6971 4.39345 57.7837 3.15143ZM17.1207 6.20406C17.1207 2.77783 19.8982 0.000335693 23.3244 0.000335693H62.6147C66.0409 0.000335693 68.8184 2.77784 68.8184 6.20406V74.7963C68.8184 78.2225 66.0409 81 62.6147 81H23.3244C19.8982 81 17.1207 78.2225 17.1207 74.7963V6.20406Z" fill="white"/>
<path d="M57.7837 3.15143V2.65908H57.3244L57.2925 3.11719L57.7837 3.15143ZM28.2538 3.15143L28.745 3.11719L28.7131 2.65908H28.2538V3.15143ZM62.6147 2.65908H57.7837V3.64379H62.6147V2.65908ZM66.1596 6.20406C66.1596 4.24622 64.5725 2.65908 62.6147 2.65908V3.64379C64.0287 3.64379 65.1749 4.79006 65.1749 6.20406H66.1596ZM66.1596 74.7963V6.20406H65.1749V74.7963H66.1596ZM62.6147 78.3413C64.5725 78.3413 66.1596 76.7541 66.1596 74.7963H65.1749C65.1749 76.2103 64.0287 77.3565 62.6147 77.3565V78.3413ZM23.3244 78.3413H62.6147V77.3565H23.3244V78.3413ZM19.7794 74.7963C19.7794 76.7541 21.3665 78.3413 23.3244 78.3413V77.3565C21.9104 77.3565 20.7641 76.2103 20.7641 74.7963H19.7794ZM19.7794 6.20406V74.7963H20.7641V6.20406H19.7794ZM23.3244 2.65908C21.3665 2.65908 19.7794 4.24622 19.7794 6.20406H20.7641C20.7641 4.79006 21.9104 3.64379 23.3244 3.64379V2.65908ZM28.2538 2.65908H23.3244V3.64379H28.2538V2.65908ZM30.6394 4.88178C29.6359 4.88178 28.8137 4.10302 28.745 3.11719L27.7627 3.18568C27.8671 4.68389 29.115 5.86649 30.6394 5.86649V4.88178ZM55.3981 4.88178H30.6394V5.86649H55.3981V4.88178ZM57.2925 3.11719C57.2238 4.10302 56.4017 4.88178 55.3981 4.88178V5.86649C56.9226 5.86649 58.1704 4.68389 58.2748 3.18568L57.2925 3.11719ZM23.3244 -0.492024C19.6262 -0.492024 16.6283 2.50591 16.6283 6.20406H17.613C17.613 3.04976 20.1701 0.492695 23.3244 0.492695V-0.492024ZM62.6147 -0.492024H23.3244V0.492695H62.6147V-0.492024ZM69.3107 6.20406C69.3107 2.50592 66.3128 -0.492024 62.6147 -0.492024V0.492695C65.769 0.492695 68.326 3.04976 68.326 6.20406H69.3107ZM69.3107 74.7963V6.20406H68.326V74.7963H69.3107ZM62.6147 81.4924C66.3128 81.4924 69.3107 78.4944 69.3107 74.7963H68.326C68.326 77.9506 65.769 80.5076 62.6147 80.5076V81.4924ZM23.3244 81.4924H62.6147V80.5076H23.3244V81.4924ZM16.6283 74.7963C16.6283 78.4944 19.6262 81.4924 23.3244 81.4924V80.5076C20.1701 80.5076 17.613 77.9506 17.613 74.7963H16.6283ZM16.6283 6.20406V74.7963H17.613V6.20406H16.6283Z" fill="url(#paint1_linear_24_404)" mask="url(#path-2-inside-1_24_404)"/>
<g filter="url(#filter1_d_24_404)">
<rect x="4.0238" y="14.6723" width="32.0033" height="15.5586" fill="white"/>
<rect x="4.26998" y="14.9185" width="31.511" height="15.0662" stroke="url(#paint2_linear_24_404)" stroke-width="0.492359"/>
</g>
<g filter="url(#filter2_d_24_404)">
<rect x="5.79626" y="19.8914" width="13.5891" height="0.787775" rx="0.393887" fill="url(#paint3_linear_24_404)" shape-rendering="crispEdges"/>
</g>
<g filter="url(#filter3_d_24_404)">
<rect x="5.79626" y="22.0577" width="21.8608" height="0.787775" rx="0.393887" fill="url(#paint4_linear_24_404)" shape-rendering="crispEdges"/>
</g>
<g filter="url(#filter4_d_24_404)">
<rect x="5.79626" y="24.2241" width="17.4295" height="0.787775" rx="0.393887" fill="url(#paint5_linear_24_404)" shape-rendering="crispEdges"/>
</g>
<g filter="url(#filter5_d_24_404)">
<rect x="21.8472" y="46.3802" width="20.7776" height="16.6417" rx="4.03735" fill="white"/>
<rect x="22.0933" y="46.6264" width="20.2852" height="16.1494" rx="3.79117" stroke="url(#paint6_linear_24_404)" stroke-width="0.492359" stroke-dasharray="0.98 0.98"/>
</g>
<g filter="url(#filter6_d_24_404)">
<rect x="46.7606" y="14.6723" width="14.8692" height="18.2173" fill="white"/>
<rect x="47.0067" y="14.9185" width="14.3769" height="17.7249" stroke="url(#paint7_linear_24_404)" stroke-width="0.492359"/>
</g>
<g filter="url(#filter7_d_24_404)">
<rect x="48.3361" y="50.9099" width="26.5874" height="17.2326" fill="white"/>
<rect x="48.5823" y="51.1561" width="26.095" height="16.7402" stroke="url(#paint8_linear_24_404)" stroke-width="0.492359"/>
</g>
<g filter="url(#filter8_d_24_404)">
<path d="M53.8649 20.5591C53.8457 20.513 53.8008 20.4822 53.7508 20.4822H53.5072C53.4572 20.4822 53.411 20.513 53.3931 20.5591L53.1277 21.222C53.0866 21.3246 52.9405 21.3246 52.8994 21.222L52.634 20.5591C52.6148 20.513 52.5699 20.4822 52.5199 20.4822H52.3981C52.0583 20.4822 51.7827 20.7578 51.7827 21.0976V23.3543V23.6415V23.7646H51.9057H56.5832H56.7062V23.6415V23.3543V21.0976C56.7062 20.7578 56.4306 20.4822 56.0908 20.4822H54.7381C54.6881 20.4822 54.6419 20.513 54.624 20.5591L54.3586 21.222C54.3175 21.3246 54.1714 21.3246 54.1303 21.222L53.8649 20.5591ZM51.7827 24.1749V24.5852C51.7827 25.0378 52.1506 25.4058 52.6033 25.4058H53.4239V26.2264C53.4239 26.679 53.7918 27.047 54.2444 27.047C54.6971 27.047 55.065 26.679 55.065 26.2264V25.4058H55.8856C56.3383 25.4058 56.7062 25.0378 56.7062 24.5852V24.1749H51.7827ZM54.2444 26.0212C54.2989 26.0212 54.351 26.0428 54.3895 26.0813C54.428 26.1198 54.4496 26.172 54.4496 26.2264C54.4496 26.2808 54.428 26.333 54.3895 26.3714C54.351 26.4099 54.2989 26.4315 54.2444 26.4315C54.19 26.4315 54.1379 26.4099 54.0994 26.3714C54.0609 26.333 54.0393 26.2808 54.0393 26.2264C54.0393 26.172 54.0609 26.1198 54.0994 26.0813C54.1379 26.0428 54.19 26.0212 54.2444 26.0212Z" fill="url(#paint9_linear_24_404)" shape-rendering="crispEdges"/>
</g>
<g filter="url(#filter9_d_24_404)">
<path d="M55.7712 61.8611C55.4519 61.8611 55.1704 61.7981 54.9267 61.6721C54.6872 61.5418 54.4855 61.3717 54.3217 61.1616C54.1578 60.9515 54.0339 60.7204 53.9498 60.4683C53.87 60.2162 53.8301 59.9663 53.8301 59.7184V57.9538C53.8301 57.8571 53.8385 57.7647 53.8553 57.6765C53.8721 57.5882 53.9204 57.5168 54.0002 57.4622C54.0801 57.4034 54.2166 57.374 54.4099 57.374C54.6032 57.374 54.7397 57.4034 54.8195 57.4622C54.8994 57.5168 54.9477 57.5882 54.9645 57.6765C54.9813 57.7647 54.9897 57.8592 54.9897 57.9601V59.7184C54.9897 59.857 55.0128 60.002 55.059 60.1532C55.1052 60.3045 55.1851 60.4347 55.2985 60.544C55.4161 60.649 55.58 60.7015 55.7901 60.7015C55.9497 60.7015 56.0884 60.6616 56.206 60.5818C56.3237 60.4977 56.414 60.3822 56.477 60.2352C56.5442 60.0839 56.5778 59.9095 56.5778 59.7121V57.9222C56.5778 57.8298 56.5862 57.7437 56.6031 57.6639C56.6241 57.5798 56.6745 57.5105 56.7543 57.4559C56.8341 57.4013 56.9686 57.374 57.1576 57.374C57.3509 57.374 57.4854 57.4034 57.561 57.4622C57.6408 57.521 57.6891 57.5945 57.7059 57.6828C57.7227 57.771 57.7311 57.8634 57.7311 57.9601V59.731C57.7311 59.9831 57.6891 60.2352 57.6051 60.4872C57.5211 60.7351 57.395 60.9641 57.227 61.1742C57.0631 61.3801 56.8593 61.546 56.6157 61.6721C56.372 61.7981 56.0905 61.8611 55.7712 61.8611ZM58.6563 61.7918C58.4673 61.7918 58.3328 61.7645 58.253 61.7099C58.1732 61.651 58.1249 61.5775 58.108 61.4893C58.0912 61.3969 58.0828 61.3044 58.0828 61.212V57.9538C58.0828 57.8613 58.0912 57.771 58.108 57.6828C58.1249 57.5945 58.1732 57.5231 58.253 57.4685C58.3328 57.4097 58.4694 57.3803 58.6626 57.3803C58.8559 57.3803 58.9904 57.4097 59.066 57.4685C59.1458 57.5231 59.1941 57.5945 59.2109 57.6828C59.2277 57.771 59.2361 57.8634 59.2361 57.9601V61.2183C59.2361 61.3107 59.2277 61.4011 59.2109 61.4893C59.1941 61.5775 59.1458 61.651 59.066 61.7099C58.9862 61.7645 58.8496 61.7918 58.6563 61.7918ZM63.015 61.8611C62.6957 61.8611 62.4142 61.7981 62.1705 61.6721C61.931 61.5418 61.7294 61.3717 61.5655 61.1616C61.4016 60.9515 61.2777 60.7204 61.1937 60.4683C61.1138 60.2162 61.0739 59.9663 61.0739 59.7184V57.9538C61.0739 57.8571 61.0823 57.7647 61.0991 57.6765C61.1159 57.5882 61.1643 57.5168 61.2441 57.4622C61.3239 57.4034 61.4605 57.374 61.6537 57.374C61.847 57.374 61.9835 57.4034 62.0634 57.4622C62.1432 57.5168 62.1915 57.5882 62.2083 57.6765C62.2251 57.7647 62.2335 57.8592 62.2335 57.9601V59.7184C62.2335 59.857 62.2566 60.002 62.3029 60.1532C62.3491 60.3045 62.4289 60.4347 62.5423 60.544C62.66 60.649 62.8238 60.7015 63.0339 60.7015C63.1936 60.7015 63.3322 60.6616 63.4499 60.5818C63.5675 60.4977 63.6578 60.3822 63.7208 60.2352C63.7881 60.0839 63.8217 59.9095 63.8217 59.7121V57.9222C63.8217 57.8298 63.8301 57.7437 63.8469 57.6639C63.8679 57.5798 63.9183 57.5105 63.9981 57.4559C64.078 57.4013 64.2124 57.374 64.4015 57.374C64.5948 57.374 64.7292 57.4034 64.8048 57.4622C64.8847 57.521 64.933 57.5945 64.9498 57.6828C64.9666 57.771 64.975 57.8634 64.975 57.9601V59.731C64.975 59.9831 64.933 60.2352 64.8489 60.4872C64.7649 60.7351 64.6389 60.9641 64.4708 61.1742C64.3069 61.3801 64.1032 61.546 63.8595 61.6721C63.6158 61.7981 63.3343 61.8611 63.015 61.8611ZM69.1899 61.6342C69.0765 61.7351 68.9756 61.8002 68.8874 61.8296C68.8034 61.8632 68.7215 61.859 68.6416 61.817C68.5618 61.7792 68.4736 61.7057 68.3769 61.5964L65.4149 58.3445C65.2763 58.1974 65.2048 58.063 65.2006 57.9412C65.2006 57.8193 65.2826 57.6828 65.4464 57.5315C65.5599 57.4265 65.6586 57.3593 65.7426 57.3298C65.8309 57.2962 65.9149 57.3004 65.9947 57.3424C66.0787 57.3803 66.167 57.4559 66.2594 57.5693L69.2214 60.8276C69.3643 60.983 69.4378 61.1196 69.442 61.2372C69.4462 61.3506 69.3622 61.483 69.1899 61.6342ZM65.4527 61.6342C65.2847 61.483 65.2006 61.3506 65.2006 61.2372C65.2048 61.1196 65.2784 60.983 65.4212 60.8276L68.3832 57.5693C68.4799 57.4559 68.5681 57.3803 68.6479 57.3424C68.7278 57.3004 68.8097 57.2962 68.8937 57.3298C68.9819 57.3593 69.0828 57.4265 69.1962 57.5315C69.3643 57.6828 69.4462 57.8193 69.442 57.9412C69.4378 58.063 69.3664 58.1974 69.2277 58.3445L66.2657 61.5964C66.1733 61.7057 66.085 61.7792 66.001 61.817C65.9212 61.859 65.8372 61.8632 65.7489 61.8296C65.6649 61.8002 65.5662 61.7351 65.4527 61.6342Z" fill="url(#paint10_linear_24_404)" shape-rendering="crispEdges"/>
</g>
<g filter="url(#filter10_d_24_404)">
<path d="M69.9999 60.3879V71.7983C69.9999 72.1737 70.3046 72.4753 70.6769 72.4753C70.8708 72.4753 71.0585 72.3922 71.1878 72.2445L73.7296 69.3365L75.5174 72.9153C75.7605 73.4015 76.3514 73.5985 76.8376 73.3554C77.3238 73.1123 77.5207 72.5215 77.2776 72.0352L75.5328 68.5364H79.1671C79.5425 68.5364 79.8471 68.2318 79.8471 67.8563C79.8471 67.6625 79.764 67.4778 79.6194 67.3486L71.1878 59.8555C71.0554 59.7386 70.8893 59.674 70.7139 59.674C70.32 59.674 69.9999 59.994 69.9999 60.3879Z" fill="url(#paint11_linear_24_404)" shape-rendering="crispEdges"/>
</g>
<g filter="url(#filter11_d_24_404)">
<path d="M36.2241 54.7504C36.2241 54.7643 36.2241 54.7781 36.2241 54.792C36.2179 55.3536 35.7071 55.7351 35.1455 55.7351H33.6392C33.2314 55.7351 32.9006 56.0659 32.9006 56.4737C32.9006 56.526 32.9068 56.5768 32.916 56.626C32.9483 56.7829 33.016 56.9337 33.0822 57.0861C33.176 57.2984 33.2684 57.5092 33.2684 57.7323C33.2684 58.2216 32.936 58.6662 32.4467 58.6862C32.3929 58.6878 32.339 58.6893 32.2836 58.6893C30.1096 58.6893 28.3463 56.926 28.3463 54.7504C28.3463 52.5748 30.1096 50.8116 32.2852 50.8116C34.4608 50.8116 36.2241 52.5748 36.2241 54.7504ZM30.3158 55.2428C30.3158 55.1122 30.2639 54.987 30.1715 54.8946C30.0792 54.8023 29.954 54.7504 29.8234 54.7504C29.6928 54.7504 29.5676 54.8023 29.4752 54.8946C29.3829 54.987 29.331 55.1122 29.331 55.2428C29.331 55.3734 29.3829 55.4986 29.4752 55.5909C29.5676 55.6833 29.6928 55.7351 29.8234 55.7351C29.954 55.7351 30.0792 55.6833 30.1715 55.5909C30.2639 55.4986 30.3158 55.3734 30.3158 55.2428ZM30.3158 53.7657C30.4463 53.7657 30.5716 53.7138 30.6639 53.6215C30.7562 53.5292 30.8081 53.4039 30.8081 53.2734C30.8081 53.1428 30.7562 53.0175 30.6639 52.9252C30.5716 52.8329 30.4463 52.781 30.3158 52.781C30.1852 52.781 30.0599 52.8329 29.9676 52.9252C29.8753 53.0175 29.8234 53.1428 29.8234 53.2734C29.8234 53.4039 29.8753 53.5292 29.9676 53.6215C30.0599 53.7138 30.1852 53.7657 30.3158 53.7657ZM32.7775 52.2886C32.7775 52.158 32.7257 52.0328 32.6333 51.9405C32.541 51.8481 32.4158 51.7963 32.2852 51.7963C32.1546 51.7963 32.0294 51.8481 31.937 51.9405C31.8447 52.0328 31.7928 52.158 31.7928 52.2886C31.7928 52.4192 31.8447 52.5444 31.937 52.6368C32.0294 52.7291 32.1546 52.781 32.2852 52.781C32.4158 52.781 32.541 52.7291 32.6333 52.6368C32.7257 52.5444 32.7775 52.4192 32.7775 52.2886ZM34.2546 53.7657C34.3852 53.7657 34.5104 53.7138 34.6028 53.6215C34.6951 53.5292 34.747 53.4039 34.747 53.2734C34.747 53.1428 34.6951 53.0175 34.6028 52.9252C34.5104 52.8329 34.3852 52.781 34.2546 52.781C34.124 52.781 33.9988 52.8329 33.9065 52.9252C33.8141 53.0175 33.7623 53.1428 33.7623 53.2734C33.7623 53.4039 33.8141 53.5292 33.9065 53.6215C33.9988 53.7138 34.124 53.7657 34.2546 53.7657Z" fill="url(#paint12_linear_24_404)" shape-rendering="crispEdges"/>
</g>
</g>
<defs>
<filter id="filter0_d_24_404" x="0.0238037" y="0.000335693" width="83.8233" height="88.9997" filterUnits="userSpaceOnUse" color-interpolation-filters="sRGB">
<feFlood flood-opacity="0" result="BackgroundImageFix"/>
<feColorMatrix in="SourceAlpha" type="matrix" values="0 0 0 0 0 0 0 0 0 0 0 0 0 0 0 0 0 0 127 0" result="hardAlpha"/>
<feOffset dy="4"/>
<feGaussianBlur stdDeviation="2"/>
<feComposite in2="hardAlpha" operator="out"/>
<feColorMatrix type="matrix" values="0 0 0 0 0 0 0 0 0 0 0 0 0 0 0 0 0 0 0.25 0"/>
<feBlend mode="normal" in2="BackgroundImageFix" result="effect1_dropShadow_24_404"/>
<feBlend mode="normal" in="SourceGraphic" in2="effect1_dropShadow_24_404" result="shape"/>
</filter>
<filter id="filter1_d_24_404" x="3.62992" y="14.6723" width="32.7911" height="16.3463" filterUnits="userSpaceOnUse" color-interpolation-filters="sRGB">
<feFlood flood-opacity="0" result="BackgroundImageFix"/>
<feColorMatrix in="SourceAlpha" type="matrix" values="0 0 0 0 0 0 0 0 0 0 0 0 0 0 0 0 0 0 127 0" result="hardAlpha"/>
<feOffset dy="0.393887"/>
<feGaussianBlur stdDeviation="0.196944"/>
<feComposite in2="hardAlpha" operator="out"/>
<feColorMatrix type="matrix" values="0 0 0 0 0 0 0 0 0 0 0 0 0 0 0 0 0 0 0.25 0"/>
<feBlend mode="normal" in2="BackgroundImageFix" result="effect1_dropShadow_24_404"/>
<feBlend mode="normal" in="SourceGraphic" in2="effect1_dropShadow_24_404" result="shape"/>
</filter>
<filter id="filter2_d_24_404" x="5.40238" y="19.8914" width="14.3769" height="1.57556" filterUnits="userSpaceOnUse" color-interpolation-filters="sRGB">
<feFlood flood-opacity="0" result="BackgroundImageFix"/>
<feColorMatrix in="SourceAlpha" type="matrix" values="0 0 0 0 0 0 0 0 0 0 0 0 0 0 0 0 0 0 127 0" result="hardAlpha"/>
<feOffset dy="0.393887"/>
<feGaussianBlur stdDeviation="0.196944"/>
<feComposite in2="hardAlpha" operator="out"/>
<feColorMatrix type="matrix" values="0 0 0 0 0 0 0 0 0 0 0 0 0 0 0 0 0 0 0.25 0"/>
<feBlend mode="normal" in2="BackgroundImageFix" result="effect1_dropShadow_24_404"/>
<feBlend mode="normal" in="SourceGraphic" in2="effect1_dropShadow_24_404" result="shape"/>
</filter>
<filter id="filter3_d_24_404" x="5.40238" y="22.0577" width="22.6486" height="1.57556" filterUnits="userSpaceOnUse" color-interpolation-filters="sRGB">
<feFlood flood-opacity="0" result="BackgroundImageFix"/>
<feColorMatrix in="SourceAlpha" type="matrix" values="0 0 0 0 0 0 0 0 0 0 0 0 0 0 0 0 0 0 127 0" result="hardAlpha"/>
<feOffset dy="0.393887"/>
<feGaussianBlur stdDeviation="0.196944"/>
<feComposite in2="hardAlpha" operator="out"/>
<feColorMatrix type="matrix" values="0 0 0 0 0 0 0 0 0 0 0 0 0 0 0 0 0 0 0.25 0"/>
<feBlend mode="normal" in2="BackgroundImageFix" result="effect1_dropShadow_24_404"/>
<feBlend mode="normal" in="SourceGraphic" in2="effect1_dropShadow_24_404" result="shape"/>
</filter>
<filter id="filter4_d_24_404" x="5.40238" y="24.2241" width="18.2173" height="1.57556" filterUnits="userSpaceOnUse" color-interpolation-filters="sRGB">
<feFlood flood-opacity="0" result="BackgroundImageFix"/>
<feColorMatrix in="SourceAlpha" type="matrix" values="0 0 0 0 0 0 0 0 0 0 0 0 0 0 0 0 0 0 127 0" result="hardAlpha"/>
<feOffset dy="0.393887"/>
<feGaussianBlur stdDeviation="0.196944"/>
<feComposite in2="hardAlpha" operator="out"/>
<feColorMatrix type="matrix" values="0 0 0 0 0 0 0 0 0 0 0 0 0 0 0 0 0 0 0.25 0"/>
<feBlend mode="normal" in2="BackgroundImageFix" result="effect1_dropShadow_24_404"/>
<feBlend mode="normal" in="SourceGraphic" in2="effect1_dropShadow_24_404" result="shape"/>
</filter>
<filter id="filter5_d_24_404" x="21.4533" y="46.3802" width="21.5654" height="17.4295" filterUnits="userSpaceOnUse" color-interpolation-filters="sRGB">
<feFlood flood-opacity="0" result="BackgroundImageFix"/>
<feColorMatrix in="SourceAlpha" type="matrix" values="0 0 0 0 0 0 0 0 0 0 0 0 0 0 0 0 0 0 127 0" result="hardAlpha"/>
<feOffset dy="0.393887"/>
<feGaussianBlur stdDeviation="0.196944"/>
<feComposite in2="hardAlpha" operator="out"/>
<feColorMatrix type="matrix" values="0 0 0 0 0 0 0 0 0 0 0 0 0 0 0 0 0 0 0.25 0"/>
<feBlend mode="normal" in2="BackgroundImageFix" result="effect1_dropShadow_24_404"/>
<feBlend mode="normal" in="SourceGraphic" in2="effect1_dropShadow_24_404" result="shape"/>
</filter>
<filter id="filter6_d_24_404" x="46.3667" y="14.6723" width="15.657" height="19.0051" filterUnits="userSpaceOnUse" color-interpolation-filters="sRGB">
<feFlood flood-opacity="0" result="BackgroundImageFix"/>
<feColorMatrix in="SourceAlpha" type="matrix" values="0 0 0 0 0 0 0 0 0 0 0 0 0 0 0 0 0 0 127 0" result="hardAlpha"/>
<feOffset dy="0.393887"/>
<feGaussianBlur stdDeviation="0.196944"/>
<feComposite in2="hardAlpha" operator="out"/>
<feColorMatrix type="matrix" values="0 0 0 0 0 0 0 0 0 0 0 0 0 0 0 0 0 0 0.25 0"/>
<feBlend mode="normal" in2="BackgroundImageFix" result="effect1_dropShadow_24_404"/>
<feBlend mode="normal" in="SourceGraphic" in2="effect1_dropShadow_24_404" result="shape"/>
</filter>
<filter id="filter7_d_24_404" x="47.9422" y="50.9099" width="27.3752" height="18.0203" filterUnits="userSpaceOnUse" color-interpolation-filters="sRGB">
<feFlood flood-opacity="0" result="BackgroundImageFix"/>
<feColorMatrix in="SourceAlpha" type="matrix" values="0 0 0 0 0 0 0 0 0 0 0 0 0 0 0 0 0 0 127 0" result="hardAlpha"/>
<feOffset dy="0.393887"/>
<feGaussianBlur stdDeviation="0.196944"/>
<feComposite in2="hardAlpha" operator="out"/>
<feColorMatrix type="matrix" values="0 0 0 0 0 0 0 0 0 0 0 0 0 0 0 0 0 0 0.25 0"/>
<feBlend mode="normal" in2="BackgroundImageFix" result="effect1_dropShadow_24_404"/>
<feBlend mode="normal" in="SourceGraphic" in2="effect1_dropShadow_24_404" result="shape"/>
</filter>
<filter id="filter8_d_24_404" x="51.3888" y="20.4822" width="5.71136" height="7.35256" filterUnits="userSpaceOnUse" color-interpolation-filters="sRGB">
<feFlood flood-opacity="0" result="BackgroundImageFix"/>
<feColorMatrix in="SourceAlpha" type="matrix" values="0 0 0 0 0 0 0 0 0 0 0 0 0 0 0 0 0 0 127 0" result="hardAlpha"/>
<feOffset dy="0.393887"/>
<feGaussianBlur stdDeviation="0.196944"/>
<feComposite in2="hardAlpha" operator="out"/>
<feColorMatrix type="matrix" values="0 0 0 0 0 0 0 0 0 0 0 0 0 0 0 0 0 0 0.25 0"/>
<feBlend mode="normal" in2="BackgroundImageFix" result="effect1_dropShadow_24_404"/>
<feBlend mode="normal" in="SourceGraphic" in2="effect1_dropShadow_24_404" result="shape"/>
</filter>
<filter id="filter9_d_24_404" x="53.4362" y="57.2794" width="16.406" height="5.38839" filterUnits="userSpaceOnUse" color-interpolation-filters="sRGB">
<feFlood flood-opacity="0" result="BackgroundImageFix"/>
<feColorMatrix in="SourceAlpha" type="matrix" values="0 0 0 0 0 0 0 0 0 0 0 0 0 0 0 0 0 0 127 0" result="hardAlpha"/>
<feOffset dy="0.393887"/>
<feGaussianBlur stdDeviation="0.196944"/>
<feComposite in2="hardAlpha" operator="out"/>
<feColorMatrix type="matrix" values="0 0 0 0 0 0 0 0 0 0 0 0 0 0 0 0 0 0 0.25 0"/>
<feBlend mode="normal" in2="BackgroundImageFix" result="effect1_dropShadow_24_404"/>
<feBlend mode="normal" in="SourceGraphic" in2="effect1_dropShadow_24_404" result="shape"/>
</filter>
<filter id="filter10_d_24_404" x="69.6061" y="59.674" width="10.6349" height="14.5734" filterUnits="userSpaceOnUse" color-interpolation-filters="sRGB">
<feFlood flood-opacity="0" result="BackgroundImageFix"/>
<feColorMatrix in="SourceAlpha" type="matrix" values="0 0 0 0 0 0 0 0 0 0 0 0 0 0 0 0 0 0 127 0" result="hardAlpha"/>
<feOffset dy="0.393887"/>
<feGaussianBlur stdDeviation="0.196944"/>
<feComposite in2="hardAlpha" operator="out"/>
<feColorMatrix type="matrix" values="0 0 0 0 0 0 0 0 0 0 0 0 0 0 0 0 0 0 0.25 0"/>
<feBlend mode="normal" in2="BackgroundImageFix" result="effect1_dropShadow_24_404"/>
<feBlend mode="normal" in="SourceGraphic" in2="effect1_dropShadow_24_404" result="shape"/>
</filter>
<filter id="filter11_d_24_404" x="27.9524" y="50.8116" width="8.66552" height="8.66552" filterUnits="userSpaceOnUse" color-interpolation-filters="sRGB">
<feFlood flood-opacity="0" result="BackgroundImageFix"/>
<feColorMatrix in="SourceAlpha" type="matrix" values="0 0 0 0 0 0 0 0 0 0 0 0 0 0 0 0 0 0 127 0" result="hardAlpha"/>
<feOffset dy="0.393887"/>
<feGaussianBlur stdDeviation="0.196944"/>
<feComposite in2="hardAlpha" operator="out"/>
<feColorMatrix type="matrix" values="0 0 0 0 0 0 0 0 0 0 0 0 0 0 0 0 0 0 0.25 0"/>
<feBlend mode="normal" in2="BackgroundImageFix" result="effect1_dropShadow_24_404"/>
<feBlend mode="normal" in="SourceGraphic" in2="effect1_dropShadow_24_404" result="shape"/>
</filter>
<linearGradient id="paint0_linear_24_404" x1="43.0186" y1="2.75726" x2="43.0186" y2="77.9897" gradientUnits="userSpaceOnUse">
<stop stop-color="white" stop-opacity="0.49"/>
<stop offset="1" stop-color="white" stop-opacity="0"/>
</linearGradient>
<linearGradient id="paint1_linear_24_404" x1="42.9695" y1="0.000335693" x2="42.9695" y2="81" gradientUnits="userSpaceOnUse">
<stop stop-color="white" stop-opacity="0.49"/>
<stop offset="1" stop-color="white" stop-opacity="0"/>
</linearGradient>
<linearGradient id="paint2_linear_24_404" x1="20.0255" y1="14.6723" x2="20.0255" y2="30.2309" gradientUnits="userSpaceOnUse">
<stop stop-color="white" stop-opacity="0.49"/>
<stop offset="1" stop-color="white" stop-opacity="0"/>
</linearGradient>
<linearGradient id="paint3_linear_24_404" x1="12.5908" y1="19.8914" x2="12.5908" y2="20.6791" gradientUnits="userSpaceOnUse">
<stop stop-color="white" stop-opacity="0.49"/>
<stop offset="1" stop-color="white" stop-opacity="0"/>
</linearGradient>
<linearGradient id="paint4_linear_24_404" x1="16.7266" y1="22.0577" x2="16.7266" y2="22.8455" gradientUnits="userSpaceOnUse">
<stop stop-color="white" stop-opacity="0.49"/>
<stop offset="1" stop-color="white" stop-opacity="0"/>
</linearGradient>
<linearGradient id="paint5_linear_24_404" x1="14.511" y1="24.2241" x2="14.511" y2="25.0118" gradientUnits="userSpaceOnUse">
<stop stop-color="white" stop-opacity="0.49"/>
<stop offset="1" stop-color="white" stop-opacity="0"/>
</linearGradient>
<linearGradient id="paint6_linear_24_404" x1="32.2359" y1="46.3802" x2="32.2359" y2="63.022" gradientUnits="userSpaceOnUse">
<stop stop-color="white" stop-opacity="0.49"/>
<stop offset="1" stop-color="white" stop-opacity="0"/>
</linearGradient>
<linearGradient id="paint7_linear_24_404" x1="54.1952" y1="14.6723" x2="54.1952" y2="32.8896" gradientUnits="userSpaceOnUse">
<stop stop-color="white" stop-opacity="0.49"/>
<stop offset="1" stop-color="white" stop-opacity="0"/>
</linearGradient>
<linearGradient id="paint8_linear_24_404" x1="61.6298" y1="50.9099" x2="61.6298" y2="68.1425" gradientUnits="userSpaceOnUse">
<stop stop-color="white" stop-opacity="0.49"/>
<stop offset="1" stop-color="white" stop-opacity="0"/>
</linearGradient>
<linearGradient id="paint9_linear_24_404" x1="54.2444" y1="20.4822" x2="54.2444" y2="27.047" gradientUnits="userSpaceOnUse">
<stop stop-color="white" stop-opacity="0.49"/>
<stop offset="1" stop-color="white" stop-opacity="0"/>
</linearGradient>
<linearGradient id="paint10_linear_24_404" x1="61.6536" y1="55.7351" x2="61.6536" y2="63.7351" gradientUnits="userSpaceOnUse">
<stop stop-color="white" stop-opacity="0.49"/>
<stop offset="1" stop-color="white" stop-opacity="0"/>
</linearGradient>
<linearGradient id="paint11_linear_24_404" x1="74.9235" y1="59.674" x2="74.9235" y2="73.4595" gradientUnits="userSpaceOnUse">
<stop stop-color="white" stop-opacity="0.49"/>
<stop offset="1" stop-color="white" stop-opacity="0"/>
</linearGradient>
<linearGradient id="paint12_linear_24_404" x1="32.2852" y1="50.8116" x2="32.2852" y2="58.6893" gradientUnits="userSpaceOnUse">
<stop stop-color="white" stop-opacity="0.49"/>
<stop offset="1" stop-color="white" stop-opacity="0"/>
</linearGradient>
</defs>
</svg>
