<svg width="24" height="24" viewBox="0 0 24 24" fill="none" xmlns="http://www.w3.org/2000/svg">
<path d="M15 5.3999C15 6.19555 14.684 6.95861 14.1213 7.52122C13.5587 8.08383 12.7957 8.3999 12 8.3999C11.2044 8.3999 10.4413 8.08383 9.8787 7.52122C9.3161 6.95861 9.00002 6.19555 9.00002 5.3999C9.00002 4.60425 9.3161 3.84119 9.8787 3.27858C10.4413 2.71597 11.2044 2.3999 12 2.3999C12.7957 2.3999 13.5587 2.71597 14.1213 3.27858C14.684 3.84119 15 4.60425 15 5.3999ZM21 5.9999C21 6.63642 20.7472 7.24687 20.2971 7.69696C19.847 8.14705 19.2365 8.3999 18.6 8.3999C17.9635 8.3999 17.3531 8.14705 16.903 7.69696C16.4529 7.24687 16.2 6.63642 16.2 5.9999C16.2 5.36338 16.4529 4.75293 16.903 4.30285C17.3531 3.85276 17.9635 3.5999 18.6 3.5999C19.2365 3.5999 19.847 3.85276 20.2971 4.30285C20.7472 4.75293 21 5.36338 21 5.9999ZM5.40002 8.3999C6.03654 8.3999 6.64699 8.14705 7.09708 7.69696C7.54717 7.24687 7.80002 6.63642 7.80002 5.9999C7.80002 5.36338 7.54717 4.75293 7.09708 4.30285C6.64699 3.85276 6.03654 3.5999 5.40002 3.5999C4.7635 3.5999 4.15306 3.85276 3.70297 4.30285C3.25288 4.75293 3.00002 5.36338 3.00002 5.9999C3.00002 6.63642 3.25288 7.24687 3.70297 7.69696C4.15306 8.14705 4.7635 8.3999 5.40002 8.3999ZM7.20002 11.0999C7.20002 10.2719 7.87202 9.5999 8.70002 9.5999H15.3C16.128 9.5999 16.8 10.2719 16.8 11.0999V16.7999C16.8 18.0729 16.2943 19.2938 15.3941 20.194C14.494 21.0942 13.2731 21.5999 12 21.5999C10.727 21.5999 9.50609 21.0942 8.60591 20.194C7.70574 19.2938 7.20002 18.0729 7.20002 16.7999V11.0999ZM6.00002 11.0999C6.00002 10.5443 6.16802 10.0295 6.45482 9.5999H3.90002C3.07202 9.5999 2.40002 10.2719 2.40002 11.0999V15.5999C2.39997 16.1136 2.50987 16.6215 2.72235 17.0892C2.93482 17.5569 3.24495 17.9738 3.63189 18.3117C4.01883 18.6497 4.47362 18.9009 4.9657 19.0485C5.45779 19.1961 5.97576 19.2367 6.48482 19.1675C6.16431 18.4194 5.99937 17.6138 6.00002 16.7999V11.0999ZM18 16.7999C18 17.6399 17.8272 18.4415 17.5152 19.1675C17.6736 19.1891 17.8352 19.1999 18 19.1999C18.9548 19.1999 19.8705 18.8206 20.5456 18.1455C21.2207 17.4704 21.6 16.5547 21.6 15.5999V11.0999C21.6 10.2719 20.928 9.5999 20.1 9.5999H17.5452C17.8332 10.0295 18 10.5443 18 11.0999V16.7999Z" fill="white"/>
</svg>
