<svg width="24" height="24" viewBox="0 0 24 24" fill="none" xmlns="http://www.w3.org/2000/svg">
<path d="M18.382 3.04346H4.96281C3.90844 3.04346 3.04578 3.90612 3.04578 4.96049V18.3797C3.04578 19.4341 3.90844 20.2967 4.96281 20.2967H18.382C19.4364 20.2967 20.299 19.4341 20.299 18.3797V4.96049C20.299 3.90612 19.4364 3.04346 18.382 3.04346ZM6.87984 6.87752H8.79687V8.79455H6.87984V6.87752ZM6.87984 10.7116H8.79687V12.6286H6.87984V10.7116ZM6.87984 14.5456H8.79687V16.4627H6.87984V14.5456ZM16.465 16.4627H10.7139V14.5456H16.465V16.4627ZM16.465 12.6286H10.7139V10.7116H16.465V12.6286ZM16.465 8.79455H10.7139V6.87752H16.465V8.79455Z" fill="white"/>
</svg>
