<svg width="25" height="24" viewBox="0 0 25 24" fill="none" xmlns="http://www.w3.org/2000/svg">
<g opacity="0.45" clip-path="url(#clip0_3448_5091)">
<path fill-rule="evenodd" clip-rule="evenodd" d="M16.4975 10.9399C16.7784 11.2212 16.9362 11.6024 16.9362 11.9999C16.9362 12.3974 16.7784 12.7787 16.4975 13.0599L10.8415 18.7179C10.5601 18.9992 10.1785 19.1571 9.78066 19.157C9.3828 19.1569 9.00127 18.9988 8.72001 18.7174C8.43875 18.436 8.28079 18.0544 8.28088 17.6566C8.28098 17.2587 8.43912 16.8772 8.72051 16.5959L13.3165 11.9999L8.72051 7.40391C8.44714 7.12114 8.29577 6.7423 8.299 6.34901C8.30223 5.95571 8.4598 5.57941 8.73778 5.30117C9.01577 5.02292 9.39191 4.86499 9.78521 4.86139C10.1785 4.85779 10.5575 5.0088 10.8405 5.28191L16.4985 10.9389L16.4975 10.9399Z" fill="white"/>
</g>
<defs>
<clipPath id="clip0_3448_5091">
<rect width="24" height="24" fill="white" transform="translate(0.4375)"/>
</clipPath>
</defs>
</svg>
