<svg width="35" height="35" viewBox="0 0 35 35" fill="none" xmlns="http://www.w3.org/2000/svg">
<g clip-path="url(#clip0_3448_5041)">
<path d="M0.738166 17.2211C0.737355 20.1499 1.50264 23.0098 2.95781 25.5304L0.598999 34.1429L9.41273 31.8319C11.8505 33.1589 14.5818 33.8543 17.3574 33.8545H17.3647C26.5274 33.8545 33.9861 26.3985 33.99 17.2342C33.9918 12.7934 32.264 8.61759 29.1247 5.47592C25.986 2.33453 21.8117 0.603589 17.364 0.601562C8.20023 0.601562 0.742084 8.05714 0.738301 17.2211" fill="url(#paint0_linear_3448_5041)"/>
<path d="M0.144572 17.2156C0.143626 20.2499 0.936338 23.212 2.4434 25.8229L0 34.7441L9.12976 32.3503C11.6453 33.7218 14.4776 34.4449 17.3595 34.446H17.367C26.8584 34.446 34.585 26.7218 34.5891 17.2294C34.5907 12.6291 32.8007 8.30314 29.5494 5.04893C26.2976 1.79512 21.9739 0.00189159 17.367 0C7.87388 0 0.148355 7.7231 0.144572 17.2156ZM5.58168 25.3733L5.24079 24.8321C3.80777 22.5536 3.05141 19.9205 3.05249 17.2167C3.05546 9.32676 9.4766 2.90765 17.3724 2.90765C21.1961 2.90927 24.7896 4.39984 27.4924 7.10428C30.1951 9.80898 31.6823 13.4044 31.6813 17.2283C31.6778 25.1183 25.2565 31.5382 17.367 31.5382H17.3613C14.7924 31.5369 12.2729 30.847 10.0757 29.5433L9.55281 29.2332L4.13502 30.6536L5.58168 25.3733Z" fill="url(#paint1_linear_3448_5041)"/>
<path d="M13.0625 10.0187C12.7401 9.30217 12.4008 9.28771 12.0943 9.27515C11.8432 9.26434 11.5562 9.26515 11.2695 9.26515C10.9826 9.26515 10.5163 9.37311 10.1222 9.80344C9.72762 10.2342 8.61591 11.2751 8.61591 13.3922C8.61591 15.5093 10.158 17.5555 10.3729 17.8428C10.5882 18.1297 13.3499 22.6133 17.7238 24.3382C21.3589 25.7716 22.0986 25.4865 22.8876 25.4146C23.6766 25.343 25.4336 24.374 25.7921 23.3691C26.1508 22.3644 26.1508 21.5032 26.0433 21.3232C25.9357 21.1439 25.6487 21.0363 25.2184 20.8212C24.7881 20.606 22.6723 19.5649 22.2779 19.4212C21.8834 19.2777 21.5965 19.2061 21.3096 19.637C21.0226 20.0672 20.1985 21.0363 19.9473 21.3232C19.6964 21.6109 19.4453 21.6467 19.0151 21.4315C18.5845 21.2155 17.1986 20.7617 15.5544 19.2959C14.2751 18.1552 13.4115 16.7467 13.1605 16.3158C12.9094 15.8856 13.1336 15.6524 13.3493 15.438C13.5427 15.2451 13.7798 14.9355 13.9952 14.6843C14.2097 14.433 14.2814 14.2537 14.4248 13.9667C14.5685 13.6794 14.4966 13.4281 14.3892 13.2129C14.2814 12.9977 13.4451 10.8695 13.0625 10.0187Z" fill="white"/>
</g>
<defs>
<linearGradient id="paint0_linear_3448_5041" x1="1670.15" y1="3354.73" x2="1670.15" y2="0.601562" gradientUnits="userSpaceOnUse">
<stop stop-color="#1FAF38"/>
<stop offset="1" stop-color="#60D669"/>
</linearGradient>
<linearGradient id="paint1_linear_3448_5041" x1="1729.45" y1="3474.41" x2="1729.45" y2="0" gradientUnits="userSpaceOnUse">
<stop stop-color="#F9F9F9"/>
<stop offset="1" stop-color="white"/>
</linearGradient>
<clipPath id="clip0_3448_5041">
<rect width="34.5891" height="34.8593" fill="white"/>
</clipPath>
</defs>
</svg>
