<svg width="29" height="26" viewBox="0 0 29 26" fill="none" xmlns="http://www.w3.org/2000/svg">
<path opacity="0.5" d="M26.25 0.96875H2.1875C1.60734 0.96875 1.05094 1.19922 0.640704 1.60945C0.230468 2.01969 0 2.57609 0 3.15625V22.8438C0 23.4239 0.230468 23.9803 0.640704 24.3905C1.05094 24.8008 1.60734 25.0312 2.1875 25.0312H4.01816C4.22517 25.0313 4.42794 24.9726 4.60291 24.862C4.77789 24.7514 4.91789 24.5935 5.00664 24.4064C5.5385 23.2835 6.37822 22.3347 7.42813 21.6703C8.47804 21.0058 9.69501 20.6531 10.9375 20.6531C12.18 20.6531 13.397 21.0058 14.4469 21.6703C15.4968 22.3347 16.3365 23.2835 16.8684 24.4064C16.9571 24.5935 17.0971 24.7514 17.2721 24.862C17.4471 24.9726 17.6498 25.0313 17.8568 25.0312H26.25C26.8302 25.0312 27.3866 24.8008 27.7968 24.3905C28.207 23.9803 28.4375 23.4239 28.4375 22.8438V3.15625C28.4375 2.57609 28.207 2.01969 27.7968 1.60945C27.3866 1.19922 26.8302 0.96875 26.25 0.96875ZM10.9375 18.4688C10.0722 18.4688 9.22635 18.2122 8.50688 17.7314C7.78742 17.2507 7.22666 16.5674 6.89553 15.768C6.56439 14.9686 6.47775 14.0889 6.64656 13.2402C6.81537 12.3916 7.23205 11.612 7.84391 11.0002C8.45576 10.3883 9.23531 9.97162 10.084 9.80281C10.9326 9.634 11.8123 9.72064 12.6117 10.0518C13.4112 10.3829 14.0944 10.9437 14.5752 11.6631C15.0559 12.3826 15.3125 13.2285 15.3125 14.0938C15.3125 15.2541 14.8516 16.3669 14.0311 17.1873C13.2106 18.0078 12.0978 18.4688 10.9375 18.4688ZM26.25 22.8438H18.5158C18.039 22.0216 17.4313 21.2827 16.7166 20.6562H22.9688C23.2588 20.6562 23.537 20.541 23.7421 20.3359C23.9473 20.1308 24.0625 19.8526 24.0625 19.5625V6.4375C24.0625 6.14742 23.9473 5.86922 23.7421 5.6641C23.537 5.45898 23.2588 5.34375 22.9688 5.34375H5.46875C5.17867 5.34375 4.90047 5.45898 4.69535 5.6641C4.49023 5.86922 4.375 6.14742 4.375 6.4375V19.5625C4.37488 19.8051 4.4554 20.0408 4.6039 20.2326C4.75239 20.4244 4.96044 20.5614 5.19531 20.6221C4.46416 21.2555 3.84362 22.0064 3.35918 22.8438H2.1875V3.15625H26.25V22.8438Z" fill="white"/>
</svg>
